<?xml version="1.0" encoding="UTF-8" standalone="no"?>
<svg width="25px" height="25px" viewBox="0 0 25 25" version="1.1" xmlns="http://www.w3.org/2000/svg" xmlns:xlink="http://www.w3.org/1999/xlink" xmlns:sketch="http://www.bohemiancoding.com/sketch/ns">
    <!-- Generator: Sketch 3.4.4 (17249) - http://www.bohemiancoding.com/sketch -->
    <title>fa-folder-private-full</title>
    <desc>Created with Sketch.</desc>
    <defs></defs>
    <g id="Page-1" stroke="none" stroke-width="1" fill="none" fill-rule="evenodd" sketch:type="MSPage">
        <g id="Private-full" sketch:type="MSArtboardGroup">
            <g id="fa-folder-private-full" sketch:type="MSLayerGroup" transform="translate(1.000000, 0.000000)">
                <path d="M19.8731429,12.3749298 L22.0790163,6.31434244 L6.10424172,0.5 L4.8303459,4 L7.84828571,4 C8.50228571,4 9.06028571,4.23630639 9.542,4.67400105 C10.0031429,5.1295608 10.2534286,5.658205 10.2534286,6.27779874 L10.2534286,6.60586672 L17.468,6.60586672 C18.122,6.60586672 18.68,6.82512007 19.1608571,7.28067982 C19.6228571,7.73623957 19.8731429,8.26488377 19.8731429,8.88447751 L19.8731429,12.3749298 L19.8731429,12.3749298 Z" id="Rectangle-33" fill="#999999" sketch:type="MSShapeGroup"></path>
                <path d="M0.711428571,19.6513635 C1.17342857,20.1077353 1.75028571,20.3261766 2.40428571,20.3261766 L15.468,20.3261766 C16.122,20.3261766 16.68,20.1077353 17.1608571,19.6513635 C17.6228571,19.2144809 17.8731429,18.6671595 17.8731429,18.0475658 L17.8731429,10.8844775 C17.8731429,10.2648838 17.6228571,9.73623957 17.1608571,9.28067982 C16.68,8.82512007 16.122,8.60586672 15.468,8.60586672 L8.25342857,8.60586672 L8.25342857,8.27779874 C8.25342857,7.658205 8.00314286,7.1295608 7.542,6.67400105 C7.06028571,6.23630639 6.50228571,6 5.84828571,6 L2.40428571,6 C1.75028571,6 1.17342857,6.23630639 0.711428571,6.67400105 C0.230571429,7.1295608 0,7.658205 0,8.27779874 L0,18.0475658 C0,18.6671595 0.230571429,19.2144809 0.711428571,19.6513635" id="Fill-240" fill="#00BFF0" sketch:type="MSShapeGroup"></path>
            </g>
        </g>
    </g>
</svg>