<?xml version="1.0" encoding="UTF-8" standalone="no"?>
<svg width="25px" height="25px" viewBox="0 0 25 25" version="1.1" xmlns="http://www.w3.org/2000/svg" xmlns:xlink="http://www.w3.org/1999/xlink" xmlns:sketch="http://www.bohemiancoding.com/sketch/ns">
    <!-- Generator: Sketch 3.4.4 (17249) - http://www.bohemiancoding.com/sketch -->
    <title>fa-folder-public-empty</title>
    <desc>Created with Sketch.</desc>
    <defs></defs>
    <g id="Page-1" stroke="none" stroke-width="1" fill="none" fill-rule="evenodd" sketch:type="MSPage">
        <g id="Public-empty" sketch:type="MSArtboardGroup" fill="#90D05C">
            <g id="fa-folder-private-full" sketch:type="MSLayerGroup" transform="translate(1.000000, 6.000000)">
                <path d="M9.12545482,14.3261766 L2.40428571,14.3261766 C1.75028571,14.3261766 1.17342857,14.1077353 0.711428571,13.6513635 C0.230571429,13.2144809 0,12.6671595 0,12.0475658 L0,2.27779874 C0,1.658205 0.230571429,1.1295608 0.711428571,0.674001052 C1.17342857,0.236306393 1.75028571,0 2.40428571,0 L5.84828571,0 C6.50228571,0 7.06028571,0.236306393 7.542,0.674001052 C8.00314286,1.1295608 8.25342857,1.658205 8.25342857,2.27779874 L8.25342857,2.60586672 L15.468,2.60586672 C16.122,2.60586672 16.68,2.82512007 17.1608571,3.28067982 C17.6228571,3.73623957 17.8731429,4.26488377 17.8731429,4.88447751 L17.8731429,6.25343273 C17.2769447,6.08826169 16.6487797,6 16,6 C12.1340068,6 9,9.13400675 9,13 C9,13.4534195 9.04311001,13.8967701 9.12545482,14.3261766 L9.12545482,14.3261766 Z" id="Fill-240" sketch:type="MSShapeGroup"></path>
                <path d="M13.485444,17.334581 C14.2553545,17.7780204 15.095446,18 16.0057184,18 C16.9040341,18 17.7441256,17.7780204 18.514556,17.334581 C19.2730297,16.8911416 19.8797047,16.2844666 20.334581,15.514556 C20.7780204,14.7441256 21,13.9159909 21,13.0057184 C21,12.095446 20.7780204,11.2553545 20.334581,10.4968808 C19.8797047,9.72697026 19.2730297,9.11977542 18.514556,8.67633604 C17.7441256,8.22145976 16.9040341,8 16.0057184,8 C15.095446,8 14.2553545,8.22145976 13.485444,8.67633604 C12.7269703,9.11977542 12.1202953,9.72697026 11.6648991,10.4968808 C11.2214598,11.2553545 11,12.095446 11,13.0057184 C11,13.9159909 11.2214598,14.7441256 11.6648991,15.514556 C12.1202953,16.2844666 12.7269703,16.8911416 13.485444,17.334581 L13.485444,17.334581 Z M13.9985444,9.35319193 C14.021938,9.34175504 14.0801622,9.34175504 14.1503431,9.34175504 C14.1851736,9.35319193 14.2085673,9.36514868 14.2439177,9.37658557 C14.2787482,9.39997921 14.3021418,9.42337284 14.3369723,9.44676648 C14.3718029,9.48159701 14.3951965,9.50499064 14.4071533,9.51694739 C14.4185901,9.49355375 14.4071533,9.44676648 14.3837596,9.39997921 C14.3837596,9.36514868 14.4305469,9.34175504 14.5236016,9.31836141 C14.6171761,9.30692452 14.6868372,9.30692452 14.7221876,9.32979829 C14.6868372,9.28353088 14.6520067,9.23674361 14.5818257,9.16656269 L14.558952,9.18995633 C14.5236016,9.16656269 14.4305469,9.17851944 14.2787482,9.23674361 C14.2787482,9.24818049 14.2553545,9.26013724 14.220524,9.27157413 C14.1851736,9.29496777 14.1503431,9.30692452 14.1269495,9.31836141 C14.1035558,9.32979829 14.0801622,9.32979829 14.0572884,9.32979829 C14.2667914,9.21334997 14.4653774,9.11977542 14.6639634,9.06155126 C14.6754003,9.06155126 14.6987939,9.08494489 14.7336245,9.10833853 C14.7570181,9.14316906 14.7804117,9.16656269 14.8038054,9.17851944 C14.7923685,9.16656269 14.7804117,9.16656269 14.7804117,9.18995633 C14.7570181,9.23674361 14.7570181,9.28353088 14.7804117,9.31836141 C14.8038054,9.35319193 14.827199,9.36514868 14.8620295,9.36514868 C14.8973799,9.37658557 14.9436473,9.37658557 15.0023913,9.36514868 C15.0486588,9.35319193 15.0840091,9.35319193 15.1074028,9.35319193 L15.1656269,9.35319193 C15.3054689,9.36514868 15.3636931,9.35319193 15.3288625,9.31836141 C15.3408193,9.32979829 15.3636931,9.37658557 15.3756498,9.42337284 C15.3870867,9.48159701 15.4104803,9.51694739 15.433874,9.53982117 C15.4572676,9.51694739 15.4572676,9.49355375 15.4458307,9.44676648 C15.433874,9.39997921 15.433874,9.37658557 15.4458307,9.35319193 C15.4572676,9.35319193 15.4687045,9.34175504 15.4806613,9.32979829 C15.5040549,9.31836141 15.5274485,9.31836141 15.5622791,9.30692452 C15.5856727,9.29496777 15.6090663,9.28353088 15.6205032,9.28353088 C15.6438969,9.26013724 15.6205032,9.23674361 15.5622791,9.18995633 C15.5503223,9.17851944 15.5388854,9.17851944 15.5040549,9.16656269 C15.4806613,9.15512581 15.4572676,9.15512581 15.433874,9.14316906 C15.4104803,9.13173217 15.3870867,9.11977542 15.3636931,9.10833853 C15.3408193,9.09690164 15.3288625,9.07350801 15.3288625,9.05011437 C15.3408193,9.03815762 15.3522562,9.01476398 15.3636931,8.97993346 C15.3990435,8.95653982 15.433874,8.94510293 15.4920981,8.95653982 C15.5503223,8.95653982 15.5971096,8.96849657 15.63246,8.99189021 C15.7489083,9.05011437 15.7603452,9.10833853 15.6787274,9.16656269 C15.7255147,9.16656269 15.7723019,9.17851944 15.8424828,9.21334997 C15.900707,9.24818049 15.9241006,9.27157413 15.9121439,9.30692452 C15.9474943,9.24818049 15.9823248,9.21334997 16.0171553,9.21334997 C16.040549,9.21334997 16.0525057,9.24818049 16.0758994,9.30692452 C16.0987731,9.35319193 16.1107299,9.38854232 16.1107299,9.38854232 C16.1455604,9.43480973 16.1809108,9.44676648 16.2157413,9.42337284 C16.2505718,9.39997921 16.2859222,9.35319193 16.3207528,9.30692452 C16.3555833,9.26013724 16.3789769,9.23674361 16.3909337,9.23674361 C16.3441464,9.22478686 16.3321896,9.20191308 16.36754,9.18995633 C16.4372011,9.14316906 16.4959451,9.14316906 16.5422125,9.15512581 C16.5656062,9.16656269 16.5775629,9.17851944 16.6009565,9.21334997 C16.6357871,9.29496777 16.6357871,9.32979829 16.5775629,9.32979829 C16.6243502,9.36514868 16.6357871,9.39997921 16.6243502,9.45820337 C16.6243502,9.50499064 16.5889998,9.52838428 16.5307756,9.52838428 C16.507382,9.52838428 16.4725515,9.51694739 16.4372011,9.49355375 C16.3909337,9.47016012 16.3555833,9.45820337 16.3441464,9.45820337 C16.3207528,9.45820337 16.2859222,9.47016012 16.2505718,9.49355375 C16.2271782,9.51694739 16.2037846,9.55177792 16.1809108,9.61000208 C16.1575172,9.65678935 16.1221668,9.69161988 16.1107299,9.71501352 C16.040549,9.78519443 15.9355375,9.80858806 15.7837388,9.78519443 C15.7956956,9.78519443 15.7956956,9.79663132 15.7723019,9.8319817 C15.7603452,9.85537534 15.7374714,9.87824912 15.7140778,9.9135995 C15.6906841,9.94843003 15.6672905,9.96038677 15.6672905,9.97182366 C15.63246,10.0186109 15.6090663,10.0653982 15.5856727,10.1236224 L15.5856727,10.2052402 C15.5737159,10.2520274 15.5737159,10.2982949 15.5622791,10.3216885 C15.6090663,10.3102516 15.6558536,10.3336452 15.6787274,10.4033063 C15.702121,10.4620503 15.702121,10.4968808 15.6787274,10.4968808 C15.8305261,10.4734872 15.9474943,10.485444 16.0639426,10.5202745 C16.2157413,10.5784986 16.308796,10.6367228 16.3207528,10.6954668 C16.3555833,10.6486796 16.4143273,10.6486796 16.5188189,10.6835101 C16.5541693,10.7069037 16.5889998,10.7770846 16.6243502,10.8820961 C16.6357871,10.9517571 16.6706176,10.9985444 16.705968,11.0453317 C16.7522354,11.1035558 16.7875858,11.1155126 16.8458099,11.0921189 L16.8572468,11.0801622 C16.8806405,11.0687253 16.8925972,11.0567686 16.9040341,11.0567686 C16.9159909,11.0453317 16.9274277,11.0338948 16.9393845,11.021938 C16.9508214,11.021938 16.9622583,11.0105011 16.9622583,10.9985444 C16.9622583,10.9871075 16.9622583,10.9751508 16.9508214,10.9751508 C16.9159909,10.9517571 16.8925972,10.9054897 16.8806405,10.8701393 C16.8692036,10.823352 16.8692036,10.7770846 16.8925972,10.7417342 C16.9040341,10.7302974 16.9393845,10.6954668 16.9976087,10.6720732 C17.0558328,10.6367228 17.0906633,10.6018923 17.1026201,10.5670618 C17.114057,10.5083177 17.1026201,10.4620503 17.0324392,10.4266999 C16.974215,10.3804325 16.9393845,10.3570389 16.9393845,10.3216885 C16.9393845,10.2982949 16.9622583,10.2754211 16.9856519,10.2400707 C17.0210023,10.2166771 17.0324392,10.1818465 17.0210023,10.1584529 C17.0210023,10.147016 17.0210023,10.1236224 16.9976087,10.0768351 C16.9856519,10.0300478 16.974215,10.0066542 16.974215,9.98326055 C16.974215,9.97182366 16.9856519,9.94843003 17.0090455,9.9135995 C17.0324392,9.90164275 17.1026201,9.90164275 17.2190684,9.92503639 C17.3360366,9.93699314 17.4056977,9.96038677 17.441048,9.98326055 C17.4524849,9.9952173 17.4758786,10.0066542 17.5226658,10.0186109 C17.5694531,10.0420046 17.6042836,10.0534415 17.6391142,10.0768351 C17.6744645,10.1002287 17.6859014,10.1116656 17.6978582,10.1350593 L17.6625078,10.1350593 C17.6859014,10.1584529 17.7092951,10.1938033 17.720732,10.2286338 C17.720732,10.2634643 17.7092951,10.286858 17.6625078,10.2982949 C17.6978582,10.2982949 17.7326887,10.2982949 17.7675192,10.3216885 C17.8377001,10.3450821 17.8377001,10.3684758 17.779476,10.3918694 C17.7909129,10.3918694 17.8143065,10.3804325 17.8377001,10.3804325 C17.8610938,10.3804325 17.8725307,10.3684758 17.8844874,10.3570389 C17.8959243,10.3570389 17.9078811,10.3450821 17.9193179,10.3336452 C17.9307548,10.3216885 17.9427116,10.3216885 17.9541485,10.3216885 C17.9541485,10.3102516 17.9661052,10.3102516 17.9775421,10.3102516 C17.9894989,10.3102516 18.0009357,10.3102516 18.0243294,10.3216885 C18.0243294,10.3216885 18.0357663,10.3102516 18.047723,10.286858 C18.0591599,10.2634643 18.0825535,10.2400707 18.0945103,10.2286338 C18.1179039,10.2052402 18.1293408,10.1938033 18.1407777,10.1938033 C18.1527345,10.1938033 18.1641713,10.1938033 18.1761281,10.2052402 C18.187565,10.2166771 18.1995217,10.2286338 18.1995217,10.2400707 C18.2109586,10.2520274 18.2229154,10.2754211 18.2229154,10.286858 C18.2343523,10.2982949 18.2343523,10.3102516 18.246309,10.3216885 C18.246309,10.3450821 18.2691828,10.3684758 18.3045332,10.3918694 C18.3393637,10.415263 18.3508006,10.4386567 18.3627573,10.4620503 C18.3741942,10.4734872 18.3741942,10.5083177 18.386151,10.555105 C18.3975879,10.6133292 18.4209815,10.6486796 18.4443751,10.6601164 C18.4677688,10.6835101 18.4911624,10.6954668 18.5379497,10.7069037 C18.5493866,10.7183406 18.5727802,10.7183406 18.5961738,10.7069037 C18.6310044,10.6954668 18.654398,10.6954668 18.6777916,10.6954668 C18.6892285,10.7069037 18.7011853,10.7183406 18.7011853,10.753691 C18.7245789,10.7302974 18.7479726,10.7069037 18.7479726,10.6954668 C18.7479726,10.753691 18.7594094,10.8004783 18.7828031,10.8353088 C18.8061967,10.8701393 18.8410272,10.8820961 18.8992514,10.8820961 L18.8878145,11.021938 C18.8758578,11.0453317 18.8410272,11.0567686 18.7828031,11.0687253 C18.7360158,11.0801622 18.7011853,11.0921189 18.6892285,11.1035558 C18.6777916,11.1035558 18.6429611,11.1389062 18.5961738,11.1851736 C18.5493866,11.2319609 18.5259929,11.2553545 18.5379497,11.2667914 C18.4563319,11.1851736 18.3508006,11.16178 18.1995217,11.1971304 C18.0357663,11.220524 17.9193179,11.2439177 17.8610938,11.2667914 C17.7909129,11.3021418 17.7441256,11.3369723 17.720732,11.3718029 C17.720732,11.3718029 17.7092951,11.3837596 17.6978582,11.4185901 C17.6859014,11.4419838 17.6744645,11.4653774 17.6625078,11.4887711 C17.6510709,11.5121647 17.6391142,11.5236016 17.6391142,11.5236016 C17.6625078,11.5121647 17.6859014,11.4887711 17.720732,11.4539405 C17.7560823,11.4185901 17.779476,11.3951965 17.779476,11.3951965 C17.8959243,11.3255355 17.9894989,11.2901851 18.0591599,11.3135787 C18.1641713,11.3489291 18.1761281,11.3837596 18.1059472,11.4185901 C18.1059472,11.4305469 18.0825535,11.4305469 18.047723,11.4305469 L17.9661052,11.4305469 C18.0009357,11.4419838 18.0357663,11.4539405 18.0591599,11.4653774 C18.0945103,11.4887711 18.0945103,11.5121647 18.0825535,11.5355583 C18.1527345,11.5703889 18.1641713,11.6171761 18.1179039,11.6639634 C18.0711167,11.7221876 18.0009357,11.7455812 17.9193179,11.7336245 C17.9307548,11.7336245 17.9307548,11.7455812 17.9193179,11.7570181 L17.8143065,11.827199 C17.8023498,11.8386359 17.779476,11.8505926 17.720732,11.8620295 C17.6744645,11.8854232 17.6510709,11.8968601 17.6276773,11.9202537 C17.6157205,11.9436473 17.6042836,11.967041 17.6042836,12.0023913 L17.6042836,12.0840091 C17.5923269,12.095446 17.58089,12.095446 17.5460595,12.095446 C17.5341027,12.1188397 17.4992722,12.1422333 17.4290913,12.1536702 C17.3594302,12.1656269 17.312643,12.1890206 17.3006862,12.2238511 C17.3240799,12.2586816 17.3240799,12.294032 17.2892493,12.3288625 C17.2424621,12.3756498 17.1956748,12.3636931 17.1494074,12.3174257 C17.1260137,12.3174257 17.114057,12.3402994 17.1026201,12.3756498 C17.0906633,12.4104803 17.0792265,12.433874 17.0558328,12.4453109 C17.0906633,12.5040549 17.0792265,12.5274485 17.0443959,12.5503223 C17.0443959,12.5503223 17.0558328,12.5622791 17.0672697,12.5622791 C17.0906633,12.5737159 17.1026201,12.5856727 17.1260137,12.5971096 C17.1374506,12.6090663 17.1494074,12.6205032 17.1494074,12.6205032 C17.1374506,12.6553337 17.114057,12.6787274 17.0792265,12.6787274 C17.1026201,12.7489083 17.0792265,12.8190892 16.9856519,12.900707 C16.9622583,12.9241006 16.9393845,12.9355375 16.9040341,12.9589312 C16.8692036,12.9708879 16.8338532,12.9937617 16.7990227,13.0057184 C16.775629,13.0171553 16.7522354,13.0171553 16.7522354,13.0291121 C16.705968,13.0639426 16.6706176,13.0987731 16.647224,13.1455604 C16.6357871,13.1809108 16.6243502,13.2271782 16.647224,13.2625286 C16.6591807,13.308796 16.6940112,13.3321896 16.7641921,13.3441464 L16.7641921,13.3909337 L16.7641921,13.507382 L16.775629,13.5656062 C16.775629,13.5889998 16.7875858,13.6238303 16.7875858,13.647224 L16.7875858,13.7407985 C16.7875858,13.775629 16.775629,13.7990227 16.7522354,13.7990227 C16.7407985,13.7990227 16.7174049,13.7990227 16.6825743,13.7875858 C16.647224,13.7641921 16.6123934,13.6706176 16.5656062,13.4959451 C16.5541693,13.4605947 16.5307756,13.4023706 16.4839884,13.3441464 C16.4605947,13.36754 16.4372011,13.3789769 16.4257642,13.3909337 L16.3909337,13.3909337 C16.3909337,13.3789769 16.3789769,13.3789769 16.3555833,13.3555833 C16.3441464,13.3441464 16.3207528,13.3321896 16.308796,13.3207528 C16.2859222,13.308796 16.2505718,13.2973591 16.2037846,13.2859222 C16.1455604,13.2859222 16.1107299,13.2739655 16.0987731,13.2625286 C15.9937617,13.3321896 15.9355375,13.3207528 15.9121439,13.2037846 C15.900707,13.2157413 15.900707,13.2505718 15.9121439,13.2859222 C15.9241006,13.3207528 15.9241006,13.3441464 15.9241006,13.3441464 C15.900707,13.4023706 15.8539197,13.4138074 15.7837388,13.36754 C15.7603452,13.3321896 15.702121,13.3321896 15.6090663,13.3555833 C15.5154918,13.36754 15.4572676,13.3789769 15.4224371,13.36754 C15.4224371,13.36754 15.433874,13.36754 15.4458307,13.3789769 C15.4572676,13.3909337 15.4687045,13.4023706 15.4687045,13.4023706 C15.4687045,13.4138074 15.4572676,13.4257642 15.4572676,13.4372011 C15.4458307,13.4491578 15.433874,13.4491578 15.4224371,13.4491578 L15.3990435,13.4491578 C15.3870867,13.4491578 15.3756498,13.4605947 15.3636931,13.4605947 C15.3522562,13.4725515 15.3288625,13.4959451 15.3054689,13.5307756 C15.2820753,13.5656062 15.2586816,13.5775629 15.2472447,13.5889998 C15.2706384,13.6591807 15.2820753,13.7174049 15.2820753,13.7522354 C15.2820753,13.7875858 15.2706384,13.8458099 15.2586816,13.9159909 C15.2472447,13.9856519 15.2472447,14.0443959 15.2472447,14.0792265 C15.2472447,14.1494074 15.2706384,14.2310252 15.3054689,14.3240799 C15.3522562,14.4176544 15.3990435,14.4758786 15.4572676,14.5107091 C15.4806613,14.5341027 15.5388854,14.5460595 15.6090663,14.5460595 C15.6787274,14.5460595 15.7374714,14.5460595 15.7603452,14.5341027 C15.7956956,14.5226658 15.8071325,14.5107091 15.8305261,14.4873155 C15.8424828,14.4758786 15.8539197,14.441048 15.8539197,14.4176544 C15.8658765,14.382304 15.8773134,14.3594302 15.8773134,14.3474735 C15.9121439,14.2658557 15.9589312,14.2190684 16.040549,14.2190684 C16.0987731,14.2076315 16.1341235,14.2190684 16.1575172,14.2310252 C16.1809108,14.2424621 16.1923477,14.2658557 16.1923477,14.2892493 C16.1809108,14.3240799 16.1809108,14.3474735 16.168954,14.3708671 C16.1455604,14.4056977 16.1341235,14.4290913 16.1107299,14.4644417 C16.0987731,14.4992722 16.0873362,14.5341027 16.0758994,14.5460595 C16.0758994,14.58089 16.0639426,14.6276773 16.0525057,14.6973383 C16.0525057,14.7560823 16.040549,14.7909129 16.040549,14.8028696 C16.0525057,14.8143065 16.0758994,14.8143065 16.1341235,14.8143065 C16.1341235,14.8028696 16.1455604,14.7909129 16.1455604,14.7675192 C16.1575172,14.7560823 16.1575172,14.7441256 16.1575172,14.7326887 C16.1809108,14.7675192 16.2157413,14.7909129 16.2625286,14.7909129 C16.308796,14.8028696 16.3441464,14.779476 16.36754,14.7441256 C16.3789769,14.7560823 16.4023706,14.7909129 16.4491578,14.8377001 C16.4839884,14.8959243 16.507382,14.9307548 16.5188189,14.9661052 C16.5188189,14.9894989 16.5307756,15.0123726 16.5422125,15.0591599 C16.5541693,15.0945103 16.5541693,15.1179039 16.5541693,15.1407777 C16.5541693,15.1527345 16.5307756,15.1641713 16.4839884,15.1641713 C16.4725515,15.1641713 16.4605947,15.1641713 16.4605947,15.1761281 C16.4491578,15.187565 16.4491578,15.2109586 16.4605947,15.2229154 C16.4605947,15.2457891 16.4605947,15.2691828 16.4725515,15.2811395 C16.4839884,15.3045332 16.4839884,15.3159701 16.4959451,15.3393637 C16.507382,15.3627573 16.5188189,15.3741942 16.5188189,15.3741942 C16.5889998,15.514556 16.6940112,15.5608235 16.8338532,15.4911624 C16.8338532,15.6195675 16.7990227,15.6892285 16.7407985,15.7011853 C16.705968,15.7126222 16.6706176,15.6892285 16.6243502,15.6310044 C16.5775629,15.5842171 16.5656062,15.5379497 16.5775629,15.5025993 C16.5775629,15.5259929 16.5656062,15.5493866 16.5307756,15.5608235 C16.507382,15.5379497 16.4725515,15.5025993 16.4143273,15.4677688 C16.3555833,15.4209815 16.3207528,15.3975879 16.2973591,15.3627573 C16.2859222,15.3508006 16.2739655,15.3393637 16.2625286,15.3159701 C16.2505718,15.2925764 16.2271782,15.2577459 16.2037846,15.2229154 C16.1809108,15.1761281 16.168954,15.1407777 16.1575172,15.1179039 C16.1455604,15.0945103 16.1455604,15.0711167 16.1455604,15.0711167 C16.0639426,15.1059472 15.9474943,15.0825535 15.7956956,15.0009357 C15.7603452,14.9775421 15.7140778,14.9307548 15.6558536,14.8610938 C15.5971096,14.7909129 15.5274485,14.7560823 15.4687045,14.7675192 C15.4458307,14.7675192 15.4104803,14.779476 15.3756498,14.779476 C15.3408193,14.7909129 15.3054689,14.8028696 15.2820753,14.8028696 C15.2586816,14.8028696 15.2238511,14.7909129 15.1770638,14.779476 C15.1422333,14.7675192 15.095446,14.7326887 15.0372219,14.6973383 C14.9789977,14.6625078 14.9436473,14.6391142 14.9202537,14.6276773 C14.9088168,14.6276773 14.8739863,14.6042836 14.8386359,14.58089 C14.7923685,14.5694531 14.7570181,14.5460595 14.7336245,14.5341027 C14.7102308,14.5226658 14.6754003,14.4992722 14.6520067,14.4758786 C14.6171761,14.441048 14.6052194,14.4176544 14.5937825,14.382304 C14.5818257,14.3594302 14.5703889,14.3006862 14.558952,14.2310252 C14.5469952,14.1494074 14.5355583,14.0906633 14.5121647,14.0558328 C14.4887711,14.0210023 14.4419838,13.974215 14.3951965,13.9274277 C14.3489291,13.8806405 14.3021418,13.8692036 14.2667914,13.8692036 C14.3021418,13.8692036 14.3021418,13.8338532 14.2667914,13.775629 C14.2319609,13.7174049 14.2085673,13.6706176 14.1737367,13.647224 C14.1737367,13.6357871 14.1389062,13.6123934 14.1035558,13.5656062 C14.0572884,13.5188189 14.021938,13.4725515 13.9871075,13.4372011 C13.9637139,13.4023706 13.9288833,13.36754 13.9054897,13.3207528 C13.893533,13.2739655 13.8820961,13.239135 13.893533,13.2037846 C13.9054897,13.2037846 13.893533,13.1923477 13.8820961,13.1809108 C13.8701393,13.1809108 13.8587024,13.168954 13.8353088,13.1575172 C13.8119152,13.1575172 13.8004783,13.1455604 13.7770846,13.1341235 C13.7651279,13.1341235 13.753691,13.1221668 13.7417342,13.1221668 C13.753691,13.1455604 13.7651279,13.1809108 13.7651279,13.2271782 C13.7770846,13.2625286 13.7885215,13.2973591 13.8119152,13.3207528 C13.8119152,13.3441464 13.8467457,13.4023706 13.9169266,13.507382 C14.0338948,13.6940112 14.0801622,13.8338532 14.0687253,13.9159909 C14.0453317,13.9274277 14.0338948,13.9159909 14.021938,13.9040341 C14.0105011,13.8806405 14.0105011,13.8572468 13.9985444,13.8338532 C13.9985444,13.7990227 13.9985444,13.775629 13.9871075,13.7641921 C13.9751508,13.7407985 13.9403202,13.705968 13.8820961,13.6825743 C13.8353088,13.647224 13.8004783,13.6238303 13.7885215,13.5889998 L13.8004783,13.5889998 C13.8119152,13.5775629 13.8119152,13.5775629 13.8238719,13.5775629 C13.8238719,13.5422125 13.8004783,13.4839884 13.753691,13.4257642 C13.6954668,13.36754 13.6835101,13.3207528 13.6835101,13.2973591 C13.6486796,13.2739655 13.6252859,13.2157413 13.6018923,13.1455604 C13.5670618,13.0639426 13.555105,13.0171553 13.5317114,12.9937617 C13.5202745,12.9708879 13.4968808,12.9474943 13.4620503,12.9241006 C13.4386567,12.9121439 13.4033063,12.8887503 13.3684758,12.8653566 C13.3336452,12.8424828 13.3102516,12.8190892 13.286858,12.8190892 C13.286858,12.8071325 13.2634643,12.7956956 13.2400707,12.7603452 C13.1002287,12.5856727 13.0534415,12.4920981 13.1116656,12.4806613 C13.0534415,12.4920981 13.0066542,12.4453109 12.9718237,12.3522562 C12.9369931,12.2472447 12.9250364,12.1770638 12.9369931,12.1302766 L12.9250364,12.1188397 L12.9250364,11.967041 C12.9250364,11.8854232 12.9369931,11.8038054 12.94843,11.7336245 C12.9603868,11.6639634 12.9718237,11.628613 13.0066542,11.628613 C12.9718237,11.628613 12.94843,11.6052194 12.9369931,11.5469952 C12.9250364,11.4887711 12.9250364,11.4539405 12.9369931,11.4305469 C12.9369931,11.4185901 12.9603868,11.4185901 12.9952173,11.4539405 C13.0300478,11.4887711 13.0420046,11.5002079 13.0534415,11.5121647 C13.1116656,11.4768143 13.1236224,11.4419838 13.1116656,11.3951965 C13.1116656,11.3837596 13.0653982,11.3369723 12.9837804,11.2553545 C12.7966313,11.1389062 12.6916199,11.0801622 12.6916199,11.0801622 C12.7150135,11.0338948 12.7150135,10.9985444 12.6682262,10.9637139 C12.6333957,10.9871075 12.6100021,10.9871075 12.5985652,10.9751508 C12.5866084,10.9637139 12.5866084,10.9403202 12.5866084,10.9054897 C12.5751716,10.8701393 12.5632148,10.8587024 12.5517779,10.8467457 C12.5283843,10.8467457 12.5049906,10.823352 12.4701601,10.8004783 C12.8553753,10.1818465 13.3684758,9.70357663 13.9985444,9.35319193 L13.9985444,9.35319193 Z M16.7522354,16.8563111 C16.7875858,16.7980869 16.8109794,16.7627365 16.8109794,16.727906 C16.7407985,16.7164691 16.7174049,16.6577251 16.7293616,16.5646704 C16.7407985,16.4944895 16.7990227,16.4128717 16.9159909,16.2964234 C16.9976087,16.2262425 17.0324392,16.121231 16.9976087,15.9808692 C16.9856519,15.9346018 16.974215,15.852984 16.9622583,15.7360158 C16.9508214,15.6310044 16.9508214,15.5493866 16.9393845,15.514556 C16.9393845,15.5259929 16.9622583,15.5379497 16.9976087,15.5493866 C17.0443959,15.5608235 17.0672697,15.5727802 17.0792265,15.5842171 C17.0792265,15.5727802 17.0906633,15.5493866 17.1026201,15.514556 C17.1260137,15.4792057 17.1374506,15.455812 17.1494074,15.4443751 C17.1608443,15.4209815 17.172801,15.4095446 17.2076315,15.386151 C17.2310252,15.3741942 17.2544188,15.3627573 17.2544188,15.3508006 C17.2658557,15.3508006 17.2892493,15.3393637 17.312643,15.3159701 C17.3474735,15.2925764 17.3708671,15.2691828 17.3942608,15.2577459 C17.4056977,15.2457891 17.441048,15.2343523 17.4644417,15.2229154 C17.4992722,15.2229154 17.5226658,15.2343523 17.5341027,15.2577459 C17.5574964,15.2811395 17.5574964,15.3279268 17.5226658,15.3741942 C17.4992722,15.4329382 17.4992722,15.4677688 17.5226658,15.4911624 C17.5341027,15.4792057 17.5341027,15.4443751 17.5341027,15.4095446 C17.5460595,15.3627573 17.5574964,15.3279268 17.58089,15.3045332 C17.6042836,15.2811395 17.6276773,15.2691828 17.6510709,15.2577459 C17.6744645,15.2577459 17.6978582,15.2577459 17.720732,15.2691828 C17.7326887,15.2811395 17.7560823,15.3045332 17.779476,15.3159701 C17.8143065,15.3393637 17.8377001,15.3508006 17.8610938,15.3508006 C17.9193179,15.3741942 18.0009357,15.4209815 18.0945103,15.5025993 C18.0825535,15.4911624 18.0825535,15.4911624 18.0945103,15.4792057 C18.0945103,15.4792057 18.1059472,15.4677688 18.1179039,15.4677688 C18.1293408,15.455812 18.1407777,15.4443751 18.1527345,15.4443751 C18.1641713,15.4329382 18.1761281,15.4329382 18.187565,15.4209815 L18.2109586,15.4209815 C18.2343523,15.4209815 18.2577459,15.4209815 18.2691828,15.4095446 C18.2811395,15.4095446 18.3045332,15.4095446 18.3279268,15.4209815 C18.3508006,15.4443751 18.3741942,15.4443751 18.3741942,15.455812 C18.386151,15.4677688 18.3975879,15.4792057 18.4209815,15.4911624 C18.4443751,15.514556 18.4563319,15.5259929 18.4677688,15.5259929 C18.4792057,15.5379497 18.5025993,15.5493866 18.5379497,15.5727802 C18.5727802,15.5961738 18.6076107,15.6195675 18.6195675,15.6310044 C18.6429611,15.6429611 18.654398,15.6658349 18.6777916,15.6892285 C18.6892285,15.7126222 18.6892285,15.7360158 18.6892285,15.7708463 C18.7126222,15.7708463 18.7708463,15.79424 18.8410272,15.8176336 C18.8644209,15.8295904 18.8878145,15.8410272 18.922645,15.8410272 C18.9694323,15.852984 18.992826,15.8644209 19.0042628,15.8758578 C18.3741942,16.5412768 17.6157205,16.9493658 16.7293616,17.1011645 C16.7174049,17.066334 16.705968,17.0315034 16.705968,16.996153 C16.705968,16.9727594 16.7174049,16.926492 16.7522354,16.8563111 L16.7522354,16.8563111 Z" id="Fill-227" sketch:type="MSShapeGroup"></path>
            </g>
        </g>
    </g>
</svg>