<?xml version="1.0" encoding="UTF-8" standalone="no"?>
<svg width="20px" height="22px" viewBox="0 0 20 22" version="1.1" xmlns="http://www.w3.org/2000/svg" xmlns:xlink="http://www.w3.org/1999/xlink" xmlns:sketch="http://www.bohemiancoding.com/sketch/ns">
    <!-- Generator: Sketch 3.4.4 (17249) - http://www.bohemiancoding.com/sketch -->
    <title>folder-private-full</title>
    <desc>Created with Sketch.</desc>
    <defs></defs>
    <g id="Page-1" stroke="none" stroke-width="1" fill="none" fill-rule="evenodd" sketch:type="MSPage">
        <g id="Private-full" sketch:type="MSArtboardGroup">
            <g id="fa-folder-private-full" sketch:type="MSLayerGroup">
                <path d="M17.8299459,11.0490445 L19.8095759,5.63780575 L5.47323976,0.446428571 L4.32999992,3.57142857 L7.03840745,3.57142857 C7.62533053,3.57142857 8.12609976,3.78241642 8.55840745,4.17321523 C8.9722536,4.579965 9.19686899,5.05196875 9.19686899,5.60517744 L9.19686899,5.89809529 L15.6714844,5.89809529 C16.2584074,5.89809529 16.7591767,6.09385721 17.1907151,6.50060698 C17.6053305,6.90735676 17.8299459,7.37936051 17.8299459,7.9325692 L17.8299459,11.0490445 L17.8299459,11.0490445 Z" id="Rectangle-33" fill="#999999" sketch:type="MSShapeGroup"></path>
                <path d="M0.638461575,17.3876545 C1.05307698,17.8017798 1.57076932,18 2.15769243,18 L13.8815393,18 C14.4684624,18 14.9692316,17.8017798 15.4007701,17.3876545 C15.8153855,16.9912141 16.0400009,16.4945584 16.0400009,15.9323206 L16.0400009,9.4323206 C16.0400009,8.87008276 15.8153855,8.39037524 15.4007701,7.97698674 C14.9692316,7.56359823 14.4684624,7.3646412 13.8815393,7.3646412 L7.4069235,7.3646412 L7.4069235,7.06694252 C7.4069235,6.50470468 7.1823081,6.02499717 6.76846192,5.61160866 C6.33615421,5.21443147 5.83538495,5 5.24846184,5 L2.15769243,5 C1.57076932,5 1.05307698,5.21443147 0.638461575,5.61160866 C0.206923089,6.02499717 0,6.50470468 0,7.06694252 L0,15.9323206 C0,16.4945584 0.206923089,16.9912141 0.638461575,17.3876545" id="Fill-240" fill="#00BFF0" sketch:type="MSShapeGroup"></path>
            </g>
        </g>
    </g>
</svg>