<?xml version="1.0" encoding="UTF-8" standalone="no"?>
<svg width="25px" height="25px" viewBox="0 0 25 25" version="1.1" xmlns="http://www.w3.org/2000/svg" xmlns:xlink="http://www.w3.org/1999/xlink" xmlns:sketch="http://www.bohemiancoding.com/sketch/ns">
    <!-- Generator: Sketch 3.4.4 (17249) - http://www.bohemiancoding.com/sketch -->
    <title>fa-folder-public-full</title>
    <desc>Created with Sketch.</desc>
    <defs></defs>
    <g id="Page-1" stroke="none" stroke-width="1" fill="none" fill-rule="evenodd" sketch:type="MSPage">
        <g id="Public-full" sketch:type="MSArtboardGroup">
            <g id="fa-folder-private-full" sketch:type="MSLayerGroup" transform="translate(1.000000, 0.000000)">
                <path d="M19.8731429,12.3749298 L22.0790163,6.31434244 L6.10424172,0.5 L4.8303459,4 L7.84828571,4 C8.50228571,4 9.06028571,4.23630639 9.542,4.67400105 C10.0031429,5.1295608 10.2534286,5.658205 10.2534286,6.27779874 L10.2534286,6.60586672 L17.468,6.60586672 C18.122,6.60586672 18.68,6.82512007 19.1608571,7.28067982 C19.6228571,7.73623957 19.8731429,8.26488377 19.8731429,8.88447751 L19.8731429,12.3749298 L19.8731429,12.3749298 Z" id="Rectangle-33" fill="#999999" sketch:type="MSShapeGroup"></path>
                <path d="M9.12545482,20.3261766 L2.40428571,20.3261766 C1.75028571,20.3261766 1.17342857,20.1077353 0.711428571,19.6513635 C0.230571429,19.2144809 0,18.6671595 0,18.0475658 L0,8.27779874 C0,7.658205 0.230571429,7.1295608 0.711428571,6.67400105 C1.17342857,6.23630639 1.75028571,6 2.40428571,6 L5.84828571,6 C6.50228571,6 7.06028571,6.23630639 7.542,6.67400105 C8.00314286,7.1295608 8.25342857,7.658205 8.25342857,8.27779874 L8.25342857,8.60586672 L15.468,8.60586672 C16.122,8.60586672 16.68,8.82512007 17.1608571,9.28067982 C17.6228571,9.73623957 17.8731429,10.2648838 17.8731429,10.8844775 L17.8731429,12.2534327 C17.2769447,12.0882617 16.6487797,12 16,12 C12.1340068,12 9,15.1340068 9,19 C9,19.4534195 9.04311001,19.8967701 9.12545482,20.3261766 L9.12545482,20.3261766 Z" id="Fill-240" fill="#90D05C" sketch:type="MSShapeGroup"></path>
                <path d="M13.485444,23.334581 C14.2553545,23.7780204 15.095446,24 16.0057184,24 C16.9040341,24 17.7441256,23.7780204 18.514556,23.334581 C19.2730297,22.8911416 19.8797047,22.2844666 20.334581,21.514556 C20.7780204,20.7441256 21,19.9159909 21,19.0057184 C21,18.095446 20.7780204,17.2553545 20.334581,16.4968808 C19.8797047,15.7269703 19.2730297,15.1197754 18.514556,14.676336 C17.7441256,14.2214598 16.9040341,14 16.0057184,14 C15.095446,14 14.2553545,14.2214598 13.485444,14.676336 C12.7269703,15.1197754 12.1202953,15.7269703 11.6648991,16.4968808 C11.2214598,17.2553545 11,18.095446 11,19.0057184 C11,19.9159909 11.2214598,20.7441256 11.6648991,21.514556 C12.1202953,22.2844666 12.7269703,22.8911416 13.485444,23.334581 L13.485444,23.334581 Z M13.9985444,15.3531919 C14.021938,15.341755 14.0801622,15.341755 14.1503431,15.341755 C14.1851736,15.3531919 14.2085673,15.3651487 14.2439177,15.3765856 C14.2787482,15.3999792 14.3021418,15.4233728 14.3369723,15.4467665 C14.3718029,15.481597 14.3951965,15.5049906 14.4071533,15.5169474 C14.4185901,15.4935538 14.4071533,15.4467665 14.3837596,15.3999792 C14.3837596,15.3651487 14.4305469,15.341755 14.5236016,15.3183614 C14.6171761,15.3069245 14.6868372,15.3069245 14.7221876,15.3297983 C14.6868372,15.2835309 14.6520067,15.2367436 14.5818257,15.1665627 L14.558952,15.1899563 C14.5236016,15.1665627 14.4305469,15.1785194 14.2787482,15.2367436 C14.2787482,15.2481805 14.2553545,15.2601372 14.220524,15.2715741 C14.1851736,15.2949678 14.1503431,15.3069245 14.1269495,15.3183614 C14.1035558,15.3297983 14.0801622,15.3297983 14.0572884,15.3297983 C14.2667914,15.21335 14.4653774,15.1197754 14.6639634,15.0615513 C14.6754003,15.0615513 14.6987939,15.0849449 14.7336245,15.1083385 C14.7570181,15.1431691 14.7804117,15.1665627 14.8038054,15.1785194 C14.7923685,15.1665627 14.7804117,15.1665627 14.7804117,15.1899563 C14.7570181,15.2367436 14.7570181,15.2835309 14.7804117,15.3183614 C14.8038054,15.3531919 14.827199,15.3651487 14.8620295,15.3651487 C14.8973799,15.3765856 14.9436473,15.3765856 15.0023913,15.3651487 C15.0486588,15.3531919 15.0840091,15.3531919 15.1074028,15.3531919 L15.1656269,15.3531919 C15.3054689,15.3651487 15.3636931,15.3531919 15.3288625,15.3183614 C15.3408193,15.3297983 15.3636931,15.3765856 15.3756498,15.4233728 C15.3870867,15.481597 15.4104803,15.5169474 15.433874,15.5398212 C15.4572676,15.5169474 15.4572676,15.4935538 15.4458307,15.4467665 C15.433874,15.3999792 15.433874,15.3765856 15.4458307,15.3531919 C15.4572676,15.3531919 15.4687045,15.341755 15.4806613,15.3297983 C15.5040549,15.3183614 15.5274485,15.3183614 15.5622791,15.3069245 C15.5856727,15.2949678 15.6090663,15.2835309 15.6205032,15.2835309 C15.6438969,15.2601372 15.6205032,15.2367436 15.5622791,15.1899563 C15.5503223,15.1785194 15.5388854,15.1785194 15.5040549,15.1665627 C15.4806613,15.1551258 15.4572676,15.1551258 15.433874,15.1431691 C15.4104803,15.1317322 15.3870867,15.1197754 15.3636931,15.1083385 C15.3408193,15.0969016 15.3288625,15.073508 15.3288625,15.0501144 C15.3408193,15.0381576 15.3522562,15.014764 15.3636931,14.9799335 C15.3990435,14.9565398 15.433874,14.9451029 15.4920981,14.9565398 C15.5503223,14.9565398 15.5971096,14.9684966 15.63246,14.9918902 C15.7489083,15.0501144 15.7603452,15.1083385 15.6787274,15.1665627 C15.7255147,15.1665627 15.7723019,15.1785194 15.8424828,15.21335 C15.900707,15.2481805 15.9241006,15.2715741 15.9121439,15.3069245 C15.9474943,15.2481805 15.9823248,15.21335 16.0171553,15.21335 C16.040549,15.21335 16.0525057,15.2481805 16.0758994,15.3069245 C16.0987731,15.3531919 16.1107299,15.3885423 16.1107299,15.3885423 C16.1455604,15.4348097 16.1809108,15.4467665 16.2157413,15.4233728 C16.2505718,15.3999792 16.2859222,15.3531919 16.3207528,15.3069245 C16.3555833,15.2601372 16.3789769,15.2367436 16.3909337,15.2367436 C16.3441464,15.2247869 16.3321896,15.2019131 16.36754,15.1899563 C16.4372011,15.1431691 16.4959451,15.1431691 16.5422125,15.1551258 C16.5656062,15.1665627 16.5775629,15.1785194 16.6009565,15.21335 C16.6357871,15.2949678 16.6357871,15.3297983 16.5775629,15.3297983 C16.6243502,15.3651487 16.6357871,15.3999792 16.6243502,15.4582034 C16.6243502,15.5049906 16.5889998,15.5283843 16.5307756,15.5283843 C16.507382,15.5283843 16.4725515,15.5169474 16.4372011,15.4935538 C16.3909337,15.4701601 16.3555833,15.4582034 16.3441464,15.4582034 C16.3207528,15.4582034 16.2859222,15.4701601 16.2505718,15.4935538 C16.2271782,15.5169474 16.2037846,15.5517779 16.1809108,15.6100021 C16.1575172,15.6567894 16.1221668,15.6916199 16.1107299,15.7150135 C16.040549,15.7851944 15.9355375,15.8085881 15.7837388,15.7851944 C15.7956956,15.7851944 15.7956956,15.7966313 15.7723019,15.8319817 C15.7603452,15.8553753 15.7374714,15.8782491 15.7140778,15.9135995 C15.6906841,15.94843 15.6672905,15.9603868 15.6672905,15.9718237 C15.63246,16.0186109 15.6090663,16.0653982 15.5856727,16.1236224 L15.5856727,16.2052402 C15.5737159,16.2520274 15.5737159,16.2982949 15.5622791,16.3216885 C15.6090663,16.3102516 15.6558536,16.3336452 15.6787274,16.4033063 C15.702121,16.4620503 15.702121,16.4968808 15.6787274,16.4968808 C15.8305261,16.4734872 15.9474943,16.485444 16.0639426,16.5202745 C16.2157413,16.5784986 16.308796,16.6367228 16.3207528,16.6954668 C16.3555833,16.6486796 16.4143273,16.6486796 16.5188189,16.6835101 C16.5541693,16.7069037 16.5889998,16.7770846 16.6243502,16.8820961 C16.6357871,16.9517571 16.6706176,16.9985444 16.705968,17.0453317 C16.7522354,17.1035558 16.7875858,17.1155126 16.8458099,17.0921189 L16.8572468,17.0801622 C16.8806405,17.0687253 16.8925972,17.0567686 16.9040341,17.0567686 C16.9159909,17.0453317 16.9274277,17.0338948 16.9393845,17.021938 C16.9508214,17.021938 16.9622583,17.0105011 16.9622583,16.9985444 C16.9622583,16.9871075 16.9622583,16.9751508 16.9508214,16.9751508 C16.9159909,16.9517571 16.8925972,16.9054897 16.8806405,16.8701393 C16.8692036,16.823352 16.8692036,16.7770846 16.8925972,16.7417342 C16.9040341,16.7302974 16.9393845,16.6954668 16.9976087,16.6720732 C17.0558328,16.6367228 17.0906633,16.6018923 17.1026201,16.5670618 C17.114057,16.5083177 17.1026201,16.4620503 17.0324392,16.4266999 C16.974215,16.3804325 16.9393845,16.3570389 16.9393845,16.3216885 C16.9393845,16.2982949 16.9622583,16.2754211 16.9856519,16.2400707 C17.0210023,16.2166771 17.0324392,16.1818465 17.0210023,16.1584529 C17.0210023,16.147016 17.0210023,16.1236224 16.9976087,16.0768351 C16.9856519,16.0300478 16.974215,16.0066542 16.974215,15.9832606 C16.974215,15.9718237 16.9856519,15.94843 17.0090455,15.9135995 C17.0324392,15.9016428 17.1026201,15.9016428 17.2190684,15.9250364 C17.3360366,15.9369931 17.4056977,15.9603868 17.441048,15.9832606 C17.4524849,15.9952173 17.4758786,16.0066542 17.5226658,16.0186109 C17.5694531,16.0420046 17.6042836,16.0534415 17.6391142,16.0768351 C17.6744645,16.1002287 17.6859014,16.1116656 17.6978582,16.1350593 L17.6625078,16.1350593 C17.6859014,16.1584529 17.7092951,16.1938033 17.720732,16.2286338 C17.720732,16.2634643 17.7092951,16.286858 17.6625078,16.2982949 C17.6978582,16.2982949 17.7326887,16.2982949 17.7675192,16.3216885 C17.8377001,16.3450821 17.8377001,16.3684758 17.779476,16.3918694 C17.7909129,16.3918694 17.8143065,16.3804325 17.8377001,16.3804325 C17.8610938,16.3804325 17.8725307,16.3684758 17.8844874,16.3570389 C17.8959243,16.3570389 17.9078811,16.3450821 17.9193179,16.3336452 C17.9307548,16.3216885 17.9427116,16.3216885 17.9541485,16.3216885 C17.9541485,16.3102516 17.9661052,16.3102516 17.9775421,16.3102516 C17.9894989,16.3102516 18.0009357,16.3102516 18.0243294,16.3216885 C18.0243294,16.3216885 18.0357663,16.3102516 18.047723,16.286858 C18.0591599,16.2634643 18.0825535,16.2400707 18.0945103,16.2286338 C18.1179039,16.2052402 18.1293408,16.1938033 18.1407777,16.1938033 C18.1527345,16.1938033 18.1641713,16.1938033 18.1761281,16.2052402 C18.187565,16.2166771 18.1995217,16.2286338 18.1995217,16.2400707 C18.2109586,16.2520274 18.2229154,16.2754211 18.2229154,16.286858 C18.2343523,16.2982949 18.2343523,16.3102516 18.246309,16.3216885 C18.246309,16.3450821 18.2691828,16.3684758 18.3045332,16.3918694 C18.3393637,16.415263 18.3508006,16.4386567 18.3627573,16.4620503 C18.3741942,16.4734872 18.3741942,16.5083177 18.386151,16.555105 C18.3975879,16.6133292 18.4209815,16.6486796 18.4443751,16.6601164 C18.4677688,16.6835101 18.4911624,16.6954668 18.5379497,16.7069037 C18.5493866,16.7183406 18.5727802,16.7183406 18.5961738,16.7069037 C18.6310044,16.6954668 18.654398,16.6954668 18.6777916,16.6954668 C18.6892285,16.7069037 18.7011853,16.7183406 18.7011853,16.753691 C18.7245789,16.7302974 18.7479726,16.7069037 18.7479726,16.6954668 C18.7479726,16.753691 18.7594094,16.8004783 18.7828031,16.8353088 C18.8061967,16.8701393 18.8410272,16.8820961 18.8992514,16.8820961 L18.8878145,17.021938 C18.8758578,17.0453317 18.8410272,17.0567686 18.7828031,17.0687253 C18.7360158,17.0801622 18.7011853,17.0921189 18.6892285,17.1035558 C18.6777916,17.1035558 18.6429611,17.1389062 18.5961738,17.1851736 C18.5493866,17.2319609 18.5259929,17.2553545 18.5379497,17.2667914 C18.4563319,17.1851736 18.3508006,17.16178 18.1995217,17.1971304 C18.0357663,17.220524 17.9193179,17.2439177 17.8610938,17.2667914 C17.7909129,17.3021418 17.7441256,17.3369723 17.720732,17.3718029 C17.720732,17.3718029 17.7092951,17.3837596 17.6978582,17.4185901 C17.6859014,17.4419838 17.6744645,17.4653774 17.6625078,17.4887711 C17.6510709,17.5121647 17.6391142,17.5236016 17.6391142,17.5236016 C17.6625078,17.5121647 17.6859014,17.4887711 17.720732,17.4539405 C17.7560823,17.4185901 17.779476,17.3951965 17.779476,17.3951965 C17.8959243,17.3255355 17.9894989,17.2901851 18.0591599,17.3135787 C18.1641713,17.3489291 18.1761281,17.3837596 18.1059472,17.4185901 C18.1059472,17.4305469 18.0825535,17.4305469 18.047723,17.4305469 L17.9661052,17.4305469 C18.0009357,17.4419838 18.0357663,17.4539405 18.0591599,17.4653774 C18.0945103,17.4887711 18.0945103,17.5121647 18.0825535,17.5355583 C18.1527345,17.5703889 18.1641713,17.6171761 18.1179039,17.6639634 C18.0711167,17.7221876 18.0009357,17.7455812 17.9193179,17.7336245 C17.9307548,17.7336245 17.9307548,17.7455812 17.9193179,17.7570181 L17.8143065,17.827199 C17.8023498,17.8386359 17.779476,17.8505926 17.720732,17.8620295 C17.6744645,17.8854232 17.6510709,17.8968601 17.6276773,17.9202537 C17.6157205,17.9436473 17.6042836,17.967041 17.6042836,18.0023913 L17.6042836,18.0840091 C17.5923269,18.095446 17.58089,18.095446 17.5460595,18.095446 C17.5341027,18.1188397 17.4992722,18.1422333 17.4290913,18.1536702 C17.3594302,18.1656269 17.312643,18.1890206 17.3006862,18.2238511 C17.3240799,18.2586816 17.3240799,18.294032 17.2892493,18.3288625 C17.2424621,18.3756498 17.1956748,18.3636931 17.1494074,18.3174257 C17.1260137,18.3174257 17.114057,18.3402994 17.1026201,18.3756498 C17.0906633,18.4104803 17.0792265,18.433874 17.0558328,18.4453109 C17.0906633,18.5040549 17.0792265,18.5274485 17.0443959,18.5503223 C17.0443959,18.5503223 17.0558328,18.5622791 17.0672697,18.5622791 C17.0906633,18.5737159 17.1026201,18.5856727 17.1260137,18.5971096 C17.1374506,18.6090663 17.1494074,18.6205032 17.1494074,18.6205032 C17.1374506,18.6553337 17.114057,18.6787274 17.0792265,18.6787274 C17.1026201,18.7489083 17.0792265,18.8190892 16.9856519,18.900707 C16.9622583,18.9241006 16.9393845,18.9355375 16.9040341,18.9589312 C16.8692036,18.9708879 16.8338532,18.9937617 16.7990227,19.0057184 C16.775629,19.0171553 16.7522354,19.0171553 16.7522354,19.0291121 C16.705968,19.0639426 16.6706176,19.0987731 16.647224,19.1455604 C16.6357871,19.1809108 16.6243502,19.2271782 16.647224,19.2625286 C16.6591807,19.308796 16.6940112,19.3321896 16.7641921,19.3441464 L16.7641921,19.3909337 L16.7641921,19.507382 L16.775629,19.5656062 C16.775629,19.5889998 16.7875858,19.6238303 16.7875858,19.647224 L16.7875858,19.7407985 C16.7875858,19.775629 16.775629,19.7990227 16.7522354,19.7990227 C16.7407985,19.7990227 16.7174049,19.7990227 16.6825743,19.7875858 C16.647224,19.7641921 16.6123934,19.6706176 16.5656062,19.4959451 C16.5541693,19.4605947 16.5307756,19.4023706 16.4839884,19.3441464 C16.4605947,19.36754 16.4372011,19.3789769 16.4257642,19.3909337 L16.3909337,19.3909337 C16.3909337,19.3789769 16.3789769,19.3789769 16.3555833,19.3555833 C16.3441464,19.3441464 16.3207528,19.3321896 16.308796,19.3207528 C16.2859222,19.308796 16.2505718,19.2973591 16.2037846,19.2859222 C16.1455604,19.2859222 16.1107299,19.2739655 16.0987731,19.2625286 C15.9937617,19.3321896 15.9355375,19.3207528 15.9121439,19.2037846 C15.900707,19.2157413 15.900707,19.2505718 15.9121439,19.2859222 C15.9241006,19.3207528 15.9241006,19.3441464 15.9241006,19.3441464 C15.900707,19.4023706 15.8539197,19.4138074 15.7837388,19.36754 C15.7603452,19.3321896 15.702121,19.3321896 15.6090663,19.3555833 C15.5154918,19.36754 15.4572676,19.3789769 15.4224371,19.36754 C15.4224371,19.36754 15.433874,19.36754 15.4458307,19.3789769 C15.4572676,19.3909337 15.4687045,19.4023706 15.4687045,19.4023706 C15.4687045,19.4138074 15.4572676,19.4257642 15.4572676,19.4372011 C15.4458307,19.4491578 15.433874,19.4491578 15.4224371,19.4491578 L15.3990435,19.4491578 C15.3870867,19.4491578 15.3756498,19.4605947 15.3636931,19.4605947 C15.3522562,19.4725515 15.3288625,19.4959451 15.3054689,19.5307756 C15.2820753,19.5656062 15.2586816,19.5775629 15.2472447,19.5889998 C15.2706384,19.6591807 15.2820753,19.7174049 15.2820753,19.7522354 C15.2820753,19.7875858 15.2706384,19.8458099 15.2586816,19.9159909 C15.2472447,19.9856519 15.2472447,20.0443959 15.2472447,20.0792265 C15.2472447,20.1494074 15.2706384,20.2310252 15.3054689,20.3240799 C15.3522562,20.4176544 15.3990435,20.4758786 15.4572676,20.5107091 C15.4806613,20.5341027 15.5388854,20.5460595 15.6090663,20.5460595 C15.6787274,20.5460595 15.7374714,20.5460595 15.7603452,20.5341027 C15.7956956,20.5226658 15.8071325,20.5107091 15.8305261,20.4873155 C15.8424828,20.4758786 15.8539197,20.441048 15.8539197,20.4176544 C15.8658765,20.382304 15.8773134,20.3594302 15.8773134,20.3474735 C15.9121439,20.2658557 15.9589312,20.2190684 16.040549,20.2190684 C16.0987731,20.2076315 16.1341235,20.2190684 16.1575172,20.2310252 C16.1809108,20.2424621 16.1923477,20.2658557 16.1923477,20.2892493 C16.1809108,20.3240799 16.1809108,20.3474735 16.168954,20.3708671 C16.1455604,20.4056977 16.1341235,20.4290913 16.1107299,20.4644417 C16.0987731,20.4992722 16.0873362,20.5341027 16.0758994,20.5460595 C16.0758994,20.58089 16.0639426,20.6276773 16.0525057,20.6973383 C16.0525057,20.7560823 16.040549,20.7909129 16.040549,20.8028696 C16.0525057,20.8143065 16.0758994,20.8143065 16.1341235,20.8143065 C16.1341235,20.8028696 16.1455604,20.7909129 16.1455604,20.7675192 C16.1575172,20.7560823 16.1575172,20.7441256 16.1575172,20.7326887 C16.1809108,20.7675192 16.2157413,20.7909129 16.2625286,20.7909129 C16.308796,20.8028696 16.3441464,20.779476 16.36754,20.7441256 C16.3789769,20.7560823 16.4023706,20.7909129 16.4491578,20.8377001 C16.4839884,20.8959243 16.507382,20.9307548 16.5188189,20.9661052 C16.5188189,20.9894989 16.5307756,21.0123726 16.5422125,21.0591599 C16.5541693,21.0945103 16.5541693,21.1179039 16.5541693,21.1407777 C16.5541693,21.1527345 16.5307756,21.1641713 16.4839884,21.1641713 C16.4725515,21.1641713 16.4605947,21.1641713 16.4605947,21.1761281 C16.4491578,21.187565 16.4491578,21.2109586 16.4605947,21.2229154 C16.4605947,21.2457891 16.4605947,21.2691828 16.4725515,21.2811395 C16.4839884,21.3045332 16.4839884,21.3159701 16.4959451,21.3393637 C16.507382,21.3627573 16.5188189,21.3741942 16.5188189,21.3741942 C16.5889998,21.514556 16.6940112,21.5608235 16.8338532,21.4911624 C16.8338532,21.6195675 16.7990227,21.6892285 16.7407985,21.7011853 C16.705968,21.7126222 16.6706176,21.6892285 16.6243502,21.6310044 C16.5775629,21.5842171 16.5656062,21.5379497 16.5775629,21.5025993 C16.5775629,21.5259929 16.5656062,21.5493866 16.5307756,21.5608235 C16.507382,21.5379497 16.4725515,21.5025993 16.4143273,21.4677688 C16.3555833,21.4209815 16.3207528,21.3975879 16.2973591,21.3627573 C16.2859222,21.3508006 16.2739655,21.3393637 16.2625286,21.3159701 C16.2505718,21.2925764 16.2271782,21.2577459 16.2037846,21.2229154 C16.1809108,21.1761281 16.168954,21.1407777 16.1575172,21.1179039 C16.1455604,21.0945103 16.1455604,21.0711167 16.1455604,21.0711167 C16.0639426,21.1059472 15.9474943,21.0825535 15.7956956,21.0009357 C15.7603452,20.9775421 15.7140778,20.9307548 15.6558536,20.8610938 C15.5971096,20.7909129 15.5274485,20.7560823 15.4687045,20.7675192 C15.4458307,20.7675192 15.4104803,20.779476 15.3756498,20.779476 C15.3408193,20.7909129 15.3054689,20.8028696 15.2820753,20.8028696 C15.2586816,20.8028696 15.2238511,20.7909129 15.1770638,20.779476 C15.1422333,20.7675192 15.095446,20.7326887 15.0372219,20.6973383 C14.9789977,20.6625078 14.9436473,20.6391142 14.9202537,20.6276773 C14.9088168,20.6276773 14.8739863,20.6042836 14.8386359,20.58089 C14.7923685,20.5694531 14.7570181,20.5460595 14.7336245,20.5341027 C14.7102308,20.5226658 14.6754003,20.4992722 14.6520067,20.4758786 C14.6171761,20.441048 14.6052194,20.4176544 14.5937825,20.382304 C14.5818257,20.3594302 14.5703889,20.3006862 14.558952,20.2310252 C14.5469952,20.1494074 14.5355583,20.0906633 14.5121647,20.0558328 C14.4887711,20.0210023 14.4419838,19.974215 14.3951965,19.9274277 C14.3489291,19.8806405 14.3021418,19.8692036 14.2667914,19.8692036 C14.3021418,19.8692036 14.3021418,19.8338532 14.2667914,19.775629 C14.2319609,19.7174049 14.2085673,19.6706176 14.1737367,19.647224 C14.1737367,19.6357871 14.1389062,19.6123934 14.1035558,19.5656062 C14.0572884,19.5188189 14.021938,19.4725515 13.9871075,19.4372011 C13.9637139,19.4023706 13.9288833,19.36754 13.9054897,19.3207528 C13.893533,19.2739655 13.8820961,19.239135 13.893533,19.2037846 C13.9054897,19.2037846 13.893533,19.1923477 13.8820961,19.1809108 C13.8701393,19.1809108 13.8587024,19.168954 13.8353088,19.1575172 C13.8119152,19.1575172 13.8004783,19.1455604 13.7770846,19.1341235 C13.7651279,19.1341235 13.753691,19.1221668 13.7417342,19.1221668 C13.753691,19.1455604 13.7651279,19.1809108 13.7651279,19.2271782 C13.7770846,19.2625286 13.7885215,19.2973591 13.8119152,19.3207528 C13.8119152,19.3441464 13.8467457,19.4023706 13.9169266,19.507382 C14.0338948,19.6940112 14.0801622,19.8338532 14.0687253,19.9159909 C14.0453317,19.9274277 14.0338948,19.9159909 14.021938,19.9040341 C14.0105011,19.8806405 14.0105011,19.8572468 13.9985444,19.8338532 C13.9985444,19.7990227 13.9985444,19.775629 13.9871075,19.7641921 C13.9751508,19.7407985 13.9403202,19.705968 13.8820961,19.6825743 C13.8353088,19.647224 13.8004783,19.6238303 13.7885215,19.5889998 L13.8004783,19.5889998 C13.8119152,19.5775629 13.8119152,19.5775629 13.8238719,19.5775629 C13.8238719,19.5422125 13.8004783,19.4839884 13.753691,19.4257642 C13.6954668,19.36754 13.6835101,19.3207528 13.6835101,19.2973591 C13.6486796,19.2739655 13.6252859,19.2157413 13.6018923,19.1455604 C13.5670618,19.0639426 13.555105,19.0171553 13.5317114,18.9937617 C13.5202745,18.9708879 13.4968808,18.9474943 13.4620503,18.9241006 C13.4386567,18.9121439 13.4033063,18.8887503 13.3684758,18.8653566 C13.3336452,18.8424828 13.3102516,18.8190892 13.286858,18.8190892 C13.286858,18.8071325 13.2634643,18.7956956 13.2400707,18.7603452 C13.1002287,18.5856727 13.0534415,18.4920981 13.1116656,18.4806613 C13.0534415,18.4920981 13.0066542,18.4453109 12.9718237,18.3522562 C12.9369931,18.2472447 12.9250364,18.1770638 12.9369931,18.1302766 L12.9250364,18.1188397 L12.9250364,17.967041 C12.9250364,17.8854232 12.9369931,17.8038054 12.94843,17.7336245 C12.9603868,17.6639634 12.9718237,17.628613 13.0066542,17.628613 C12.9718237,17.628613 12.94843,17.6052194 12.9369931,17.5469952 C12.9250364,17.4887711 12.9250364,17.4539405 12.9369931,17.4305469 C12.9369931,17.4185901 12.9603868,17.4185901 12.9952173,17.4539405 C13.0300478,17.4887711 13.0420046,17.5002079 13.0534415,17.5121647 C13.1116656,17.4768143 13.1236224,17.4419838 13.1116656,17.3951965 C13.1116656,17.3837596 13.0653982,17.3369723 12.9837804,17.2553545 C12.7966313,17.1389062 12.6916199,17.0801622 12.6916199,17.0801622 C12.7150135,17.0338948 12.7150135,16.9985444 12.6682262,16.9637139 C12.6333957,16.9871075 12.6100021,16.9871075 12.5985652,16.9751508 C12.5866084,16.9637139 12.5866084,16.9403202 12.5866084,16.9054897 C12.5751716,16.8701393 12.5632148,16.8587024 12.5517779,16.8467457 C12.5283843,16.8467457 12.5049906,16.823352 12.4701601,16.8004783 C12.8553753,16.1818465 13.3684758,15.7035766 13.9985444,15.3531919 L13.9985444,15.3531919 Z M16.7522354,22.8563111 C16.7875858,22.7980869 16.8109794,22.7627365 16.8109794,22.727906 C16.7407985,22.7164691 16.7174049,22.6577251 16.7293616,22.5646704 C16.7407985,22.4944895 16.7990227,22.4128717 16.9159909,22.2964234 C16.9976087,22.2262425 17.0324392,22.121231 16.9976087,21.9808692 C16.9856519,21.9346018 16.974215,21.852984 16.9622583,21.7360158 C16.9508214,21.6310044 16.9508214,21.5493866 16.9393845,21.514556 C16.9393845,21.5259929 16.9622583,21.5379497 16.9976087,21.5493866 C17.0443959,21.5608235 17.0672697,21.5727802 17.0792265,21.5842171 C17.0792265,21.5727802 17.0906633,21.5493866 17.1026201,21.514556 C17.1260137,21.4792057 17.1374506,21.455812 17.1494074,21.4443751 C17.1608443,21.4209815 17.172801,21.4095446 17.2076315,21.386151 C17.2310252,21.3741942 17.2544188,21.3627573 17.2544188,21.3508006 C17.2658557,21.3508006 17.2892493,21.3393637 17.312643,21.3159701 C17.3474735,21.2925764 17.3708671,21.2691828 17.3942608,21.2577459 C17.4056977,21.2457891 17.441048,21.2343523 17.4644417,21.2229154 C17.4992722,21.2229154 17.5226658,21.2343523 17.5341027,21.2577459 C17.5574964,21.2811395 17.5574964,21.3279268 17.5226658,21.3741942 C17.4992722,21.4329382 17.4992722,21.4677688 17.5226658,21.4911624 C17.5341027,21.4792057 17.5341027,21.4443751 17.5341027,21.4095446 C17.5460595,21.3627573 17.5574964,21.3279268 17.58089,21.3045332 C17.6042836,21.2811395 17.6276773,21.2691828 17.6510709,21.2577459 C17.6744645,21.2577459 17.6978582,21.2577459 17.720732,21.2691828 C17.7326887,21.2811395 17.7560823,21.3045332 17.779476,21.3159701 C17.8143065,21.3393637 17.8377001,21.3508006 17.8610938,21.3508006 C17.9193179,21.3741942 18.0009357,21.4209815 18.0945103,21.5025993 C18.0825535,21.4911624 18.0825535,21.4911624 18.0945103,21.4792057 C18.0945103,21.4792057 18.1059472,21.4677688 18.1179039,21.4677688 C18.1293408,21.455812 18.1407777,21.4443751 18.1527345,21.4443751 C18.1641713,21.4329382 18.1761281,21.4329382 18.187565,21.4209815 L18.2109586,21.4209815 C18.2343523,21.4209815 18.2577459,21.4209815 18.2691828,21.4095446 C18.2811395,21.4095446 18.3045332,21.4095446 18.3279268,21.4209815 C18.3508006,21.4443751 18.3741942,21.4443751 18.3741942,21.455812 C18.386151,21.4677688 18.3975879,21.4792057 18.4209815,21.4911624 C18.4443751,21.514556 18.4563319,21.5259929 18.4677688,21.5259929 C18.4792057,21.5379497 18.5025993,21.5493866 18.5379497,21.5727802 C18.5727802,21.5961738 18.6076107,21.6195675 18.6195675,21.6310044 C18.6429611,21.6429611 18.654398,21.6658349 18.6777916,21.6892285 C18.6892285,21.7126222 18.6892285,21.7360158 18.6892285,21.7708463 C18.7126222,21.7708463 18.7708463,21.79424 18.8410272,21.8176336 C18.8644209,21.8295904 18.8878145,21.8410272 18.922645,21.8410272 C18.9694323,21.852984 18.992826,21.8644209 19.0042628,21.8758578 C18.3741942,22.5412768 17.6157205,22.9493658 16.7293616,23.1011645 C16.7174049,23.066334 16.705968,23.0315034 16.705968,22.996153 C16.705968,22.9727594 16.7174049,22.926492 16.7522354,22.8563111 L16.7522354,22.8563111 Z" id="Fill-227" fill="#90D05C" sketch:type="MSShapeGroup"></path>
            </g>
        </g>
    </g>
</svg>