<?xml version="1.0" encoding="UTF-8" standalone="no"?>
<svg width="20px" height="22px" viewBox="0 0 20 22" version="1.1" xmlns="http://www.w3.org/2000/svg" xmlns:xlink="http://www.w3.org/1999/xlink" xmlns:sketch="http://www.bohemiancoding.com/sketch/ns">
    <!-- Generator: Sketch 3.4.4 (17249) - http://www.bohemiancoding.com/sketch -->
    <title>folder-private-empty</title>
    <desc>Created with Sketch.</desc>
    <defs></defs>
    <g id="Page-1" stroke="none" stroke-width="1" fill="none" fill-rule="evenodd" sketch:type="MSPage">
        <g id="Private-empty" sketch:type="MSArtboardGroup" fill="#00BFF0">
            <g id="fa-folder-private-full" sketch:type="MSLayerGroup" transform="translate(-0.282051, 4.357143)">
                <path d="M0.918920647,13.0305116 C1.33250208,13.444637 1.84890338,13.6428571 2.43436281,13.6428571 L14.1289724,13.6428571 C14.7144319,13.6428571 15.2139523,13.444637 15.6444146,13.0305116 C16.057996,12.6340713 16.2820513,12.1374156 16.2820513,11.5751777 L16.2820513,5.07517774 C16.2820513,4.5129399 16.057996,4.03323238 15.6444146,3.61984388 C15.2139523,3.20645537 14.7144319,3.00749834 14.1289724,3.00749834 L7.67050323,3.00749834 L7.67050323,2.70979967 C7.67050323,2.14756182 7.44644798,1.66785431 7.03363386,1.2544658 C6.60240425,0.857288613 6.10288382,0.642857143 5.51742439,0.642857143 L2.43436281,0.642857143 C1.84890338,0.642857143 1.33250208,0.857288613 0.918920647,1.2544658 C0.488458341,1.66785431 0.282051282,2.14756182 0.282051282,2.70979967 L0.282051282,11.5751777 C0.282051282,12.1374156 0.488458341,12.6340713 0.918920647,13.0305116" id="Fill-240" sketch:type="MSShapeGroup"></path>
            </g>
        </g>
    </g>
</svg>