<?xml version="1.0" encoding="UTF-8" standalone="no"?>
<svg width="25px" height="25px" viewBox="0 0 25 25" version="1.1" xmlns="http://www.w3.org/2000/svg" xmlns:xlink="http://www.w3.org/1999/xlink" xmlns:sketch="http://www.bohemiancoding.com/sketch/ns">
    <!-- Generator: Sketch 3.4.4 (17249) - http://www.bohemiancoding.com/sketch -->
    <title>fa-folder-private-empty</title>
    <desc>Created with Sketch.</desc>
    <defs></defs>
    <g id="Page-1" stroke="none" stroke-width="1" fill="none" fill-rule="evenodd" sketch:type="MSPage">
        <g id="Private-empty" sketch:type="MSArtboardGroup" fill="#00BFF0">
            <g id="fa-folder-private-full" sketch:type="MSLayerGroup" transform="translate(1.000000, 6.000000)">
                <path d="M0.711428571,13.6513635 C1.17342857,14.1077353 1.75028571,14.3261766 2.40428571,14.3261766 L15.468,14.3261766 C16.122,14.3261766 16.68,14.1077353 17.1608571,13.6513635 C17.6228571,13.2144809 17.8731429,12.6671595 17.8731429,12.0475658 L17.8731429,4.88447751 C17.8731429,4.26488377 17.6228571,3.73623957 17.1608571,3.28067982 C16.68,2.82512007 16.122,2.60586672 15.468,2.60586672 L8.25342857,2.60586672 L8.25342857,2.27779874 C8.25342857,1.658205 8.00314286,1.1295608 7.542,0.674001052 C7.06028571,0.236306393 6.50228571,0 5.84828571,0 L2.40428571,0 C1.75028571,0 1.17342857,0.236306393 0.711428571,0.674001052 C0.230571429,1.1295608 0,1.658205 0,2.27779874 L0,12.0475658 C0,12.6671595 0.230571429,13.2144809 0.711428571,13.6513635" id="Fill-240" sketch:type="MSShapeGroup"></path>
            </g>
        </g>
    </g>
</svg>