<?xml version="1.0" encoding="UTF-8" standalone="no"?>
<svg width="40px" height="23px" viewBox="0 0 40 23" version="1.1" xmlns="http://www.w3.org/2000/svg" xmlns:xlink="http://www.w3.org/1999/xlink">
    <!-- Generator: sketchtool 3.7.2 (28276) - http://www.bohemiancoding.com/sketch -->
    <title>5FE9697D-D8E0-4C05-8C1B-45719B704EB3</title>
    <desc>Created with sketchtool.</desc>
    <defs></defs>
    <g id="Icons" stroke="none" stroke-width="1" fill="none" fill-rule="evenodd">
        <g id="Style-guide---Desktop---Icons-2" transform="translate(-279.000000, -335.000000)" fill="#FFFFFF">
            <g id="Main-nav-mobile" transform="translate(279.000000, 271.000000)">
                <g id="icon-main-nav-mobile-people" transform="translate(0.000000, 64.000000)">
                    <path d="M8.5268122,9.11459532 C8.43296364,9.08416924 7.84439908,8.82224037 8.21174917,7.71764137 L8.20772709,7.71764137 C9.16766381,6.74136106 9.90102328,5.17111075 9.90102328,3.62467216 C9.90102328,1.24614641 8.29889426,1.0658141e-13 6.43667066,1.0658141e-13 C4.57310635,1.0658141e-13 2.98036219,1.24614641 2.98036219,3.62467216 C2.98036219,5.17640225 3.70969958,6.75326692 4.67633977,7.72690149 C5.05307471,8.70185892 4.37870576,9.06432614 4.23793292,9.11459532 C2.28856422,9.81042654 0,11.0790618 0,12.3318226 L0,12.8014425 C0,14.5066259 3.35307505,14.8955505 6.45544037,14.8955505 C9.56182777,14.8955505 12.8720006,14.5066259 12.8720006,12.8014425 L12.8720006,12.3318226 C12.8720006,11.0420214 10.5727108,9.78264621 8.5268122,9.11459532 Z M35.6548116,9.11459532 C35.560963,9.08416924 34.9723985,8.82224037 35.3397486,7.71764137 L35.3343858,7.71764137 C36.2956632,6.74136106 37.0290227,5.17111075 37.0290227,3.62467216 C37.0290227,1.24614641 35.4268936,1.0658141e-13 33.56467,1.0658141e-13 C31.7011057,1.0658141e-13 30.1083616,1.24614641 30.1083616,3.62467216 C30.1083616,5.17640225 30.837699,6.75326692 31.8043392,7.72690149 C32.1810741,8.70185892 31.5067051,9.06432614 31.3659323,9.11459532 C29.4165636,9.81042654 27.1279994,11.0790618 27.1279994,12.3318226 L27.1279994,12.8014425 C27.1279994,14.5066259 30.4810744,14.8955505 33.5834398,14.8955505 C36.6898272,14.8955505 40,14.5066259 40,12.8014425 L40,12.3318226 C40,11.0420214 37.7007102,9.78264621 35.6548116,9.11459532 Z M23.3050112,14.0745755 C23.1615569,14.028275 22.2498852,13.6234758 22.81968,11.9169696 L22.8116359,11.9169696 C24.2944432,10.4088943 25.4273294,7.98406801 25.4273294,5.59628215 C25.4273294,1.92530944 22.9537494,0.00052914922 20.0779613,0.00052914922 C17.2008326,0.00052914922 14.7393189,1.92398656 14.7393189,5.59628215 C14.7393189,7.99332812 15.8668423,10.4287374 17.3590344,11.9328441 C17.9408955,13.4382736 16.9005172,13.996526 16.6833248,14.0745755 C13.6721266,15.1500713 10.1380579,17.1092463 10.1380579,19.0419638 L10.1380579,19.7668983 C10.1380579,22.4020614 15.3144765,23 20.1061159,23 C24.9044588,23 30.0151834,22.4020614 30.0151834,19.7668983 L30.0151834,19.0419638 C30.0151834,17.0510399 26.4650263,15.1077394 23.3050112,14.0745755 Z" id="Fill-8"></path>
                </g>
            </g>
        </g>
    </g>
</svg>