<?xml version="1.0" encoding="UTF-8" standalone="no"?>
<svg width="27px" height="27px" viewBox="0 0 27 27" version="1.1" xmlns="http://www.w3.org/2000/svg" xmlns:xlink="http://www.w3.org/1999/xlink">
    <!-- Generator: sketchtool 3.7.2 (28276) - http://www.bohemiancoding.com/sketch -->
    <title>023F9875-E2A2-4F05-B29B-F1D947306482</title>
    <desc>Created with sketchtool.</desc>
    <defs></defs>
    <g id="Icons" stroke="none" stroke-width="1" fill="none" fill-rule="evenodd">
        <g id="Style-guide---Desktop---Icons-2" transform="translate(-511.000000, -333.000000)" fill="#FFFFFF">
            <g id="Main-nav-mobile" transform="translate(279.000000, 271.000000)">
                <g id="icon-main-nav-mobile-settings" transform="translate(232.000000, 62.000000)">
                    <path d="M13.5,19.125 C10.375,19.125 7.875,16.625 7.875,13.5 C7.875,10.375 10.375,7.875 13.5,7.875 C16.625,7.875 19.125,10.375 19.125,13.5 C19.125,16.625 16.625,19.125 13.5,19.125 M24.84,13.5 C24.84,12.7891731 24.76386,12.096 24.62886,11.4230769 L27,8.98269231 L24.3,4.51730769 L20.9412,5.28473077 C19.85526,4.37451923 18.5895,3.66265385 17.19846,3.20105769 L16.2,0 L10.8,0 L9.80154,3.20105769 C8.4105,3.66265385 7.14474,4.37451923 6.0588,5.28473077 L2.7,4.51730769 L0,8.98269231 L2.37114,11.4230769 C2.23614,12.096 2.16,12.7891731 2.16,13.5 C2.16,14.2108269 2.23614,14.904 2.37114,15.5769231 L0,18.0173077 L2.7,22.4826923 L6.0588,21.7152692 C7.14474,22.6254808 8.4105,23.3373462 9.80154,23.7989423 L10.8,27 L16.2,27 L17.19846,23.7989423 C18.5895,23.3373462 19.85526,22.6254808 20.9412,21.7152692 L24.3,22.4826923 L27,18.0173077 L24.62886,15.5769231 C24.76386,14.904 24.84,14.2108269 24.84,13.5" id="Page-1"></path>
                </g>
            </g>
        </g>
    </g>
</svg>