<?xml version="1.0" encoding="UTF-8" standalone="no"?>
<svg width="22px" height="22px" viewBox="0 0 22 22" version="1.1" xmlns="http://www.w3.org/2000/svg" xmlns:xlink="http://www.w3.org/1999/xlink" xmlns:sketch="http://www.bohemiancoding.com/sketch/ns">
    <!-- Generator: sketchtool 3.5.2 (25235) - http://www.bohemiancoding.com/sketch -->
    <title>Icon copy</title>
    <desc>Created with sketchtool.</desc>
    <defs></defs>
    <g id="Desktop" stroke="none" stroke-width="1" fill="none" fill-rule="evenodd" sketch:type="MSPage">
        <g id="Style-guide---Desktop---Icons" sketch:type="MSArtboardGroup" transform="translate(-596.000000, -1205.000000)" fill-opacity="0.6" fill="#471F11">
            <g id="Color-options" sketch:type="MSLayerGroup" transform="translate(260.000000, 1159.000000)">
                <g id="Yellow-bg" transform="translate(321.000000, 25.000000)" sketch:type="MSShapeGroup">
                    <path d="M16.1879177,40 L23,40 L23,41.8336452 C22.8537824,42.141406 22.963557,42.427604 23.2056491,42.6481333 C23.4261784,42.8892453 23.7113962,43 24.0417001,43 L35.8120823,43 C36.141406,43 36.427604,42.8892453 36.6471532,42.6481333 C36.8892453,42.427604 37,42.141406 37,41.8120823 L37,33.5838902 C37,33.2535864 36.9117883,32.8801568 36.7579079,32.4841843 C36.5814845,32.1097746 36.3834982,31.7794707 36.163949,31.5599216 L31.1476432,26.5436158 C31.0378687,26.4338412 29.9697162,25.5286318 30,25 L30,22.1879177 C29.7075648,21.8576138 29.5977903,21.572396 29.3556981,21.3518667 C29.136149,21.1097746 28.849951,21 28.5196472,21 L16.1879177,21 C15.8576138,21 15.572396,21.1097746 15.3518667,21.3518667 C15.1097746,21.572396 15,21.8576138 15,22.1879177 L15,38.6874276 C15,39.0177314 15.1097746,39.2813864 15.3518667,39.5234786 C15.572396,39.7440078 15.8576138,39.8537824 16.1879177,40 Z M18,23.25 C18,23.1800743 18.0421611,23.125 18.1049344,23.0693069 C18.1892567,23.0278465 18.2726421,23 18.3785134,23 L26.6214866,23 C26.7273579,23 26.8107433,23.0278465 26.8950656,23.0693069 C26.9587758,23.125 27,23.1800743 27,23.25 L27,23.75 C27,23.8193069 26.9587758,23.875 26.8950656,23.9306931 C26.8107433,23.9721535 26.7273579,24 26.6214866,24 L18.3785134,24 C18.2726421,24 18.1892567,23.9721535 18.1049344,23.9306931 C18.0421611,23.875 18,23.8193069 18,23.75 L18,23.25 L18,23.25 Z M24,27 L29,27 L29,32.3959726 C29.1462176,32.7037334 29.2559922,32.9899314 29.4980843,33.2094805 C29.7176334,33.4515727 30.0038314,33.5623274 30.3341353,34 L36,34 L36,42 L24,42 L24,27.291455 L24,27 Z M30,27 L36,33 L30,33 L30,27 L30,27 Z" id="Icon-copy"></path>
                </g>
            </g>
        </g>
    </g>
</svg>