<?xml version="1.0" encoding="UTF-8" standalone="no"?>
<svg width="16px" height="13px" viewBox="0 0 16 13" version="1.1" xmlns="http://www.w3.org/2000/svg" xmlns:xlink="http://www.w3.org/1999/xlink" xmlns:sketch="http://www.bohemiancoding.com/sketch/ns">
    <!-- Generator: sketchtool 3.5.2 (25235) - http://www.bohemiancoding.com/sketch -->
    <title>Fill 3</title>
    <desc>Created with sketchtool.</desc>
    <defs></defs>
    <g id="Pinentry" stroke="none" stroke-width="1" fill="none" fill-rule="evenodd" sketch:type="MSPage">
        <g id="Pinentry-3---show-typing" sketch:type="MSArtboardGroup" transform="translate(-486.000000, -128.000000)" fill="#33A0FF">
            <g id="Passphrase" sketch:type="MSLayerGroup" transform="translate(62.000000, 124.000000)">
                <g id="Show-typing" transform="translate(338.000000, 0.000000)" sketch:type="MSShapeGroup">
                    <path d="M94,8.85031768 C93.2191808,8.85031768 92.5862138,9.48328472 92.5862138,10.2641039 C92.5862138,11.0449231 93.2191808,11.6778901 94,11.6778901 C94.7808192,11.6778901 95.4137862,11.0449231 95.4137862,10.2641039 C95.4137862,9.48328472 94.7808192,8.85031768 94,8.85031768 M94,14.1962038 C91.8284116,14.1962038 90.0679321,12.4357243 90.0679321,10.2641359 C90.0679321,8.09254745 91.8284116,6.33206793 94,6.33206793 C96.1715884,6.33206793 97.9320679,8.09254745 97.9320679,10.2641359 C97.9320679,12.4357243 96.1715884,14.1962038 94,14.1962038 M93.992008,4 C89.5729071,4 87.4385614,7.30869131 86,10.1698302 L86,10.1858142 C86.6553447,11.5764236 89.5888911,16.3716284 94.007992,16.3716284 C98.4270929,16.3716284 100.561439,13.0629371 102,10.2017982 L102,10.1858142 C101.344655,8.7952048 98.4111089,4 93.992008,4" id="Fill-3"></path>
                </g>
            </g>
        </g>
    </g>
</svg>