<?xml version="1.0" encoding="UTF-8" standalone="no"?>
<svg width="30px" height="35px" viewBox="0 0 30 35" version="1.1" xmlns="http://www.w3.org/2000/svg" xmlns:xlink="http://www.w3.org/1999/xlink" xmlns:sketch="http://www.bohemiancoding.com/sketch/ns">
    <!-- Generator: sketchtool 3.5.2 (25235) - http://www.bohemiancoding.com/sketch -->
    <title>Icon PGP</title>
    <desc>Created with sketchtool.</desc>
    <defs></defs>
    <g id="Desktop" stroke="none" stroke-width="1" fill="none" fill-rule="evenodd" sketch:type="MSPage">
        <g id="Style-guide---Desktop---Icons" sketch:type="MSArtboardGroup" transform="translate(-504.000000, -654.000000)" fill-opacity="0.75" fill="#000000">
            <g id="Icon-PGP" sketch:type="MSLayerGroup" transform="translate(504.000000, 654.000000)">
                <path d="M14.8158306,7.48587605 L16.9321818,9.60222727 L14.3926136,12.1417955 L29.6303182,27.3795 L27.0912273,29.9190455 L11.8530682,14.6813409 L9.31309091,17.2213182 L7.19672727,15.1049545 L12.2765,10.0251818 L7.19709091,4.94577273 L11.853,0.289863636 L16.9325455,5.36895455 L14.8158306,7.48587605 Z M2.11622731,10.0254091 L0.000227272727,7.90895455 L7.61931818,0.289863636 L9.73613636,2.40668182 L4.65680302,7.48571215 L9.73590909,12.5652727 L5.07954545,17.2211818 L0,12.1416364 L2.11622731,10.0254091 Z M19.4719091,32.4603636 L22.0114545,34.9999091 L27.091,29.9203636 L24.5514545,27.3812727 L19.4719091,32.4603636 Z M19.4699091,27.3805455 L16.9299091,24.841 L19.469,22.3014545 L22.009,24.8405455 L19.4699091,27.3805455 Z" id="Key" sketch:type="MSShapeGroup"></path>
            </g>
        </g>
    </g>
</svg>