<?xml version="1.0" encoding="UTF-8" standalone="no"?>
<svg width="32px" height="32px" viewBox="0 0 32 32" version="1.1" xmlns="http://www.w3.org/2000/svg" xmlns:xlink="http://www.w3.org/1999/xlink">
    <!-- Generator: sketchtool 3.7.2 (28276) - http://www.bohemiancoding.com/sketch -->
    <title>CE82207B-C07B-4381-AF16-57EB63A5D0CA</title>
    <desc>Created with sketchtool.</desc>
    <defs></defs>
    <g id="Icons" stroke="none" stroke-width="1" fill="none" fill-rule="evenodd">
        <g id="Style-guide---Desktop---Icons-2" transform="translate(-107.000000, -518.000000)">
            <g id="Search-button" transform="translate(83.000000, 494.000000)">
                <g id="icon-search-button-32" transform="translate(24.000000, 24.000000)">
                    <g>
                        <rect id="icon-area" fill="#D8D8D8" opacity="0" x="0" y="0" width="32" height="32"></rect>
                        <path d="M21.3459995,16.6934382 L21.3459995,16.6509916 C21.3459995,15.6705701 23.0624227,14.6777251 24.5244492,14.1331616 C24.6300289,14.0938205 25.1358056,13.8101505 24.8532544,13.0471403 C24.1282742,12.2851654 23.5812712,11.0510974 23.5812712,9.83669995 C23.5812712,7.97524502 24.7758293,7 26.1735025,7 C27.5701702,7 28.771767,7.97524502 28.771767,9.83669995 C28.771767,11.0469562 28.2217474,12.2758478 27.5007893,13.0398932 L27.5048114,13.0398932 C27.2292989,13.904362 27.6707223,14.1093498 27.7411087,14.1331616 C29.2755327,14.655984 31,15.6415819 31,16.6509916 L31,17.0185202 C31,17.5922865 30.5410658,17.9756275 29.8326644,18.2262252 C28.4731761,16.8516514 26.5860449,16 24.5,16 C23.3733867,16 22.3047921,16.2484072 21.3459995,16.6934382 Z M17.1470529,24.9852715 C16.7915525,24.9954504 16.4344308,25 16.0795869,25 C12.4858574,25 8.60354345,24.532048 8.60354345,22.4697465 L8.60354345,21.9024065 C8.60354345,20.3898449 11.254095,18.8565776 13.5124936,18.0148852 C13.6753879,17.953803 14.4556716,17.5169098 14.0192758,16.3387475 C12.9001317,15.1616206 12.0544891,13.2556481 12.0544891,11.3796991 C12.0544891,8.50572862 13.9006244,7.00041412 16.058471,7.00041412 C18.2153121,7.00041412 20.070497,8.50676391 20.070497,11.3796991 C20.070497,13.248401 19.2208324,15.1460912 18.1087269,16.326324 L18.11476,16.326324 C17.6874139,17.6618506 18.3711677,17.97865 18.4787584,18.0148852 C18.6969001,18.0893073 18.9175207,18.1697638 19.1383159,18.2557282 C17.8154332,19.6080417 17,21.4587935 17,23.5 C17,24.008497 17.0506048,24.5051746 17.1470529,24.9852715 Z M7.39510915,14.1331616 C7.32472273,14.1093498 6.88329931,13.904362 7.15881188,13.0398932 L7.15579532,13.0398932 C7.87574786,12.2758478 8.42576746,11.0469562 8.42576746,9.83669995 C8.42576746,7.97524502 7.2241707,7 5.82750299,7 C4.42982977,7 3.23527164,7.97524502 3.23527164,9.83669995 C3.23527164,11.0510974 3.78227469,12.2851654 4.50725483,13.0471403 C4.78980604,13.8101505 4.28402932,14.0938205 4.17844969,14.1331616 C2.71642316,14.6777251 1,15.6705701 1,16.6509916 L1,17.0185202 C1,18.3530115 3.51480629,18.6573874 5.84158028,18.6573874 C8.17137083,18.6573874 10.6540005,18.3530115 10.6540005,17.0185202 L10.6540005,16.6509916 C10.6540005,15.6415819 8.92953314,14.655984 7.39510915,14.1331616 Z" id="Fill-8" fill="#FFFFFF"></path>
                        <path d="M24.2037487,19.6505078 C26.1675587,19.6505078 27.7651025,21.2321967 27.7651025,23.1763686 C27.7651025,25.1202993 26.1675587,26.7021088 24.2037487,26.7021088 C22.2399388,26.7021088 20.6422732,25.1202993 20.6422732,23.1763686 C20.6422732,21.2321967 22.2399388,19.6505078 24.2037487,19.6505078 M31.8167877,29.7768641 L28.3673317,26.3434802 C28.464598,26.2126933 28.5326976,26.120842 28.580209,26.0562978 L28.5860159,26.0484584 C28.6248168,25.9978945 28.662298,25.9470692 28.6987234,25.8951987 L28.7020228,25.8907564 L28.7018908,25.8907564 C30.0531928,23.9680196 29.7540032,21.2486719 27.9667847,19.4794562 C26.9681225,18.49065 25.6403123,17.9462055 24.2281694,17.9462055 C22.8160265,17.9462055 21.4884802,18.49065 20.4896861,19.4793255 C19.4910239,20.4680011 18.9409481,21.7825332 18.9409481,23.1808159 C18.9409481,24.5789681 19.490892,25.8936308 20.4896861,26.8821757 C21.4855768,27.8682381 22.8100876,28.4112454 24.219063,28.4112454 C25.0637093,28.4112454 25.90532,28.2088589 26.6582429,27.8234231 C26.7428395,27.7762562 26.9937258,27.6320117 27.1951212,27.470782 L30.6984233,30.8594814 C30.7194075,30.8802558 30.8325109,30.9841274 30.9969529,30.9841274 C31.0690118,30.9841274 31.1767042,30.9630918 31.2808332,30.8628785 L31.4558334,30.6956385 C31.589525,30.5682487 31.7300794,30.4341955 31.8307771,30.3346354 C32.0264975,30.1407416 31.9316067,29.8969371 31.8167877,29.7768641" id="Fill-1" fill="#FFFFFF"></path>
                    </g>
                </g>
            </g>
        </g>
    </g>
</svg>