<?xml version="1.0" encoding="UTF-8" standalone="no"?>
<svg width="24px" height="12px" viewBox="0 0 24 12" version="1.1" xmlns="http://www.w3.org/2000/svg" xmlns:xlink="http://www.w3.org/1999/xlink">
    <!-- Generator: sketchtool 3.7.2 (28276) - http://www.bohemiancoding.com/sketch -->
    <title>9B4D415D-870C-4348-B47E-DD44AC492B0B</title>
    <desc>Created with sketchtool.</desc>
    <defs></defs>
    <g id="Icons" stroke="none" stroke-width="1" fill="none" fill-rule="evenodd">
        <g id="Style-guide---Desktop---Icons-2" transform="translate(-214.000000, -1435.000000)" fill="#000000">
            <g id="icon-hamburger" transform="translate(214.000000, 1435.000000)">
                <path d="M0,11 C0,10.4477153 0.445241381,10 0.99648259,10 L10.0135176,10 C10.5638598,10 11.0100002,10.4438648 11.0100002,11 C11.0100002,11.5522847 10.5647588,12 10.0135176,12 L0.99648259,12 C0.446140452,12 0,11.5561352 0,11 Z M0,6 C0,5.44771525 0.453602617,5 0.998276455,5 L7.01172377,5 C7.56305664,5 8.01000023,5.44386482 8.01000023,6 C8.01000023,6.55228475 7.55639761,7 7.01172377,7 L0.998276455,7 C0.446943593,7 0,6.55613518 0,6 Z M0,1 C0,0.44771525 0.450203611,0 1.00741576,0 L13.0005139,0 C13.5568943,0 14.0079297,0.443864822 14.0079297,1 C14.0079297,1.55228475 13.557726,2 13.0005139,2 L1.00741576,2 C0.451035397,2 0,1.55613518 0,1 Z M19.0079297,3 L24.0079297,3 L21.5079297,6 L19.0079297,3 Z" id="icon-menu"></path>
            </g>
        </g>
    </g>
</svg>