<?xml version="1.0" encoding="UTF-8" standalone="no"?>
<svg width="31px" height="34px" viewBox="0 0 31 34" version="1.1" xmlns="http://www.w3.org/2000/svg" xmlns:xlink="http://www.w3.org/1999/xlink">
    <!-- Generator: sketchtool 3.7.2 (28276) - http://www.bohemiancoding.com/sketch -->
    <title>9E0DEC9F-7E8C-4574-9ACD-17B911E1D2DD</title>
    <desc>Created with sketchtool.</desc>
    <defs></defs>
    <g id="Icons" stroke="none" stroke-width="1" fill="none" fill-rule="evenodd">
        <g id="Style-guide---Desktop---Icons-2" transform="translate(-434.000000, -329.000000)" fill="#FFFFFF">
            <g id="Main-nav-mobile" transform="translate(279.000000, 271.000000)">
                <g id="icon-main-nav-mobile-devices" transform="translate(155.000000, 58.000000)">
                    <path d="M16.504869,25.1874975 C16.2945551,25.4828631 15.8760583,25.5530335 15.5722856,25.3438661 L7.49005075,19.7787166 C7.18627812,19.5695492 7.11019725,19.1588295 7.3205112,18.863464 L17.8176099,4.12130517 C18.0279239,3.82593957 18.4464207,3.75576917 18.7501933,3.96493658 L26.8324282,9.53008609 C27.1362008,9.7392535 27.2122817,10.1499731 27.0019677,10.4453387 L16.504869,25.1874975 L16.504869,25.1874975 Z M7.55102439,28.2644175 C6.53076642,27.5619029 6.27646165,26.1890486 6.98252025,25.1974576 C7.6888857,24.2054357 9.08773569,23.9708871 10.1079937,24.6734017 C11.1273652,25.375306 11.3821132,26.7484654 10.6757478,27.7404873 C9.96968916,28.7320783 8.57083917,28.9666269 7.55102439,28.2644175 L7.55102439,28.2644175 L7.55102439,28.2644175 Z M29.9945158,7.68644215 L19.4424369,0.420642872 C18.3827324,-0.309033277 16.9292572,-0.0653254658 16.1955814,0.965051246 L0.415220198,23.1270406 C-0.318455663,24.1574174 -0.0542202792,25.5838817 1.00548423,26.3135578 L11.5575631,33.5793571 C12.6172676,34.3090333 14.0707428,34.0653255 14.8044186,33.0349488 L30.5847798,10.8729594 C31.3184557,9.84258264 31.0542203,8.4161183 29.9945158,7.68644215 L29.9945158,7.68644215 L29.9945158,7.68644215 Z" id="Phone-Copy-2"></path>
                </g>
            </g>
        </g>
    </g>
</svg>