<?xml version="1.0" encoding="UTF-8" standalone="no"?>
<svg width="20px" height="21px" viewBox="0 0 20 21" version="1.1" xmlns="http://www.w3.org/2000/svg" xmlns:xlink="http://www.w3.org/1999/xlink">
    <!-- Generator: sketchtool 3.6 (26304) - http://www.bohemiancoding.com/sketch -->
    <title>Icon proof broken</title>
    <desc>Created with sketchtool.</desc>
    <defs></defs>
    <g id="Desktop" stroke="none" stroke-width="1" fill="none" fill-rule="evenodd">
        <g id="Style-guide---Desktop---Icons-2" transform="translate(-149.000000, -1076.000000)" fill="#FF4D61">
            <g id="Group-2" transform="translate(90.000000, 996.000000)">
                <g id="Icon-proof-broken" transform="translate(59.000000, 80.000000)">
                    <path d="M11.1303644,2.29715128 L9.91184128,1.15838274 C9.42019512,0.699038605 8.63465994,0.797230916 8.2655728,1.36425097 L6.98934877,3.32418632 C6.77829485,3.64874635 6.41315572,3.83694722 6.02929545,3.8192867 L3.69457608,3.71227592 C3.02246549,3.68117197 2.48239665,4.26781689 2.5635663,4.93984331 L2.84236546,7.24771405 C2.88908945,7.63393725 2.72813588,8.01678251 2.41999228,8.25276914 L0.548405902,9.68647074 C0.0101735177,10.0986914 -0.029728993,10.8996112 0.465447631,11.3594898 L2.15553318,12.9293418 C2.44116174,13.1947853 2.56293163,13.5949435 2.47470675,13.9775211 L1.94291882,16.2805647 C1.78948472,16.946114 2.2718019,17.5865177 2.9489249,17.6156721 L5.25480316,17.7145434 C5.64661967,17.7314548 5.99800533,17.960191 6.17377695,18.3126721 L7.22058263,20.4110577 C7.52519233,21.0215422 8.30667739,21.2004845 8.84728701,20.783962 L10.6939865,19.3608778 C11.0072039,19.1196656 11.4245297,19.0672722 11.7849149,19.2243376 L13.9120333,20.1503033 C14.5349565,20.4213418 15.2511758,20.0547547 15.4034981,19.3872612 L15.9261365,17.0924668 C16.0139391,16.706895 16.3014286,16.3987002 16.6775057,16.2854545 L18.8919645,15.6210658 C19.5422951,15.4257335 19.860283,14.6853332 19.5545723,14.0774346 L18.4971644,11.9729157 C18.3214343,11.6233266 18.3457377,11.2051007 18.5609702,10.8771331 L19.8318438,8.93716564 C20.2046979,8.36827397 19.9780517,7.60088241 19.3583195,7.33316845 L17.2048616,6.40343755 C16.8504363,6.25002695 16.6042331,5.91818424 16.5587546,5.53188319 L16.2866662,3.2233412 C16.2110836,2.58241226 15.6066589,2.15650341 14.9921978,2.28675272 L10.6990657,8.15176109 L14.4315936,7.73208002 C14.481009,7.73523586 14.5155091,7.72571675 14.5486985,7.72783635 C14.6644926,7.73523138 14.7600689,7.77703532 14.8508562,7.85476633 C14.9580338,7.94526651 14.9635353,8.04152853 14.8851212,8.14415383 L9.02220657,15.4953322 C8.94379256,15.5979575 8.80430242,15.6492597 8.62212952,15.6376255 C8.60590359,15.6365893 8.55785862,15.6212657 8.49147983,15.6170265 C8.39459276,15.5868613 8.31729069,15.534502 8.27460794,15.4715655 C8.23112807,15.409111 8.22294548,15.3366554 8.24715517,15.2668013 L10.6712777,10.0277044 L6.85352353,10.4653875 L6.73772942,10.4579925 C6.62193531,10.4505974 6.54201171,10.4215156 6.46476922,10.3686272 C6.3556481,10.3019806 6.33312358,10.2051643 6.37703742,10.1120581 L11.1303644,2.29715128 L11.1303644,2.29715128 Z" id="Fill-1"></path>
                </g>
            </g>
        </g>
    </g>
</svg>