<?xml version="1.0" encoding="UTF-8" standalone="no"?>
<svg width="20px" height="21px" viewBox="0 0 20 21" version="1.1" xmlns="http://www.w3.org/2000/svg" xmlns:xlink="http://www.w3.org/1999/xlink">
    <!-- Generator: sketchtool 3.6 (26304) - http://www.bohemiancoding.com/sketch -->
    <title>Icon proof good new</title>
    <desc>Created with sketchtool.</desc>
    <defs></defs>
    <g id="Desktop" stroke="none" stroke-width="1" fill="none" fill-rule="evenodd">
        <g id="Style-guide---Desktop---Icons-2" transform="translate(-149.000000, -996.000000)" fill="#66B8FF">
            <g id="Group-2" transform="translate(90.000000, 996.000000)">
                <g id="Icon-proof-good-new" transform="translate(59.000000, 0.000000)">
                    <path d="M13.9120333,20.1503033 L11.7849149,19.2243376 C11.4245297,19.0672722 11.0072039,19.1196656 10.6939865,19.3608778 L8.84728701,20.783962 C8.30667739,21.2004845 7.52519233,21.0215422 7.22058263,20.4110577 L6.17377695,18.3126721 C5.99800533,17.960191 5.64661967,17.7314548 5.25480316,17.7145434 L2.9489249,17.6156721 C2.2718019,17.5865177 1.78948472,16.946114 1.94291882,16.2805647 L2.47470675,13.9775211 C2.56293163,13.5949435 2.44116174,13.1947853 2.15553318,12.9293418 L0.465447631,11.3594898 C-0.029728993,10.8996112 0.0101735177,10.0986914 0.548405902,9.68647074 L2.41999228,8.25276914 C2.72813588,8.01678251 2.88908945,7.63393725 2.84236546,7.24771405 L2.5635663,4.93984331 C2.48239665,4.26781689 3.02246549,3.68117197 3.69457608,3.71227592 L6.02929545,3.8192867 C6.41315572,3.83694722 6.77829485,3.64874635 6.98934877,3.32418632 L8.2655728,1.36425097 C8.63465994,0.797230916 9.42019512,0.699038605 9.91184128,1.15838274 L11.6109656,2.74629623 C11.8924356,3.00897923 12.291248,3.10184738 12.6596467,2.98983683 L14.900608,2.31032483 C15.5452981,2.11471587 16.2073286,2.55057097 16.2866662,3.2233412 L16.5587546,5.53188319 C16.6042331,5.91818424 16.8504363,6.25002695 17.2048616,6.40343755 L19.3583195,7.33316845 C19.9780517,7.60088241 20.2046979,8.36827397 19.8318438,8.93716564 L18.5609702,10.8771331 C18.3457377,11.2051007 18.3214343,11.6233266 18.4971644,11.9729157 L19.5545723,14.0774346 C19.860283,14.6853332 19.5422951,15.4257335 18.8919645,15.6210658 L16.6775057,16.2854545 C16.3014286,16.3987002 16.0139391,16.706895 15.9261365,17.0924668 L15.4034981,19.3872612 C15.2511758,20.0547547 14.5349565,20.4213418 13.9120333,20.1503033 Z M5.17377404,11.4647537 L8.3914299,14.819367 C8.50693549,14.939789 8.65750529,15 8.83127933,15 C9.00505337,15 9.15510751,14.939789 9.27112876,14.819367 L14.8267416,9.02728311 C14.9422472,8.89449634 15,8.7498824 15,8.56871178 C15,8.38754116 14.9422472,8.23056246 14.8267416,8.11014045 L13.9470427,7.19299778 C13.8310215,7.06021101 13.6809674,7 13.5071933,7 C13.3334193,7 13.1828495,7.06021101 13.0673439,7.19299778 L8.83127933,11.6093677 L6.93317176,9.63046838 C6.81715052,9.49768161 6.66709637,9.4374706 6.49332233,9.4374706 C6.31954829,9.4374706 6.1689785,9.49768161 6.0534729,9.63046838 L5.17377404,10.547611 C5.05826845,10.6680331 5,10.8250118 5,11.0061824 C5,11.187353 5.05826845,11.3319669 5.17377404,11.4647537 Z" id="Combined-Shape"></path>
                </g>
            </g>
        </g>
    </g>
</svg>