<?xml version="1.0" encoding="UTF-8" standalone="no"?>
<svg width="16px" height="16px" viewBox="0 0 16 16" version="1.1" xmlns="http://www.w3.org/2000/svg" xmlns:xlink="http://www.w3.org/1999/xlink">
    <!-- Generator: sketchtool 3.8.2 (29753) - http://www.bohemiancoding.com/sketch -->
    <title>9851188B-4B86-4FB1-A5FB-47C340C1DB62</title>
    <desc>Created with sketchtool.</desc>
    <defs></defs>
    <g id="Icons" stroke="none" stroke-width="1" fill="none" fill-rule="evenodd">
        <g id="Style-guide---Desktop---Icons-2" transform="translate(-340.000000, -1414.000000)">
            <g id="kb-iconfont-identity-website" transform="translate(340.000000, 1414.000000)">
                <rect id="icon-area" fill="#D8D8D8" opacity="0" x="0" y="0" width="16" height="16"></rect>
                <path d="M4.47962154,14.0684134 C5.55749636,14.6892285 6.73362445,15 8.00800582,15 C9.26564774,15 10.4417758,14.6892285 11.5203785,14.0684134 C12.5822416,13.4475983 13.4315866,12.5982533 14.0684134,11.5203785 C14.6892285,10.4417758 15,9.28238719 15,8.00800582 C15,6.73362445 14.6892285,5.55749636 14.0684134,4.49563319 C13.4315866,3.41775837 12.5822416,2.56768559 11.5203785,1.94687045 C10.4417758,1.31004367 9.26564774,1 8.00800582,1 C6.73362445,1 5.55749636,1.31004367 4.47962154,1.94687045 C3.41775837,2.56768559 2.56841339,3.41775837 1.93085881,4.49563319 C1.31004367,5.55749636 1,6.73362445 1,8.00800582 C1,9.28238719 1.31004367,10.4417758 1.93085881,11.5203785 C2.56841339,12.5982533 3.41775837,13.4475983 4.47962154,14.0684134 L4.47962154,14.0684134 Z M5.19796215,2.8944687 C5.23071325,2.87845706 5.31222707,2.87845706 5.41048035,2.87845706 C5.45924309,2.8944687 5.49199418,2.91120815 5.54148472,2.9272198 C5.59024745,2.95997089 5.62299854,2.99272198 5.67176128,3.02547307 C5.72052402,3.07423581 5.75327511,3.1069869 5.77001456,3.12372635 C5.7860262,3.09097525 5.77001456,3.02547307 5.73726346,2.95997089 C5.73726346,2.91120815 5.80276565,2.87845706 5.93304221,2.84570597 C6.06404658,2.82969432 6.16157205,2.82969432 6.21106259,2.86171761 C6.16157205,2.79694323 6.11280932,2.73144105 6.01455604,2.63318777 L5.98253275,2.66593886 C5.93304221,2.63318777 5.80276565,2.64992722 5.59024745,2.73144105 C5.59024745,2.74745269 5.55749636,2.76419214 5.50873362,2.78020378 C5.45924309,2.81295488 5.41048035,2.82969432 5.37772926,2.84570597 C5.34497817,2.86171761 5.31222707,2.86171761 5.28020378,2.86171761 C5.57350801,2.69868996 5.85152838,2.56768559 6.12954876,2.48617176 C6.14556041,2.48617176 6.1783115,2.51892285 6.22707424,2.55167394 C6.25982533,2.60043668 6.29257642,2.63318777 6.32532751,2.64992722 C6.30931587,2.63318777 6.29257642,2.63318777 6.29257642,2.66593886 C6.25982533,2.73144105 6.25982533,2.79694323 6.29257642,2.84570597 C6.32532751,2.8944687 6.3580786,2.91120815 6.40684134,2.91120815 C6.45633188,2.9272198 6.52110626,2.9272198 6.60334789,2.91120815 C6.66812227,2.8944687 6.71761281,2.8944687 6.7503639,2.8944687 L6.83187773,2.8944687 C7.02765648,2.91120815 7.10917031,2.8944687 7.06040757,2.84570597 C7.07714702,2.86171761 7.10917031,2.9272198 7.12590975,2.99272198 C7.1419214,3.07423581 7.17467249,3.12372635 7.20742358,3.15574964 C7.24017467,3.12372635 7.24017467,3.09097525 7.22416303,3.02547307 C7.20742358,2.95997089 7.20742358,2.9272198 7.22416303,2.8944687 C7.24017467,2.8944687 7.25618632,2.87845706 7.27292576,2.86171761 C7.30567686,2.84570597 7.33842795,2.84570597 7.38719068,2.82969432 C7.41994178,2.81295488 7.45269287,2.79694323 7.46870451,2.79694323 C7.5014556,2.76419214 7.46870451,2.73144105 7.38719068,2.66593886 C7.37045124,2.64992722 7.35443959,2.64992722 7.30567686,2.63318777 C7.27292576,2.61717613 7.24017467,2.61717613 7.20742358,2.60043668 C7.17467249,2.58442504 7.1419214,2.56768559 7.10917031,2.55167394 C7.07714702,2.5356623 7.06040757,2.50291121 7.06040757,2.47016012 C7.07714702,2.45342067 7.09315866,2.42066958 7.10917031,2.37190684 C7.15866084,2.33915575 7.20742358,2.3231441 7.28893741,2.33915575 C7.37045124,2.33915575 7.43595342,2.3558952 7.48544396,2.38864629 C7.64847162,2.47016012 7.66448326,2.55167394 7.55021834,2.63318777 C7.61572052,2.63318777 7.68122271,2.64992722 7.77947598,2.69868996 C7.86098981,2.74745269 7.8937409,2.78020378 7.87700146,2.82969432 C7.92649199,2.74745269 7.97525473,2.69868996 8.02401747,2.69868996 C8.05676856,2.69868996 8.07350801,2.74745269 8.1062591,2.82969432 C8.13828239,2.8944687 8.15502183,2.94395924 8.15502183,2.94395924 C8.20378457,3.00873362 8.25327511,3.02547307 8.30203785,2.99272198 C8.35080058,2.95997089 8.40029112,2.8944687 8.44905386,2.82969432 C8.49781659,2.76419214 8.53056769,2.73144105 8.54730713,2.73144105 C8.48180495,2.7147016 8.4650655,2.68267831 8.51455604,2.66593886 C8.61208151,2.60043668 8.69432314,2.60043668 8.75909753,2.61717613 C8.79184862,2.63318777 8.80858806,2.64992722 8.84133916,2.69868996 C8.89010189,2.81295488 8.89010189,2.86171761 8.80858806,2.86171761 C8.87409025,2.91120815 8.89010189,2.95997089 8.87409025,3.04148472 C8.87409025,3.1069869 8.82459971,3.13973799 8.74308588,3.13973799 C8.71033479,3.13973799 8.66157205,3.12372635 8.61208151,3.09097525 C8.54730713,3.05822416 8.49781659,3.04148472 8.48180495,3.04148472 C8.44905386,3.04148472 8.40029112,3.05822416 8.35080058,3.09097525 C8.31804949,3.12372635 8.2852984,3.17248908 8.25327511,3.25400291 C8.22052402,3.31950509 8.17103348,3.36826783 8.15502183,3.40101892 C8.05676856,3.4992722 7.90975255,3.53202329 7.69723435,3.4992722 C7.7139738,3.4992722 7.7139738,3.51528384 7.68122271,3.56477438 C7.66448326,3.59752547 7.63245997,3.62954876 7.59970888,3.6790393 C7.56695779,3.72780204 7.5342067,3.74454148 7.5342067,3.76055313 C7.48544396,3.82605531 7.45269287,3.8915575 7.41994178,3.97307132 L7.41994178,4.08733624 C7.40320233,4.15283843 7.40320233,4.21761281 7.38719068,4.2503639 C7.45269287,4.23435226 7.51819505,4.26710335 7.55021834,4.36462882 C7.58296943,4.44687045 7.58296943,4.49563319 7.55021834,4.49563319 C7.76273654,4.4628821 7.92649199,4.47962154 8.08951965,4.52838428 C8.30203785,4.60989811 8.43231441,4.69141194 8.44905386,4.77365357 C8.49781659,4.70815138 8.58005822,4.70815138 8.72634643,4.75691412 C8.77583697,4.78966521 8.82459971,4.88791849 8.87409025,5.0349345 C8.89010189,5.13245997 8.93886463,5.19796215 8.98835517,5.26346434 C9.05312955,5.34497817 9.10262009,5.36171761 9.18413392,5.32896652 L9.20014556,5.31222707 C9.23289665,5.29621543 9.2496361,5.27947598 9.26564774,5.27947598 C9.28238719,5.26346434 9.29839884,5.24745269 9.31513828,5.23071325 C9.33114993,5.23071325 9.34716157,5.2147016 9.34716157,5.19796215 C9.34716157,5.18195051 9.34716157,5.16521106 9.33114993,5.16521106 C9.28238719,5.13245997 9.2496361,5.06768559 9.23289665,5.01819505 C9.21688501,4.95269287 9.21688501,4.88791849 9.2496361,4.83842795 C9.26564774,4.8224163 9.31513828,4.77365357 9.39665211,4.74090247 C9.47816594,4.69141194 9.52692868,4.6426492 9.54366812,4.59388646 C9.55967977,4.51164483 9.54366812,4.44687045 9.44541485,4.39737991 C9.36390102,4.33260553 9.31513828,4.29985444 9.31513828,4.2503639 C9.31513828,4.21761281 9.34716157,4.18558952 9.37991266,4.13609898 C9.4294032,4.10334789 9.44541485,4.05458515 9.4294032,4.02183406 C9.4294032,4.00582242 9.4294032,3.97307132 9.39665211,3.90756914 C9.37991266,3.84206696 9.36390102,3.80931587 9.36390102,3.77656477 C9.36390102,3.76055313 9.37991266,3.72780204 9.41266376,3.6790393 C9.44541485,3.66229985 9.54366812,3.66229985 9.70669578,3.69505095 C9.87045124,3.71179039 9.96797671,3.74454148 10.0174672,3.77656477 C10.0334789,3.79330422 10.06623,3.80931587 10.1317322,3.82605531 C10.1972344,3.8588064 10.2459971,3.87481805 10.2947598,3.90756914 C10.3442504,3.94032023 10.360262,3.95633188 10.3770015,3.98908297 L10.3275109,3.98908297 C10.360262,4.02183406 10.3930131,4.0713246 10.4090247,4.12008734 C10.4090247,4.16885007 10.3930131,4.20160116 10.3275109,4.21761281 C10.3770015,4.21761281 10.4257642,4.21761281 10.4745269,4.2503639 C10.5727802,4.28311499 10.5727802,4.31586608 10.4912664,4.34861718 C10.507278,4.34861718 10.5400291,4.33260553 10.5727802,4.33260553 C10.6055313,4.33260553 10.6215429,4.31586608 10.6382824,4.29985444 C10.654294,4.29985444 10.6710335,4.28311499 10.6870451,4.26710335 C10.7030568,4.2503639 10.7197962,4.2503639 10.7358079,4.2503639 C10.7358079,4.23435226 10.7525473,4.23435226 10.768559,4.23435226 C10.7852984,4.23435226 10.80131,4.23435226 10.8340611,4.2503639 C10.8340611,4.2503639 10.8500728,4.23435226 10.8668122,4.20160116 C10.8828239,4.16885007 10.915575,4.13609898 10.9323144,4.12008734 C10.9650655,4.08733624 10.9810771,4.0713246 10.9970888,4.0713246 C11.0138282,4.0713246 11.0298399,4.0713246 11.0465793,4.08733624 C11.062591,4.10334789 11.0793304,4.12008734 11.0793304,4.13609898 C11.0953421,4.15283843 11.1120815,4.18558952 11.1120815,4.20160116 C11.1280932,4.21761281 11.1280932,4.23435226 11.1448326,4.2503639 C11.1448326,4.28311499 11.1768559,4.31586608 11.2263464,4.34861718 C11.2751092,4.38136827 11.2911208,4.41411936 11.3078603,4.44687045 C11.3238719,4.4628821 11.3238719,4.51164483 11.3406114,4.57714702 C11.356623,4.65866084 11.3893741,4.70815138 11.4221252,4.72416303 C11.4548763,4.75691412 11.4876274,4.77365357 11.5531295,4.78966521 C11.5691412,4.80567686 11.6018923,4.80567686 11.6346434,4.78966521 C11.6834061,4.77365357 11.7161572,4.77365357 11.7489083,4.77365357 C11.7649199,4.78966521 11.7816594,4.80567686 11.7816594,4.85516739 C11.8144105,4.8224163 11.8471616,4.78966521 11.8471616,4.77365357 C11.8471616,4.85516739 11.8631732,4.92066958 11.8959243,4.96943231 C11.9286754,5.01819505 11.9774381,5.0349345 12.058952,5.0349345 L12.0429403,5.23071325 C12.0262009,5.26346434 11.9774381,5.27947598 11.8959243,5.29621543 C11.8304221,5.31222707 11.7816594,5.32896652 11.7649199,5.34497817 C11.7489083,5.34497817 11.7001456,5.3944687 11.6346434,5.45924309 C11.5691412,5.52474527 11.5363901,5.55749636 11.5531295,5.57350801 C11.4388646,5.45924309 11.2911208,5.42649199 11.0793304,5.47598253 C10.8500728,5.50873362 10.6870451,5.54148472 10.6055313,5.57350801 C10.507278,5.62299854 10.4417758,5.67176128 10.4090247,5.72052402 C10.4090247,5.72052402 10.3930131,5.73726346 10.3770015,5.7860262 C10.360262,5.81877729 10.3442504,5.85152838 10.3275109,5.88427948 C10.3114993,5.91703057 10.2947598,5.93304221 10.2947598,5.93304221 C10.3275109,5.91703057 10.360262,5.88427948 10.4090247,5.83551674 C10.4585153,5.7860262 10.4912664,5.75327511 10.4912664,5.75327511 C10.654294,5.65574964 10.7852984,5.6062591 10.8828239,5.63901019 C11.0298399,5.68850073 11.0465793,5.73726346 10.9483261,5.7860262 C10.9483261,5.80276565 10.915575,5.80276565 10.8668122,5.80276565 L10.7525473,5.80276565 C10.80131,5.81877729 10.8500728,5.83551674 10.8828239,5.85152838 C10.9323144,5.88427948 10.9323144,5.91703057 10.915575,5.94978166 C11.0138282,5.9985444 11.0298399,6.06404658 10.9650655,6.12954876 C10.8995633,6.21106259 10.80131,6.24381368 10.6870451,6.22707424 C10.7030568,6.22707424 10.7030568,6.24381368 10.6870451,6.25982533 L10.5400291,6.3580786 C10.5232897,6.37409025 10.4912664,6.39082969 10.4090247,6.40684134 C10.3442504,6.43959243 10.3114993,6.45560408 10.2787482,6.48835517 C10.2620087,6.52110626 10.2459971,6.55385735 10.2459971,6.60334789 L10.2459971,6.71761281 C10.2292576,6.73362445 10.213246,6.73362445 10.1644833,6.73362445 C10.1477438,6.76637555 10.0989811,6.79912664 10.0007278,6.81513828 C9.90320233,6.83187773 9.83770015,6.86462882 9.8209607,6.91339156 C9.85371179,6.96215429 9.85371179,7.01164483 9.80494905,7.06040757 C9.73944687,7.12590975 9.67394469,7.10917031 9.60917031,7.04439592 C9.57641921,7.04439592 9.55967977,7.07641921 9.54366812,7.12590975 C9.52692868,7.17467249 9.51091703,7.20742358 9.47816594,7.22343523 C9.52692868,7.30567686 9.51091703,7.33842795 9.46215429,7.37045124 C9.46215429,7.37045124 9.47816594,7.38719068 9.49417758,7.38719068 C9.52692868,7.40320233 9.54366812,7.41994178 9.57641921,7.43595342 C9.59243086,7.45269287 9.60917031,7.46870451 9.60917031,7.46870451 C9.59243086,7.51746725 9.55967977,7.55021834 9.51091703,7.55021834 C9.54366812,7.64847162 9.51091703,7.74672489 9.37991266,7.86098981 C9.34716157,7.8937409 9.31513828,7.90975255 9.26564774,7.94250364 C9.21688501,7.95924309 9.16739447,7.99126638 9.11863173,8.00800582 C9.08588064,8.02401747 9.05312955,8.02401747 9.05312955,8.04075691 C8.98835517,8.08951965 8.93886463,8.13828239 8.90611354,8.20378457 C8.89010189,8.25327511 8.87409025,8.31804949 8.90611354,8.36754003 C8.92285298,8.43231441 8.97161572,8.4650655 9.069869,8.48180495 L9.069869,8.54730713 L9.069869,8.71033479 L9.08588064,8.79184862 C9.08588064,8.82459971 9.10262009,8.87336245 9.10262009,8.90611354 L9.10262009,9.0371179 C9.10262009,9.08588064 9.08588064,9.11863173 9.05312955,9.11863173 C9.0371179,9.11863173 9.00436681,9.11863173 8.95560408,9.10262009 C8.90611354,9.069869 8.8573508,8.93886463 8.79184862,8.69432314 C8.77583697,8.64483261 8.74308588,8.56331878 8.6775837,8.48180495 C8.64483261,8.51455604 8.61208151,8.53056769 8.59606987,8.54730713 L8.54730713,8.54730713 C8.54730713,8.53056769 8.53056769,8.53056769 8.49781659,8.49781659 C8.48180495,8.48180495 8.44905386,8.4650655 8.43231441,8.44905386 C8.40029112,8.43231441 8.35080058,8.41630277 8.2852984,8.40029112 C8.20378457,8.40029112 8.15502183,8.38355167 8.13828239,8.36754003 C7.99126638,8.4650655 7.90975255,8.44905386 7.87700146,8.2852984 C7.86098981,8.30203785 7.86098981,8.35080058 7.87700146,8.40029112 C7.8937409,8.44905386 7.8937409,8.48180495 7.8937409,8.48180495 C7.86098981,8.56331878 7.79548763,8.57933042 7.69723435,8.51455604 C7.66448326,8.4650655 7.58296943,8.4650655 7.45269287,8.49781659 C7.3216885,8.51455604 7.24017467,8.53056769 7.19141194,8.51455604 C7.19141194,8.51455604 7.20742358,8.51455604 7.22416303,8.53056769 C7.24017467,8.54730713 7.25618632,8.56331878 7.25618632,8.56331878 C7.25618632,8.57933042 7.24017467,8.59606987 7.24017467,8.61208151 C7.22416303,8.62882096 7.20742358,8.62882096 7.19141194,8.62882096 L7.15866084,8.62882096 C7.1419214,8.62882096 7.12590975,8.64483261 7.10917031,8.64483261 C7.09315866,8.66157205 7.06040757,8.69432314 7.02765648,8.74308588 C6.99490539,8.79184862 6.96215429,8.80858806 6.94614265,8.82459971 C6.97889374,8.92285298 6.99490539,9.00436681 6.99490539,9.05312955 C6.99490539,9.10262009 6.97889374,9.18413392 6.96215429,9.28238719 C6.94614265,9.37991266 6.94614265,9.46215429 6.94614265,9.51091703 C6.94614265,9.60917031 6.97889374,9.72343523 7.02765648,9.85371179 C7.09315866,9.98471616 7.15866084,10.06623 7.24017467,10.1149927 C7.27292576,10.1477438 7.35443959,10.1644833 7.45269287,10.1644833 C7.55021834,10.1644833 7.63245997,10.1644833 7.66448326,10.1477438 C7.7139738,10.1317322 7.72998544,10.1149927 7.76273654,10.0822416 C7.77947598,10.06623 7.79548763,10.0174672 7.79548763,9.98471616 C7.81222707,9.93522562 7.82823872,9.90320233 7.82823872,9.88646288 C7.87700146,9.77219796 7.94250364,9.70669578 8.05676856,9.70669578 C8.13828239,9.69068413 8.18777293,9.70669578 8.22052402,9.72343523 C8.25327511,9.73944687 8.26928675,9.77219796 8.26928675,9.80494905 C8.25327511,9.85371179 8.25327511,9.88646288 8.23653566,9.91921397 C8.20378457,9.96797671 8.18777293,10.0007278 8.15502183,10.0502183 C8.13828239,10.0989811 8.12227074,10.1477438 8.1062591,10.1644833 C8.1062591,10.213246 8.08951965,10.2787482 8.07350801,10.3762737 C8.07350801,10.4585153 8.05676856,10.507278 8.05676856,10.5240175 C8.07350801,10.5400291 8.1062591,10.5400291 8.18777293,10.5400291 C8.18777293,10.5240175 8.20378457,10.507278 8.20378457,10.4745269 C8.22052402,10.4585153 8.22052402,10.4417758 8.22052402,10.4257642 C8.25327511,10.4745269 8.30203785,10.507278 8.36754003,10.507278 C8.43231441,10.5240175 8.48180495,10.4912664 8.51455604,10.4417758 C8.53056769,10.4585153 8.56331878,10.507278 8.62882096,10.5727802 C8.6775837,10.654294 8.71033479,10.7030568 8.72634643,10.7525473 C8.72634643,10.7852984 8.74308588,10.8173217 8.75909753,10.8828239 C8.77583697,10.9323144 8.77583697,10.9650655 8.77583697,10.9970888 C8.77583697,11.0138282 8.74308588,11.0298399 8.6775837,11.0298399 C8.66157205,11.0298399 8.64483261,11.0298399 8.64483261,11.0465793 C8.62882096,11.062591 8.62882096,11.0953421 8.64483261,11.1120815 C8.64483261,11.1441048 8.64483261,11.1768559 8.66157205,11.1935953 C8.6775837,11.2263464 8.6775837,11.2423581 8.69432314,11.2751092 C8.71033479,11.3078603 8.72634643,11.3238719 8.72634643,11.3238719 C8.82459971,11.5203785 8.97161572,11.5851528 9.16739447,11.4876274 C9.16739447,11.6673945 9.11863173,11.7649199 9.0371179,11.7816594 C8.98835517,11.797671 8.93886463,11.7649199 8.87409025,11.6834061 C8.80858806,11.6179039 8.79184862,11.5531295 8.80858806,11.503639 C8.80858806,11.5363901 8.79184862,11.5691412 8.74308588,11.5851528 C8.71033479,11.5531295 8.66157205,11.503639 8.58005822,11.4548763 C8.49781659,11.3893741 8.44905386,11.356623 8.41630277,11.3078603 C8.40029112,11.2911208 8.38355167,11.2751092 8.36754003,11.2423581 C8.35080058,11.209607 8.31804949,11.1608443 8.2852984,11.1120815 C8.25327511,11.0465793 8.23653566,10.9970888 8.22052402,10.9650655 C8.20378457,10.9323144 8.20378457,10.8995633 8.20378457,10.8995633 C8.08951965,10.9483261 7.92649199,10.915575 7.7139738,10.80131 C7.66448326,10.768559 7.59970888,10.7030568 7.51819505,10.6055313 C7.43595342,10.507278 7.33842795,10.4585153 7.25618632,10.4745269 C7.22416303,10.4745269 7.17467249,10.4912664 7.12590975,10.4912664 C7.07714702,10.507278 7.02765648,10.5240175 6.99490539,10.5240175 C6.96215429,10.5240175 6.91339156,10.507278 6.84788937,10.4912664 C6.79912664,10.4745269 6.73362445,10.4257642 6.65211063,10.3762737 C6.5705968,10.3275109 6.52110626,10.2947598 6.48835517,10.2787482 C6.47234352,10.2787482 6.42358079,10.2459971 6.37409025,10.213246 C6.30931587,10.1972344 6.25982533,10.1644833 6.22707424,10.1477438 C6.19432314,10.1317322 6.14556041,10.0989811 6.11280932,10.06623 C6.06404658,10.0174672 6.04730713,9.98471616 6.03129549,9.93522562 C6.01455604,9.90320233 5.9985444,9.8209607 5.98253275,9.72343523 C5.9657933,9.60917031 5.94978166,9.52692868 5.91703057,9.47816594 C5.88427948,9.4294032 5.81877729,9.36390102 5.75327511,9.29839884 C5.68850073,9.23289665 5.62299854,9.21688501 5.57350801,9.21688501 C5.62299854,9.21688501 5.62299854,9.16739447 5.57350801,9.08588064 C5.52474527,9.00436681 5.49199418,8.93886463 5.44323144,8.90611354 C5.44323144,8.89010189 5.3944687,8.8573508 5.34497817,8.79184862 C5.28020378,8.72634643 5.23071325,8.66157205 5.18195051,8.61208151 C5.14919942,8.56331878 5.10043668,8.51455604 5.06768559,8.44905386 C5.05094614,8.38355167 5.0349345,8.33478894 5.05094614,8.2852984 C5.06768559,8.2852984 5.05094614,8.26928675 5.0349345,8.25327511 C5.01819505,8.25327511 5.00218341,8.23653566 4.96943231,8.22052402 C4.93668122,8.22052402 4.92066958,8.20378457 4.88791849,8.18777293 C4.87117904,8.18777293 4.85516739,8.17103348 4.83842795,8.17103348 C4.85516739,8.20378457 4.87117904,8.25327511 4.87117904,8.31804949 C4.88791849,8.36754003 4.90393013,8.41630277 4.93668122,8.44905386 C4.93668122,8.48180495 4.98544396,8.56331878 5.08369723,8.71033479 C5.24745269,8.97161572 5.31222707,9.16739447 5.29621543,9.28238719 C5.26346434,9.29839884 5.24745269,9.28238719 5.23071325,9.26564774 C5.2147016,9.23289665 5.2147016,9.20014556 5.19796215,9.16739447 C5.19796215,9.11863173 5.19796215,9.08588064 5.18195051,9.069869 C5.16521106,9.0371179 5.11644833,8.98835517 5.0349345,8.95560408 C4.96943231,8.90611354 4.92066958,8.87336245 4.90393013,8.82459971 L4.92066958,8.82459971 C4.93668122,8.80858806 4.93668122,8.80858806 4.95342067,8.80858806 C4.95342067,8.75909753 4.92066958,8.6775837 4.85516739,8.59606987 C4.77365357,8.51455604 4.75691412,8.44905386 4.75691412,8.41630277 C4.70815138,8.38355167 4.67540029,8.30203785 4.6426492,8.20378457 C4.59388646,8.08951965 4.57714702,8.02401747 4.54439592,7.99126638 C4.52838428,7.95924309 4.49563319,7.92649199 4.44687045,7.8937409 C4.41411936,7.87700146 4.36462882,7.84425036 4.31586608,7.81149927 C4.26710335,7.77947598 4.23435226,7.74672489 4.20160116,7.74672489 C4.20160116,7.72998544 4.16885007,7.7139738 4.13609898,7.66448326 C3.94032023,7.41994178 3.87481805,7.28893741 3.95633188,7.27292576 C3.87481805,7.28893741 3.80931587,7.22343523 3.76055313,7.09315866 C3.71179039,6.94614265 3.69505095,6.84788937 3.71179039,6.78238719 L3.69505095,6.76637555 L3.69505095,6.55385735 C3.69505095,6.43959243 3.71179039,6.32532751 3.72780204,6.22707424 C3.74454148,6.12954876 3.76055313,6.08005822 3.80931587,6.08005822 C3.76055313,6.08005822 3.72780204,6.04730713 3.71179039,5.9657933 C3.69505095,5.88427948 3.69505095,5.83551674 3.71179039,5.80276565 C3.71179039,5.7860262 3.74454148,5.7860262 3.79330422,5.83551674 C3.84206696,5.88427948 3.8588064,5.90029112 3.87481805,5.91703057 C3.95633188,5.86754003 3.97307132,5.81877729 3.95633188,5.75327511 C3.95633188,5.73726346 3.8915575,5.67176128 3.77729258,5.55749636 C3.51528384,5.3944687 3.36826783,5.31222707 3.36826783,5.31222707 C3.40101892,5.24745269 3.40101892,5.19796215 3.33551674,5.14919942 C3.286754,5.18195051 3.25400291,5.18195051 3.23799127,5.16521106 C3.22125182,5.14919942 3.22125182,5.11644833 3.22125182,5.06768559 C3.20524017,5.01819505 3.18850073,5.00218341 3.17248908,4.98544396 C3.13973799,4.98544396 3.1069869,4.95269287 3.05822416,4.92066958 C3.59752547,4.05458515 4.31586608,3.38500728 5.19796215,2.8944687 L5.19796215,2.8944687 Z M9.05312955,13.3988355 C9.10262009,13.3173217 9.13537118,13.2678311 9.13537118,13.2190684 C9.0371179,13.2030568 9.00436681,13.1208151 9.02110626,12.9905386 C9.0371179,12.8922853 9.11863173,12.7780204 9.28238719,12.6149927 C9.39665211,12.5167394 9.44541485,12.3697234 9.39665211,12.1732169 C9.37991266,12.1084425 9.36390102,11.9941776 9.34716157,11.8304221 C9.33114993,11.6834061 9.33114993,11.5691412 9.31513828,11.5203785 C9.31513828,11.5363901 9.34716157,11.5531295 9.39665211,11.5691412 C9.46215429,11.5851528 9.49417758,11.6018923 9.51091703,11.6179039 C9.51091703,11.6018923 9.52692868,11.5691412 9.54366812,11.5203785 C9.57641921,11.4708879 9.59243086,11.4381368 9.60917031,11.4221252 C9.62518195,11.3893741 9.6419214,11.3733624 9.69068413,11.3406114 C9.72343523,11.3238719 9.75618632,11.3078603 9.75618632,11.2911208 C9.77219796,11.2911208 9.80494905,11.2751092 9.83770015,11.2423581 C9.88646288,11.209607 9.91921397,11.1768559 9.95196507,11.1608443 C9.96797671,11.1441048 10.0174672,11.1280932 10.0502183,11.1120815 C10.0989811,11.1120815 10.1317322,11.1280932 10.1477438,11.1608443 C10.1804949,11.1935953 10.1804949,11.2590975 10.1317322,11.3238719 C10.0989811,11.4061135 10.0989811,11.4548763 10.1317322,11.4876274 C10.1477438,11.4708879 10.1477438,11.4221252 10.1477438,11.3733624 C10.1644833,11.3078603 10.1804949,11.2590975 10.213246,11.2263464 C10.2459971,11.1935953 10.2787482,11.1768559 10.3114993,11.1608443 C10.3442504,11.1608443 10.3770015,11.1608443 10.4090247,11.1768559 C10.4257642,11.1935953 10.4585153,11.2263464 10.4912664,11.2423581 C10.5400291,11.2751092 10.5727802,11.2911208 10.6055313,11.2911208 C10.6870451,11.3238719 10.80131,11.3893741 10.9323144,11.503639 C10.915575,11.4876274 10.915575,11.4876274 10.9323144,11.4708879 C10.9323144,11.4708879 10.9483261,11.4548763 10.9650655,11.4548763 C10.9810771,11.4381368 10.9970888,11.4221252 11.0138282,11.4221252 C11.0298399,11.4061135 11.0465793,11.4061135 11.062591,11.3893741 L11.0953421,11.3893741 C11.1280932,11.3893741 11.1608443,11.3893741 11.1768559,11.3733624 C11.1935953,11.3733624 11.2263464,11.3733624 11.2590975,11.3893741 C11.2911208,11.4221252 11.3238719,11.4221252 11.3238719,11.4381368 C11.3406114,11.4548763 11.356623,11.4708879 11.3893741,11.4876274 C11.4221252,11.5203785 11.4388646,11.5363901 11.4548763,11.5363901 C11.4708879,11.5531295 11.503639,11.5691412 11.5531295,11.6018923 C11.6018923,11.6346434 11.650655,11.6673945 11.6673945,11.6834061 C11.7001456,11.7001456 11.7161572,11.7321689 11.7489083,11.7649199 C11.7649199,11.797671 11.7649199,11.8304221 11.7649199,11.8791849 C11.797671,11.8791849 11.8791849,11.911936 11.9774381,11.944687 C12.0101892,11.9614265 12.0429403,11.9774381 12.0917031,11.9774381 C12.1572052,11.9941776 12.1899563,12.0101892 12.205968,12.0262009 C11.3238719,12.9577875 10.2620087,13.5291121 9.02110626,13.7416303 C9.00436681,13.6928675 8.98835517,13.6441048 8.98835517,13.5946143 C8.98835517,13.5618632 9.00436681,13.4970888 9.05312955,13.3988355 L9.05312955,13.3988355 Z" id="Icon-website" fill="#000000"></path>
            </g>
        </g>
    </g>
</svg>