<?xml version="1.0" encoding="UTF-8" standalone="no"?>
<svg width="24px" height="24px" viewBox="0 0 24 24" version="1.1" xmlns="http://www.w3.org/2000/svg" xmlns:xlink="http://www.w3.org/1999/xlink">
    <!-- Generator: sketchtool 3.8.2 (29753) - http://www.bohemiancoding.com/sketch -->
    <title>D8E95CDF-64B2-4D53-A59C-72ACE96FF5AE</title>
    <desc>Created with sketchtool.</desc>
    <defs></defs>
    <g id="Icons" stroke="none" stroke-width="1" fill="none" fill-rule="evenodd">
        <g id="Style-guide---Desktop---Icons-2" transform="translate(-90.000000, -1400.000000)">
            <g id="kb-iconfont-proof-pending" transform="translate(90.000000, 1400.000000)">
                <rect id="icon-area" fill="#D8D8D8" opacity="0" x="0" y="0" width="24" height="24"></rect>
                <g id="Group-4" transform="translate(3.000000, 3.000000)" fill="#000000">
                    <path d="M4.49532127,16.8022458 C5.86057392,17.6004367 7.37273862,18 9.01122895,18 C10.6281971,18 12.1403618,17.6004367 13.5262009,16.8022458 C14.8914535,15.9834685 15.9834685,14.8914535 16.8031815,13.5262009 C17.6013724,12.1394261 18,10.6272614 18,9.0102932 C18,7.37180287 17.6013724,5.85963818 16.8031815,4.49438553 C15.9834685,3.10854648 14.8914535,2.01559576 13.5262009,1.21740487 C12.1403618,0.398627573 10.6281971,0 9.01122895,0 C7.37273862,0 5.86057392,0.398627573 4.49532127,1.21740487 C3.10854648,2.01559576 2.0165315,3.10854648 1.21834061,4.49438553 C0.399563319,5.85963818 0,7.37180287 0,9.0102932 C0,10.6272614 0.399563319,12.1394261 1.21834061,13.5262009 C2.0165315,14.8914535 3.10854648,15.9834685 4.49532127,16.8022458 L4.49532127,16.8022458 Z M5.38430575,2.77647994 C6.49867731,2.13637646 7.70811374,1.80364941 9.01261505,1.80364941 C10.3160601,1.80364941 11.5012022,2.13637646 12.6155737,2.77647994 C13.7067072,3.41658341 14.5834166,4.29329279 15.2235201,5.38442628 C15.8636235,6.49879784 16.1963506,7.707178 16.1963506,9.01167931 C16.1963506,10.3151243 15.8636235,11.5013227 15.2235201,12.6156943 C14.5834166,13.7057715 13.7067072,14.5835371 12.6155737,15.2236406 C11.5012022,15.8637441 10.3160601,16.1954148 9.01261505,16.1954148 C7.70811374,16.1954148 6.49867731,15.8637441 5.38430575,15.2236406 C4.29422854,14.5835371 3.41646288,13.7057715 2.77635941,12.6156943 C2.13625593,11.5013227 1.80458515,10.3151243 1.80458515,9.01167931 C1.80458515,7.707178 2.13625593,6.49879784 2.77635941,5.38442628 C3.41646288,4.29329279 4.29422854,3.41658341 5.38430575,2.77647994 L5.38430575,2.77647994 Z" id="Fill-66"></path>
                    <path d="M9,4 L10,4 L10,9 L9,9 L9,4 Z M5,9 L10,9 L10,10 L5,10 L5,9 Z" id="Rectangle-36"></path>
                </g>
            </g>
        </g>
    </g>
</svg>