<?xml version="1.0" encoding="UTF-8" standalone="no"?>
<svg width="24px" height="24px" viewBox="0 0 24 24" version="1.1" xmlns="http://www.w3.org/2000/svg" xmlns:xlink="http://www.w3.org/1999/xlink">
    <!-- Generator: sketchtool 3.8.2 (29753) - http://www.bohemiancoding.com/sketch -->
    <title>4040A36A-C861-45F7-A5A9-E7033B0FD039</title>
    <desc>Created with sketchtool.</desc>
    <defs></defs>
    <g id="Icons" stroke="none" stroke-width="1" fill="none" fill-rule="evenodd">
        <g id="Style-guide---Desktop---Icons-2" transform="translate(-161.000000, -1326.000000)">
            <g id="kb-iconfont-nav-people" transform="translate(161.000000, 1326.000000)">
                <rect id="icon-area" fill="#D8D8D8" opacity="0" x="0" y="0" width="24" height="24"></rect>
                <path d="M5.11608732,10.7892326 C5.05977818,10.7699071 4.70663945,10.6035402 4.9270495,9.90194235 L4.92463625,9.90194235 C5.50059828,9.28184748 5.94061397,8.28448623 5.94061397,7.30224923 C5.94061397,5.7915032 4.97933656,5 3.86200239,5 C2.74386381,5 1.78821731,5.7915032 1.78821731,7.30224923 C1.78821731,8.28784717 2.22581975,9.28940961 2.80580386,9.90782401 C3.03184483,10.5270786 2.62722346,10.7573036 2.54275975,10.7892326 C1.37313853,11.2311972 0,12.0369844 0,12.8326888 L0,13.1309729 C0,14.2140384 2.01184503,14.461068 3.87326422,14.461068 C5.73709666,14.461068 7.72320037,14.2140384 7.72320037,13.1309729 L7.72320037,12.8326888 C7.72320037,12.0134578 6.34362651,11.2135522 5.11608732,10.7892326 Z M21.3928869,10.7892326 C21.3365778,10.7699071 20.9834391,10.6035402 21.2038491,9.90194235 L21.2006315,9.90194235 C21.7773979,9.28184748 22.2174136,8.28448623 22.2174136,7.30224923 C22.2174136,5.7915032 21.2561362,5 20.138802,5 C19.0206634,5 18.0650169,5.7915032 18.0650169,7.30224923 C18.0650169,8.28784717 18.5026194,9.28940961 19.0826035,9.90782401 C19.3086445,10.5270786 18.9040231,10.7573036 18.8195594,10.7892326 C17.6499382,11.2311972 16.2767996,12.0369844 16.2767996,12.8326888 L16.2767996,13.1309729 C16.2767996,14.2140384 18.2886447,14.461068 20.1500639,14.461068 C22.0138963,14.461068 24,14.2140384 24,13.1309729 L24,12.8326888 C24,12.0134578 22.6204261,11.2135522 21.3928869,10.7892326 Z M13.9830067,13.939617 C13.8969342,13.9102087 13.3499311,13.6530962 13.691808,12.5691905 L13.6869815,12.5691905 C14.5766659,11.6113204 15.2563976,10.0711661 15.2563976,8.55453838 C15.2563976,6.22288085 13.7722497,5.00033609 12.0467768,5.00033609 C10.3204995,5.00033609 8.84359132,6.22204062 8.84359132,8.55453838 C8.84359132,10.0770477 9.52010538,11.6239239 10.4154207,12.5792734 C10.7645373,13.535463 10.1403103,13.890043 10.0099949,13.939617 C8.20327599,14.6227296 6.08283476,15.8671205 6.08283476,17.0947067 L6.08283476,17.5551566 C6.08283476,19.2289086 9.18868589,19.6086957 12.0636695,19.6086957 C14.9426753,19.6086957 18.00911,19.2289086 18.00911,17.5551566 L18.00911,17.0947067 C18.00911,15.8301501 15.8790158,14.595842 13.9830067,13.939617 Z" id="Fill-8" fill="#000000"></path>
            </g>
        </g>
    </g>
</svg>