<?xml version="1.0" encoding="UTF-8" standalone="no"?>
<svg width="32px" height="32px" viewBox="0 0 32 32" version="1.1" xmlns="http://www.w3.org/2000/svg" xmlns:xlink="http://www.w3.org/1999/xlink">
    <!-- Generator: sketchtool 3.8.1 (29687) - http://www.bohemiancoding.com/sketch -->
    <title>8AF07935-7D92-4866-8B94-FDF3D857A8D1</title>
    <desc>Created with sketchtool.</desc>
    <defs>
        <rect id="path-1" x="0" y="0" width="32" height="32"></rect>
        <mask id="mask-2" maskContentUnits="userSpaceOnUse" maskUnits="objectBoundingBox" x="0" y="0" width="32" height="32" fill="white">
            <use xlink:href="#path-1"></use>
        </mask>
    </defs>
    <g id="Icons" stroke="none" stroke-width="1" fill="none" fill-rule="evenodd">
        <g id="Artboard-5" transform="translate(-205.000000, -198.000000)">
            <g id="kb-iconfont-hamburger-pixelperfect" transform="translate(205.000000, 198.000000)">
                <use id="Rectangle-680" stroke="#979797" mask="url(#mask-2)" stroke-width="2" fill="#D8D8D8" opacity="0" xlink:href="#path-1"></use>
                <path d="M2.37037037,20.9989566 C2.37037037,20.4472481 2.8178598,20 3.3688727,20 L14.371868,20 C14.9233257,20 15.3703704,20.4426603 15.3703704,20.9989566 L15.3703704,22.0010434 C15.3703704,22.5527519 14.9228809,23 14.371868,23 L3.3688727,23 C2.81741509,23 2.37037037,22.5573397 2.37037037,22.0010434 L2.37037037,20.9989566 Z M2.37037037,14.9989566 C2.37037037,14.4472481 2.81146693,14 3.36987143,14 L11.0511639,14 C11.603173,14 12.0506649,14.4426603 12.0506649,14.9989566 L12.0506649,16.0010434 C12.0506649,16.5527519 11.6095684,17 11.0511639,17 L3.36987143,17 C2.81786224,17 2.37037037,16.5573397 2.37037037,16.0010434 L2.37037037,14.9989566 Z M2.37037037,8.99895656 C2.37037037,8.44724809 2.8250793,8 3.37033057,8 L18.3704102,8 C18.9226729,8 19.3703704,8.44266033 19.3703704,8.99895656 L19.3703704,10.0010434 C19.3703704,10.5527519 18.9156614,11 18.3704102,11 L3.37033057,11 C2.8180678,11 2.37037037,10.5573397 2.37037037,10.0010434 L2.37037037,8.99895656 Z M23,13 L29,13 L26,17 L23,13 Z" id="icon-menu-copy" fill="#000000"></path>
            </g>
        </g>
    </g>
</svg>