<?xml version="1.0" encoding="UTF-8" standalone="no"?>
<svg width="24px" height="24px" viewBox="0 0 24 24" version="1.1" xmlns="http://www.w3.org/2000/svg" xmlns:xlink="http://www.w3.org/1999/xlink">
    <!-- Generator: sketchtool 3.8.2 (29753) - http://www.bohemiancoding.com/sketch -->
    <title>DCE4B620-3EB1-40A2-A9F7-F5D402F337EE</title>
    <desc>Created with sketchtool.</desc>
    <defs></defs>
    <g id="Icons" stroke="none" stroke-width="1" fill="none" fill-rule="evenodd">
        <g id="Style-guide---Desktop---Icons-2" transform="translate(-161.000000, -1436.000000)">
            <g id="kb-iconfont-nav-settings" transform="translate(161.000000, 1436.000000)">
                <rect id="icon-area" fill="#D8D8D8" opacity="0" x="0" y="0" width="24" height="24"></rect>
                <path d="M12,15.5 C10.0555556,15.5 8.5,13.9444444 8.5,12 C8.5,10.0555556 10.0555556,8.5 12,8.5 C13.9444444,8.5 15.5,10.0555556 15.5,12 C15.5,13.9444444 13.9444444,15.5 12,15.5 M18.72,12 C18.72,11.5787692 18.67488,11.168 18.59488,10.7692308 L20,9.32307692 L18.4,6.67692308 L16.4096,7.13169231 C15.76608,6.59230769 15.016,6.17046154 14.19168,5.89692308 L13.6,4 L10.4,4 L9.80832,5.89692308 C8.984,6.17046154 8.23392,6.59230769 7.5904,7.13169231 L5.6,6.67692308 L4,9.32307692 L5.40512,10.7692308 C5.32512,11.168 5.28,11.5787692 5.28,12 C5.28,12.4212308 5.32512,12.832 5.40512,13.2307692 L4,14.6769231 L5.6,17.3230769 L7.5904,16.8683077 C8.23392,17.4076923 8.984,17.8295385 9.80832,18.1030769 L10.4,20 L13.6,20 L14.19168,18.1030769 C15.016,17.8295385 15.76608,17.4076923 16.4096,16.8683077 L18.4,17.3230769 L20,14.6769231 L18.59488,13.2307692 C18.67488,12.832 18.72,12.4212308 18.72,12" id="Page-1" fill="#000000"></path>
            </g>
        </g>
    </g>
</svg>