<?xml version="1.0" encoding="UTF-8" standalone="no"?>
<svg width="24px" height="24px" viewBox="0 0 24 24" version="1.1" xmlns="http://www.w3.org/2000/svg" xmlns:xlink="http://www.w3.org/1999/xlink">
    <!-- Generator: sketchtool 3.8.3 (29802) - http://www.bohemiancoding.com/sketch -->
    <title>C6165B78-1BE5-428C-A386-05A05854DEF6</title>
    <desc>Created with sketchtool.</desc>
    <defs></defs>
    <g id="Icons" stroke="none" stroke-width="1" fill="none" fill-rule="evenodd">
        <g id="Style-guide---Desktop---Icons-2" transform="translate(-232.000000, -1391.000000)">
            <g id="kb-iconfont-chat" transform="translate(232.000000, 1391.000000)">
                <rect id="icon-area" fill="#D8D8D8" opacity="0" x="0" y="0" width="24" height="24"></rect>
                <g>
                    <rect id="icon-area" fill="#D8D8D8" opacity="0" x="0" y="0" width="24" height="24"></rect>
                    <path d="M21.6687166,20.405186 L20.1376545,16.1935293 C20.6145305,15.058441 20.877891,13.8095445 20.877891,12.4992513 C20.878635,7.25283733 16.6529632,3 11.4393175,3 C6.22641572,3 2,7.25283733 2,12.5 C2,17.7471627 6.22567176,22 11.4393175,22 C13.6756501,22 15.7274816,21.2130753 17.3448426,19.9057771 L20.7953119,21.2654871 C21.5571231,21.5664801 21.950676,21.1786334 21.6687166,20.405186 Z M6.81976645,13.9065017 C6.09125537,13.9065017 5.5,13.3114453 5.5,12.5782508 C5.5,11.8450564 6.09125537,11.25 6.81976645,11.25 C7.54827753,11.25 8.1395329,11.8450564 8.1395329,12.5782508 C8.1395329,13.3114453 7.54827753,13.9065017 6.81976645,13.9065017 Z M11.2472692,13.9065017 C10.5187581,13.9065017 9.92750277,13.3114453 9.92750277,12.5782508 C9.92750277,11.8450564 10.5187581,11.25 11.2472692,11.25 C11.9757803,11.25 12.5670357,11.8450564 12.5670357,12.5782508 C12.5670357,13.3114453 11.9757803,13.9065017 11.2472692,13.9065017 Z M15.6802335,13.9065017 C14.9517225,13.9065017 14.3604671,13.3114453 14.3604671,12.5782508 C14.3604671,11.8450564 14.9517225,11.25 15.6802335,11.25 C16.4087446,11.25 17,11.8450564 17,12.5782508 C17,13.3114453 16.4087446,13.9065017 15.6802335,13.9065017 Z" id="Combined-Shape" fill="#000000"></path>
                </g>
            </g>
        </g>
    </g>
</svg>