<?xml version="1.0" encoding="UTF-8" standalone="no"?>
<svg width="16px" height="16px" viewBox="0 0 16 16" version="1.1" xmlns="http://www.w3.org/2000/svg" xmlns:xlink="http://www.w3.org/1999/xlink">
    <!-- Generator: sketchtool 3.8.2 (29753) - http://www.bohemiancoding.com/sketch -->
    <title>D949EF2D-AF9B-4800-86FA-CD1999679E66</title>
    <desc>Created with sketchtool.</desc>
    <defs></defs>
    <g id="Icons" stroke="none" stroke-width="1" fill="none" fill-rule="evenodd">
        <g id="Style-guide---Desktop---Icons-2" transform="translate(-381.000000, -1414.000000)">
            <g id="kb-iconfont-remove" transform="translate(381.000000, 1414.000000)">
                <rect id="icon-area" fill="#D8D8D8" opacity="0" x="0" y="0" width="16" height="16"></rect>
                <path d="M9.28022116,8 L11.1602321,9.88001098 C11.3665155,10.0862943 11.3639857,10.3970095 11.1707821,10.5902131 L10.5902131,11.1707821 C10.3973673,11.3636279 10.0790412,11.3592623 9.88001098,11.1602321 L8,9.28022116 L6.11998902,11.1602321 C5.91370568,11.3665155 5.60299051,11.3639857 5.40978691,11.1707821 L4.82921787,10.5902131 C4.63637206,10.3973673 4.64073767,10.0790412 4.83976786,9.88001098 L6.71977884,8 L4.83976786,6.11998902 C4.63348452,5.91370568 4.63601427,5.60299051 4.82921787,5.40978691 L5.40978691,4.82921787 C5.60263273,4.63637206 5.92095883,4.64073767 6.11998902,4.83976786 L8,6.71977884 L9.88001098,4.83976786 C10.0862943,4.63348452 10.3970095,4.63601427 10.5902131,4.82921787 L11.1707821,5.40978691 C11.3636279,5.60263273 11.3592623,5.92095883 11.1602321,6.11998902 L9.28022116,8 Z M0,8 C0,3.581722 3.59071231,0 8,0 C12.418278,0 16,3.59071231 16,8 C16,12.418278 12.4092877,16 8,16 C3.581722,16 0,12.4092877 0,8 Z" id="Combined-Shape" fill="#000000"></path>
            </g>
        </g>
    </g>
</svg>