<?xml version="1.0" encoding="UTF-8" standalone="no"?>
<svg width="16px" height="16px" viewBox="0 0 16 16" version="1.1" xmlns="http://www.w3.org/2000/svg" xmlns:xlink="http://www.w3.org/1999/xlink">
    <!-- Generator: sketchtool 3.8.2 (29753) - http://www.bohemiancoding.com/sketch -->
    <title>CBC809B1-19AC-4BBF-989F-68C99CD28FEF</title>
    <desc>Created with sketchtool.</desc>
    <defs></defs>
    <g id="Icons" stroke="none" stroke-width="1" fill="none" fill-rule="evenodd">
        <g id="Style-guide---Desktop---Icons-2" transform="translate(-340.000000, -1444.000000)">
            <g id="kb-iconfont-identity-hn" transform="translate(340.000000, 1444.000000)">
                <rect id="icon-area" fill="#D8D8D8" opacity="0" x="0" y="0" width="16" height="16"></rect>
                <path d="M1.86409134,14.1453905 C2.4362157,14.6860331 3.25637363,15 3.63027656,15 L12.3697234,15 C13.1048035,15 13.7256186,14.7551785 14.2321689,14.282537 C14.7387191,13.8092155 15,13.7008581 15,12.542264 L15,3.44209431 C15,2.7708754 14.7387191,2.1907845 14.2321689,1.71746296 C13.7256186,1.24414142 13.1048035,1 12.3697234,1 L3.63027656,1 C2.89519651,1 2.29039301,1.24414142 1.76783115,1.71746296 C1.26128093,2.1907845 1,2.7708754 1,3.44209431 L1,12.5422643 C1,12.8797489 1.31143926,13.6231487 1.86409134,14.1453905 Z M6.10242354,4.56796902 C6.33835267,4.9515245 6.50741016,5.23196661 6.62537472,5.42308758 C6.72605786,5.61486532 6.87783392,5.88020165 7.04689141,6.19019855 C7.23247897,6.49953867 7.4007851,6.77932401 7.55256116,7.04466034 C7.68780716,7.32510245 7.83958322,7.59043877 7.95754778,7.84066932 L7.99135928,7.84066932 C8.15966541,7.5313292 8.34525297,7.1773285 8.54812197,6.79442979 C8.76676966,6.41087431 8.95235722,6.0864284 9.12141472,5.82109207 C9.27319078,5.55575574 9.49258984,5.20241182 9.76233046,4.75974676 C10.0147897,4.33218748 10.2176586,3.99329256 10.3521533,4.01522569 L11.7692308,4.01522569 L9.02678233,8.6222293 L9.02678233,12 L6.99682601,12 L6.99682601,8.6222293 L4.23076923,4.01522569 L5.64709535,4.01522569 C5.73124842,3.93418298 5.88302448,4.1850703 6.10242354,4.56796902 Z" id="Icon-hackernews" fill="#000000"></path>
            </g>
        </g>
    </g>
</svg>