<?xml version="1.0" encoding="UTF-8" standalone="no"?>
<svg width="16px" height="11px" viewBox="0 0 16 11" version="1.1" xmlns="http://www.w3.org/2000/svg" xmlns:xlink="http://www.w3.org/1999/xlink" xmlns:sketch="http://www.bohemiancoding.com/sketch/ns">
    <!-- Generator: Sketch 3.4.4 (17249) - http://www.bohemiancoding.com/sketch -->
    <title>See more </title>
    <desc>Created with Sketch.</desc>
    <defs></defs>
    <g id="Page-1" stroke="none" stroke-width="1" fill="none" fill-rule="evenodd" sketch:type="MSPage">
        <g id="See-more-" sketch:type="MSArtboardGroup" fill="#9E9E9E">
            <g id="see-more" sketch:type="MSLayerGroup" transform="translate(2.000000, 4.000000)">
                <path d="M0.922375791,1.578125 C0.922375791,1.17708133 1.01872899,0.87044377 1.21143829,0.658203125 C1.40414759,0.44596248 1.68148856,0.33984375 2.04346954,0.33984375 C2.40024216,0.33984375 2.67628106,0.446613516 2.87159454,0.66015625 C3.06690802,0.873698984 3.16456329,1.17968551 3.16456329,1.578125 C3.16456329,1.97396031 3.06625698,2.27994684 2.86964142,2.49609375 C2.67302585,2.71224066 2.39763798,2.8203125 2.04346954,2.8203125 C1.68409274,2.8203125 1.4074028,2.71224066 1.21339142,2.49609375 C1.01938003,2.27994684 0.922375791,1.97396031 0.922375791,1.578125 L0.922375791,1.578125 Z M4.93018829,1.578125 C4.93018829,1.17708133 5.02654149,0.87044377 5.21925079,0.658203125 C5.41196009,0.44596248 5.68930106,0.33984375 6.05128204,0.33984375 C6.40805466,0.33984375 6.68409356,0.446613516 6.87940704,0.66015625 C7.07472052,0.873698984 7.17237579,1.17968551 7.17237579,1.578125 C7.17237579,1.97396031 7.07406948,2.27994684 6.87745392,2.49609375 C6.68083835,2.71224066 6.40545048,2.8203125 6.05128204,2.8203125 C5.69190524,2.8203125 5.4152153,2.71224066 5.22120392,2.49609375 C5.02719253,2.27994684 4.93018829,1.97396031 4.93018829,1.578125 L4.93018829,1.578125 Z M8.93800079,1.578125 C8.93800079,1.17708133 9.03435399,0.87044377 9.22706329,0.658203125 C9.41977259,0.44596248 9.69711356,0.33984375 10.0590945,0.33984375 C10.4158672,0.33984375 10.6919061,0.446613516 10.8872195,0.66015625 C11.082533,0.873698984 11.1801883,1.17968551 11.1801883,1.578125 C11.1801883,1.97396031 11.081882,2.27994684 10.8852664,2.49609375 C10.6886508,2.71224066 10.413263,2.8203125 10.0590945,2.8203125 C9.69971774,2.8203125 9.4230278,2.71224066 9.22901642,2.49609375 C9.03500503,2.27994684 8.93800079,1.97396031 8.93800079,1.578125 L8.93800079,1.578125 Z" id="•••" sketch:type="MSShapeGroup"></path>
            </g>
        </g>
    </g>
</svg>