<?xml version="1.0" encoding="UTF-8" standalone="no"?>
<svg width="20px" height="22px" viewBox="0 0 20 22" version="1.1" xmlns="http://www.w3.org/2000/svg" xmlns:xlink="http://www.w3.org/1999/xlink" xmlns:sketch="http://www.bohemiancoding.com/sketch/ns">
    <!-- Generator: Sketch 3.4.4 (17249) - http://www.bohemiancoding.com/sketch -->
    <title>folder-public-full</title>
    <desc>Created with Sketch.</desc>
    <defs></defs>
    <g id="Page-1" stroke="none" stroke-width="1" fill="none" fill-rule="evenodd" sketch:type="MSPage">
        <g id="Public-full" sketch:type="MSArtboardGroup">
            <g id="fa-folder-private-full" sketch:type="MSLayerGroup" transform="translate(-0.564103, 0.000000)">
                <path d="M18.3940485,11.0490445 L20.3736785,5.63780575 L6.03734233,0.446428571 L4.89410249,3.57142857 L7.60251001,3.57142857 C8.18943309,3.57142857 8.69020232,3.78241642 9.12251001,4.17321523 C9.53635617,4.579965 9.76097155,5.05196875 9.76097155,5.60517744 L9.76097155,5.89809529 L16.2355869,5.89809529 C16.82251,5.89809529 17.3232792,6.09385721 17.7548177,6.50060698 C18.1694331,6.90735676 18.3940485,7.37936051 18.3940485,7.9325692 L18.3940485,11.0490445 L18.3940485,11.0490445 Z" id="Rectangle-33" fill="#999999" sketch:type="MSShapeGroup"></path>
                <path d="M8.73319058,18 L2.71641409,18 C2.13095466,18 1.61455336,17.8017798 1.20097193,17.3876545 C0.770509623,16.9912141 0.564102564,16.4945584 0.564102564,15.9323206 L0.564102564,7.06694252 C0.564102564,6.50470468 0.770509623,6.02499717 1.20097193,5.61160866 C1.61455336,5.21443147 2.13095466,5 2.71641409,5 L5.79947567,5 C6.3849351,5 6.88445553,5.21443147 7.31568515,5.61160866 C7.72849926,6.02499717 7.95255451,6.50470468 7.95255451,7.06694252 L7.95255451,7.3646412 L14.4110237,7.3646412 C14.9964832,7.3646412 15.4960036,7.56359823 15.9264659,7.97698674 C16.3400473,8.39037524 16.5641026,8.87008276 16.5641026,9.4323206 L16.5641026,10.6745514 C16.0303873,10.5246703 15.4680552,10.444579 14.887269,10.444579 C11.42644,10.444579 8.62088369,13.2884702 8.62088369,16.7965878 C8.62088369,17.2080342 8.65947568,17.6103437 8.73319058,18 L8.73319058,18 Z" id="Fill-240" fill="#90D05C" sketch:type="MSShapeGroup"></path>
                <path d="M12.3010021,20.9011229 C12.9939217,21.3002183 13.750004,21.5 14.5692492,21.5 C15.3777333,21.5 16.1338156,21.3002183 16.827203,20.9011229 C17.5098293,20.5020274 18.0558368,19.95602 18.4652255,19.2631004 C18.8643209,18.569713 19.0641026,17.8243918 19.0641026,17.0051466 C19.0641026,16.1859014 18.8643209,15.4298191 18.4652255,14.7471928 C18.0558368,14.0542732 17.5098293,13.5077979 16.827203,13.1087024 C16.1338156,12.6993138 15.3777333,12.5 14.5692492,12.5 C13.750004,12.5 12.9939217,12.6993138 12.3010021,13.1087024 C11.6183758,13.5077979 11.0723683,14.0542732 10.6625118,14.7471928 C10.2634164,15.4298191 10.0641026,16.1859014 10.0641026,17.0051466 C10.0641026,17.8243918 10.2634164,18.569713 10.6625118,19.2631004 C11.0723683,19.95602 11.6183758,20.5020274 12.3010021,20.9011229 L12.3010021,20.9011229 Z M12.7627925,13.7178727 C12.7838468,13.7075795 12.8362485,13.7075795 12.8994114,13.7075795 C12.9307588,13.7178727 12.9518131,13.7286338 12.9836285,13.738927 C13.0149759,13.7599813 13.0360302,13.7810356 13.0673777,13.8020898 C13.0987251,13.8334373 13.1197794,13.8544916 13.1305405,13.8652527 C13.1408337,13.8441984 13.1305405,13.8020898 13.1094862,13.7599813 C13.1094862,13.7286338 13.1515948,13.7075795 13.235344,13.6865253 C13.3195611,13.6762321 13.382256,13.6762321 13.4140714,13.6968185 C13.382256,13.6551778 13.3509086,13.6130692 13.2877457,13.5499064 L13.2671593,13.5709607 C13.235344,13.5499064 13.1515948,13.5606675 13.0149759,13.6130692 C13.0149759,13.6233624 12.9939217,13.6341235 12.9625742,13.6444167 C12.9307588,13.665471 12.8994114,13.6762321 12.8783571,13.6865253 C12.8573028,13.6968185 12.8362485,13.6968185 12.8156621,13.6968185 C13.0042149,13.592015 13.1829422,13.5077979 13.3616696,13.4553961 C13.3719628,13.4553961 13.3930171,13.4764504 13.4243646,13.4975047 C13.4454188,13.5288522 13.4664731,13.5499064 13.4875274,13.5606675 C13.4772342,13.5499064 13.4664731,13.5499064 13.4664731,13.5709607 C13.4454188,13.6130692 13.4454188,13.6551778 13.4664731,13.6865253 C13.4875274,13.7178727 13.5085817,13.7286338 13.5399291,13.7286338 C13.5717445,13.738927 13.6133852,13.738927 13.6662548,13.7286338 C13.7078955,13.7178727 13.7397108,13.7178727 13.7607651,13.7178727 L13.8131668,13.7178727 C13.9390246,13.7286338 13.9914263,13.7178727 13.9600789,13.6865253 C13.9708399,13.6968185 13.9914263,13.738927 14.0021874,13.7810356 C14.0124806,13.8334373 14.0335349,13.8652527 14.0545892,13.8858391 C14.0756434,13.8652527 14.0756434,13.8441984 14.0653502,13.8020898 C14.0545892,13.7599813 14.0545892,13.738927 14.0653502,13.7178727 C14.0756434,13.7178727 14.0859366,13.7075795 14.0966977,13.6968185 C14.117752,13.6865253 14.1388062,13.6865253 14.1701537,13.6762321 C14.191208,13.665471 14.2122623,13.6551778 14.2225555,13.6551778 C14.2436097,13.6341235 14.2225555,13.6130692 14.1701537,13.5709607 C14.1593926,13.5606675 14.1490994,13.5606675 14.117752,13.5499064 C14.0966977,13.5396132 14.0756434,13.5396132 14.0545892,13.5288522 C14.0335349,13.518559 14.0124806,13.5077979 13.9914263,13.4975047 C13.9708399,13.4872115 13.9600789,13.4661572 13.9600789,13.4451029 C13.9708399,13.4343419 13.9811331,13.4132876 13.9914263,13.3819401 C14.0232417,13.3608858 14.0545892,13.3505926 14.1069909,13.3608858 C14.1593926,13.3608858 14.2015012,13.3716469 14.2333165,13.3927012 C14.33812,13.4451029 14.3484132,13.4975047 14.2749572,13.5499064 C14.3170658,13.5499064 14.3591743,13.5606675 14.4223371,13.592015 C14.4747389,13.6233624 14.4957931,13.6444167 14.4850321,13.6762321 C14.5168474,13.6233624 14.5481949,13.592015 14.5795424,13.592015 C14.6005966,13.592015 14.6113577,13.6233624 14.632412,13.6762321 C14.6529984,13.7178727 14.6637595,13.7496881 14.6637595,13.7496881 C14.6951069,13.7913288 14.7269223,13.8020898 14.7582698,13.7810356 C14.7896172,13.7599813 14.8214326,13.7178727 14.85278,13.6762321 C14.8841275,13.6341235 14.9051818,13.6130692 14.9159429,13.6130692 C14.8738343,13.6023082 14.8630732,13.5817218 14.8948886,13.5709607 C14.9575835,13.5288522 15.0104532,13.5288522 15.0520938,13.5396132 C15.0731481,13.5499064 15.0839092,13.5606675 15.1049634,13.592015 C15.1363109,13.665471 15.1363109,13.6968185 15.0839092,13.6968185 C15.1260177,13.7286338 15.1363109,13.7599813 15.1260177,13.812383 C15.1260177,13.8544916 15.0942024,13.8755459 15.0418006,13.8755459 C15.0207464,13.8755459 14.9893989,13.8652527 14.9575835,13.8441984 C14.9159429,13.8231441 14.8841275,13.812383 14.8738343,13.812383 C14.85278,13.812383 14.8214326,13.8231441 14.7896172,13.8441984 C14.768563,13.8652527 14.7475087,13.8966001 14.7269223,13.9490019 C14.705868,13.9911104 14.6740527,14.0224579 14.6637595,14.0435122 C14.6005966,14.106675 14.5060863,14.1277293 14.3694675,14.106675 C14.3802286,14.106675 14.3802286,14.1169682 14.3591743,14.1487835 C14.3484132,14.1698378 14.3278268,14.1904242 14.3067726,14.2222396 C14.2857183,14.253587 14.264664,14.2643481 14.264664,14.2746413 C14.2333165,14.3167498 14.2122623,14.3588584 14.191208,14.4112601 L14.191208,14.4847162 C14.1804469,14.5268247 14.1804469,14.5684654 14.1701537,14.5895197 C14.2122623,14.5792265 14.2543708,14.6002807 14.2749572,14.6629757 C14.2960115,14.7158453 14.2960115,14.7471928 14.2749572,14.7471928 C14.4115761,14.7261385 14.5168474,14.7368996 14.6216509,14.768247 C14.7582698,14.8206488 14.842019,14.8730505 14.85278,14.9259201 C14.8841275,14.8838116 14.9369971,14.8838116 15.0310396,14.9151591 C15.0628549,14.9362133 15.0942024,14.9993762 15.1260177,15.0938865 C15.1363109,15.1565814 15.1676584,15.19869 15.1994737,15.2407985 C15.2411144,15.2932002 15.2729298,15.3039613 15.3253315,15.282907 L15.3356247,15.272146 C15.356679,15.2618528 15.3674401,15.2510917 15.3777333,15.2510917 C15.3884943,15.2407985 15.3987875,15.2305053 15.4095486,15.2197442 C15.4198418,15.2197442 15.430135,15.209451 15.430135,15.19869 C15.430135,15.1883968 15.430135,15.1776357 15.4198418,15.1776357 C15.3884943,15.1565814 15.3674401,15.1149407 15.356679,15.0831254 C15.3463858,15.0410168 15.3463858,14.9993762 15.3674401,14.9675608 C15.3777333,14.9572676 15.4095486,14.9259201 15.4619503,14.9048659 C15.5143521,14.8730505 15.5456996,14.8417031 15.5564606,14.8103556 C15.5667538,14.757486 15.5564606,14.7158453 15.4932978,14.6840299 C15.4408961,14.6423893 15.4095486,14.621335 15.4095486,14.5895197 C15.4095486,14.5684654 15.430135,14.547879 15.4511893,14.5160636 C15.4830046,14.4950094 15.4932978,14.4636619 15.4830046,14.4426076 C15.4830046,14.4323144 15.4830046,14.4112601 15.4619503,14.3691516 C15.4511893,14.327043 15.4408961,14.3059888 15.4408961,14.2849345 C15.4408961,14.2746413 15.4511893,14.253587 15.4722435,14.2222396 C15.4932978,14.2114785 15.5564606,14.2114785 15.6612641,14.2325328 C15.7665355,14.2432938 15.8292304,14.2643481 15.8610458,14.2849345 C15.871339,14.2956956 15.8923933,14.3059888 15.9345018,14.3167498 C15.9766104,14.3378041 16.0079578,14.3480973 16.0393053,14.3691516 C16.0711207,14.3902059 16.0814139,14.4004991 16.0921749,14.4215533 L16.0603596,14.4215533 C16.0814139,14.4426076 16.1024681,14.474423 16.1127613,14.5057704 C16.1127613,14.5371179 16.1024681,14.5581722 16.0603596,14.5684654 C16.0921749,14.5684654 16.1235224,14.5684654 16.1548699,14.5895197 C16.2180327,14.6105739 16.2180327,14.6316282 16.1656309,14.6526825 C16.1759241,14.6526825 16.1969784,14.6423893 16.2180327,14.6423893 C16.239087,14.6423893 16.2493802,14.6316282 16.2601412,14.621335 C16.2704344,14.621335 16.2811955,14.6105739 16.2914887,14.6002807 C16.3017819,14.5895197 16.312543,14.5895197 16.3228362,14.5895197 C16.3228362,14.5792265 16.3335973,14.5792265 16.3438905,14.5792265 C16.3546515,14.5792265 16.3649447,14.5792265 16.385999,14.5895197 C16.385999,14.5895197 16.3962922,14.5792265 16.4070533,14.5581722 C16.4173465,14.5371179 16.4384008,14.5160636 16.4491618,14.5057704 C16.4702161,14.4847162 16.4805093,14.474423 16.4908025,14.474423 C16.5015636,14.474423 16.5118568,14.474423 16.5226178,14.4847162 C16.532911,14.4950094 16.5436721,14.5057704 16.5436721,14.5160636 C16.5539653,14.5268247 16.5647264,14.547879 16.5647264,14.5581722 C16.5750196,14.5684654 16.5750196,14.5792265 16.5857807,14.5895197 C16.5857807,14.6105739 16.6063671,14.6316282 16.6381824,14.6526825 C16.6695299,14.6737367 16.6798231,14.694791 16.6905842,14.7158453 C16.7008774,14.7261385 16.7008774,14.757486 16.7116384,14.7995945 C16.7219316,14.8519963 16.7429859,14.8838116 16.7640402,14.8941048 C16.7850945,14.9151591 16.8061487,14.9259201 16.8482573,14.9362133 C16.8585505,14.9465066 16.8796047,14.9465066 16.900659,14.9362133 C16.9320065,14.9259201 16.9530608,14.9259201 16.974115,14.9259201 C16.9844082,14.9362133 16.9951693,14.9465066 16.9951693,14.9783219 C17.0162236,14.9572676 17.0372779,14.9362133 17.0372779,14.9259201 C17.0372779,14.9783219 17.0475711,15.0204304 17.0686253,15.0517779 C17.0896796,15.0831254 17.1210271,15.0938865 17.1734288,15.0938865 L17.1631356,15.2197442 C17.1523746,15.2407985 17.1210271,15.2510917 17.0686253,15.2618528 C17.0265168,15.272146 16.9951693,15.282907 16.9844082,15.2932002 C16.974115,15.2932002 16.9427676,15.3250156 16.900659,15.3666563 C16.8585505,15.4087648 16.8374962,15.4298191 16.8482573,15.4401123 C16.7748013,15.3666563 16.6798231,15.345602 16.5436721,15.3774173 C16.3962922,15.3984716 16.2914887,15.4195259 16.239087,15.4401123 C16.1759241,15.4719276 16.1338156,15.5032751 16.1127613,15.5346226 C16.1127613,15.5346226 16.1024681,15.5453837 16.0921749,15.5767311 C16.0814139,15.5977854 16.0711207,15.6188397 16.0603596,15.6398939 C16.0500664,15.6609482 16.0393053,15.6712414 16.0393053,15.6712414 C16.0603596,15.6609482 16.0814139,15.6398939 16.1127613,15.6085465 C16.1445767,15.5767311 16.1656309,15.5556769 16.1656309,15.5556769 C16.2704344,15.4929819 16.3546515,15.4611666 16.4173465,15.4822208 C16.5118568,15.5140362 16.5226178,15.5453837 16.459455,15.5767311 C16.459455,15.5874922 16.4384008,15.5874922 16.4070533,15.5874922 L16.3335973,15.5874922 C16.3649447,15.5977854 16.3962922,15.6085465 16.4173465,15.6188397 C16.4491618,15.6398939 16.4491618,15.6609482 16.4384008,15.6820025 C16.5015636,15.71335 16.5118568,15.7554585 16.4702161,15.7975671 C16.4281076,15.8499688 16.3649447,15.8710231 16.2914887,15.860262 C16.3017819,15.860262 16.3017819,15.8710231 16.2914887,15.8813163 L16.1969784,15.9444791 C16.1862173,15.9547723 16.1656309,15.9655334 16.1127613,15.9758266 C16.0711207,15.9968808 16.0500664,16.007174 16.0290121,16.0282283 C16.018251,16.0492826 16.0079578,16.0703369 16.0079578,16.1021522 L16.0079578,16.1756082 C15.9971968,16.1859014 15.9869036,16.1859014 15.9555561,16.1859014 C15.944795,16.2069557 15.9134475,16.22801 15.8502847,16.2383032 C15.7875898,16.2490643 15.7454812,16.2701185 15.7347202,16.301466 C15.7557744,16.3328135 15.7557744,16.3646288 15.724427,16.3959763 C15.6823184,16.4380848 15.6402099,16.4273238 15.5985692,16.3856831 C15.5775149,16.3856831 15.5667538,16.4062695 15.5564606,16.4380848 C15.5456996,16.4694323 15.5354064,16.4904866 15.5143521,16.5007798 C15.5456996,16.5536494 15.5354064,16.5747037 15.5040589,16.5952901 C15.5040589,16.5952901 15.5143521,16.6060512 15.5246453,16.6060512 C15.5456996,16.6163444 15.5564606,16.6271054 15.5775149,16.6373986 C15.5878081,16.6481597 15.5985692,16.6584529 15.5985692,16.6584529 C15.5878081,16.6898004 15.5667538,16.7108546 15.5354064,16.7108546 C15.5564606,16.7740175 15.5354064,16.8371803 15.4511893,16.9106363 C15.430135,16.9316906 15.4095486,16.9419838 15.3777333,16.9630381 C15.3463858,16.9737991 15.3145704,16.9943855 15.283223,17.0051466 C15.2621687,17.0154398 15.2411144,17.0154398 15.2411144,17.0262009 C15.1994737,17.0575483 15.1676584,17.0888958 15.1466041,17.1310044 C15.1363109,17.1628197 15.1260177,17.2044604 15.1466041,17.2362757 C15.1573652,17.2779164 15.1887127,17.2989707 15.2518755,17.3097318 L15.2518755,17.3518403 L15.2518755,17.4566438 L15.2621687,17.5090455 C15.2621687,17.5300998 15.2729298,17.5614473 15.2729298,17.5825016 L15.2729298,17.6667187 C15.2729298,17.6980661 15.2621687,17.7191204 15.2411144,17.7191204 C15.2308212,17.7191204 15.2097669,17.7191204 15.1784195,17.7088272 C15.1466041,17.6877729 15.1152567,17.6035558 15.0731481,17.4463506 C15.0628549,17.4145352 15.0418006,17.3621335 14.9996921,17.3097318 C14.9786378,17.330786 14.9575835,17.3410792 14.9472903,17.3518403 L14.9159429,17.3518403 C14.9159429,17.3410792 14.9051818,17.3410792 14.8841275,17.320025 C14.8738343,17.3097318 14.85278,17.2989707 14.842019,17.2886775 C14.8214326,17.2779164 14.7896172,17.2676232 14.7475087,17.25733 C14.6951069,17.25733 14.6637595,17.2465689 14.6529984,17.2362757 C14.5584881,17.2989707 14.5060863,17.2886775 14.4850321,17.1834061 C14.4747389,17.1941672 14.4747389,17.2255147 14.4850321,17.25733 C14.4957931,17.2886775 14.4957931,17.3097318 14.4957931,17.3097318 C14.4747389,17.3621335 14.4326303,17.3724267 14.3694675,17.330786 C14.3484132,17.2989707 14.2960115,17.2989707 14.2122623,17.320025 C14.1280452,17.330786 14.0756434,17.3410792 14.044296,17.330786 C14.044296,17.330786 14.0545892,17.330786 14.0653502,17.3410792 C14.0756434,17.3518403 14.0859366,17.3621335 14.0859366,17.3621335 C14.0859366,17.3724267 14.0756434,17.3831878 14.0756434,17.393481 C14.0653502,17.404242 14.0545892,17.404242 14.044296,17.404242 L14.0232417,17.404242 C14.0124806,17.404242 14.0021874,17.4145352 13.9914263,17.4145352 C13.9811331,17.4252963 13.9600789,17.4463506 13.9390246,17.4776981 C13.9179703,17.5090455 13.896916,17.5198066 13.8866228,17.5300998 C13.9076771,17.5932626 13.9179703,17.6456644 13.9179703,17.6770119 C13.9179703,17.7088272 13.9076771,17.7612289 13.896916,17.8243918 C13.8866228,17.8870867 13.8866228,17.9399563 13.8866228,17.9713038 C13.8866228,18.0344666 13.9076771,18.1079226 13.9390246,18.1916719 C13.9811331,18.275889 14.0232417,18.3282907 14.0756434,18.3596382 C14.0966977,18.3806925 14.1490994,18.3914535 14.2122623,18.3914535 C14.2749572,18.3914535 14.3278268,18.3914535 14.3484132,18.3806925 C14.3802286,18.3703993 14.3905218,18.3596382 14.4115761,18.3385839 C14.4223371,18.3282907 14.4326303,18.2969432 14.4326303,18.275889 C14.4433914,18.2440736 14.4536846,18.2234872 14.4536846,18.2127261 C14.4850321,18.1392701 14.5271406,18.0971616 14.6005966,18.0971616 C14.6529984,18.0868684 14.6848137,18.0971616 14.705868,18.1079226 C14.7269223,18.1182158 14.7372155,18.1392701 14.7372155,18.1603244 C14.7269223,18.1916719 14.7269223,18.2127261 14.7161612,18.2337804 C14.6951069,18.2651279 14.6848137,18.2861822 14.6637595,18.3179975 C14.6529984,18.349345 14.6427052,18.3806925 14.632412,18.3914535 C14.632412,18.422801 14.6216509,18.4649095 14.6113577,18.5276045 C14.6113577,18.5804741 14.6005966,18.6118216 14.6005966,18.6225827 C14.6113577,18.6328759 14.632412,18.6328759 14.6848137,18.6328759 C14.6848137,18.6225827 14.6951069,18.6118216 14.6951069,18.5907673 C14.705868,18.5804741 14.705868,18.569713 14.705868,18.5594198 C14.7269223,18.5907673 14.7582698,18.6118216 14.8003783,18.6118216 C14.842019,18.6225827 14.8738343,18.6015284 14.8948886,18.569713 C14.9051818,18.5804741 14.9262361,18.6118216 14.9683446,18.6539301 C14.9996921,18.7063319 15.0207464,18.7376794 15.0310396,18.7694947 C15.0310396,18.790549 15.0418006,18.8111354 15.0520938,18.8532439 C15.0628549,18.8850593 15.0628549,18.9061135 15.0628549,18.9266999 C15.0628549,18.937461 15.0418006,18.9477542 14.9996921,18.9477542 C14.9893989,18.9477542 14.9786378,18.9477542 14.9786378,18.9585153 C14.9683446,18.9688085 14.9683446,18.9898628 14.9786378,19.0006238 C14.9786378,19.0212102 14.9786378,19.0422645 14.9893989,19.0530256 C14.9996921,19.0740799 14.9996921,19.0843731 15.0104532,19.1054273 C15.0207464,19.1264816 15.0310396,19.1367748 15.0310396,19.1367748 C15.0942024,19.2631004 15.1887127,19.3047411 15.3145704,19.2420462 C15.3145704,19.3576107 15.283223,19.4203057 15.2308212,19.4310667 C15.1994737,19.44136 15.1676584,19.4203057 15.1260177,19.3679039 C15.0839092,19.3257954 15.0731481,19.2841547 15.0839092,19.2523394 C15.0839092,19.2733936 15.0731481,19.2944479 15.0418006,19.3047411 C15.0207464,19.2841547 14.9893989,19.2523394 14.9369971,19.2209919 C14.8841275,19.1788833 14.85278,19.1578291 14.8317258,19.1264816 C14.8214326,19.1157205 14.8106715,19.1054273 14.8003783,19.0843731 C14.7896172,19.0633188 14.768563,19.0319713 14.7475087,19.0006238 C14.7269223,18.9585153 14.7161612,18.9266999 14.705868,18.9061135 C14.6951069,18.8850593 14.6951069,18.864005 14.6951069,18.864005 C14.6216509,18.8953525 14.5168474,18.8742982 14.3802286,18.8008422 C14.3484132,18.7797879 14.3067726,18.7376794 14.2543708,18.6749844 C14.2015012,18.6118216 14.1388062,18.5804741 14.0859366,18.5907673 C14.0653502,18.5907673 14.0335349,18.6015284 14.0021874,18.6015284 C13.9708399,18.6118216 13.9390246,18.6225827 13.9179703,18.6225827 C13.896916,18.6225827 13.8655686,18.6118216 13.82346,18.6015284 C13.7921125,18.5907673 13.750004,18.5594198 13.6976023,18.5276045 C13.6452005,18.496257 13.6133852,18.4752027 13.5923309,18.4649095 C13.5820377,18.4649095 13.5506902,18.4438553 13.5188749,18.422801 C13.4772342,18.4125078 13.4454188,18.3914535 13.4243646,18.3806925 C13.4033103,18.3703993 13.3719628,18.349345 13.3509086,18.3282907 C13.3195611,18.2969432 13.3088,18.275889 13.2985068,18.2440736 C13.2877457,18.2234872 13.2774525,18.1706176 13.2671593,18.1079226 C13.2563983,18.0344666 13.2461051,17.981597 13.2250508,17.9502495 C13.2039965,17.9189021 13.161888,17.8767935 13.1197794,17.834685 C13.0781387,17.7925764 13.0360302,17.7822832 13.0042149,17.7822832 C13.0360302,17.7822832 13.0360302,17.7504679 13.0042149,17.6980661 C12.9728674,17.6456644 12.9518131,17.6035558 12.9204656,17.5825016 C12.9204656,17.5722084 12.8891182,17.5511541 12.8573028,17.5090455 C12.8156621,17.466937 12.7838468,17.4252963 12.7524993,17.393481 C12.731445,17.3621335 12.7000976,17.330786 12.6790433,17.2886775 C12.6682822,17.2465689 12.657989,17.2152215 12.6682822,17.1834061 C12.6790433,17.1834061 12.6682822,17.1731129 12.657989,17.1628197 C12.647228,17.1628197 12.6369348,17.1520586 12.6158805,17.1417654 C12.5948262,17.1417654 12.584533,17.1310044 12.5634787,17.1207112 C12.5527177,17.1207112 12.5424245,17.1099501 12.5316634,17.1099501 C12.5424245,17.1310044 12.5527177,17.1628197 12.5527177,17.2044604 C12.5634787,17.2362757 12.5737719,17.2676232 12.5948262,17.2886775 C12.5948262,17.3097318 12.6261737,17.3621335 12.6893365,17.4566438 C12.7946079,17.6246101 12.8362485,17.7504679 12.8259553,17.8243918 C12.8049011,17.834685 12.7946079,17.8243918 12.7838468,17.8136307 C12.7735536,17.7925764 12.7735536,17.7715221 12.7627925,17.7504679 C12.7627925,17.7191204 12.7627925,17.6980661 12.7524993,17.6877729 C12.7417382,17.6667187 12.7103908,17.6353712 12.657989,17.6143169 C12.6158805,17.5825016 12.584533,17.5614473 12.5737719,17.5300998 L12.584533,17.5300998 C12.5948262,17.5198066 12.5948262,17.5198066 12.6055873,17.5198066 C12.6055873,17.4879913 12.584533,17.4355895 12.5424245,17.3831878 C12.4900227,17.330786 12.4792616,17.2886775 12.4792616,17.2676232 C12.4479142,17.2465689 12.4268599,17.1941672 12.4058056,17.1310044 C12.3744581,17.0575483 12.3636971,17.0154398 12.3426428,16.9943855 C12.3323496,16.9737991 12.3112953,16.9527449 12.2799479,16.9316906 C12.2588936,16.9209295 12.2270782,16.8998752 12.1957308,16.878821 C12.1643833,16.8582346 12.143329,16.8371803 12.1222747,16.8371803 C12.1222747,16.8264192 12.1012205,16.816126 12.0801662,16.7843107 C11.9543084,16.6271054 11.9121999,16.5428883 11.9646016,16.5325951 C11.9121999,16.5428883 11.8700913,16.5007798 11.8387439,16.4170306 C11.8073964,16.3225203 11.7966353,16.2593575 11.8073964,16.2172489 L11.7966353,16.2069557 L11.7966353,16.0703369 C11.7966353,15.9968808 11.8073964,15.9234248 11.8176896,15.860262 C11.8284507,15.7975671 11.8387439,15.7657517 11.8700913,15.7657517 C11.8387439,15.7657517 11.8176896,15.7446974 11.8073964,15.6922957 C11.7966353,15.6398939 11.7966353,15.6085465 11.8073964,15.5874922 C11.8073964,15.5767311 11.8284507,15.5767311 11.8597981,15.6085465 C11.8911456,15.6398939 11.9019067,15.6501871 11.9121999,15.6609482 C11.9646016,15.6291329 11.9753627,15.5977854 11.9646016,15.5556769 C11.9646016,15.5453837 11.922961,15.5032751 11.8495049,15.4298191 C11.6810707,15.3250156 11.5865605,15.272146 11.5865605,15.272146 C11.6076147,15.2305053 11.6076147,15.19869 11.5655062,15.1673425 C11.5341587,15.1883968 11.5131044,15.1883968 11.5028112,15.1776357 C11.4920502,15.1673425 11.4920502,15.1462882 11.4920502,15.1149407 C11.481757,15.0831254 11.4709959,15.0728322 11.4607027,15.0620711 C11.4396484,15.0620711 11.4185941,15.0410168 11.3872467,15.0204304 C11.7339404,14.4636619 12.1957308,14.033219 12.7627925,13.7178727 L12.7627925,13.7178727 Z M15.2411144,20.47068 C15.2729298,20.4182782 15.293984,20.3864629 15.293984,20.3551154 C15.2308212,20.3448222 15.2097669,20.2919526 15.220528,20.2082034 C15.2308212,20.1450405 15.283223,20.0715845 15.3884943,19.966781 C15.4619503,19.9036182 15.4932978,19.8091079 15.4619503,19.6827823 C15.4511893,19.6411416 15.4408961,19.5676856 15.430135,19.4624142 C15.4198418,19.3679039 15.4198418,19.2944479 15.4095486,19.2631004 C15.4095486,19.2733936 15.430135,19.2841547 15.4619503,19.2944479 C15.5040589,19.3047411 15.5246453,19.3155022 15.5354064,19.3257954 C15.5354064,19.3155022 15.5456996,19.2944479 15.5564606,19.2631004 C15.5775149,19.2312851 15.5878081,19.2102308 15.5985692,19.1999376 C15.6088624,19.1788833 15.6196235,19.1685901 15.6509709,19.1475359 C15.6720252,19.1367748 15.6930795,19.1264816 15.6930795,19.1157205 C15.7033727,19.1157205 15.724427,19.1054273 15.7454812,19.0843731 C15.7768287,19.0633188 15.797883,19.0422645 15.8189372,19.0319713 C15.8292304,19.0212102 15.8610458,19.010917 15.8821001,19.0006238 C15.9134475,19.0006238 15.9345018,19.010917 15.944795,19.0319713 C15.9658493,19.0530256 15.9658493,19.0951341 15.9345018,19.1367748 C15.9134475,19.1896444 15.9134475,19.2209919 15.9345018,19.2420462 C15.944795,19.2312851 15.944795,19.1999376 15.944795,19.1685901 C15.9555561,19.1264816 15.9658493,19.0951341 15.9869036,19.0740799 C16.0079578,19.0530256 16.0290121,19.0422645 16.0500664,19.0319713 C16.0711207,19.0319713 16.0921749,19.0319713 16.1127613,19.0422645 C16.1235224,19.0530256 16.1445767,19.0740799 16.1656309,19.0843731 C16.1969784,19.1054273 16.2180327,19.1157205 16.239087,19.1157205 C16.2914887,19.1367748 16.3649447,19.1788833 16.4491618,19.2523394 C16.4384008,19.2420462 16.4384008,19.2420462 16.4491618,19.2312851 C16.4491618,19.2312851 16.459455,19.2209919 16.4702161,19.2209919 C16.4805093,19.2102308 16.4908025,19.1999376 16.5015636,19.1999376 C16.5118568,19.1896444 16.5226178,19.1896444 16.532911,19.1788833 L16.5539653,19.1788833 C16.5750196,19.1788833 16.5960739,19.1788833 16.6063671,19.1685901 C16.6171281,19.1685901 16.6381824,19.1685901 16.6592367,19.1788833 C16.6798231,19.1999376 16.7008774,19.1999376 16.7008774,19.2102308 C16.7116384,19.2209919 16.7219316,19.2312851 16.7429859,19.2420462 C16.7640402,19.2631004 16.7748013,19.2733936 16.7850945,19.2733936 C16.7953877,19.2841547 16.8164419,19.2944479 16.8482573,19.3155022 C16.8796047,19.3365565 16.9109522,19.3576107 16.9217133,19.3679039 C16.9427676,19.378665 16.9530608,19.3992514 16.974115,19.4203057 C16.9844082,19.44136 16.9844082,19.4624142 16.9844082,19.4937617 C17.0054625,19.4937617 17.0578643,19.514816 17.1210271,19.5358702 C17.1420814,19.5466313 17.1631356,19.5569245 17.1944831,19.5569245 C17.2365916,19.5676856 17.2576459,19.5779788 17.2679391,19.588272 C16.7008774,20.1871491 16.018251,20.5544292 15.220528,20.691048 C15.2097669,20.6597006 15.1994737,20.6283531 15.1994737,20.5965377 C15.1994737,20.5754835 15.2097669,20.5338428 15.2411144,20.47068 L15.2411144,20.47068 Z" id="Fill-227" fill="#90D05C" sketch:type="MSShapeGroup"></path>
            </g>
        </g>
    </g>
</svg>