<svg xmlns="http://www.w3.org/2000/svg" width="16" height="16" viewBox="0 0 16 16"><g fill="none" fill-rule="evenodd"><path fill="#000" d="M8 15.75c4.281 0 7.75-3.469 7.75-7.75C15.75 3.719 12.281.25 8 .25 3.719.25.25 3.719.25 8c0 4.281 3.469 7.75 7.75 7.75zm0-1.5c-3.453 0-6.25-2.797-6.25-6.25S4.547 1.75 8 1.75 14.25 4.547 14.25 8 11.453 14.25 8 14.25zM8.5 12c.206 0 .375-.169.375-.375v-2.75h2.75c.206 0 .375-.169.375-.375v-1c0-.206-.169-.375-.375-.375h-2.75v-2.75C8.875 4.169 8.706 4 8.5 4h-1c-.206 0-.375.169-.375.375v2.75h-2.75c-.206 0-.375.169-.375.375v1c0 .206.169.375.375.375h2.75v2.75c0 .206.169.375.375.375h1z"/></g></svg>