<svg xmlns="http://www.w3.org/2000/svg" width="16" height="16" viewBox="0 0 16 16"><g fill="none" fill-rule="evenodd"><path fill="#000" d="M12.323 12.18l2.333 1.454c.234.146.305.455.16.69-.147.233-.456.305-.69.159l-1.986-1.24-2.487 2.615c-.18.19-.475.208-.678.044l-2.853-2.315-2.892 1.844c-.333.212-.769-.027-.769-.422v-1.587c0-.276.224-.5.5-.5.277 0 .5.224.5.5v.675l2.427-1.547c.182-.115.417-.102.584.034l2.774 2.25 2.45-2.575c.164-.172.426-.206.627-.08zM3.258 6.614c.207.567-.007 1.273-.533 1.532.434-.038.76.262.895.631.226.62.087 1.494-.916 1.859l-1.499.545c-.396.145-.667-.026-.73-.444L.01 7.199c-.05-.363.094-.603.438-.728l1.26-.458c.786-.286 1.353.06 1.55.602zm-1.225 2.24l-.654.238.131.976.694-.252c.31-.113.423-.438.315-.735-.077-.211-.255-.311-.486-.227zm10.675-3.254c.398.028.699.353.71.741l.036 1.659 1.185-1.878c.135-.219.393-.36.677-.34.473.034.784.493.657.947l-.881 2.984c-.066.217-.273.368-.507.351-.316-.022-.524-.31-.438-.627l.616-2.1-1.569 2.478c-.05.085-.143.136-.237.13-.133-.01-.24-.106-.242-.265l-.073-2.492-.675 2.306c-.066.218-.274.368-.507.352-.322-.023-.535-.33-.444-.634l.905-3.064c.1-.336.421-.573.787-.548zm-1.54.71c.045 1.272-.79 2.7-2.195 2.748-.765.027-1.31-.25-1.62-.721-.236.516-.647.94-1.24 1.132-1.161.377-1.999-.14-2.327-1.15-.393-1.21.016-2.812 1.353-3.246 1.04-.338 1.82.043 2.207.852.353-.747 1.014-1.33 1.904-1.361 1.219-.043 1.881.686 1.918 1.746zM5.43 6.17c-.555.18-.588 1.195-.413 1.733.147.454.434.593.804.473.555-.18.588-1.195.413-1.733-.147-.454-.434-.593-.804-.473zm-3.71.841l-.587.214.122.912.667-.242c.317-.116.357-.437.273-.668-.074-.205-.25-.298-.475-.216zm7.507-1.312c-.583.02-.894.986-.874 1.552.016.477.254.69.643.676.583-.02.894-.986.874-1.552-.017-.477-.254-.69-.643-.676zM11.376.22l2.077 3.077c.155.229.095.54-.134.694-.23.155-.54.094-.695-.134l-1.812-2.685-3.594 2.144c-.17.101-.385.093-.547-.023L4.652 1.854 3.117 3.88c-.167.22-.48.263-.7.096-.22-.167-.264-.48-.097-.7L4.15.863c.163-.215.468-.262.688-.105L6.986 2.29l3.72-2.22c.227-.135.521-.07.67.15z"/></g></svg>