<svg xmlns="http://www.w3.org/2000/svg" width="16" height="16" viewBox="0 0 16 16">
    <path fill="#000" fill-rule="evenodd" d="M9.163 7.968l.012-.37a.479.479 0 0 1 .396-.456.357.357 0 0 1 .417.32l.007.082.02-.003c.067-.206.157-.358.269-.457a.906.906 0 0 1 .453-.199c.193-.034.35-.016.47.054s.216.183.288.34l.02-.003a1.14 1.14 0 0 1 .3-.452.933.933 0 0 1 .461-.21c.233-.041.422-.003.567.116.145.118.241.313.29.585.027.16.04.333.034.517l-.028 1.089a.595.595 0 0 1-.492.57.397.397 0 0 1-.466-.402l.03-1.132a1.392 1.392 0 0 0-.023-.335c-.011-.066-.036-.113-.073-.143a.164.164 0 0 0-.136-.03c-.122.022-.21.102-.262.241-.053.139-.083.337-.09.595l-.025.907a.596.596 0 0 1-.492.57.396.396 0 0 1-.465-.402l.035-1.132a2.302 2.302 0 0 0-.016-.306c-.027-.156-.1-.223-.22-.202-.111.02-.194.098-.248.234-.053.136-.085.33-.095.58l-.034.93a.602.602 0 0 1-.497.57.394.394 0 0 1-.46-.34 2.383 2.383 0 0 1-.048.11c-.16.341-.385.606-.675.796-.29.189-.628.284-1.015.284-.42 0-.746-.114-.974-.342-.229-.227-.343-.553-.343-.975 0-.12.006-.235.02-.348-.358.226-.773.34-1.245.34-.526 0-.932-.143-1.217-.427-.231-.23-.369-.54-.413-.93a1.722 1.722 0 0 1-.19.477 1.118 1.118 0 0 1-.625.512.942.942 0 0 1-.446.044 1.204 1.204 0 0 1-.465-.208l-.023.007a.595.595 0 0 1-.41.53l-.055.018a.376.376 0 0 1-.49-.318L.1 5.53a.721.721 0 0 1 .494-.762.473.473 0 0 1 .617.4l.013.129c.037.358.044.675.023.948l.023-.007c.055-.143.104-.245.146-.307a.696.696 0 0 1 .159-.162.812.812 0 0 1 .235-.116c.297-.097.56-.064.788.098.228.162.407.443.537.843.06.184.1.375.122.575.05-.243.126-.472.227-.688.2-.427.482-.758.844-.995.362-.236.785-.355 1.268-.355.526 0 .932.142 1.217.427.286.284.429.69.429 1.219 0 .257-.024.502-.071.735.242-.114.513-.171.814-.171.421 0 .746.113.974.34.083.083.151.179.204.287zM1.641 6.695c-.096.031-.17.116-.22.253-.05.137-.071.307-.062.509.01.202.046.399.108.59.04.125.091.219.152.282.06.062.13.081.206.057.094-.031.167-.117.22-.26a1.39 1.39 0 0 0 .073-.519 2.017 2.017 0 0 0-.096-.578c-.09-.276-.217-.387-.381-.334zm3.785-.465c-.206 0-.383.175-.53.526-.147.351-.22.753-.22 1.206 0 .335.105.502.316.502.204 0 .382-.175.532-.525.151-.35.227-.752.227-1.207 0-.166-.029-.292-.087-.376a.274.274 0 0 0-.238-.126zM7.85 8.22c-.165 0-.306.14-.424.42-.118.282-.177.603-.177.966 0 .268.085.402.254.402.163 0 .305-.14.426-.42.12-.28.181-.602.181-.967a.533.533 0 0 0-.07-.3.219.219 0 0 0-.19-.102zm6.975.52a.586.586 0 0 1-.635-.628l.187-2.442c.039-.516.446-.928.961-.973a.688.688 0 0 1 .737.805L15.633 8a.9.9 0 0 1-.809.74zm-1.019 1.734c-.026-.3.044-.545.21-.737.167-.192.41-.302.728-.33.244-.021.435.019.575.12.14.103.22.257.237.464.027.307-.04.553-.204.736-.163.184-.398.289-.706.316-.246.021-.443-.016-.59-.111-.148-.096-.231-.249-.25-.458z"/>
</svg>
