<svg xmlns="http://www.w3.org/2000/svg" width="16" height="16" viewBox="0 0 16 16">
    <path fill="#000" fill-rule="evenodd" d="M7.346 5.925c.354-.746 1.015-1.33 1.904-1.36 1.219-.043 1.881.686 1.918 1.746.045 1.272-.79 2.7-2.195 2.748-.764.027-1.309-.25-1.619-.72-.239.516-.649.939-1.242 1.131-1.16.377-1.998-.14-2.326-1.15-.393-1.21.016-2.812 1.353-3.246 1.04-.338 1.82.043 2.207.851zm7.239 4.14a.485.485 0 0 1-.438-.627l.616-2.1-1.569 2.478a.258.258 0 0 1-.237.13.253.253 0 0 1-.242-.265l-.073-2.492-.675 2.306a.495.495 0 0 1-.507.352.493.493 0 0 1-.444-.634l.905-3.064a.763.763 0 0 1 1.496.193l.037 1.659 1.185-1.878a.741.741 0 0 1 1.334.607l-.881 2.984a.495.495 0 0 1-.507.351zM9.87 6.375c-.017-.478-.254-.69-.643-.677-.583.02-.894.986-.874 1.552.016.477.254.69.643.676.583-.02.894-.986.874-1.552zm-3.636.267c-.147-.454-.434-.593-.804-.473-.555.18-.588 1.195-.413 1.733.147.454.434.593.804.473.555-.18.588-1.195.413-1.733zm-5.029 4.54c-.396.145-.667-.026-.73-.444L.01 7.199c-.05-.363.094-.603.438-.728l1.26-.458c.786-.286 1.353.06 1.55.602.207.567-.007 1.273-.533 1.532.434-.038.76.262.895.631.226.62.087 1.494-.916 1.859l-1.499.545zm.99-3.956c-.074-.205-.25-.298-.475-.216l-.587.214.122.912.667-.242c.317-.116.357-.437.273-.668zm.324 1.856c-.077-.211-.255-.311-.486-.227l-.654.238.131.976.694-.252c.31-.113.423-.438.315-.735zm2.133-7.228L3.117 3.88a.5.5 0 0 1-.797-.604L4.15.863a.5.5 0 0 1 .688-.105L6.986 2.29l3.72-2.22a.5.5 0 0 1 .67.15l2.077 3.077a.5.5 0 1 1-.829.56l-1.812-2.685-3.594 2.144a.5.5 0 0 1-.547-.023L4.652 1.854zM3.23 15.431a.5.5 0 0 1-.769-.422v-1.587a.5.5 0 1 1 1 0v.675l2.427-1.547a.5.5 0 0 1 .584.034l2.774 2.25 2.45-2.575a.5.5 0 0 1 .627-.08l2.333 1.455a.5.5 0 0 1-.53.849l-1.986-1.24-2.487 2.615a.5.5 0 0 1-.678.044l-2.853-2.315-2.892 1.844z"/>
</svg>
