<svg xmlns="http://www.w3.org/2000/svg" width="16" height="16" viewBox="0 0 16 16"><g fill="none" fill-rule="evenodd"><path fill="#000" d="M8 16c3.59 0 6.5-2.91 6.5-6.5 0-1.397-.44-2.69-1.19-3.75l.706-.706c.146-.147.146-.385 0-.531l-.532-.532c-.147-.147-.384-.147-.53 0l-.648.647c-.972-.86-2.2-1.434-3.556-1.587V1.5h.875c.206 0 .375-.169.375-.375v-.75C10 .169 9.831 0 9.625 0h-3.25C6.169 0 6 .169 6 .375v.75c0 .206.169.375.375.375h.875v1.544C4.013 3.416 1.5 6.163 1.5 9.5 1.5 13.09 4.41 16 8 16zm0-1.5c-2.763 0-5-2.237-5-5 0-2.762 2.237-5 5-5 2.762 0 5 2.238 5 5 0 2.763-2.238 5-5 5zm.375-3.5c.206 0 .375-.169.375-.375v-4.25c0-.206-.169-.375-.375-.375h-.75c-.206 0-.375.169-.375.375v4.25c0 .206.169.375.375.375h.75z"/></g></svg>