<svg xmlns="http://www.w3.org/2000/svg" width="16" height="16" viewBox="0 0 16 16">
    <path fill="#000" fill-rule="evenodd" d="M10.762 1c1.195 0 2.173.823 2.256 1.866l.006.144v1.045h1.222c.416 0 .754.48.754.962 0 .444-.288.906-.66.974L14.247 6H13.7l-.508 7.942a1.14 1.14 0 0 1-1.035 1.052l-.121.006H4.964a1.147 1.147 0 0 1-1.142-.94l-.014-.118L3.3 6h-.546C2.338 6 2 5.508 2 5.017c0-.454.288-.89.66-.954l.094-.008h1.222V3.01c0-1.062.927-1.931 2.1-2.005L6.238 1h4.524zm0 1.625H6.238c-.416 0-.754.309-.754.69v.69h6.032v-.69c0-.381-.338-.69-.754-.69z"/>
</svg>
