<svg xmlns="http://www.w3.org/2000/svg" width="16" height="16" viewBox="0 0 16 16">
    <path fill="#000" fill-rule="nonzero" d="M3.3 6h-.546C2.338 6 2 5.508 2 5.017c0-.492.338-.962.754-.962h1.222V3.01C3.976 1.9 4.989 1 6.238 1h4.524c1.25 0 2.262.9 2.262 2.01v1.045h1.222c.416 0 .754.48.754.962 0 .481-.338.983-.754.983H13.7l-.508 7.942c-.037.595-.544 1.06-1.156 1.058H4.964c-.612.001-1.119-.463-1.156-1.058L3.3 6zm8.216-1.994v-.69c0-.382-.338-.691-.754-.691H6.238c-.416 0-.754.309-.754.69v.69h6.032z"/>
</svg>
