<svg height="16" viewBox="0 0 16 16" width="16" xmlns="http://www.w3.org/2000/svg"><g fill-rule="evenodd"><path d="m6.022 1.99c0 .553-.313 1.024-.8 1.024h-3.227v.195c-.002 1.718.002 3.064 0 4.781 0 .466-.226.997-.95.997-.634 0-1.022-.57-1.028-.997-.032-2.054-.014-3.6 0-5.654.005-.803.605-1.316 1.408-1.324 1.265-.013 2.53-.019 3.795 0 .191.003.801.332.801.979zm.978 13.007c0-.552.313-1.023.8-1.023h5.226v-.195c.002-1.718-.002-1.064 0-2.78.001-.467.227-.998.95-.998.634 0 1.022.57 1.029.997.032 2.055.013 1.6 0 3.654-.006.803-.605 1.316-1.408 1.325-1.266.013-4.53-.004-5.796-.001-.427 0-.801-.332-.801-.979z"/><path d="m15.5 0c-6.348.007-11.493 5.152-11.5 11.5a.5.5 0 0 0 1 0c.001-.306.018-.613.051-.917.022-.222.047-.443.08-.662l.017-.042a9.212 9.212 0 0 1 1.965-4.196.5.5 0 0 1 .774.634 8.292 8.292 0 0 0 -1.63 3.183h1.743a7.355 7.355 0 0 0 4.81-1.694l-.31-1.806 1.696.291c1.18-1.7 1.81-3.721 1.804-5.791v-.5z" fill-rule="nonzero"/></g></svg>