<svg xmlns="http://www.w3.org/2000/svg" width="16" height="16" viewBox="0 0 16 16">
    <path fill="#000" fill-rule="evenodd" d="M6.022 1.99c0 .553-.313 1.024-.8 1.024H1.995v.195c-.002 1.718.002 3.064 0 4.781 0 .466-.226.997-.95.997-.634 0-1.022-.57-1.028-.997-.032-2.054-.014-3.6 0-5.654.005-.803.605-1.316 1.408-1.324 1.265-.013 2.53-.019 3.795 0 .191.003.801.332.801.979zM7 14.997c0-.552.313-1.023.8-1.023h5.226v-.195c.002-1.718-.002-1.064 0-2.78.001-.467.227-.998.95-.998.634 0 1.022.57 1.029.997.032 2.055.013 1.6 0 3.654-.006.803-.605 1.316-1.408 1.325-1.266.013-4.53-.004-5.796-.001-.427 0-.801-.332-.801-.979zM15.5 0h.5v.5a10.094 10.094 0 0 1-1.804 5.791L12.5 6l.31 1.806A7.355 7.355 0 0 1 8 9.5H6.256a8.292 8.292 0 0 1 1.63-3.183.5.5 0 0 0-.773-.634A9.212 9.212 0 0 0 5.148 9.88l-.016.042c-.034.219-.059.44-.081.662-.033.304-.05.61-.051.917a.5.5 0 0 1-1 0C4.007 5.152 9.152.007 15.5 0z"/>
</svg>
