<svg xmlns="http://www.w3.org/2000/svg" width="16" height="16" viewBox="0 0 16 16">
    <path fill="#000" fill-rule="evenodd" d="M13.976 10c.634 0 1.022.57 1.029.997.032 2.055.013 1.6 0 3.654-.006.803-.605 1.316-1.408 1.325-1.042.01-3.44 0-4.961-.001H7.8c-.427 0-.801-.332-.801-.979 0-.512.27-.955.7-1.016l.1-.007h5.226V12.43v-1.432c.001-.466.227-.997.95-.997zM16 0v.5a10.095 10.095 0 0 1-1.804 5.791L12.5 6l.31 1.806A7.355 7.355 0 0 1 8 9.5H6.256a8.292 8.292 0 0 1 1.63-3.183.5.5 0 0 0-.773-.634A9.212 9.212 0 0 0 5.148 9.88l-.016.042c-.034.219-.059.44-.081.662-.033.304-.05.61-.051.917a.5.5 0 0 1-1 0C4.007 5.152 9.152.007 15.5 0h.5zM5.221 1.013c.191.002.801.331.801.978 0 .512-.27.955-.699 1.016l-.102.007H1.996l-.001.144.001-.024V7.99c0 .466-.226.997-.95.997-.634 0-1.022-.57-1.028-.997-.032-2.054-.014-3.6 0-5.654.005-.803.605-1.316 1.408-1.324l1.265-.01L3.956 1z"/>
</svg>
