<svg xmlns="http://www.w3.org/2000/svg" width="16" height="16" viewBox="0 0 16 16"><g fill="none" fill-rule="evenodd"><path fill="#000" d="M13.625 2.625c.206 0 .375-.169.375-.375v-.875c0-.206-.169-.375-.375-.375H2.375C2.169 1 2 1.169 2 1.375v.875c0 .206.169.375.375.375h11.25zM8.437 15c.207 0 .375-.169.375-.375V6.85l2.932 3.034c.143.154.384.157.534.007l.613-.613c.146-.147.146-.384 0-.531L8.266 4.109c-.147-.146-.385-.146-.532 0L3.11 8.747c-.147.147-.147.384.003.531l.613.613c.147.147.387.143.534-.007L7.187 6.85v7.775c0 .206.17.375.375.375h.875z"/></g></svg>