<svg xmlns="http://www.w3.org/2000/svg" width="16" height="16" viewBox="0 0 16 16"><g fill="none" fill-rule="evenodd"><path fill="#000" d="M8 15.75c4.281 0 7.75-3.469 7.75-7.75C15.75 3.719 12.281.25 8 .25 3.719.25.25 3.719.25 8c0 4.281 3.469 7.75 7.75 7.75zm0-1.5c-3.453 0-6.25-2.797-6.25-6.25S4.547 1.75 8 1.75 14.25 4.547 14.25 8 11.453 14.25 8 14.25zM8.437 12c.207 0 .375-.169.375-.375V6.6l2.097 2.197c.147.153.388.156.538.006l.612-.612c.147-.147.147-.385 0-.532L8.266 3.866c-.147-.147-.385-.147-.532 0L3.941 7.659c-.147.147-.147.385 0 .532l.612.612c.15.15.39.147.538-.006L7.187 6.6v5.025c0 .206.17.375.375.375h.875z"/></g></svg>