<svg xmlns="http://www.w3.org/2000/svg" width="16" height="16" viewBox="0 0 16 16">
    <g fill="#000" fill-rule="evenodd" transform="translate(2)">
        <path fill-rule="nonzero" d="M2 2v12h8V2H2zm0-2h8a2 2 0 0 1 2 2v12a2 2 0 0 1-2 2H2a2 2 0 0 1-2-2V2a2 2 0 0 1 2-2z"/>
        <circle cx="6" cy="4.5" r="1.75"/>
        <path d="M3.5 9c0-.552.444-1 1-1h3c.552 0 1 .444 1 1 0 .552-.444 1-1 1h-3c-.552 0-1-.444-1-1zm0 3c0-.552.444-1 1-1h3c.552 0 1 .444 1 1 0 .552-.444 1-1 1h-3c-.552 0-1-.444-1-1z"/>
    </g>
</svg>
