<svg xmlns="http://www.w3.org/2000/svg" width="16" height="16" viewBox="0 0 16 16">
    <path fill="#000" fill-rule="nonzero" d="M14.485 11.996L10.489 8l1.178-1.178a2.916 2.916 0 0 0 2.478-.82 2.93 2.93 0 0 0 .653-3.14l-1.897 1.897-1.417-.24-.241-1.418 1.898-1.899a2.934 2.934 0 0 0-2.719.304 2.915 2.915 0 0 0-1.243 2.83L8.001 5.514 6.823 4.335a2.916 2.916 0 0 0-.82-2.478 2.93 2.93 0 0 0-3.14-.653l1.896 1.897-.24 1.417-1.418.24L1.202 2.86a2.934 2.934 0 0 0 .303 2.719 2.915 2.915 0 0 0 2.83 1.243l7.662 7.662a1.76 1.76 0 0 0 2.488-2.488zm-.829 1.659a.585.585 0 1 1-.829-.827.585.585 0 0 1 .829.827zm-12.14-1.659a1.76 1.76 0 0 0 2.487 2.488l3.172-3.172-2.487-2.488-3.172 3.172zm1.658 1.659a.587.587 0 1 1-.829-.83.587.587 0 0 1 .829.83z"/>
</svg>
