<svg xmlns="http://www.w3.org/2000/svg" width="16" height="16" viewBox="0 0 16 16"><g fill="none" fill-rule="evenodd"><path fill="#000" d="M14.012 15.66l1.647-1.647c.453-.457.453-1.194 0-1.647L12 8.706c-.722-.722-1.8-.862-2.669-.434L6 4.94V3L2 0 0 2l3 4h1.94l3.332 3.331c-.425.869-.288 1.947.434 2.669l3.66 3.66c.456.456 1.193.456 1.646 0zm-.346-6.7c.328-.197.64-.435.918-.716 1.191-1.19 1.678-2.947 1.272-4.581-.094-.382-.387-.682-.762-.788-.382-.106-.788.003-1.063.281l-1.834 1.832-1.013-.17-.168-1.012 1.83-1.831c.279-.278.385-.684.279-1.062-.103-.379-.406-.672-.788-.766-1.662-.413-3.371.062-4.58 1.269-.32.318-.579.678-.791 1.059L7 2.5v2.028l.928.928c-.212-1.087.11-2.197.89-2.978.635-.634 1.476-.975 2.344-.975h.038L9.406 3.291l.472 2.83 2.831.473 1.791-1.79c.01.884-.331 1.734-.975 2.377-.29.29-.631.513-.994.675.056.05.122.09.175.144l.96.96zM2.562 16c.685 0 1.329-.266 1.813-.75l3.153-3.153c-.303-.494-.475-1.056-.49-1.628l-3.726 3.718c-.4.4-1.103.4-1.503 0-.2-.2-.312-.468-.312-.75 0-.284.11-.55.312-.75l4.2-4.2L4.95 7.429l-4.2 4.197c-.484.484-.75 1.128-.75 1.813 0 .684.266 1.328.75 1.812s1.128.75 1.812.75z"/></g></svg>