<svg xmlns="http://www.w3.org/2000/svg" width="16" height="16" viewBox="0 0 16 16"><g fill="none" fill-rule="evenodd"><path fill="#000" d="M14.5 14.969c.828 0 1.5-.672 1.5-1.5v-9c0-.828-.672-1.5-1.5-1.5h-2.75l-.447-1.188c-.181-.49-.647-.812-1.169-.812H6.041c-.625 0-1.185.387-1.403.972L4.25 2.969H1.5c-.828 0-1.5.672-1.5 1.5v9c0 .828.672 1.5 1.5 1.5h13zm0-1.5h-13v-9h3.79l.75-2h3.922l.747 2H14.5v9zM8 12.75c2.069 0 3.75-1.681 3.75-3.75S10.069 5.25 8 5.25 4.25 6.931 4.25 9 5.931 12.75 8 12.75zm0-1.5c-1.24 0-2.25-1.01-2.25-2.25S6.76 6.75 8 6.75 10.25 7.76 10.25 9 9.24 11.25 8 11.25zM6.75 9.5c.275 0 .5-.225.5-.5 0-.412.337-.75.75-.75.275 0 .5-.225.5-.5s-.225-.5-.5-.5c-.966 0-1.75.784-1.75 1.75 0 .275.225.5.5.5z"/></g></svg>