<?xml version="1.0" encoding="UTF-8"?>
<svg width="16px" height="16px" viewBox="0 0 16 16" version="1.1" xmlns="http://www.w3.org/2000/svg" xmlns:xlink="http://www.w3.org/1999/xlink">
    <!-- Generator: sketchtool 54.1 (76490) - https://sketchapp.com -->
    <title>5F9ED934-BFDA-4ACB-8C1E-86BFC245E771</title>
    <desc>Created with sketchtool.</desc>
    <g id="Symbols" stroke="none" stroke-width="1" fill="none" fill-rule="evenodd">
        <g id="11-kb-iconfont-camera-16">
            <g>
                <rect id="icon-area" opacity="0" x="0" y="0" width="16" height="16"></rect>
                <path d="M14.0031819,2.00045456 L12.3595818,2.00045456 L11.0259454,0 L4.9780178,0 L3.64405469,2.00045456 L2.00045456,2.00045456 C0.896133697,2.00165997 0.001205415,2.89658825 0,4.00090911 L0,12.6695455 C0.001205415,13.7738664 0.896133697,14.6687947 2.00045456,14.6700001 L14.0031819,14.6700001 C15.1075028,14.6687947 16.002431,13.7738664 16.0036364,12.6695455 L16.0036364,4.00090911 C16.002431,2.89658825 15.1075028,2.00165997 14.0031819,2.00045456 Z M8.00181822,11.6693182 C6.16045065,11.6693182 4.6677273,10.1765949 4.6677273,8.33522732 C4.6677273,6.49385974 6.16045065,5.00113639 8.00181822,5.00113639 C9.8431858,5.00113639 11.3359091,6.49385974 11.3359091,8.33522732 C11.335876,10.1765812 9.84317207,11.6692851 8.00181822,11.6693182 Z M13.0029546,5.33454548 C12.4505443,5.33454548 12.0027273,4.88672848 12.0027273,4.3343182 C12.0027273,3.78190793 12.4505443,3.33409093 13.0029546,3.33409093 C13.5553649,3.33409093 14.0031819,3.78190793 14.0031819,4.3343182 C14.0031819,4.88672848 13.5553649,5.33454548 13.0029546,5.33454548 Z" id="camera" fill="#000000"></path>
            </g>
        </g>
    </g>
</svg>