<svg xmlns="http://www.w3.org/2000/svg" width="16" height="16" viewBox="0 0 16 16">
    <path fill="#000" fill-rule="nonzero" d="M14.667 1H1.333C.597 1 0 1.597 0 2.333V13c0 .737.597 1.333 1.333 1.333h1.334a1.333 1.333 0 1 1 2.666 0h5.334a1.333 1.333 0 1 1 2.666 0h1.334c.736 0 1.333-.596 1.333-1.333V2.333C16 1.597 15.403 1 14.667 1zM5 3.667c.92 0 1.667.747 1.667 1.666C6.667 6.253 5.919 7 5 7c-.92 0-1.667-.747-1.667-1.667 0-.919.748-1.666 1.667-1.666zm2.333 6.666H2.667V9.83c0-1.192 1.046-2.162 2.333-2.162 1.287 0 2.333.97 2.333 2.162v.504zm5.334-2H10a.669.669 0 0 1-.667-.666c0-.367.3-.667.667-.667h2.667c.366 0 .666.3.666.667 0 .366-.3.666-.666.666zm0-2.666H10A.669.669 0 0 1 9.333 5c0-.367.3-.667.667-.667h2.667c.366 0 .666.3.666.667 0 .367-.3.667-.666.667z"/>
</svg>
