<svg xmlns="http://www.w3.org/2000/svg" width="16" height="16" viewBox="0 0 16 16"><g fill="none" fill-rule="evenodd"><path fill="#000" d="M16.5 15c.828 0 1.5-.672 1.5-1.5v-11c0-.828-.672-1.5-1.5-1.5h-15C.672 1 0 1.672 0 2.5v11c0 .828.672 1.5 1.5 1.5h15zM2.525 13.5H1.5v-9h15v9H9.475c.028-.14.025.112.025-.7 0-.994-.94-1.8-2.1-1.8-.338 0-.584.25-1.4.25-.84 0-1.044-.25-1.4-.25-1.16 0-2.1.806-2.1 1.8v.541c0 .137.005.071.025.159zM14.75 7c.137 0 .25-.112.25-.25v-.5c0-.137-.113-.25-.25-.25h-3.5c-.138 0-.25.113-.25.25v.5c0 .138.112.25.25.25h3.5zM6 10c1.103 0 2-.897 2-2s-.897-2-2-2-2 .897-2 2 .897 2 2 2zm8.75-1c.137 0 .25-.112.25-.25v-.5c0-.137-.113-.25-.25-.25h-3.5c-.138 0-.25.113-.25.25v.5c0 .138.112.25.25.25h3.5zm0 2c.137 0 .25-.112.25-.25v-.5c0-.138-.113-.25-.25-.25h-3.5c-.138 0-.25.112-.25.25v.5c0 .138.112.25.25.25h3.5z"/></g></svg>