<svg xmlns="http://www.w3.org/2000/svg" width="16" height="16" viewBox="0 0 16 16">
    <path fill="#000" fill-rule="nonzero" d="M14.667 1C15.403 1 16 1.597 16 2.333V13c0 .737-.597 1.333-1.333 1.333h-1.334a1.333 1.333 0 1 0-2.666 0H5.333a1.333 1.333 0 1 0-2.666 0H1.333A1.333 1.333 0 0 1 0 13V2.333C0 1.597.597 1 1.333 1h13.334zM5 3.667c-.92 0-1.667.747-1.667 1.666C3.333 6.253 4.081 7 5 7c.92 0 1.667-.747 1.667-1.667 0-.919-.748-1.666-1.667-1.666zm2.333 6.666V9.83c0-1.192-1.046-2.162-2.333-2.162-1.287 0-2.333.97-2.333 2.162v.504h4.666zm5.334-2c.366 0 .666-.3.666-.666 0-.367-.3-.667-.666-.667H10c-.367 0-.667.3-.667.667 0 .366.3.666.667.666h2.667zm0-2.666c.366 0 .666-.3.666-.667 0-.367-.3-.667-.666-.667H10c-.367 0-.667.3-.667.667 0 .367.3.667.667.667h2.667z"/>
</svg>
