<svg xmlns="http://www.w3.org/2000/svg" width="16" height="16" viewBox="0 0 16 16">
    <path fill="#000" fill-rule="evenodd" d="M14.667 1c.693 0 1.262.529 1.327 1.205l.006.128V13c0 .693-.529 1.263-1.205 1.327l-.128.006h-1.334a1.333 1.333 0 0 0-2.66-.128l-.006.128H5.333a1.333 1.333 0 0 0-2.66-.128l-.006.128H1.333a1.333 1.333 0 0 1-1.327-1.205L0 13V2.333c0-.693.529-1.262 1.205-1.327L1.333 1h13.334zM5 7.667c-1.233 0-2.246.89-2.328 2.014l-.005.148v.504h4.666V9.83c0-1.192-1.046-2.162-2.333-2.162zM12.667 7H10c-.367 0-.667.3-.667.667a.67.67 0 0 0 .569.66l.098.006h2.667c.366 0 .666-.3.666-.666 0-.367-.3-.667-.666-.667zM5 3.667c-.92 0-1.667.747-1.667 1.666C3.333 6.253 4.081 7 5 7c.92 0 1.667-.747 1.667-1.667 0-.919-.748-1.666-1.667-1.666zm7.667.666H10c-.367 0-.667.3-.667.667 0 .367.3.667.667.667h2.667c.366 0 .666-.3.666-.667 0-.367-.3-.667-.666-.667z"/>
</svg>
