<svg xmlns="http://www.w3.org/2000/svg" width="16" height="16" viewBox="0 0 16 16"><g fill="none" fill-rule="evenodd"><path fill="#000" d="M12.5 16c.828 0 1.5-.672 1.5-1.5V13h.625c.206 0 .375-.169.375-.375v-1.25c0-.206-.169-.375-.375-.375H14V9h.625c.206 0 .375-.169.375-.375v-1.25c0-.206-.169-.375-.375-.375H14V5h.625c.206 0 .375-.169.375-.375v-1.25c0-.206-.169-.375-.375-.375H14V1.5c0-.828-.672-1.5-1.5-1.5h-10C1.672 0 1 .672 1 1.5v13c0 .828.672 1.5 1.5 1.5h10zm0-1.5h-10v-13h10v13zM7.5 8c1.103 0 2-.897 2-2s-.897-2-2-2-2 .897-2 2 .897 2 2 2zm2.8 4c.387 0 .7-.269.7-.6v-.6c0-.994-.94-1.8-2.1-1.8-.338 0-.584.25-1.4.25-.84 0-1.044-.25-1.4-.25C4.94 9 4 9.806 4 10.8v.6c0 .331.312.6.7.6h5.6z"/></g></svg>