<svg xmlns="http://www.w3.org/2000/svg" width="16" height="16" viewBox="0 0 16 16">
    <path fill="#000" fill-rule="evenodd" d="M14.667 0H14v4h.667C15.403 4 16 3.403 16 2.667V1.333C16 .597 15.403 0 14.667 0zM1.368 1.368v1.369H.684A.686.686 0 0 0 0 3.42c0 .376.308.684.684.684h.684v2.737H.684A.686.686 0 0 0 0 7.526c0 .377.308.685.684.685h.684v2.736H.684a.686.686 0 0 0-.684.685c0 .376.308.684.684.684h.684v1.369c0 .755.613 1.368 1.368 1.368H13V0H2.736c-.755 0-1.368.612-1.368 1.368zM7 2.4c.919 0 1.667.747 1.667 1.667 0 .919-.748 1.666-1.667 1.666a1.669 1.669 0 0 1-1.667-1.666c0-.92.748-1.667 1.667-1.667zm3 8.6v1H5v-1h5zm0-2v1H5V9h5zm4.667-3.667c.692 0 1.262.529 1.327 1.205l.006.129V8c0 .693-.53 1.263-1.205 1.327l-.128.006H14v-4h.667zM10 7v1H5V7h5z"/>
</svg>
