<svg xmlns="http://www.w3.org/2000/svg" width="16" height="16" viewBox="0 0 16 16">
    <path fill="#000" fill-rule="nonzero" d="M14 13v.6c0 .773-.672 1.4-1.5 1.4h-9c-.828 0-1.5-.627-1.5-1.4V13H1a1 1 0 0 1 0-2h1V9H1a1 1 0 1 1 0-2h1V5H1a1 1 0 1 1 0-2h1v-.6C2 1.627 2.672 1 3.5 1H14v1h.5c.828 0 1.5.896 1.5 2v1c0 1.104-.672 2-1.5 2H14v1h.5c.828 0 1.5.867 1.5 1.935v1.13C16 12.133 15.328 13 14.5 13H14zm0-1.667h.5c.138 0 .25-.09.25-.268v-1.13c0-.177-.112-.268-.25-.268H14v1.666zm0-6h.5c.138 0 .25-.15.25-.333V4c0-.184-.112-.333-.25-.333H14v1.666zM12.5 13.5v-11h-9v11h9zM6.432 9.32a2.8 2.8 0 1 1 3.136 0c.717.208 1.358.56 1.851 1.026a.9.9 0 0 1-1.238 1.308c-.484-.46-1.291-.754-2.18-.754-.89 0-1.697.295-2.182.754a.9.9 0 0 1-1.238-1.308c.494-.467 1.134-.818 1.85-1.026zM8 8a1 1 0 1 0 0-2 1 1 0 0 0 0 2z"/>
</svg>
