<svg xmlns="http://www.w3.org/2000/svg" width="16" height="16" viewBox="0 0 16 16"><g fill="none" fill-rule="evenodd"><path fill="#000" d="M16 4.612v1.381l-.582.297c-.443.225-.706.695-.669 1.19.014.172.02.346.02.52 0 .914-.179 1.8-.532 2.635-.34.806-.829 1.53-1.45 2.152-.622.621-1.346 1.11-2.152 1.45-.835.353-1.721.532-2.635.532-.914 0-1.8-.179-2.635-.532-.48-.203-.929-.458-1.346-.761l1.196-.61.07-.036c.831.469 1.774.715 2.754.708 1.457-.01 2.847-.591 3.877-1.622C12.962 10.87 13.54 9.48 13.54 8c0-.246-.017-.489-.048-.728L.001 14.146v-1.382L16 4.612zM8 1.231c.914 0 1.8.179 2.635.532.477.202.926.456 1.341.758l-.164.084-1.103.562c-.83-.467-1.772-.713-2.752-.705-1.456.01-2.844.592-3.873 1.622C3.038 5.13 2.462 6.52 2.462 8c0 .244.016.486.047.724l11.23-5.722 2.26-1.153v1.382L2.814 9.95l.001.002-1.1.56-.002-.001L0 11.383v-1.381l.582-.297c.442-.225.705-.694.668-1.19-.013-.17-.02-.342-.02-.515 0-.914.18-1.8.533-2.635.341-.806.829-1.53 1.45-2.151.622-.622 1.346-1.11 2.152-1.45C6.2 1.41 7.086 1.23 8 1.23z"/></g></svg>