<svg xmlns="http://www.w3.org/2000/svg" width="16" height="16" viewBox="0 0 16 16">
    <path fill="#000" fill-rule="nonzero" d="M4.726 11.119l-.003-.002c-.309-.21-1.01-.689-.595-1.551-1.065-.356-1.934-.214-2.434-.059-.255.08-.376-.028-.426-.099-.09-.129-.064-.306.066-.474C2.591 7.323 4 6.5 5.52 6.49h.028c.122 0 .24.006.356.016.47-.79 1.003-1.673 1.56-2.56 1.124-1.79 3.365-2.473 4.6-2.72a9.38 9.38 0 0 1 1.288-.171c.606-.033.765.039.877.115l.01.007c.109.076.23.207.396.755.11.36.205.799.268 1.236.174 1.207.263 3.475-1.096 5.1-.763.912-1.53 1.794-2.2 2.551.486 1.075.616 2.671-.74 4.79-.075.117-.22.213-.23-.03-.022-.53-.191-1.524-1.04-2.515a7.88 7.88 0 0 0-.019.021c-.304.347-.613.462-.893.462-.358 0-.67-.188-.87-.32-.026.045-.054.09-.085.133-.014.021-.03.04-.046.06-1.078 1.493-2.6 2.227-3.429 1.638-.83-.588-.656-2.277.378-3.803.013-.021.025-.043.04-.064a1.9 1.9 0 0 1 .053-.072zm2.46 1.679l-.593-.406-1.1-.75c-.519.808-.595 1.669-.153 1.974.443.307 1.248-.059 1.847-.818zm3.91-5.795a1.49 1.49 0 0 0 1.23-.637 1.503 1.503 0 0 0-1.483-2.344 1.49 1.49 0 0 0-.97.615 1.504 1.504 0 0 0 1.224 2.366z"/>
</svg>
