<svg xmlns="http://www.w3.org/2000/svg" width="16" height="16" viewBox="0 0 16 16">
    <path fill="#000" fill-rule="evenodd" d="M13.738 3.002L16 1.849v1.382L2.813 9.95l.001.002-1.1.56-.002-.001L0 11.383v-1.381l.582-.297c.442-.225.705-.694.668-1.19a6.728 6.728 0 0 1 .513-3.15 6.748 6.748 0 0 1 1.45-2.151A6.746 6.746 0 0 1 8 1.23a6.724 6.724 0 0 1 3.976 1.29l-.164.084-1.103.562a5.51 5.51 0 0 0-2.752-.705 5.53 5.53 0 0 0-3.873 1.622A5.502 5.502 0 0 0 2.462 8c0 .244.016.486.047.724l11.23-5.722zM16 4.612v1.381l-.582.297a1.23 1.23 0 0 0-.669 1.19 6.728 6.728 0 0 1-.512 3.155 6.749 6.749 0 0 1-1.45 2.152A6.75 6.75 0 0 1 8 14.769a6.728 6.728 0 0 1-3.98-1.293l1.195-.61.07-.036a5.51 5.51 0 0 0 2.754.708 5.531 5.531 0 0 0 3.877-1.622A5.502 5.502 0 0 0 13.54 8c0-.246-.017-.489-.048-.728L.001 14.146v-1.382L16 4.612z"/>
</svg>
