<svg xmlns="http://www.w3.org/2000/svg" width="16" height="16" viewBox="0 0 16 16"><g fill="none" fill-rule="evenodd"><path fill="#000" d="M14.895 5.242c0-3.463-2.27-4.48-2.27-4.48C10.397-.26 4.48-.248 2.274.763c0 0-2.27 1.017-2.27 4.48 0 4.123-.236 9.244 3.763 10.302 1.444.382 2.684.463 3.682.406 1.811-.1 2.827-.645 2.827-.645l-.06-1.314s-1.294.406-2.749.36c-1.44-.05-2.957-.157-3.194-1.925-.022-.164-.032-.33-.032-.495 3.052.745 5.654.324 6.37.239 2-.24 3.742-1.472 3.964-2.598.349-1.775.32-4.33.32-4.33zm-2.677 4.462h-1.661v-4.07c0-1.77-2.28-1.839-2.28.246v2.227H6.624V5.88c0-2.085-2.28-2.017-2.28-.246v4.07H2.679c0-4.352-.185-5.271.656-6.237.923-1.03 2.845-1.097 3.7.218l.414.695.413-.695c.86-1.322 2.784-1.24 3.7-.218.845.973.656 1.889.656 6.236z"/></g></svg>