<svg xmlns="http://www.w3.org/2000/svg" width="16" height="16" viewBox="0 0 16 16">
    <path fill="#000" fill-rule="evenodd" d="M15.607 9.592c-.22 1.128-1.965 2.364-3.97 2.603-1.045.125-2.075.24-3.172.19-1.795-.083-3.211-.43-3.211-.43 0 .175.01.342.032.497.233 1.772 1.756 1.878 3.2 1.927 1.456.05 2.752-.359 2.752-.359l.06 1.317s-1.019.547-2.833.647c-1 .055-2.243-.025-3.69-.408-3.138-.83-3.678-4.176-3.76-7.57-.026-1.008-.01-1.958-.01-2.753 0-3.47 2.274-4.488 2.274-4.488C4.426.238 6.393.017 8.439 0h.05c2.045.017 4.014.238 5.16.765 0 0 2.275 1.017 2.275 4.488 0 0 .028 2.56-.317 4.339zm-2.365-4.07c0-.859-.22-1.541-.658-2.046-.453-.505-1.047-.764-1.783-.764-.852 0-1.497.327-1.924.983l-.415.695-.414-.695c-.427-.656-1.072-.983-1.924-.983-.737 0-1.33.259-1.783.764-.44.505-.658 1.187-.658 2.046v4.203h1.665v-4.08c0-.859.362-1.295 1.085-1.295.8 0 1.202.517 1.202 1.541v2.233H9.29V5.89c0-1.024.4-1.541 1.201-1.541.724 0 1.086.436 1.086 1.296v4.079h1.665V5.522z"/>
</svg>
