<svg xmlns="http://www.w3.org/2000/svg" width="16" height="16" viewBox="0 0 16 16">
    <path fill="#000" fill-rule="evenodd" d="M8.5 2c4.048 0 7.347 1.71 7.495 3.85L16 6v3.926C16 12.176 12.642 14 8.5 14 4.358 14 1 12.176 1 9.926V6c0-2.21 3.358-4 7.5-4zM14 8.72C12.63 9.506 10.673 10 8.5 10S4.37 9.507 3 8.72v1.206C3 10.742 5.316 12 8.5 12S14 10.742 14 9.926V8.72zM8.5 4C5.316 4 3 5.235 3 6c0 .765 2.316 2 5.5 2S14 6.765 14 6c0-.765-2.316-2-5.5-2zm-1.47.97a.75.75 0 0 1 .185.756l.755-.756a.75.75 0 0 1 1.06 1.06l-1 1a.75.75 0 0 1-1.245-.756l-.755.756a.75.75 0 0 1-1.06-1.06l1-1a.75.75 0 0 1 1.06 0z"/>
</svg>
