<svg xmlns="http://www.w3.org/2000/svg" width="16" height="16" viewBox="0 0 16 16"><g fill="none" fill-rule="evenodd"><path fill="#000" d="M8 14c4.417 0 8-1.79 8-4V6.5C16 4.014 12.417 2 8 2S0 4.014 0 6.5V10c0 2.21 3.583 4 8 4zm0-4.5c-3.719 0-6.5-1.584-6.5-3s2.781-3 6.5-3 6.5 1.584 6.5 3-2.78 3-6.5 3zm-5.25 1.855c-.8-.444-1.25-.942-1.25-1.355v-.883c.323.25.883.596 1.25.773v1.465zm10.5 0V9.89c.367-.177.927-.524 1.25-.773V10c0 .413-.45.911-1.25 1.355zm-7.5.965c-.565-.088-1.461-.316-2-.51v-1.502c.54.189 1.436.417 2 .508v1.504zm4.5.001v-1.505c.564-.091 1.46-.32 2-.508v1.503c-.539.194-1.435.422-2 .51zm-2.25.18c-.434 0-.85-.021-1.25-.056V10.94c.408.036.824.06 1.25.06.426 0 .842-.024 1.25-.06v1.505c-.4.035-.816.056-1.25.056z"/></g></svg>