<svg xmlns="http://www.w3.org/2000/svg" width="16" height="16" viewBox="0 0 16 16"><g fill="none" fill-rule="evenodd"><path fill="#000" d="M6 16c3.312 0 6-1.119 6-2.5v-1.647c2.328-.344 4-1.265 4-2.353v-7C16 1.119 13.312 0 10 0 6.687 0 4 1.119 4 2.5v1.644C1.672 4.488 0 5.413 0 6.5v7C0 14.881 2.687 16 6 16zm4-11.5c-.156 0-.306-.01-.46-.016-.812-.246-1.774-.412-2.824-.465C5.969 3.75 5.5 3.394 5.5 3c0-.828 2.016-1.5 4.5-1.5s4.5.672 4.5 1.5-2.016 1.5-4.5 1.5zm2 2.834V6.5c0-.225-.078-.444-.213-.653 1.057-.166 2-.463 2.713-.869v1.406c-.222.26-1.09.707-2.5.95zM6 8.5c-2.484 0-4.5-.672-4.5-1.5S3.516 5.5 6 5.5s4.5.672 4.5 1.5S8.484 8.5 6 8.5zm6 1.834v-1.49c.969-.144 1.834-.378 2.5-.694v1.234c-.222.26-1.09.707-2.5.95zM6 11.5c-2.612 0-4.188-.75-4.5-1.116V8.981C2.6 9.606 4.206 10 6 10s3.4-.397 4.5-1.019v1.403C10.187 10.75 8.612 11.5 6 11.5zm0 3c-2.612 0-4.188-.75-4.5-1.116V12.15c1.1.519 2.706.85 4.5.85s3.4-.331 4.5-.85v1.234C10.187 13.75 8.612 14.5 6 14.5z"/></g></svg>