<svg xmlns="http://www.w3.org/2000/svg" width="16" height="16" viewBox="0 0 16 16">
    <path fill="#000" fill-rule="evenodd" d="M11.94 7.273c.564 0 1.021.457 1.021 1.02v1.022h-8.17V8.294c0-.564.457-1.021 1.02-1.021h6.13zm-1.021 3.064c.564 0 1.021.457 1.021 1.02v1.022H3.77v-1.021c0-.564.457-1.021 1.02-1.021h6.129zM11.94 13.4c.564 0 1.021.457 1.021 1.021v1.021h-8.17v-1.021c0-.564.457-1.021 1.02-1.021h6.13zM6.524 4.723c-.112-.16-.012-.584.342-.584.714 0 1.81-.473 2.835-1.19 1.244-.872 1.93-1.878 2.072-2.24.142-.361.57-.298.682-.138l.633.905c.467.666-.482 2.136-2.12 3.283-1.638 1.146-3.344 1.536-3.81.87l-.634-.906zM9.29 2.378c-.965.676-1.87 1.048-2.022.83-.152-.216.507-.94 1.472-1.616.965-.676 1.87-1.048 2.023-.83.152.217-.507.94-1.473 1.616z"/>
</svg>
