<svg xmlns="http://www.w3.org/2000/svg" width="16" height="16" viewBox="0 0 16 16">
    <g fill="none" fill-rule="evenodd">
        <path fill="#000" d="M9 4C7.531 4 6.34 5.187 6.333 6.654l.001.03v1.828l-1.82.163C3.66 8.752 3 9.471 3 10.333 3 11.253 3.746 12 4.667 12h8.666c.921 0 1.667-.746 1.667-1.667 0-.862-.66-1.581-1.513-1.658l-1.821-.163V6.683v-.03C11.66 5.185 10.469 4 9 4zm4.666 2.683C15.535 6.851 17 8.421 17 10.333 17 12.36 15.359 14 13.333 14H4.667C2.642 14 1 12.359 1 10.333c0-1.912 1.465-3.482 3.334-3.65v-.016C4.333 4.089 6.422 2 9 2c2.577 0 4.667 2.09 4.667 4.667l-.001.016z" transform="translate(-1)"/>
    </g>
</svg>
