<svg xmlns="http://www.w3.org/2000/svg" width="16" height="16" viewBox="0 0 16 16"><g fill="none" fill-rule="evenodd"><path fill="#000" d="M7.787 2.005C5.457 2.12 3.622 4.087 3.61 6.48v.73L3 7.266c-1.708.16-3 1.627-3 3.359C0 12.477 1.467 14 3.306 14h9.388C14.534 14 16 12.477 16 10.625l-.005-.185C15.907 8.79 14.647 7.42 13 7.266l-.612-.057v-.725C12.377 4.013 10.429 2 8 2l-.213.005zM8 3.5c1.533 0 2.788 1.24 2.883 2.808l.006.176v2.092l1.972.184c.923.086 1.639.894 1.639 1.865 0 .984-.73 1.79-1.657 1.869l-.149.006H3.306c-.998 0-1.806-.84-1.806-1.875 0-.917.638-1.689 1.487-1.844l.152-.021 1.973-.184v-2.09C5.117 4.836 6.408 3.5 8 3.5z"/></g></svg>