<svg xmlns="http://www.w3.org/2000/svg" width="16" height="16" viewBox="0 0 16 16"><g fill="none" fill-rule="evenodd"><path fill="#000" d="M10.5 16c.472 0 .881-.331.978-.794.097-.462-.14-.928-.572-1.122-1.612-.718-1.65-1.19-1.656-2.362.71.784 1.734 1.278 2.875 1.278C14.265 13 16 11.266 16 9.125c0-2.337-2.056-4.15-4.39-3.84C12.596 2.762 10.74 0 8 0 5.256 0 3.406 2.766 4.39 5.284 2.054 4.975 0 6.791 0 9.125 0 11.265 1.734 13 3.875 13c1.14 0 2.166-.494 2.875-1.278-.003 1.147-.025 1.637-1.656 2.362-.432.191-.669.66-.572 1.122.097.463.506.794.978.794h5z"/></g></svg>