<svg xmlns="http://www.w3.org/2000/svg" width="16" height="16" viewBox="0 0 16 16">
    <path fill="#000" fill-rule="nonzero" d="M8 12.333a3.273 3.273 0 0 1-3.28-3.865L.154 3.9A1.987 1.987 0 0 0 0 4.667V13a2.002 2.002 0 0 0 2 2h9.586l-3.054-2.72c-.175.032-.353.05-.532.053zM16 5a2.002 2.002 0 0 0-2-2h-1.643l-1.334-2H4.977L3.643 2.667 1.138.195a.667.667 0 0 0-.943.943l14.667 14.667a.667.667 0 0 0 .943-.943l-.262-.262c.296-.356.457-.804.457-1.267V5zm-9.169.889c.373-.145.77-.22 1.169-.222A3.333 3.333 0 0 1 11.333 9c-.002.4-.077.796-.222 1.169l-4.28-4.28zM13.5 6.5a1 1 0 1 1 0-2 1 1 0 0 1 0 2z"/>
</svg>
