<svg xmlns="http://www.w3.org/2000/svg" width="16" height="16" viewBox="0 0 16 16">
    <g fill="none" fill-rule="evenodd">
        <path fill="#000" d="M8 12.333c-1.84 0-3.333-1.492-3.333-3.333 0-.182.025-.358.054-.532L.154 3.901c-.098.236-.153.495-.153.766v8.666c0 1.103.897 2 2 2h9.586L8.533 12.28c-.175.029-.35.054-.533.054zm8-7.666c0-1.103-.897-2-2-2h-1.643l-1.334-2H4.977l-1.334 2H3.61L1.14.195c-.262-.26-.683-.26-.944 0-.26.261-.26.682 0 .943l14.667 14.667c.13.13.3.195.471.195.17 0 .342-.065.472-.195.26-.261.26-.682 0-.943l-.262-.261c.285-.346.457-.786.457-1.268V4.667zm-4.889 5.502l-4.28-4.28c.364-.139.756-.222 1.169-.222 1.84 0 3.333 1.492 3.333 3.333 0 .413-.083.805-.222 1.169zM13.333 6c-.368 0-.666-.299-.666-.667 0-.368.298-.666.666-.666.368 0 .667.298.667.666 0 .368-.299.667-.667.667z"/>
    </g>
</svg>
