<svg xmlns="http://www.w3.org/2000/svg" width="16" height="16" viewBox="0 0 16 16">
    <g fill="none" fill-rule="evenodd">
        <path fill="#000" d="M14.5 15c.828 0 1.5-.672 1.5-1.5v-9c0-.828-.672-1.5-1.5-1.5h-2.75l-.388-1.028C11.144 1.388 10.584 1 9.96 1H6.037c-.625 0-1.184.388-1.403.972L4.25 3H1.5C.672 3 0 3.672 0 4.5v9c0 .828.672 1.5 1.5 1.5h13zM8 12.75c-2.069 0-3.75-1.681-3.75-3.75S5.931 5.25 8 5.25 11.75 6.931 11.75 9 10.069 12.75 8 12.75zm0-1c1.516 0 2.75-1.234 2.75-2.75S9.516 6.25 8 6.25 5.25 7.484 5.25 9 6.484 11.75 8 11.75zM6.5 9.5c-.275 0-.5-.225-.5-.5 0-1.103.897-2 2-2 .275 0 .5.225.5.5S8.275 8 8 8c-.55 0-1 .45-1 1 0 .275-.225.5-.5.5z"/>
    </g>
</svg>
