<svg height="16" viewBox="0 0 16 16" width="16" xmlns="http://www.w3.org/2000/svg"><path d="m8 12.333a3.273 3.273 0 0 1 -3.28-3.865l-4.566-4.568a1.987 1.987 0 0 0 -.154.767v8.333a2.002 2.002 0 0 0 2 2h9.586l-3.054-2.72c-.175.032-.353.05-.532.053zm8-7.333a2.002 2.002 0 0 0 -2-2h-1.643l-1.334-2h-6.046l-1.334 1.667-2.505-2.472a.667.667 0 0 0 -.943.943l14.667 14.667a.667.667 0 0 0 .943-.943l-.262-.262c.296-.356.457-.804.457-1.267zm-9.169.889c.373-.145.77-.22 1.169-.222a3.333 3.333 0 0 1 3.333 3.333c-.002.4-.077.796-.222 1.169zm6.669.611a1 1 0 1 1 0-2 1 1 0 0 1 0 2z"/></svg>