<svg xmlns="http://www.w3.org/2000/svg" width="16" height="16" viewBox="0 0 16 16"><g fill="none" fill-rule="evenodd"><path fill="#000" d="M10.484 15.997c.485 0 .913-.338 1.003-.813.088-.456-.15-.912-.575-1.1-1.612-.718-1.65-1.19-1.656-2.362.731.806 1.797 1.306 2.978 1.275 2.11-.053 3.772-1.766 3.772-3.875 0-1.006-.381-1.913-1-2.597-.681-.744-4.987-4.887-6.49-6.319-.291-.275-.744-.275-1.035 0C5.981 1.638 1.675 5.781 1 6.528c-.603.666-1 1.544-1 2.519C0 11.25 1.716 12.99 3.86 13c1.146.003 2.177-.49 2.89-1.278-.003 1.144-.025 1.634-1.638 2.356-.44.197-.693.675-.584 1.144.103.453.51.775.975.775h4.981z"/></g></svg>