<svg xmlns="http://www.w3.org/2000/svg" width="16" height="16" viewBox="0 0 16 16">
    <path fill="#000" fill-rule="nonzero" d="M6 6.667A.667.667 0 1 0 6 8a.667.667 0 0 0 0-1.333zm6.667-4c-.35 0-.681.068-.998.168A5.25 5.25 0 0 0 8 1.333a5.259 5.259 0 0 0-3.774 1.601A2.979 2.979 0 0 0 3 2.667a2.995 2.995 0 1 0-.107 5.99c.222.624.598 1.19 1.107 1.642v.368c0 2.205 1.795 4 4 4s4-1.795 4-4v-.368c.32-.284.58-.618.79-.978A3.327 3.327 0 0 0 16 6.001a3.334 3.334 0 0 0-3.333-3.334zm-10 4.121V7.3a1.669 1.669 0 0 1-1.334-1.633c0-.918.748-1.666 1.667-1.666.135 0 .265.02.391.051a5.513 5.513 0 0 0-.724 2.736zm8 2.84v1.039a2.667 2.667 0 0 1-5.334 0v-1.04c-.911-.533-1.49-1.58-1.295-2.744.219-1.304 1.423-2.216 2.745-2.216L8 5.333l1.217-.666c1.322 0 2.526.912 2.745 2.216.195 1.165-.384 2.211-1.295 2.744zm2.666-1.75v-1.09a5.514 5.514 0 0 0-.75-2.78c.029 0 .056-.008.084-.008 1.102 0 2 .897 2 2 0 .868-.56 1.6-1.334 1.877zM10 6.666A.667.667 0 1 0 10 8a.667.667 0 0 0 0-1.333z"/>
</svg>
