<svg xmlns="http://www.w3.org/2000/svg" width="16" height="16" viewBox="0 0 16 16"><g fill="none" fill-rule="evenodd"><path fill="#000" d="M8 15.75c1.998 0 3.819-.756 5.193-1.997.16-.144.167-.393.015-.545l-.617-.617c-.14-.14-.367-.15-.515-.017-1.083.965-2.51 1.551-4.076 1.551-3.385 0-6.125-2.74-6.125-6.125S4.615 1.875 8 1.875c2.486 0 4.623 1.478 5.584 3.603l-3.95-.094c-.21-.005-.384.164-.384.375v.866c0 .207.168.375.375.375h6c.207 0 .375-.168.375-.375v-6c0-.207-.168-.375-.375-.375h-.866c-.21 0-.38.173-.375.384l.073 3.08C13.065 1.62 10.681.242 7.975.25 3.713.263.243 3.75.25 8.012.257 12.287 3.724 15.75 8 15.75z"/></g></svg>