<svg xmlns="http://www.w3.org/2000/svg" width="16" height="16" viewBox="0 0 16 16">
    <path fill="#000" fill-rule="evenodd" d="M11.333 0A2.667 2.667 0 0 1 14 2.667v10.666A2.667 2.667 0 0 1 11.333 16H4.667A2.667 2.667 0 0 1 2 13.333V2.667A2.667 2.667 0 0 1 4.667 0h6.666zM8 4c-.984 0-1.786.785-1.786 1.75S7.016 7.5 8 7.5s1.786-.785 1.786-1.75S8.984 4 8 4zm-2.5 6.47V11h5v-.53C10.5 9.219 9.379 8.2 8 8.2s-2.5 1.019-2.5 2.27zm3.833 4.197H6.667A.669.669 0 0 1 6 14c0-.367.3-.667.667-.667h2.666c.367 0 .667.3.667.667 0 .367-.3.667-.667.667zM12 12H4V3h8v9z"/>
</svg>
