<svg xmlns="http://www.w3.org/2000/svg" width="16" height="16" viewBox="0 0 16 16"><g fill="none" fill-rule="evenodd"><path fill="#000" fill-rule="nonzero" d="M12.5 16c.828 0 1.5-.672 1.5-1.5v-13c0-.828-.672-1.5-1.5-1.5h-9C2.672 0 2 .672 2 1.5v13c0 .828.672 1.5 1.5 1.5h9zm0-1.5h-9v-13h9v13zM8 7c1.103 0 2-.897 2-2s-.897-2-2-2-2 .897-2 2 .897 2 2 2zm2.8 4c.387 0 .7-.269.7-.6v-.6c0-.994-.94-1.8-2.1-1.8-.338 0-.584.25-1.4.25-.84 0-1.044-.25-1.4-.25-1.16 0-2.1.806-2.1 1.8v.6c0 .331.312.6.7.6h5.6z"/><circle cx="8" cy="13" r="1" fill="#000"/></g></svg>