<svg xmlns="http://www.w3.org/2000/svg" width="16" height="16" viewBox="0 0 16 16">
    <path fill="#000" fill-rule="nonzero" d="M12.345 8.901c.41-.291.726-.709.88-1.2a2.68 2.68 0 0 0 1.078-1.034h.363a1.333 1.333 0 0 0 0-2.667h-.37a2.658 2.658 0 0 0-2.297-1.333h-2c-.982 0-1.833.54-2.296 1.333h-.37a1.333 1.333 0 1 0 0 2.667h.363c.193.331.451.619.763.84C5.82 8.813 4 11.522 4 14.667H2A.667.667 0 0 1 1.333 14V2c0-.368.3-.667.667-.667h1.333a.667.667 0 0 1 0 1.334.666.666 0 1 0 0 1.333c1.103 0 2-.897 2-2s-.897-2-2-2H2C.897 0 0 .897 0 2v12c0 1.103.897 2 2 2h10.667c0-.87-.558-1.602-1.334-1.877v-3.438l1.268 1.152A4.286 4.286 0 0 1 14 15a1 1 0 1 0 2 0 6.287 6.287 0 0 0-2.054-4.643l-1.601-1.456z"/>
</svg>
