<svg xmlns="http://www.w3.org/2000/svg" width="24" height="24" viewBox="0 0 24 24"><g fill="none" fill-rule="evenodd"><path fill="#000" d="M12 3c-4.97 0-9 4.03-9 9s4.03 9 9 9 9-4.03 9-9-4.03-9-9-9zm4.167 12c.339 0 .644.316.772.599.127.283.052.476-.191.689-2.657 2.283-6.839 2.283-9.496 0-.243-.213-.318-.406-.19-.69.127-.282.432-.598.771-.598h8.334zM8.5 9c.828 0 1.5.672 1.5 1.5S9.328 12 8.5 12 7 11.328 7 10.5 7.672 9 8.5 9zm7 3c-.828 0-1.5-.672-1.5-1.5S14.672 9 15.5 9s1.5.672 1.5 1.5-.672 1.5-1.5 1.5z"/></g></svg>