<svg xmlns="http://www.w3.org/2000/svg" width="24" height="24" viewBox="0 0 24 24">
    <path fill="#000" fill-rule="evenodd" d="M8.147 18.52c1.099.002 1.702.002 2.217.002 4.97 0 9-4.068 9-9.087 0-.19-.005-.378-.017-.564A7.448 7.448 0 0 1 21 13.565c0 1.33-.307 2.6-.95 3.657-.836 1.37.92 2.02.92 2.833 0 .725-.466.94-1.588.94-1.369 0-4.276.005-5.746.005a7.314 7.314 0 0 1-5.49-2.48zM10.364 2c4.067 0 7.364 3.328 7.364 7.435 0 4.106-3.297 7.435-7.364 7.435-1.47 0-4.377-.006-5.745-.006-1.123 0-1.588-.214-1.588-.939 0-.812 1.755-1.463.92-2.833C3.307 12.036 3 10.764 3 9.435 3 5.328 6.297 2 10.364 2zM10 11c0-.556-.504-1-1.126-1h-.748C7.509 10 7 10.448 7 11c0 .556.504 1 1.126 1h.748C9.491 12 10 11.552 10 11zM8.286 7C7.576 7 7 7.448 7 8s.576 1 1.286 1h3.428C12.424 9 13 8.552 13 8s-.576-1-1.286-1H8.286z"/>
</svg>
