<svg xmlns="http://www.w3.org/2000/svg" width="24" height="24" viewBox="0 0 24 24"><g fill="none" fill-rule="evenodd"><path fill="#000" d="M21 13.598c0 1.317-.309 2.576-.956 3.623-.84 1.356.925 2 .925 2.805 0 .719-.468.93-1.596.93h-.626c-1.503.002-3.87.006-5.15.006-1.429 0-2.763-.402-3.894-1.1h.013l.27.001h.955c4.791 0 9.144-3.517 9.822-8.119.155.592.237 1.214.237 1.854zM10.923 2C15.298 2 19 5.513 19 9.847 19 14.181 15.298 18 10.923 18c-1.384 0-3.952-.005-5.558-.006H4.74c-1.207 0-1.708-.226-1.708-.992 0-.857 1.888-1.849.99-3.295C3.33 12.592 3 11.25 3 9.847 3 5.513 6.547 2 10.923 2zM9.5 11h-1c-.828 0-1.5.672-1.5 1.5S7.672 14 8.5 14h1c.828 0 1.5-.672 1.5-1.5S10.328 11 9.5 11zm3-4h-4C7.672 7 7 7.672 7 8.5S7.672 10 8.5 10h4c.828 0 1.5-.672 1.5-1.5S13.328 7 12.5 7z"/></g></svg>