<svg xmlns="http://www.w3.org/2000/svg" width="24" height="24" viewBox="0 0 24 24">
    <path fill="#000" fill-rule="evenodd" d="M8.57 19.004l1.968.002c4.997 0 9.497-3.987 9.497-8.957v-.09A7.3 7.3 0 0 1 21 13.6c0 1.316-.309 2.575-.956 3.622-.84 1.356.925 2 .925 2.805 0 .719-.468.93-1.596.93-1.376 0-4.298.006-5.776.006a7.398 7.398 0 0 1-5.028-1.958zM10.403 2c4.089 0 7.548 3.296 7.548 7.364 0 4.067-3.46 7.65-7.548 7.65-1.478 0-4.401-.006-5.777-.006-1.128 0-1.596-.212-1.596-.93 0-.805 1.764-1.736.925-3.092C3.31 11.94 3 10.68 3 9.364 3 5.296 6.314 2 10.404 2zm0 9.409c0-.683-.553-1.227-1.235-1.227h-.821c-.677 0-1.235.55-1.235 1.227 0 .682.553 1.227 1.235 1.227h.82c.677 0 1.236-.55 1.236-1.227zm-2.057-4.5a1.23 1.23 0 0 0-1.234 1.227 1.23 1.23 0 0 0 1.234 1.228h3.29a1.23 1.23 0 0 0 1.234-1.228 1.23 1.23 0 0 0-1.234-1.227h-3.29z"/>
</svg>
