<svg xmlns="http://www.w3.org/2000/svg" width="24" height="24" viewBox="0 0 24 24">
    <path fill="#000" fill-rule="evenodd" d="M9.703 19.863h1.238c4.791 0 9.144-3.517 9.822-8.119A7.34 7.34 0 0 1 21 13.598c0 1.317-.309 2.576-.956 3.623-.84 1.356.925 2 .925 2.805 0 .719-.468.93-1.596.93-1.376 0-4.298.006-5.776.006a7.398 7.398 0 0 1-3.894-1.1zM10.923 2C15.298 2 19 5.513 19 9.847 19 14.181 15.298 18 10.923 18c-1.582 0-4.71-.006-6.182-.006-1.207 0-1.708-.226-1.708-.992 0-.857 1.888-1.849.99-3.295C3.33 12.592 3 11.25 3 9.847 3 5.513 6.547 2 10.923 2zM8.5 7a1.5 1.5 0 0 0 0 3h4a1.5 1.5 0 0 0 0-3h-4zm0 4a1.5 1.5 0 0 0 0 3h1a1.5 1.5 0 0 0 0-3h-1z"/>
</svg>
