<svg xmlns="http://www.w3.org/2000/svg" width="24" height="24" viewBox="0 0 24 24">
    <path fill="#000" fill-rule="evenodd" d="M20.763 11.744c.155.592.237 1.214.237 1.854 0 1.317-.309 2.576-.956 3.623-.84 1.356.925 2 .925 2.805 0 .719-.468.93-1.596.93h-.626c-1.503.002-3.87.006-5.15.006-1.39 0-2.691-.38-3.802-1.044l-.079-.055h1.225c4.791 0 9.144-3.517 9.822-8.119zM10.923 2C15.298 2 19 5.513 19 9.847 19 14.181 15.298 18 10.923 18c-1.384 0-3.952-.005-5.558-.006H4.74c-1.207 0-1.708-.226-1.708-.992 0-.857 1.888-1.849.99-3.295C3.33 12.592 3 11.25 3 9.847 3 5.513 6.547 2 10.923 2zM9.5 11h-1a1.5 1.5 0 0 0 0 3h1a1.5 1.5 0 0 0 0-3zm3-4h-4a1.5 1.5 0 0 0-.144 2.993L8.5 10h4a1.5 1.5 0 0 0 0-3z"/>
</svg>
