<svg xmlns="http://www.w3.org/2000/svg" width="24" height="24" viewBox="0 0 24 24">
    <path fill="#000" fill-rule="evenodd" d="M2 15.833v.71a2 2 0 0 0 .892 1.664l.35.234a.8.8 0 0 0 1.243-.666v-2.7a3.938 3.938 0 0 1 .95-2.497C3.412 13.136 2 14.384 2 15.833zm13.544-9.221a3.612 3.612 0 1 0-7.223 0 3.612 3.612 0 0 0 7.223 0zm-8.69.71c0-.338.034-.674.101-1.004a2.673 2.673 0 0 0-.875-.158 2.709 2.709 0 1 0 2.034 4.479 5.003 5.003 0 0 1-1.26-3.318zm11.712 5.256c.605.712.938 1.586.95 2.487v2.71a.8.8 0 0 0 1.242.666l.348-.23A2 2 0 0 0 22 16.544v-.723c0-1.444-1.413-2.687-3.434-3.243zm2.172-3.709A2.712 2.712 0 0 0 18.03 6.16a2.673 2.673 0 0 0-.874.158 5.006 5.006 0 0 1-1.16 4.32 2.697 2.697 0 0 0 4.743-1.769zm-8.799 2.709c-3.197 0-5.506 2.075-5.506 4.064v1.689a2 2 0 0 0 1.06 1.765c1.257.669 2.662 1.003 4.216 1.003 1.597 0 3.15-.353 4.662-1.06a2 2 0 0 0 1.153-1.811v-1.586c0-1.99-2.387-4.064-5.585-4.064z"/>
</svg>
