<svg xmlns="http://www.w3.org/2000/svg" width="24" height="24" viewBox="0 0 24 24">
    <path fill="#000" fill-rule="evenodd" d="M2 15.833v.71a2 2 0 0 0 .892 1.664l.35.234a.8.8 0 0 0 1.243-.666v-2.7a3.938 3.938 0 0 1 .95-2.497C3.412 13.136 2 14.384 2 15.833zm13.544-9.221a3.612 3.612 0 1 0-7.223 0 3.612 3.612 0 0 0 7.223 0zm-8.69.71c0-.338.034-.674.101-1.004a2.673 2.673 0 0 0-.875-.158 2.709 2.709 0 1 0 2.034 4.479 5.003 5.003 0 0 1-1.26-3.318zm11.712 5.256c.605.712.938 1.586.95 2.487v2.71a.8.8 0 0 0 1.242.666l.348-.23A2 2 0 0 0 22 16.544v-.723c0-1.444-1.413-2.687-3.434-3.243zm2.172-3.709A2.712 2.712 0 0 0 18.03 6.16a2.673 2.673 0 0 0-.874.158 5.006 5.006 0 0 1-1.16 4.32 2.697 2.697 0 0 0 4.743-1.769zM11.961 12C8.791 12 6.5 14.009 6.5 15.935v1.582a2 2 0 0 0 1.086 1.78c1.238.635 2.62.953 4.147.953 1.573 0 3.103-.337 4.593-1.012a2 2 0 0 0 1.174-1.822v-1.481c0-1.926-2.368-3.935-5.539-3.935z"/>
</svg>
