<svg xmlns="http://www.w3.org/2000/svg" width="24" height="24" viewBox="0 0 24 24"><g fill="none" fill-rule="evenodd"><path fill="#000" d="M2 15.833v.71c0 .669.335 1.294.892 1.664l.35.234c.368.245.864.145 1.109-.223.087-.13.134-.285.134-.443v-2.7c.011-.905.344-1.782.95-2.497C3.412 13.136 2 14.384 2 15.833zm13.544-9.221C15.544 4.617 13.927 3 11.932 3 9.938 3 8.321 4.617 8.321 6.612c.002 1.994 1.618 3.61 3.611 3.611 1.995 0 3.612-1.617 3.612-3.611zm-8.69.71c0-.338.034-.674.101-1.004-.28-.101-.576-.154-.875-.158-1.253-.007-2.347.845-2.647 2.061-.3 1.217.274 2.48 1.388 3.055 1.113.575 2.475.311 3.293-.637-.811-.915-1.26-2.095-1.26-3.318zm11.712 5.256c.605.712.938 1.586.95 2.487v2.71c0 .442.357.8.8.8.157 0 .31-.047.442-.134l.348-.23c.558-.37.894-.997.894-1.667v-.723c0-1.444-1.413-2.687-3.434-3.243zm2.172-3.709c-.002-1.495-1.213-2.707-2.709-2.709-.298.004-.594.057-.874.158.314 1.542-.115 3.143-1.16 4.32.737.858 1.93 1.165 2.989.77s1.759-1.409 1.754-2.539zM11.961 12C8.791 12 6.5 14.009 6.5 15.935v1.582c0 .75.42 1.437 1.086 1.78 1.238.635 2.62.953 4.147.953 1.573 0 3.103-.337 4.593-1.012.715-.324 1.174-1.037 1.174-1.822v-1.481c0-1.926-2.368-3.935-5.539-3.935z"/></g></svg>