<svg xmlns="http://www.w3.org/2000/svg" width="24" height="24" viewBox="0 0 24 24">
    <path fill="#000" fill-rule="evenodd" d="M2 17.042c0 .627.3 1.217.809 1.587l.433.315a.782.782 0 0 0 1.243-.633v-2.098a4.534 4.534 0 0 1 .95-2.725C3.412 14.098 2 15.459 2 17.042zm13.544-9.43a3.612 3.612 0 1 0-7.223 0 3.612 3.612 0 0 0 7.223 0zm-8.69.71c0-.338.034-.674.101-1.004a2.673 2.673 0 0 0-.875-.158 2.709 2.709 0 1 0 2.034 4.479 5.003 5.003 0 0 1-1.26-3.318zm11.712 5.166c.605.78.938 1.738.95 2.725v2.098a.782.782 0 0 0 1.242.633l.433-.315c.508-.37.809-.96.809-1.587 0-1.583-1.413-2.945-3.434-3.554zm2.172-3.619A2.712 2.712 0 0 0 18.03 7.16a2.673 2.673 0 0 0-.874.158 5.006 5.006 0 0 1-1.16 4.32 2.697 2.697 0 0 0 4.743-1.769zm-8.799 2.709c-3.197 0-5.798 1.747-5.798 3.895v1.238a2 2 0 0 0 1.043 1.756 9.308 9.308 0 0 0 4.525 1.156c1.632 0 3.267-.4 4.904-1.196a2 2 0 0 0 1.124-1.798v-1.156c0-2.148-2.6-3.895-5.798-3.895z"/>
</svg>
