<svg xmlns="http://www.w3.org/2000/svg" width="24" height="24" viewBox="0 0 24 24"><g fill="none" fill-rule="evenodd"><path fill="#000" d="M18.58 3c.433 0 .784.569.784 1 0 .431-.351 1-.784 1H7.062c-.433.01-1.046.126-1.046 1.023 0 .949.687.98 1.12.98h12.296c.866 0 1.568.785 1.568 1.648V12h-5.462c-1.325 0-2.41 1.032-2.494 2.336l-.006.164c0 1.38 1.12 2.5 2.5 2.5H21v1.505c0 .815-.626 1.428-1.425 1.494l-.143.006H5.352c-1.299 0-2.352-1.106-2.352-2.4V5.343C3.004 4.051 4.055 3.003 5.352 3zm-4.292 11.561c0-.69.56-1.25 1.25-1.25s1.25.56 1.25 1.25-.56 1.25-1.25 1.25-1.25-.56-1.25-1.25z"/></g></svg>