<svg xmlns="http://www.w3.org/2000/svg" width="24" height="24" viewBox="0 0 24 24">
    <path fill="#000" fill-rule="evenodd" d="M15.044 11.617H13.8a3.992 3.992 0 0 1-3.965-3.662A3.201 3.201 0 1 0 5.107 4.38C4.737 5.778 5.516 7.43 7 7.973v7.288c-1.415.303-2.265 2.2-1.89 3.6a3.2 3.2 0 1 0 4.69-3.6V13.6a7.158 7.158 0 0 0 4 1.217h1.244a3.195 3.195 0 1 0 2.756-4.8 3.186 3.186 0 0 0-2.756 1.6zm-6.844 7.6a1.2 1.2 0 1 1 0-2.4 1.2 1.2 0 0 1 0 2.4zm-1.2-14a1.2 1.2 0 1 1 2.4 0 1.2 1.2 0 0 1-2.4 0zm10.8 9.2a1.2 1.2 0 1 1 0-2.4 1.2 1.2 0 0 1 0 2.4z"/>
</svg>
