<svg xmlns="http://www.w3.org/2000/svg" width="24" height="24" viewBox="0 0 24 24"><g fill="none" fill-rule="evenodd"><path fill="#000" d="M15.444 12.001h-1.293c-2.155-.007-3.946-1.661-4.124-3.809 1.293-.766 1.911-2.304 1.51-3.753C11.135 2.991 9.813 1.991 8.31 2c-1.503.009-2.814 1.023-3.2 2.476-.384 1.453.426 3.17 1.97 3.736v7.578c-1.472.315-2.357 2.289-1.967 3.744C5.503 20.988 6.821 22 8.327 22c1.507 0 2.825-1.012 3.215-2.466.39-1.455-.246-2.99-1.55-3.744v-1.727c1.229.826 2.677 1.267 4.159 1.266h1.293c.81 1.393 2.504 2.004 4.017 1.449 1.513-.555 2.409-2.116 2.126-3.703-.284-1.586-1.665-2.74-3.276-2.738-1.184.003-2.277.637-2.867 1.664zm-7.117 7.903c-.689 0-1.247-.558-1.247-1.247 0-.69.558-1.248 1.247-1.248.69 0 1.248.558 1.248 1.248 0 .688-.559 1.247-1.248 1.247zM7.08 5.346c0-.69.558-1.248 1.247-1.248.69 0 1.248.558 1.248 1.248 0 .688-.559 1.247-1.248 1.247S7.08 6.035 7.08 5.346zm11.23 9.567c-.689 0-1.247-.559-1.247-1.248 0-.69.558-1.248 1.248-1.248.689 0 1.248.559 1.248 1.248-.001.689-.56 1.247-1.248 1.248z"/></g></svg>