<svg xmlns="http://www.w3.org/2000/svg" width="24" height="24" viewBox="0 0 24 24">
    <path fill="#000" fill-rule="evenodd" d="M15.444 12.001h-1.293a4.151 4.151 0 0 1-4.124-3.809A3.33 3.33 0 1 0 5.11 4.476c-.385 1.453.425 3.17 1.968 3.736v7.578c-1.471.315-2.356 2.289-1.966 3.744a3.328 3.328 0 1 0 4.878-3.744v-1.727a7.443 7.443 0 0 0 4.16 1.266h1.293a3.322 3.322 0 1 0 2.867-4.992 3.314 3.314 0 0 0-2.867 1.664zm-7.117 7.903a1.248 1.248 0 1 1 0-2.495 1.248 1.248 0 0 1 0 2.495zM7.08 5.346a1.248 1.248 0 1 1 2.495 0 1.248 1.248 0 0 1-2.495 0zm11.23 9.567a1.248 1.248 0 1 1 0-2.496 1.248 1.248 0 0 1 0 2.496z"/>
</svg>
