<svg xmlns="http://www.w3.org/2000/svg" width="24" height="24" viewBox="0 0 24 24"><g fill="none" fill-rule="evenodd"><path fill="#000" d="M10.997 17l.023-6.995c.005-1.653 1.346-2.99 3-2.99H20V6c0-1.105-.895-2-2-2H5c-1.105 0-2 .895-2 2v9c0 1.104.895 2 2 2h5.997zm8.273-8c.905.003 1.647.664 1.725 1.582l.006.155v9.453c0 1.125-.7 1.743-1.59 1.805L19.27 22h-4.556c-.907-.003-1.635-.733-1.708-1.662L13 20.19v-9.453c.003-.945.682-1.656 1.565-1.73l.15-.007h4.555zM17 17.75c-.69 0-1.25.56-1.25 1.25s.56 1.25 1.25 1.25 1.25-.56 1.25-1.25-.56-1.25-1.25-1.25zM11 17v3H3l-.15-.005C1.815 19.918 1 19.054 1 18l.001-1H11z"/></g></svg>