<svg xmlns="http://www.w3.org/2000/svg" width="24" height="24" viewBox="0 0 24 24">
    <path fill="#000" fill-rule="evenodd" d="M10.997 17l.023-6.995a3 3 0 0 1 3-2.99H20V6a2 2 0 0 0-2-2H5a2 2 0 0 0-2 2v9a2 2 0 0 0 2 2h5.997zm3.717-8h4.556a1.711 1.711 0 0 1 1.725 1.582l.006.155v9.453c0 1.125-.7 1.743-1.59 1.805L19.27 22h-4.556c-.907-.003-1.635-.733-1.708-1.662L13 20.19v-9.453c.003-.945.682-1.656 1.565-1.73l.15-.007h4.555zM17 17.75a1.25 1.25 0 1 0 0 2.5 1.25 1.25 0 0 0 0-2.5zM11 17v3H3l-.15-.005A1.999 1.999 0 0 1 1 18l.001-1H11z"/>
</svg>
