<svg xmlns="http://www.w3.org/2000/svg" width="24" height="24" viewBox="0 0 24 24">
    <path fill="#000" fill-rule="evenodd" d="M20.4 13.848l-1.27-.984c.04-.286.062-.575.063-.864a6.201 6.201 0 0 0-.064-.864l1.27-.984c.61-.46.776-1.268.392-1.908l-.919-1.503c-.391-.637-1.217-.914-1.95-.653l-1.541.54a7.452 7.452 0 0 0-1.598-.87l-.264-1.503C14.39 3.523 13.71 2.99 12.921 3h-1.838c-.789-.01-1.468.523-1.598 1.255l-.263 1.502a7.452 7.452 0 0 0-1.598.872l-1.542-.541c-.733-.261-1.558.016-1.95.653l-.919 1.503c-.389.635-.233 1.441.368 1.908l1.27.984a6.198 6.198 0 0 0-.04.864c.001.289.023.578.064.864l-1.27.984c-.61.46-.775 1.268-.392 1.908l.919 1.503c.392.637 1.217.914 1.95.653l1.542-.54a7.452 7.452 0 0 0 1.598.87l.263 1.503c.13.732.81 1.265 1.598 1.255h1.838c.79.01 1.468-.523 1.598-1.255l.264-1.502c.57-.22 1.108-.511 1.598-.864l1.542.54c.732.262 1.558-.015 1.95-.653l.918-1.502c.388-.643.222-1.455-.391-1.916zM12 15a3 3 0 1 1 0-6 3 3 0 0 1 0 6z"/>
</svg>
