<svg xmlns="http://www.w3.org/2000/svg" width="16" height="16" viewBox="0 0 16 16"><g fill="none" fill-rule="evenodd"><path fill="#000" d="M12.753 8.39l3.137-3.125c.147-.146.147-.384 0-.53L12.753 1.61c-.146-.147-.383-.147-.53 0l-.613.613c-.149.149-.146.39.005.536l1.601 1.491H.375c-.207 0-.375.168-.375.375v.75c0 .207.168.375.375.375h12.841l-1.6 1.491c-.152.146-.155.387-.006.536l.613.613c.147.147.384.147.53 0zm-8.976 6l.613-.613c.149-.149.146-.39-.005-.536L2.784 11.75h12.841c.207 0 .375-.168.375-.375v-.75c0-.207-.168-.375-.375-.375H2.784l1.6-1.491c.152-.146.155-.387.006-.536l-.613-.613c-.147-.147-.384-.147-.53 0L.11 10.735c-.147.146-.147.384 0 .53l3.137 3.125c.146.147.383.147.53 0z"/></g></svg>