<svg xmlns="http://www.w3.org/2000/svg" width="16" height="16" viewBox="0 0 16 16">
    <path fill="#000" fill-rule="evenodd" d="M11.496 8.052a.83.83 0 0 1 .846.161L16 11.5l-3.658 3.287a.83.83 0 0 1-.846.161.739.739 0 0 1-.496-.658v-1.624H6.263c-.69 0-1.25-.522-1.25-1.166 0-.644.56-1.166 1.25-1.166H11V8.71a.739.739 0 0 1 .496-.658zm-6.992-6A.739.739 0 0 1 5 2.71v1.624h4.776c.69 0 1.25.522 1.25 1.166 0 .644-.56 1.166-1.25 1.166H5V8.29a.739.739 0 0 1-.496.658.83.83 0 0 1-.846-.161L0 5.5l3.658-3.287a.83.83 0 0 1 .846-.161z"/>
</svg>
