<svg xmlns="http://www.w3.org/2000/svg" width="16" height="16" viewBox="0 0 16 16">
    <g fill="none" fill-rule="evenodd">
        <path fill="#000" d="M16.345 14.625c.11 0 .254-.07.321-.157l.499-.642c.047-.06.085-.172.085-.249 0-.11-.07-.253-.157-.32l-2.807-2.17c.713-.6 1.637-1.762 2.063-2.592.049-.096.088-.262.088-.37 0-.108-.04-.274-.088-.37-1.377-2.687-4.103-4.505-7.224-4.505-1.1.001-2.775.43-3.74.957l-3.23-2.496c-.061-.048-.173-.086-.25-.086-.11 0-.254.07-.321.157l-.498.642c-.048.06-.086.172-.086.249 0 .11.07.253.157.32L16.096 14.54c.06.048.172.086.25.086zM11.43 8.88c.07-.203.13-.54.132-.755v-.032c0-1.328-1.077-2.406-2.405-2.406-.19 0-.492.044-.675.097.13.176.236.497.237.716-.003.071-.02.185-.04.254L6.812 5.309c.554-.463 1.591-.84 2.314-.84h.002c2.017 0 3.654 1.637 3.654 3.654v.002c0 .47-.098.914-.264 1.324l-.089.202-.998-.771zM9.125 13c.683 0 1.342-.102 1.978-.266l-1.318-1.019c-.18.035-.476.065-.66.066-1.926 0-3.485-1.49-3.628-3.38L2.833 6.344c-.35.44-.672.904-.932 1.412-.049.096-.088.262-.088.37 0 .108.04.274.088.37C3.278 11.183 6.004 13 9.125 13z" transform="translate(-1)"/>
    </g>
</svg>
