<svg xmlns="http://www.w3.org/2000/svg" width="16" height="16" viewBox="0 0 16 16">
    <path fill="#000" fill-rule="evenodd" d="M12.24 11.383C13.868 10.06 15 8.505 15 8c0-.875-3.134-5-7-5-1.22 0-2.061.285-3.203.873L1.996 1.17a.583.583 0 1 0-.825.825l12.833 12.833a.582.582 0 0 0 .825 0 .583.583 0 0 0 0-.825l-2.589-2.62zm-1.64-1.9L6.444 5.421C6.815 5.2 7.507 5 8 5c1.602 0 2.834 1.27 3 2.655.059.49-.166 1.435-.4 1.828zM8.411 11c-2.526.188-3.524-1.94-3.406-3.377.035.033.186.184.454.45.376.374.655.653.836.837.182.184.375.384.58.6.75.728 1.261 1.225 1.536 1.49zm-3.41-3.38l-2.2-2.238C1.7 6.507 1 7.62 1 8c0 .927 3.026 4.803 6.842 5 .603.031 1.623-.197 2.184-.38l-1.57-1.576-.536-.517-.369-.358a84.61 84.61 0 0 1-.615-.603L5.709 8.32c-.462-.455-.698-.688-.708-.7z"/>
</svg>
