<svg xmlns="http://www.w3.org/2000/svg" width="16" height="16" viewBox="0 0 16 16"><g fill="none" fill-rule="evenodd"><path fill="#000" fill-rule="nonzero" d="M16.29 15.323c.116 0 .27-.073.342-.164l.273-.341c.053-.066.097-.19.097-.274 0-.116-.074-.27-.165-.342L1.948 2.096C1.882 2.043 1.759 2 1.675 2c-.116 0-.27.074-.342.164l-.273.342c-.054.066-.097.188-.097.273 0 .116.074.27.165.342l14.889 12.106c.066.053.189.096.273.096zm-1.205-4.5c.478-.51 1.126-1.43 1.446-2.053.053-.104.095-.283.095-.4 0-.115-.042-.294-.095-.398-1.484-2.893-4.42-4.85-7.781-4.85-1.004 0-1.96.19-2.861.513l1.269.993c.518-.118 1.048-.194 1.592-.194 2.697 0 5.17 1.503 6.506 3.937-.272.498-.811 1.236-1.203 1.646l1.032.807zM11.8 8.259c-.06-1.64-1.397-2.95-3.051-2.95-.177 0-.461.031-.635.068l3.686 2.882zM8.75 13.62c1.003 0 1.96-.193 2.86-.514l-1.268-.992c-.518.117-1.048.194-1.592.194-2.697 0-4.998-1.504-6.333-3.938.272-.498.64-1.235 1.032-1.646L2.417 5.92c-.478.51-.969 1.43-1.29 2.053-.052.104-.094.283-.094.4 0 .116.042.294.095.398 1.483 2.894 4.26 4.851 7.622 4.851zm0-2.187c.177 0 .461-.031.635-.068L5.699 8.485c.061 1.639 1.398 2.949 3.051 2.949z" transform="translate(-1)"/></g></svg>