<svg xmlns="http://www.w3.org/2000/svg" width="24" height="24" viewBox="0 0 24 24"><g fill="none" fill-rule="evenodd"><path fill="#000" d="M18.545 12h-5.818l-4.295 2.028L6.909 12H5.455C4.655 12 4 12.675 4 13.5S4.655 15 5.455 15h13.09c.8 0 1.455-.675 1.455-1.5s-.655-1.5-1.455-1.5zm-13.01-2h13.18C19.519 10 20 9.504 20 8.698 20 5.866 16.483 4 12.038 4 7.594 4 4 5.866 4 8.698 4 9.504 4.731 10 5.536 10zm10.47-4c.52 0 .995.443.995.998C17 7.553 16.526 8 16.005 8S15 7.602 15 7s.484-1 1.005-1zm-4.012-1C12.517 5 13 5.448 13 6s-.483 1-1.007 1C11.47 7 11 6.552 11 6s.47-1 .993-1zM8 6c.523 0 1 .444 1 .997C9 7.55 8.523 8 8 8s-1-.45-1-1.003C7 6.444 7.477 6 8 6zm10.545 11H5.455C4.652 17 4 17.235 4 18.118 4 19.444 4.977 20 6.182 20h11.636C19.023 20 20 19.444 20 18.118c0-.883-.652-1.118-1.455-1.118z"/></g></svg>