<svg xmlns="http://www.w3.org/2000/svg" width="24" height="24" viewBox="0 0 24 24">
    <path fill="#000" fill-rule="evenodd" d="M19.364 12h-6.546l-4.832 2.028L6.273 12H4.636C3.736 12 3 12.675 3 13.5S3.736 15 4.636 15h14.728c.9 0 1.636-.675 1.636-1.5s-.736-1.5-1.636-1.5zM4.636 10h14.728c.9 0 1.636-.7 1.636-1.556C21 5.438 16.97 3 12 3S3 5.438 3 8.444C3 9.3 3.736 10 4.636 10zm12.381-4.993c.523 0 1 .441 1 .993s-.477.997-1 .997-1.008-.396-1.008-.995.485-.995 1.008-.995zM12 3.994c.523 0 1.005.448 1.005 1s-.482 1-1.005 1c-.523 0-.991-.448-.991-1s.468-1 .991-1zm-4.992 1.01c.523 0 1 .444 1 .996s-.477 1.001-1 1.001-1-.449-1-1.001c0-.552.477-.995 1-.995zM19.364 17H4.636C3.733 17 3 17.717 3 18.6 3 19.926 4.099 21 5.455 21h13.09C19.901 21 21 19.926 21 18.6c0-.883-.733-1.6-1.636-1.6z"/>
</svg>
