<svg xmlns="http://www.w3.org/2000/svg" width="24" height="24" viewBox="0 0 24 24">
    <path fill="#000" fill-rule="evenodd" d="M19.456 11.011h-6.175l-4.559 2.028-1.616-2.028H5.563c-.85 0-1.544.675-1.544 1.5s.694 1.5 1.544 1.5h13.893c.85 0 1.544-.675 1.544-1.5s-.695-1.5-1.544-1.5zM5.63 9.017h13.905c.849 0 1.356-.498 1.356-1.306C20.89 4.871 17.18 3 12.49 3 7.8 3 4.01 4.871 4.01 7.711c0 .808.771 1.306 1.62 1.306zm11.594-4.121c.493 0 .942.416.942.937a.96.96 0 0 1-.942.942c-.493 0-.952-.374-.952-.94 0-.565.459-.94.952-.94zm-4.733-.958c.493 0 .947.424.947.945 0 .521-.454.944-.947.944a.955.955 0 0 1-.935-.944c0-.521.441-.945.935-.945zm-4.71.956c.494 0 .944.418.944.94 0 .52-.45.945-.943.945a.964.964 0 0 1-.944-.946c0-.521.45-.94.944-.94zM19.438 16H5.544C4.692 16 4 16.717 4 17.6 4 18.926 5.037 20 6.316 20h12.35c1.279 0 2.315-1.074 2.315-2.4 0-.883-.691-1.6-1.544-1.6z"/>
</svg>
