<svg xmlns="http://www.w3.org/2000/svg" width="24" height="24" viewBox="0 0 24 24"><g fill="none" fill-rule="evenodd"><path fill="#000" d="M16.205 13.5c.517 0 .897-.573.772-1.165l-.344-1.622C18.214 9.615 19.25 7.923 19.25 6c0-3.314-3.022-6-6.75-6S5.75 2.686 5.75 6c0 1.922 1.035 3.615 2.618 4.713l-.344 1.622c-.125.592.254 1.165.771 1.165h7.41zm-1.759-2.25h-3.892l.015-.071.31-1.463-1.228-.852C8.6 8.136 8 7.092 8 6c0-2.068 2.019-3.75 4.5-3.75C14.982 2.25 17 3.932 17 6c0 1.092-.602 2.136-1.65 2.864l-1.229.852.31 1.463.015.071zM10.625 7.5c.62 0 1.125-.504 1.125-1.125 0-.62-.504-1.125-1.125-1.125-.62 0-1.125.504-1.125 1.125 0 .62.504 1.125 1.125 1.125zm3.75 0c.62 0 1.125-.504 1.125-1.125 0-.62-.504-1.125-1.125-1.125-.62 0-1.125.504-1.125 1.125 0 .62.504 1.125 1.125 1.125zm8.241 16.064l.315-.68c.174-.376.01-.822-.367-.996l-7.237-3.138 7.237-3.138c.376-.174.54-.62.367-.996l-.315-.68c-.174-.376-.62-.54-.995-.367L12.5 17.524 3.38 13.57c-.377-.173-.823-.009-.996.367l-.315.68c-.174.377-.01.822.367.996l7.237 3.138-7.237 3.138c-.376.174-.54.62-.367.996l.315.68c.174.376.62.54.995.367l9.121-3.955 9.12 3.955c.377.173.823.009.996-.367z"/></g></svg>