<svg xmlns="http://www.w3.org/2000/svg" width="24" height="24" viewBox="0 0 24 24">
    <path fill="#000" fill-rule="evenodd" d="M5.014 11.938c.586.586.872 1.358.86 2.125l6.125 2.479 6.128-2.479a2.937 2.937 0 1 1 .61 1.744l-4.277 1.731 4.277 1.732a2.937 2.937 0 1 1-.61 1.745L12 18.534l-6.127 2.48a2.937 2.937 0 1 1-.61-1.745l4.276-1.731-4.276-1.73a2.937 2.937 0 1 1-.25-3.87zm15.278 8.354a1.09 1.09 0 1 0 1.542 1.542 1.09 1.09 0 0 0-1.542-1.542zm-18.126 0a1.09 1.09 0 1 0 1.542 1.542 1.09 1.09 0 0 0-1.542-1.542zm0-7.049a1.09 1.09 0 1 0 1.542 1.542 1.09 1.09 0 0 0-1.542-1.542zm18.126 0a1.09 1.09 0 1 0 1.542 1.542 1.09 1.09 0 0 0-1.542-1.542zM12 0c3.811 0 6.965 2.602 6.965 5.908 0 1.914-1.074 3.643-2.802 4.734l-.219.133V12a.923.923 0 0 1-.815.917l-.108.006H8.979a.923.923 0 0 1-.917-.815L8.056 12v-1.225C6.2 9.695 5.035 7.901 5.035 5.908 5.035 2.602 8.189 0 12 0zm0 1.846c-2.862 0-5.119 1.862-5.119 4.062 0 1.418.945 2.738 2.496 3.479a.923.923 0 0 1 .518.716l.007.117v.857h4.196v-.857c0-.356.204-.68.525-.833 1.55-.741 2.496-2.06 2.496-3.48 0-2.199-2.257-4.06-5.119-4.06zM10 5c.513 0 .936.384.993.879l.007.116v.01c0 .55-.448.995-1 .995a.998.998 0 0 1-.993-.879L9 6.005v-.01C9 5.445 9.448 5 10 5zm4 0c.513 0 .936.384.993.879l.007.116v.01c0 .55-.448.995-1 .995a.998.998 0 0 1-.993-.879L13 6.005v-.01c0-.55.448-.995 1-.995z"/>
</svg>
