<svg xmlns="http://www.w3.org/2000/svg" width="24" height="24" viewBox="0 0 24 24">
    <path fill="#000" fill-rule="evenodd" d="M14.46 17.539l4.277 1.73a2.937 2.937 0 1 1-.61 1.745L12 18.534l-6.127 2.48a2.937 2.937 0 1 1-.61-1.745l4.276-1.73-4.276-1.731a2.937 2.937 0 1 1 .61-1.745L12 16.543l6.127-2.48a2.937 2.937 0 1 1 .61 1.745l-4.276 1.73zm1.484-6.764V12c0 .51-.413.923-.923.923H8.979A.923.923 0 0 1 8.056 12v-1.225C6.2 9.695 5.035 7.901 5.035 5.908 5.035 2.602 8.189 0 12 0s6.965 2.602 6.965 5.908c0 1.993-1.165 3.787-3.02 4.867zm-6.042.302h4.196v-.857c0-.356.204-.68.525-.833 1.55-.741 2.496-2.06 2.496-3.48 0-2.199-2.257-4.06-5.119-4.06-2.862 0-5.119 1.861-5.119 4.06 0 1.42.945 2.739 2.496 3.48.32.153.525.477.525.833v.857zM9 5.995C9 5.445 9.448 5 10 5s1 .445 1 .995v.01c0 .55-.448.995-1 .995s-1-.445-1-.995v-.01zm4 0c0-.55.448-.995 1-.995s1 .445 1 .995v.01c0 .55-.448.995-1 .995s-1-.445-1-.995v-.01zm7.292 14.297a1.09 1.09 0 1 0 1.542 1.542 1.09 1.09 0 0 0-1.542-1.542zM3.708 14.785a1.09 1.09 0 1 0-1.542-1.542 1.09 1.09 0 0 0 1.542 1.542zm0 5.507a1.09 1.09 0 1 0-1.542 1.542 1.09 1.09 0 0 0 1.542-1.542zm16.584-5.507a1.09 1.09 0 1 0 1.542-1.542 1.09 1.09 0 0 0-1.542 1.542z"/>
</svg>
