<svg xmlns="http://www.w3.org/2000/svg" width="24" height="24" viewBox="0 0 24 24"><g fill="none" fill-rule="evenodd"><path fill="#000" d="M17 0c3.866 0 7 3.134 7 7v10c0 3.866-3.134 7-7 7H7c-3.866 0-7-3.134-7-7V7c0-3.866 3.134-7 7-7h10zm0 2H7C4.239 2 2 4.239 2 7v10c0 2.761 2.239 5 5 5h10c2.761 0 5-2.239 5-5V7c0-2.761-2.239-5-5-5zm1 3c.552 0 1 .522 1 1.166v11.667c0 .645-.448 1.167-1 1.167s-1-.522-1-1.167l.002-6.044c-.131.117-.295.191-.462.191-.16 0-.3-.06-.42-.14l-1.3-.84.08 1.58c.02.42-.36.76-.78.76-.42 0-.8-.32-.78-.76l.08-1.58-1.3.84c-.14.08-.26.14-.42.14-.4 0-.74-.38-.74-.78 0-.28.12-.58.36-.7l1.42-.7-1.42-.7c-.22-.12-.36-.42-.36-.68 0-.42.34-.78.74-.78.16 0 .28 0 .42.1l1.3.88-.08-1.6c-.02-.42.36-.76.78-.76.42 0 .8.32.78.76l-.08 1.6 1.3-.88c.1-.06.26-.1.42-.1.167 0 .331.07.462.184L17 6.166C17 5.522 17.448 5 18 5zM7.36 6.26c.42 0 .8.32.78.76l-.08 1.6 1.3-.88c.1-.06.26-.1.42-.1.38 0 .74.36.74.78 0 .26-.16.56-.38.68l-1.4.7 1.4.7c.24.12.38.42.38.7 0 .4-.36.78-.74.78-.16 0-.3-.06-.42-.14L8.06 11l.08 1.58c.02.42-.36.76-.78.76-.42 0-.8-.32-.78-.76L6.66 11l-1.3.84c-.14.08-.26.14-.42.14-.4 0-.74-.38-.74-.78 0-.28.12-.58.36-.7l1.42-.7-1.42-.7c-.22-.12-.36-.42-.36-.68 0-.42.34-.78.74-.78.16 0 .28 0 .42.1l1.3.88-.08-1.6c-.02-.42.36-.76.78-.76zM16.9 9.1l-1.4.7 1.4.7c.036.018.07.04.101.065V9.03c-.032.028-.066.052-.101.071z"/></g></svg>