<svg xmlns="http://www.w3.org/2000/svg" width="24" height="24" viewBox="0 0 24 24">
    <path fill="#000" fill-rule="evenodd" d="M23.317 19.051a1 1 0 0 1 .632 1.265c-.17.511-.556 1.206-1.242 1.891C21.585 23.33 20.02 24 18 24a1 1 0 0 1 0-2c1.48 0 2.54-.454 3.293-1.207.44-.44.679-.87.759-1.11a1 1 0 0 1 1.265-.632zM13.043 1.543a2.768 2.768 0 0 1 4.406.666 2.766 2.766 0 0 1 3.928 3.71 2.767 2.767 0 0 1 .939 4.145 2.769 2.769 0 0 1 .771 4.254l-.13.14-6.632 6.631a6.529 6.529 0 0 1-6.882 1.507l-.245-.097-4.89-2.038a7 7 0 0 1-4.303-6.197L0 14v-4a3 3 0 0 1 5.761-1.176zm2.5 1.414c-.3-.3-.786-.3-1.086 0l-7.75 7.75a.997.997 0 0 1-.706.293 1 1 0 0 1-1.994.117L4 11v-1a1 1 0 0 0-1.993-.117L2 10v4a5 5 0 0 0 2.873 4.524l.204.091 4.89 2.038a4.529 4.529 0 0 0 4.779-.82l.165-.158 6.632-6.632a.768.768 0 0 0-1-1.16l-.086.074-2.75 2.75a1 1 0 0 1-1.497-1.32l.083-.094 4.366-4.366a.767.767 0 0 0-1-1.16l-.086.074-3.866 3.866a1 1 0 0 1-1.497-1.32l.083-.094 5.25-5.25a.768.768 0 0 0-1-1.16l-.086.074-5.75 5.75a1 1 0 0 1-1.497-1.32l.083-.094 4.25-4.25c.3-.3.3-.786 0-1.086zM9 0a1 1 0 1 1 0 2c-1.48 0-2.54.454-3.293 1.207-.44.44-.678.87-.758 1.11a1 1 0 0 1-1.897-.633c.17-.511.556-1.206 1.241-1.891C5.415.67 6.981 0 9 0z"/>
</svg>
