<svg xmlns="http://www.w3.org/2000/svg" width="24" height="24" viewBox="0 0 24 24">
    <path fill="#000" fill-rule="evenodd" d="M5.761 8.825l7.282-7.282a2.768 2.768 0 0 1 4.406.665 2.77 2.77 0 0 1 3.928 3.71 2.767 2.767 0 0 1 .939 4.146 2.768 2.768 0 0 1 .641 4.393l-6.632 6.632a6.529 6.529 0 0 1-7.127 1.41l-4.89-2.038A7 7 0 0 1 0 14v-4a3 3 0 0 1 5.761-1.175zM6.001 11a1 1 0 0 1-2 0v-1a1 1 0 0 0-2 0v4a5 5 0 0 0 3.076 4.615l4.89 2.038a4.529 4.529 0 0 0 4.944-.978l6.632-6.632a.768.768 0 0 0-1.086-1.086l-2.75 2.75a1 1 0 0 1-1.414-1.414l1.616-1.616 2.75-2.75a.767.767 0 1 0-1.086-1.086l-3.866 3.866a1 1 0 0 1-1.414-1.414l2.5-2.5 2.75-2.75a.768.768 0 0 0-1.086-1.086l-5.75 5.75a1 1 0 1 1-1.414-1.414l1.5-1.5 2.75-2.75a.768.768 0 0 0-1.086-1.086l-7.75 7.75A.997.997 0 0 1 6 11zM4.948 4.316a1 1 0 0 1-1.897-.632c.17-.511.556-1.206 1.241-1.891C5.415.67 6.981 0 9 0a1 1 0 1 1 0 2c-1.48 0-2.54.454-3.293 1.207-.44.44-.678.87-.758 1.11zm17.103 15.368a1 1 0 1 1 1.897.632c-.17.511-.556 1.206-1.242 1.891C21.585 23.33 20.02 24 18 24a1 1 0 0 1 0-2c1.48 0 2.54-.454 3.293-1.207.44-.44.679-.87.759-1.11z"/>
</svg>
