<svg xmlns="http://www.w3.org/2000/svg" width="24" height="24" viewBox="0 0 24 24"><g fill="none" fill-rule="evenodd"><path fill="#000" d="M22.052 19.684c.174-.524.74-.807 1.265-.633.523.175.807.741.632 1.265-.17.511-.556 1.206-1.242 1.891C21.585 23.33 20.02 24 18 24c-.552 0-1-.448-1-1s.448-1 1-1c1.48 0 2.54-.454 3.293-1.207.44-.44.679-.87.759-1.11zM13.043 1.543c1.08-1.08 2.834-1.08 3.914 0 .202.202.366.427.492.666 1.076-.732 2.554-.62 3.508.334.916.915 1.056 2.314.42 3.377.25.127.486.296.696.506.994.993 1.075 2.553.243 3.639.23.123.446.283.641.478 1.08 1.08 1.08 2.834 0 3.914l-6.632 6.632c-1.87 1.87-4.686 2.428-7.127 1.41l-4.89-2.038C1.699 19.374 0 16.826 0 14v-4c0-1.656 1.344-3 3-3 1.24 0 2.304.752 2.761 1.824zm2.5 1.414c-.3-.3-.786-.3-1.086 0l-7.75 7.75c-.195.195-.45.293-.706.293 0 .552-.448 1-1 1-.553 0-1-.448-1-1v-1c0-.552-.449-1-1-1-.552 0-1 .448-1 1v4c0 2.018 1.213 3.838 3.076 4.615l4.89 2.038c1.694.706 3.647.32 4.944-.978l6.632-6.632c.3-.3.3-.786 0-1.086-.3-.3-.786-.3-1.086 0l-2.75 2.75c-.39.39-1.023.39-1.414 0-.39-.39-.39-1.024 0-1.414l4.366-4.366c.3-.3.3-.786 0-1.086-.3-.3-.785-.3-1.086 0l-3.866 3.866c-.39.39-1.023.39-1.414 0-.39-.39-.39-1.024 0-1.414l5.25-5.25c.3-.3.3-.786 0-1.086-.3-.3-.786-.3-1.086 0l-5.75 5.75c-.39.39-1.023.39-1.414 0-.39-.39-.39-1.024 0-1.414l4.25-4.25c.3-.3.3-.786 0-1.086zM9 0c.553 0 1 .448 1 1s-.447 1-1 1c-1.48 0-2.54.454-3.293 1.207-.44.44-.678.87-.758 1.11-.175.523-.741.806-1.265.632-.524-.175-.807-.741-.632-1.265.17-.511.556-1.206 1.241-1.891C5.415.67 6.981 0 9 0z"/></g></svg>