<svg xmlns="http://www.w3.org/2000/svg" width="24" height="24" viewBox="0 0 24 24"><g fill="none" fill-rule="evenodd"><path fill="#000" d="M16 .943c0-.52.42-.943.936-.943h6.128c.517 0 .936.422.936.943v4.114c0 .52-.42.943-.936.943l-5.065-.001L18 7.115c3.313.46 5.881 3.25 5.996 6.66l.004.239v9.063c0 .51-.413.923-.923.923H.923C.413 24 0 23.587 0 23.077v-9.063c0-3.846 3.12-6.965 6.965-6.965L16 7.048zM16 9h-4c1.317 1.248 2 3.035 2 5.019V22h8v-7.981c0-2.459-1.725-4.506-4-4.936v5.174c0 .376-.448.68-1 .68s-1-.304-1-.68V9zM7 9c-2.76 0-5 2.248-5 5.019V22h10v-7.981C12 11.248 9.76 9 7 9zm1.98 5.098c.51 0 .922.413.922.923s-.413.923-.923.923H4.951c-.51 0-.923-.413-.923-.923s.414-.923.923-.923zM22.153 2h-4.196v2h4.196V2z"/></g></svg>