<svg xmlns="http://www.w3.org/2000/svg" width="24" height="24" viewBox="0 0 24 24">
    <path fill="#000" fill-rule="evenodd" d="M23.064 0A.94.94 0 0 1 24 .943v4.114a.94.94 0 0 1-.936.943l-5.065-.001L18 7.115a6.968 6.968 0 0 1 5.996 6.66l.004.239v9.063a.923.923 0 0 1-.815.917l-.108.006H.923a.923.923 0 0 1-.916-.815L0 23.077v-9.063a6.966 6.966 0 0 1 6.726-6.961l.24-.004 9.033-.001L16 4.617V.943c0-.52.42-.943.936-.943zm-7.065 9H12c1.248 1.182 1.926 2.848 1.994 4.707l.006.312V22h8v-7.981c0-2.459-1.725-4.506-4-4.936v5.174c0 .376-.448.68-1 .68-.51 0-.93-.26-.992-.594L16 14.257V9zM7 9c-2.688 0-4.882 2.131-4.995 4.801L2 14.02V22h10v-7.981C12 11.248 9.76 9 7 9zm1.98 5.098a.923.923 0 0 1 .107 1.84l-.108.006H4.951a.923.923 0 0 1-.107-1.84l.107-.006H8.98zM22.153 2h-4.196v2h4.196V2z"/>
</svg>
