<svg xmlns="http://www.w3.org/2000/svg" width="24" height="24" viewBox="0 0 24 24">
    <path fill="#000" fill-rule="evenodd" d="M16 5.057V.943c0-.52.42-.943.936-.943h6.128A.94.94 0 0 1 24 .943v4.114a.94.94 0 0 1-.936.943H18v1.115c3.39.47 6 3.38 6 6.899v9.063c0 .51-.413.923-.923.923H.923A.923.923 0 0 1 0 23.077v-9.063a6.966 6.966 0 0 1 6.965-6.965H16V5.057zM16 9h-4c1.317 1.248 2 3.035 2 5.019V22h8v-7.981c0-2.459-1.725-4.506-4-4.936v5.174c0 .376-.448.68-1 .68s-1-.304-1-.68V9zM2 22h10v-7.981C12 11.248 9.76 9 7 9s-5 2.248-5 5.019V22zm2.951-6.056a.923.923 0 1 1 0-1.846H8.98a.923.923 0 1 1 0 1.846H4.951zM17.958 4h4.196V2h-4.196v2z"/>
</svg>
