<svg xmlns="http://www.w3.org/2000/svg" width="24" height="24" viewBox="0 0 24 24">
    <path fill="#000" fill-rule="evenodd" d="M22 11.144A7.422 7.422 0 0 0 20.52 11c-1.913 0-3.77.772-5.016 2.177a2 2 0 0 0-.01 2.642l1.535 1.76c.067.076.137.146.212.21a3.905 3.905 0 0 0-.064.246 1.501 1.501 0 0 0 .224 2.962 3.457 3.457 0 0 0-.02 3.003H4a2 2 0 0 1-2-2V2a2 2 0 0 1 2-2h16a2 2 0 0 1 2 2v9.144zM6.5 21a1.5 1.5 0 1 0-.001-3.001A1.5 1.5 0 0 0 6.5 21zm0-5a1.5 1.5 0 1 0-.001-3.001A1.5 1.5 0 0 0 6.5 16zm5.5 5a1.5 1.5 0 1 0-.001-3.001A1.5 1.5 0 0 0 12 21zm0-5a1.5 1.5 0 1 0-.001-3.001A1.5 1.5 0 0 0 12 16zm7-7H5V3h14v6zm.16 9.936c0-1.104.768-1.648 1.36-2.048.4-.272.72-.496.72-.832 0-.352-.256-.624-.944-.624-.608 0-1.232.32-1.68.832l-1.536-1.76C17.96 13.512 19.288 13 20.6 13c2.112 0 3.424 1.024 3.424 2.56 0 1.328-.816 1.936-1.52 2.464-.512.368-.96.688-.96 1.2 0 .272.112.512.24.64l-2.128.544c-.304-.368-.496-.864-.496-1.472zM19 22.504c0-.816.688-1.504 1.504-1.504.816 0 1.504.688 1.504 1.504 0 .816-.688 1.504-1.504 1.504A1.523 1.523 0 0 1 19 22.504z"/>
</svg>
