<svg xmlns="http://www.w3.org/2000/svg" width="24" height="24" viewBox="0 0 24 24"><g fill="none" fill-rule="evenodd"><path fill="#000" d="M20.75 24c1.2 0 2.25-1.05 2.25-2.25V2.25C23 1.05 21.95 0 20.75 0H4.25C3.05 0 2 1.05 2 2.25v19.5C2 22.95 3.05 24 4.25 24h16.5zm0-16.5H4.25V2.25h16.5V7.5zm0 14.25H4.25v-12h16.5v12zM8.9 15c.3 0 .6-.3.6-.6v-1.8c0-.3-.3-.6-.6-.6H7.1c-.3 0-.6.3-.6.6v1.8c0 .3.3.6.6.6h1.8zm9 4.5c.3 0 .6-.3.6-.6v-6.3c0-.3-.3-.6-.6-.6h-1.8c-.3 0-.6.3-.6.6v6.3c0 .3.3.6.6.6h1.8zM13.4 15c.3 0 .6-.3.6-.6v-1.8c0-.3-.3-.6-.6-.6h-1.8c-.3 0-.6.3-.6.6v1.8c0 .3.3.6.6.6h1.8zm-4.5 4.5c.3 0 .6-.3.6-.6v-1.8c0-.3-.3-.6-.6-.6H7.1c-.3 0-.6.3-.6.6v1.8c0 .3.3.6.6.6h1.8zm4.5 0c.3 0 .6-.3.6-.6v-1.8c0-.3-.3-.6-.6-.6h-1.8c-.3 0-.6.3-.6.6v1.8c0 .3.3.6.6.6h1.8z"/></g></svg>