<svg xmlns="http://www.w3.org/2000/svg" width="24" height="24" viewBox="0 0 24 24">
    <path fill="#000" fill-rule="evenodd" d="M20 0c1.054 0 1.918.816 1.995 1.85L22 2v9.145A7.422 7.422 0 0 0 20.52 11c-1.913 0-3.77.772-5.016 2.177a2 2 0 0 0-.01 2.642l1.535 1.76c.067.076.137.146.212.21a3.905 3.905 0 0 0-.064.247 1.499 1.499 0 0 0 .225 2.96A3.457 3.457 0 0 0 17.381 24H4a2.001 2.001 0 0 1-1.995-1.85L2 22V2C2 .946 2.816.082 3.85.005L4 0h16zM6.5 18a1.5 1.5 0 1 0 .001 3.001A1.5 1.5 0 0 0 6.5 18zm5.5 0a1.5 1.5 0 1 0 .001 3.001A1.5 1.5 0 0 0 12 18zm-5.5-5a1.5 1.5 0 1 0 .001 3.001A1.5 1.5 0 0 0 6.5 13zm5.5 0a1.5 1.5 0 1 0 .001 3.001A1.5 1.5 0 0 0 12 13zm8.504 8c.816 0 1.504.688 1.504 1.504 0 .816-.688 1.504-1.504 1.504A1.523 1.523 0 0 1 19 22.504c0-.816.688-1.504 1.504-1.504zm.096-8c2.112 0 3.424 1.024 3.424 2.56 0 1.328-.816 1.936-1.52 2.464-.512.368-.96.688-.96 1.2 0 .272.112.512.24.64l-2.128.544c-.304-.368-.496-.864-.496-1.472 0-1.104.768-1.648 1.36-2.048.4-.272.72-.496.72-.832 0-.352-.256-.624-.944-.624-.608 0-1.232.32-1.68.832l-1.536-1.76C17.96 13.512 19.288 13 20.6 13zM19 3v6H5V3h14z"/>
</svg>
