<svg xmlns="http://www.w3.org/2000/svg" width="16" height="16" viewBox="0 0 16 16"><g fill="none" fill-rule="evenodd"><path fill="#000" d="M13.5 16c.8 0 1.5-.7 1.5-1.5v-13c0-.8-.7-1.5-1.5-1.5h-11C1.7 0 1 .7 1 1.5v13c0 .8.7 1.5 1.5 1.5h11zm0-11h-11V1.5h11V5zm0 9.5h-11v-8h11v8zM5.6 10c.2 0 .4-.2.4-.4V8.4c0-.2-.2-.4-.4-.4H4.4c-.2 0-.4.2-.4.4v1.2c0 .2.2.4.4.4h1.2zm6 3c.2 0 .4-.2.4-.4V8.4c0-.2-.2-.4-.4-.4h-1.2c-.2 0-.4.2-.4.4v4.2c0 .2.2.4.4.4h1.2zm-3-3c.2 0 .4-.2.4-.4V8.4c0-.2-.2-.4-.4-.4H7.4c-.2 0-.4.2-.4.4v1.2c0 .2.2.4.4.4h1.2zm-3 3c.2 0 .4-.2.4-.4v-1.2c0-.2-.2-.4-.4-.4H4.4c-.2 0-.4.2-.4.4v1.2c0 .2.2.4.4.4h1.2zm3 0c.2 0 .4-.2.4-.4v-1.2c0-.2-.2-.4-.4-.4H7.4c-.2 0-.4.2-.4.4v1.2c0 .2.2.4.4.4h1.2z"/></g></svg>