<svg xmlns="http://www.w3.org/2000/svg" width="16" height="16" viewBox="0 0 16 16"><g fill="none" fill-rule="evenodd"><path fill="#000" d="M4.488 11.178l3.324 3.31 3.325-3.31c.202-.2.527-.2.728.001l.487.487c.202.202.202.528 0 .73L8.177 16.57c-.201.201-.528.201-.73 0l-4.174-4.176c-.202-.2-.202-.527 0-.729l.487-.487c.2-.2.526-.201.728 0zM7.448.18c.201-.201.528-.201.73 0l4.174 4.176c.202.2.202.527 0 .729l-.487.487c-.2.2-.526.201-.728 0L7.812 2.264 4.488 5.572c-.202.2-.527.2-.728-.001l-.487-.487c-.202-.202-.202-.528 0-.73z"/></g></svg>