<svg xmlns="http://www.w3.org/2000/svg" width="16" height="16" viewBox="0 0 16 16"><g fill="none" fill-rule="evenodd"><path fill="#000" d="M7.448 9.18c.201-.202.528-.202.73 0l4.174 4.175c.202.2.202.527 0 .729l-.487.487c-.2.2-.526.201-.728 0l-3.325-3.308-3.324 3.309c-.202.2-.527.2-.728-.001l-.487-.487c-.202-.202-.202-.528 0-.73zm-2.96-7.002l3.324 3.31 3.325-3.31c.202-.2.527-.2.728.001l.487.487c.202.202.202.528 0 .73L8.177 7.57c-.201.201-.528.201-.73 0L3.274 3.395c-.202-.2-.202-.527 0-.729l.487-.487c.2-.2.526-.201.728 0z"/></g></svg>