<svg xmlns="http://www.w3.org/2000/svg" width="16" height="15" viewBox="0 0 16 15"><g fill="none" fill-rule="evenodd"><path fill="#000" d="M12.797 14.75c.17 0 .328-.134.328-.328V13H14c.965 0 1.75-.785 1.75-1.75V6.875c0-.965-.785-1.75-1.75-1.75h-2.625V2.5c0-.965-.785-1.75-1.75-1.75H1.75C.785.75 0 1.535 0 2.5v4.375c0 .965.785 1.75 1.75 1.75h.875v1.422c0 .194.159.328.328.328.066 0 .134-.02.194-.066L5.25 9.12v2.131c0 .965.785 1.75 1.75 1.75h2.625l2.978 1.684c.06.044.128.066.194.066zm-8.86-6.396V7.313H1.75c-.24 0-.438-.197-.438-.438V2.5c0-.24.197-.437.438-.437h7.875c.24 0 .437.196.437.437v4.375c0 .24-.196.438-.437.438H5.78l-.3.169-1.543.872zm7.875 4.375l-1.542-.872-.3-.17H7c-.24 0-.438-.196-.438-.437V8.625h3.063c.965 0 1.75-.785 1.75-1.75v-.437H14c.24 0 .437.196.437.437v4.375c0 .24-.196.438-.437.438h-2.188v1.041z"/></g></svg>