<svg xmlns="http://www.w3.org/2000/svg" width="16" height="16" viewBox="0 0 16 16">
    <path fill="#000" fill-rule="evenodd" d="M7 0a7 7 0 0 1 0 14c-1.397 0-4.16-.006-5.461-.006-1.067 0-1.51-.201-1.51-.884 0-.765 1.668-1.377.875-2.667C.292 9.448 0 8.251 0 7a7 7 0 0 1 7-7zm.273 9.043A1.04 1.04 0 0 0 6.23 8h-.693c-.572 0-1.043.467-1.043 1.043 0 .58.467 1.044 1.043 1.044h.693c.572 0 1.043-.467 1.043-1.044zM8.704 7c.36 0 .653-.448.653-1s-.292-1-.653-1H5.147c-.36 0-.653.448-.653 1s.292 1 .653 1h3.557zm-1.419 8.496c4.477-.153 8.074-3.777 8.192-8.269.336.769.523 1.619.523 2.512 0 1.12-.26 2.19-.807 3.08-.71 1.153.78 1.701.78 2.385 0 .61-.394.791-1.347.791-1.162 0-3.63.005-4.878.005-.875 0-1.707-.18-2.463-.504z"/>
</svg>
