<svg xmlns="http://www.w3.org/2000/svg" width="16" height="16" viewBox="0 0 16 16"><g fill="none" fill-rule="evenodd"><path fill="#000" d="M12.958 14.125c1.552-1.022 2.542-2.61 2.542-4.53 0-4.437-4.324-5.134-7.917-5.242V2.25c0-1.112-1.348-1.669-2.134-.884L.866 5.95c-.488.488-.488 1.28 0 1.768L5.45 12.3c.787.787 2.134.226 2.134-.884V9.377c3.818.222 4.129 1.307 3.495 3.33-.356 1.134.913 2.054 1.88 1.418zm-.688-1.05c1.288-4.109-1.652-4.943-5.937-4.99v3.332L1.75 6.833 6.333 2.25v3.334c3.729.017 7.917.307 7.917 4.011 0 1.744-1.042 2.863-1.98 3.48z"/></g></svg>