<svg xmlns="http://www.w3.org/2000/svg" width="16" height="16" viewBox="0 0 16 16">
    <g fill="none" fill-rule="evenodd">
        <path fill="#000" d="M13.08 15.531c1.63-1.073 2.67-2.74 2.67-4.756 0-4.659-4.54-5.391-8.313-5.504V3.064c0-1.168-1.416-1.753-2.24-.928L.384 6.947c-.512.512-.512 1.344 0 1.856l4.813 4.81c.826.827 2.24.239 2.24-.927v-2.14c4.009.233 4.335 1.372 3.67 3.496-.374 1.191.958 2.157 1.973 1.49zm-.721-1.102c1.352-4.314-1.735-5.19-6.234-5.239v3.498L1.312 7.875l4.813-4.812v3.5c3.915.018 8.312.322 8.312 4.212 0 1.83-1.093 3.006-2.078 3.654z"/>
    </g>
</svg>
