<svg xmlns="http://www.w3.org/2000/svg" width="16" height="16" viewBox="0 0 16 16"><g fill="none" fill-rule="evenodd"><path fill="#000" d="M8.5 13c.828 0 1.5.672 1.5 1.5S9.328 16 8.5 16 7 15.328 7 14.5 7.672 13 8.5 13zm0-4c.828 0 1.5.675 1.5 1.507 0 .833-.672 1.507-1.5 1.507S7 11.34 7 10.507C7 9.675 7.672 9 8.5 9zm-4 0c.828 0 1.5.672 1.5 1.5S5.328 12 4.5 12 3 11.328 3 10.5 3.672 9 4.5 9zm8 0c.828 0 1.5.672 1.5 1.5s-.672 1.5-1.5 1.5-1.5-.672-1.5-1.5.672-1.5 1.5-1.5zm0-4c.828 0 1.5.672 1.5 1.5S13.328 8 12.5 8 11 7.328 11 6.5 11.672 5 12.5 5zm-4 0c.828 0 1.5.672 1.5 1.5S9.328 8 8.5 8 7 7.328 7 6.5 7.672 5 8.5 5zm-4 0C5.328 5 6 5.672 6 6.5S5.328 8 4.5 8 3 7.328 3 6.5 3.672 5 4.5 5zm0-4C5.328 1 6 1.672 6 2.5S5.328 4 4.5 4 3 3.328 3 2.5 3.672 1 4.5 1zm4 0c.828 0 1.5.672 1.5 1.5S9.328 4 8.5 4 7 3.328 7 2.5 7.672 1 8.5 1zm4 0c.828 0 1.5.672 1.5 1.5S13.328 4 12.5 4 11 3.328 11 2.5 11.672 1 12.5 1z"/></g></svg>