<?xml version="1.0" encoding="UTF-8"?>
<svg width="16px" height="16px" viewBox="0 0 16 16" version="1.1" xmlns="http://www.w3.org/2000/svg" xmlns:xlink="http://www.w3.org/1999/xlink">
    <!-- Generator: sketchtool 57.1 (101010) - https://sketch.com -->
    <title>062F6FB8-8765-4AB3-A8C0-B8D505374523</title>
    <desc>Created with sketchtool.</desc>
    <g id="Symbols" stroke="none" stroke-width="1" fill="none" fill-rule="evenodd">
        <g id="151-kb-iconfont-number-pad-16">
            <g>
                <path d="M8.5,13 C9.32842712,13 10,13.6715729 10,14.5 C10,15.3284271 9.32842712,16 8.5,16 C7.67157288,16 7,15.3284271 7,14.5 C7,13.6715729 7.67157288,13 8.5,13 Z M8.5,9 C9.32842712,9 10,9.67478614 10,10.507177 C10,11.3395679 9.32842712,12.0143541 8.5,12.0143541 C7.67157288,12.0143541 7,11.3395679 7,10.507177 C7,9.67478614 7.67157288,9 8.5,9 Z M4.5,9 C5.32842712,9 6,9.67157288 6,10.5 C6,11.3284271 5.32842712,12 4.5,12 C3.67157288,12 3,11.3284271 3,10.5 C3,9.67157288 3.67157288,9 4.5,9 Z M12.5,9 C13.3284271,9 14,9.67157288 14,10.5 C14,11.3284271 13.3284271,12 12.5,12 C11.6715729,12 11,11.3284271 11,10.5 C11,9.67157288 11.6715729,9 12.5,9 Z M12.5,5 C13.3284271,5 14,5.67157288 14,6.5 C14,7.32842712 13.3284271,8 12.5,8 C11.6715729,8 11,7.32842712 11,6.5 C11,5.67157288 11.6715729,5 12.5,5 Z M8.5,5 C9.32842712,5 10,5.67157288 10,6.5 C10,7.32842712 9.32842712,8 8.5,8 C7.67157288,8 7,7.32842712 7,6.5 C7,5.67157288 7.67157288,5 8.5,5 Z M4.5,5 C5.32842712,5 6,5.67157288 6,6.5 C6,7.32842712 5.32842712,8 4.5,8 C3.67157288,8 3,7.32842712 3,6.5 C3,5.67157288 3.67157288,5 4.5,5 Z M4.5,1 C5.32842712,1 6,1.67157288 6,2.5 C6,3.32842712 5.32842712,4 4.5,4 C3.67157288,4 3,3.32842712 3,2.5 C3,1.67157288 3.67157288,1 4.5,1 Z M8.5,1 C9.32842712,1 10,1.67157288 10,2.5 C10,3.32842712 9.32842712,4 8.5,4 C7.67157288,4 7,3.32842712 7,2.5 C7,1.67157288 7.67157288,1 8.5,1 Z M12.5,1 C13.3284271,1 14,1.67157288 14,2.5 C14,3.32842712 13.3284271,4 12.5,4 C11.6715729,4 11,3.32842712 11,2.5 C11,1.67157288 11.6715729,1 12.5,1 Z" id="number-pad" fill="#000000"></path>
            </g>
        </g>
    </g>
</svg>