<svg xmlns="http://www.w3.org/2000/svg" width="16" height="16" viewBox="0 0 16 16">
    <g fill="none" fill-rule="evenodd">
        <path d="M0 0h16v16H0z"/>
        <path fill="#000" d="M8.5 13a1.5 1.5 0 1 1 0 3 1.5 1.5 0 0 1 0-3zm0-4c.828 0 1.5.675 1.5 1.507 0 .833-.672 1.507-1.5 1.507S7 11.34 7 10.507C7 9.675 7.672 9 8.5 9zm-4 0a1.5 1.5 0 1 1 0 3 1.5 1.5 0 0 1 0-3zm8 0a1.5 1.5 0 1 1 0 3 1.5 1.5 0 0 1 0-3zm0-4a1.5 1.5 0 1 1 0 3 1.5 1.5 0 0 1 0-3zm-4 0a1.5 1.5 0 1 1 0 3 1.5 1.5 0 0 1 0-3zm-4 0a1.5 1.5 0 1 1 0 3 1.5 1.5 0 0 1 0-3zm0-4a1.5 1.5 0 1 1 0 3 1.5 1.5 0 0 1 0-3zm4 0a1.5 1.5 0 1 1 0 3 1.5 1.5 0 0 1 0-3zm4 0a1.5 1.5 0 1 1 0 3 1.5 1.5 0 0 1 0-3z"/>
    </g>
</svg>
