<svg xmlns="http://www.w3.org/2000/svg" width="16" height="16" viewBox="0 0 16 16">
    <path fill="#000" fill-rule="evenodd" d="M2.03.696c.106-.34.469-.53.81-.424l8.729 2.727L14 3c1.104 0 2 .92 2 2.053v8.894C16 15.081 15.104 16 14 16H2c-1.104 0-2-.92-2-2.053V5.053C0 3.919.896 3 2 3h5.235L2.454 1.505a.647.647 0 0 1-.446-.717zM13.4 5H2.6a.6.6 0 0 0-.6.6v7.8a.6.6 0 0 0 .6.6h10.8a.6.6 0 0 0 .6-.6V5.6a.6.6 0 0 0-.6-.6zM7.5 6.06c.249 0 .455.235.493.542L8 6.707v5.818c0 .357-.224.647-.5.647-.249 0-.455-.235-.493-.542L7 12.525V6.707c0-.357.224-.646.5-.646zm-2 0c.249 0 .455.235.493.542L6 6.707v5.818c0 .357-.224.647-.5.647-.249 0-.455-.235-.493-.542L5 12.525V6.707c0-.357.224-.646.5-.646zm4 1.294c.249 0 .455.234.493.541L10 8v3.232c0 .357-.224.647-.5.647-.249 0-.455-.235-.493-.542L9 11.232V8c0-.357.224-.646.5-.646zm-6 0c.249 0 .455.234.493.541L4 8v3.232c0 .357-.224.647-.5.647-.249 0-.455-.235-.493-.542L3 11.232V8c0-.357.224-.646.5-.646zm9 2.396c.38 0 .693.28.743.645l.007.101a.75.75 0 0 1-1.493.109l-.007-.101a.75.75 0 0 1 .75-.754zm0-3c.38 0 .693.28.743.645l.007.101a.75.75 0 0 1-1.493.109l-.007-.101a.75.75 0 0 1 .75-.754z"/>
</svg>
