<svg xmlns="http://www.w3.org/2000/svg" width="16" height="16" viewBox="0 0 16 16"><g fill="none" fill-rule="evenodd"><path fill="#000" d="M14 16c1.104 0 2-.896 2-2V6c0-1.104-.896-2-2-2H6.61l9.025-2.538c.202-.056.365-.272.365-.481 0-.038-.008-.099-.019-.136l-.135-.48C15.789.163 15.574 0 15.365 0c-.039 0-.1.008-.136.019L1.459 3.89C.654 4.117 0 4.98 0 5.816V14c0 1.104.896 2 2 2h12zm0-1.5H2c-.276 0-.5-.224-.5-.5V6c0-.276.224-.5.5-.5h12c.276 0 .5.224.5.5v8c0 .276-.224.5-.5.5zm-3-2c1.38 0 2.5-1.12 2.5-2.5S12.38 7.5 11 7.5 8.5 8.62 8.5 10s1.12 2.5 2.5 2.5zM7 11c.276 0 .5-.15.5-.333v-.334C7.5 10.15 7.276 10 7 10H3c-.276 0-.5.15-.5.333v.334c0 .184.224.333.5.333h4zm-.5 2c.276 0 .5-.15.5-.333v-.334C7 12.15 6.776 12 6.5 12h-3c-.276 0-.5.15-.5.333v.334c0 .184.224.333.5.333h3zm0-4c.276 0 .5-.15.5-.333v-.334C7 8.15 6.776 8 6.5 8h-3c-.276 0-.5.15-.5.333v.334c0 .184.224.333.5.333h3z"/></g></svg>