<svg xmlns="http://www.w3.org/2000/svg" width="16" height="16" viewBox="0 0 16 16"><g fill="none" fill-rule="evenodd"><path fill="#000" d="M14.969 16.969c1.104 0 2-.896 2-2v-8c0-1.104-.896-2-2-2h-7.39l9.025-2.538c.201-.057.365-.272.365-.481 0-.039-.009-.1-.019-.136l-.135-.48c-.057-.202-.273-.365-.482-.365-.038 0-.099.008-.135.019l-13.23 3.98c-1.103 0-2 .897-2 2v8c0 1.105.897 2 2 2h12zM7.219 10h-3.5c-.138 0-.25-.112-.25-.25v-.5c0-.138.112-.25.25-.25h3.5c.138 0 .25.112.25.25v.5c0 .138-.112.25-.25.25zm5.25 3.469c-1.38 0-2.5-1.12-2.5-2.5s1.12-2.5 2.5-2.5 2.5 1.12 2.5 2.5-1.12 2.5-2.5 2.5zM7.719 12h-4.5c-.138 0-.25-.112-.25-.25v-.5c0-.138.112-.25.25-.25h4.5c.138 0 .25.112.25.25v.5c0 .138-.112.25-.25.25zm-.5 2h-3.5c-.138 0-.25-.112-.25-.25v-.5c0-.138.112-.25.25-.25h3.5c.138 0 .25.112.25.25v.5c0 .138-.112.25-.25.25z" transform="translate(-1 -1)"/></g></svg>