<svg xmlns="http://www.w3.org/2000/svg" width="16" height="16" viewBox="0 0 16 16">
    <g fill="none" fill-rule="evenodd">
        <path d="M0 0h16v16H0z"/>
        <path fill="#000" d="M2.746.25l.093.022 8.73 2.727L14 3c1.104 0 2 .92 2 2.053l.001 3.833A1.827 1.827 0 0 0 14.425 8H14V5.6a.6.6 0 0 0-.6-.6H2.6a.6.6 0 0 0-.6.6v7.8a.6.6 0 0 0 .6.6h5.536c.19.457.564.833 1.048 1.014l-.192.65a1.95 1.95 0 0 0-.069.336H2c-1.104 0-2-.92-2-2.053V5.053C0 3.919.896 3 2 3h5.235L2.454 1.505A.646.646 0 0 1 2.746.25zM14.166 10l-.883 2.1H15L10.833 16l.77-2.7H10l1.389-3.3h2.778zM7.5 6.06c.249 0 .455.235.493.542L8 6.707v5.818c0 .357-.224.647-.5.647-.249 0-.455-.235-.493-.542L7 12.525V6.707c0-.357.224-.646.5-.646zm-2 0c.249 0 .455.235.493.542L6 6.707v5.818c0 .357-.224.647-.5.647-.249 0-.455-.235-.493-.542L5 12.525V6.707c0-.357.224-.646.5-.646zm-2 1.294c.249 0 .455.234.493.541L4 8v3.232c0 .357-.224.647-.5.647-.249 0-.455-.235-.493-.542L3 11.232V8c0-.357.224-.646.5-.646zM9.5 7c.245 0 .45.152.492.352l.008.077V9.57c0 .237-.224.429-.5.429-.245 0-.45-.152-.492-.352L9 9.571V7.43C9 7.192 9.224 7 9.5 7zm3-.25a.75.75 0 1 1-.75.754.75.75 0 0 1 .75-.754z"/>
    </g>
</svg>
