<svg xmlns="http://www.w3.org/2000/svg" width="16" height="16" viewBox="0 0 16 16"><g fill="none" fill-rule="evenodd"><path fill="#000" d="M9 14c3.842 0 7.197-2.239 8.891-5.544.06-.119.109-.323.109-.456s-.049-.338-.109-.456C16.197 4.237 12.841 2 9 2 5.158 2 1.802 4.239.109 7.544.049 7.663 0 7.867 0 8s.049.338.109.456C1.803 11.763 5.159 14 9 14zm0-1.5c-3.083 0-5.91-1.719-7.435-4.5C3.09 5.219 5.917 3.5 9 3.5c3.083 0 5.909 1.719 7.435 4.5-1.526 2.781-4.352 4.5-7.435 4.5zm.01-1.018c1.928 0 3.491-1.564 3.491-3.491S10.938 4.5 9.011 4.5H9c-.276.004-.713.074-.976.156.123.217.224.595.226.844 0 .966-.784 1.75-1.75 1.75-.25-.002-.627-.103-.844-.226-.075.261-.136.695-.136.967 0 1.927 1.564 3.49 3.49 3.49z" transform="translate(-1)"/></g></svg>