<svg xmlns="http://www.w3.org/2000/svg" width="24" height="24" viewBox="0 0 24 24"><g fill="none" fill-rule="evenodd"><path fill="#000" d="M16.937 20.125c1.172-.001 2.124-.953 2.125-2.125V8.968c0-1.466-1.19-2.655-2.655-2.655h-3.72V4.188c0-.587-.476-1.063-1.062-1.063-.587 0-1.063.476-1.063 1.063v2.125h-3.72c-1.465 0-2.655 1.19-2.655 2.655V18c.002 1.172.954 2.124 2.125 2.125h10.625zm-8.5-7.172c-.733 0-1.328-.595-1.328-1.328 0-.733.595-1.328 1.328-1.328.688 0 1.254.523 1.322 1.192l.007.136c0 .687-.523 1.253-1.193 1.321l-.136.007zm6.375 0c-.733 0-1.328-.595-1.328-1.328 0-.733.595-1.328 1.328-1.328.688 0 1.254.523 1.322 1.192l.007.136c0 .687-.523 1.253-1.193 1.321l-.136.007zM3.125 16.938v-6.375H2.061c-.586 0-1.061.475-1.061 1.06v4.253c0 .586.475 1.062 1.061 1.062h1.064zm18.064 0c.586 0 1.06-.476 1.06-1.062v-4.252c0-.586-.474-1.061-1.06-1.061h-1.064v6.375h1.064zm-11.689 0H7.375v-1.063H9.5v1.063zm3.187 0h-2.125v-1.063h2.125v1.063zm3.188 0H13.75v-1.063h2.125v1.063z"/></g></svg>