<svg xmlns="http://www.w3.org/2000/svg" width="24" height="24" viewBox="0 0 24 24">
    <path fill="#000" fill-rule="evenodd" d="M12 3c2.457 0 4.5 1.772 4.92 4.107a4.002 4.002 0 0 1 3.037 3.304H20a1 1 0 0 1 1 1v3.295a1 1 0 0 1-.999 1L20 18a4 4 0 0 1-4 4H8a4 4 0 0 1-4-4v-2.294a1 1 0 0 1-1-1v-3.294a1 1 0 0 1 1-1h.043A4.004 4.004 0 0 1 7.08 7.105 5 5 0 0 1 12 3zm3.97 13.765H8.03c-.324 0-.615.3-.736.57-.122.27-.05.454.182.657 2.532 2.175 6.516 2.175 9.048 0 .232-.203.304-.387.182-.657-.121-.27-.412-.57-.736-.57zm-7.146-6.353a1.588 1.588 0 1 0 0 3.176 1.588 1.588 0 0 0 0-3.176zm6.352 0a1.588 1.588 0 1 0 0 3.176 1.588 1.588 0 0 0 0-3.176zM12 5a3.001 3.001 0 0 0-2.83 2h5.66A3.001 3.001 0 0 0 12 5z"/>
</svg>
