<svg xmlns="http://www.w3.org/2000/svg" width="16" height="16" viewBox="0 0 16 16"><g fill="none" fill-rule="evenodd"><path fill="#000" d="M13 0c1.657 0 3 1.343 3 3v10c0 1.657-1.343 3-3 3H3c-1.657 0-3-1.343-3-3V3c0-1.657 1.343-3 3-3h10zm0 1.5H3c-.78 0-1.42.595-1.493 1.356L1.5 3v10c0 .78.595 1.42 1.356 1.493L3 14.5h10c.78 0 1.42-.595 1.493-1.356L14.5 13V3c0-.78-.595-1.42-1.356-1.493L13 1.5zM5.222 6c.864 0 1.409.485 1.728 1.056l-.739.464c-.194-.34-.55-.608-.989-.608-.757 0-1.308.673-1.308 1.584 0 .912.55 1.585 1.308 1.585.382 0 .72-.18.902-.369V9H5.009L5 8h2v2.088c-.426.55-1.02.912-1.778.912C4.002 11 3 10.016 3 8.496 3 6.97 4.002 6 5.222 6zm3.775 0v5h-.994V6h.994zM13 6v1h-2v1.001h2V9h-2v2h-1V6h3z"/></g></svg>