<svg xmlns="http://www.w3.org/2000/svg" width="16" height="16" viewBox="0 0 16 16">
    <path fill="#000" fill-rule="evenodd" d="M13 0a3 3 0 0 1 3 3v10a3 3 0 0 1-3 3H3a3 3 0 0 1-3-3V3a3 3 0 0 1 3-3h10zm0 2H3a1 1 0 0 0-1 1v10a1 1 0 0 0 1 1h10a1 1 0 0 0 1-1V3a1 1 0 0 0-1-1zM5.222 6c.864 0 1.409.485 1.728 1.056l-.739.464c-.194-.34-.55-.608-.989-.608-.757 0-1.308.673-1.308 1.584 0 .912.55 1.585 1.308 1.585.382 0 .72-.18.902-.369V9H5.009L5 8h2v2.088c-.426.55-1.02.912-1.778.912C4.002 11 3 10.016 3 8.496 3 6.97 4.002 6 5.222 6zm3.775 0v5h-.994V6h.994zM13 6v1h-2v1.001h2V9h-2v2h-1V6h3z"/>
</svg>
