<svg xmlns="http://www.w3.org/2000/svg" width="16" height="16" viewBox="0 0 16 16"><g fill="none" fill-rule="evenodd"><path fill="#000" d="M15 15.875c.517 0 .937-.42.937-.938v-3.75c0-.517-.42-.937-.937-.937h-3.281l-.938-.937H8.437c-.517 0-.937.42-.937.937v2.11H2.344V5.327H7.5V6.5c0 .518.42.938.937.938H15c.517 0 .937-.42.937-.938V2.75c0-.517-.42-.937-.937-.937h-3.281L10.78.875H8.437c-.517 0-.937.42-.937.938v2.109H2.344V1.344c0-.259-.21-.469-.469-.469h-.469c-.259 0-.469.21-.469.469v11.484c0 .518.42.938.938.938H7.5v1.171c0 .518.42.938.937.938H15zm-.469-9.844H8.906v-3.75H10.2l.937.938h3.395V6.03zm0 8.438H8.906v-3.75H10.2l.937.937h3.395v2.813z" transform="translate(-1)"/></g></svg>