<svg xmlns="http://www.w3.org/2000/svg" width="16" height="16" viewBox="0 0 16 16">
    <path fill="#000" fill-rule="evenodd" d="M3 8.667C3 8.299 3.232 8 3.6 8H7v2h2V8h3.3c.368 0 .7.3.7.667V10h2V8.667c0-1.103-1.23-2.66-2.333-2.66H9V2H7v4.007H3.333C2.231 6.007 1 7.564 1 8.667V10h2V8.667zM3.333 12H.667a.667.667 0 0 0-.667.667v2.666c0 .368.299.667.667.667h2.666A.667.667 0 0 0 4 15.333v-2.666A.667.667 0 0 0 3.333 12zm12 0h-2.666a.667.667 0 0 0-.667.667v2.666c0 .368.299.667.667.667h2.666a.667.667 0 0 0 .667-.667v-2.666a.667.667 0 0 0-.667-.667zm-6 0H6.667a.667.667 0 0 0-.667.667v2.666c0 .368.299.667.667.667h2.666a.667.667 0 0 0 .667-.667v-2.666A.667.667 0 0 0 9.333 12z"/>
</svg>
