<svg xmlns="http://www.w3.org/2000/svg" width="16" height="16" viewBox="0 0 16 16">
    <path fill="#000" fill-rule="evenodd" d="M9.763 4.212c.363-.057.433.06.616.369.403.68 2.525 4.545-1.326 8.235-.265.254-.747.46-.979.174-.232-.286.02-.696.304-.93C11.92 9.13 9.97 5.74 9.596 5.048c-.171-.316-.197-.778.167-.836zM7.21 2.774c1.48 1.479 2.07 3.305 1.374 4.164l-.08.088-1.451 1.452c-.832.832-2.749.265-4.28-1.267-1.532-1.531-2.1-3.448-1.267-4.28L2.958 1.48c.817-.817 2.722-.237 4.253 1.295zm4.906 2.107c.435-.249.597.092.87.435.603.755 3.807 4.86-.275 10.035-.282.357-.711.72-1.04.413-.33-.307-.09-.85.216-1.187 3.835-4.196.9-7.975.33-8.75-.26-.355-.535-.698-.1-.946zM2.692 3.223l-.446.448c-.302.302.09 1.623 1.267 2.8 1.178 1.178 2.5 1.57 2.801 1.268l.447-.446c-.798-.216-1.704-.757-2.508-1.56-.804-.805-1.346-1.712-1.561-2.51zm3.78.29C5.294 2.336 3.98 1.936 3.698 2.22c-.283.283.117 1.596 1.294 2.773C6.17 6.17 7.483 6.57 7.766 6.287c.283-.283-.117-1.596-1.294-2.774zm-.163.555a.392.392 0 0 1-.392.392h-.74a.392.392 0 0 1-.179-.741l-.56.002a.392.392 0 0 1 0-.785h.74a.392.392 0 0 1 .178.742l.561-.002c.217 0 .392.175.392.392z"/>
</svg>
