<svg xmlns="http://www.w3.org/2000/svg" width="16" height="16" viewBox="0 0 16 16"><g fill="none" fill-rule="evenodd"><path fill="#000" d="M7.639 11.572c2.537 2.538 5.624 3.568 6.894 2.298l2.01-2.01c1.43-1.429.527-4.645-2.01-7.182C11.995 2.14 8.78 1.238 7.35 2.667l-2.01 2.01c-1.27 1.27-.24 4.358 2.298 6.895zm2.585-2.585C8.087 6.85 7.399 4.343 8.214 3.529c.813-.814 3.32-.126 5.457 2.01 2.137 2.137 2.825 4.645 2.011 5.459-.814.813-3.32.126-5.458-2.011zm-4.082-1.95c-.204-.715-.177-1.26.06-1.497l.508-.508c.042.329.165.85.274 1.163l-.842.841zm6.032 6.032l.842-.842c.313.11.834.232 1.163.274l-.508.507c-.237.237-.782.265-1.497.061zM7.311 9.314c-.274-.375-.658-1.021-.856-1.442l.863-.863c.202.419.585 1.064.857 1.441l-.864.864zM9.896 11.9l.864-.864c.377.271 1.023.655 1.442.856l-.864.864c-.42-.198-1.067-.582-1.442-.856zM8.5 10.71c-.25-.249-.476-.5-.686-.75l.865-.864c.214.255.438.508.683.753.245.244.498.47.753.683l-.865.865c-.25-.21-.5-.437-.75-.686zm1.146 4.058c.513 0 .936.386.994.883l.006.117v1c0 .552-.447 1-1 1-.512 0-.935-.386-.993-.884l-.007-.116v-1c0-.553.448-1 1-1zm-3-2c.513 0 .936.386.994.883l.006.117v1c0 .552-.447 1-1 1-.512 0-.935-.386-.993-.884l-.007-.116v-1c0-.553.448-1 1-1z" transform="translate(-3 -2)"/></g></svg>