<svg xmlns="http://www.w3.org/2000/svg" width="16" height="16" viewBox="0 0 16 16"><g fill="none" fill-rule="evenodd"><path fill="#000" fill-rule="nonzero" d="M14.638 13.831l.268-.35c.148-.195.118-.478-.067-.633L1.965 2.098c-.185-.154-.455-.123-.603.07l-.268.352c-.148.194-.118.477.067.632l12.874 10.75c.185.154.455.123.603-.07zM10.912 8C11.582 7.257 12 6.241 12 5.118 12 2.844 10.305 1 8.216 1 6.852 1 5.667 1.792 5 2.97l1.004.855c.428-.86 1.253-1.452 2.212-1.452 1.39 0 2.523 1.232 2.523 2.745 0 .803-.326 1.524-.836 2.024l1.01.858zm1.436 7c.24 0 .463-.08.652-.21l-1.345-1.175H3.242v-.74c0-1.373 1.004-2.493 2.235-2.493.109 0 .246.035.424.104.613.24 1.25.358 1.894.358.207 0 .411-.032.616-.058L6.693 9.29c-.127-.038-.259-.064-.383-.11C6.04 9.075 5.762 9 5.477 9 3.557 8.997 2 10.735 2 12.876v.739C2 14.38 2.556 15 3.242 15h9.106z"/></g></svg>