<svg xmlns="http://www.w3.org/2000/svg" width="16" height="16" viewBox="0 0 16 16">
    <g fill="none" fill-rule="evenodd">
        <path fill="#000" fill-rule="nonzero" d="M16.766 14.551l.312-.39c.172-.216.138-.532-.078-.704L2 1.5c-.216-.172-.531-.137-.703.078l-.313.39c-.172.216-.137.532.078.704l15 11.957c.216.172.532.138.704-.078zm-4.56-6.901c.797-.812 1.294-1.922 1.294-3.15C13.5 2.016 11.484 0 9 0 7.378 0 5.969.866 5.175 2.153l1.194.935C6.879 2.147 7.859 1.5 9 1.5c1.653 0 3 1.347 3 3 0 .878-.388 1.666-.994 2.213l1.2.937zM14.5 16c.29 0 .56-.087.787-.228L13.662 14.5H3.5v-.8c0-1.488 1.212-2.7 2.7-2.7.131 0 .297.038.512.112.741.26 1.51.388 2.288.388.25 0 .497-.034.744-.062L7.669 9.816c-.153-.041-.313-.07-.463-.12-.325-.112-.662-.193-1.006-.193C3.881 9.5 2 11.381 2 13.7v.8c0 .828.672 1.5 1.5 1.5h11z" transform="translate(-1)"/>
    </g>
</svg>
