<svg xmlns="http://www.w3.org/2000/svg" width="16" height="16" viewBox="0 0 16 16">
    <g fill="none" fill-rule="evenodd">
        <path fill="#000" d="M15.669 14.465l.497-.642c.137-.173.104-.43-.073-.567L9.199 7.93c1.264-.446 2.176-1.637 2.176-3.054 0-1.795-1.455-3.25-3.25-3.25-1.704 0-3.085 1.315-3.222 2.98L1.155 1.712c-.177-.137-.431-.106-.571.071l-.498.64c-.137.178-.106.432.071.569l14.94 11.545c.178.137.432.107.572-.071zm-3.121.16l-7.282-5.63c-1.605.28-2.829 1.67-2.829 3.355v1.056c0 .673.546 1.219 1.22 1.219h8.891z"/>
    </g>
</svg>
