<svg xmlns="http://www.w3.org/2000/svg" width="16" height="16" viewBox="0 0 16 16"><g fill="none" fill-rule="evenodd"><path fill="#000" d="M10.861 12.8c.61.21.3.794.3.794.003.008.003.116 0 .163 0 0 .221-.435.667-.28-.02.654-.694.52-.694.52-.021.133-.054.26-.098.378 0 0 .406-.449.841-.098-.269.669-.914.264-.914.264-.026.052-.053.1-.083.147h2.927V13l1.255-.001v1.688h.47c.258 0 .468.196.468.438v.437c0 .242-.21.438-.469.438H1.47c-.26 0-.469-.196-.469-.438v-.437c0-.242.21-.438.469-.438h.468V13h1.25v1.688h2.04c-.1-.054-.182-.16-.188-.358.348-.12.521.22.521.22-.002-.037-.002-.122 0-.128 0 0-.241-.457.235-.621.26.35-.146.631-.146.631 0 .003.007.14.013.205 0 0 .128-.477.583-.294-.017.205-.133.302-.256.346h4.748c.033-.045.064-.094.092-.146-.201.078-.58.137-.79-.401.533-.22.777.054.871.222.049-.12.083-.249.106-.39 0 0-.683.107-.73-.48.581-.233.745.376.745.376.008-.082.016-.257.016-.261 0 0-.52-.36-.186-.808zM4.798 7l.264.009c.172.01.337.034.494.068.236.05.444.136.623.257.179.12.32.28.424.479.104.2.156.447.156.744 0 .368-.083.67-.25.908-.132.19-.298.342-.497.456l-.156.077.993 1.738.001-.687h1.12V7.951H6.85V7h3.33v.95H9.06v3.1h1.12V12H5.715l-.973-1.802h-.599V12H3V7h1.798zm8.133 0l.212.005c.208.01.407.035.595.076.252.053.47.143.658.268.186.125.334.291.442.498.108.207.162.462.162.763 0 .292-.055.545-.166.76-.111.214-.261.39-.45.529-.19.138-.409.24-.658.307-.186.05-.382.08-.587.093l-.208.006h-.738V12H11V7h1.931zm-.027 1H12.3v1.51h.604c.584 0 .877-.265.877-.797 0-.26-.074-.445-.221-.552-.148-.107-.366-.161-.656-.161zm-8.139-.103H4.2v1.404h.565c.623 0 .935-.248.935-.744 0-.246-.079-.417-.236-.514-.157-.097-.39-.146-.699-.146zM8.5 2c3.532 0 5.806 1.703 6.405 3.999L13.56 6c-.646-1.56-2.507-2.687-5.063-2.687C5.942 3.313 4.081 4.44 3.435 6L2.095 6C2.694 3.703 4.968 2 8.5 2z"/></g></svg>