<svg xmlns="http://www.w3.org/2000/svg" width="16" height="16" viewBox="0 0 16 16">
    <g fill="none" fill-rule="evenodd">
        <path fill="#000" d="M13.499 12.999h1.5L15 14.5h.5c.276 0 .5.224.5.5v.5c0 .276-.224.5-.5.5H.5c-.276 0-.5-.224-.5-.5V15c0-.276.224-.5.5-.5H1v-1.501h1.499L2.5 14.5h11l-.001-1.501zM3.771 7l.26.009c.17.01.333.034.488.068.233.05.437.136.614.257.176.12.315.28.418.479.102.2.153.447.153.744 0 .368-.082.67-.245.908-.164.238-.379.416-.645.533L5.942 12H4.676l-.958-1.802h-.59V12H2V7h1.771zm6.327 0v.95H8.933v3.1h1.165V12H6.632v-.95h1.166v-3.1H6.632V7h3.466zm2.96 0l.2.005c.197.01.385.035.563.076.238.053.445.143.621.268.177.125.316.291.418.498.073.148.12.319.141.514v.489c-.021.193-.07.366-.144.52-.105.214-.247.39-.426.529-.179.138-.386.24-.621.307-.235.066-.486.1-.752.1h-.698V12h-1.127V7h1.825zm-.069.897h-.629v1.511h.63c.608 0 .912-.266.912-.798 0-.26-.077-.444-.23-.552-.154-.107-.381-.16-.683-.16zm-9.31 0h-.552v1.404h.552c.609 0 .913-.248.913-.744 0-.246-.077-.417-.23-.514-.153-.097-.38-.146-.683-.146zM8 0c4.425 0 7 2.686 7 6h-1.5c0-2.481-2.186-4.5-5.5-4.5S2.5 3.519 2.5 6H1c0-3.314 2.575-6 7-6z"/>
    </g>
</svg>
