<svg xmlns="http://www.w3.org/2000/svg" width="16" height="16" viewBox="0 0 16 16">
    <path fill="#000" fill-rule="evenodd" d="M5.833 7H5v2h.833C5.925 9 6 8.91 6 8.8V7.2c0-.11-.075-.2-.167-.2zM8.5 1C4.91 1 2 3.798 2 7.25V16h13V7.25C15 3.798 12.09 1 8.5 1zM6.525 9.433l.422.844a.5.5 0 0 1-.894.446l-.528-1.056H5v.833a.5.5 0 0 1-1 0V6h1.833C6.477 6 7 6.523 7 7.167V8.5c0 .383-.189.72-.475.933zM9 10.5a.5.5 0 0 1-1 0v-4a.5.5 0 0 1 1 0v4zm4-2c0 .643-.523 1.167-1.167 1.167H11v.833a.5.5 0 0 1-1 0V6h1.833C12.477 6 13 6.523 13 7.167V8.5zm1.255 2.536a.13.13 0 0 1 .209.152c-.007.012-.681 1.302-1.088 3.095l-.105.465.327-.346a7.77 7.77 0 0 1 1.2-1.034.13.13 0 1 1 .172.192c-.057.071-.31.393-.575.875-.148.27-.27.432-.367.566L16 15v1h-2v-.96c-.167.234-.25.398-.25.956h-3.5c0-.896-.212-.777-.644-1.561a6.284 6.284 0 0 0-.576-.876.13.13 0 0 1 .005-.17.128.128 0 0 1 .169-.02c.037.024.918.618 1.605 1.507l.38.491-.15-.602c-.369-1.48-.971-2.517-.977-2.527a.13.13 0 0 1 .201-.162c.04.036.981.916 1.666 2.19l.13.245.105-.256a11.038 11.038 0 0 1 2.091-3.22zM11.833 7c.092 0 .167.09.167.2v1.6c0 .11-.075.2-.167.2H11V7z"/>
</svg>
