<svg xmlns="http://www.w3.org/2000/svg" width="16" height="16" viewBox="0 0 16 16">
    <g fill="none" fill-rule="evenodd">
        <path fill="#000" d="M8 0c3.314 0 6 2.686 6 6v8.5h1.5c.276 0 .5.224.5.5v.5c0 .276-.224.5-.5.5H.5c-.276 0-.5-.224-.5-.5V15c0-.276.224-.5.5-.5H2V6c0-3.314 2.686-6 6-6zm0 1.5C5.519 1.5 3.5 3.519 3.5 6l-.001 1.999L4.833 8C5.477 8 6 8.523 6 9.167V10.5c0 .383-.189.72-.475.933l.422.844c.123.246.023.546-.224.67-.072.036-.148.053-.223.053-.183 0-.36-.1-.447-.277l-.528-1.056H4v.833c0 .276-.224.5-.5.5l-.001-.001L3.5 14.5h9V6c0-2.481-2.019-4.5-4.5-4.5zM7.5 8c.276 0 .5.224.5.5v4c0 .276-.224.5-.5.5s-.5-.224-.5-.5v-4c0-.276.224-.5.5-.5zm3.333 0C11.477 8 12 8.523 12 9.167V10.5c0 .643-.523 1.167-1.167 1.167H10v.833c0 .276-.224.5-.5.5s-.5-.224-.5-.5V8h1.833zm-6 1H4v2h.833c.092 0 .167-.09.167-.2V9.2c0-.11-.075-.2-.167-.2zm6 0H10v2h.833c.092 0 .167-.09.167-.2V9.2c0-.11-.075-.2-.167-.2z"/>
    </g>
</svg>
