<svg xmlns="http://www.w3.org/2000/svg" width="16" height="16" viewBox="0 0 16 16"><g fill="none" fill-rule="evenodd"><path fill="#000" d="M13.398 16c.195 0 .352-.157.352-.352v-.703c0-.194-.157-.351-.352-.351h-.117c0-2.36-.943-4.858-2.847-6.094 1.913-1.242 2.847-3.747 2.847-6.094h.117c.195 0 .352-.157.352-.351v-.703c0-.195-.157-.352-.352-.352H2.852c-.195 0-.352.157-.352.352v.703c0 .194.157.351.352.351h.117c0 2.36.943 4.858 2.847 6.094-1.913 1.242-2.847 3.747-2.847 6.094h-.117c-.195 0-.352.157-.352.351v.703c0 .195.157.352.352.352h10.546zM8.125 7.797c-2.071 0-3.75-2.414-3.75-5.39h7.5c0 2.976-1.679 5.39-3.75 5.39zm3.75 6.797h-7.5c0-2.977 1.679-5.39 3.75-5.39 2.071 0 3.75 2.413 3.75 5.39z"/></g></svg>