<svg xmlns="http://www.w3.org/2000/svg" width="16" height="16" viewBox="0 0 16 16">
    <g fill="none" fill-rule="evenodd">
        <path fill="#000" d="M12.688 15c.172 0 .312-.147.312-.328v-.656c0-.182-.14-.329-.313-.329h-.104c0-2.202-.838-4.533-2.53-5.687 1.7-1.159 2.53-3.497 2.53-5.688h.104c.173 0 .313-.146.313-.328v-.656c0-.181-.14-.328-.313-.328H3.313C3.14 1 3 1.147 3 1.328v.656c0 .182.14.329.313.329h.104c0 2.202.838 4.533 2.53 5.687-1.7 1.159-2.53 3.497-2.53 5.688h-.104c-.173 0-.313.146-.313.328v.656c0 .181.14.328.313.328h9.374zM8 8C6.343 8 5 5.761 5 3h6c0 2.761-1.343 5-3 5zm3 5H5c0-2.761 1.343-5 3-5s3 2.239 3 5z"/>
    </g>
</svg>
