<svg xmlns="http://www.w3.org/2000/svg" width="16" height="16" viewBox="0 0 16 16">
    <g fill="none" fill-rule="evenodd">
        <path fill="#000" d="M13.625 16c.207 0 .375-.168.375-.375v-.75c0-.207-.168-.375-.375-.375H13.5c0-2.518-1.006-5.181-3.037-6.5 2.04-1.324 3.037-3.997 3.037-6.5h.125c.207 0 .375-.168.375-.375v-.75C14 .168 13.832 0 13.625 0H2.375C2.168 0 2 .168 2 .375v.75c0 .207.168.375.375.375H2.5c0 2.518 1.006 5.181 3.037 6.5C3.497 9.324 2.5 11.997 2.5 14.5h-.125c-.207 0-.375.168-.375.375v.75c0 .207.168.375.375.375h11.25zM8 7.25c-2.21 0-4-2.574-4-5.75h8c0 3.176-1.79 5.75-4 5.75zm4 7.25H4c0-3.176 1.79-5.75 4-5.75s4 2.574 4 5.75z"/>
    </g>
</svg>
