<svg xmlns="http://www.w3.org/2000/svg" width="16" height="16" viewBox="0 0 16 16">
    <path fill="#000" fill-rule="evenodd" d="M13.4 13.833h-.6c0-1.138-.324-2.26-.913-3.157L10.133 8l1.754-2.676c.589-.897.913-2.019.913-3.157h.6c.33 0 .6-.263.6-.584 0-.32-.27-.583-.6-.583H2.6c-.33 0-.6.262-.6.583 0 .321.27.584.6.584h.6c0 1.138.324 2.26.913 3.157L5.867 8l-1.754 2.676c-.589.897-.913 2.019-.913 3.157h-.6c-.33 0-.6.263-.6.584 0 .32.27.583.6.583h10.8c.33 0 .6-.262.6-.583 0-.321-.27-.584-.6-.584zM6 5h4c0 1.657-2 3-2 3S6 6.657 6 5zm-1 9a3 3 0 0 1 6 0H5z"/>
</svg>
