<svg xmlns="http://www.w3.org/2000/svg" width="14" height="16" viewBox="0 0 14 16">
    <g fill="none" fill-rule="evenodd">
        <path fill="#000" d="M8 9c2.484 0 4.5-2.016 4.5-4.5S10.484 0 8 0 3.5 2.016 3.5 4.5 5.516 9 8 9zm0-1.5c-1.653 0-3-1.347-3-3s1.347-3 3-3 3 1.347 3 3-1.347 3-3 3zm5.5 8.5c.828 0 1.5-.672 1.5-1.5v-.8c0-2.319-1.881-4.2-4.2-4.2-.897 0-1.328.5-2.8.5-1.472 0-1.9-.5-2.8-.5-2.319 0-4.2 1.881-4.2 4.2v.8c0 .828.672 1.5 1.5 1.5h11zm0-1.5h-11v-.8c0-1.488 1.212-2.7 2.7-2.7.456 0 1.197.5 2.8.5 1.616 0 2.34-.5 2.8-.5 1.487 0 2.7 1.212 2.7 2.7v.8z" transform="translate(-1)"/>
    </g>
</svg>
