<svg xmlns="http://www.w3.org/2000/svg" width="13" height="14" viewBox="0 0 13 14"><g fill="none" fill-rule="evenodd"><path fill="#000" d="M8.125 8.875c2.174 0 3.937-1.764 3.937-3.937C12.062 2.764 10.3 1 8.125 1S4.187 2.764 4.187 4.938c0 2.173 1.764 3.937 3.938 3.937zM8 7.5C6.622 7.5 5.5 6.378 5.5 5S6.622 2.5 8 2.5s2.5 1.122 2.5 2.5S9.378 7.5 8 7.5zm4.937 7.5c.725 0 1.313-.588 1.313-1.313v-.7c0-2.028-1.646-3.674-3.675-3.674-.785 0-1.162.437-2.45.437-1.288 0-1.663-.437-2.45-.437C3.646 9.313 2 10.959 2 12.988v.7C2 14.411 2.588 15 3.312 15h9.625zm-.137-1.4H3.5v-.64c0-1.19 1.025-2.16 2.283-2.16.385 0 1.012.4 2.367.4 1.366 0 1.979-.4 2.367-.4 1.258 0 2.283.97 2.283 2.16v.64z" transform="translate(-2 -1)"/></g></svg>