<svg xmlns="http://www.w3.org/2000/svg" width="16" height="16" viewBox="0 0 16 16"><g fill="none" fill-rule="evenodd"><path fill="#000" d="M8.237 15.828l.5-1.5c.01-.025.013-.053.013-.078V11h4.5c.412 0 .75-.337.75-.75 0-1.79-.925-3.394-2.422-4.419L11.4 4.5h.85c.412 0 .75-.337.75-.75v-3c0-.412-.338-.75-.75-.75h-8.5C3.337 0 3 .338 3 .75v3c0 .413.337.75.75.75h.85l-.178 1.331C2.925 6.856 2 8.46 2 10.25c0 .413.337.75.75.75h4.5v3.25c0 .028.003.053.012.078l.5 1.5c.075.228.4.228.475 0zM12.422 9.5H3.578c.26-1.203 1.113-2.187 2.234-2.744L6.312 3H4.5V1.5h7V3H9.687l.5 3.756c1.12.557 1.975 1.544 2.235 2.744z"/></g></svg>