<svg height="16" viewBox="0 0 16 16" width="16" xmlns="http://www.w3.org/2000/svg"><path d="m14 7h-2v-2h-9v9h9v-1h2v1.667c-.002.735-.583 1.33-1.3 1.333h-10.4c-.717-.002-1.298-.598-1.3-1.333v-10.304c.002-.735.583-1.331 1.3-1.333h2.277c0-1.473 1.487-3.03 2.923-3.03s2.962 1.557 2.962 3.03h2.238c.717.002 1.298.598 1.3 1.333zm-6.333-3a1.333 1.333 0 1 0 0-2.667 1.333 1.333 0 0 0 0 2.667zm6.333 5.003a1 1 0 0 1 0 2h-3v1.393a.63.63 0 0 1 -1.073.427l-2.927-2.82 2.927-2.82a.63.63 0 0 1 1.073.426v1.394z"/></svg>