<svg xmlns="http://www.w3.org/2000/svg" width="16" height="16" viewBox="0 0 16 16"><g fill="none" fill-rule="evenodd"><path fill="#000" d="M12.5 16c.828 0 1.5-.672 1.5-1.5v-11c0-.828-.672-1.5-1.5-1.5H10c0-1.103-.897-2-2-2S6 .897 6 2H3.5C2.672 2 2 2.672 2 3.5v11c0 .828.672 1.5 1.5 1.5h9zM8 2.75c-.416 0-.75-.334-.75-.75s.334-.75.75-.75.75.334.75.75-.334.75-.75.75zm4.312 11.75H3.687c-.103 0-.187-.084-.187-.188V3.688c0-.104.084-.188.187-.188H5v1.125c0 .206.169.375.375.375h5.25c.206 0 .375-.169.375-.375V3.5h1.312c.104 0 .188.084.188.188v10.624c0 .104-.084.188-.188.188z"/></g></svg>