<svg xmlns="http://www.w3.org/2000/svg" width="16" height="16" viewBox="0 0 16 16">
    <path fill="#000" fill-rule="evenodd" d="M7.5 0c1.385 0 2.853 1.448 2.956 2.872l.006.158H12.7c.672.002 1.225.525 1.293 1.197l.007.136V7h-2.001L12 5H3v9h9l-.001-1H14v1.667a1.325 1.325 0 0 1-1.167 1.326L12.7 16H2.3c-.672-.002-1.225-.526-1.293-1.197L1 14.667V4.363a1.325 1.325 0 0 1 1.167-1.326L2.3 3.03h2.277C4.577 1.557 6.064 0 7.5 0zm2.427 7.183A.63.63 0 0 1 11 7.609v1.394h3a1 1 0 0 1 0 2h-3v1.393a.63.63 0 0 1-1.073.427L7 10.003zm-2.26-5.85a1.333 1.333 0 1 0 0 2.667 1.333 1.333 0 0 0 0-2.667z"/>
</svg>
