<svg xmlns="http://www.w3.org/2000/svg" width="16" height="16" viewBox="0 0 16 16">
    <path fill="#000" fill-rule="nonzero" d="M14.667 0H1.333C.597 0 0 .597 0 1.333v13.334C0 15.403.597 16 1.333 16h13.334c.736 0 1.333-.597 1.333-1.333V1.333C16 .597 15.403 0 14.667 0zm-12 14H1.333v-1.333h1.334V14zm0-3.333H1.333V9.333h1.334v1.334zm0-4H1.333V5.333h1.334v1.334zm0-3.334H1.333V2h1.334v1.333zm9.333 10H4V8.667h8v4.666zm0-6H4V2.667h8v4.666zM14.667 14h-1.334v-1.333h1.334V14zm0-3.333h-1.334V9.333h1.334v1.334zm0-4h-1.334V5.333h1.334v1.334zm0-3.334h-1.334V2h1.334v1.333z"/>
</svg>
