<svg xmlns="http://www.w3.org/2000/svg" width="16" height="16" viewBox="0 0 16 16">
    <path fill="#000" fill-rule="evenodd" d="M4.21 3.316a.7.7 0 0 0 .494 1.195h1.81v5.16a1.4 1.4 0 1 0 2.8 0v-5.16h1.81a.7.7 0 0 0 .495-1.195L7.914.17 4.21 3.316zM8 13.9H4.31a.21.21 0 0 1-.21-.21V8.31a.21.21 0 0 1 .21-.21c.393-.313.59-.663.59-1.05S4.703 6.313 4.31 6A2.313 2.313 0 0 0 2 8.31v5.38A2.313 2.313 0 0 0 4.31 16H8v-2.1zm0 0h3.69a.21.21 0 0 0 .21-.21V8.31a.21.21 0 0 0-.21-.21c-.393-.313-.59-.663-.59-1.05s.197-.737.59-1.05A2.313 2.313 0 0 1 14 8.31v5.38A2.313 2.313 0 0 1 11.69 16H8v-2.1z"/>
</svg>
