<svg xmlns="http://www.w3.org/2000/svg" width="16" height="16" viewBox="0 0 16 16">
    <path fill="#000" fill-rule="evenodd" d="M4.21 3.155c-.2.2-.26.333-.152.595.108.262.363.25.646.25H7v6c-.003.502.459 1 1 1 .541 0 1.003-.498 1-1V4h2.124c.284 0 .539.012.647-.25.108-.262.049-.395-.152-.595L8 0 4.21 3.155zM8 14H4.31c-.116 0-.31-.194-.31-.31V8.31c0-.116.194-.31.31-.31.46-.247.69-.563.69-.95S4.77 6.313 4.31 6A2.313 2.313 0 0 0 2 8.31v5.38A2.313 2.313 0 0 0 4.31 16H8v-2zm0 0h3.69c.116 0 .31-.194.31-.31V8.31c0-.116-.194-.31-.31-.31-.46-.247-.69-.563-.69-.95s.23-.737.69-1.05A2.313 2.313 0 0 1 14 8.31v5.38A2.313 2.313 0 0 1 11.69 16H8v-2z"/>
</svg>
