<svg xmlns="http://www.w3.org/2000/svg" width="16" height="16" viewBox="0 0 16 16">
    <g fill="none" fill-rule="evenodd">
        <path fill="#000" d="M14.799 6c.663 0 1.2-.537 1.2-1.2 0-.664-.537-1.2-1.2-1.2h-1.891l.281-2.252C13.272.691 12.805.091 12.148.01c-.655-.081-1.258.384-1.34 1.042L10.49 3.6H6.51l.281-2.252C6.873.691 6.406.091 5.75.01c-.655-.081-1.258.384-1.34 1.042L4.092 3.6H2c-.663 0-1.2.536-1.2 1.2C.8 5.463 1.337 6 2 6h1.791l-.4 3.2H1.2c-.663 0-1.2.536-1.2 1.2 0 .663.537 1.2 1.2 1.2h1.891l-.281 2.25c-.083.658.384 1.258 1.041 1.34.05.006.101.01.15.01.597 0 1.114-.445 1.19-1.052l.318-2.548H9.49l-.281 2.25c-.083.658.384 1.258 1.041 1.34.05.006.101.01.15.01.597 0 1.114-.445 1.19-1.052l.318-2.548h2.091c.663 0 1.2-.537 1.2-1.2 0-.664-.537-1.2-1.2-1.2h-1.791l.4-3.2h2.191zM9.79 9.2H5.81l.4-3.2h3.981l-.4 3.2z"/>
    </g>
</svg>
