<svg xmlns="http://www.w3.org/2000/svg" width="16" height="16" viewBox="0 0 16 16"><g fill="none" fill-rule="evenodd"><path fill="#000" d="M4.698 15c.173 0 .339-.138.37-.31l.613-3.44h3.477l-.591 3.31c-.041.229.136.44.369.44h.762c.173 0 .339-.138.369-.31l.614-3.44h2.917c.173 0 .339-.138.37-.31l.133-.75c.041-.229-.136-.44-.369-.44h-2.783l.625-3.5h2.917c.173 0 .339-.138.37-.31l.133-.75c.041-.229-.136-.44-.37-.44h-2.782l.591-3.309c.041-.23-.136-.441-.369-.441h-.762c-.173 0-.339.138-.369.31l-.615 3.44H6.842l.591-3.309C7.474 1.211 7.297 1 7.064 1h-.762c-.173 0-.339.138-.369.31l-.614 3.44H2.402c-.173 0-.339.139-.37.31l-.133.75c-.041.229.135.44.369.44h2.783l-.625 3.5H1.509c-.173 0-.339.138-.37.31l-.133.75c-.041.229.136.44.37.44h2.782l-.591 3.31c-.041.229.136.44.369.44h.762zm4.728-5.25H5.949l.625-3.5h3.477l-.625 3.5z"/></g></svg>