<svg xmlns="http://www.w3.org/2000/svg" width="16" height="16" viewBox="0 0 16 16">
    <path fill="#000" fill-rule="evenodd" d="M3.333 1.333h9.334c.366 0 .666-.3.666-.666 0-.367-.3-.667-.666-.667H3.333c-.366 0-.666.3-.666.667 0 .366.3.666.666.666zm11.334 4H1.333C.597 5.333 0 5.931 0 6.667v8C0 15.403.597 16 1.333 16h13.334c.736 0 1.333-.597 1.333-1.333v-8c0-.736-.597-1.334-1.333-1.334zm-11.334 8L6.667 8l2 2.667L10 9.333l2.667 4H3.333zM2 4h12c.367 0 .667-.3.667-.667 0-.366-.3-.666-.667-.666H2c-.367 0-.667.3-.667.666 0 .367.3.667.667.667z"/>
</svg>
