<svg xmlns="http://www.w3.org/2000/svg" width="16" height="16" viewBox="0 0 16 16"><g fill="none" fill-rule="evenodd"><path fill="#000" d="M14.437 11.25c.725 0 1.313-.588 1.313-1.312v-7c0-.725-.588-1.313-1.313-1.313h-10.5c-.724 0-1.312.588-1.312 1.313v7c0 .724.588 1.312 1.312 1.312h10.5zm-.164-1.312H4.102c-.091 0-.165-.074-.165-.165V3.102c0-.091.074-.164.165-.164h10.171c.091 0 .164.073.164.164v6.671c0 .091-.073.165-.164.165zM6.125 5.78c.604 0 1.094-.49 1.094-1.093 0-.605-.49-1.094-1.094-1.094-.604 0-1.094.49-1.094 1.094 0 .604.49 1.093 1.094 1.093zm5.687 8.094c.725 0 1.313-.588 1.313-1.312v-.438h-1.313v.273c0 .091-.073.165-.164.165H1.477c-.091 0-.165-.074-.165-.165V5.727c0-.091.074-.164.165-.164h.273V4.25h-.438C.588 4.25 0 4.838 0 5.563v7c0 .724.588 1.312 1.312 1.312h10.5zm1.313-5.25V6.438L11.17 4.482c-.129-.128-.336-.128-.465 0l-2.83 2.83-1.08-1.08c-.129-.128-.336-.128-.465 0l-1.08 1.08v1.313h7.875z"/></g></svg>