<svg xmlns="http://www.w3.org/2000/svg" width="16" height="16" viewBox="0 0 16 16">
    <path fill="#000" fill-rule="evenodd" d="M3.55 1h8.9c.344 0 .55-.225.55-.5s-.206-.5-.55-.5h-8.9C3.206 0 3 .225 3 .5s.206.5.55.5zm11.117 5H1.333C.597 6 0 6.56 0 7.25v7.5C0 15.44.597 16 1.333 16h13.334c.736 0 1.333-.56 1.333-1.25v-7.5C16 6.56 15.403 6 14.667 6zM3 14l3.571-6 2.143 3 1.429-1.5L13 14H3zM2.55 3h10.9c.33 0 .55-.225.55-.5s-.22-.5-.55-.5H2.55c-.33 0-.55.225-.55.5s.22.5.55.5zM1.6 5h12.8c.385 0 .6-.225.6-.5s-.215-.5-.6-.5H1.6c-.385 0-.6.225-.6.5s.215.5.6.5z"/>
</svg>
