<svg xmlns="http://www.w3.org/2000/svg" width="16" height="16" viewBox="0 0 16 16"><g fill="none" fill-rule="evenodd"><path fill="#000" d="M1 14v-.625c0-.206.169-.375.375-.375h1.25c.206 0 .375.169.375.375V14h10v-.625c0-.206.169-.375.375-.375h1.25c.206 0 .375.169.375.375V14h.25c.416 0 .75-.334.75-.75V2.75c0-.416-.334-.75-.75-.75H15v.625c0 .206-.169.375-.375.375h-1.25C13.169 3 13 2.831 13 2.625V2H3v.625C3 2.831 2.831 3 2.625 3h-1.25C1.169 3 1 2.831 1 2.625V2H.75C.334 2 0 2.334 0 2.75v10.5c0 .416.334.75.75.75H1zm10.625-6.75h-7.25C4.169 7.25 4 7.081 4 6.875v-3c0-.206.169-.375.375-.375h7.25c.206 0 .375.169.375.375v3c0 .206-.169.375-.375.375zm-9-1.25h-1.25C1.169 6 1 5.831 1 5.625v-1.25C1 4.169 1.169 4 1.375 4h1.25c.206 0 .375.169.375.375v1.25C3 5.831 2.831 6 2.625 6zm12 0h-1.25C13.169 6 13 5.831 13 5.625v-1.25c0-.206.169-.375.375-.375h1.25c.206 0 .375.169.375.375v1.25c0 .206-.169.375-.375.375zm-12 3h-1.25C1.169 9 1 8.831 1 8.625v-1.25C1 7.169 1.169 7 1.375 7h1.25c.206 0 .375.169.375.375v1.25C3 8.831 2.831 9 2.625 9zm12 0h-1.25C13.169 9 13 8.831 13 8.625v-1.25c0-.206.169-.375.375-.375h1.25c.206 0 .375.169.375.375v1.25c0 .206-.169.375-.375.375zm-3 3.5h-7.25c-.206 0-.375-.169-.375-.375v-3c0-.206.169-.375.375-.375h7.25c.206 0 .375.169.375.375v3c0 .206-.169.375-.375.375zm-9-.5h-1.25C1.169 12 1 11.831 1 11.625v-1.25c0-.206.169-.375.375-.375h1.25c.206 0 .375.169.375.375v1.25c0 .206-.169.375-.375.375zm12 0h-1.25c-.206 0-.375-.169-.375-.375v-1.25c0-.206.169-.375.375-.375h1.25c.206 0 .375.169.375.375v1.25c0 .206-.169.375-.375.375z"/></g></svg>