<svg xmlns="http://www.w3.org/2000/svg" width="16" height="16" viewBox="0 0 16 16"><g fill="none" fill-rule="evenodd"><path fill="#000" d="M14.436 14.75c1.008 0 1.641-1.094 1.137-1.968L9.012 1.406c-.504-.874-1.769-.875-2.274 0L.178 12.782c-.505.873.126 1.968 1.136 1.968h13.122zm-.283-1.313H1.597c-.127 0-.206-.136-.143-.246L7.733 2.31c.063-.11.22-.11.284 0l6.279 10.882c.063.11-.016.246-.143.246zM8.441 9.72c.17 0 .317-.139.327-.31l.18-3.062C8.96 6.16 8.81 6 8.621 6H7.129c-.189 0-.338.159-.327.347l.18 3.063c.01.173.154.309.327.309h1.132zm-.566 2.68c.634 0 1.148-.515 1.148-1.149s-.514-1.148-1.148-1.148c-.634 0-1.148.514-1.148 1.148 0 .634.514 1.148 1.148 1.148z"/></g></svg>