<svg xmlns="http://www.w3.org/2000/svg" width="24" height="24" viewBox="0 0 24 24">
    <path fill="#000" fill-rule="evenodd" d="M18 5h1v1a1 1 0 1 0 2 0V5h1a1 1 0 1 0 0-2h-1V2a1 1 0 1 0-2 0v1h-1a1 1 0 1 0 0 2zM5 7h1v1a1 1 0 1 0 2 0V7h1a1 1 0 1 0 0-2H8V4a1 1 0 1 0-2 0v1H5a1 1 0 1 0 0 2zm11.316.684c.87.869.91 2.255.119 3.171l-.119.128-9.333 9.333a2.326 2.326 0 0 1-1.65.684 2.332 2.332 0 0 1-1.768-3.855l.119-.128 9.333-9.333a2.332 2.332 0 0 1 3.3 0zM17 14a1 1 0 0 1 1 1v1h1a1 1 0 1 1 0 2h-1v1a1 1 0 1 1-2 0v-1h-1a1 1 0 1 1 0-2h1v-1a1 1 0 0 1 1-1zm-3.055-4.875l-.083.07-.667.667a.666.666 0 0 0 .86 1.013l.083-.07.667-.667a.666.666 0 0 0-.86-1.013z"/>
</svg>
