<svg xmlns="http://www.w3.org/2000/svg" width="16" height="16" viewBox="0 0 16 16">
    <path fill="#000" fill-rule="evenodd" d="M7.5 11a1.5 1.5 0 1 0 0 3 1.5 1.5 0 0 0 0-3zM9.377 1H6.125C4.402 1 3 2.442 3 4.214c0 .71.56 1.286 1.25 1.286S5.5 4.924 5.5 4.214c0-.354.28-.643.625-.643h3.252c.62 0 1.123.518 1.123 1.155 0 .414-.217.798-.566 1.003L6.755 7.598a1.306 1.306 0 0 0-.465 1.754c.23.415.652.648 1.086.648.21 0 .424-.055.619-.17l3.18-1.868C12.301 7.3 13 6.06 13 4.726 13 2.672 11.374 1 9.377 1z"/>
</svg>
