<svg xmlns="http://www.w3.org/2000/svg" width="16" height="16" viewBox="0 0 16 16"><g fill="none" fill-rule="evenodd"><path fill="#000" d="M8 16c1.792 0 3.25-1.458 3.25-3.25 0-.83-.312-1.587-.825-2.162.27-.3.45-.684.499-1.106.884-.526 3-1.528 3-4.319C13.924 2.223 11.079 0 8.239 0 5.926 0 4.177.943 2.85 2.891c-.599.88-.404 2.072.443 2.714l1.148.87c.338.257.756.4 1.18.406-.37.593-.558 1.269-.558 2.017v.357c0 .512.194.98.512 1.333-.513.575-.825 1.332-.825 2.162C4.75 14.542 6.208 16 8 16zm.942-6.25H7.058c-.272 0-.495-.22-.495-.495v-.357c0-1.475 1.118-2.064 1.963-2.538.725-.406 1.169-.682 1.169-1.22 0-.711-.908-1.183-1.642-1.183-.956 0-1.398.452-2.018 1.236-.168.211-.474.25-.688.087L4.2 4.41c-.21-.16-.257-.456-.109-.675C5.065 2.305 6.306 1.5 8.24 1.5c2.023 0 4.184 1.58 4.184 3.663 0 2.766-2.987 2.809-2.987 3.83v.262c0 .275-.223.495-.495.495zM8 14.5c-.965 0-1.75-.785-1.75-1.75S7.035 11 8 11s1.75.785 1.75 1.75S8.965 14.5 8 14.5z"/></g></svg>