<svg xmlns="http://www.w3.org/2000/svg" width="16" height="16" viewBox="0 0 16 16"><g fill="none" fill-rule="evenodd"><path fill="#000" d="M13.5 16c.828 0 1.5-.672 1.5-1.5V9c0-.828-.672-1.5-1.5-1.5H5V4.538C5 2.888 6.316 1.516 7.969 1.5 9.637 1.481 11 2.834 11 4.5v.75c0 .416.334.75.75.75s.75-.334.75-.75v-.706c0-2.488-2-4.538-4.49-4.544C5.524-.006 3.5 2.016 3.5 4.5v3h-1C1.672 7.5 1 8.172 1 9v5.5c0 .828.672 1.5 1.5 1.5h11zm0-1.5h-11V9h11v5.5zm-5.5-1c.484 0 .875-.39.875-.875v-1.75c0-.484-.39-.875-.875-.875-.484 0-.875.39-.875.875v1.75c0 .484.39.875.875.875z"/></g></svg>