<svg xmlns="http://www.w3.org/2000/svg" width="16" height="16" viewBox="0 0 16 16">
    <path fill="#000" fill-rule="evenodd" d="M8 0c1.945 0 3.557 1.45 3.844 3.343a4.007 4.007 0 0 1 2.214 2.518.824.824 0 0 1 .942.814v2.532c0 .44-.344.799-.777.823V11a4 4 0 0 1-4 4H5.777a4 4 0 0 1-4-4l-.001-.973-.057-.002A.824.824 0 0 1 1 9.207V6.675a.824.824 0 0 1 .944-.815 4.004 4.004 0 0 1 2.212-2.518C4.443 1.45 6.055 0 8 0zm3.088 11H4.912c-.252 0-.478.21-.572.4-.095.188-.039.317.141.458 1.97 1.523 5.069 1.523 7.038 0 .18-.141.236-.27.141-.459-.094-.188-.32-.399-.572-.399zM5.5 6a1.5 1.5 0 1 0 0 3 1.5 1.5 0 0 0 0-3zm5 0a1.5 1.5 0 1 0 0 3 1.5 1.5 0 0 0 0-3zM8 1.579c-.957 0-1.78.585-2.14 1.421h4.28A2.333 2.333 0 0 0 8 1.58z"/>
</svg>
