<svg xmlns="http://www.w3.org/2000/svg" width="16" height="16" viewBox="0 0 16 16">
    <g fill="none" fill-rule="evenodd">
        <path fill="#000" d="M14 16c1.656 0 3-1.344 3-3h1c.828 0 1.5-.672 1.5-1.5v-4c0-.828-.672-1.5-1.5-1.5h-1c0-1.656-1.344-3-3-3h-3.25V.75c0-.414-.336-.75-.75-.75s-.75.336-.75.75V3H6C4.344 3 3 4.344 3 6H2C1.172 6 .5 6.672.5 7.5v4c0 .828.672 1.5 1.5 1.5h1c0 1.656 1.344 3 3 3h8zm0-1.5H6c-.826-.002-1.498-.674-1.5-1.5V6c0-.828.672-1.5 1.5-1.5h8c.828 0 1.5.672 1.5 1.5v7c-.002.826-.674 1.498-1.5 1.5zm-6.5-5C8.328 9.5 9 8.828 9 8s-.672-1.5-1.5-1.5S6 7.172 6 8s.672 1.5 1.5 1.5zm5 0c.828 0 1.5-.672 1.5-1.5s-.672-1.5-1.5-1.5S11 7.172 11 8s.672 1.5 1.5 1.5zm-9.5 2H2v-4h1v4zm15 0h-1v-4h1v4zM8 12.75v-1.5H6v1.5h2zm6 0v-1.5h-2v1.5h2zm-3 0v-1.5H9v1.5h2z" transform="translate(-2)"/>
    </g>
</svg>
