<svg xmlns="http://www.w3.org/2000/svg" width="16" height="16" viewBox="0 0 16 16">
    <path fill="#000" fill-rule="evenodd" d="M8 0a4.002 4.002 0 0 1 3.874 3H12a3 3 0 0 1 3 3v.243a.878.878 0 0 1 .933.877V9.82a.878.878 0 0 1-.878.879L15 10.696V13a3 3 0 0 1-3 3H4a3 3 0 0 1-3-3v-2.309a.878.878 0 0 1-1-.87V7.12a.878.878 0 0 1 1-.87V6a3 3 0 0 1 3-3h.126C4.57 1.275 6.136 0 8 0zm3.333 11H4.667c-.272 0-.516.316-.618.599-.102.283-.042.476.153.689 2.125 2.283 5.47 2.283 7.596 0 .195-.213.255-.406.153-.69-.102-.282-.346-.598-.618-.598zM5.5 6a1.5 1.5 0 1 0 0 3 1.5 1.5 0 0 0 0-3zm5 0a1.5 1.5 0 1 0 0 3 1.5 1.5 0 0 0 0-3zM8 2a2 2 0 0 0-1.732 1h3.464A2 2 0 0 0 8 2z"/>
</svg>
