<svg xmlns="http://www.w3.org/2000/svg" width="16" height="16" viewBox="0 0 16 16">
    <g fill="none" fill-rule="evenodd">
        <path fill="#000" d="M11.368 14.474c1.395 0 2.527-1.132 2.527-2.527h.842c.697 0 1.263-.566 1.263-1.263V7.316c0-.697-.566-1.263-1.263-1.263h-.842c0-1.395-1.132-2.527-2.527-2.527H8.632V1.632C8.632 1.283 8.349 1 8 1c-.349 0-.632.283-.632.632v1.894H4.632c-1.395 0-2.527 1.132-2.527 2.527h-.842C.566 6.053 0 6.619 0 7.316v3.368c0 .697.566 1.263 1.263 1.263h.842c0 1.395 1.132 2.527 2.527 2.527h6.736zm0-1.263H4.632c-.696-.003-1.262-.568-1.264-1.264V6.053c0-.698.566-1.264 1.264-1.264h6.736c.698 0 1.264.566 1.264 1.264v5.894c-.002.696-.568 1.261-1.264 1.264zM5.895 9c.697 0 1.263-.566 1.263-1.263s-.566-1.263-1.263-1.263c-.698 0-1.263.566-1.263 1.263S5.197 9 5.895 9zm4.21 0c.697 0 1.263-.566 1.263-1.263s-.565-1.263-1.263-1.263c-.697 0-1.263.566-1.263 1.263S9.408 9 10.105 9zm-8 1.684h-.842V7.316h.842v3.368zm12.632 0h-.842V7.316h.842v3.368zm-8.421 1.053v-1.263H4.632v1.263h1.684zm5.052 0v-1.263H9.684v1.263h1.684zm-2.526 0v-1.263H7.158v1.263h1.684z"/>
    </g>
</svg>
