<svg xmlns="http://www.w3.org/2000/svg" width="16" height="16" viewBox="0 0 16 16">
    <g fill="none" fill-rule="evenodd">
        <path fill="#000" d="M15.106 13.407l-3.07-1.074 3.07-1.075c.695-.243 1.062-1.004.818-1.698-.242-.695-1-1.062-1.699-.818L8 10.92 1.775 8.74c-.696-.243-1.457.125-1.7.819-.243.694.124 1.456.818 1.698l13.333 4.667c.146.051.294.075.44.075.551 0 1.067-.344 1.26-.893.242-.696-.125-1.456-.82-1.7zm-14.213 0c-.694.244-1.061 1.004-.818 1.699.192.55.708.893 1.259.893.146 0 .295-.024.44-.075l4.208-1.473-4.036-1.412-1.053.368zM8 9.333c2.06 0 3.5-1.598 3.5-3.887C11.5 3.157 8 0 8 0S4.5 3.157 4.5 5.446c0 2.289 1.44 3.887 3.5 3.887zm-.163-5.15L8 4l.163.183c.052.06 1.291 1.464 1.291 2.336C9.454 7.391 8.856 8 8 8c-.857 0-1.455-.608-1.455-1.48s1.239-2.277 1.292-2.336z"/>
    </g>
</svg>
