<svg xmlns="http://www.w3.org/2000/svg" width="16" height="16" viewBox="0 0 16 16"><g fill="none" fill-rule="evenodd"><path fill="#000" d="M3.609 13.642c.805.649 1.787 1.102 2.858 1.32l.324.06-3.278 1.07c-.601.196-1.271-.029-1.559-.505l-.056-.106-.055-.124c-.231-.511.033-1.08.594-1.326l.124-.047 1.048-.342zm8.782 0l1.048.342c.601.196.922.745.76 1.263l-.042.11-.055.124c-.231.511-.877.784-1.486.647l-.13-.036-3.277-1.07c1.197-.19 2.296-.666 3.182-1.38zm2.359-1.48c.644 0 1.175.415 1.243.948l.007.116v.132c0 .495-.397.91-.935 1.029-.022-.056-.047-.112-.076-.167-.211-.403-.575-.723-1.037-.915l-.177-.065-.765-.174.124-.136c.141-.161.272-.33.39-.503l.172-.264h1.054zm-12.446.001c.163.268.35.525.562.767l.078.086.079.085-.798.139c-.545.178-.977.526-1.214.98-.029.055-.054.11-.076.167-.497-.11-.873-.472-.928-.916L0 13.358v-.132c0-.548.488-1 1.114-1.057l.136-.006h1.054zM6.737 2c.898.833 1.69 1.725 2.329 2.606.39-.478.83-.954 1.317-1.406C12.082 4.776 13.3 7.351 13.3 8.6c0 2.982-2.35 5.4-5.25 5.4S2.8 11.582 2.8 8.6c0-1.68 1.635-4.463 3.937-6.6zm.185 4.75C5.975 7.885 5.5 8.55 5.5 9.304c0 1.514 1.147 2.446 2.556 2.446.564 0 1.085-.176 1.508-.472.962-.673 1.187-1.977.653-2.996-.065-.126-.139-.256-.22-.39L8.852 9.198S7.057 6.906 6.922 6.75z"/></g></svg>