<svg xmlns="http://www.w3.org/2000/svg" width="16" height="16" viewBox="0 0 16 16">
    <g fill="none" fill-rule="evenodd">
        <path fill="#000" d="M8.6 5.054c.667.52 1.067 1.348 1.067 2.215v1.039c0 .383.298.692.666.692.368 0 .667-.31.667-.692v-1.04c0-1.3-.598-2.542-1.6-3.323-.667-.52-1.067-1.347-1.067-2.214V.692C8.333.31 8.035 0 7.667 0 7.299 0 7 .31 7 .692v1.039c0 1.3.598 2.543 1.6 3.323zm5.625 3.688c.698-.244 1.457.123 1.7.818.243.694-.124 1.455-.819 1.698l-3.07 1.075 3.07 1.074c.695.244 1.062 1.004.82 1.7-.193.549-.709.893-1.26.893-.146 0-.294-.024-.44-.075L.893 11.258C.2 11.016-.168 10.254.075 9.56s1.004-1.062 1.7-.818L8 10.92zm-12.28 4.297l4.037 1.412-4.207 1.473c-.146.051-.295.075-.441.075-.55 0-1.067-.344-1.259-.893-.243-.695.124-1.455.818-1.699l1.053-.368zM3.668 0c.368 0 .666.31.666.692v1.039c0 .867.4 1.695 1.067 2.214C6.402 4.725 7 5.968 7 7.27v1.039C7 8.69 6.701 9 6.333 9c-.368 0-.666-.31-.666-.692v-1.04c0-.866-.4-1.694-1.067-2.214C3.598 4.274 3 3.03 3 1.73V.692C3 .31 3.299 0 3.667 0z"/>
    </g>
</svg>
