<svg xmlns="http://www.w3.org/2000/svg" width="16" height="16" viewBox="0 0 16 16">
    <path fill="#000" fill-rule="evenodd" d="M8.6 5.054a2.82 2.82 0 0 1 1.067 2.215v1.039a.68.68 0 0 0 .666.692.68.68 0 0 0 .667-.692v-1.04c0-1.3-.598-2.542-1.6-3.323a2.82 2.82 0 0 1-1.067-2.214V.692A.68.68 0 0 0 7.667 0 .68.68 0 0 0 7 .692v1.039c0 1.3.598 2.543 1.6 3.323zm5.625 3.688a1.332 1.332 0 1 1 .881 2.516l-3.07 1.075 3.07 1.074a1.335 1.335 0 0 1-.44 2.593c-.146 0-.294-.024-.44-.075L.893 11.258a1.333 1.333 0 1 1 .882-2.516L8 10.92zm-12.28 4.297l4.037 1.412-4.207 1.473a1.334 1.334 0 0 1-.881-2.517l1.052-.368zM3.668 0a.68.68 0 0 1 .666.692v1.039c0 .867.4 1.695 1.067 2.214C6.402 4.725 7 5.968 7 7.27v1.039A.68.68 0 0 1 6.333 9a.68.68 0 0 1-.666-.692v-1.04c0-.866-.4-1.694-1.067-2.214C3.598 4.274 3 3.03 3 1.73V.692A.68.68 0 0 1 3.667 0z"/>
</svg>
