<svg xmlns="http://www.w3.org/2000/svg" width="16" height="16" viewBox="0 0 16 16"><g fill="none" fill-rule="evenodd"><path fill="#000" d="M4.609 13.642c.886.714 1.985 1.19 3.182 1.38l-3.278 1.07c-.644.21-1.367-.063-1.615-.611l-.055-.124c-.248-.548.074-1.162.718-1.373zm6.782 0l1.048.342c.644.21.966.825.718 1.373l-.055.124c-.248.548-.971.821-1.615.611l-3.278-1.07c1.197-.19 2.296-.666 3.182-1.38zm2.359-1.479c.69 0 1.25.476 1.25 1.063v.132c0 .495-.397.91-.935 1.029-.022-.056-.047-.112-.076-.167-.237-.454-.669-.802-1.214-.98l-.765-.174.124-.136c.212-.242.4-.499.562-.767zm-10.446 0c.163.268.35.525.562.767.051.058.104.115.157.171l-.798.139c-.545.178-.977.526-1.214.98-.029.055-.054.11-.076.167-.538-.119-.935-.534-.935-1.029v-.132c0-.587.56-1.063 1.25-1.063zM10.312 10.75c.104 0 .188-.084.188-.188v-.71c0-1.535-.76-2.957-2.032-3.81-.134-.09-.218-.235-.218-.394v-1.46c0-.104-.084-.188-.188-.188H6.937c-.103 0-.187.084-.187.187v1.46c0 .516.24 1.018.67 1.3C8.41 7.585 9 8.675 9 9.851v.71c0 .104.084.188.187.188h1.125zM7.062 10.75c.104 0 .188-.084.188-.188v-.71c0-1.015-.492-1.954-1.32-2.533-.56-.39-.93-.992-.93-1.671v-1.46C5 4.083 4.916 4 4.812 4H3.687c-.103 0-.187.084-.187.187v1.557c0 1.024.577 1.912 1.413 2.5.525.368.837.966.837 1.608v.71c0 .104.084.188.187.188h1.125z"/></g></svg>