<svg xmlns="http://www.w3.org/2000/svg" width="16" height="16" viewBox="0 0 16 16"><g fill="none" fill-rule="evenodd"><path fill="#000" d="M14.5 14c.828 0 1.5-.672 1.5-1.5v-9c0-.828-.672-1.5-1.5-1.5h-13C.672 2 0 2.672 0 3.5v9c0 .828.672 1.5 1.5 1.5h13zM8 9.5c-.725.012-1.768-.983-2.294-1.397C3.318 6.233 2.2 5.346 1.5 4.775V3.5h13v1.275c-.7.57-1.818 1.458-4.206 3.328C9.768 8.517 8.725 9.511 8 9.5zm6.5 3h-13V6.7c.716.57 1.732 1.37 3.28 2.583C5.461 9.82 6.657 11.007 8 11c1.335.007 2.516-1.162 3.22-1.717C12.768 8.07 13.784 7.27 14.5 6.7v5.8z"/></g></svg>