<svg xmlns="http://www.w3.org/2000/svg" width="16" height="16" viewBox="0 0 16 16">
    <g fill="none" fill-rule="evenodd">
        <path fill="#000" d="M3.333 7.442V6c0-.737.598-1 1.334-1h6.666c.736 0 1.334.263 1.334 1v1.445l1.322-.726 1.352-.838L8.017 0 .66 5.882l1.353.839 1.32.721zM6 6.667c-.367 0-.667.3-.667.666 0 .367.3.667.667.667h4c.367 0 .667-.3.667-.667 0-.366-.3-.666-.667-.666H6zm2.702 4.898c-.43.266-.975.266-1.405 0L.008 7.047 0 7.05v7.616C0 15.403.597 16 1.333 16h13.334c.736 0 1.333-.597 1.333-1.333V7.042l-7.298 4.523z"/>
    </g>
</svg>
