<svg xmlns="http://www.w3.org/2000/svg" width="16" height="16" viewBox="0 0 16 16"><g fill="none" fill-rule="evenodd"><path fill="#000" d="M4 16c.276 0 .5-.224.5-.5v-1.81L3.452 12.64c-.605-.605-.952-1.443-.952-2.298V8.475c.082.012.164.025.25.025h.75c.372 0 .716-.119 1-.318.284.2.628.318 1 .318h.75c.368 0 .71-.116.991-.31.148.346.358.663.63.936.12.12.251.226.387.323-.57.488-1.046 1.13-1.546 1.881-.186.279-.11.655.168.84l.24.16c.278.186.654.11.84-.168.915-1.372 1.46-2.018 2.603-2.14.25-.027.437-.244.437-.495V9c0-.276-.224-.5-.5-.5h-.522c-.817 0-1.48-.662-1.48-1.48v-.023c0-.274.223-.497.497-.497H11.5c1.105 0 2 .895 2 2V10c0 .796-.316 1.559-.879 2.121L11 13.742V15.5c0 .276.224.5.5.5h.5c.276 0 .5-.224.5-.5v-1.136l1.182-1.182c.68-.68 1.239-1.966 1.31-2.971L15 10V8.5c0-1.186-.596-2.231-1.5-2.865V2.75c0-.967-.783-1.75-1.75-1.75H11c-.138 0-.27.02-.398.05C10.33.433 9.716 0 9 0h-.75c-.716 0-1.33.433-1.602 1.05C6.52 1.02 6.388 1 6.25 1H5.5c-.716 0-1.33.433-1.602 1.05C3.77 2.02 3.638 2 3.5 2h-.75C1.783 2 1 2.783 1 3.75v6.593c0 1.26.5 2.467 1.39 3.357l.61.61v1.19c0 .276.224.5.5.5H4zM8 5.277V1.75c0-.138.112-.25.25-.25H9c.138 0 .25.112.25.25V5h-.251c-.366 0-.704.106-.999.277zM6.25 7H5.5c-.138 0-.25-.112-.25-.25v-4c0-.138.112-.25.25-.25h.75c.138 0 .25.112.25.25v4c0 .138-.112.25-.25.25zM12 5.05c-.165-.023-.329-.05-.5-.05h-.75V2.75c0-.138.112-.25.25-.25h.75c.138 0 .25.112.25.25v2.3zM3.5 7h-.75c-.138 0-.25-.112-.25-.25v-3c0-.138.112-.25.25-.25h.75c.138 0 .25.112.25.25v3c0 .138-.112.25-.25.25z"/></g></svg>