<svg xmlns="http://www.w3.org/2000/svg" width="16" height="16" viewBox="0 0 16 16"><g fill="none" fill-rule="evenodd"><path fill="#000" d="M14.667 13.667c.736 0 1.333-.597 1.333-1.334v-8C16 3.597 15.403 3 14.667 3H1.333C.597 3 0 3.597 0 4.333v8c0 .737.597 1.334 1.333 1.334h13.334zm0-1.111H1.333c-.122 0-.222-.1-.222-.223v-8c0-.122.1-.222.222-.222h13.334c.122 0 .222.1.222.222v8c0 .123-.1.223-.222.223zM3.056 6.778c.184 0 .333-.15.333-.334v-.777c0-.184-.15-.334-.333-.334h-.778c-.184 0-.334.15-.334.334v.777c0 .185.15.334.334.334h.778zm2.666 0c.184 0 .334-.15.334-.334v-.777c0-.184-.15-.334-.334-.334h-.778c-.184 0-.333.15-.333.334v.777c0 .185.15.334.333.334h.778zm2.667 0c.184 0 .333-.15.333-.334v-.777c0-.184-.15-.334-.333-.334H7.61c-.184 0-.333.15-.333.334v.777c0 .185.149.334.333.334h.778zm2.667 0c.184 0 .333-.15.333-.334v-.777c0-.184-.15-.334-.333-.334h-.778c-.184 0-.334.15-.334.334v.777c0 .185.15.334.334.334h.778zm2.666 0c.184 0 .334-.15.334-.334v-.777c0-.184-.15-.334-.334-.334h-.778c-.184 0-.333.15-.333.334v.777c0 .185.15.334.333.334h.778zM4.39 9.056c.184 0 .333-.15.333-.334v-.778c0-.184-.149-.333-.333-.333H3.61c-.184 0-.333.15-.333.333v.778c0 .184.149.334.333.334h.778zm2.667 0c.184 0 .333-.15.333-.334v-.778c0-.184-.15-.333-.333-.333h-.778c-.184 0-.334.15-.334.333v.778c0 .184.15.334.334.334h.778zm2.666 0c.184 0 .334-.15.334-.334v-.778c0-.184-.15-.333-.334-.333h-.778c-.184 0-.333.15-.333.333v.778c0 .184.15.334.333.334h.778zm2.667 0c.184 0 .333-.15.333-.334v-.778c0-.184-.15-.333-.333-.333h-.778c-.184 0-.333.15-.333.333v.778c0 .184.149.334.333.334h.778zm-9.333 2.277c.184 0 .333-.149.333-.333v-.778c0-.184-.15-.333-.333-.333h-.778c-.184 0-.334.15-.334.333V11c0 .184.15.333.334.333h.778zm10.666 0c.184 0 .334-.149.334-.333v-.778c0-.184-.15-.333-.334-.333h-.778c-.184 0-.333.15-.333.333V11c0 .184.15.333.333.333h.778zM11 11.167c.184 0 .333-.15.333-.334v-.444c0-.184-.149-.333-.333-.333H5c-.184 0-.333.149-.333.333v.444c0 .184.149.334.333.334h6z"/></g></svg>