<svg xmlns="http://www.w3.org/2000/svg" width="16" height="16" viewBox="0 0 16 16"><g fill="none" fill-rule="evenodd"><path fill="#000" d="M10.291 6c.87 0 1.757-.838 2.085-2.04.37-1.356-.114-2.662-1.081-2.917-.09-.024-.24-.043-.335-.043h-.001c-.87 0-1.757.838-2.085 2.04-.37 1.356.114 2.662 1.081 2.917.11.029.223.043.336.043zM5.71 6c.113 0 .225-.014.336-.043.967-.254 1.45-1.56 1.08-2.918C6.799 1.84 5.912 1 5.042 1c-.113 0-.225.014-.336.043-.967.255-1.45 1.561-1.08 2.918C3.951 5.161 4.838 6 5.708 6zm4.566-1.252h-.002c-.027-.007-.077-.052-.125-.136-.128-.22-.222-.679-.068-1.244.2-.734.679-1.118.879-1.118l.018.002c.027.007.077.052.125.136.128.22.222.68.068 1.244-.2.732-.676 1.116-.895 1.116zm-4.566.002c-.2 0-.679-.384-.879-1.118-.154-.565-.06-1.023.068-1.244.048-.084.098-.129.125-.136l.018-.002c.2 0 .678.384.879 1.118.154.565.06 1.023-.068 1.244-.048.084-.098.129-.143.138zM2 9c.113 0 .226-.013.338-.04.91-.217 1.384-1.271 1.058-2.354C3.112 5.656 2.307 5 1.5 5c-.113 0-.226.013-.337.04-.91.217-1.385 1.271-1.06 2.354C.389 8.344 1.194 9 2.002 9zm11.998 0c.808 0 1.613-.656 1.898-1.606.325-1.083-.149-2.137-1.059-2.354-.111-.027-.225-.04-.337-.04-.808 0-1.614.656-1.899 1.606-.325 1.083.15 2.137 1.06 2.354.111.027.225.04.337.04zM2.001 7.75c-.204 0-.561-.249-.701-.716-.09-.3-.043-.542.03-.67.053-.092.103-.104.122-.109.015-.003.03-.005.047-.005.204 0 .561.249.701.715.09.3.043.543-.03.671-.053.092-.103.104-.17.114zm11.959-.005h-.008c-.019-.005-.07-.017-.122-.108-.074-.129-.12-.372-.03-.671.14-.467.497-.716.7-.716l.048.005c.019.005.07.017.122.108.074.129.12.372.03.671-.138.462-.49.71-.74.71zM11.758 15C13.162 15 14 14.348 14 13.258 14 10.836 10.482 7 8 7s-6 3.836-6 6.258C2 14.348 2.838 15 4.242 15c1.526 0 2.534-.784 3.758-.784 1.235 0 2.245.784 3.758.784zm0-1.5c-.554 0-1.04-.16-1.604-.346-.622-.205-1.327-.438-2.154-.438-.82 0-1.52.232-2.137.435-.567.187-1.056.349-1.62.349-.496 0-.707-.122-.731-.146-.004-.007-.012-.038-.012-.096C3.5 11.568 6.402 8.5 8 8.5c1.598 0 4.5 3.068 4.5 4.758 0 .057-.008.088-.006.088-.03.033-.24.154-.736.154z"/></g></svg>