<svg xmlns="http://www.w3.org/2000/svg" width="16" height="16" viewBox="0 0 16 16">
    <g fill="none" fill-rule="evenodd">
        <path fill="#000" d="M10.333 5.667C11.25 5.667 12 4.917 12 4V2.667C12 1.75 11.25 1 10.333 1c-.916 0-1.666.75-1.666 1.667V4c0 .917.75 1.667 1.666 1.667zm-4.666 0c.916 0 1.666-.75 1.666-1.667V2.667C7.333 1.75 6.583 1 5.667 1 4.75 1 4 1.75 4 2.667V4c0 .917.75 1.667 1.667 1.667zM14.333 5c-.916 0-1.666.75-1.666 1.667V8c0 .917.75 1.667 1.666 1.667C15.25 9.667 16 8.917 16 8V6.667C16 5.75 15.25 5 14.333 5zM10.72 8.552C10.046 7.566 9.055 7 8 7s-2.046.566-2.719 1.552l-2.266 3.32c-.623.913-.388 2.157.524 2.78.612.417 1.37.441 1.992.142.047-.016.1-.04.166-.079 1.42-.853 3.187-.853 4.608 0 .025.015.051.025.076.04l.074.037c.128.062.259.112.392.146l.046.009c.146.033.293.053.439.053h.003c.388 0 .781-.113 1.126-.348.912-.623 1.147-1.867.524-2.78l-2.266-3.32zM3.333 8V6.667C3.333 5.75 2.583 5 1.667 5 .75 5 0 5.75 0 6.667V8c0 .917.75 1.667 1.667 1.667.916 0 1.666-.75 1.666-1.667z"/>
    </g>
</svg>
