<svg xmlns="http://www.w3.org/2000/svg" width="16" height="16" viewBox="0 0 16 16"><g fill="none" fill-rule="evenodd"><path fill="#000" d="M7.95 3.5c.583 0 1.628-.102 2.288-.762.955-.955.74-2.718.74-2.718S10.81 0 10.55 0c-.583 0-1.628.102-2.287.762-.955.955-.741 2.718-.741 2.718s.168.02.43.02zM9.774 16c3.04 0 4.633-2.822 5.11-5.464.32-1.782-.036-3.74-.908-4.985-.58-.828-1.375-1.35-2.3-1.51-1.079-.186-2.693.287-3.676.744-.983-.457-2.592-.93-3.676-.743-.925.16-1.72.681-2.3 1.509-.872 1.246-1.229 3.203-.907 4.986C1.593 13.177 3.187 16 6.226 16c.42 0 .863-.126 1.319-.374.281-.153.629-.153.91 0 .456.248.9.374 1.319.374zm0-1.5c-.164 0-.372-.066-.602-.191-.362-.197-.767-.296-1.172-.296-.405 0-.81.1-1.172.296-.23.125-.438.191-.602.191-2.732 0-3.506-3.523-3.633-4.23-.25-1.387.015-2.938.66-3.859.35-.5.795-.8 1.326-.89.392-.068 1.682-.003 3.421.96 1.74-.963 3.031-1.029 3.421-.96.53.09.976.39 1.326.89.645.92.91 2.472.66 3.859-.127.707-.901 4.23-3.633 4.23z"/></g></svg>