<svg xmlns="http://www.w3.org/2000/svg" width="16" height="16" viewBox="0 0 16 16">
    <g fill="none" fill-rule="evenodd">
        <path fill="#000" d="M6.643 3.977S6.888 1.962 5.797.87 2.69.024 2.69.024s-.244 2.014.847 3.106c1.092 1.091 3.106.847 3.106.847zm5.736 1.582c-.67-.34-1.366-.512-2.074-.512-.616 0-1.152.134-1.597.302.115-.834.491-1.605 1.097-2.21.26-.26.26-.682 0-.943-.261-.26-.682-.26-.943 0-.864.863-1.387 1.977-1.504 3.178-.457-.18-1.015-.326-1.662-.326-.708 0-1.405.171-2.07.51-1.557.798-2.388 2.331-2.284 4.207.143 2.567 1.998 5.114 4.412 6.056.305.118.626.179.957.179.51 0 1.013-.15 1.436-.42.396.225.853.348 1.315.348.368 0 .722-.075 1.053-.222 2.366-1.051 4.072-3.554 4.149-6.084.055-1.809-.778-3.29-2.285-4.063z"/>
    </g>
</svg>
