<svg xmlns="http://www.w3.org/2000/svg" width="16" height="16" viewBox="0 0 16 16">
    <g fill="none" fill-rule="evenodd">
        <path fill="#000" d="M7.75 6.938l4.934-4.935C11.36.91 9.76.331 8.137.25 8.1 2.247 7.466 4.072 6.303 5.49L7.75 6.939zM5.234 4.422c.87-1.119 1.353-2.538 1.4-4.1-1.368.197-2.693.753-3.818 1.681l2.418 2.419zM.072 6.884c1.562-.046 2.984-.53 4.1-1.4L1.753 3.066C.825 4.19.27 5.516.072 6.884zm10.187 2.563c1.416-1.16 3.241-1.794 5.241-1.834-.081-1.622-.66-3.222-1.753-4.547L8.812 8l1.447 1.447zm-8.506 3.487L6.687 8 5.241 6.553C3.82 7.716 1.997 8.353 0 8.388c.081 1.621.66 3.221 1.753 4.546zm5.61 2.816c.04-2 .674-3.825 1.834-5.24L7.75 9.062l-4.934 4.934c1.325 1.09 2.925 1.672 4.546 1.753zm6.384-2.816c.928-1.125 1.484-2.45 1.681-3.818-1.566.05-2.984.534-4.1 1.4l2.419 2.418zm-4.881 2.744c1.368-.197 2.693-.753 3.818-1.681l-2.418-2.419c-.866 1.116-1.35 2.538-1.4 4.1z"/>
    </g>
</svg>
