<svg xmlns="http://www.w3.org/2000/svg" width="16" height="16" viewBox="0 0 16 16"><g fill="none" fill-rule="evenodd"><path fill="#000" d="M7.75 15.75c4.256 0 7.75-3.437 7.75-7.75 0-4.281-3.463-7.75-7.75-7.75C3.469.25 0 3.716 0 8c0 4.31 3.487 7.75 7.75 7.75zm0-8.81L6.487 5.679c.929-1.119 1.55-2.465 1.791-3.903 1.222.103 2.369.556 3.325 1.31L7.75 6.94zM5.403 4.595l-1.506-1.51c.825-.65 1.79-1.071 2.822-1.243-.222 1.009-.672 1.947-1.316 2.753zm4.75 4.753L8.81 8.003l3.853-3.856c.775.981 1.232 2.162 1.316 3.419-1.406.253-2.725.868-3.825 1.78zM1.591 6.972c.172-1.031.593-1.997 1.243-2.825l1.51 1.51C3.537 6.3 2.6 6.75 1.59 6.971zm1.243 4.884c-.753-.96-1.206-2.106-1.309-3.325 1.437-.243 2.784-.862 3.9-1.79l1.262 1.262-3.853 3.853zm4.482 2.372c-1.216-.084-2.41-.522-3.42-1.312L7.75 9.063l1.344 1.343c-.913 1.097-1.528 2.419-1.778 3.822zm5.35-2.369l-1.429-1.43c.782-.626 1.685-1.07 2.66-1.298-.181.997-.6 1.928-1.231 2.728zm-3.788 2.285c.228-.972.675-1.872 1.297-2.657l1.428 1.429c-.816.64-1.753 1.05-2.725 1.228z"/></g></svg>