<svg xmlns="http://www.w3.org/2000/svg" width="16" height="16" viewBox="0 0 16 16">
    <g fill="none" fill-rule="evenodd">
        <path fill="#000" d="M9.912 5.145C8.638 3.66 7.95 1.845 7.846 0 6.058.034 4.281.664 2.834 1.89L8 7.056l1.912-1.91zM7.056 8L1.89 2.833C.664 4.28.034 6.056 0 7.846c1.845.104 3.66.791 5.145 2.065L7.056 8zm6.11-6.11C12 .9 10.617.303 9.186.09c.116 1.471.672 2.913 1.67 4.111l2.312-2.311zm2.745 4.926c-.214-1.432-.811-2.814-1.8-3.982l-2.312 2.311c1.198.998 2.64 1.554 4.112 1.67zm-9.822 4.038C7.363 12.34 8.05 14.154 8.154 16c1.789-.034 3.566-.664 5.013-1.89L8 8.943l-1.91 1.911zm4.766-4.766L8.944 8l5.166 5.166c1.226-1.446 1.856-3.223 1.89-5.012-1.845-.104-3.66-.792-5.145-2.066zM.09 9.184c.213 1.43.81 2.814 1.8 3.981l2.312-2.31C3.004 9.854 1.562 9.3.09 9.183zm2.744 4.925c1.168.99 2.55 1.588 3.982 1.801-.116-1.472-.672-2.915-1.67-4.112L2.833 14.11z"/>
    </g>
</svg>
