<svg xmlns="http://www.w3.org/2000/svg" width="16" height="16" viewBox="0 0 16 16"><g fill="none" fill-rule="evenodd"><path fill="#000" d="M7.058 14.75c.157 0 .302-.084.38-.22l2.624-4.592h2.407c1.208 0 3.281-.98 3.281-2.188 0-1.208-2.073-2.187-3.281-2.187h-2.407L7.438.97c-.07-.121-.24-.22-.38-.22H4.376c-.29 0-.5.278-.42.558L5.17 5.563h-.795l-.853-1.138c-.083-.11-.213-.175-.35-.175H.438c-.285 0-.494.267-.425.544L.875 7.75l-.862 2.956c-.069.277.14.544.425.544h2.734c.138 0 .267-.065.35-.175l.853-1.137h.795l-1.216 4.254c-.08.28.13.558.421.558h2.683zm-.507-1.313H5.535L6.91 8.625H3.72l-.985 1.313h-1.13l.638-2.188-.637-2.187h1.13l.984 1.312H6.91L5.535 2.063h1.016L9.3 6.875h3.168c.711 0 1.719.54 1.944.875-.225.336-1.233.875-1.944.875H9.3l-2.75 4.812z"/></g></svg>