<svg xmlns="http://www.w3.org/2000/svg" width="16" height="16" viewBox="0 0 16 16"><g fill="none" fill-rule="evenodd"><path fill="#000" d="M3 16c1.543 0 2.799-.974 2.966-2.222.018-.073.032-.194.033-.27V8l8.5-2.685v4.032C14.107 9.156 13.436 9 13 9c-1.656 0-3 1.12-3 2.5 0 1.381 1.344 2.5 3 2.5 1.543 0 2.799-.975 2.967-2.222.016-.07.03-.186.031-.257l.001-.01L16 1c0-.512-.386-.934-.882-.993L15.002 0c-.086 0-.221.021-.303.047l-9.5 3c-.385.122-.699.549-.699.953v7.347C4.108 11.155 3.436 11 3 11c-1.656 0-3 1.12-3 2.5S1.344 16 3 16zm3-9.573v-2.06l8.5-2.683v2.058L6 6.427zm7 6.073c-.884 0-1.5-.527-1.5-1 0-.472.616-1 1.5-1s1.5.526 1.5 1c0 .473-.616 1-1.5 1zm-10 2c-.884 0-1.5-.527-1.5-1s.616-1 1.5-1 1.5.526 1.5 1-.616 1-1.5 1z"/></g></svg>