<svg xmlns="http://www.w3.org/2000/svg" width="16" height="16" viewBox="0 0 16 16">
    <g fill="none" fill-rule="evenodd">
        <path fill="#000" d="M15.31.49c-.437-.38-1.017-.553-1.593-.47L7.051.975c-.98.139-1.718.99-1.718 1.979v8.26c-.558-.338-1.246-.546-2-.546C1.495 10.667 0 11.863 0 13.334 0 14.804 1.495 16 3.333 16s3.334-1.196 3.334-2.666V6.476l8-1.142v3.88c-.559-.34-1.247-.547-2-.547-1.838 0-3.334 1.196-3.334 2.667 0 1.47 1.496 2.666 3.334 2.666S16 12.804 16 11.334V2c0-.58-.25-1.131-.69-1.511z"/>
    </g>
</svg>
