<?xml version="1.0" encoding="UTF-8"?>
<svg width="16px" height="16px" viewBox="0 0 16 16" version="1.1" xmlns="http://www.w3.org/2000/svg" xmlns:xlink="http://www.w3.org/1999/xlink">
    <!-- Generator: sketchtool 54.1 (76490) - https://sketchapp.com -->
    <title>500FF06D-7BBA-4BEF-B50E-313F443AF17D</title>
    <desc>Created with sketchtool.</desc>
    <g id="Symbols" stroke="none" stroke-width="1" fill="none" fill-rule="evenodd">
        <g id="19-kb-iconfont-close-16">
            <g>
                <rect id="icon-area" opacity="0" x="0" y="0" width="16" height="16"></rect>
                <path d="M9.76764808,8.00019044 L12.6339168,5.13391545 C13.1220297,4.64580244 13.1220297,3.85441498 12.6339167,3.36630202 C12.1458037,2.87818907 11.3544163,2.87818902 10.8663033,3.36630192 L8.00002829,6.2325769 L5.13375331,3.36630192 C4.64564031,2.87818892 3.85425278,2.87818892 3.36613978,3.36630192 C2.87802678,3.85441492 2.87802678,4.64580245 3.36613978,5.13391545 L6.23238976,8.00019044 L3.36611478,10.8664654 C3.05036097,11.1822192 2.92704505,11.6424403 3.04261893,12.073768 C3.15819282,12.5050956 3.49509808,12.8420009 3.92642576,12.9575748 C4.35775343,13.0731487 4.81797458,12.9498328 5.13372831,12.634079 L8.00000329,9.76780397 L10.8662783,12.634079 C11.3543913,13.1221919 12.1457787,13.1221918 12.6338917,12.6340788 C13.1220047,12.1459659 13.1220047,11.3545784 12.6338918,10.8664654 L9.76764808,8.00019044 Z" id="cancel" fill="#000000"></path>
            </g>
        </g>
    </g>
</svg>