<svg xmlns="http://www.w3.org/2000/svg" width="16" height="16" viewBox="0 0 16 16"><g fill="none" fill-rule="evenodd"><path fill="#000" d="M13.5 15c.828 0 1.5-.672 1.5-1.5v-11c0-.828-.672-1.5-1.5-1.5h-11C1.672 1 1 1.672 1 2.5v11c0 .828.672 1.5 1.5 1.5h11zm0-1.5h-11v-11h11v11zm-6.514-2.204l5.393-5.35c.147-.146.148-.383.002-.53l-.704-.71c-.146-.147-.383-.148-.53-.002L6.73 9.085 4.86 7.202c-.146-.147-.383-.148-.53-.002l-.71.704c-.147.146-.148.383-.002.53l2.837 2.86c.145.147.383.148.53.002z"/></g></svg>