<svg xmlns="http://www.w3.org/2000/svg" width="16" height="16" viewBox="0 0 16 16"><g fill="none" fill-rule="evenodd"><path fill="#000" d="M2.531 15c.242 0 .438-.196.438-.438v-2.281c1.035-.473 1.948-.781 3.495-.781 1.343 0 2.551.875 4.427.875 1.6 0 2.789-.618 3.515-1.093.371-.242.594-.656.594-1.098v-6.56c0-.943-.964-1.58-1.83-1.207-.981.423-2.008.77-2.978.77-1.343 0-2.551-.874-4.427-.874-.856 0-1.594.177-2.207.414.037-.111.067-.297.067-.415 0-.042-.004-.11-.009-.151-.071-.626-.588-1.117-1.216-1.158-.764-.05-1.4.556-1.4 1.31 0 .485.264.909.656 1.136v11.113c0 .242.196.438.438.438h.437zm8.36-3.937c-1.639 0-2.789-.875-4.427-.875-1.186 0-2.635.257-3.495.656V4.5c.595-.421 1.663-.875 2.796-.875 1.64 0 2.789.875 4.427.875 1.183 0 2.634-.475 3.495-.875v6.563c-.595.42-1.663.875-2.796.875z"/></g></svg>