<svg xmlns="http://www.w3.org/2000/svg" width="16" height="16" viewBox="0 0 16 16">
    <g fill="none" fill-rule="evenodd">
        <path fill="#000" d="M2.531 15c.242 0 .438-.196.438-.438v-2.281c1.035-.473 1.948-.781 3.495-.781 1.343 0 2.551.875 4.427.875 1.6 0 2.789-.618 3.515-1.093.371-.242.594-.656.594-1.098v-6.56c0-.943-.964-1.58-1.83-1.207-.981.423-2.008.77-2.978.77-1.343 0-2.551-.874-4.427-.874-.856 0-1.594.177-2.207.414.037-.111.067-.297.067-.415 0-.042-.004-.11-.009-.151-.071-.626-.588-1.117-1.216-1.158-.764-.05-1.4.556-1.4 1.31 0 .485.124.909.516 1.136v11.113c0 .242.196.438.438.438h.577zm8.36-4c-1.529 0-2.602-.847-4.13-.847-1.106 0-2.459.249-3.261.635v-6.14c.556-.409 1.552-.848 2.609-.848 1.529 0 2.602.847 4.13.847 1.104 0 2.457-.46 3.261-.847v6.353c-.556.408-1.552.847-2.609.847z"/>
    </g>
</svg>
