<svg xmlns="http://www.w3.org/2000/svg" width="16" height="16" viewBox="0 0 16 16">
    <g fill="none" fill-rule="evenodd">
        <path fill="#000" d="M1.75 16c.276 0 .5-.224.5-.5v-2.608C3.433 12.352 4.477 12 6.245 12c1.535 0 2.915 1 5.06 1 1.827 0 3.186-.707 4.016-1.25.424-.276.679-.748.679-1.255V2.998c0-1.077-1.102-1.805-2.09-1.379-1.123.484-2.296.881-3.405.881-1.535 0-2.915-1-5.06-1-.978 0-1.821.203-2.522.474.043-.128.077-.34.077-.474 0-.048-.004-.126-.01-.174C2.908.612 2.318.05 1.6.003.726-.053 0 .638 0 1.5c0 .555.302 1.04.75 1.299V15.5c0 .276.224.5.5.5h.5zm9.554-4.5c-1.873 0-3.187-1-5.06-1-1.354 0-3.011.294-3.994.75V4c.68-.482 1.9-1 3.196-1 1.873 0 3.187 1 5.06 1 1.352 0 3.01-.543 3.994-1v7.5c-.68.482-1.9 1-3.196 1z"/>
    </g>
</svg>
