<svg xmlns="http://www.w3.org/2000/svg" width="16" height="16" viewBox="0 0 16 16"><g fill="none" fill-rule="evenodd"><path fill="#000" d="M9.5 16c.828 0 1.5-.672 1.5-1.5V13h2.5c.828 0 1.5-.672 1.5-1.5V3.121c0-.343-.197-.818-.44-1.06L12.94.439C12.696.197 12.221 0 11.878 0H6.5C5.672 0 5 .672 5 1.5V3H2.5C1.672 3 1 3.672 1 4.5v10c0 .828.672 1.5 1.5 1.5h7zm3.812-4.5H6.687c-.103 0-.187-.084-.187-.187V1.688c0-.104.084-.188.187-.188H10v2.75c0 .414.336.75.75.75h2.75v6.313c0 .103-.084.187-.188.187zm.188-8h-2v-2h.301c.05 0 .097.02.133.055l1.511 1.511c.02.02.038.054.047.086l.008.047V3.5zm-4.188 11H2.687c-.103 0-.187-.084-.187-.188V4.688c0-.104.084-.188.187-.188H5v7c0 .828.672 1.5 1.5 1.5h3v1.312c0 .104-.084.188-.188.188z"/></g></svg>