<svg xmlns="http://www.w3.org/2000/svg" width="16" height="16" viewBox="0 0 16 16"><g fill="none" fill-rule="evenodd"><path fill="#000" d="M12 16c1.656 0 3-1.344 3-3s-1.344-3-3-3c-.8 0-1.528.313-2.066.825L6.862 8.903c.185-.587.185-1.222 0-1.806l3.072-1.922C10.472 5.688 11.2 6 12 6c1.656 0 3-1.344 3-3s-1.344-3-3-3-3 1.344-3 3c0 .306.047.613.137.903L6.066 5.825C5.528 5.313 4.8 5 4 5 2.344 5 1 6.344 1 8s1.344 3 3 3c.8 0 1.528-.312 2.066-.825l3.071 1.922C9.047 12.39 9 12.694 9 13c0 1.656 1.344 3 3 3zm0-11.5c-.828 0-1.5-.672-1.5-1.5s.672-1.5 1.5-1.5 1.5.672 1.5 1.5-.672 1.5-1.5 1.5zm-8 5c-.828 0-1.5-.672-1.5-1.5S3.172 6.5 4 6.5s1.5.672 1.5 1.5S4.828 9.5 4 9.5zm8 5c-.828 0-1.5-.672-1.5-1.5s.672-1.5 1.5-1.5 1.5.672 1.5 1.5-.672 1.5-1.5 1.5z"/></g></svg>