<svg xmlns="http://www.w3.org/2000/svg" width="16" height="16" viewBox="0 0 16 16">
    <g fill="none" fill-rule="evenodd">
        <path fill="#000" d="M7.75 15.75c4.281 0 7.75-3.469 7.75-7.75 0-4.281-3.469-7.75-7.75-7.75C3.469.25 0 3.719 0 8c0 4.281 3.469 7.75 7.75 7.75zm2.5-8.25c-.553 0-1-.447-1-1 0-.553.447-1 1-1 .553 0 1 .447 1 1 0 .553-.447 1-1 1zm-5 0c-.553 0-1-.447-1-1 0-.553.447-1 1-1 .553 0 1 .447 1 1 0 .553-.447 1-1 1zm2.5 5c-1.39 0-2.697-.612-3.588-1.681-.425-.51.344-1.147.77-.64.7.84 1.724 1.318 2.818 1.318s2.119-.481 2.819-1.319c.418-.506 1.19.131.768.64-.89 1.07-2.196 1.682-3.587 1.682z"/>
    </g>
</svg>
