<svg xmlns="http://www.w3.org/2000/svg" width="16" height="16" viewBox="0 0 16 16">
    <g fill="none" fill-rule="evenodd">
        <path fill="#000" d="M13 8.773l3-2.168v-.332c0-.461-.212-.896-.575-1.18-.276-.218-.538-.422-.925-.714V3c0-.828-.672-1.5-1.5-1.5h-2.423l-.283-.205C9.769.912 8.725-.011 8 0c-.725-.01-1.768.912-2.294 1.295l-.283.205H3c-.828 0-1.5.672-1.5 1.5v1.38c-.387.291-.649.495-.925.712C.258 5.341 0 5.87 0 6.272v.333l3 2.168V3h10v5.773zM10.5 6.75c.276 0 .5-.224.5-.5v-.5c0-.276-.224-.5-.5-.5h-5c-.276 0-.5.224-.5.5v.5c0 .276.224.5.5.5h5zm4 9.25c.828 0 1.5-.672 1.5-1.5V7.84l-6.536 4.72c-.438.317-.95.475-1.464.475-.513 0-1.026-.158-1.464-.474L0 7.839V14.5c0 .828.672 1.5 1.5 1.5h13zm-4-6.25c.276 0 .5-.224.5-.5v-.5c0-.276-.224-.5-.5-.5h-5c-.276 0-.5.224-.5.5v.5c0 .276.224.5.5.5h5z"/>
    </g>
</svg>
