<svg xmlns="http://www.w3.org/2000/svg" width="16" height="16" viewBox="0 0 16 16">
    <g fill="none" fill-rule="evenodd">
        <path fill="#000" d="M8 10c.725.013 1.769-.912 2.294-1.294 4.147-3.01 4.462-3.272 5.418-4.022.182-.14.288-.359.288-.59V3.5c0-.828-.672-1.5-1.5-1.5h-13C.672 2 0 2.672 0 3.5v.594c0 .231.106.447.288.59.956.747 1.271 1.013 5.418 4.022C6.231 9.088 7.275 10.013 8 10zm6.5 4c.828 0 1.5-.672 1.5-1.5V6.11c0-.154-.181-.244-.303-.147-.7.543-1.625 1.237-4.813 3.553-.634.462-1.768 1.497-2.884 1.487-1.11.006-2.222-1.006-2.881-1.487C1.93 7.2 1.003 6.509.303 5.966.178 5.869 0 5.956 0 6.113V12.5c0 .828.672 1.5 1.5 1.5h13z"/>
    </g>
</svg>
