<svg xmlns="http://www.w3.org/2000/svg" width="16" height="16" viewBox="0 0 16 16"><g fill="none" fill-rule="evenodd"><path fill="#000" d="M8 9.751c.725.013 1.769-.912 2.294-1.293 4.147-3.01 4.462-3.272 5.418-4.022.182-.14.288-.36.288-.591V3.5c0-.828-.672-1.5-1.5-1.5h-13C.672 2 0 2.672 0 3.5v.345c0 .231.106.447.288.59.956.748 1.271 1.013 5.418 4.023.525.38 1.569 1.306 2.294 1.293zM14.5 14c.828 0 1.5-.672 1.5-1.5V6.555c0-.153-.181-.244-.303-.147-.7.544-1.625 1.238-4.813 3.553-.634.463-1.768 1.497-2.884 1.488-1.11.006-2.222-1.006-2.881-1.488C1.93 7.646 1.003 6.955.303 6.411.178 6.314 0 6.401 0 6.558V12.5c0 .828.672 1.5 1.5 1.5h13z"/></g></svg>