<svg xmlns="http://www.w3.org/2000/svg" width="16" height="16" viewBox="0 0 16 16"><g fill="none" fill-rule="evenodd"><path fill="#000" d="M7.5 11c1.657 0 3-1.343 3-3V3c0-1.657-1.343-3-3-3s-3 1.343-3 3v5c0 1.657 1.343 3 3 3zm2.5 5c.276 0 .5-.224.5-.5V15c0-.276-.224-.5-.5-.5H8.25v-1.055C10.928 13.077 13 10.778 13 8V6.5c0-.276-.224-.5-.5-.5H12c-.276 0-.5.224-.5.5V8c0 2.338-2.015 4.213-4.4 3.98-2.078-.202-3.6-2.07-3.6-4.158V6.5c0-.276-.224-.5-.5-.5h-.5c-.276 0-.5.224-.5.5v1.255c0 2.801 1.999 5.298 4.75 5.678V14.5H5c-.276 0-.5.224-.5.5v.5c0 .276.224.5.5.5h5z"/></g></svg>