<svg xmlns="http://www.w3.org/2000/svg" width="16" height="16" viewBox="0 0 16 16"><g fill="none" fill-rule="evenodd"><path fill="#000" d="M8.224 15.862l.75-1.5c.014-.03.026-.08.026-.112V11h4.25c.414 0 .75-.336.75-.75 0-1.6-1.187-2.857-2.687-3.554L10.931 3h1.319c.414 0 .75-.336.75-.75V.75c0-.414-.336-.75-.75-.75h-8.5C3.336 0 3 .336 3 .75v1.5c0 .414.336.75.75.75h1.319l-.382 3.696C3.17 7.4 2 8.664 2 10.25c0 .414.336.75.75.75H7v3.25c0 .039.009.077.026.112l.75 1.5c.092.184.356.184.448 0z"/></g></svg>