<svg xmlns="http://www.w3.org/2000/svg" width="16" height="16" viewBox="0 0 16 16"><g fill="none" fill-rule="evenodd"><path fill="#000" d="M5.375 16c.075 0 .153-.022.222-.075L9.5 13H14c1.103 0 2-.897 2-2V2c0-1.103-.897-2-2-2H2C.897 0 0 .897 0 2v9c0 1.103.897 2 2 2h3v2.625c0 .222.181.375.375.375zM6.5 13.375V11.5H2c-.275 0-.5-.225-.5-.5V2c0-.275.225-.5.5-.5h12c.275 0 .5.225.5.5v9c0 .275-.225.5-.5.5H9l-.4.3-2.1 1.575zM8.25 9.5c.275 0 .5-.225.5-.5V7.25h1.75c.275 0 .5-.225.5-.5v-.5c0-.275-.225-.5-.5-.5H8.75V4c0-.275-.225-.5-.5-.5h-.5c-.275 0-.5.225-.5.5v1.75H5.5c-.275 0-.5.225-.5.5v.5c0 .275.225.5.5.5h1.75V9c0 .275.225.5.5.5h.5z"/></g></svg>