<svg height="16" viewBox="0 0 16 16" width="16" xmlns="http://www.w3.org/2000/svg"><g fill-rule="evenodd"><path d="m13.004 10.402v2.628c0 .55-.445.996-.998.996h-9.032a.995.995 0 0 1 -.998-.996v-9.04c0-.553.445-.995.998-.995h3.04a2 2 0 0 0 1.465-.64l.333-.358a.593.593 0 0 0 -.435-.997h-4.403c-1.64.019-2.974 1.354-2.974 2.99v9.04a2.975 2.975 0 0 0 2.974 2.97h9.051a2.976 2.976 0 0 0 2.975-2.97v-4.091a.577.577 0 0 0 -.998-.394l-.459.49a2 2 0 0 0 -.54 1.367z"/><path d="m6.854 6.613 6.146-6.249a1.223 1.223 0 0 1 1.702-.038l.91.846.03.028c.476.472.478 1.24.003 1.715l-6.243 6.234zm1.353 2.962-1.432.402a.606.606 0 0 1 -.752-.748l.404-1.425z"/></g></svg>