<svg xmlns="http://www.w3.org/2000/svg" width="16" height="16" viewBox="0 0 16 16">
    <path fill="#000" fill-rule="evenodd" d="M15.63 5.555c.231.683.024 1.302-.695 1.415-.716.112-1.115-.491-1.188-.732-.856-2.826-3.702-4.24-5.739-4.24C4.854 1.998 2 4.85 2 8c0 1.053.259 2.089.713 2.826.703 1.14.703 2.293.295 3.183h3.997a.995.995 0 0 1 0 1.99L1.76 16C.54 16 .033 15.763.033 14.983c0-.873 1.907-1.575 1-3.048C.333 10.798 0 9.43 0 8c0-4.535 3.585-8 8.008-8 3.331 0 6.484 2.187 7.623 5.555zM13.02 11H15a1 1 0 0 1 0 2h-1.98v2.007a.993.993 0 0 1-1.987 0V13h-1.98a1 1 0 0 1 0-2h1.98V8.993a.993.993 0 1 1 1.987 0V11z"/>
</svg>
