<svg xmlns="http://www.w3.org/2000/svg" width="16" height="16" viewBox="0 0 16 16">
    <path fill="#000" fill-rule="evenodd" d="M8.008 0c3.331 0 6.484 2.187 7.623 5.555.23.683.023 1.302-.696 1.415-.716.112-1.115-.491-1.188-.732-.856-2.826-3.702-4.24-5.739-4.24C4.854 1.998 2 4.85 2 8c0 1.053.259 2.089.713 2.826.703 1.14.703 2.293.295 3.183h3.997a.995.995 0 0 1 0 1.991H1.76C.54 16 .033 15.763.033 14.983c0-.873 1.907-1.575 1-3.048C.333 10.798 0 9.43 0 8c0-4.535 3.585-8 8.008-8zm4.018 8c.55 0 .994.445.994.993L13.019 11 15 11a1 1 0 0 1 0 2h-1.981v2.007a.993.993 0 0 1-1.986 0V13h-1.98a1 1 0 0 1 0-2h1.98V8.993c0-.548.445-.993.993-.993z"/>
</svg>
