<svg xmlns="http://www.w3.org/2000/svg" width="16" height="16" viewBox="0 0 16 16">
    <path fill="#000" fill-rule="evenodd" d="M12.84 6.68C12.13 4.083 9.589 3.015 8 3.015 5.243 3.014 3 5.243 3 8c0 .92.233 1.618.63 2.263.614.998.581 2.02.355 2.734H5.999a1.001 1.001 0 0 1 0 2.003h-3.46c-1.067 0-1.51-.207-1.51-.89 0-.764 1.66-1.563.866-2.852C1.283 10.263 1 9.251 1 8 1 4.03 4.134 1 8 1c2.877 0 6.214 2.06 6.893 5.68H12.84zM13 11h2a1 1 0 0 1 0 2h-2v2a1 1 0 0 1-2 0v-2H9a1 1 0 0 1 0-2h2V9a1 1 0 0 1 2 0v2z"/>
</svg>
