<svg xmlns="http://www.w3.org/2000/svg" width="16" height="16" viewBox="0 0 16 16">
    <path fill="#000" fill-rule="nonzero" d="M13.004 10.402a2 2 0 0 1 .539-1.366l.459-.491a.577.577 0 0 1 .998.394v4.09A2.976 2.976 0 0 1 12.025 16h-9.05A2.975 2.975 0 0 1 0 13.03V3.99C0 2.354 1.334 1.02 2.974 1h4.403a.593.593 0 0 1 .435.997l-.333.359a2 2 0 0 1-1.466.639H2.974a.993.993 0 0 0-.998.994v9.04c0 .552.445.997.998.997h9.032a.996.996 0 0 0 .998-.996v-2.628zm-6.15-3.789L13 .364a1.223 1.223 0 0 1 1.702-.038l.91.846.03.028c.476.472.478 1.24.003 1.715L9.402 9.149 6.854 6.613zm1.353 2.962l-1.432.402a.606.606 0 0 1-.752-.748l.404-1.425 1.78 1.771z"/>
</svg>
