<svg xmlns="http://www.w3.org/2000/svg" width="16" height="16" viewBox="0 0 16 16"><g fill="none" fill-rule="evenodd"><path fill="#000" d="M10 8c1.934 0 3.5-1.566 3.5-3.5S11.934 1 10 1 6.5 2.566 6.5 4.5 8.066 8 10 8zM3 7c1.103 0 2-.897 2-2s-.897-2-2-2-2 .897-2 2 .897 2 2 2zm.06 5c.196-1.481 1.09-2.728 2.35-3.419C5.046 8.221 4.55 8 4 8H2c-1.103 0-2 .897-2 2v1c0 .553.447 1 1 1h2.06zm11.44 3c.828 0 1.5-.672 1.5-1.5v-.9c0-1.988-1.612-3.6-3.6-3.6h-.26c-.65.313-1.371.5-2.14.5-.769 0-1.487-.188-2.14-.5H7.6C5.612 9 4 10.612 4 12.6v.9c0 .828.672 1.5 1.5 1.5h9z"/></g></svg>