<svg xmlns="http://www.w3.org/2000/svg" width="16" height="16" viewBox="0 0 16 16"><g fill="none" fill-rule="evenodd"><path fill="#000" fill-rule="nonzero" d="M8 15.75c4.281 0 7.75-3.469 7.75-7.75C15.75 3.719 12.281.25 8 .25 3.719.25.25 3.719.25 8c0 4.281 3.469 7.75 7.75 7.75zm.68-4.25H7.32c-.161 0-.292-.131-.292-.292V8.972H4.792c-.16 0-.292-.131-.292-.291V7.319c0-.16.131-.291.292-.291h2.236V4.792c0-.16.131-.292.291-.292h1.362c.16 0 .291.131.291.292v2.236h2.236c.16 0 .292.131.292.291v1.362c0 .16-.131.291-.292.291H8.972v2.236c0 .16-.131.292-.291.292z"/></g></svg>