<svg xmlns="http://www.w3.org/2000/svg" width="16" height="16" viewBox="0 0 16 16"><g fill="none" fill-rule="evenodd"><path fill="#000" d="M6.888 10.87c-.425-1.288-.47-1.94 2.3-2.154v1.471c0 1.176 1.42 1.748 2.24.929l3.937-3.938c.513-.512.513-1.344 0-1.856l-3.937-3.937c-.82-.82-2.24-.246-2.24.928v1.564c-1.161.052-2.298.18-3.303.492-.961.3-1.724.754-2.267 1.352-.659.726-.993 1.64-.993 2.715 0 1.687.907 3.075 2.32 3.958 1.027.643 2.332-.346 1.943-1.524zm-1.247.411c-.807-.504-1.704-1.42-1.704-2.845 0-2.99 3.532-3.253 6.563-3.277V2.313l3.937 3.937-3.937 3.937V7.348c-3.519.053-5.947.634-4.859 3.933zM10.937 15c.725 0 1.313-.588 1.313-1.313v-1.164c0-.257-.282-.415-.5-.28-.148.093-.405.207-.574.255-.14.04-.239.169-.239.315v.71c0 .091-.073.164-.164.164H1.477c-.091 0-.165-.073-.165-.164V4.227c0-.091.074-.164.165-.164H3.83c.051 0 .128-.022.172-.05.318-.192.665-.362 1.04-.507.125-.049.207-.17.207-.305v-.123c0-.181-.147-.328-.328-.328h-3.61C.588 2.75 0 3.338 0 4.063v9.624C0 14.412.588 15 1.312 15h9.625z"/></g></svg>