<svg xmlns="http://www.w3.org/2000/svg" width="16" height="16" viewBox="0 0 16 16"><g fill="none" fill-rule="evenodd"><path fill="#000" d="M12.8 12l1.807-5.098c.063.01.128.021.193.021.662 0 1.2-.568 1.2-1.27 0-.7-.538-1.268-1.2-1.268-.663 0-1.2.568-1.2 1.269 0 .188.04.362.11.523L11.9 7.325c-.13.082-.27.122-.41.122-.278 0-.548-.154-.695-.426L8.757 3.248c.268-.233.443-.582.443-.979C9.2 1.57 8.662 1 8 1c-.663 0-1.2.569-1.2 1.27 0 .396.175.745.442.978l-2.037 3.77c-.148.275-.418.426-.695.426-.14 0-.283-.04-.41-.122L2.292 6.175c.068-.159.11-.336.11-.524 0-.7-.537-1.269-1.2-1.269C.54 4.382 0 4.953 0 5.654c0 .7.537 1.27 1.2 1.27.065 0 .13-.011.193-.022L3.2 12h9.6zm-.833-1.518H4.032l-.9-2.402.35.21c.31.187.668.285 1.028.285.717 0 1.382-.385 1.737-1.008L8 4.5l1.752 3.067c.355.623 1.02 1.008 1.738 1.008.362 0 .717-.098 1.027-.285l.35-.21-.9 2.402zm.379 4.018c.196 0 .654-.225.654-.5v-.5c0-.275-.458-.5-.654-.5H3.654c-.196 0-.654.225-.654.5v.5c0 .275.458.5.654.5h8.692z"/></g></svg>