<svg xmlns="http://www.w3.org/2000/svg" width="16" height="16" viewBox="0 0 16 16"><g fill="none" fill-rule="evenodd"><path fill="#000" d="M3.609 13.642c.805.649 1.787 1.102 2.858 1.32l.324.06-3.278 1.07c-.601.196-1.271-.029-1.559-.505l-.056-.106-.055-.124c-.231-.511.033-1.08.594-1.326l.124-.047 1.048-.342zm8.782 0l1.048.342c.601.196.922.745.76 1.263l-.042.11-.055.124c-.231.511-.877.784-1.486.647l-.13-.036-3.277-1.07c1.197-.19 2.296-.666 3.182-1.38zm2.359-1.48c.644 0 1.175.415 1.243.948l.007.116v.132c0 .495-.397.91-.935 1.029-.022-.056-.047-.112-.076-.167-.211-.403-.575-.723-1.037-.915l-.177-.065-.765-.174.124-.136c.141-.161.272-.33.39-.503l.172-.264h1.054zm-12.446.001c.163.268.35.525.562.767l.078.086.079.085-.798.139c-.545.178-.977.526-1.214.98-.029.055-.054.11-.076.167-.497-.11-.873-.472-.928-.916L0 13.358v-.132c0-.548.488-1 1.114-1.057l.136-.006h1.054zM6.737 2c.898.833 1.69 1.725 2.329 2.606.39-.478.83-.954 1.317-1.406C12.082 4.776 13.3 7.352 13.3 8.6c0 2.982-2.35 5.4-5.25 5.4S2.8 11.582 2.8 8.6c0-1.679 1.635-4.463 3.937-6.6zm.039 2C5.15 5.734 4.2 7.617 4.2 8.59c0 2.156 1.693 3.91 3.773 3.91s3.773-1.754 3.773-3.91c0-.669-.667-2.222-1.66-3.453-.132.146-.261.296-.386.45l-.845 1.035L8.07 5.54C7.694 5.023 7.255 4.5 6.776 4zm.361 3c.109.125 1.545 1.959 1.545 1.959l.916-1.045c.065.107.123.211.176.312.427.815.247 1.858-.523 2.397-.338.236-.755.377-1.206.377C6.917 11 6 10.254 6 9.043 6 8.44 6.38 7.908 7.137 7z"/></g></svg>