<svg xmlns="http://www.w3.org/2000/svg" width="16" height="16" viewBox="0 0 16 16"><g fill="none" fill-rule="evenodd"><path fill="#000" d="M8.895 6.875c.173 0 .358-.134.413-.3l.287-.794h2.06l.287.795c.055.165.24.299.413.299h.46c.24-.001.435-.197.435-.437 0-.04-.01-.102-.023-.139l-1.67-4.375c-.054-.164-.24-.298-.412-.299h-1.04c-.173 0-.358.134-.412.3l-1.67 4.374C8.01 6.336 8 6.4 8 6.438c0 .24.196.436.436.437h.459zm-5.27 7c.078 0 .185-.046.238-.103l1.86-1.969c.049-.052.09-.153.09-.225 0-.18-.148-.328-.329-.328H4.281V2.063c0-.242-.196-.438-.437-.438h-.438c-.241 0-.437.196-.437.438v9.187H1.765c-.18 0-.328.147-.328.328 0 .072.04.173.09.225l1.86 1.97c.053.056.16.102.238.102zm7.554-9.406h-1.108l.554-1.531.554 1.53zm1.196 9.406c.241 0 .437-.196.437-.438V13c0-.242-.196-.437-.437-.437h-2.109l2.3-2.371c.136-.14.246-.413.246-.609v-.52c0-.242-.196-.438-.437-.438h-3.5c-.242 0-.438.196-.438.438V9.5c0 .242.196.438.438.438h2.108l-2.3 2.37c-.135.14-.246.413-.246.608v.521c0 .242.196.438.438.438h3.5z"/></g></svg>