<svg xmlns="http://www.w3.org/2000/svg" width="16" height="16" viewBox="0 0 16 16"><g fill="none" fill-rule="evenodd"><path fill="#000" d="M8 8.125c1.547 0 2.8-1.273 2.8-2.844V2.438l-1.4.71-1.4-.71-1.4.71-1.4-.71V5.28c0 1.57 1.253 2.844 2.8 2.844zm5.6-.812c1.104 0 2-.91 2-2.032 0-1.121-.896-2.031-2-2.031s-2 .91-2 2.031c0 1.122.896 2.032 2 2.032zm-11.2 0c1.104 0 2-.91 2-2.032 0-1.121-.896-2.031-2-2.031s-2 .91-2 2.031c0 1.122.896 2.032 2 2.032zm11.2-1.22c-.441 0-.8-.364-.8-.812 0-.448.359-.812.8-.812.441 0 .8.364.8.812 0 .448-.359.813-.8.813zm-11.2 0c-.441 0-.8-.364-.8-.812 0-.448.359-.812.8-.812.441 0 .8.364.8.812 0 .448-.359.813-.8.813zm5.6.813c-.882 0-1.6-.729-1.6-1.625v-.406h3.2v.406c0 .896-.718 1.625-1.6 1.625zm7.4 3.961c.331 0 .6-.273.6-.61 0-1.175-.942-2.132-2.1-2.132h-.6c-.432 0-.835.134-1.17.363.335.257.63.563.862.92.097-.037.199-.064.308-.064h.6c.496 0 .9.41.9.914 0 .336.269.61.6.61zm-14.8 0c.331 0 .6-.273.6-.61 0-.503.404-.913.9-.913h.6c.11 0 .211.027.308.063.232-.356.527-.662.861-.92-.334-.228-.737-.362-1.169-.362h-.6c-1.158 0-2.1.957-2.1 2.133 0 .336.269.61.6.61zm11 2.945c.663 0 1.2-.545 1.2-1.218v-1.138c0-.604-.18-1.165-.49-1.631-.686-1.037-2.016-1.421-3.193-1.058-.355.11-.728.17-1.117.17s-.763-.06-1.117-.17c-1.177-.363-2.507.021-3.194 1.058-.309.466-.489 1.027-.489 1.631v1.138c0 .673.537 1.218 1.2 1.218h7.2zm-.1-1.412h-7v-.88c0-.716.709-1.3 1.59-1.32.619.208 1.262.314 1.91.314.648 0 1.29-.106 1.91-.314.881.02 1.59.604 1.59 1.32v.88z"/></g></svg>