<svg xmlns="http://www.w3.org/2000/svg" width="24" height="24" viewBox="0 0 24 24"><g fill="none" fill-rule="evenodd"><path fill="#000" d="M18.75 21c1.242 0 2.25-1.008 2.25-2.25v-9c0-1.242-1.008-2.25-2.25-2.25h-8.314L20.59 4.645c.226-.064.41-.306.41-.542 0-.042-.01-.11-.021-.152l-.152-.54C20.763 3.183 20.52 3 20.285 3c-.043 0-.111.01-.152.021L5.25 7.5C4.008 7.5 3 8.508 3 9.75v9C3 19.992 4.008 21 5.25 21h13.5zm-8.719-7.84H6.094c-.156 0-.282-.126-.282-.281v-.563c0-.155.126-.28.282-.28h3.937c.155 0 .281.125.281.28v.563c0 .155-.126.281-.28.281zm5.906 3.902c-1.552 0-2.812-1.26-2.812-2.812 0-1.553 1.26-2.813 2.812-2.813 1.553 0 2.813 1.26 2.813 2.813 0 1.552-1.26 2.812-2.813 2.812zm-5.343-1.652H5.53c-.155 0-.281-.126-.281-.281v-.563c0-.155.126-.28.281-.28h5.063c.155 0 .281.125.281.28v.563c0 .155-.126.281-.281.281zm-.563 2.25H6.094c-.156 0-.282-.126-.282-.281v-.563c0-.155.126-.28.282-.28h3.937c.155 0 .281.125.281.28v.563c0 .155-.126.281-.28.281z"/></g></svg>