<svg xmlns="http://www.w3.org/2000/svg" width="16" height="16" viewBox="0 0 16 16"><g fill="none" fill-rule="evenodd"><path fill="#000" d="M8 16c3.59 0 6.5-2.91 6.5-6.5 0-1.306-.384-2.522-1.047-3.534l.019-.02.919-.918c.146-.147.146-.384 0-.531l-.885-.884c-.147-.147-.384-.147-.531 0l-.86.859C11.242 3.753 10.173 3.259 9 3.078V2h.875c.206 0 .375-.169.375-.375V.375c0-.206-.169-.375-.375-.375h-3.75c-.206 0-.375.169-.375.375v1.25c0 .206.169.375.375.375H7v1.078C3.884 3.556 1.5 6.25 1.5 9.5 1.5 13.09 4.41 16 8 16zm.625-5h-1.25C7.169 11 7 10.831 7 10.625V5.891c0-.207.169-.375.375-.375h1.25c.206 0 .375.168.375.375v4.734c0 .206-.169.375-.375.375z"/></g></svg>