<svg xmlns="http://www.w3.org/2000/svg" width="16" height="16" viewBox="0 0 16 16"><g fill="none" fill-rule="evenodd"><path fill="#000" d="M13.75 1.5c.206 0 .375-.169.375-.375v-.75c0-.206-.169-.375-.375-.375s-.375.169-.375.375v.75c0 .206.169.375.375.375zm1.062.219l.532-.531c.147-.147.147-.385 0-.532-.147-.147-.385-.147-.532 0l-.53.532c-.148.146-.148.384 0 .53.146.148.384.148.53 0zm-1.59.003c.147-.147.147-.384 0-.531L12.69.659c-.147-.146-.385-.146-.532 0-.147.147-.147.385 0 .532l.532.53c.146.148.384.148.53 0zm2.403.903c.206 0 .375-.169.375-.375s-.169-.375-.375-.375h-.75c-.206 0-.375.169-.375.375s.169.375.375.375h.75zM6.5 16c3.59 0 6.5-2.91 6.5-6.5 0-.61-.084-1.2-.24-1.76l.887-.887c.194-.194.194-.512 0-.706l-1.631-1.631 1.75-1.75-.532-.532-1.75 1.75-1.63-1.63c-.195-.195-.513-.195-.707 0l-.888.887C7.7 3.084 7.11 3 6.5 3 2.91 3 0 5.91 0 9.5S2.91 16 6.5 16zm8.84-12.16c.147-.146.147-.384 0-.53l-.53-.532c-.148-.147-.385-.147-.532 0-.147.147-.147.385 0 .531l.531.532c.147.147.385.147.532 0zM6.5 14.5c-2.763 0-5-2.237-5-5 0-2.762 2.237-5 5-5 .822 0 1.294.169 2.2.422l.8-.8L11.878 6.5l-.8.8c.247.881.422 1.372.422 2.2 0 2.763-2.238 5-5 5zm-3-4.75c.416 0 .75-.334.75-.75 0-.966.784-1.75 1.75-1.75.416 0 .75-.334.75-.75s-.334-.75-.75-.75C4.21 5.75 2.75 7.21 2.75 9c0 .416.334.75.75.75z"/></g></svg>