<svg xmlns="http://www.w3.org/2000/svg" width="16" height="16" viewBox="0 0 16 16"><g fill="none" fill-rule="evenodd"><path fill="#000" d="M3 15h10c.552 0 1-.448 1-1s-.448-1-1-1H3c-.552 0-1 .448-1 1s.448 1 1 1zM8 0c.607 0 1.137.409 1.29.995.154.587-.107 1.203-.635 1.5l2.202 3.887 3.16-1.206c-.055-.29.024-.59.214-.817.19-.227.473-.356.77-.352.533-.001.973.418.998.951.025.533-.375.992-.906 1.04L14 12.008H2L.907 5.997C.497 5.96.153 5.675.04 5.28c-.114-.395.026-.82.352-1.07.327-.25.773-.274 1.125-.062.352.213.537.62.467 1.025 1.321.504 3.16 1.21 3.16 1.21l2.203-3.888c-.529-.297-.79-.914-.636-1.5C6.864.41 7.394 0 8 0zm0 7.5L6.586 8.914 8 10.328l1.414-1.414L8 7.5z"/></g></svg>