<svg xmlns="http://www.w3.org/2000/svg" width="16" height="16" viewBox="0 0 16 16">
    <g fill="none" fill-rule="evenodd">
        <path fill="#000" d="M13.2 12.2H2.8c-.22 0-.4.18-.4.4v.8c0 .22.18.4.4.4h10.4c.22 0 .4-.18.4-.4v-.8c0-.22-.18-.4-.4-.4zm1.6-8c-.663 0-1.2.537-1.2 1.2 0 .177.04.342.11.495L11.9 6.98c-.385.23-.883.1-1.105-.29L8.758 3.125c.267-.22.442-.55.442-.925C9.2 1.537 8.663 1 8 1c-.662 0-1.2.538-1.2 1.2 0 .375.175.705.442.925L5.205 6.69c-.223.39-.723.52-1.105.29L2.293 5.895c.067-.15.11-.317.11-.495 0-.663-.538-1.2-1.2-1.2C.54 4.2 0 4.737 0 5.4c0 .662.537 1.2 1.2 1.2.065 0 .13-.01.193-.02L3.2 11.4h9.6l1.807-4.82c.063.01.128.02.193.02.662 0 1.2-.537 1.2-1.2 0-.663-.537-1.2-1.2-1.2z"/>
    </g>
</svg>
