<?xml version="1.0" encoding="UTF-8"?>
<svg width="16px" height="16px" viewBox="0 0 16 16" version="1.1" xmlns="http://www.w3.org/2000/svg" xmlns:xlink="http://www.w3.org/1999/xlink">
    <!-- Generator: sketchtool 54.1 (76490) - https://sketchapp.com -->
    <title>8DECD81D-4512-4943-8CB9-F21E654A5BB5</title>
    <desc>Created with sketchtool.</desc>
    <g id="Symbols" stroke="none" stroke-width="1" fill="none" fill-rule="evenodd">
        <g id="23-kb-iconfont-dollar-sign-16">
            <g>
                <rect id="icon-area" opacity="0" x="0" y="0" width="16" height="16"></rect>
                <path d="M9.66666248,6.66666667 L6.33332915,6.66666667 C5.96513931,6.66666667 5.66666248,6.36818983 5.66666248,6 C5.66666248,5.63181017 5.96513931,5.33333333 6.33332915,5.33333333 L10.3333291,5.33333333 C11.0697088,5.33333333 11.6666625,4.73637967 11.6666625,4 C11.6666625,3.26362033 11.0697088,2.66666667 10.3333291,2.66666667 L9.66666248,2.66666667 L9.66666248,0.666666667 C9.66666248,0.298476833 9.36818565,0 9,0 C8.63180598,0 8.33332915,0.298476833 8.33332915,0.666666667 L8.33332915,2.66666667 L6.99999581,2.66666667 L6.99999581,0.666666667 C6.99999581,0.298476833 6.70151898,0 6.33332915,0 C5.96513931,0 5.66666248,0.298476833 5.66666248,0.666666667 L5.66666248,2.73405333 C3.99011428,3.07638116 2.84508374,4.63255631 3.01706973,6.33503187 C3.18905572,8.03750744 4.62218853,9.33323363 6.33332915,9.33333333 L9.66666248,9.33333333 C10.0348523,9.33333333 10.3333291,9.63181017 10.3333291,10 C10.3333291,10.3681898 10.0348523,10.6666667 9.66666248,10.6666667 L4.99999581,10.6666667 C4.26361615,10.6666667 3.66666248,11.2636203 3.66666248,12 C3.66666248,12.7363797 4.26361615,13.3333333 4.99999581,13.3333333 L5.66666248,13.3333333 L5.66666248,15.3333333 C5.66666248,15.7015232 5.96513931,16 6.33332915,16 C6.70151898,16 6.99999581,15.7015232 6.99999581,15.3333333 L6.99999581,13.3333333 L8.33332915,13.3333333 L8.33332915,15.3333333 C8.33332915,15.7015232 8.63180598,16 9,16 C9.36818565,16 9.66666248,15.7015232 9.66666248,15.3333333 L9.66666248,13.3333333 C11.5076116,13.3333333 12.9999958,11.8409492 13,10 C12.9999958,8.15905083 11.5076116,6.66666667 9.66666248,6.66666667 Z" id="dollar" fill="#000000"></path>
            </g>
        </g>
    </g>
</svg>