<svg xmlns="http://www.w3.org/2000/svg" width="16" height="16" viewBox="0 0 16 16"><g fill="none" fill-rule="evenodd"><path fill="#000" d="M9 16c.275 0 .5-.225.5-.5V14h.078c1.538 0 2.956-.994 3.325-2.487.434-1.757-.631-3.475-2.281-3.947L6.987 6.528c-.493-.14-.893-.537-.971-1.047C5.894 4.688 6.509 4 7.28 4h2.306c.497 0 .985.156 1.388.44.2.141.469.12.64-.052l.716-.716c.213-.213.19-.569-.047-.753C11.512 2.322 10.575 2 9.587 2H9.5V.5C9.5.225 9.275 0 9 0H8c-.275 0-.5.225-.5.5V2h-.078c-1.538 0-2.956.994-3.325 2.488-.434 1.756.631 3.475 2.281 3.946l3.634 1.038c.494.14.894.537.972 1.047.122.794-.493 1.481-1.265 1.481H7.412c-.496 0-.984-.156-1.387-.44-.2-.141-.469-.12-.64.052l-.716.716c-.213.213-.19.569.047.753.768.597 1.706.919 2.696.919H7.5v1.5c0 .275.225.5.5.5h1z"/></g></svg>