<svg xmlns="http://www.w3.org/2000/svg" width="16" height="16" viewBox="0 0 16 16"><g fill="none" fill-rule="evenodd"><path fill="#000" d="M8.266 11.89l4.625-4.637c.146-.147.146-.384-.007-.531l-.612-.613c-.147-.146-.388-.143-.535.007L8.81 9.15V1.375c0-.206-.168-.375-.375-.375H7.56c-.206 0-.375.169-.375.375V9.15L4.256 6.116c-.144-.153-.384-.157-.534-.007l-.613.613c-.147.147-.147.384 0 .531l4.625 4.638c.147.147.385.147.532 0zM13.625 15c.206 0 .375-.169.375-.375v-.875c0-.206-.169-.375-.375-.375H2.375c-.206 0-.375.169-.375.375v.875c0 .206.169.375.375.375h11.25z"/></g></svg>