<svg xmlns="http://www.w3.org/2000/svg" width="16" height="16" viewBox="0 0 16 16"><g fill="none" fill-rule="evenodd"><path fill="#000" d="M8 15.75c4.281 0 7.75-3.469 7.75-7.75C15.75 3.719 12.281.25 8 .25 3.719.25.25 3.719.25 8c0 4.281 3.469 7.75 7.75 7.75zm0-1.5c-3.453 0-6.25-2.797-6.25-6.25S4.547 1.75 8 1.75 14.25 4.547 14.25 8 11.453 14.25 8 14.25zm.266-2.116l3.793-3.793c.147-.147.147-.385 0-.532l-.612-.612c-.15-.15-.39-.147-.538.006L8.812 9.4V4.375c0-.206-.168-.375-.375-.375h-.875c-.206 0-.375.169-.375.375V9.4L5.091 7.203c-.147-.153-.388-.156-.538-.006l-.612.612c-.147.147-.147.385 0 .532l3.793 3.793c.147.147.385.147.532 0z"/></g></svg>