<svg xmlns="http://www.w3.org/2000/svg" width="16" height="16" viewBox="0 0 16 16"><g fill="none" fill-rule="evenodd"><path fill="#000" d="M.748 16c.028 0 .056-.002.084-.005l3.567-.394L15.414 4.587c.781-.782.781-2.048 0-2.829L14.242.586C13.852.196 13.34 0 12.828 0c-.512 0-1.024.195-1.414.586L.402 11.598l-.397 3.569c-.05.45.304.833.743.833zM12.97 4.91l-1.88-1.88 1.384-1.384c.128-.127.277-.146.354-.146.077 0 .226.019.353.146l1.172 1.172c.195.196.195.513 0 .708L12.97 4.909zM1.6 14.401l.234-2.116L9.061 5.06l.969-.97 1.88 1.88-.97.97-7.23 7.228-2.11.234z"/></g></svg>