<svg xmlns="http://www.w3.org/2000/svg" width="16" height="16" viewBox="0 0 16 16"><g fill="none" fill-rule="evenodd"><path fill="#000" d="M7.75 15.75c4.281 0 7.75-3.469 7.75-7.75 0-4.281-3.469-7.75-7.75-7.75C3.469.25 0 3.719 0 8c0 4.281 3.469 7.75 7.75 7.75zm0-1.5C4.303 14.25 1.5 11.447 1.5 8s2.803-6.25 6.25-6.25S14 4.553 14 8s-2.803 6.25-6.25 6.25zM5.25 7.5c.553 0 1-.447 1-1 0-.553-.447-1-1-1-.553 0-1 .447-1 1 0 .553.447 1 1 1zm5 0c.553 0 1-.447 1-1 0-.553-.447-1-1-1-.553 0-1 .447-1 1 0 .553.447 1 1 1zm-2.5 4.997c1.462 0 2.84-.644 3.778-1.769.266-.319.222-.79-.097-1.056-.315-.263-.79-.222-1.056.097C9.725 10.55 8.765 11 7.75 11c-1.016 0-1.975-.447-2.625-1.231-.266-.319-.74-.36-1.056-.097-.319.266-.36.737-.097 1.056.937 1.125 2.315 1.769 3.778 1.769z"/></g></svg>