<svg xmlns="http://www.w3.org/2000/svg" width="16" height="16" viewBox="0 0 16 16"><g fill="none" fill-rule="evenodd"><path fill="#000" d="M8 15.75c4.28 0 7.75-3.469 7.75-7.75C15.75 3.721 12.28.25 8 .25 3.72.25.25 3.721.25 8c0 4.281 3.47 7.75 7.75 7.75zm0-1.5c-3.454 0-6.25-2.795-6.25-6.25 0-3.453 2.796-6.25 6.25-6.25 3.453 0 6.25 2.796 6.25 6.25S11.455 14.25 8 14.25zM8.643 9c.2 0 .365-.157.375-.356l.212-4.25C9.241 4.18 9.07 4 8.856 4H7.144c-.214 0-.385.18-.374.394l.212 4.25c.01.2.175.356.375.356h1.286zM8 12.313c.724 0 1.312-.59 1.312-1.313 0-.724-.588-1.312-1.312-1.312-.724 0-1.313.588-1.313 1.312 0 .724.59 1.313 1.313 1.313z"/></g></svg>