<svg height="16" viewBox="0 0 16 16" width="16" xmlns="http://www.w3.org/2000/svg"><path d="m8 0a8 8 0 1 1 0 16 8 8 0 0 1 0-16zm0 14a6 6 0 1 0 0-12 6 6 0 0 0 0 12zm-1.052-2.683a.808.808 0 0 1 -.048-.338c0-.173.006-.219.048-.339.121-.352.362-.593.714-.714a.808.808 0 0 1 .339-.048c.173 0 .219.006.339.048.352.12.593.362.714.714.041.12.048.166.048.339a.808.808 0 0 1 -.048.338c-.12.35-.365.596-.71.712-.15.05-.383.07-.529.044a1.123 1.123 0 0 1 -.867-.756zm1.1-2.317h-.095a.5.5 0 0 1 -.497-.45l-.356-3.556a.905.905 0 1 1 1.8 0l-.353 3.556a.5.5 0 0 1 -.498.45z" fill-rule="evenodd"/></svg>