<svg xmlns="http://www.w3.org/2000/svg" width="16" height="16" viewBox="0 0 16 16">
    <path fill="#000" fill-rule="evenodd" d="M8 0a8 8 0 1 1 0 16A8 8 0 0 1 8 0zm0 2a6 6 0 1 0 0 12A6 6 0 0 0 8 2zm0 7.878c.174 0 .22.006.34.048.352.12.593.362.714.714.041.12.048.166.048.339a.808.808 0 0 1-.048.338c-.12.35-.365.596-.71.712-.15.05-.383.07-.529.044a1.123 1.123 0 0 1-.867-.756.808.808 0 0 1-.048-.338c0-.173.006-.219.048-.339.121-.352.362-.593.714-.714a.808.808 0 0 1 .339-.048zm0-5.879a.905.905 0 0 1 .9.995L8.547 8.55a.5.5 0 0 1-.498.45h-.095a.5.5 0 0 1-.497-.45L7.1 4.994A.905.905 0 0 1 8 4z"/>
</svg>
