<svg xmlns="http://www.w3.org/2000/svg" width="16" height="16" viewBox="0 0 16 16">
    <path fill="#000" fill-rule="nonzero" d="M11 0v3a1 1 0 0 0 1 1h3l-4-4zm-1 0v4a1 1 0 0 0 1 1h3.984v9.667c0 .736-.597 1.333-1.334 1.333H3.333A1.333 1.333 0 0 1 2 14.667V1.333C2 .597 2.597 0 3.333 0H10zM5.595 12.13l2.583-2.442c-.014.418.06.805.247 1.185.547 1.115 1.905 1.578 4.096 1.394l-.126-1.494c-1.643.138-2.409-.123-2.624-.561-.158-.323-.093-.836.166-1.58l.142-.403c.065-.186.097-.304.108-.44.041-.51-.357-1.012-.982-.863-.19.046-.334.135-.539.296-.418.327.938-.946-4.102 3.817l1.03 1.09z"/>
</svg>
