<svg xmlns="http://www.w3.org/2000/svg" width="16" height="16" viewBox="0 0 16 16"><g fill="none" fill-rule="evenodd"><path fill="#000" d="M14.5 15c.828 0 1.5-.672 1.5-1.5v-11c0-.828-.672-1.5-1.5-1.5h-13C.672 1 0 1.672 0 2.5v11c0 .828.672 1.5 1.5 1.5h13zM13 4.5c-.553 0-1-.447-1-1 0-.553.447-1 1-1 .553 0 1 .447 1 1 0 .553-.447 1-1 1zm-3 0c-.553 0-1-.447-1-1 0-.553.447-1 1-1 .553 0 1 .447 1 1 0 .553-.447 1-1 1zm-3 0c-.553 0-1-.447-1-1 0-.553.447-1 1-1 .553 0 1 .447 1 1 0 .553-.447 1-1 1zm7.312 9H1.687c-.103 0-.187-.084-.187-.187V6h13v7.313c0 .103-.084.187-.188.187z"/></g></svg>