<?xml version="1.0" encoding="UTF-8"?>
<svg width="16px" height="16px" viewBox="0 0 16 16" version="1.1" xmlns="http://www.w3.org/2000/svg" xmlns:xlink="http://www.w3.org/1999/xlink">
    <!-- Generator: sketchtool 54.1 (76490) - https://sketchapp.com -->
    <title>6026F158-3804-4008-B28B-ED088C4F0D07</title>
    <desc>Created with sketchtool.</desc>
    <g id="Symbols" stroke="none" stroke-width="1" fill="none" fill-rule="evenodd">
        <g id="31-kb-iconfont-finder-16">
            <g>
                <rect id="icon-area" opacity="0" x="0" y="0" width="16" height="16"></rect>
                <path d="M13.7148467,1.72187928e-07 L2.28710667,1.72187928e-07 C1.68062483,-0.000235040636 1.09890115,0.240518136 0.669962435,0.669274306 C0.241023719,1.09803048 2.29450732e-05,1.67965162 2.22044605e-16,2.28613351 L0,15 C1.04869017e-15,15.5522847 0.44771525,16 1,16 L15,16 C15.5522847,16 16,15.5522847 16,15 L16,2.28613351 C16.0001841,1.02384336 14.9771368,0.000357268293 13.7148467,1.72187928e-07 Z M11,2.00000017 C11.5522847,2.00000017 12,2.44771542 12,3.00000017 C12,3.55228492 11.5522847,4.00000017 11,4.00000017 C10.4477153,4.00000017 10,3.55228492 10,3.00000017 C9.99998585,2.73477935 10.1053382,2.48041721 10.2928776,2.29287777 C10.480417,2.10533832 10.7347792,1.99998603 11,2.00000017 Z M8,2.00000017 C8.55228475,2.00000017 9,2.44771542 9,3.00000017 C9,3.55228492 8.55228475,4.00000017 8,4.00000017 C7.44771525,4.00000017 7,3.55228492 7,3.00000017 C6.99998585,2.73477935 7.10533815,2.48041721 7.2928776,2.29287777 C7.48041704,2.10533832 7.73477917,1.99998603 8,2.00000017 Z M5,2.00000017 C5.55228475,2.00000017 6,2.44771542 6,3.00000017 C6,3.55228492 5.55228475,4.00000017 5,4.00000017 C4.44771525,4.00000017 4,3.55228492 4,3.00000017 C3.99998585,2.73477935 4.10533815,2.48041721 4.2928776,2.29287777 C4.48041704,2.10533832 4.73477917,1.99998603 5,2.00000017 Z M14,14.0000002 L2,14.0000002 L2,6.00000017 L14,6.00000017 L14,14.0000002 Z M5,6 L5,14 L6,14 L6,6 L5,6 Z" id="browser-alt" fill="#000000"></path>
            </g>
        </g>
    </g>
</svg>