<svg xmlns="http://www.w3.org/2000/svg" width="16" height="16" viewBox="0 0 16 16"><g fill="none" fill-rule="evenodd"><path fill="#000" d="M8 16c3.866 0 7-3.223 7-7.2 0-1.665-1.624-5.098-3.889-7.2-.65.603-1.237 1.237-1.757 1.874C8.502 2.301 7.446 1.11 6.25 0 3.18 2.85 1 6.561 1 8.8 1 12.777 4.134 16 8 16zm0-1.5c-3.033 0-5.5-2.557-5.5-5.7 0-1.418 1.384-4.163 3.755-6.69.698.73 1.338 1.491 1.886 2.245l1.144 1.577 1.232-1.51c.182-.223.37-.442.562-.655C12.528 5.561 13.5 7.826 13.5 8.8c0 3.143-2.467 5.7-5.5 5.7zm.078-1.5c.79 0 1.52-.246 2.112-.66 1.346-.942 1.662-2.768.914-4.195-.092-.176-.195-.359-.308-.546L9.193 9.428S6.68 6.218 6.49 6C5.165 7.59 4.5 8.52 4.5 9.575 4.5 11.695 6.105 13 8.078 13z"/></g></svg>