<svg xmlns="http://www.w3.org/2000/svg" width="16" height="16" viewBox="0 0 16 16"><g fill="none" fill-rule="evenodd"><path fill="#000" d="M14.5 14c.828 0 1.5-.672 1.5-1.5v-7c0-.828-.672-1.5-1.5-1.5h-6L6.793 2.293c-.139-.139-.391-.255-.605-.285L6.086 2H1.5C.672 2 0 2.672 0 3.5v9c0 .828.672 1.5 1.5 1.5h13zm0-1.5h-13v-9h4.379L7.25 4.871V8H5.722c-.207 0-.375.168-.375.375 0 .086.05.206.111.266l2.26 2.243c.065.064.191.116.282.116.09 0 .217-.052.281-.116l2.26-2.243c.061-.06.11-.18.11-.266 0-.207-.167-.375-.374-.375H8.75V5.5h5.75v7z"/></g></svg>