<svg xmlns="http://www.w3.org/2000/svg" width="16" height="16" viewBox="0 0 16 16">
    <path fill="#000" fill-rule="evenodd" d="M7.971 11.983v1.997H1.532c-.32 0-.539.03-.928-.25-.386-.275-.604-.74-.604-.998V2.088c.021-.268.149-.506.383-.712.35-.31.63-.376.994-.376h4.601l1.003 1.995h7.674c.532 0 .67.05.902.293.233.244.386.644.386.957v4.758H13.95V4.995H1.993v6.988H7.97zm7.082 1.93H13.9v1.138a.948.948 0 1 1-1.893 0v-1.139h-1.125a.948.948 0 0 1 0-1.897h1.125v-1.08a.948.948 0 1 1 1.893 0v1.08h1.153a.948.948 0 0 1 0 1.897z"/>
</svg>
