<svg xmlns="http://www.w3.org/2000/svg" width="16" height="16" viewBox="0 0 16 16">
    <path fill="#000" fill-rule="evenodd" d="M8 12.01v1.998H1.532c-.32 0-.752.043-1.115-.213C.03 13.522 0 13.017 0 12.76V1.088C.021.82.149.582.383.376c.35-.31.63-.376.994-.376h4.601l1.003 1.995h7.743c.532 0 .727.102.96.346.232.243.327.591.327.904v5.786h-1.993V3.995H1.993v8.016H8zm7.118 1.916h-1.153v1.14a.948.948 0 1 1-1.894 0v-1.14h-1.124a.948.948 0 0 1 0-1.897h1.124v-1.08a.948.948 0 1 1 1.894 0v1.08h1.153a.948.948 0 0 1 0 1.897z"/>
</svg>
