<svg xmlns="http://www.w3.org/2000/svg" width="16" height="16" viewBox="0 0 16 16"><g fill="none" fill-rule="evenodd"><path fill="#000" d="M14.5 14c.828 0 1.5-.672 1.5-1.5v-7c0-.828-.672-1.5-1.5-1.5h-6L6.793 2.293c-.139-.139-.391-.255-.605-.285L6.086 2H1.5C.672 2 0 2.672 0 3.5v9c0 .828.672 1.5 1.5 1.5h13zm0-1.5h-13v-9h4.379l1.707 1.707c.162.162.478.293.707.293H14.5v7zm-6.266-1c.276 0 .5-.224.5-.5V9.75H10c.276 0 .5-.224.5-.5v-.5c0-.276-.224-.5-.5-.5H8.734V7c0-.276-.224-.5-.5-.5h-.5c-.276 0-.5.224-.5.5v1.25H6c-.276 0-.5.224-.5.5v.5c0 .276.224.5.5.5h1.234V11c0 .276.224.5.5.5h.5z"/></g></svg>