<svg xmlns="http://www.w3.org/2000/svg" width="16" height="16" viewBox="0 0 16 16"><g fill="none" fill-rule="evenodd"><path fill="#000" d="M12.25 13c.451 0 .872-.232 1.113-.618l2.185-3.5c.546-.872-.082-2.007-1.113-2.007h-1.31V5.563c0-.725-.588-1.313-1.313-1.313H7.437L5.687 2.5H1.312C.588 2.5 0 3.088 0 3.813v7.875C0 12.412.588 13 1.312 13H12.25zM1.312 10.359V3.977c0-.09.074-.164.165-.164h3.666l1.75 1.75h4.755c.09 0 .164.073.164.164v1.148H4.156c-.46 0-.886.24-1.124.634l-1.72 2.85zm10.938 1.329H1.969l2.11-3.5h10.358l-2.187 3.5z"/></g></svg>