<svg xmlns="http://www.w3.org/2000/svg" width="16" height="16" viewBox="0 0 16 16"><g fill="none" fill-rule="evenodd"><path fill="#000" d="M14.5 14c.828 0 1.5-.672 1.5-1.5v-7c0-.828-.672-1.5-1.5-1.5h-6L6.793 2.293C6.605 2.105 6.35 2 6.086 2H1.5C.672 2 0 2.672 0 3.5v9c0 .828.672 1.5 1.5 1.5h13zM5.879 3.5l1.707 1.707c.187.188.442.293.707.293H14.5v7l-3.375.15c0-1.014-.823-1.837-1.838-1.837H9.06c-.303.139-.641.218-.997.218-.355 0-.691-.079-.996-.218h-.228c-.964 0-1.755.742-1.832 1.686L1.5 12.5v-9h4.379zm2.183 3.375c-.966 0-1.75.783-1.75 1.75s.784 1.75 1.75 1.75c.967 0 1.75-.783 1.75-1.75s-.783-1.75-1.75-1.75z"/></g></svg>