<?xml version="1.0" encoding="UTF-8"?>
<svg width="16px" height="16px" viewBox="0 0 16 16" version="1.1" xmlns="http://www.w3.org/2000/svg" xmlns:xlink="http://www.w3.org/1999/xlink">
    <!-- Generator: sketchtool 57.1 (101010) - https://sketch.com -->
    <title>E707B15B-F93A-4FA6-BCDB-FE918BC801B7</title>
    <desc>Created with sketchtool.</desc>
    <g id="Symbols" stroke="none" stroke-width="1" fill="none" fill-rule="evenodd">
        <g id="41-kb-iconfont-folder-up-16">
            <g>
                <rect id="icon-area" opacity="0" x="0" y="0" width="16" height="16"></rect>
                <path d="M5.9999,1 L7.33324667,3 L14.6666533,3 C15.4030251,3.00003682 16,3.76362822 16,4.5 L16,4.5 L16,13.5 C16,14.2363718 15.4030251,15 14.6666533,15 L14.6666533,15 L1.33334667,15 C0.596974887,15 0,14.2363718 0,13.5 L0,13.5 L0,2.33334667 C0,1.59697489 0.596974887,1 1.33334667,1 L1.33334667,1 L5.9999,1 Z M8,7 L5.21871722,9.46559592 C4.92670102,9.72545515 4.92715224,10.1458462 5.21972573,10.4052124 C5.51229922,10.6645785 5.9865158,10.66498 6.27964759,10.4061097 L8,8.88102429 L9.72035241,10.4061097 C10.0134842,10.66498 10.4877008,10.6645785 10.7802743,10.4052124 C11.0728478,10.1458462 11.073299,9.72545515 10.7812828,9.46559592 L8,7 Z" id="Combined-Shape" fill="#000000"></path>
            </g>
        </g>
    </g>
</svg>