<svg xmlns="http://www.w3.org/2000/svg" width="16" height="16" viewBox="0 0 16 16"><g fill="none" fill-rule="evenodd"><path fill="#000" d="M9.999 15.49c.329-.088.557-.386.557-.726v-1.148c.3-.137.76-.403 1.029-.595l.993.574c.294.17.666.121.906-.119.944-.945 1.645-2.133 2.001-3.462.089-.329-.054-.676-.349-.846l-.995-.574c.038-.396.038-.792 0-1.188l.995-.574c.295-.17.438-.517.35-.846-.357-1.329-1.058-2.517-2.002-3.462-.24-.24-.612-.289-.906-.12l-.993.575c-.268-.192-.729-.458-1.029-.595V1.236c0-.319-.25-.644-.557-.726C8.694.163 7.308.163 6 .51c-.329.088-.558.386-.558.726v1.148c-.3.137-.76.403-1.028.595l-.993-.574c-.294-.17-.666-.121-.906.119C1.572 3.469.871 4.657.515 5.986c-.089.329.054.676.349.846l.995.574c-.016.164-.029.43-.029.594 0 .164.013.43.029.594l-.995.574c-.295.17-.438.517-.35.846.357 1.329 1.058 2.517 2.002 3.462.24.24.612.289.906.12l.993-.575c.268.192.729.458 1.028.595v1.148c0 .319.25.644.558.725 1.305.348 2.691.348 3.998 0zM8 14.25c-.294 0-.767-.04-1.057-.089V12.58c-1.234-.436-1.38-.52-2.38-1.376l-1.37.79c-.378-.454-.852-1.273-1.057-1.828l1.37-.79c-.24-1.291-.24-1.46 0-2.752l-1.37-.79c.245-.663.603-1.283 1.058-1.829l1.37.791c.999-.856 1.145-.94 2.38-1.376V1.84c.289-.05.762-.09 1.056-.09.294 0 .767.04 1.056.09V3.42c1.235.436 1.382.52 2.38 1.376l1.37-.79c.379.454.853 1.273 1.058 1.828l-1.37.79c.24 1.291.24 1.46 0 2.752l1.37.79c-.205.555-.68 1.374-1.058 1.829l-1.37-.791c-.999.856-1.145.94-2.38 1.376v1.581c-.289.05-.762.09-1.056.09zM8 11c1.654 0 3-1.346 3-3S9.654 5 8 5 5 6.346 5 8s1.346 3 3 3zm0-1.5c-.827 0-1.5-.673-1.5-1.5S7.173 6.5 8 6.5s1.5.673 1.5 1.5S8.827 9.5 8 9.5z"/></g></svg>