<svg xmlns="http://www.w3.org/2000/svg" width="16" height="16" viewBox="0 0 16 16">
    <path fill="#000" fill-rule="nonzero" d="M14.533 9.437l-.988-.765c.032-.223.049-.447.05-.672-.001-.225-.018-.45-.05-.672l.988-.765c.474-.358.603-.986.305-1.484l-.715-1.17c-.305-.495-.947-.71-1.516-.507l-1.2.42a5.796 5.796 0 0 0-1.243-.678L9.96 1.976C9.86 1.406 9.33.992 8.716 1H7.287c-.614-.008-1.142.407-1.243.976L5.84 3.144c-.443.176-.86.404-1.243.678l-1.2-.42c-.569-.203-1.21.012-1.516.508l-.714 1.169a1.121 1.121 0 0 0 .286 1.484l.988.765A4.82 4.82 0 0 0 2.409 8c0 .225.017.45.05.672l-.989.765a1.122 1.122 0 0 0-.304 1.484l.714 1.17c.305.495.947.71 1.517.507l1.2-.42c.381.274.799.502 1.242.678l.205 1.168c.101.57.63.984 1.243.976h1.43c.613.008 1.141-.407 1.242-.976l.205-1.168a5.534 5.534 0 0 0 1.243-.672l1.2.42c.57.203 1.211-.012 1.516-.508l.715-1.169c.302-.5.172-1.13-.305-1.49zM8.002 10.48A2.485 2.485 0 1 1 8 5.51a2.485 2.485 0 0 1 0 4.97z"/>
</svg>
