<svg xmlns="http://www.w3.org/2000/svg" width="16" height="16" viewBox="0 0 16 16"><g fill="none" fill-rule="evenodd"><path fill="#000" d="M12.387 15c1.442-.002 2.614-1.173 2.616-2.616V11.3c0-.094-.034-.178-.053-.266C15.529 10.622 16 9.711 16 9c-.001-.633-.395-1.479-.878-1.887.012-.012.028-.033.037-.047.188-.303.34-.838.34-1.194 0-.345-.144-.866-.32-1.163C13.821 2.46 11.005 1.003 8 1 4.997 1.003 2.178 2.46.822 4.71.644 5.005.5 5.526.5 5.871c0 .356.153.891.34 1.194l.038.047C.394 7.523 0 8.37 0 9.005c0 .501.262 1.219.586 1.601.114.135.324.327.469.428-.022.088-.053.172-.053.266v1.084C1.003 13.828 2.175 15 3.618 15h8.77zm1.122-8.497H2.489c-.15 0-.29-.084-.38-.231-.061-.101-.11-.279-.11-.396 0-.116.048-.292.106-.392C3.195 3.675 5.512 2.504 8 2.5c2.491.003 4.807 1.175 5.898 2.984.058.1.106.274.106.389 0 .119-.05.297-.112.399-.091.147-.232.231-.382.231zM8 4.5c.276 0 .5-.224.5-.5s-.224-.5-.5-.5-.5.224-.5.5.224.5.5.5zm3 1c.276 0 .5-.224.5-.5s-.224-.5-.5-.5-.5.224-.5.5.224.5.5.5zm-6 0c.276 0 .5-.224.5-.5s-.224-.5-.5-.5-.5.224-.5.5.224.5.5.5zm8.5 4.5h-11c-.552 0-1-.448-1-1s.448-1 1-1H7l3 1.5L13 8h.5c.552 0 1 .448 1 1s-.448 1-1 1zm-1.116 3.5h-8.77C3 13.5 2.5 13 2.5 12.384v-.8h11v.8c0 .616-.5 1.116-1.116 1.116z"/></g></svg>