<svg xmlns="http://www.w3.org/2000/svg" width="16" height="16" viewBox="0 0 16 16">
    <g fill="none" fill-rule="evenodd">
        <path fill="#000" d="M1.534 3.244c.32.184.727.075.912-.243.597-1.03 1.697-1.666 2.887-1.668.368 0 .667-.298.667-.666C6 .298 5.7 0 5.333 0 3.667.003 2.127.891 1.291 2.333c-.184.319-.075.726.243.911zm12.838 4.714c-.187-.187-.442-.293-.707-.293-.265 0-.52.106-.707.293l-1.833 1.834-.53-.53 3-3c.39-.391.39-1.025 0-1.415-.391-.39-1.024-.39-1.415 0l-3 3-.53-.53 3.998-3.999c.39-.39.389-1.022-.001-1.412-.39-.39-1.022-.39-1.413-.002L7.235 5.902l-.53-.53 2.667-2.666c.39-.391.389-1.023-.001-1.413-.39-.39-1.022-.39-1.413-.001L2 7.25V5.667c0-.553-.448-1-1-1s-1 .447-1 1V8.2c0 1.428.611 2.787 1.678 3.736l2.309 2.053c1.715 1.522 4.32 1.445 5.943-.175l4.442-4.443c.188-.187.293-.441.293-.707 0-.265-.105-.52-.293-.707zM15 12.757c-.152-.09-.334-.114-.505-.069-.171.046-.317.158-.405.311-.598 1.03-1.698 1.665-2.888 1.668-.369 0-.667.298-.667.666 0 .369.298.667.667.667 1.666-.003 3.205-.891 4.041-2.333.089-.153.113-.335.068-.505-.046-.171-.157-.317-.31-.405z"/>
    </g>
</svg>
