<svg xmlns="http://www.w3.org/2000/svg" width="16" height="16" viewBox="0 0 16 16"><g fill="none" fill-rule="evenodd"><path fill="#000" d="M14.7 13.123c.117-.35.495-.539.844-.422.35.116.538.494.422.843-.114.34-.371.804-.828 1.26C14.39 15.554 13.346 16 12 16c-.368 0-.667-.298-.667-.667 0-.368.299-.666.667-.666.987 0 1.693-.303 2.195-.805.293-.293.453-.58.506-.74zM8.696 1.029c.72-.72 1.89-.72 2.61 0 .134.134.244.284.328.444.716-.488 1.702-.414 2.338.222.61.61.704 1.543.28 2.252.167.084.324.197.464.337.663.662.717 1.703.161 2.427.153.08.298.187.429.318.72.72.72 1.889 0 2.61l-4.422 4.42c-1.247 1.248-3.124 1.619-4.751.94l-3.26-1.358C1.132 12.916 0 11.217 0 9.333V6.667c0-1.105.896-2 2-2 .824 0 1.532.498 1.838 1.21zm1.667.942c-.2-.2-.524-.2-.724 0L3.814 7.785c-.104.104-.234.166-.369.187l-.102.008.001.021L3.334 8c-.335 0-.612-.247-.66-.568l-.007-.099v-.666C2.667 6.299 2.367 6 2 6c-.368 0-.667.299-.667.667v2.666c0 1.346.81 2.56 2.051 3.077l3.26 1.359c1.13.47 2.432.213 3.297-.652l4.42-4.422c.2-.2.2-.524 0-.724-.199-.2-.523-.2-.723 0l-1.833 1.834c-.26.26-.683.26-.943 0-.26-.26-.26-.683 0-.943l1.833-1.833 1.078-1.078c.2-.2.2-.524 0-.724-.2-.2-.524-.2-.724 0l.002-.002-.913.913-.006.006-1.66 1.66c-.26.261-.683.261-.943 0-.26-.26-.26-.682 0-.942l3.5-3.5c.2-.2.2-.524 0-.724-.2-.2-.525-.2-.724 0L8.47 6.471c-.26.26-.682.26-.942 0-.26-.26-.26-.682 0-.942l2.833-2.834c.2-.2.2-.524 0-.724zM6 0c.368 0 .667.298.667.667 0 .368-.299.666-.667.666-.987 0-1.693.303-2.195.805-.293.293-.453.58-.506.74-.116.349-.494.538-.843.421-.35-.116-.538-.494-.422-.843.114-.34.371-.804.828-1.26C3.61.446 4.654 0 6 0z"/></g></svg>