<svg xmlns="http://www.w3.org/2000/svg" width="16" height="16" viewBox="0 0 16 16">
    <path fill="#000" fill-rule="nonzero" d="M1.534 3.244a.668.668 0 0 0 .912-.243 3.344 3.344 0 0 1 2.887-1.668.667.667 0 1 0 0-1.333 4.683 4.683 0 0 0-4.042 2.333.668.668 0 0 0 .243.911zm12.838 4.714a1 1 0 0 0-1.414 0l-1.833 1.834-.53-.53 3-3a1 1 0 1 0-1.415-1.415l-3 3-.53-.53 3.998-3.999a1 1 0 0 0-1.414-1.414L7.235 5.902l-.53-.53 2.667-2.666a1 1 0 0 0-1.414-1.414L2 7.25V5.667a1 1 0 1 0-2 0V8.2c0 1.428.611 2.787 1.678 3.736l2.309 2.053a4.337 4.337 0 0 0 5.943-.175l4.442-4.443a1 1 0 0 0 0-1.414zM15 12.757a.664.664 0 0 0-.91.242 3.347 3.347 0 0 1-2.888 1.668.667.667 0 0 0 0 1.333 4.683 4.683 0 0 0 4.041-2.333.666.666 0 0 0-.243-.91z"/>
</svg>
