<svg xmlns="http://www.w3.org/2000/svg" width="16" height="16" viewBox="0 0 16 16"><g fill="none" fill-rule="evenodd"><path fill="#000" d="M16 8c0 4.418-3.582 8-8 8s-8-3.582-8-8 3.582-8 8-8 8 3.582 8 8zm-4.57-1.14c.16-1.064-.65-1.636-1.76-2.018l.36-1.442-.877-.219-.35 1.404c-.231-.057-.468-.112-.704-.165l.353-1.414-.878-.218-.36 1.441c-.19-.043-.378-.086-.56-.132l.001-.004-1.21-.302-.234.937s.651.15.638.159c.355.088.42.324.409.51l-.41 1.643c.025.006.056.015.091.03l-.092-.024-.575 2.301c-.043.108-.153.27-.402.209.009.013-.638-.16-.638-.16l-.436 1.005 1.143.285c.212.053.42.109.626.162L5.2 12.306l.877.219.36-1.443c.232.063.466.123.7.181l-.36 1.436.879.22.363-1.457c1.497.284 2.623.17 3.096-1.184.382-1.09-.019-1.719-.806-2.129.573-.132 1.005-.51 1.12-1.289zM9.426 9.673c-.271 1.09-2.107.5-2.702.353l.482-1.933c.595.149 2.503.443 2.22 1.58zm.271-2.828c-.247.991-1.775.487-2.27.364l.437-1.753c.495.124 2.091.354 1.833 1.389z"/></g></svg>