<svg xmlns="http://www.w3.org/2000/svg" width="16" height="16" viewBox="0 0 16 16">
    <path fill="#000" fill-rule="evenodd" d="M4.835 12.876h.492c.212 0 .376.016.491.016v2.31h1.409V12.91c.262.016.639.016 1.13.016v2.277h1.41v-2.31c.507-.032.95-.081 1.327-.147a5.077 5.077 0 0 0 1.113-.31c.36-.148.656-.329.885-.542.246-.213.442-.475.59-.803.163-.327.262-.72.295-1.146.081-.852-.05-1.49-.41-1.95-.344-.458-.885-.77-1.606-.95.918-.458 1.311-1.245 1.213-2.359-.05-.41-.148-.753-.344-1.048a1.88 1.88 0 0 0-.754-.721 3.569 3.569 0 0 0-1.032-.41 8.582 8.582 0 0 0-1.277-.213V0h-1.41v2.228c-.245 0-.622 0-1.13.016V0H5.818v2.293c-.196 0-.491.017-.869.017L3 2.293V3.8h1.016c.475 0 .737.214.819.623v2.638a.37.37 0 0 1 .147.016h-.147v3.67c-.049.311-.23.459-.524.459H3.295L3 12.876h1.835zm2.425-4.75c.05 0 .197 0 .442-.017h.59c.147 0 .36 0 .639.033.262.016.491.033.671.081.18.033.377.083.59.165.23.081.394.163.541.278.13.115.245.246.328.426.097.163.147.36.147.574 0 .18-.033.327-.098.475-.05.13-.132.262-.214.36a1.591 1.591 0 0 1-.36.278c-.164.082-.295.148-.442.18-.148.05-.311.1-.508.131-.197.05-.377.066-.524.083a4.797 4.797 0 0 1-.524.033c-.214.016-.377.016-.492.016H7.26V8.126zm0-4.227h.36c.196 0 .377 0 .508-.017.13 0 .295.017.524.033.213.017.41.033.557.066.164.033.328.081.508.147.18.082.328.164.442.262.099.099.197.23.28.394a1.329 1.329 0 0 1 .032.999 1.17 1.17 0 0 1-.246.36c-.115.098-.23.18-.344.246a1.41 1.41 0 0 1-.442.164c-.18.049-.345.082-.475.114a10 10 0 0 1-.508.05c-.197 0-.344.016-.443.016h-.442c-.18 0-.279-.017-.311-.017V3.9z"/>
</svg>
