<svg height="16" viewBox="0 0 16 16" width="16" xmlns="http://www.w3.org/2000/svg"><path d="m1 8.178c0 3.171 2.006 5.862 4.787 6.811.35.066.478-.156.478-.345 0-.171-.006-.737-.01-1.337-1.947.435-2.358-.847-2.358-.847-.318-.83-.777-1.05-.777-1.05-.635-.445.048-.436.048-.436.703.05 1.073.74 1.073.74.624 1.097 1.638.78 2.037.596.063-.464.244-.78.445-.96-1.555-.181-3.19-.797-3.19-3.547 0-.784.274-1.424.722-1.927-.073-.18-.313-.91.068-1.9 0 0 .587-.192 1.925.737a6.559 6.559 0 0 1 1.752-.243 6.575 6.575 0 0 1 1.754.242c1.336-.93 1.923-.736 1.923-.736.38.988.141 1.718.068 1.9.45.502.72 1.142.72 1.926 0 2.757-1.637 3.364-3.196 3.542.251.222.475.66.475 1.329 0 .96-.008 1.733-.008 1.97 0 .19.126.415.48.344 2.78-.95 4.784-3.64 4.784-6.81 0-3.964-3.134-7.177-7-7.177-3.865 0-7 3.213-7 7.178z" fill-rule="evenodd"/></svg>