<svg xmlns="http://www.w3.org/2000/svg" width="16" height="16" viewBox="0 0 16 16">
    <path fill="#000" fill-rule="evenodd" d="M0 8.203c0 3.625 2.292 6.7 5.47 7.784.4.076.547-.178.547-.394 0-.196-.007-.842-.01-1.528-2.226.497-2.696-.967-2.696-.967-.364-.948-.888-1.2-.888-1.2-.726-.51.055-.5.055-.5.803.058 1.226.846 1.226.846.714 1.254 1.872.892 2.328.682.072-.53.28-.892.508-1.097-1.777-.207-3.645-.91-3.645-4.054 0-.896.313-1.628.825-2.202-.084-.207-.357-1.041.077-2.171 0 0 .672-.22 2.2.841A7.495 7.495 0 0 1 8 3.967c.68.003 1.365.094 2.004.276 1.527-1.061 2.198-.841 2.198-.841.435 1.13.162 1.964.078 2.17.513.575.824 1.307.824 2.203 0 3.15-1.872 3.844-3.653 4.047.287.255.542.754.542 1.52 0 1.097-.009 1.98-.009 2.25 0 .22.144.475.55.394C13.71 14.901 16 11.826 16 8.203 16 3.673 12.418 0 8 0S0 3.673 0 8.203z"/>
</svg>
