<svg xmlns="http://www.w3.org/2000/svg" width="16" height="16" viewBox="0 0 16 16"><g fill="none" fill-rule="evenodd"><path fill="#000" d="M5.352 12.561c0 .065-.075.116-.168.116-.107.01-.18-.042-.18-.116 0-.064.073-.116.167-.116.097-.01.18.042.18.116zm-1.004-.145c-.022.065.042.139.14.158.083.032.18 0 .2-.064.018-.065-.043-.139-.14-.168-.083-.023-.177.01-.2.074zm1.426-.055c-.093.023-.158.084-.148.158.01.065.093.107.19.084.094-.022.158-.084.149-.148-.01-.061-.097-.103-.19-.094zM7.897 0C3.423 0 0 3.397 0 7.871c0 3.577 2.252 6.639 5.468 7.716.413.074.558-.18.558-.39 0-.2-.01-1.303-.01-1.98 0 0-2.258.483-2.732-.962 0 0-.368-.939-.897-1.18 0 0-.739-.507.052-.498 0 0 .803.065 1.245.833.706 1.245 1.89.887 2.351.674.075-.516.284-.874.517-1.087-1.804-.2-3.623-.462-3.623-3.565 0-.887.245-1.332.761-1.9-.084-.21-.358-1.074.084-2.19.674-.21 2.226.87 2.226.87.645-.18 1.339-.273 2.026-.273.687 0 1.38.093 2.026.274 0 0 1.551-1.084 2.225-.871.442 1.12.168 1.98.084 2.19.516.571.833 1.016.833 1.9 0 3.113-1.9 3.362-3.704 3.565.297.255.549.738.549 1.497 0 1.087-.01 2.432-.01 2.696 0 .21.148.465.558.39C13.813 14.51 16 11.449 16 7.872 16 3.397 12.371 0 7.897 0zM3.135 11.126c-.041.032-.032.106.023.168.052.051.126.074.168.032.042-.032.032-.107-.023-.168-.051-.052-.126-.074-.168-.032zm-.348-.261c-.022.041.01.093.074.125.052.033.116.023.139-.022.023-.042-.01-.094-.074-.126-.065-.02-.116-.01-.139.023zm1.045 1.148c-.051.042-.032.139.042.2.074.074.168.084.21.032.042-.042.022-.139-.042-.2-.071-.074-.168-.084-.21-.032zm-.367-.474c-.052.032-.052.116 0 .19.051.074.138.106.18.074.052-.042.052-.126 0-.2-.045-.074-.129-.106-.18-.064z"/></g></svg>