<svg xmlns="http://www.w3.org/2000/svg" width="16" height="16" viewBox="0 0 16 16">
    <path fill="#000" fill-rule="evenodd" d="M1 3.006C1 1.898 1.897 1 3.006 1h9.988C14.102 1 15 1.897 15 3.006v9.988A2.005 2.005 0 0 1 12.994 15H3.006A2.005 2.005 0 0 1 1 12.994V3.006zm5.102 1.562c-.219-.383-.37-.634-.455-.553H4.231l2.766 4.607V12h2.03V8.622l2.742-4.607h-1.417c-.134-.022-.337.317-.59.745-.27.442-.489.796-.64 1.061-.17.265-.355.59-.574.973-.203.383-.388.737-.557 1.047h-.033c-.118-.25-.27-.516-.405-.796-.152-.266-.32-.545-.506-.855-.17-.31-.32-.575-.422-.767l-.523-.855z"/>
</svg>
