<?xml version="1.0" encoding="UTF-8"?>
<svg width="16px" height="16px" viewBox="0 0 16 16" version="1.1" xmlns="http://www.w3.org/2000/svg" xmlns:xlink="http://www.w3.org/1999/xlink">
    <!-- Generator: sketchtool 54.1 (76490) - https://sketchapp.com -->
    <title>8E29C493-21C8-46A6-B5D9-816E55D39CDE</title>
    <desc>Created with sketchtool.</desc>
    <g id="Symbols" stroke="none" stroke-width="1" fill="none" fill-rule="evenodd">
        <g id="50-kb-iconfont-identity-pgp-16">
            <g>
                <rect id="icon-area" opacity="0" x="0" y="0" width="16" height="16"></rect>
                <path d="M5.68355145,12.4878637 L6.85466529,11.3173524 L5.68415403,10.1465399 L4.51334149,11.3167498 L5.68355145,12.4878637 Z M5.68264758,14.8291875 L3.34132379,12.4884662 L2.17051125,13.6586762 L4.51213633,16 L5.68264758,14.8291875 Z M12.5119857,3.31720177 L10.1712645,5.65852556 L12.3170511,7.80491479 L14.6586762,5.46328971 L13.6830995,4.48771302 L14.6583749,3.51213633 L11.1465399,0 L10.1712645,0.975877978 L12.5119857,3.31690048 L12.5119857,3.31720177 Z M8.99954807,4.48771302 L11.3408719,2.14638923 L9.19478392,0 L6.85315884,2.34132379 L7.8293381,3.31720177 L6.85376142,4.29277846 L8.02427267,5.46328971 L1,12.4875624 L2.17051125,13.6580736 L9.19478392,6.63410225 L10.3655965,7.80491479 L11.3411731,6.8293381 L8.99954807,4.48771302 Z" id="Fill-1" fill="#000000"></path>
            </g>
        </g>
    </g>
</svg>