<svg xmlns="http://www.w3.org/2000/svg" width="16" height="16" viewBox="0 0 16 16">
    <g fill="none" fill-rule="evenodd">
        <path fill="#000" d="M4.25 16c.414 0 .75-.336.75-.75V14h1.25c.414 0 .75-.336.75-.75V12h1.163c.186 0 .437-.113.56-.252l.751-.844c.333.063.675.096 1.026.096 3.038 0 5.5-2.462 5.5-5.5C16 2.453 13.546 0 10.5 0 7.462 0 5 2.462 5 5.5c0 .602.097 1.182.276 1.724L.22 12.28c-.141.141-.22.332-.22.53v2.44c0 .414.336.75.75.75h3.5zM12 5.5c-.828 0-1.5-.672-1.5-1.5s.672-1.5 1.5-1.5 1.5.672 1.5 1.5-.672 1.5-1.5 1.5z"/>
    </g>
</svg>
