<svg xmlns="http://www.w3.org/2000/svg" width="16" height="16" viewBox="0 0 16 16">
    <g fill="none" fill-rule="evenodd">
        <circle cx="8" cy="8" r="8" fill="#000"/>
        <path fill="#FFF" d="M1.688 8.562c.129.223.294.4.505.529a3.145 3.145 0 0 0-.035.435c0 .529.152 1.034.446 1.504.305.481.74.904 1.304 1.268.54.353 1.162.635 1.855.823a8.555 8.555 0 0 0 2.208.282c.763 0 1.503-.094 2.195-.282a6.647 6.647 0 0 0 1.88-.823c.563-.364.986-.787 1.291-1.268.294-.47.446-.975.446-1.504a2.4 2.4 0 0 0-.035-.4 1.456 1.456 0 0 0 .752-1.28c0-.412-.141-.764-.435-1.058a1.392 1.392 0 0 0-1.045-.435c-.387 0-.704.13-.986.376-1.022-.657-2.243-1.021-3.676-1.08l.763-2.409 2.067.494c0 .328.13.622.364.857.235.235.517.353.857.353.33 0 .61-.118.858-.364.235-.235.352-.53.352-.87a1.2 1.2 0 0 0-1.21-1.21c-.246 0-.47.07-.68.2-.2.14-.353.317-.447.54L9.004 2.7a.232.232 0 0 0-.176.024c-.059.035-.106.082-.118.14l-.88 2.773c-1.504.023-2.795.388-3.876 1.08a1.46 1.46 0 0 0-.974-.364c-.411 0-.764.142-1.045.435A1.437 1.437 0 0 0 1.5 7.846c0 .258.059.493.188.716zm3.723.893a.865.865 0 0 0 .645.259.852.852 0 0 0 .623-.259.873.873 0 0 0 .27-.634.871.871 0 0 0-.27-.635.864.864 0 0 0-.623-.27.916.916 0 0 0-.645.27.87.87 0 0 0-.27.635c0 .246.093.458.27.634zm.493 1.927c.434.434 1.127.646 2.09.646h.012c.963 0 1.656-.212 2.09-.646a.248.248 0 0 0 .07-.188.24.24 0 0 0-.07-.176.238.238 0 0 0-.176-.071c-.07 0-.13.024-.176.07-.34.341-.916.506-1.738.506h-.012c-.822 0-1.397-.165-1.738-.505a.239.239 0 0 0-.176-.071.239.239 0 0 0-.246.247c0 .082.023.14.07.188zM9.32 9.455a.867.867 0 0 0 .646.259.85.85 0 0 0 .622-.259.87.87 0 0 0 .27-.634.87.87 0 0 0-.27-.635.863.863 0 0 0-.622-.27.916.916 0 0 0-.646.27.87.87 0 0 0-.27.635.87.87 0 0 0 .27.634z"/>
    </g>
</svg>
