<svg xmlns="http://www.w3.org/2000/svg" width="16" height="16" viewBox="0 0 16 16">
    <path fill="#000" fill-rule="evenodd" d="M.231 8.461a1.8 1.8 0 0 0 .622.65 3.87 3.87 0 0 0-.044.536c0 .65.188 1.273.55 1.851.376.593.91 1.113 1.604 1.562.665.433 1.431.78 2.284 1.012a10.53 10.53 0 0 0 2.717.347c.94 0 1.85-.116 2.702-.347a8.18 8.18 0 0 0 2.313-1.012c.694-.449 1.214-.97 1.59-1.562.361-.578.549-1.2.549-1.85 0-.16-.014-.319-.043-.493.289-.16.506-.376.679-.665.16-.275.246-.578.246-.91 0-.507-.174-.94-.535-1.302a1.714 1.714 0 0 0-1.287-.535c-.476 0-.866.159-1.213.462-1.258-.809-2.76-1.257-4.524-1.33l.939-2.964 2.544.607c0 .405.16.766.448 1.056.29.289.636.434 1.055.434.405 0 .751-.145 1.055-.449.29-.289.434-.65.434-1.07A1.477 1.477 0 0 0 13.426 1c-.302 0-.577.087-.837.246a1.54 1.54 0 0 0-.55.665l-2.803-.665a.286.286 0 0 0-.217.03c-.072.042-.13.1-.145.172L7.79 4.861c-1.85.029-3.44.477-4.77 1.33a1.796 1.796 0 0 0-1.199-.448c-.505 0-.94.174-1.286.535A1.768 1.768 0 0 0 0 7.579c0 .319.072.608.231.882zm.737-1.75c.232-.23.52-.347.853-.347a1.2 1.2 0 0 1 .665.203c-.708.564-1.2 1.2-1.46 1.908a1.136 1.136 0 0 1-.405-.896c0-.332.116-.621.347-.867zm2.328.03c.62-.406 1.343-.71 2.153-.926a9.724 9.724 0 0 1 5.044 0c.81.217 1.518.52 2.14.926.606.404 1.069.838 1.387 1.344.317.492.476 1.013.476 1.562 0 .535-.159 1.055-.476 1.562-.318.491-.781.94-1.388 1.33-.621.405-1.33.709-2.139.925a9.697 9.697 0 0 1-2.53.333 9.51 9.51 0 0 1-2.514-.333c-.81-.216-1.532-.52-2.153-.925-.608-.39-1.07-.839-1.388-1.33-.318-.507-.477-1.027-.477-1.562 0-.55.159-1.07.477-1.562.318-.506.78-.94 1.388-1.344zm1.517 2.82c.217.216.477.318.795.318.289 0 .55-.102.766-.319.216-.217.332-.477.332-.78 0-.305-.116-.565-.332-.781a1.064 1.064 0 0 0-.766-.333c-.303 0-.564.116-.795.333a1.07 1.07 0 0 0-.333.78c0 .304.116.564.333.781zm.607 2.37c.535.535 1.387.796 2.573.796h.014c1.186 0 2.038-.26 2.573-.795a.305.305 0 0 0 .086-.232.294.294 0 0 0-.086-.217.293.293 0 0 0-.217-.087.294.294 0 0 0-.217.087c-.419.42-1.127.622-2.139.622h-.014c-1.012 0-1.72-.202-2.14-.622a.294.294 0 0 0-.216-.087.294.294 0 0 0-.303.304c0 .101.029.174.086.232zm4.206-2.37c.217.216.477.318.795.318.289 0 .55-.102.766-.319.217-.217.332-.477.332-.78a1.07 1.07 0 0 0-.332-.781 1.062 1.062 0 0 0-.766-.333c-.304 0-.564.116-.795.333a1.07 1.07 0 0 0-.332.78c0 .304.115.564.332.781zm3.8-7.94c.232 0 .435.088.608.26.173.175.26.377.26.608a.84.84 0 0 1-.26.622.833.833 0 0 1-.607.26.841.841 0 0 1-.621-.26.84.84 0 0 1-.26-.622c0-.23.086-.433.26-.607a.841.841 0 0 1 .62-.26zm.752 4.743c.333 0 .608.116.854.348.23.246.346.535.346.867 0 .376-.158.694-.462.94-.246-.723-.723-1.36-1.431-1.923.202-.159.433-.232.693-.232z"/>
</svg>
