<svg xmlns="http://www.w3.org/2000/svg" width="16" height="16" viewBox="0 0 16 16"><g fill="none" fill-rule="evenodd"><path fill="#000" d="M6.242 9.597c-.445 0-.803-.358-.803-.794 0-.445.358-.803.803-.803.439 0 .793.358.793.803 0 .439-.358.794-.793.794zM16 8c0 4.42-3.58 8-8 8s-8-3.58-8-8 3.58-8 8-8 8 3.58 8 8zm-4.268-1.329c-.303 0-.57.126-.767.323-.723-.5-1.697-.823-2.778-.859l.561-2.525 1.787.403c0 .439.359.793.794.793.445 0 .803-.364.803-.803 0-.438-.358-.803-.803-.803-.313 0-.58.187-.713.445l-1.974-.439c-.097-.025-.197.046-.223.142l-.616 2.787c-1.07.046-2.035.365-2.758.865-.197-.206-.474-.329-.777-.329-1.126 0-1.494 1.513-.465 2.026-.035.161-.055.329-.055.5 0 1.697 1.91 3.07 4.258 3.07 2.359 0 4.268-1.373 4.268-3.07 0-.171-.02-.349-.061-.51 1.01-.516.639-2.016-.48-2.016zM9.51 10.419c-.587.587-2.455.578-3.02 0-.07-.07-.196-.07-.267 0-.081.081-.081.207 0 .278.735.735 2.816.735 3.554 0 .081-.071.081-.197 0-.278-.07-.07-.196-.07-.267 0zM9.758 8c-.439 0-.793.358-.793.803 0 .439.358.794.793.794.445 0 .803-.358.803-.794 0-.445-.355-.803-.803-.803z"/></g></svg>