<svg xmlns="http://www.w3.org/2000/svg" width="16" height="16" viewBox="0 0 16 16"><g fill="none" fill-rule="evenodd"><path fill="#000" d="M13.56 4.836c.01.124.01.249.01.373 0 3.793-2.887 8.164-8.164 8.164-1.626 0-3.136-.471-4.406-1.288.231.026.453.035.693.035 1.341 0 2.576-.453 3.562-1.226-1.261-.026-2.318-.852-2.683-1.99.178.027.356.045.542.045.258 0 .515-.036.755-.098-1.314-.266-2.3-1.421-2.3-2.816V6c.381.213.826.346 1.296.364-.772-.515-1.279-1.395-1.279-2.39 0-.533.142-1.021.391-1.448C3.39 4.267 5.513 5.404 7.893 5.53c-.044-.213-.07-.435-.07-.657 0-1.582 1.278-2.87 2.869-2.87.826 0 1.572.347 2.096.906.648-.124 1.27-.364 1.821-.693-.213.667-.666 1.226-1.261 1.582.577-.063 1.137-.222 1.652-.444-.39.568-.88 1.074-1.44 1.483z"/></g></svg>