<svg xmlns="http://www.w3.org/2000/svg" width="16" height="16" viewBox="0 0 16 16">
    <path fill="#000" fill-rule="evenodd" d="M8 0a8 8 0 1 1 0 16A8 8 0 0 1 8 0zM1.541 8.736a6.505 6.505 0 0 0 4.96 5.59C5.34 12.666 4.693 10.8 4.57 8.74L1.54 8.736zm8.097 5.555l.117-.03a6.506 6.506 0 0 0 4.702-5.512l-2.912-.002c-.124 2.043-.761 3.895-1.907 5.544zm4.82-5.542l-8.385-.007a9.195 9.195 0 0 0 1.983 5.163 9.177 9.177 0 0 0 1.986-5.159l-3.97-.004zM9.651 1.712l.14.209c1.048 1.6 1.634 3.378 1.753 5.326l2.912.003a6.506 6.506 0 0 0-4.805-5.538zm-1.594.36l-.188.248a9.267 9.267 0 0 0-1.796 4.921l3.967.004a9.29 9.29 0 0 0-1.983-5.172zm-1.572-.394l-.095.023a6.506 6.506 0 0 0-4.847 5.536l3.027.003c.126-2.044.766-3.902 1.915-5.562z"/>
</svg>
