<svg xmlns="http://www.w3.org/2000/svg" width="16" height="16" viewBox="0 0 16 16"><g fill="none" fill-rule="evenodd"><path fill="#000" d="M7.75 15.75c4.281 0 7.75-3.469 7.75-7.75 0-4.281-3.469-7.75-7.75-7.75C3.469.25 0 3.719 0 8c0 4.281 3.469 7.75 7.75 7.75zm1.975-10.5h-3.95c.456-2.212 1.394-3.5 1.975-3.5.581 0 1.519 1.288 1.975 3.5zm3.628 0h-2.1c-.21-1.14-.547-2.15-.975-2.96 1.34.594 2.428 1.648 3.075 2.96zm-9.106 0h-2.1c.647-1.312 1.734-2.366 3.075-2.96-.428.81-.766 1.82-.975 2.96zm-.194 4H1.625C1.544 8.847 1.5 8.428 1.5 8c0-.428.044-.847.125-1.25h2.428C4.022 7.16 4 7.572 4 8c0 .428.022.84.053 1.25zm5.888 0H5.559C5.525 8.85 5.5 8.438 5.5 8c0-.437.025-.85.06-1.25h4.384c.034.4.06.813.06 1.25 0 .438-.029.85-.063 1.25zm3.934 0h-2.428c.031-.41.053-.822.053-1.25 0-.428-.022-.84-.053-1.25h2.428c.081.403.125.822.125 1.25 0 .428-.044.847-.125 1.25zm-8.653 4.46c-1.34-.594-2.428-1.647-3.075-2.96h2.1c.21 1.14.547 2.15.975 2.96zm2.528.54c-.581 0-1.519-1.288-1.975-3.5h3.953c-.46 2.212-1.397 3.5-1.978 3.5zm2.528-.54c.428-.81.763-1.82.975-2.96h2.1c-.647 1.313-1.734 2.366-3.075 2.96z"/></g></svg>