<svg xmlns="http://www.w3.org/2000/svg" width="16" height="16" viewBox="0 0 16 16">
    <path fill="#000" fill-rule="evenodd" d="M9.637 14.292a6.506 6.506 0 0 0 4.82-5.542l-2.912-.003c-.124 2.043-.761 3.896-1.908 5.545zm.405-5.547l-3.97-.004a9.195 9.195 0 0 0 1.986 5.166 9.195 9.195 0 0 0 1.984-5.162zm-.39-7.033c1.136 1.653 1.768 3.502 1.893 5.535l2.912.003a6.506 6.506 0 0 0-4.805-5.538zm.39 5.533a9.29 9.29 0 0 0-1.984-5.173 9.29 9.29 0 0 0-1.984 5.17l3.967.003zm-3.54 7.081C5.339 12.666 4.693 10.8 4.57 8.74L1.54 8.737a6.505 6.505 0 0 0 4.96 5.59zM6.487 1.677a6.506 6.506 0 0 0-4.943 5.56l3.027.003c.126-2.045.766-3.903 1.916-5.563zM8 16A8 8 0 1 1 8 0a8 8 0 0 1 0 16z"/>
</svg>
