<?xml version="1.0" encoding="UTF-8"?>
<svg width="16px" height="16px" viewBox="0 0 16 16" version="1.1" xmlns="http://www.w3.org/2000/svg" xmlns:xlink="http://www.w3.org/1999/xlink">
    <!-- Generator: sketchtool 54.1 (76490) - https://sketchapp.com -->
    <title>1B751B0B-6632-4F3C-8405-E4CE8CA1C813</title>
    <desc>Created with sketchtool.</desc>
    <g id="Symbols" stroke="none" stroke-width="1" fill="none" fill-rule="evenodd">
        <g id="53-kb-iconfont-identity-website-16">
            <g>
                <rect id="icon-area" opacity="0" x="0" y="0" width="16" height="15.0588235"></rect>
                <path d="M8.00005,0.000941176471 C3.581772,0.000941176471 5.00000001e-05,3.37197365 5.00000001e-05,7.53035294 C5.00000001e-05,11.6887322 3.581772,15.0597647 8.00005,15.0597647 C12.418328,15.0597647 16.00005,11.6887322 16.00005,7.53035294 C16.00005,3.37197365 12.418328,0.000941176471 8.00005,0.000941176471 Z M13.36691,5.02054902 L11.10259,5.02054902 C10.9393033,4.06147885 10.6188659,3.13206749 10.1527167,2.26549333 C11.551118,2.77530049 12.6972093,3.75767616 13.36691,5.02054902 L13.36691,5.02054902 Z M8.00005,1.88329412 C8.42957667,1.88329412 9.31759667,2.96999529 9.75086333,5.02054902 L6.24923667,5.02054902 C6.68250333,2.96998275 7.57052333,1.88329412 8.00005,1.88329412 Z M2.15451,8.7852549 C1.94856336,7.95988084 1.94856336,7.10082505 2.15451,6.27545098 L4.72433,6.27545098 C4.68820333,6.68292392 4.66671667,7.10112 4.66671667,7.53035294 C4.66671667,7.95958588 4.68820333,8.37777569 4.72433,8.7852549 L2.15451,8.7852549 Z M2.63317667,10.0401569 L4.89749667,10.0401569 C5.06078617,10.9992256 5.38122114,11.9286362 5.84736333,12.7952125 C4.44897156,12.2853983 3.30288901,11.303024 2.63317667,10.0401569 L2.63317667,10.0401569 Z M4.89749667,5.02054902 L2.63317667,5.02054902 C3.30287681,3.75767806 4.44896519,2.77530285 5.84736333,2.26549333 C5.38122386,3.13206967 5.0607933,4.06148057 4.89751,5.02054902 L4.89749667,5.02054902 Z M8.00003667,13.1774118 C7.57051,13.1774118 6.68249,12.0907043 6.24922333,10.0401569 L9.75085,10.0401569 C9.31759667,12.0906667 8.42957667,13.1774118 8.00005,13.1774118 L8.00003667,13.1774118 Z M9.94095667,8.7852549 L6.05911667,8.7852549 C6.02168333,8.39156706 6.00003667,7.97396078 6.00003667,7.53035294 C6.00003667,7.0867451 6.02168333,6.66913882 6.05911667,6.27545098 L9.94095667,6.27545098 C9.97839,6.66913882 10.0000367,7.0867451 10.0000367,7.53035294 C10.0000367,7.97396078 9.97840333,8.39155451 9.94097,8.7852549 L9.94095667,8.7852549 Z M10.1527033,12.7952125 C10.6188508,11.9286377 10.9392882,10.9992266 11.1025767,10.0401569 L13.3668967,10.0401569 C12.6971945,11.3030212 11.5511093,12.2853912 10.1527033,12.7952125 L10.1527033,12.7952125 Z M11.27575,8.7852549 C11.3118833,8.37777569 11.33337,7.95957961 11.33337,7.53035294 C11.33337,7.10112627 11.3118833,6.68292392 11.27575,6.27545098 L13.8455767,6.27545098 C14.0515233,7.10082505 14.0515233,7.95988084 13.8455767,8.7852549 L11.27575,8.7852549 Z" id="world" fill="#000000"></path>
            </g>
        </g>
    </g>
</svg>