<svg height="16" viewBox="0 0 16 16" width="16" xmlns="http://www.w3.org/2000/svg"><path d="m8 1.001a7 7 0 1 0 0 14 7 7 0 0 0 0-14zm4.696 4.667h-1.981a8.728 8.728 0 0 0 -.831-2.562 5.271 5.271 0 0 1 2.812 2.562zm-4.696-2.918c.376 0 1.153 1.01 1.532 2.917h-3.064c.38-1.907 1.156-2.917 1.532-2.917zm-5.115 6.418a5.103 5.103 0 0 1 0-2.334h2.249c-.032.38-.05.768-.05 1.167 0 .4.018.788.05 1.167zm.419 1.166h1.981c.143.892.424 1.756.831 2.562a5.271 5.271 0 0 1 -2.812-2.562zm1.981-4.666h-1.981a5.271 5.271 0 0 1 2.812-2.562 8.728 8.728 0 0 0 -.83 2.562zm2.715 7.582c-.376 0-1.153-1.01-1.532-2.917h3.064c-.38 1.907-1.156 2.917-1.532 2.917zm1.698-4.083h-3.396a13.068 13.068 0 0 1 0-2.334h3.396a13.068 13.068 0 0 1 0 2.334zm.186 3.728c.408-.806.688-1.67.83-2.562h1.982a5.271 5.271 0 0 1 -2.812 2.562zm.982-3.728c.032-.38.05-.768.05-1.167s-.018-.788-.05-1.167h2.249c.18.768.18 1.566 0 2.334z"/></svg>