<svg xmlns="http://www.w3.org/2000/svg" width="16" height="16" viewBox="0 0 16 16">
    <path fill="#000" fill-rule="nonzero" d="M8 0C3.582 0 0 3.373 0 7.53c0 4.159 3.582 7.53 8 7.53s8-3.371 8-7.53C16 3.372 12.418 0 8 0zm5.367 5.02h-2.264a9.004 9.004 0 0 0-.95-2.755c1.398.51 2.544 1.493 3.214 2.756zM8 1.884c.43 0 1.318 1.087 1.75 3.138h-3.5C6.682 2.97 7.57 1.883 8 1.883zM2.155 8.785a5.175 5.175 0 0 1 0-2.51h2.57c-.037.408-.058.826-.058 1.255 0 .43.021.848.057 1.255h-2.57zm.478 1.255h2.264c.164.96.484 1.889.95 2.755-1.398-.51-2.544-1.492-3.214-2.755zm2.264-5.02H2.633c.67-1.262 1.816-2.245 3.214-2.755a9.005 9.005 0 0 0-.95 2.756zM8 13.178c-.43 0-1.318-1.086-1.75-3.137h3.5c-.432 2.05-1.32 3.137-1.75 3.137zm1.941-4.392H6.059a13.235 13.235 0 0 1 0-2.51h3.882a13.235 13.235 0 0 1 0 2.51zm.212 4.01a9.004 9.004 0 0 0 .95-2.755h2.264c-.67 1.263-1.816 2.245-3.214 2.755zm1.123-4.01c.036-.407.057-.825.057-1.255 0-.429-.021-.847-.057-1.255h2.57a5.175 5.175 0 0 1 0 2.51h-2.57z"/>
</svg>
