<svg height="16" viewBox="0 0 16 16" width="16" xmlns="http://www.w3.org/2000/svg"><g fill="#231f20" fill-rule="evenodd"><path d="m7.913 1.934a6.162 6.162 0 0 0 -6.155 6.156 6.161 6.161 0 0 0 6.155 6.154 6.161 6.161 0 0 0 6.154-6.154 6.162 6.162 0 0 0 -6.154-6.155m0 14.067c-4.363-.001-7.913-3.551-7.913-7.912 0-4.364 3.55-7.914 7.913-7.914s7.913 3.55 7.913 7.913-3.55 7.911-7.913 7.911"/><path d="m7.438 10.066h3.427v1.714h-2.105c.027.49.054.951.08 1.44h-1.777v-1.418h-2.119c0-.569-.066-1.125.026-1.655.05-.281.361-.524.57-.77a294.96 294.96 0 0 1 2.02-2.35c.256-.295.525-.579.825-.908h-3.288v-1.727h1.95v-1.434h1.711v1.412h2.124c0 .58.066 1.138-.027 1.668-.049.281-.364.522-.574.769-.669.787-1.342 1.57-2.02 2.35-.254.294-.522.577-.823.908"/></g></svg>