<svg height="16" viewBox="0 0 16 16" width="16" xmlns="http://www.w3.org/2000/svg"><g fill-rule="evenodd"><path d="m8 0a8 8 0 1 1 0 16 8 8 0 0 1 0-16zm0 14a6 6 0 1 0 0-12 6 6 0 0 0 0 12z"/><path d="m7.402 12.064h-.143a.76.76 0 0 1 -.741-.923l.74-3.356a1 1 0 0 1 .976-.785h.146a.762.762 0 0 1 .744.927l-.746 3.354a1 1 0 0 1 -.976.783zm.309-7.043c0-.336.097-.59.29-.762.194-.173.465-.259.813-.259.297 0 .525.06.686.178a.596.596 0 0 1 .242.51c0 .326-.094.577-.283.755-.189.177-.46.266-.815.266-.622 0-.933-.23-.933-.688z"/></g></svg>