<svg xmlns="http://www.w3.org/2000/svg" width="16" height="16" viewBox="0 0 16 16"><g fill="none" fill-rule="evenodd"><path fill="#000" d="M8 15.75c4.28 0 7.75-3.469 7.75-7.75C15.75 3.721 12.28.25 8 .25 3.72.25.25 3.721.25 8c0 4.281 3.47 7.75 7.75 7.75zm0-1.5c-3.454 0-6.25-2.795-6.25-6.25 0-3.453 2.796-6.25 6.25-6.25 3.453 0 6.25 2.796 6.25 6.25S11.455 14.25 8 14.25zm0-7.937c.725 0 1.312-.588 1.312-1.313S8.725 3.688 8 3.688c-.725 0-1.313.587-1.313 1.312 0 .725.588 1.313 1.313 1.313zM9.375 12c.207 0 .375-.168.375-.375v-.75c0-.207-.168-.375-.375-.375H9V7.375C9 7.168 8.832 7 8.625 7h-2c-.207 0-.375.168-.375.375v.75c0 .207.168.375.375.375H7v2h-.375c-.207 0-.375.168-.375.375v.75c0 .207.168.375.375.375h2.75z"/></g></svg>