<svg xmlns="http://www.w3.org/2000/svg" width="16" height="16" viewBox="0 0 16 16">
    <path fill="#000" fill-rule="nonzero" d="M8 0a8 8 0 1 1 0 16A8 8 0 0 1 8 0zm0 14A6 6 0 1 0 8 2a6 6 0 0 0 0 12zm-.598-1.936h-.143a.76.76 0 0 1-.741-.923l.74-3.356A1 1 0 0 1 8.234 7h.146a.762.762 0 0 1 .744.927l-.746 3.354a1 1 0 0 1-.976.783zm.309-7.043c0-.336.097-.59.29-.762.194-.173.465-.259.813-.259.297 0 .525.06.686.178a.596.596 0 0 1 .242.51c0 .326-.094.577-.283.755-.189.177-.46.266-.815.266-.622 0-.933-.23-.933-.688z"/>
</svg>
