<svg xmlns="http://www.w3.org/2000/svg" width="16" height="16" viewBox="0 0 16 16">
    <path fill="#000" fill-rule="evenodd" d="M6.607.08l.82.483c-.405.861-.359 1.18-.338 1.253.326-.01.716.06 1.16.207A2.781 2.781 0 0 1 9.9 3.485a2.784 2.784 0 0 1 .061 2.262l.056.02a7.348 7.348 0 0 1 2.902 1.855c1.339 1.376 2.106 3.194 2.106 4.987 0 1.253-.216 2.41-.634 3.391H13.34c.589-1.148.731-2.434.731-3.39 0-.338-.032-.677-.094-1.013a2.228 2.228 0 0 1-.072.11c-.618.878-1.808 1.212-3.032.853-2.822-.829-5.309-.48-7.392 1.035l-1.179.859 1.558-3.875-2.238 2.858A6.24 6.24 0 0 0 2.562 16H1.447a7.134 7.134 0 0 1-.604-1.567L0 15.509v-1.622c.01-1.915.155-4.211 2.242-6.32a7.805 7.805 0 0 1 1.645-1.273l-.309-.017c-.998-.06-1.762-.889-1.704-1.855l.085-1.31c.059-.921.856-1.643 1.815-1.643.023 0 .513.028 1.47.085.1.005.199.019.295.04.264-.403.561-.813.872-1.243l.196-.27zm-.4 13.837a.646.646 0 1 1 0 1.292.646.646 0 0 1 0-1.292zm4.039 0a.646.646 0 1 1 0 1.292.646.646 0 0 1 0-1.292zM7.519 6.492c-.213.11-.331.11-.709.084l1.028 1.215-.5.393a.218.218 0 0 0-.032.315l.105.124a.227.227 0 0 0 .313.03l.506-.397.417.495-1.022.804a.218.218 0 0 0-.033.314l.46.543a.24.24 0 0 0 .33.032l1.018-.8.286.34a.306.306 0 0 0 .302.1.305.305 0 0 0 .122-.058.283.283 0 0 0 .043-.408L7.52 6.492zM3.801 2.788h-.027a.442.442 0 0 0-.449.405l-.084 1.31a.44.44 0 0 0 .42.458l.798.045a3.286 3.286 0 0 1-.019-.64c.029-.619.21-1.084.348-1.398.012-.036.028-.072.043-.107l-1.03-.073z"/>
</svg>
