<svg xmlns="http://www.w3.org/2000/svg" width="16" height="16" viewBox="0 0 16 16"><g fill="none" fill-rule="evenodd"><path fill="#000" d="M4.877 5.22l-.787-.048c-.228-.01-.413-.203-.413-.431v-.019l.085-1.288c.035-.428.487-.397.466-.398l1.023.06c-.08.182-.191.484-.246.674l-.552-.032-.049.766.462.027c-.007.08-.013.21-.013.291 0 .11.01.288.024.397zm3.115 5.16c-.072 0-.168-.043-.215-.098l-.555-.655c-.03-.039-.054-.11-.054-.158 0-.07.046-.163.101-.206l1.216-.955-.498-.589-.6.473c-.041.032-.116.058-.168.058-.068 0-.16-.042-.205-.093-.045-.051-.13-.156-.133-.16-.03-.038-.054-.109-.054-.157 0-.07.046-.163.102-.206l.594-.467-.653-.779c-.04-.05-.07-.142-.07-.205 0-.091.058-.21.13-.266.056-.044.157-.079.227-.079.092 0 .216.057.276.127l2.851 3.386c.039.05.07.142.07.206 0 .091-.058.21-.13.267-.056.042-.157.077-.227.077-.093 0-.217-.057-.278-.126l-.34-.404-1.21.949c-.044.034-.122.06-.177.06zm2.069 4.866c.349 0 .632-.283.632-.633 0-.349-.283-.633-.632-.633-.35 0-.633.284-.633.633 0 .35.283.633.633.633zm-3.471 0c.349 0 .632-.283.632-.633 0-.349-.283-.633-.632-.633-.35 0-.633.284-.633.633 0 .35.283.633.633.633zM2.334 4.644c-.057.95.694 1.765 1.674 1.823l.314.019c-.497.283-1.226.843-1.627 1.25C.645 9.806.503 12.062.493 13.945v1.596l.819-1.048c.091.384.32.975.512 1.32.203.357.523.333.69.258.148-.065.352-.243.132-.707-.234-.491-.482-1.328-.554-1.868l1.646-2.103-.867 2.605c2.047-1.49 5.533-2.17 8.306-1.356 1.202.353 2.371.024 2.979-.838.025-.035.042-.076.065-.114.053.274.097.722.098 1 0 .82-.13 1.86-.523 2.87-.088.227.062.51.303.553.26.056.539-.109.646-.392.337-.898.513-1.917.513-3.031 0-1.356-.457-2.723-1.263-3.9-.334-.514-1.384-1.844-3.067-2.59-.214-.096-.43-.181-.647-.257.114-.277.206-.744.206-1.043 0-1.099-.846-2.271-1.889-2.617-.436-.144-.82-.211-1.14-.203-.02-.07-.066-.387.331-1.23L6.984.374l-.193.266c-.305.424-.594.828-.855 1.226-.08-.018-.21-.038-.292-.044-1.46-.086-1.37-.081-1.443-.081-1.716 0-1.782 1.703-1.784 1.628l-.001-.01-.082 1.284z"/></g></svg>