<svg xmlns="http://www.w3.org/2000/svg" width="16" height="16" viewBox="0 0 16 16">
    <path fill="#000" fill-rule="nonzero" d="M5.54 1.594c.264-.404.56-.814.87-1.243l.197-.27.82.482c-.405.861-.359 1.18-.338 1.253.326-.01.716.06 1.16.207A2.781 2.781 0 0 1 9.9 3.485a2.784 2.784 0 0 1 .061 2.262l.056.02a7.348 7.348 0 0 1 2.902 1.855c1.339 1.376 2.106 3.194 2.106 4.987 0 1.253-.216 2.41-.634 3.391H13.34c.589-1.148.731-2.434.731-3.39 0-.338-.032-.677-.094-1.013a2.228 2.228 0 0 1-.072.11c-.618.878-1.808 1.212-3.032.853-2.822-.829-5.309-.48-7.392 1.035l-1.179.859 1.558-3.875-2.238 2.858A6.24 6.24 0 0 0 2.562 16H1.447a7.134 7.134 0 0 1-.604-1.567L0 15.509v-1.203c0-1.993 0-4.474 2.242-6.738a7.806 7.806 0 0 1 1.644-1.273l-.308-.018c-.998-.06-1.762-.889-1.704-1.855l.085-1.31c.059-.921.856-1.643 1.815-1.643.023 0 .513.028 1.47.085.1.005.199.02.295.04zM4.83 2.861l-1.03-.073h-.027a.442.442 0 0 0-.449.405l-.084 1.31a.44.44 0 0 0 .42.458l.798.045a3.278 3.278 0 0 1-.02-.62 3.746 3.746 0 0 1 .31-1.328c.026-.066.053-.132.082-.197zM7.52 6.492c-.213.11-.331.11-.709.084l1.028 1.215-.5.393a.218.218 0 0 0-.032.315l.105.124a.227.227 0 0 0 .313.03l.506-.397.417.495-1.022.804a.218.218 0 0 0-.033.314l.46.543a.24.24 0 0 0 .33.032l1.018-.8.286.34a.306.306 0 0 0 .302.1.305.305 0 0 0 .122-.058.283.283 0 0 0 .043-.408L7.52 6.492zm-.666 8.07a.646.646 0 1 1-1.292 0 .646.646 0 0 1 1.292 0zm4.039 0a.646.646 0 1 1-1.292 0 .646.646 0 0 1 1.292 0z"/>
</svg>
