<svg xmlns="http://www.w3.org/2000/svg" width="16" height="16" viewBox="0 0 16 16"><g fill="none" fill-rule="evenodd"><path fill="#000" d="M9.505 3c.828 0 1.5-.672 1.5-1.5S10.335 0 9.506 0c-.83 0-1.501.672-1.501 1.5S8.676 3 9.504 3zm-.75 13c.326 0 .627-.214.72-.544l1.042-3.264c.216-.758-.104-1.572-.779-1.98l-1.62-.978 1.31-3.275c.086.114.159.238.201.378l.437 1.435c.225.74.896 1.238 1.669 1.24l1.512.006h.003c.413 0 .749-.334.75-.748.002-.414-.333-.75-.748-.752l-1.513-.006c-.11 0-.206-.072-.237-.177L11.066 5.9c-.288-.943-1.064-1.664-2.026-1.882l-2.445-.553c-.804-.183-1.64.003-2.29.507L2.794 5.139c-.328.253-.389.724-.135 1.052.253.328.726.388 1.053.135l1.512-1.168c.295-.229.677-.31 1.04-.23l.465.105-1.103 2.73c-.323.8-.021 1.706.718 2.153l2.618 1.58c.067.041.121.137.121.215 0 .02-.004.05-.01.069l-1.04 3.264c-.114.399.117.814.515.928.069.019.138.028.207.028zm-4.663-3c.701 0 1.333-.416 1.61-1.06l.423-.988-.298-.18c-.372-.225-.664-.528-.885-.87l-.62 1.446c-.04.092-.13.152-.23.152H1.75c-.414 0-.75.336-.75.75s.336.75.75.75h2.342z"/></g></svg>