<svg height="16" viewBox="0 0 16 16" width="16" xmlns="http://www.w3.org/2000/svg"><path d="m10.269 4.136a1.869 1.869 0 1 1 1.217-3.534 1.869 1.869 0 0 1 -1.217 3.534zm4.52 3.684a.935.935 0 0 1 -.72 1.108l-2.49.528-1.027-2.104c-.004-.009-.014-.018-.019-.027l-1.915 2.501 2.387 1.74-1.138 3.304a.934.934 0 0 1 -1.767-.61l.688-1.998-2.402-1.752-1.53 1.644-3.226-1.11a.934.934 0 1 1 .609-1.767l2.076.715.005-.005h-.02l3.25-3.966c-.454-.055-.9-.085-1.221-.098l-1.525 1.163a.934.934 0 1 1 -1.132-1.487l2.041-1.555.32.003c1.164.01 2.321.17 3.444.476l.589.203c.919.316 1.69.96 2.166 1.807l.386.792 1.063-.225a.934.934 0 0 1 1.108.72z"/></svg>