<svg xmlns="http://www.w3.org/2000/svg" width="16" height="16" viewBox="0 0 16 16">
    <g fill="none" fill-rule="evenodd">
        <path fill="#000" d="M7.736 10.562l.137-.137c.266-.266.42-.603.463-.95.02-.16-.06-.316-.205-.386-.22-.107-.54-.334-.713-.507-1.024-1.024-1.022-2.69 0-3.712l2.35-2.35c1.028-1.028 2.688-1.024 3.712 0 1.028 1.028 1.024 2.688 0 3.712l-1.433 1.433c-.091.091-.13.224-.1.35.077.321.144.851.149 1.182.005.33.407.489.64.256.362-.361.957-.96 1.981-1.983 1.71-1.71 1.71-4.478 0-6.187-1.71-1.711-4.478-1.71-6.187 0l-.383.383C5.973 3.838 6.06 3.742 5.876 3.971 4.48 5.685 4.584 8.223 6.18 9.819c.338.34.72.61 1.125.814.144.072.317.042.43-.071zm-.266 4.155c2.567-2.567 2.46-2.446 2.654-2.688 1.395-1.714 1.292-4.252-.305-5.848-.338-.339-.72-.61-1.125-.814-.144-.072-.317-.042-.43.071l-.137.137c-.266.266-.42.603-.463.95-.02.16.06.316.205.386.22.107.54.334.713.507 1.024 1.024 1.022 2.69 0 3.712l-2.35 2.35c-1.028 1.028-2.688 1.024-3.712 0-1.028-1.028-1.024-2.688 0-3.712l1.433-1.433c.091-.091.13-.224.1-.35-.077-.321-.144-.85-.149-1.182-.005-.33-.407-.489-.64-.256-.362.361-.957.96-1.981 1.983-1.71 1.71-1.71 4.478 0 6.187 1.71 1.711 4.477 1.71 6.187 0z"/>
    </g>
</svg>
