<svg xmlns="http://www.w3.org/2000/svg" width="16" height="16" viewBox="0 0 16 16"><g fill="none" fill-rule="evenodd"><path fill="#000" d="M7.554 9.907l.124-.115c.24-.225.379-.509.417-.802.017-.134-.055-.266-.185-.325-.199-.09-.486-.282-.642-.428-.923-.864-.922-2.268 0-3.13l2.117-1.982c.926-.867 2.422-.863 3.345 0 .926.867.922 2.267 0 3.13l-1.291 1.209c-.083.077-.118.189-.09.295.069.271.129.718.133.997.005.278.367.412.577.216l1.785-1.673c1.542-1.442 1.54-3.776 0-5.217C12.304.639 9.81.64 8.27 2.082l-.346.323c-1.958 1.832-1.88 1.75-2.046 1.943-1.256 1.447-1.164 3.586.275 4.933.305.285.648.514 1.014.686.129.06.285.035.387-.06zm.176 4.011c2.314-2.165 2.216-2.063 2.392-2.266 1.256-1.447 1.164-3.586-.275-4.933-.305-.285-.648-.514-1.014-.686-.129-.06-.285-.035-.387.06l-.124.115c-.24.225-.379.509-.417.802-.017.134.055.266.185.325.199.09.486.282.642.428.923.864.922 2.268 0 3.13l-2.117 1.982c-.926.867-2.422.863-3.345 0-.926-.867-.922-2.267 0-3.13l1.291-1.209c.083-.077.118-.189.09-.295-.069-.271-.129-.718-.133-.997-.005-.278-.367-.412-.577-.216L2.156 8.701c-1.542 1.442-1.54 3.776 0 5.217 1.54 1.443 4.034 1.442 5.574 0z"/></g></svg>