<svg xmlns="http://www.w3.org/2000/svg" width="16" height="16" viewBox="0 0 16 16"><g fill="none" fill-rule="evenodd"><path fill="#000" d="M13.5 16c.828 0 1.5-.672 1.5-1.5v-7c0-.828-.672-1.5-1.5-1.5h-1V4.544c0-2.488-2-4.538-4.488-4.544C5.525-.006 3.5 2.016 3.5 4.5V6h-1C1.672 6 1 6.672 1 7.5v7c0 .828.672 1.5 1.5 1.5h11zM11 6H5V4.5c0-1.653 1.347-3 3-3s3 1.347 3 3V6zm2.5 8.5h-11v-7h11v7zM8 12.875c.484 0 .875-.39.875-.875v-2c0-.484-.39-.875-.875-.875-.484 0-.875.39-.875.875v2c0 .484.39.875.875.875z"/></g></svg>