<svg xmlns="http://www.w3.org/2000/svg" width="16" height="16" viewBox="0 0 16 16">
    <g fill="none" fill-rule="evenodd">
        <path fill="#000" d="M8 15.75c1.654 0 3.271-.534 4.597-1.51.172-.127.2-.373.065-.538l-.476-.581c-.126-.155-.351-.181-.513-.064C10.611 13.83 9.32 14.25 8 14.25c-3.446 0-6.25-2.804-6.25-6.25S4.554 1.75 8 1.75c3.42 0 6.25 2.032 6.25 5.5 0 1.972-1.327 3.072-2.594 3.072-.61 0-.63-.395-.512-.984l.895-4.642c.044-.231-.133-.446-.369-.446h-1.224c-.17 0-.336.136-.368.304-.035.18-.052.26-.071.438-.373-.611-1.122-.971-2.038-.971-2.237 0-4.219 1.952-4.219 4.777 0 1.911 1.027 3.19 2.912 3.19.931 0 1.917-.525 2.492-1.32.13.965.89 1.189 1.855 1.189 3.1 0 4.741-1.989 4.741-4.607 0-4.258-3.436-7-7.75-7C3.717.25.25 3.716.25 8c0 4.283 3.466 7.75 7.75 7.75zm-.81-5.458c-.89 0-1.42-.608-1.42-1.626 0-1.798 1.236-2.92 2.331-2.92.941 0 1.421.673 1.421 1.612 0 1.465-1.037 2.934-2.331 2.934z"/>
    </g>
</svg>
