<svg xmlns="http://www.w3.org/2000/svg" width="16" height="16" viewBox="0 0 16 16"><g fill="none" fill-rule="evenodd"><path fill="#000" d="M8 15.5c1.6 0 3.166-.517 4.448-1.461.167-.123.195-.36.064-.52l-.46-.563c-.123-.15-.34-.176-.497-.062-1.028.747-2.278 1.154-3.555 1.154-3.335 0-6.048-2.713-6.048-6.048S4.665 1.952 8 1.952c3.31 0 6.048 1.966 6.048 5.322 0 1.909-1.284 2.973-2.51 2.973-.59 0-.61-.382-.495-.952l.865-4.492c.043-.224-.128-.432-.356-.432h-1.185c-.165 0-.325.132-.356.294-.033.173-.05.252-.07.424-.36-.592-1.084-.94-1.97-.94-2.166 0-4.084 1.89-4.084 4.623 0 1.85.994 3.088 2.818 3.088.901 0 1.855-.509 2.412-1.277.125.933.862 1.15 1.795 1.15 3 0 4.588-1.925 4.588-4.459C15.5 3.154 12.175.5 8 .5 3.855.5.5 3.854.5 8c0 4.145 3.354 7.5 7.5 7.5zm-.783-5.282c-.861 0-1.375-.588-1.375-1.574 0-1.74 1.196-2.825 2.256-2.825.91 0 1.375.651 1.375 1.56 0 1.417-1.003 2.84-2.256 2.84z"/></g></svg>