<?xml version="1.0" encoding="UTF-8"?>
<svg width="24px" height="24px" viewBox="0 0 24 24" version="1.1" xmlns="http://www.w3.org/2000/svg" xmlns:xlink="http://www.w3.org/1999/xlink">
    <!-- Generator: sketchtool 54.1 (76490) - https://sketchapp.com -->
    <title>B87B3505-31F2-4BDA-8B16-F8440DCA6BC1</title>
    <desc>Created with sketchtool.</desc>
    <g id="Symbols" stroke="none" stroke-width="1" fill="none" fill-rule="evenodd">
        <g id="61-kb-iconfont-nav-chat-24">
            <g>
                <rect id="icon-area" opacity="0" x="0" y="0" width="24" height="24"></rect>
                <path d="M7.29023397,20.9984394 C8.63364543,21.0001974 9.37058404,21.0008996 10,21.0008996 C16.0753743,21.0008996 21,16.0755938 21,10 C21,9.77081494 20.9929923,9.54326774 20.9791795,9.31756094 C22.2419601,10.8669032 22.9991005,12.8447331 22.9991005,14.9995502 C22.9991005,16.6087652 22.6240068,18.1478187 21.8369397,19.4269152 C20.8169007,21.0847034 22.9613213,21.87267 22.9613213,22.8558293 C22.9613213,23.7337464 22.3928339,23.992804 21.0210884,23.992804 C19.3489081,23.992804 15.7958623,24 13.9995502,24 C11.3333427,24 8.93809762,22.8405809 7.29023397,20.9984394 Z M10,1 C14.9709145,1 19,5.02908546 19,10 C19,14.9709145 14.9709145,19.0008996 10,19.0008996 C8.2035982,19.0008996 4.65037481,18.9937031 2.97811094,18.9937031 C1.60629685,18.9937031 1.03778111,18.7346327 1.03778111,17.8566717 C1.03778111,16.8734633 3.18230885,16.0854573 2.16221889,14.4275862 C1.37511244,13.1484258 1,11.6092954 1,10 C1,5.02908546 5.02908546,1 10,1 Z M10,12.5 C10,11.6657972 9.3280543,11 8.49916726,11 L7.50083274,11 C6.67854548,11 6,11.6715729 6,12.5 C6,13.3342028 6.6719457,14 7.50083274,14 L8.49916726,14 C9.32145452,14 10,13.3284271 10,12.5 Z M7.5,7 C6.67157288,7 6,7.67157288 6,8.5 C6,9.32842712 6.67157288,10 7.5,10 L11.5,10 C12.3284271,10 13,9.32842712 13,8.5 C13,7.67157288 12.3284271,7 11.5,7 L7.5,7 Z" id="Combined-Shape" fill="#000000"></path>
            </g>
        </g>
    </g>
</svg>