<?xml version="1.0" encoding="UTF-8"?>
<svg width="24px" height="24px" viewBox="0 0 24 24" version="1.1" xmlns="http://www.w3.org/2000/svg" xmlns:xlink="http://www.w3.org/1999/xlink">
    <!-- Generator: sketchtool 54.1 (76490) - https://sketchapp.com -->
    <title>6053458D-52DB-45FE-B19D-2A296B685C5C</title>
    <desc>Created with sketchtool.</desc>
    <g id="Symbols" stroke="none" stroke-width="1" fill="none" fill-rule="evenodd">
        <g id="67-kb-iconfont-nav-people-24">
            <g>
                <rect id="icon-area" opacity="0" x="0" y="0" width="24" height="24"></rect>
                <path d="M12,1 C5.92486775,1 1,5.92486775 1,12 C1,18.0751322 5.92486775,23 12,23 C18.0751322,23 23,18.0751322 23,12 C23,5.92486775 18.0751322,1 12,1 Z M8.5,8 C9.32842712,8 10,8.67157288 10,9.5 C10,10.3284271 9.32842712,11 8.5,11 C7.67157288,11 7,10.3284271 7,9.5 C7.00003866,8.67158889 7.67158889,8.00003866 8.5,8 Z M17.69727,16.7168 C14.5090901,19.7610668 9.49090993,19.7610668 6.30273,16.7168 C6.01092677,16.4330556 5.92022886,16.0007547 6.07338548,15.6236564 C6.22654211,15.2465582 6.59298645,14.9999234 7,15 L17,15 C17.4070136,14.9999234 17.7734579,15.2465582 17.9266145,15.6236564 C18.0797711,16.0007547 17.9890732,16.4330556 17.69727,16.7168 L17.69727,16.7168 Z M15.5,11 C14.6715729,11 14,10.3284271 14,9.5 C14,8.67157288 14.6715729,8 15.5,8 C16.3284271,8 17,8.67157288 17,9.5 C16.9999613,10.3284111 16.3284111,10.9999613 15.5,11 L15.5,11 Z" id="happy" fill="#000000"></path>
            </g>
        </g>
    </g>
</svg>