<svg xmlns="http://www.w3.org/2000/svg" width="24" height="24" viewBox="0 0 24 24">
    <path fill="#000" fill-rule="evenodd" d="M21.333 14.053l-1.411-1.093a6.89 6.89 0 0 0 .07-.96 6.89 6.89 0 0 0-.07-.96l1.411-1.093c.677-.512.861-1.409.435-2.12l-1.02-1.67c-.436-.708-1.353-1.016-2.167-.726l-1.713.6a8.28 8.28 0 0 0-1.776-.967l-.293-1.67C14.654 2.581 13.9 1.99 13.023 2h-2.041c-.877-.011-1.631.581-1.776 1.394l-.293 1.67a8.28 8.28 0 0 0-1.776.968L5.424 5.43c-.814-.29-1.731.018-2.166.726l-1.021 1.67c-.432.705-.26 1.601.408 2.12l1.412 1.093c-.037.319-.052.64-.045.96.002.321.025.642.071.96l-1.411 1.093c-.677.512-.861 1.409-.435 2.12l1.02 1.67c.436.708 1.353 1.016 2.167.726l1.713-.6a8.28 8.28 0 0 0 1.776.967l.293 1.67c.145.813.899 1.405 1.776 1.394h2.041c.877.011 1.631-.581 1.776-1.394l.293-1.67a7.905 7.905 0 0 0 1.776-.96l1.713.602c.814.29 1.73-.018 2.166-.727l1.021-1.67c.431-.713.247-1.615-.435-2.128zm-9.33 1.286c-1.962 0-3.552-1.495-3.552-3.339 0-1.844 1.59-3.339 3.551-3.339 1.962 0 3.552 1.495 3.552 3.339 0 1.844-1.59 3.339-3.552 3.339z"/>
</svg>
