<svg xmlns="http://www.w3.org/2000/svg" width="24" height="24" viewBox="0 0 24 24">
    <path fill="#000" fill-rule="evenodd" d="M0 17.65v.18a2 2 0 0 0 .824 1.618l.667.485a.939.939 0 0 0 1.49-.76v-2.517a5.44 5.44 0 0 1 1.14-3.27C1.696 14.115 0 15.75 0 17.65zM16.253 6.334a4.334 4.334 0 1 0-8.668 0 4.334 4.334 0 0 0 8.668 0zm-10.428.851c0-.404.04-.807.121-1.203a3.208 3.208 0 0 0-1.05-.19 3.25 3.25 0 1 0 2.441 5.374 6.004 6.004 0 0 1-1.512-3.98zm14.054 6.2a5.44 5.44 0 0 1 1.14 3.27v2.518a.939.939 0 0 0 1.49.76l.667-.485A2 2 0 0 0 24 17.83v-.18c0-1.899-1.696-3.534-4.121-4.265zm2.607-4.342a3.254 3.254 0 0 0-3.25-3.25 3.208 3.208 0 0 0-1.05.189 6.007 6.007 0 0 1-1.391 5.184 3.237 3.237 0 0 0 5.69-2.123zm-10.559 3.25c-3.836 0-6.957 2.097-6.957 4.675v1.72a2 2 0 0 0 1.001 1.733 11.193 11.193 0 0 0 5.68 1.526c2.043 0 4.09-.52 6.14-1.562a2 2 0 0 0 1.094-1.783v-1.634c0-2.578-3.121-4.675-6.958-4.675z"/>
</svg>
