<svg height="24" viewBox="0 0 24 24" width="24" xmlns="http://www.w3.org/2000/svg"><path d="m23 14h-6a3 3 0 0 0 0 6h6v1.09a1.913 1.913 0 0 1 -1.917 1.91h-17.208a2.87 2.87 0 0 1 -2.875-2.864v-15.272a2.878 2.878 0 0 1 2.875-2.864h16.167c.529 0 .958.427.958.955 0 .527-.43 1.045-.958 1.045h-15.209c-.529 0-.958.336-.958.864 0 .527.43 1.136.958 1.136h16.25c1.059 0 1.917.673 1.917 1.727zm-6.247 2.992c0-.686.558-1.242 1.247-1.242s1.247.556 1.247 1.242-.558 1.242-1.247 1.242a1.245 1.245 0 0 1 -1.247-1.242z"/></svg>