<?xml version="1.0" encoding="UTF-8"?>
<svg width="16px" height="16px" viewBox="0 0 16 16" version="1.1" xmlns="http://www.w3.org/2000/svg" xmlns:xlink="http://www.w3.org/1999/xlink">
    <!-- Generator: sketchtool 54.1 (76490) - https://sketchapp.com -->
    <title>C46CDF71-11AE-4C61-8E8E-F5FF16519934</title>
    <desc>Created with sketchtool.</desc>
    <g id="Symbols" stroke="none" stroke-width="1" fill="none" fill-rule="evenodd">
        <g id="71-kb-iconfont-new-16">
            <g>
                <rect id="icon-area" opacity="0" x="0" y="0" width="16" height="16"></rect>
                <path d="M12.8,6.8 L9.2,6.8 L9.2,3.2 C9.2,2.5372583 8.6627417,2 8,2 C7.3372583,2 6.8,2.5372583 6.8,3.2 L6.8,6.8 L3.2,6.8 C2.5372583,6.8 2,7.3372583 2,8 C2,8.6627417 2.5372583,9.2 3.2,9.2 L6.8,9.2 L6.8,12.8 C6.8,13.4627417 7.3372583,14 8,14 C8.6627417,14 9.2,13.4627417 9.2,12.8 L9.2,9.2 L12.8,9.2 C13.4627417,9.2 14,8.6627417 14,8 C14,7.3372583 13.4627417,6.8 12.8,6.8 Z" id="Shape" fill="#000000"></path>
            </g>
        </g>
    </g>
</svg>