<svg xmlns="http://www.w3.org/2000/svg" width="16" height="16" viewBox="0 0 16 16">
    <path fill="#000" fill-rule="nonzero" d="M9.76 1a.7.7 0 0 0-.495 1.195l1.28 1.28-3.96 3.96a1.4 1.4 0 1 0 1.98 1.98l3.96-3.96 1.28 1.28A.7.7 0 0 0 15 6.24V1H9.76zm4.19 9.1c-.58 0-1.05.47-1.05 1.05v1.54a.21.21 0 0 1-.21.21H3.31a.21.21 0 0 1-.21-.21V3.31a.21.21 0 0 1 .21-.21h1.54a1.05 1.05 0 1 0 0-2.1H3.31A2.313 2.313 0 0 0 1 3.31v9.38A2.313 2.313 0 0 0 3.31 15h9.38A2.313 2.313 0 0 0 15 12.69v-1.54c0-.58-.47-1.05-1.05-1.05z"/>
</svg>
