<svg xmlns="http://www.w3.org/2000/svg" width="16" height="16" viewBox="0 0 16 16"><g fill="none" fill-rule="evenodd"><path fill="#000" d="M5.094 12c.086 0 .205-.049.266-.11l8.714-8.714.065.064-.085 2.3v.01c0 .22.159.405.369.443l.08.007h1.042c.248 0 .45-.202.45-.45L16 .45c0-.248-.202-.45-.45-.45l-5.1.005c-.248 0-.45.202-.45.45v1.041c0 .249.202.45.45.45h.01l2.3-.085.064.065L4.11 10.64c-.06.061-.11.18-.11.266 0 .086.05.205.11.266l.719.718c.06.061.18.11.265.11zm7.406 4c.828 0 1.5-.672 1.5-1.5v-5c0-.276-.224-.5-.5-.5H13c-.276 0-.5.224-.5.5v4.812c0 .104-.084.188-.188.188H1.687c-.103 0-.187-.084-.187-.188V3.688c0-.104.084-.188.187-.188H6.5c.276 0 .5-.224.5-.5v-.5c0-.276-.224-.5-.5-.5h-5C.672 2 0 2.672 0 3.5v11c0 .828.672 1.5 1.5 1.5h11z"/></g></svg>