<svg xmlns="http://www.w3.org/2000/svg" width="16" height="16" viewBox="0 0 16 16">
    <g fill="none" fill-rule="evenodd">
        <path fill="#000" d="M8.001 8.038c1.548 0 2.8-1.252 2.8-2.8 0-1.548-1.252-2.8-2.8-2.8-1.548 0-2.8 1.252-2.8 2.8 0 1.548 1.252 2.8 2.8 2.8zm5.601-.8c1.105 0 2-.895 2-2s-.895-2-2-2-2 .895-2 2 .895 2 2 2zm-11.202 0c1.106 0 2-.895 2-2s-.894-2-2-2c-1.105 0-2 .895-2 2s.895 2 2 2zm5.601-.4c-.882 0-1.6-.717-1.6-1.6 0-.883.718-1.6 1.6-1.6.883 0 1.6.717 1.6 1.6 0 .883-.717 1.6-1.6 1.6zm5.601-.8c-.44 0-.8-.36-.8-.8 0-.44.36-.8.8-.8.44 0 .8.36.8.8 0 .44-.36.8-.8.8zm-11.202 0c-.44 0-.8-.36-.8-.8 0-.44.36-.8.8-.8.44 0 .8.36.8.8 0 .44-.36.8-.8.8zm13 4.7c.33 0 .6-.27.6-.6.002-1.157-.94-2.1-2.098-2.1h-.6c-.432 0-.835.133-1.17.358.335.252.63.555.86.905.098-.035.2-.062.308-.062h.6c.495 0 .9.405.9.9 0 .33.27.6.6.6zm-14.8 0c.33 0 .6-.27.6-.6 0-.494.405-.9.9-.9h.6c.11 0 .213.028.308.063.232-.35.528-.653.863-.905-.335-.225-.738-.358-1.17-.358h-.6C.942 8.038 0 8.981 0 10.138c0 .33.27.6.6.6zm10.997 2.901c.662 0 1.2-.537 1.2-1.2v-1.12c.005-.595-.175-1.148-.485-1.608-.688-1.02-2.018-1.4-3.196-1.043-.355.108-.727.168-1.117.168s-.763-.06-1.118-.168c-1.178-.357-2.508.02-3.195 1.043-.31.46-.49 1.013-.49 1.608v1.12c0 .663.537 1.2 1.2 1.2h7.2zm.005-1.2H4.4v-1.12c0-.91.73-1.655 1.635-1.68.638.265 1.298.4 1.965.4.668 0 1.328-.135 1.966-.4.905.025 1.635.767 1.635 1.68v1.12z"/>
    </g>
</svg>
