<svg xmlns="http://www.w3.org/2000/svg" width="16" height="16" viewBox="0 0 16 16">
    <g fill="none" fill-rule="evenodd">
        <path fill="#000" d="M8.125 8.125c1.572 0 2.844-1.272 2.844-2.844 0-1.571-1.272-2.843-2.844-2.843-1.572 0-2.844 1.272-2.844 2.843 0 1.572 1.272 2.844 2.844 2.844zm-5.688-.812c.897 0 1.625-.73 1.625-1.625 0-.897-.728-1.625-1.625-1.625-.896 0-1.625.728-1.625 1.625 0 .896.73 1.625 1.625 1.625zm11.375 0c.897 0 1.625-.73 1.625-1.625 0-.897-.728-1.625-1.625-1.625-.896 0-1.625.728-1.625 1.625 0 .896.73 1.625 1.625 1.625zm1.625 4.062c.45 0 .813-.363.813-.812V9.75c0-.896-.729-1.625-1.625-1.625H13c-.447 0-.85.18-1.145.472 1.023.561 1.75 1.574 1.907 2.778h1.675zm-12.951 0c.16-1.204.886-2.217 1.91-2.778-.295-.292-.7-.472-1.146-.472H1.625C.729 8.125 0 8.854 0 9.75v.813c0 .449.363.812.812.812h1.674zm9.295 2.437c.673 0 1.219-.545 1.219-1.218v-.731c0-1.615-1.31-2.925-2.925-2.925h-.21c-.529.253-1.115.406-1.74.406s-1.209-.153-1.74-.406h-.21c-1.615 0-2.925 1.31-2.925 2.925v.73c0 .674.546 1.22 1.219 1.22h7.312z"/>
    </g>
</svg>
