<svg xmlns="http://www.w3.org/2000/svg" width="16" height="16" viewBox="0 0 16 16"><g fill="none" fill-rule="evenodd"><path fill="#000" d="M10.004 8.003c1.935 0 3.501-1.567 3.501-3.502C13.505 2.566 11.94 1 10.004 1 8.069 1 6.502 2.566 6.502 4.501c0 1.935 1.567 3.502 3.502 3.502zM3 7.003c1.382 0 2.501-1.12 2.501-2.502 0-1.381-1.12-2.5-2.5-2.5C1.618 2 .5 3.12.5 4.5c0 1.382 1.12 2.501 2.501 2.501zm7.003-.5c-1.104 0-2-.898-2-2.002 0-1.103.896-2 2-2 1.103 0 2 .897 2 2 0 1.104-.897 2.001-2 2.001zM3 5.501c-.55 0-1-.45-1-1S2.45 3.5 3 3.5s1 .45 1 1-.45 1-1 1zm-2.25 5.877c.412 0 .75-.338.75-.75 0-.62.506-1.126 1.125-1.126h.75c.138 0 .266.035.385.078.29-.437.66-.816 1.078-1.131-.419-.282-.922-.447-1.463-.447h-.75C1.179 8.003 0 9.18 0 10.629c0 .412.338.75.75.75zm13.748 3.626c.829 0 1.5-.672 1.5-1.5v-1.4c.007-.745-.218-1.436-.606-2.01-.86-1.276-2.522-1.752-3.995-1.305-.444.135-.91.21-1.397.21-.488 0-.954-.075-1.398-.21-1.472-.447-3.135.025-3.995 1.304-.388.575-.613 1.266-.613 2.01v1.4c0 .83.672 1.501 1.5 1.501H14.5zm.007-1.5H5.502v-1.4c0-1.139.913-2.07 2.045-2.102.797.332 1.622.5 2.457.5.835 0 1.66-.168 2.457-.5 1.132.032 2.045.96 2.045 2.101v1.4z"/></g></svg>