<svg xmlns="http://www.w3.org/2000/svg" width="16" height="16" viewBox="0 0 16 16"><g fill="none" fill-rule="evenodd"><path fill="#000" fill-rule="nonzero" d="M8 0h.027c-.18 0-.339.143-.364.335L6.067 6.622c-.03.232.145.438.371.438h1.855l-.72 3.13c-.056.244.125.474.364.474.131 0 .256-.07.325-.193l2.75-4.892c.145-.256-.035-.58-.324-.58H8.885l1.447-3.706c.097.154.178.319.243.491 1.012-.459 2.247-.275 3.081.56.835.834 1.019 2.069.56 3.081C15.259 5.815 16 6.822 16 8c0 1.178-.74 2.184-1.784 2.575.459 1.012.275 2.247-.56 3.081-.831.831-2.062 1.022-3.081.56C10.185 15.259 9.178 16 8 16c-1.178 0-2.184-.744-2.575-1.784-1.016.462-2.25.271-3.081-.56-.835-.831-1.019-2.069-.56-3.081C.741 10.185 0 9.178 0 8c0-1.178.74-2.184 1.784-2.575-.459-1.012-.275-2.247.56-3.081.831-.835 2.068-1.019 3.081-.56C5.815.741 6.822 0 8 0z"/></g></svg>