<svg xmlns="http://www.w3.org/2000/svg" width="16" height="16" viewBox="0 0 16 16">
    <path fill="#000" fill-rule="nonzero" d="M8.813.708H8.73l-4.143 6.54a.305.305 0 0 0 .298.464l2.975-.39-2.277 4.513a.305.305 0 0 0 .51.325l4.826-5.958a.381.381 0 0 0-.33-.623l-2.71.268 3.341-4.425 1.095.106 1.008 2.323 1.9 1.676L14.67 8l.551 2.473-1.899 1.677-1.008 2.322-2.521.243-.673.396L7.61 16l-1.509-.889-.673-.396-2.52-.243-1.009-2.323L0 10.473.552 8 0 5.527 1.9 3.85l1.008-2.323 2.52-.243L7.612 0l1.202.708z"/>
</svg>
