<svg xmlns="http://www.w3.org/2000/svg" width="16" height="16" viewBox="0 0 16 16">
    <g fill="none" fill-rule="evenodd">
        <path fill="#000" fill-rule="nonzero" d="M7.201.22L5.504 7.26c-.033.249.16.47.41.47h2.052l-.797 3.36c-.062.263.138.51.403.51.145 0 .283-.076.36-.207l3.04-5.253c.16-.275-.038-.622-.357-.622H8.62l1.605-4.383c.144.198.262.416.349.65 1.012-.46 2.247-.276 3.081.559.835.834 1.019 2.069.56 3.081C15.259 5.815 16 6.822 16 8c0 1.178-.74 2.184-1.784 2.575.459 1.012.275 2.247-.56 3.081-.831.831-2.062 1.022-3.081.56C10.185 15.259 9.178 16 8 16c-1.178 0-2.184-.744-2.575-1.784-1.016.462-2.25.271-3.081-.56-.835-.831-1.019-2.069-.56-3.081C.741 10.185 0 9.178 0 8c0-1.178.74-2.184 1.784-2.575-.459-1.012-.275-2.247.56-3.081.831-.835 2.068-1.019 3.081-.56C5.727.976 6.399.35 7.234.108 7.217.143 7.207.181 7.2.22z"/>
    </g>
</svg>
