<svg xmlns="http://www.w3.org/2000/svg" width="16" height="16" viewBox="0 0 16 16"><g fill="none" fill-rule="evenodd"><path fill="#000" d="M8 16c1.178 0 2.184-.74 2.575-1.784 1.019.462 2.25.271 3.081-.56.835-.834 1.019-2.069.56-3.081C15.259 10.185 16 9.178 16 8c0-1.178-.74-2.184-1.784-2.575.459-1.012.275-2.247-.56-3.081-.834-.835-2.069-1.019-3.081-.56C10.185.741 9.178 0 8 0 6.822 0 5.816.74 5.425 1.784c-1.013-.459-2.25-.275-3.081.56-.835.834-1.019 2.069-.56 3.081C.741 5.815 0 6.822 0 8c0 1.178.74 2.184 1.784 2.575-.459 1.012-.275 2.25.56 3.081.831.831 2.065 1.022 3.081.56C5.815 15.256 6.822 16 8 16zm-1.106-5.323L4.528 8.292c-.134-.134-.133-.352.002-.486l.813-.807c.135-.134.353-.133.486.002l1.318 1.328 3.037-3.013c.135-.134.353-.133.486.002l.807.813c.134.135.133.353-.002.486L7.38 10.68c-.135.134-.353.133-.486-.002z"/></g></svg>