<svg xmlns="http://www.w3.org/2000/svg" width="16" height="16" viewBox="0 0 16 16"><g fill="none" fill-rule="evenodd"><path fill="#000" d="M8 16c1.137 0 2.134-.587 2.71-1.46 1.034.213 2.146-.084 2.946-.884.803-.8 1.097-1.922.885-2.947C15.419 10.131 16 9.131 16 8c0-1.14-.588-2.137-1.46-2.71.213-1.027-.084-2.146-.884-2.946-.8-.803-1.922-1.097-2.947-.885C10.131.584 9.134 0 8 0 6.866 0 5.866.584 5.29 1.46c-1.027-.213-2.146.084-2.946.884-.803.8-1.097 1.922-.885 2.947C.581 5.869 0 6.869 0 8c0 1.134.584 2.134 1.46 2.71-.213 1.027.084 2.146.884 2.946.8.803 1.912 1.097 2.947.885C5.869 15.419 6.869 16 8 16zm0-1.5c-1.416 0-1.71-1.337-1.913-1.881-.659.3-1.715.944-2.684-.025-1-1-.262-2.153-.022-2.681C2.737 9.672 1.5 9.372 1.5 8c0-1.416 1.337-1.71 1.884-1.916-.284-.621-.947-1.712.022-2.68 1-1 2.153-.263 2.681-.023C6.328 2.738 6.628 1.5 8 1.5c1.416 0 1.71 1.338 1.912 1.888.622-.285 1.713-.947 2.682.021 1 1 .262 2.154.022 2.682.643.24 1.88.54 1.88 1.912 0 1.416-1.337 1.71-1.88 1.913.284.622.946 1.712-.022 2.68-.875.876-1.728.454-2.682.023-.24.644-.54 1.881-1.912 1.881z"/><path fill="#000" d="M10.331 10.656l.588-.81c.122-.168.087-.402-.082-.524L8.75 7.803V4.375c0-.206-.169-.375-.375-.375h-1C7.169 4 7 4.169 7 4.375v4.131c0 .119.056.231.153.303l2.653 1.928c.169.122.403.085.525-.08z"/></g></svg>