<svg xmlns="http://www.w3.org/2000/svg" width="16" height="16" viewBox="0 0 16 16">
    <path fill="#000" fill-rule="nonzero" d="M13.763 2.237a4.223 4.223 0 0 0-5.972 0 .95.95 0 0 0 0 1.345c.18.176.42.273.672.272a.955.955 0 0 0 .673-.272 2.382 2.382 0 0 1 3.282 0 2.321 2.321 0 0 1 0 3.282l-5.553 5.553a2.382 2.382 0 0 1-3.282 0 2.321 2.321 0 0 1 0-3.283L5.95 6.768a.684.684 0 1 1 .969.969l-1.69 1.69a.95.95 0 0 0-.001 1.346c.382.345.963.345 1.345 0l1.691-1.69a2.587 2.587 0 0 0-3.659-3.66L2.238 7.79a4.223 4.223 0 1 0 5.972 5.973l5.553-5.552a4.223 4.223 0 0 0 0-5.973z"/>
</svg>
