<svg xmlns="http://www.w3.org/2000/svg" width="16" height="16" viewBox="0 0 16 16"><g fill="none" fill-rule="evenodd"><path fill="#000" d="M8.674 14.638l6.12-6.125c.147-.146.147-.383 0-.53l-.53-.53c-.146-.147-.383-.147-.53 0l-6.121 6.125c-1.228 1.229-3.215 1.229-4.443 0-1.227-1.226-1.226-3.212 0-4.438l7.032-7.033c.81-.81 2.128-.81 2.939 0 .812.813.812 2.127 0 2.94l-5.921 5.92c-.397.398-1.043.398-1.44.001-.397-.398-.397-1.042 0-1.44l5.015-5.015c.147-.146.147-.383 0-.53l-.53-.53c-.146-.147-.384-.147-.53 0L4.72 8.468c-.984.984-.983 2.577 0 3.56.982.982 2.579.982 3.56 0l5.921-5.92c1.399-1.4 1.398-3.663 0-5.062-1.395-1.395-3.665-1.395-5.06 0L2.11 8.08c-1.813 1.813-1.813 4.748 0 6.56 1.813 1.815 4.75 1.815 6.564 0z"/></g></svg>