<svg xmlns="http://www.w3.org/2000/svg" width="16" height="16" viewBox="0 0 16 16">
    <path fill="#000" fill-rule="nonzero" d="M6.727 0C7.43 0 8 .57 8 1.273v4.454C8 6.43 7.43 7 6.727 7H2.273C1.57 7 1 6.43 1 5.727V1.273C1 .57 1.57 0 2.273 0h4.454zM5.5 2h-2a.5.5 0 0 0-.5.5v2a.5.5 0 0 0 .5.5h2a.5.5 0 0 0 .5-.5v-2a.5.5 0 0 0-.5-.5zM4 3h1v1H4V3zm2.727 5C7.43 8 8 8.57 8 9.273v4.454C8 14.43 7.43 15 6.727 15H2.273C1.57 15 1 14.43 1 13.727V9.273C1 8.57 1.57 8 2.273 8h4.454zM5.5 10h-2a.5.5 0 0 0-.5.5v2a.5.5 0 0 0 .5.5h2a.5.5 0 0 0 .5-.5v-2a.5.5 0 0 0-.5-.5zM4 11h1v1H4v-1zM14.727 0C15.43 0 16 .57 16 1.273v4.454C16 6.43 15.43 7 14.727 7h-4.454C9.57 7 9 6.43 9 5.727V1.273C9 .57 9.57 0 10.273 0h4.454zM13.5 2h-2a.5.5 0 0 0-.5.5v2a.5.5 0 0 0 .5.5h2a.5.5 0 0 0 .5-.5v-2a.5.5 0 0 0-.5-.5zM12 3h1v1h-1V3zM9 14h2v-2H9v2zm2-2h2v-2h-2v2zm-2-2h2V8H9v2zm4 0h2V8h-2v2zm0 4h2v-2h-2v2z"/>
</svg>
