<svg xmlns="http://www.w3.org/2000/svg" width="16" height="16" viewBox="0 0 16 16">
    <path fill="#000" fill-rule="evenodd" d="M2.273 0h4.454c.66 0 1.201.5 1.266 1.143l.007.13v4.454c0 .66-.5 1.201-1.143 1.266L6.727 7H2.273c-.66 0-1.201-.5-1.266-1.143L1 5.727V1.273C1 .613 1.5.072 2.143.007L2.273 0h4.454zM5.5 2h-2a.5.5 0 0 0-.5.5v2a.5.5 0 0 0 .5.5h2a.5.5 0 0 0 .5-.5v-2a.5.5 0 0 0-.5-.5zM5 3v1H4V3h1zM2.273 8h4.454c.66 0 1.201.5 1.266 1.143l.007.13v4.454c0 .66-.5 1.201-1.143 1.266l-.13.007H2.273c-.66 0-1.201-.5-1.266-1.143L1 13.727V9.273c0-.66.5-1.201 1.143-1.266L2.273 8h4.454zM5.5 10h-2a.5.5 0 0 0-.5.5v2a.5.5 0 0 0 .5.5h2a.5.5 0 0 0 .5-.5v-2a.5.5 0 0 0-.5-.5zM5 11v1H4v-1h1zm5.273-11h4.454c.66 0 1.201.5 1.266 1.143l.007.13v4.454c0 .66-.5 1.201-1.143 1.266l-.13.007h-4.454c-.66 0-1.201-.5-1.266-1.143L9 5.727V1.273c0-.66.5-1.201 1.143-1.266l.13-.007h4.454zM13.5 2h-2a.5.5 0 0 0-.5.5v2a.5.5 0 0 0 .5.5h2a.5.5 0 0 0 .5-.5v-2a.5.5 0 0 0-.5-.5zM13 3v1h-1V3h1zM9 14h2v-2H9v2zm2-2h2v-2h-2v2zm-2-2h2V8H9v2zm4 0h2V8h-2v2zm0 4h2v-2h-2v2z"/>
</svg>
