<?xml version="1.0" encoding="UTF-8"?>
<svg width="16px" height="16px" viewBox="0 0 16 16" version="1.1" xmlns="http://www.w3.org/2000/svg" xmlns:xlink="http://www.w3.org/1999/xlink">
    <!-- Generator: sketchtool 57.1 (101010) - https://sketch.com -->
    <title>62D98465-C9CD-4661-9281-63136A7CA278</title>
    <desc>Created with sketchtool.</desc>
    <g id="Symbols" stroke="none" stroke-width="1" fill="none" fill-rule="evenodd">
        <g id="80-kb-iconfont-qr-code-16">
            <g>
                <rect id="icon-area" opacity="0" x="0" y="0" width="16" height="16"></rect>
                <path d="M2.27272727,0 L6.72727273,0 C7.3862352,0 7.92825099,0.500830634 7.99342889,1.1426007 L8,1.27272727 L8,5.72727273 C8,6.3862352 7.49916937,6.92825099 6.8573993,6.99342889 L6.72727273,7 L2.27272727,7 C1.6137648,7 1.07174901,6.49916937 1.00657111,5.8573993 L1,5.72727273 L1,1.27272727 C1,0.613764798 1.50083063,0.0717490088 2.1426007,0.00657110736 L2.27272727,0 L6.72727273,0 Z M5.5,2 L3.5,2 C3.22385763,2 3,2.22385763 3,2.5 L3,4.5 C3,4.77614237 3.22385763,5 3.5,5 L5.5,5 C5.77614237,5 6,4.77614237 6,4.5 L6,2.5 C6,2.22385763 5.77614237,2 5.5,2 Z M5,3 L5,4 L4,4 L4,3 L5,3 Z M2.27272727,8 L6.72727273,8 C7.3862352,8 7.92825099,8.50083063 7.99342889,9.1426007 L8,9.27272727 L8,13.7272727 C8,14.3862352 7.49916937,14.928251 6.8573993,14.9934289 L6.72727273,15 L2.27272727,15 C1.6137648,15 1.07174901,14.4991694 1.00657111,13.8573993 L1,13.7272727 L1,9.27272727 C1,8.6137648 1.50083063,8.07174901 2.1426007,8.00657111 L2.27272727,8 L6.72727273,8 Z M5.5,10 L3.5,10 C3.22385763,10 3,10.2238576 3,10.5 L3,12.5 C3,12.7761424 3.22385763,13 3.5,13 L5.5,13 C5.77614237,13 6,12.7761424 6,12.5 L6,10.5 C6,10.2238576 5.77614237,10 5.5,10 Z M5,11 L5,12 L4,12 L4,11 L5,11 Z M10.2727273,0 L14.7272727,0 C15.3862352,0 15.928251,0.500830634 15.9934289,1.1426007 L16,1.27272727 L16,5.72727273 C16,6.3862352 15.4991694,6.92825099 14.8573993,6.99342889 L14.7272727,7 L10.2727273,7 C9.6137648,7 9.07174901,6.49916937 9.00657111,5.8573993 L9,5.72727273 L9,1.27272727 C9,0.613764798 9.50083063,0.0717490088 10.1426007,0.00657110736 L10.2727273,0 L14.7272727,0 Z M13.5,2 L11.5,2 C11.2238576,2 11,2.22385763 11,2.5 L11,4.5 C11,4.77614237 11.2238576,5 11.5,5 L13.5,5 C13.7761424,5 14,4.77614237 14,4.5 L14,2.5 C14,2.22385763 13.7761424,2 13.5,2 Z M13,3 L13,4 L12,4 L12,3 L13,3 Z M9,14 L11,14 L11,12 L9,12 L9,14 Z M11,12 L13,12 L13,10 L11,10 L11,12 Z M9,10 L11,10 L11,8 L9,8 L9,10 Z M13,10 L15,10 L15,8 L13,8 L13,10 Z M13,14 L15,14 L15,12 L13,12 L13,14 Z" id="qr-code" fill="#000000"></path>
            </g>
        </g>
    </g>
</svg>