<svg xmlns="http://www.w3.org/2000/svg" width="16" height="16" viewBox="0 0 16 16">
    <path fill="#000" fill-rule="nonzero" d="M8 0a8 8 0 1 1 0 16A8 8 0 0 1 8 0zm0 14A6 6 0 1 0 8 2a6 6 0 0 0 0 12zm-.185-1.927a1.123 1.123 0 0 1-.867-.756.808.808 0 0 1-.048-.338c0-.173.006-.219.048-.339.121-.352.362-.593.714-.714a.808.808 0 0 1 .339-.048c.173 0 .219.006.339.048.352.12.593.362.714.714.041.12.048.166.048.339a.808.808 0 0 1-.048.338c-.12.35-.365.596-.71.712-.15.05-.383.07-.529.044zm-.752-4.014a.705.705 0 0 1 .012-.022c.148-.253.42-.52.814-.805.38-.267.63-.484.751-.651a.931.931 0 0 0 .182-.56.603.603 0 0 0-.26-.528c-.174-.12-.416-.181-.727-.181-.273 0-.693.1-1.258.298a.73.73 0 0 1-.893-.36.588.588 0 0 1 .328-.82C6.822 4.143 7.47 4 7.954 4c.745 0 1.337.176 1.777.528.44.352.659.821.659 1.408 0 .39-.09.729-.271 1.013-.181.284-.525.604-1.031.96-.347.252-.567.444-.66.576a.919.919 0 0 1-.857.48.615.615 0 0 1-.508-.906z"/>
</svg>
