<svg xmlns="http://www.w3.org/2000/svg" width="16" height="16" viewBox="0 0 16 16"><g fill="none" fill-rule="evenodd"><path fill="#000" d="M8 15.75c4.28 0 7.75-3.469 7.75-7.75C15.75 3.721 12.28.25 8 .25 3.72.25.25 3.721.25 8c0 4.281 3.47 7.75 7.75 7.75zm0-1.5c-3.454 0-6.25-2.795-6.25-6.25 0-3.453 2.796-6.25 6.25-6.25 3.453 0 6.25 2.796 6.25 6.25S11.455 14.25 8 14.25zm.713-4.5c.207 0 .375-.168.375-.375v-.198c0-.774 2.263-.807 2.263-2.902 0-1.578-1.636-2.775-3.17-2.775-1.464 0-2.405.61-3.143 1.693-.113.166-.077.39.083.512l.87.659c.162.123.393.094.52-.066.47-.594.805-.937 1.53-.937.555 0 1.243.358 1.243.897 0 .407-.337.616-.885.924-.64.359-1.487.805-1.487 1.922v.271c0 .207.168.375.375.375h1.426zM8 12.813c.724 0 1.312-.59 1.312-1.313 0-.724-.588-1.312-1.312-1.312-.724 0-1.313.588-1.313 1.312 0 .724.59 1.313 1.313 1.313z"/></g></svg>