<svg height="16" viewBox="0 0 16 16" width="16" xmlns="http://www.w3.org/2000/svg"><g fill-rule="evenodd"><path d="m8 0a8 8 0 1 1 0 16 8 8 0 0 1 0-16zm0 14a6 6 0 1 0 0-12 6 6 0 0 0 0 12z"/><path d="m7.815 12.073a1.123 1.123 0 0 1 -.867-.756.808.808 0 0 1 -.048-.338c0-.173.006-.219.048-.339.121-.352.362-.593.714-.714a.808.808 0 0 1 .339-.048c.173 0 .219.006.339.048.352.12.593.362.714.714.041.12.048.166.048.339a.808.808 0 0 1 -.048.338c-.12.35-.365.596-.71.712-.15.05-.383.07-.529.044zm-.752-4.013a.705.705 0 0 1 .012-.023c.148-.253.42-.52.814-.805.38-.267.63-.484.751-.651a.931.931 0 0 0 .182-.56.603.603 0 0 0 -.26-.528c-.174-.12-.416-.181-.727-.181-.273 0-.693.1-1.258.298a.73.73 0 0 1 -.893-.36.588.588 0 0 1 .328-.82c.81-.287 1.458-.43 1.942-.43.745 0 1.337.176 1.777.528s.659.821.659 1.408c0 .39-.09.729-.271 1.013s-.525.604-1.031.96c-.347.252-.567.444-.66.576a.919.919 0 0 1 -.857.48.615.615 0 0 1 -.508-.906z"/></g></svg>