<svg xmlns="http://www.w3.org/2000/svg" width="16" height="16" viewBox="0 0 16 16"><g fill="none" fill-rule="evenodd"><path fill="#000" d="M13.25 9.5c.275 0 .5.225.5.5v1.75h1.75c.275 0 .5.225.5.5v.5c0 .275-.225.5-.5.5h-1.75V15c0 .275-.225.5-.5.5h-.5c-.275 0-.5-.225-.5-.5v-1.75H10.5c-.275 0-.5-.225-.5-.5v-.5c0-.275.225-.5.5-.5h1.75V10c0-.275.225-.5.5-.5zM7.625.5c3.518 0 6.525 2.48 7.224 5.883.083.406-.178.802-.584.886-.405.083-.802-.178-.885-.584C12.823 3.975 10.427 2 7.625 2 4.379 2 1.75 4.63 1.75 7.875c0 3.246 2.63 5.875 5.875 5.875.414 0 .75.336.75.75s-.336.75-.75.75C3.551 15.25.25 11.949.25 7.875S3.551.5 7.625.5zM4.973 9.688c.915.99 2.142 1.358 3.384 1.295.479-.024.924.393.77.858-.146.44-.507.555-.862.57-1.544.07-3.103-.485-4.256-1.74-.253-.282-.243-.73.023-1s.687-.263.941.017zM5.25 5.5c.553 0 1 .447 1 1 0 .553-.447 1-1 1-.553 0-1-.447-1-1 0-.553.447-1 1-1zm5 0c.553 0 1 .447 1 1 0 .553-.447 1-1 1-.553 0-1-.447-1-1 0-.553.447-1 1-1z"/></g></svg>