<svg xmlns="http://www.w3.org/2000/svg" width="16" height="16" viewBox="0 0 16 16">
    <g fill="none" fill-rule="evenodd">
        <path fill="#000" d="M14 8c0-3.314-2.686-6-6-6S2 4.686 2 8s2.686 6 6 6c.528 0 1.028.44 1.013 1.003-.016.562-.436.993-1.013.997-4.418.032-8-3.582-8-8s3.582-8 8-8 8 3.582 8 8c0 .554-.353 1.006-.971 1C14.41 8.994 14 8.558 14 8zm-9.8 2.718c-.262-.273-.267-.72-.011-1s.677-.287.94-.016c.95.958 2.188 1.283 3.428 1.177.478-.041.937.36.8.83-.13.445-.488.572-.842.6-1.54.124-3.118-.377-4.315-1.591zM6 6c.552 0 1 .448 1 1s-.448 1-1 1-1-.448-1-1 .448-1 1-1zm7 4c.552 0 1 .448 1 1v1h1c.552 0 1 .448 1 1s-.448 1-1 1h-1v1c0 .552-.448 1-1 1s-1-.448-1-1v-1h-1c-.552 0-1-.448-1-1s.448-1 1-1h1v-1c0-.552.448-1 1-1zm-3-4c.552 0 .999.447.999.999 0 .551-.447.998-.999.998S9.001 7.55 9.001 7c0-.552.447-.999.999-.999z"/>
    </g>
</svg>
