<svg xmlns="http://www.w3.org/2000/svg" width="16" height="16" viewBox="0 0 16 16">
    <path fill="#000" fill-rule="nonzero" d="M13.619 5.891l-.935.968.27 1.67a.38.38 0 0 1-.543.42l-1.414-.789-1.412.782a.38.38 0 0 1-.544-.421l.268-1.672-1.206-1.252a.363.363 0 0 1 .185-.606l1.665-.25.716-1.518a.366.366 0 0 1 .673 0l.709 1.52 1.091.164A5.997 5.997 0 0 0 8 2a5.997 5.997 0 0 0-5.144 2.91l1.094-.166.716-1.52a.366.366 0 0 1 .674 0l.708 1.523 1.665.25a.363.363 0 0 1 .185.607L6.682 6.866l.27 1.673a.382.382 0 0 1-.543.421l-1.415-.79-1.412.782a.38.38 0 0 1-.543-.42l.268-1.676-.927-.963a6 6 0 0 0 6.823 7.986A2 2 0 0 0 11 15c0 .138.014.272.04.402a8 8 0 1 1 4.362-4.362A2.01 2.01 0 0 0 15 11a2 2 0 0 0-1.12-1.797 6.027 6.027 0 0 0-.261-3.312zm-2.357 4.12A1.99 1.99 0 0 0 11 11a2 2 0 0 0-1.998 1.905C8.682 12.967 8.346 13 8 13c-2.21 0-4-1.343-4-3 0 .028 5.28.024 7.262.01zM14 12h1a1 1 0 0 1 0 2h-1v1a1 1 0 0 1-2 0v-1h-1a1 1 0 0 1 0-2h1v-1a1 1 0 0 1 2 0v1z"/>
</svg>
