<svg xmlns="http://www.w3.org/2000/svg" width="16" height="16" viewBox="0 0 16 16">
    <g fill="#000" fill-rule="evenodd">
        <path d="M15.402 11.04A2.01 2.01 0 0 0 15 11a2 2 0 0 0-1.12-1.797 6 6 0 1 0-4.676 4.676A2 2 0 0 0 11 15c0 .138.014.272.04.402a8 8 0 1 1 4.362-4.362z"/>
        <path fill-rule="nonzero" d="M7.898 5.604a.364.364 0 0 0-.185-.606l-1.665-.251-.708-1.522a.366.366 0 0 0-.674 0l-.716 1.52-1.665.25a.363.363 0 0 0-.185.607l1.207 1.254-.268 1.675a.382.382 0 0 0 .543.421l1.412-.782 1.415.79a.38.38 0 0 0 .543-.421l-.27-1.673 1.216-1.262z"/>
        <path d="M11.262 10.01A1.99 1.99 0 0 0 11 11a2 2 0 0 0-1.998 1.905C8.682 12.967 8.346 13 8 13c-2.21 0-4-1.343-4-3 0 .028 5.28.024 7.262.01z"/>
        <path fill-rule="nonzero" d="M13.9 5.6a.363.363 0 0 0-.184-.607l-1.665-.25-.709-1.52a.366.366 0 0 0-.673 0l-.716 1.518-1.665.25a.363.363 0 0 0-.185.606l1.206 1.252-.268 1.672a.38.38 0 0 0 .544.42l1.412-.78 1.414.788a.38.38 0 0 0 .543-.42l-.27-1.67 1.217-1.26zM14 12v-1a1 1 0 0 0-2 0v1h-1a1 1 0 0 0 0 2h1v1a1 1 0 0 0 2 0v-1h1a1 1 0 0 0 0-2h-1z"/>
    </g>
</svg>
