<svg xmlns="http://www.w3.org/2000/svg" width="16" height="16" viewBox="0 0 16 16">
    <g fill="#000" fill-rule="evenodd">
        <path d="M14 8a6 6 0 1 0-6 6c.528 0 1.028.44 1.013 1.003A.999.999 0 0 1 8 16c-4.418.032-8-3.582-8-8a8 8 0 1 1 16 0c0 .554-.353 1.006-.971 1C14.41 8.994 14 8.558 14 8zm-9.8 2.718a.74.74 0 0 1-.011-1 .64.64 0 0 1 .94-.016c.95.958 2.188 1.283 3.428 1.177.478-.041.937.36.8.83-.13.445-.488.572-.842.6-1.54.124-3.118-.377-4.315-1.591zM6 6a1 1 0 1 1 0 2 1 1 0 0 1 0-2zm4 1.997A.999.999 0 1 1 10 6a.999.999 0 0 1 0 1.997z"/>
        <path fill-rule="nonzero" d="M14 12v-1a1 1 0 0 0-2 0v1h-1a1 1 0 0 0 0 2h1v1a1 1 0 0 0 2 0v-1h1a1 1 0 0 0 0-2h-1z"/>
    </g>
</svg>
