<svg height="16" viewBox="0 0 16 16" width="16" xmlns="http://www.w3.org/2000/svg"><g fill-rule="evenodd"><path d="m15.402 11.04a2.01 2.01 0 0 0 -.402-.04 2 2 0 0 0 -1.12-1.797 6 6 0 1 0 -4.676 4.676 2 2 0 0 0 1.796 1.121c0 .138.014.272.04.402a8 8 0 1 1 4.362-4.362z"/><path d="m7.898 5.604a.364.364 0 0 0 -.185-.606l-1.665-.251-.708-1.522a.366.366 0 0 0 -.674 0l-.716 1.52-1.665.25a.363.363 0 0 0 -.185.607l1.207 1.254-.268 1.675a.382.382 0 0 0 .543.421l1.412-.782 1.415.79a.38.38 0 0 0 .543-.421l-.27-1.673z" fill-rule="nonzero"/><path d="m11.262 10.01a1.99 1.99 0 0 0 -.262.99 2 2 0 0 0 -1.998 1.905c-.32.062-.656.095-1.002.095-2.21 0-4-1.343-4-3 0 .028 5.28.024 7.262.01z"/><path d="m13.9 5.6a.363.363 0 0 0 -.184-.607l-1.665-.25-.709-1.52a.366.366 0 0 0 -.673 0l-.716 1.518-1.665.25a.363.363 0 0 0 -.185.606l1.206 1.252-.268 1.672a.38.38 0 0 0 .544.42l1.412-.78 1.414.788a.38.38 0 0 0 .543-.42l-.27-1.67 1.217-1.26zm.1 6.4v-1a1 1 0 0 0 -2 0v1h-1a1 1 0 0 0 0 2h1v1a1 1 0 0 0 2 0v-1h1a1 1 0 0 0 0-2z" fill-rule="nonzero"/></g></svg>