<svg xmlns="http://www.w3.org/2000/svg" width="16" height="16" viewBox="0 0 16 16">
    <path fill="#000" fill-rule="nonzero" d="M6.652 6.656a.667.667 0 1 0 0 1.335.667.667 0 0 0 0-1.335zm8.345 4.241a2 2 0 0 0-3.673-.99V8.272h.127c1.035 0 1.876-.42 1.876-.921 0-.5-.841-.908-1.876-.908h-.253a3.337 3.337 0 0 0-6.421 0h-.254c-1.035 0-1.876.4-1.876.908 0 .507.841.914 1.876.914h.127v1.729a2.67 2.67 0 0 0 2.67 2.67h1.335c.128 0 .254-.01.378-.027A2 2 0 0 0 11 15c0 .364.097.706.268 1H8.655v-2.002H7.32V16H4.65v-2.11a2.002 2.002 0 0 1-.668-.193 1.922 1.922 0 0 1-.914-1.168 1.829 1.829 0 0 1-.047-.6h-.2a2.05 2.05 0 0 1-1.729-.908 1.755 1.755 0 0 1-.22-1.422c.055-.198.143-.385.26-.554a1.876 1.876 0 0 1 0-3.444 1.835 1.835 0 0 1-.26-.554 1.755 1.755 0 0 1 .22-1.422 2.062 2.062 0 0 1 1.93-.9 1.749 1.749 0 0 1 .046-.588c.144-.513.494-.943.968-1.188a2.13 2.13 0 0 1 2.189.154 2.002 2.002 0 0 1 3.578 0 2.13 2.13 0 0 1 2.189-.154c.463.25.803.68.94 1.188.05.192.065.39.048.587.76-.08 1.502.267 1.929.901.273.421.353.939.22 1.422a1.835 1.835 0 0 1-.26.554c.683.3 1.125.976 1.128 1.722a1.889 1.889 0 0 1-1.102 1.702c.117.169.205.356.26.554.123.445.065.918-.158 1.318zM9.322 6.656a.667.667 0 1 1 0 1.335.667.667 0 0 1 0-1.335zM14 12h1a1 1 0 0 1 0 2h-1v1a1 1 0 0 1-2 0v-1h-1a1 1 0 0 1 0-2h1v-1a1 1 0 0 1 2 0v1z"/>
</svg>
