<svg height="16" viewBox="0 0 16 16" width="16" xmlns="http://www.w3.org/2000/svg"><g><path d="m1.534 3.244a.668.668 0 0 0 .912-.243 3.344 3.344 0 0 1 2.887-1.668.667.667 0 1 0 0-1.333 4.683 4.683 0 0 0 -4.042 2.333.668.668 0 0 0 .243.911zm12.747 6.22a2 2 0 0 0 -4.848 4.778 4.338 4.338 0 0 1 -5.446-.252l-2.309-2.053a5.004 5.004 0 0 1 -1.678-3.736v-2.534a1 1 0 0 1 2 0v1.583l5.958-5.958a1 1 0 0 1 1.414 1.414l-2.666 2.666.53.53 3.998-3.998a1 1 0 0 1 1.414 1.414l-3.998 3.998.53.531 3-3a1 1 0 0 1 1.414 1.414l-3 3 .531.53 1.833-1.833a1 1 0 1 1 1.414 1.414z"/><path d="m14 12v-1a1 1 0 0 0 -2 0v1h-1a1 1 0 0 0 0 2h1v1a1 1 0 0 0 2 0v-1h1a1 1 0 0 0 0-2z"/></g></svg>