<svg xmlns="http://www.w3.org/2000/svg" width="16" height="16" viewBox="0 0 16 16">
    <path fill="#000" fill-rule="nonzero" d="M10.606 12.35l2.562-2.562a1.66 1.66 0 1 1 2.346 2.346l-3.096 3.096c-.081.082-.17.153-.262.214-.33.334-.788.542-1.295.542H4.688c-.253 0-.494-.052-.713-.146a3 3 0 0 1-2.44-1.572L.145 11.685a1.202 1.202 0 0 1 .426-1.592L2.256 9.05a3.608 3.608 0 0 1 3.983.102h2.897a1.383 1.383 0 1 1 0 2.766h-.918l.233.432h2.155zm1.977-8.326a.45.45 0 0 1 .316.77l-2.383 2.383-2.383-2.383a.45.45 0 0 1 .316-.77h1.166V1.901a.9.9 0 1 1 1.802 0v2.123h1.166z"/>
</svg>
