<svg xmlns="http://www.w3.org/2000/svg" width="16" height="16" viewBox="0 0 16 16"><g fill="none" fill-rule="evenodd"><path fill="#000" d="M5.375 1.75c.24 0 .437.197.437.438V3.5h.077c.864 0 1.684.282 2.36.804.208.161.227.473.04.659l-.625.626c-.15.15-.386.17-.56.047-.354-.25-.78-.386-1.215-.386H3.871c-.675 0-1.214.602-1.107 1.296.068.446.418.793.85.916l3.18.908c1.444.413 2.376 1.917 1.996 3.453C8.468 13.13 7.226 14 5.88 14h-.068v1.312c0 .241-.196.438-.437.438H4.5c-.24 0-.438-.197-.438-.438V14h-.076c-.867 0-1.687-.282-2.36-.804-.208-.161-.227-.473-.04-.659l.625-.626c.15-.15.386-.17.56-.047.354.25.78.386 1.215.386h2.018c.675 0 1.214-.602 1.107-1.296-.068-.446-.418-.793-.85-.916L3.08 9.13C1.637 8.717.705 7.213 1.085 5.677 1.407 4.37 2.649 3.5 3.995 3.5h.067V2.188c0-.241.197-.438.438-.438zm6.984-.875c.26 0 .47.21.47.469v5.783l1.28-1.28c.183-.183.48-.183.663 0l.331.331c.183.183.183.48 0 .663l-2.647 2.647c-.183.183-.48.183-.662 0L9.147 6.84c-.183-.183-.183-.48 0-.663l.331-.331c.183-.183.48-.183.663 0l1.28 1.28V1.344c0-.26.21-.469.47-.469z"/></g></svg>