<svg height="16" viewBox="0 0 16 16" width="16" xmlns="http://www.w3.org/2000/svg"><path d="m10.606 12.35 2.562-2.562a1.66 1.66 0 1 1 2.346 2.346l-3.096 3.096c-.081.082-.17.153-.262.214-.33.334-.788.542-1.295.542h-6.173c-.253 0-.494-.052-.713-.146a3 3 0 0 1 -2.44-1.572l-1.39-2.583a1.202 1.202 0 0 1 .426-1.592l1.685-1.043a3.608 3.608 0 0 1 3.983.102h2.897a1.383 1.383 0 1 1 0 2.766h-.918l.233.432zm1.977-9.326h-1.166v-2.123a.9.9 0 1 0 -1.802 0v2.123h-1.165a.45.45 0 0 0 -.316.77l2.383 2.383 2.383-2.383a.45.45 0 0 0 -.316-.77z" fill-rule="evenodd"/></svg>