<svg height="16" viewBox="0 0 16 16" width="16" xmlns="http://www.w3.org/2000/svg"><path d="m12.874 9.027h-.036a1.04 1.04 0 0 0 -.952.65 4.112 4.112 0 0 1 -6.638 1.304l1.04-1.04a.52.52 0 0 0 -.375-.914h-4.158v4.159a.52.52 0 0 0 .93.384l1.092-1.091a6.197 6.197 0 0 0 10.038-1.997 1.04 1.04 0 0 0 -.94-1.455zm.427-6.597-1.092 1.09a6.197 6.197 0 0 0 -10.039 1.998 1.04 1.04 0 0 0 .941 1.43h.037a1.04 1.04 0 0 0 .951-.65 4.112 4.112 0 0 1 6.639-1.305l-1.04 1.04a.52.52 0 0 0 .385.93h4.148v-4.133a.52.52 0 0 0 -.93-.4z"/></svg>