<svg xmlns="http://www.w3.org/2000/svg" width="16" height="16" viewBox="0 0 16 16"><g fill="none" fill-rule="evenodd"><path fill="#000" d="M2.139 8c.18 0 .328-.14.338-.319C2.642 4.772 5.049 2.468 8 2.468c1.529 0 2.912.619 3.912 1.62l-1.527 1.527c-.214.214-.063.579.24.579h4.036c.187 0 .339-.152.339-.34V1.819c0-.302-.365-.453-.578-.24l-1.473 1.473C11.683 1.784 9.933 1 8 1 4.252 1 1.193 3.945 1.009 7.647c-.01.192.146.353.338.353h.792zM8 15c3.748 0 6.807-2.945 6.991-6.647.01-.192-.146-.353-.338-.353h-.792c-.18 0-.328.14-.338.319-.165 2.909-2.572 5.213-5.523 5.213-1.529 0-2.912-.619-3.912-1.62l1.527-1.527c.214-.214.063-.579-.24-.579H1.34c-.187 0-.339.152-.339.34v4.036c0 .302.365.453.578.24l1.473-1.473C4.317 14.216 6.067 15 8 15z"/></g></svg>