<svg xmlns="http://www.w3.org/2000/svg" width="16" height="16" viewBox="0 0 16 16">
    <g fill="none" fill-rule="evenodd">
        <path fill="#000" d="M1.51 8c.2 0 .364-.155.375-.353C2.068 4.427 4.733 1.875 8 1.875c1.693 0 3.224.685 4.332 1.793L10.64 5.36c-.236.236-.069.64.265.64h4.47c.207 0 .375-.168.375-.375v-4.47c0-.334-.404-.501-.64-.265l-1.63 1.63C12.077 1.118 10.14.25 8 .25 3.85.25.463 3.51.26 7.61.25 7.821.42 8 .634 8h.877zM8 15.75c4.15 0 7.537-3.26 7.74-7.36.01-.212-.161-.39-.374-.39h-.877c-.198 0-.363.155-.374.353-.183 3.22-2.848 5.772-6.115 5.772-1.693 0-3.224-.685-4.332-1.793L5.36 10.64c.236-.236.069-.64-.265-.64H.625c-.207 0-.375.168-.375.375v4.47c0 .334.404.501.64.265l1.63-1.63c1.403 1.402 3.34 2.27 5.48 2.27z"/>
    </g>
</svg>
