<svg xmlns="http://www.w3.org/2000/svg" width="16" height="16" viewBox="0 0 16 16">
    <path fill="#000" fill-rule="nonzero" d="M12.874 9.027h-.036a1.04 1.04 0 0 0-.952.65 4.112 4.112 0 0 1-6.638 1.304l1.04-1.04a.52.52 0 0 0-.375-.914H1.755v4.159a.52.52 0 0 0 .93.384l1.092-1.091a6.197 6.197 0 0 0 10.038-1.997 1.04 1.04 0 0 0-.94-1.455zm.427-6.597L12.209 3.52A6.197 6.197 0 0 0 2.17 5.518a1.04 1.04 0 0 0 .941 1.43h.037a1.04 1.04 0 0 0 .951-.65 4.112 4.112 0 0 1 6.639-1.305l-1.04 1.04a.52.52 0 0 0 .385.93h4.148V2.83a.52.52 0 0 0-.93-.4z"/>
</svg>
