<svg xmlns="http://www.w3.org/2000/svg" width="16" height="16" viewBox="0 0 16 16"><g fill="none" fill-rule="evenodd"><path fill="#000" d="M8 15.75c4.281 0 7.75-3.469 7.75-7.75C15.75 3.719 12.281.25 8 .25 3.719.25.25 3.719.25 8c0 4.281 3.469 7.75 7.75 7.75zm0-1.5c-3.453 0-6.25-2.797-6.25-6.25S4.547 1.75 8 1.75 14.25 4.547 14.25 8 11.453 14.25 8 14.25zm-1.944-3.069L8 9.237l1.944 1.944c.147.147.384.147.531 0l.706-.706c.147-.147.147-.384 0-.531L9.237 8l1.944-1.944c.147-.147.147-.384 0-.531l-.706-.706c-.147-.147-.384-.147-.531 0L8 6.763 6.056 4.819c-.147-.147-.384-.147-.531 0l-.706.706c-.147.147-.147.384 0 .531L6.762 8 4.82 9.944c-.147.147-.147.384 0 .531l.706.706c.147.147.384.147.531 0z"/></g></svg>