<svg xmlns="http://www.w3.org/2000/svg" width="16" height="16" viewBox="0 0 16 16">
    <g fill="none" fill-rule="evenodd">
        <path fill="#000" d="M15.184 15.89l.707-.706c.146-.146.146-.384 0-.53l-3.794-3.795c-.072-.071-.166-.109-.266-.109h-.412C12.403 9.61 13 8.125 13 6.5 13 2.91 10.09 0 6.5 0S0 2.91 0 6.5 2.91 13 6.5 13c1.625 0 3.11-.597 4.25-1.581v.412c0 .1.04.194.11.266l3.793 3.794c.147.147.384.147.531 0zM6.5 11.5c-2.763 0-5-2.237-5-5 0-2.762 2.237-5 5-5 2.762 0 5 2.238 5 5 0 2.763-2.238 5-5 5z"/>
    </g>
</svg>
