<svg xmlns="http://www.w3.org/2000/svg" width="16" height="16" viewBox="0 0 16 16"><g fill="none" fill-rule="evenodd"><path fill="#000" d="M14.827 15.756l.706-.706c.147-.147.147-.384 0-.531l-2.436-2.66c-.072-.071-.166-.109-.266-.109h-.412C13.403 10.61 14 9.125 14 7.5 14 3.91 11.09 1 7.5 1S1 3.91 1 7.5 3.91 14 7.5 14c1.625 0 3.11-.597 4.25-1.581v.412c0 .1.04.194.11.266l2.436 2.66c.147.146.384.146.531 0zM7.5 12.5c-2.763 0-5-2.237-5-5 0-2.762 2.237-5 5-5 2.762 0 5 2.238 5 5 0 2.763-2.238 5-5 5z"/></g></svg>