<?xml version="1.0" encoding="UTF-8"?>
<svg width="16px" height="16px" viewBox="0 0 16 16" version="1.1" xmlns="http://www.w3.org/2000/svg" xmlns:xlink="http://www.w3.org/1999/xlink">
    <!-- Generator: sketchtool 54.1 (76490) - https://sketchapp.com -->
    <title>46BFD313-B590-4855-939D-6266D166CF02</title>
    <desc>Created with sketchtool.</desc>
    <g id="Symbols" stroke="none" stroke-width="1" fill="none" fill-rule="evenodd">
        <g id="9-kb-iconfont-bomb-16">
            <g transform="translate(-1.000000, 0.000000)">
                <rect id="icon-area" opacity="0" x="1" y="0" width="16" height="16"></rect>
                <path d="M4.63487925,10.9539454 C4.37402474,9.67684466 4.51215452,8.31681404 5.09300766,7.07114842 L4.16357819,5.74358379 L6,4.45771707 L6,3 C6,2.44771525 5.55228475,2 5,2 C4.44771525,2 4,2.44771525 4,3 L4,4 C4,5.65685425 2.65685425,7 1,7 L1,5 C1.55228475,5 2,4.55228475 2,4 L2,3 C2,1.34314575 3.34314575,0 5,0 C6.65685425,0 8,1.34314575 8,3 L8,3.05731253 L9.27161985,2.16692143 L10.2012182,3.49451585 C13.0127035,3.24869216 15.6387848,4.92185766 16.6039376,7.57390573 C17.5690905,10.2259538 16.6326607,13.1956145 14.320803,14.8143155 C12.0089453,16.4330165 8.89810545,16.2971459 6.73618055,14.4830457 C5.65049922,13.5720359 4.94006683,12.3518704 4.65284019,11.0388692 L3.1429195,11.6429195 L2.5,13.25 L1.8570805,11.6429195 L0.25,11 L1.8570805,10.3570805 L2.5,8.75 L3.1429195,10.3570805 L4.63487925,10.9539454 Z M11.2217048,7.24923883 C11.6585674,7.43019276 12.1614178,7.33016886 12.4957772,6.99578478 C12.7150901,6.77657594 12.8383076,6.47920247 12.8383076,6.16912075 C12.8383076,5.85903902 12.7150901,5.56166555 12.4957772,5.34245671 C12.1614178,5.00809602 11.6585674,4.90807211 11.2217048,5.08902605 C10.7848421,5.26997999 10.5,5.69627592 10.5,6.16913244 C10.5,6.64198896 10.7848421,7.06828489 11.2217048,7.24923883 Z" id="Combined-Shape" fill="#000000"></path>
            </g>
        </g>
    </g>
</svg>