<svg xmlns="http://www.w3.org/2000/svg" width="16" height="16" viewBox="0 0 16 16"><g fill="none" fill-rule="evenodd"><path fill="#000" d="M13.75 1.5c.206 0 .375-.169.375-.375v-.75c0-.206-.169-.375-.375-.375s-.375.169-.375.375v.75c0 .206.169.375.375.375zm1.06.219l.53-.531c.147-.147.147-.385 0-.532-.146-.147-.384-.147-.53 0l-.532.532c-.147.146-.147.384 0 .53.15.148.388.148.531 0zm-1.588 0c.147-.147.147-.385 0-.531L12.69.656c-.147-.147-.385-.147-.532 0-.147.147-.147.385 0 .532l.532.53c.146.148.384.148.53 0zm2.403.906c.206 0 .375-.169.375-.375s-.169-.375-.375-.375h-.75c-.206 0-.375.169-.375.375s.169.375.375.375h.75zM6.5 15.997c3.59 0 6.5-2.91 6.5-6.5 0-.953-.206-1.86-.575-2.675l.544-.544c.293-.29.293-.765 0-1.06l-.828-.827 1.625-1.625-.535-.532-1.625 1.625-.828-.828c-.29-.293-.766-.293-1.06 0l-.543.544C8.359 3.206 7.453 3 6.5 3 2.91 3 0 5.91 0 9.5s2.91 6.497 6.5 6.497zm8.84-12.153c.147-.147.147-.385 0-.531l-.53-.532c-.148-.147-.385-.147-.532 0-.147.147-.147.385 0 .532l.531.53c.147.148.385.148.532 0zM3 9c-.275 0-.5-.225-.5-.5 0-1.653 1.347-3 3-3 .275 0 .5.225.5.5s-.225.5-.5.5c-1.103 0-2 .897-2 2 0 .275-.225.5-.5.5z"/></g></svg>