<svg height="16" viewBox="0 0 16 16" width="16" xmlns="http://www.w3.org/2000/svg"><g fill-rule="evenodd"><path d="m8.272 2.167.93 1.328a6.236 6.236 0 1 1 -5.11 3.575l-.93-1.327 5.109-3.577zm1.95 5.082a1.17 1.17 0 1 0 .894-2.16 1.17 1.17 0 0 0 -.894 2.16z" fill-rule="nonzero"/><path d="m3 4a3 3 0 0 1 -3 3v-2a1 1 0 0 0 1-1v-1a3 3 0 1 1 6 0v2.428l-2 .032v-2.46a1 1 0 1 0 -2 0z"/><path d="m.857 10.357.643-1.607.643 1.607 1.607.643-1.607.643-.643 1.607-.643-1.607-1.607-.643z" fill-rule="nonzero"/></g></svg>