<svg xmlns="http://www.w3.org/2000/svg" width="16" height="16" viewBox="0 0 16 16">
    <g fill="none" fill-rule="evenodd">
        <path fill="#000" d="M14.756 11.6c.497 0 .9.403.9.9s-.403.9-.9.9l-.59.012c-.48.016-1.015.044-1.592.089-1.646.125-3.291.351-4.818.701-1.555.357-2.895.822-3.953 1.402-.436.24-.983.08-1.222-.356s-.08-.983.357-1.222c1.22-.67 2.712-1.188 4.416-1.578 1.624-.372 3.354-.61 5.083-.742.483-.037.94-.064 1.361-.081l.702-.022.256-.003zM2.31 11.452c1.45 0 2.31-.79 2.31-1.814 0-.962-1.053-1.266-1.762-1.449-.406-.101-.619-.212-.619-.354 0-.122.112-.213.375-.213.355 0 .73.121 1.044.294.091.05.213.09.324.09.375 0 .68-.303.68-.678 0-.263-.153-.486-.366-.598-.537-.284-1.124-.415-1.702-.415-1.419 0-2.179.891-2.179 1.793 0 .872.963 1.216 1.662 1.409.416.121.72.253.72.425 0 .142-.132.213-.314.213-.467 0-.993-.192-1.409-.436-.101-.06-.223-.09-.355-.09-.395 0-.719.313-.719.709 0 .273.162.506.385.628.598.324 1.287.486 1.925.486zm6.627-.532c.426 0 .78-.304.871-.7l.598-2.735c.02-.092.05-.284.05-.396 0-.73-.587-1.287-1.61-1.287-.74 0-1.186.355-1.54.68l.324-1.44c.132-.597-.294-1.084-.862-1.084-.425 0-.78.294-.871.7L4.752 9.834c-.132.588.314 1.085.871 1.085.426 0 .79-.304.872-.7l.527-2.431c.192-.173.466-.375.79-.375.365 0 .659.121.659.456 0 .08-.03.233-.05.324l-.356 1.652c-.131.597.315 1.074.872 1.074zm5.543-.459c.426 0 .78-.304.871-.699l.598-2.736c.02-.09.051-.283.051-.395 0-.73-.588-1.287-1.611-1.287-.74 0-1.186.355-1.54.68l.324-1.44c.132-.598-.294-1.084-.861-1.084-.426 0-.78.294-.872.7l-1.145 5.177c-.132.588.314 1.084.872 1.084.425 0 .79-.304.871-.699l.527-2.432c.192-.172.466-.375.79-.375.365 0 .659.122.659.456 0 .081-.03.233-.05.325l-.355 1.651c-.132.598.314 1.074.871 1.074z"/>
    </g>
</svg>
