<svg xmlns="http://www.w3.org/2000/svg" width="16" height="16" viewBox="0 0 16 16"><g fill="none" fill-rule="evenodd"><path fill="#000" d="M14.626 11.192c.414 0 .75.335.75.75 0 .414-.336.75-.75.75-1.584 0-3.43.22-5.536.663-2.1.443-4.119.905-6.03 1.77-.378.171-.822.004-.993-.374-.17-.377-.003-.822.374-.992 2.012-.91 4.134-1.407 6.34-1.871 2.2-.464 4.148-.696 5.845-.696zM3.43 6.75c.5 0 1 .14 1.43.4.16.1.28.28.28.49 0 .31-.25.56-.57.56-.1 0-.21-.03-.29-.09-.25-.15-.55-.26-.85-.26-.32 0-.51.15-.51.36 0 .18.26.31.61.46.58.23 1.39.56 1.39 1.41 0 .93-.76 1.74-2.03 1.74-.58 0-1.15-.16-1.6-.44-.17-.1-.29-.29-.29-.5 0-.33.27-.59.6-.59.12 0 .23.03.32.09.29.2.67.35 1.04.35.31 0 .52-.18.52-.4 0-.22-.3-.36-.66-.52-.57-.24-1.31-.57-1.31-1.36 0-.88.66-1.7 1.92-1.7zM7.24 4c.45 0 .79.39.69.86l-.37 1.65c.32-.35.79-.71 1.41-.71.78 0 1.24.44 1.24 1.05 0 .09-.02.24-.04.34l-.67 3.09c-.07.31-.36.55-.69.55-.45 0-.8-.39-.69-.85l.49-2.25c.01-.05.04-.19.04-.24 0-.29-.22-.41-.51-.41-.32 0-.62.27-.82.51l-.58 2.69c-.07.31-.36.55-.69.55-.45 0-.8-.39-.69-.86l1.19-5.42c.07-.31.35-.55.69-.55zm5.18-1c.45 0 .79.39.69.86l-.37 1.65c.32-.35.79-.71 1.41-.71.78 0 1.24.44 1.24 1.05 0 .09-.02.24-.04.34l-.67 3.09c-.07.31-.36.55-.69.55-.45 0-.8-.39-.69-.85l.49-2.25c.01-.05.04-.19.04-.24 0-.29-.22-.41-.51-.41-.32 0-.62.27-.82.51l-.58 2.69c-.07.31-.36.55-.69.55-.45 0-.8-.39-.69-.86l1.19-5.42c.07-.31.35-.55.69-.55z"/></g></svg>