<svg xmlns="http://www.w3.org/2000/svg" width="16" height="16" viewBox="0 0 16 16"><g fill="none" fill-rule="evenodd"><path fill="#000" d="M4.208 15.267l3.83-2.013 3.829 2.013c.68.357 1.49-.217 1.359-.988l-.732-4.262 3.096-3.018c.557-.542.25-1.488-.518-1.6l-4.28-.624L8.877.897c-.342-.692-1.336-.7-1.681 0L5.284 4.775l-4.28.624C.235 5.511-.073 6.457.483 7l3.097 3.018-.732 4.262c-.132.77.68 1.348 1.36.988zm7.471-1.688l-3.642-1.913-3.641 1.913.694-4.055-2.947-2.87 4.072-.592L8.037 2.37 9.86 6.062l4.072.591-2.947 2.871.694 4.055z"/></g></svg>