<?xml version="1.0" encoding="UTF-8"?>
<svg width="16px" height="16px" viewBox="0 0 16 16" version="1.1" xmlns="http://www.w3.org/2000/svg" xmlns:xlink="http://www.w3.org/1999/xlink">
    <!-- Generator: sketchtool 57.1 (101010) - https://sketch.com -->
    <title>E9EDFA35-D3F5-4759-A5CA-96D03D56C5EB</title>
    <desc>Created with sketchtool.</desc>
    <g id="Symbols" stroke="none" stroke-width="1" fill="none" fill-rule="evenodd">
        <g id="92-kb-iconfont-stellar-send-16">
            <g>
                <rect id="icon-area" opacity="0" x="0" y="0" width="16" height="16"></rect>
                <path d="M7.57040854,14 L13.5704085,14 C14.08298,14 14.5058779,14.3862857 14.5636768,14.8834315 L14.5704085,15 L14.5704085,16 L6.57040854,16 L6.57040854,15 C6.57040854,14.4874286 6.95669426,14.0645306 7.45384003,14.0067318 L7.57040854,14 L13.5704085,14 Z M6.57040854,11 L12.5704085,11 C13.08298,11 13.5058779,11.3862857 13.5636768,11.8834315 L13.5704085,12 L13.5704085,13 L5.57040854,13 L5.57040854,12 C5.57040854,11.4874286 5.95669426,11.0645306 6.45384003,11.0067318 L6.57040854,11 L12.5704085,11 Z M7.57040854,8 L13.5704085,8 C14.08298,8 14.5058779,8.38628571 14.5636768,8.88343149 L14.5704085,9 L14.5704085,10 L6.57040854,10 L6.57040854,9 C6.57040854,8.48742857 6.95669426,8.06453061 7.45384003,8.00673178 L7.57040854,8 L13.5704085,8 Z M14.2227052,1.47254068 L14.8772621,2.40734477 C15.3592644,3.09571549 14.3787654,4.61390224 12.6872561,5.79830977 C10.9957469,6.9827173 9.23376755,7.38483458 8.75176518,6.69646386 L8.09720831,5.76165977 C7.9814717,5.59637076 8.08482717,5.15772134 8.4500729,5.15772134 C9.18734134,5.15772134 10.319324,4.67009417 11.3781424,3.92870159 C12.6634927,3.02868958 13.3715315,1.98932842 13.5185804,1.61572704 C13.6656294,1.24212565 14.1069686,1.30725167 14.2227052,1.47254068 Z M4.36937799,-4.4408921e-16 L6.7369729,2.36759491 C6.86549498,2.49506421 6.90457995,2.68740012 6.83600367,2.85492219 C6.76742739,3.02244425 6.60469375,3.13216436 6.42368057,3.13292332 L6.42368057,3.13292332 L5.26449894,3.13292332 L5.26449894,5.24285127 C5.26449894,5.73721292 4.86373964,6.13797222 4.36937799,6.13797222 C3.87501634,6.13797222 3.47425704,5.73721292 3.47425704,5.24285127 L3.47425704,5.24285127 L3.47425704,3.13292332 L2.31507541,3.13292332 C2.13406223,3.13216436 1.97132859,3.02244425 1.90275231,2.85492219 C1.83417603,2.68740012 1.873261,2.49506421 2.00178308,2.36759491 L2.00178308,2.36759491 L4.36937799,-4.4408921e-16 Z M12.4741314,1.66968043 C12.6311838,1.89397456 11.950383,2.64165046 10.9535202,3.3396613 C9.95665744,4.03767214 9.02122432,4.42169541 8.86417189,4.19740128 C8.70711945,3.97310716 9.38792025,3.22543125 10.384783,2.52742042 C11.3816458,1.82940958 12.3170789,1.44538631 12.4741314,1.66968043 Z" id="Combined-Shape" fill="#000000" transform="translate(8.434689, 8.000000) scale(-1, 1) translate(-8.434689, -8.000000) "></path>
            </g>
        </g>
    </g>
</svg>