<svg xmlns="http://www.w3.org/2000/svg" width="16" height="16" viewBox="0 0 16 16">
    <path fill="#000" fill-rule="evenodd" d="M3.299 8a1 1 0 0 0-1 1v1h8V9a1 1 0 0 0-1-1h-6zm1 3a1 1 0 0 0-1 1v1h8v-1a1 1 0 0 0-1-1h-6zm-1 3a1 1 0 0 0-1 1v1h8v-1a1 1 0 0 0-1-1h-6zm5.473-8.238c.116-.166.013-.604-.353-.604-.737 0-1.869-.488-2.928-1.23-1.285-.9-1.993-1.939-2.14-2.312-.147-.374-.589-.309-.704-.143l-.655.934c-.482.689.499 2.207 2.19 3.391 1.692 1.185 3.454 1.587 3.936.898l.654-.934zM5.916 3.34c.997.698 1.932 1.082 2.09.857.156-.224-.525-.972-1.521-1.67-.997-.698-1.933-1.082-2.09-.857-.157.224.524.972 1.52 1.67zm8.638-.207a.448.448 0 0 0 .314-.765L12.5 0l-2.368 2.368a.448.448 0 0 0 .314.765h1.159v2.11a.895.895 0 1 0 1.79 0v-2.11h1.16z"/>
</svg>
