<svg xmlns="http://www.w3.org/2000/svg" width="16" height="16" viewBox="0 0 16 16">
    <path fill="#000" fill-rule="evenodd" d="M7.25 2c.322 0 .583.261.583.583v1.75h.584a1.167 1.167 0 0 1 0 2.334h-3.5a.584.584 0 0 0 0 1.166h2.916a2.92 2.92 0 0 1 2.917 2.917 2.92 2.92 0 0 1-2.917 2.917v1.75a.584.584 0 0 1-1.166 0v-1.75H5.5v1.75a.584.584 0 0 1-1.167 0v-1.75H3.75a1.167 1.167 0 0 1 0-2.334h4.083a.584.584 0 0 0 0-1.166H4.917A2.92 2.92 0 0 1 2 7.25a2.922 2.922 0 0 1 2.333-2.858V2.583a.584.584 0 0 1 1.167 0v1.75h1.167v-1.75c0-.322.261-.583.583-.583zm4.25-2l2.368 2.368a.448.448 0 0 1-.314.765h-1.159v2.11a.895.895 0 1 1-1.79 0v-2.11h-1.16a.448.448 0 0 1-.313-.765L11.5 0z"/>
</svg>
