<svg xmlns="http://www.w3.org/2000/svg" width="16" height="16" viewBox="0 0 16 16">
    <path fill="#000" fill-rule="nonzero" d="M3.388 9h4.836a1 1 0 0 1 1 1v1H2.388v-1a1 1 0 0 1 1-1zm1.624 2.5H9.85a1 1 0 0 1 1 1v1H4.012v-1a1 1 0 0 1 1-1zM3.645 14H8.48a1 1 0 0 1 1 1v1H2.645v-1a1 1 0 0 1 1-1zm3.69-11.199c1.369.996 2.12 2.296 1.678 2.905-.442.608-1.91.295-3.28-.7-1.37-.995-2.122-2.296-1.68-2.904.442-.61 1.911-.296 3.281.7zM4.832 5.99c1.154.839 2.522.979 3.346.426-.051.18-.12.35-.23.501-.703.967-2.382.943-3.751-.052-1.37-.995-1.912-2.585-1.21-3.552.111-.152.251-.27.406-.373-.271.954.285 2.211 1.44 3.05zm5.613-2.856a.448.448 0 0 1-.314-.765L12.5 0l2.368 2.368a.448.448 0 0 1-.314.765h-1.159v2.11a.895.895 0 1 1-1.79 0v-2.11h-1.16z"/>
</svg>
