<?xml version="1.0" encoding="UTF-8"?>
<svg width="16px" height="16px" viewBox="0 0 16 16" version="1.1" xmlns="http://www.w3.org/2000/svg" xmlns:xlink="http://www.w3.org/1999/xlink">
    <!-- Generator: sketchtool 57.1 (101010) - https://sketch.com -->
    <title>3B5F6818-7C3C-4E18-8A53-057F998E2193</title>
    <desc>Created with sketchtool.</desc>
    <g id="Symbols" stroke="none" stroke-width="1" fill="none" fill-rule="evenodd">
        <g id="93-kb-iconfont-success-16">
            <g>
                <rect id="icon-area" opacity="0" x="0" y="0" width="16" height="16"></rect>
                <path d="M8,0 C12.3349143,0 15.8645429,3.45649202 15.9961932,7.75131053 L16,8 C16,12.3349143 12.543508,15.8645429 8.24868947,15.9961932 L8,16 C3.581722,16 0,12.4092877 0,8 C0,3.66508574 3.45649202,0.135457134 7.75131053,0.00380682464 L8,0 Z M10.7098576,5.41033087 L6.79855797,9.34892562 L5.1801952,8.22866852 C4.8800904,8.0255856 4.49416735,7.9989082 4.16897377,8.15876659 C3.8437802,8.31862498 3.62919753,8.6404985 3.60670989,9.00216115 C3.58422225,9.36382379 3.75727901,9.70980015 4.06016481,9.90871158 L7.18800295,12.0356154 L12.2612366,6.70289768 C12.6181424,6.27448883 12.5602096,5.63787231 12.1318356,5.28092477 C11.703421,4.92402832 11.0668097,4.98196269 10.7098576,5.41033087 Z" id="Combined-Shape" fill="#000000"></path>
            </g>
        </g>
    </g>
</svg>