<svg xmlns="http://www.w3.org/2000/svg" width="16" height="16" viewBox="0 0 16 16">
    <g fill="none" fill-rule="evenodd">
        <path fill="#000" d="M8 15.75c4.28 0 7.75-3.47 7.75-7.75C15.75 3.72 12.28.25 8 .25 3.72.25.25 3.72.25 8c0 4.28 3.47 7.75 7.75 7.75zm0-1.5c-3.454 0-6.25-2.795-6.25-6.25 0-3.454 2.795-6.25 6.25-6.25 3.454 0 6.25 2.795 6.25 6.25 0 3.454-2.795 6.25-6.25 6.25zm-1.014-2.549l5.393-5.35c.147-.146.148-.383.002-.53l-.704-.71c-.146-.147-.383-.148-.53-.002L6.73 9.49 4.86 7.607c-.146-.147-.383-.148-.53-.002l-.71.704c-.147.146-.148.383-.002.53l2.837 2.86c.145.147.383.148.53.002z"/>
    </g>
</svg>
