<svg xmlns="http://www.w3.org/2000/svg" width="16" height="16" viewBox="0 0 16 16">
    <path fill="#000" fill-rule="evenodd" d="M12 0a4 4 0 0 1 4 4v8a4 4 0 0 1-4 4H4a4 4 0 0 1-4-4v-1.493l.024.012.068.032.018.008-.086-.041.116.052.083.036.111.04.07.023.092.027.091.023a2.858 2.858 0 0 0 .382.063l.047.004.027.002.096.005.097.002.764-.001V12a2 2 0 0 0 2 2h8a2 2 0 0 0 2-2V4a2 2 0 0 0-2-2H4a2 2 0 0 0-2 2v1.205h-.764c-.071 0-.141.003-.21.008l.018-.001-.045.004a2.803 2.803 0 0 0-.397.062l-.007.001a2.834 2.834 0 0 0-.566.2l-.03.014L0 4a4 4 0 0 1 4-4h8zM8 4a4 4 0 1 1-1.434 7.735l1.285-1.24A2.5 2.5 0 1 0 8 5.5l-.148.005-1.286-1.24A3.99 3.99 0 0 1 8 4zM4.397 5.045a.63.63 0 0 1 .676.138L8 8.003l-2.927 2.82A.63.63 0 0 1 4 10.396V9.003H1a1 1 0 1 1 0-2h3V5.609a.63.63 0 0 1 .397-.564zM.11 10.559l.051.022-.021-.011-.03-.011zm1.126-5.353l-.192.006.073-.004.119-.002z"/>
</svg>
