<svg xmlns="http://www.w3.org/2000/svg" width="16" height="16" viewBox="0 0 16 16"><g fill="none" fill-rule="evenodd"><path fill="#000" d="M13 14c1.656 0 3-1.344 3-3V5c0-1.656-1.344-3-3-3h-2.625c-.206 0-.375.169-.375.375v.75c0 .206.169.375.375.375H13c.828 0 1.5.672 1.5 1.5v6c0 .828-.672 1.5-1.5 1.5h-2.625c-.206 0-.375.169-.375.375v.75c0 .206.169.375.375.375H13zm-7.247-.612l5.138-5.125c.146-.147.146-.385 0-.532L5.753 2.606c-.147-.143-.384-.143-.531.003l-.613.613c-.15.15-.147.39.007.534L8.15 7.188H.375c-.206 0-.375.168-.375.375v.875c0 .206.169.375.375.375H8.15L4.616 12.24c-.15.147-.154.387-.007.534l.613.613c.147.146.384.146.531 0z"/></g></svg>