<svg xmlns="http://www.w3.org/2000/svg" width="16" height="16" viewBox="0 0 16 16">
    <path fill="#000" fill-rule="evenodd" d="M4 0a4 4 0 0 0-4 4v8a4 4 0 0 0 4 4h8a4 4 0 0 0 4-4v-1.11l-.374.36-.725.7a2.453 2.453 0 0 1-.441.347l-.057.034a2.449 2.449 0 0 1-.46.206l-.018.006A1.999 1.999 0 0 1 12 14H4a2 2 0 0 1-2-2V4a2 2 0 0 1 2-2h8a2 2 0 0 1 1.926 1.459l.067.021.1.038-.022-.008.035.014c.042.017.085.036.126.056l.06.029a2.058 2.058 0 0 1 .267.16l.041.028c.101.072.197.152.288.24L16 5.11V4a4 4 0 0 0-4-4H4zm4 4a4 4 0 1 0 2.817 6.84l-.013-.045h-1.01c-.482 0-.935-.123-1.331-.338a2.5 2.5 0 1 1 .002-4.914 2.767 2.767 0 0 1 1.33-.337h1.001l.015-.051A3.987 3.987 0 0 0 8 4zm4.397 1.045a.63.63 0 0 0-.397.564v1.394H9a1 1 0 1 0 0 2h3v1.393a.63.63 0 0 0 1.073.427L16 8.003l-2.927-2.82a.63.63 0 0 0-.676-.138zm1.529-1.586l.145.051-.055-.02-.09-.031z"/>
</svg>
