<?xml version="1.0" encoding="UTF-8"?>
<svg width="16px" height="16px" viewBox="0 0 16 16" version="1.1" xmlns="http://www.w3.org/2000/svg" xmlns:xlink="http://www.w3.org/1999/xlink">
    <!-- Generator: sketchtool 57.1 (101010) - https://sketch.com -->
    <title>DAF8DECC-DF51-4E3E-B824-72CCFA19912C</title>
    <desc>Created with sketchtool.</desc>
    <g id="Symbols" stroke="none" stroke-width="1" fill="none" fill-rule="evenodd">
        <g id="95-kb-iconfont-team-leave-16">
            <g>
                <rect id="icon-area" opacity="0" x="0" y="0" width="16" height="16"></rect>
                <path d="M12,0 C14.209139,0 16,1.790861 16,4 L16,12 C16,14.209139 14.209139,16 12,16 L4,16 C1.790861,16 0,14.209139 0,12 L0,10.89 L0.374,11.25 L1.09917355,11.9496144 C1.1885777,12.0382977 1.2836754,12.119044 1.38345634,12.1916469 C1.40414704,12.2067056 1.42526785,12.2215696 1.44658518,12.2360739 C1.47737051,12.2570183 1.50847925,12.2771594 1.53996776,12.2965486 L1.5974656,12.330876 L1.5974656,12.330876 C1.631217,12.350398 1.66507882,12.3689244 1.69930702,12.3866153 C1.72452743,12.3996583 1.75048394,12.4125017 1.7766343,12.4248694 C1.80870393,12.4400311 1.84075379,12.4543465 1.87306517,12.4679551 C1.88921125,12.4747565 1.90556216,12.4814366 1.92197638,12.4879366 C1.96634377,12.505505 2.01112734,12.5217416 2.05631103,12.5366521 L2.0752973,12.5428319 C2.31057573,13.383206 3.08325788,14 4,14 L12,14 C13.1045695,14 14,13.1045695 14,12 L14,4 C14,2.8954305 13.1045695,2 12,2 L4,2 C3.08289668,2 2.30996686,2.61728017 2.07402213,3.45902892 L2.00691173,3.48046204 C1.97339442,3.49231975 1.9401128,3.5049145 1.90709245,3.51824106 L1.929,3.51 L1.89410709,3.52416087 L1.89410709,3.52416087 C1.85151961,3.54099706 1.80938308,3.55968611 1.76774366,3.57958461 C1.74786338,3.58941539 1.72824398,3.59908643 1.70873981,3.60903223 C1.67996239,3.62347387 1.65117471,3.63892352 1.62266709,3.65496903 C1.5978311,3.66908872 1.57332595,3.68342849 1.54904114,3.69821886 C1.51239002,3.72046623 1.47619505,3.74386398 1.44055381,3.76827034 C1.42692557,3.77763763 1.41338676,3.78710687 1.39993059,3.79672401 C1.29896365,3.86888541 1.20265113,3.94937235 1.11206429,4.03791958 L0,5.109 L0,4 C0,1.790861 1.790861,0 4,0 L12,0 Z M8,4 C10.209139,4 12,5.790861 12,8 C12,10.209139 10.209139,12 8,12 C6.90100913,12 5.90553418,11.5567957 5.18256152,10.8393735 L5.19601413,10.7946205 L6.20549318,10.7946205 C6.6876922,10.7946205 7.14136617,10.6724902 7.53726966,10.4574751 C7.68665814,10.4852702 7.8416089,10.5 8,10.5 C9.38071187,10.5 10.5,9.38071187 10.5,8 C10.5,6.61928813 9.38071187,5.5 8,5.5 C7.84126155,5.5 7.68597854,5.51479449 7.53545461,5.54307984 C7.14059786,5.32753034 6.68728391,5.20560682 6.20549318,5.20560682 L5.20370969,5.20560682 L5.1885731,5.15467359 C5.91104752,4.4407534 6.90405203,4 8,4 Z M3.60305891,5.04457726 C3.83593525,5.13714923 3.99180175,5.3589407 4,5.60940776 L4,7.00274109 L7,7.00274109 C7.55228475,7.00274109 8,7.45045634 8,8.00274109 C8,8.55502584 7.55228475,9.00274109 7,9.00274109 L4,9.00274109 L4,10.3960744 C3.99180175,10.6465415 3.83593525,10.868333 3.60305891,10.9609049 C3.37018257,11.0534769 3.10458425,10.9992242 2.92666667,10.8227411 L0,8.00274109 L2.92666667,5.18274109 C3.10458425,5.00625797 3.37018257,4.9520053 3.60305891,5.04457726 Z M2.07402213,3.45902892 L1.929,3.51 L1.98350164,3.48977336 L1.98350164,3.48977336 L2.07402213,3.45902892 Z" id="Combined-Shape" fill="#000000" transform="translate(8.000000, 8.000000) scale(-1, 1) translate(-8.000000, -8.000000) "></path>
            </g>
        </g>
    </g>
</svg>