<svg xmlns="http://www.w3.org/2000/svg" width="16" height="16" viewBox="0 0 16 16"><g fill="none" fill-rule="evenodd"><path fill="#000" d="M9.6 2.75c.193 0 .354-.137.392-.32L10 2.35v-.7c0-.193-.137-.354-.32-.392L9.6 1.25H1.401c-.194 0-.355.137-.393.32L1 1.651v.698c0 .222.18.401.4.401h8.2zm4.9 4c.276 0 .5-.224.5-.5v-.5c0-.276-.224-.5-.5-.5h-13c-.276 0-.5.224-.5.5v.5c0 .276.224.5.5.5h13zm-4.9 4c.193 0 .354-.137.392-.32l.008-.08v-.7c0-.193-.137-.354-.32-.392L9.6 9.25H1.401c-.194 0-.355.137-.393.32L1 9.65v.698c0 .222.18.401.4.401h8.2zm4.9 4c.276 0 .5-.224.5-.5v-.5c0-.276-.224-.5-.5-.5h-13c-.276 0-.5.224-.5.5v.5c0 .276.224.5.5.5h13z"/></g></svg>