<svg xmlns="http://www.w3.org/2000/svg" width="16" height="16" viewBox="0 0 16 16"><g fill="none" fill-rule="evenodd"><path fill="#000" d="M6.866 16c.509 0 .984-.275 1.212-.675l5.725-8.647c.263-.447.263-.984.003-1.431-.256-.447-.722-.716-1.237-.716h-2.95l.897-2.734c.115-.431.025-.884-.247-1.24C9.994.202 9.579 0 9.13 0H5.053c-.712 0-1.322.534-1.4 1.16L2.016 7.79c-.06.432.068.866.353 1.194.284.329.697.516 1.131.516h3.066l-1.091 4.74c-.1.429-.003.872.269 1.216.272.347.681.544 1.122.544zm.137-1.706L8.45 8H3.484l1.57-6.5 3.987-.028-1.494 4.56h4.89l-5.434 8.262z"/></g></svg>