<svg xmlns="http://www.w3.org/2000/svg" width="16" height="16" viewBox="0 0 16 16"><g fill="none" fill-rule="evenodd"><path fill="#000" d="M8 .25c4.281 0 7.75 3.469 7.75 7.75 0 4.281-3.469 7.75-7.75 7.75C3.719 15.75.25 12.281.25 8 .25 3.719 3.719.25 8 .25zm0 1.5C4.547 1.75 1.75 4.547 1.75 8S4.547 14.25 8 14.25s6.25-2.797 6.25-6.25S11.453 1.75 8 1.75zm2.456 3.344l.588.81c.122.168.087.402-.082.524L8.875 7.947v4.428c0 .206-.169.375-.375.375h-1c-.206 0-.375-.169-.375-.375V7.244c0-.119.056-.231.153-.303l2.653-1.928c.169-.122.403-.085.525.08z"/></g></svg>