<svg xmlns="http://www.w3.org/2000/svg" width="48" height="40" viewBox="0 0 48 40">
    <g fill="none" fill-rule="evenodd">
        <path d="M0 0h48v40H0z"/>
        <path fill="#F6EC2D" d="M41.5.286c-.293 2.392-.39 3.91-.962 4.89-.936 1.219-2.558 1.335-5.538 1.61 2.932.355 4.517.432 5.455 1.548.701.988.82 2.516 1.045 4.952.382-3.159.442-4.754 1.827-5.662.985-.476 2.455-.58 4.673-.838-2.75-.337-4.347-.414-5.297-1.255-.803-.957-.889-2.548-1.203-5.245M5.5 19.286c-.293 2.392-.39 3.91-.962 4.89-.936 1.219-2.558 1.335-5.538 1.61 2.932.355 4.517.432 5.455 1.548.701.988.82 2.516 1.045 4.952.382-3.159.442-4.754 1.827-5.662.985-.476 2.455-.58 4.673-.838-2.75-.337-4.347-.414-5.297-1.255-.803-.957-.889-2.548-1.203-5.245"/>
    </g>
</svg>
