<svg xmlns="http://www.w3.org/2000/svg" xmlns:xlink="http://www.w3.org/1999/xlink" width="32" height="32" viewBox="0 0 32 32">
    <defs>
        <path id="a" d="M3.981 13.975c1.138.66 2.398.99 3.764.99 1.364 0 2.624-.33 3.762-.99a7.524 7.524 0 0 0 2.731-2.707c.665-1.128.997-2.377.997-3.73 0-1.354-.332-2.603-.997-3.731-.682-1.145-1.575-2.048-2.73-2.708C10.368.423 9.108.094 7.744.094c-1.366 0-2.626.329-3.764 1.005a7.272 7.272 0 0 0-2.73 2.708C.568 4.935.235 6.184.235 7.537c0 1.354.333 2.603 1.016 3.731.665 1.145 1.575 2.03 2.73 2.707z"/>
    </defs>
    <g fill="none" fill-rule="evenodd" transform="translate(4 12)">
        <use fill="#3DCC8E" xlink:href="#a"/>
        <path stroke="#FFF" stroke-width="4" d="M2.978 15.705l-.007-.004C1.507 14.844.354 13.707-.46 12.303c-.869-1.437-1.304-3.042-1.304-4.766 0-1.723.435-3.329 1.286-4.735A9.235 9.235 0 0 1 2.96-.62c1.444-.858 3.056-1.286 4.786-1.286 1.73 0 3.34.428 4.753 1.268 1.445.824 2.592 1.967 3.463 3.429.847 1.437 1.274 3.037 1.274 4.746 0 1.71-.427 3.31-1.279 4.755a9.532 9.532 0 0 1-3.446 3.413c-1.444.837-3.05 1.26-4.765 1.26-1.716 0-3.322-.423-4.767-1.26z"/>
    </g>
</svg>
