<svg xmlns="http://www.w3.org/2000/svg" xmlns:xlink="http://www.w3.org/1999/xlink" width="17" height="21" viewBox="0 0 17 21">
    <defs>
        <path id="a" d="M14.075 10.333V9c0-2.21-1.88-4-4.2-4-2.32 0-4.2 1.79-4.2 4v1.333h-1.4c-.773 0-1.4.597-1.4 1.334v8c0 .736.627 1.333 1.4 1.333h11.2c.773 0 1.4-.597 1.4-1.333v-8c0-.737-.627-1.334-1.4-1.334h-1.4zm-6.3 5.334c0-1.105.94-2 2.1-2 1.16 0 2.1.895 2.1 2 0 1.104-.94 2-2.1 2-1.16 0-2.1-.896-2.1-2zm4.28-5.334H7.78V9.315c0-1.125.957-2.036 2.138-2.036s2.138.911 2.138 2.036v1.018z"/>
    </defs>
    <g fill="none" fill-rule="evenodd">
        <path fill="#FFF" d="M6 12h7v7H6z"/>
        <g fill-rule="nonzero">
            <use fill="#CCC" fill-rule="evenodd" xlink:href="#a"/>
            <path stroke="#FFF" stroke-width="2" d="M15.075 9.333h.4c1.315 0 2.4 1.034 2.4 2.334v8c0 1.3-1.085 2.333-2.4 2.333h-11.2c-1.315 0-2.4-1.033-2.4-2.333v-8c0-1.3 1.085-2.334 2.4-2.334h.4V9c0-2.773 2.339-5 5.2-5s5.2 2.227 5.2 5v.333zm-6.3 6.334c0 .54.482 1 1.1 1 .618 0 1.1-.46 1.1-1 0-.541-.482-1-1.1-1-.618 0-1.1.459-1.1 1zm2.28-6.334v-.018c0-.561-.499-1.036-1.138-1.036-.64 0-1.138.475-1.138 1.036v.018h2.276z"/>
        </g>
    </g>
</svg>
