<svg xmlns="http://www.w3.org/2000/svg" xmlns:xlink="http://www.w3.org/1999/xlink" width="40" height="42" viewBox="0 0 40 42">
    <defs>
        <path id="a" d="M.001 14.283h17.203v-14H.001z"/>
    </defs>
    <g fill="none" fill-rule="evenodd">
        <path fill="#3DCC8E" d="M14.901 15.368a1.013 1.013 0 0 1-.947-1.068l.075-1.216a1.013 1.013 0 0 1 1.07-.946l1.214.075c.27.016.516.137.695.34.18.202.269.462.251.733l-.074 1.21a.735.735 0 0 1-.027.156l-.043.212-.8.592-1.414-.088z"/>
        <path fill="#282828" d="M15.039 11.525c-.855 0-1.566.669-1.62 1.522l-.074 1.213v.004c-.052.89.63 1.659 1.52 1.714l1.19.073.444.028.358-.265.433-.32.376-.279.086-.422c.017-.064.036-.152.042-.258l.075-1.212a1.61 1.61 0 0 0-.404-1.176 1.609 1.609 0 0 0-1.115-.544l-1.212-.075h-.003a1.631 1.631 0 0 0-.096-.003m.907 2.649l.044-.722-.722-.045-.044.722.722.045m-.907-1.428l.024.001 1.213.075a.397.397 0 0 1 .374.425l-.074 1.212c-.002.019-.009.035-.013.053l-.432.32-1.192-.073a.401.401 0 0 1-.376-.424l.076-1.213a.4.4 0 0 1 .4-.376"/>
        <g transform="translate(11.442 15.717)">
            <mask id="b" fill="#fff">
                <use xlink:href="#a"/>
            </mask>
            <path fill="#FFF" d="M8.603 1.283C3.853 1.283 0 5.026 0 9.643c0 1.716.533 3.312 1.446 4.64h14.657c.771-1.37 1.1-2.991 1.1-4.64 0-4.274-3.85-8.36-8.601-8.36" mask="url(#b)"/>
        </g>
        <path fill="#282827" d="M20.044 16.162c-5.08 0-9.212 4.005-9.212 8.927a8.67 8.67 0 0 0 1.337 4.627h1.471a7.548 7.548 0 0 1-1.587-4.627c0-4.27 3.585-7.744 7.991-7.744 2.093 0 4.098.85 5.645 2.391 1.491 1.486 2.347 3.438 2.347 5.353 0 1.312-.224 3.095-1.196 4.627h1.394c.673-1.312 1.023-2.88 1.023-4.627 0-2.22-.982-4.473-2.693-6.178-1.779-1.772-4.094-2.749-6.52-2.749"/>
        <path fill="#282827" d="M18.526 27.871a.826.826 0 1 1-1.651 0 .826.826 0 0 1 1.651 0M23.526 27.871a.826.826 0 1 1-1.651 0 .826.826 0 0 1 1.651 0"/>
        <path fill="#FF6F21" d="M10.66 27.544l4.583-4.861-1.103 3.458c3.578-2.604 7.335-2.192 9.98-1.415 2.808.824 4.773-1.656 2.85-4.3-.915-1.258-2.17-2.302-3.594-2.935-3.737-1.66-7.494-.692-10.028 1.868-2.684 2.712-2.689 5.72-2.689 8.185"/>
        <path fill="#282827" d="M19.614 17.281c-.532 0-1.06.053-1.58.16-1.584.326-3.054 1.137-4.252 2.348-1.99 2.01-2.404 4.168-2.49 6.193l5.348-5.672-1.415 4.439c2.66-1.391 5.703-1.597 9.067-.61 1.07.315 2.041.077 2.533-.62.505-.718.374-1.74-.35-2.735-.864-1.189-2.053-2.16-3.347-2.735a8.653 8.653 0 0 0-3.514-.768zm-9.565 11.8v-1.537c0-2.548 0-5.72 2.865-8.614 1.368-1.382 3.054-2.31 4.874-2.685 1.916-.394 3.934-.156 5.836.688 1.486.66 2.85 1.773 3.839 3.133 1.03 1.416 1.168 3.009.36 4.155-.79 1.122-2.311 1.55-3.875 1.09-3.607-1.059-6.787-.614-9.45 1.324l-1.507 1.097.855-2.677-3.797 4.026z"/>
        <path fill="#FF6F21" d="M22.24 16.315a2.998 2.998 0 0 1-3.579 1.795c-1.645-.463-2.514-1.785-2.305-3.462.207-1.667 1.334-3.13 2.633-4.932-1.067 2.271-.16 2.484.126 2.473.284-.011.697.037 1.286.232a2.975 2.975 0 0 1 1.84 3.894"/>
        <path fill="#282827" d="M18.03 12.15c-.564.884-.96 1.705-1.068 2.574-.171 1.375.526 2.421 1.865 2.798a2.379 2.379 0 0 0 2.843-1.426 2.348 2.348 0 0 0-.069-1.862 2.344 2.344 0 0 0-1.392-1.233c-.544-.18-.882-.21-1.07-.202a1.179 1.179 0 0 1-1.11-.649m1.419 6.68a3.51 3.51 0 0 1-.952-.132c-.949-.267-1.706-.795-2.191-1.526-.484-.73-.676-1.628-.555-2.6.213-1.714 1.27-3.175 2.494-4.867l.25-.346 1.048.617c-.517 1.1-.458 1.509-.43 1.602.415-.013.914.076 1.481.264a3.555 3.555 0 0 1 2.112 1.87c.423.894.46 1.896.105 2.821-.538 1.404-1.912 2.296-3.362 2.296"/>
        <path fill="#3DCC8E" d="M20.697 21.722a.706.706 0 0 1-.549-.26l-.41-.503a.707.707 0 0 1 .07-.969.697.697 0 0 1-.232-.185l-.094-.115a.708.708 0 0 1 .1-.995l.06-.048-.602-.738a.77.77 0 0 1 1.19-.972l2.566 3.158a.769.769 0 0 1-.596 1.253.766.766 0 0 1-.531-.213l-.524.427a.71.71 0 0 1-.448.16"/>
        <path fill="#282828" d="M20.617 16.62a1.264 1.264 0 0 0-1.783-.18 1.27 1.27 0 0 0-.18 1.785l.333.41c-.245.422-.218.97.108 1.37l.063.078c-.148.39-.09.846.193 1.192l.41.503a1.204 1.204 0 0 0 1.7.171l.246-.2a1.268 1.268 0 0 0 1.475-1.97l-2.563-3.156-.002-.003zm-.982.534c.078 0 .155.034.209.1l2.565 3.156a.269.269 0 1 1-.417.34l-.255-.315-.907.74a.209.209 0 0 1-.295-.03l-.41-.502a.207.207 0 0 1 .029-.291l.911-.744-.372-.46-.45.369a.198.198 0 0 1-.28-.028l-.094-.115a.207.207 0 0 1 .03-.292l.445-.364-.917-1.125a.269.269 0 0 1 .208-.439z"/>
    </g>
</svg>
