<svg xmlns="http://www.w3.org/2000/svg" width="40" height="41" viewBox="0 0 40 41">
    <path fill="#FFF" fill-rule="evenodd" d="M28.75 15.25a6.964 6.964 0 0 1-2.062.588 3.721 3.721 0 0 0 1.579-2.065 7.024 7.024 0 0 1-2.28.906 3.523 3.523 0 0 0-2.621-1.179c-1.983 0-3.59 1.671-3.59 3.733 0 .292.031.577.093.85-2.984-.155-5.63-1.641-7.4-3.9a3.829 3.829 0 0 0-.487 1.877c0 1.295.634 2.437 1.597 3.107a3.473 3.473 0 0 1-1.626-.467v.047c0 1.808 1.237 3.317 2.88 3.66a3.469 3.469 0 0 1-1.621.064c.456 1.483 1.782 2.562 3.353 2.592a7.032 7.032 0 0 1-5.315 1.546 9.883 9.883 0 0 0 5.504 1.677c6.604 0 10.215-5.688 10.215-10.62 0-.162-.004-.323-.01-.483a7.464 7.464 0 0 0 1.791-1.933"/>
</svg>
