<svg xmlns="http://www.w3.org/2000/svg" xmlns:xlink="http://www.w3.org/1999/xlink" width="26" height="28" viewBox="0 0 26 28">
    <defs>
        <path id="a" d="M14.501 3.885h-.105L9.225 12.06a.381.381 0 0 0 .372.58l3.713-.487-2.842 5.641a.381.381 0 0 0 .637.407l6.024-7.448a.477.477 0 0 0-.413-.78l-3.381.336 4.17-5.531 1.366.131 1.258 2.904L22.5 9.91 21.811 13l.689 3.091-2.37 2.096-1.26 2.904-3.146.303-.84.495L13 23l-1.884-1.111-.84-.495-3.147-.303-1.258-2.904L3.5 16.09 4.189 13 3.5 9.909l2.37-2.096L7.13 4.91l3.146-.303L13 3l1.501.885z"/>
    </defs>
    <g fill="none" fill-rule="nonzero" transform="translate(0 1)">
        <use fill="#FF4D61" fill-rule="evenodd" xlink:href="#a"/>
        <path stroke="#FFF" stroke-width="3" d="M12.363 4.292l-.034.054.671.395.762-.449h-1.399zm5.833 2.06l.506-.671-.588-.444-.62.269.352.812.35.033zm-1.542-2.939l.158-.209 3.083.297 1.478 3.41 2.784 2.46L23.348 13l.809 3.63-2.784 2.46-1.478 3.409-3.696.356-.553.326L13 24.741l-.762-.449-1.884-1.111-.553-.326-3.696-.356-1.478-3.41-2.784-2.46L2.652 13l-.809-3.63 2.784-2.46 1.478-3.409 3.696-.356L13 1.259l3.654 2.154z"/>
    </g>
</svg>
