<svg xmlns="http://www.w3.org/2000/svg" width="40" height="41" viewBox="0 0 40 41">
    <path fill="#000" fill-rule="evenodd" d="M11.25 21.222c0 3.965 2.507 7.328 5.984 8.514.437.083.598-.194.598-.431 0-.214-.008-.921-.012-1.67-2.435.542-2.948-1.06-2.948-1.06-.398-1.036-.972-1.312-.972-1.312-.794-.557.06-.546.06-.546.879.064 1.341.925 1.341.925.78 1.372 2.047.975 2.547.746.078-.58.305-.976.555-1.2-1.943-.227-3.986-.996-3.986-4.434 0-.98.342-1.78.901-2.409-.09-.226-.39-1.138.085-2.374 0 0 .735-.241 2.407.92a8.198 8.198 0 0 1 2.19-.302 8.22 8.22 0 0 1 2.192.302c1.67-1.161 2.404-.92 2.404-.92.476 1.236.177 2.148.086 2.374.56.629.9 1.43.9 2.409 0 3.446-2.047 4.205-3.995 4.427.314.278.593.824.593 1.661 0 1.2-.01 2.167-.01 2.463 0 .239.158.518.601.43 3.475-1.188 5.979-4.55 5.979-8.513 0-4.955-3.918-8.972-8.75-8.972s-8.75 4.017-8.75 8.972z" opacity=".75"/>
</svg>
