<svg xmlns="http://www.w3.org/2000/svg" xmlns:xlink="http://www.w3.org/1999/xlink" width="32" height="32" viewBox="0 0 32 32">
    <defs>
        <path id="a" d="M16.746 17.881c1.138.66 2.398.99 3.763.99 1.365 0 2.625-.33 3.763-.99a7.524 7.524 0 0 0 2.73-2.706c.666-1.128.998-2.378.998-3.731 0-1.354-.332-2.603-.997-3.731-.683-1.145-1.576-2.048-2.731-2.707C23.134 4.329 21.874 4 20.509 4c-1.365 0-2.625.33-3.763 1.006a7.272 7.272 0 0 0-2.73 2.707C13.332 8.841 13 10.09 13 11.443c0 1.354.333 2.604 1.015 3.732.665 1.145 1.575 2.03 2.731 2.706z"/>
        <path id="b" d="M7.981 25.975c1.138.66 2.398.99 3.764.99 1.364 0 2.624-.33 3.762-.99a7.524 7.524 0 0 0 2.731-2.707c.665-1.128.997-2.377.997-3.73 0-1.354-.332-2.603-.997-3.731-.682-1.145-1.575-2.048-2.73-2.708-1.139-.676-2.399-1.005-3.763-1.005-1.366 0-2.626.329-3.764 1.005a7.272 7.272 0 0 0-2.73 2.708c-.683 1.128-1.016 2.377-1.016 3.73 0 1.354.333 2.603 1.016 3.731.665 1.145 1.575 2.03 2.73 2.707z"/>
    </defs>
    <g fill="none" fill-rule="evenodd">
        <g>
            <use fill="#3DCC8E" xlink:href="#a"/>
            <path stroke="#FFF" stroke-width="4" d="M15.743 19.612l-.007-.005c-1.465-.857-2.617-1.994-3.432-3.397-.87-1.437-1.304-3.043-1.304-4.766 0-1.723.435-3.33 1.286-4.736a9.235 9.235 0 0 1 3.438-3.421C17.168 2.428 18.779 2 20.509 2s3.341.428 4.754 1.269c1.444.824 2.591 1.967 3.462 3.428C29.573 8.134 30 9.734 30 11.444s-.427 3.31-1.28 4.755a9.532 9.532 0 0 1-3.445 3.413c-1.445.837-3.05 1.259-4.766 1.259-1.715 0-3.321-.422-4.766-1.26z"/>
        </g>
        <path fill="#FFF" d="M18.415 15.016c.632.367 1.332.55 2.09.55.758 0 1.458-.183 2.09-.55a4.18 4.18 0 0 0 1.518-1.503c.37-.627.554-1.32.554-2.073 0-.752-.185-1.446-.554-2.073a4.11 4.11 0 0 0-1.518-1.504 4.018 4.018 0 0 0-2.09-.558c-.758 0-1.458.183-2.09.558a4.04 4.04 0 0 0-1.518 1.504 3.932 3.932 0 0 0-.564 2.073c0 .752.185 1.446.564 2.073.37.636.875 1.128 1.518 1.503z"/>
        <g>
            <use fill="#CCC" xlink:href="#b"/>
            <path stroke="#FFF" stroke-width="4" d="M6.978 27.705l-.007-.004c-1.464-.857-2.617-1.994-3.432-3.398-.869-1.437-1.304-3.042-1.304-4.766 0-1.723.435-3.329 1.286-4.735A9.235 9.235 0 0 1 6.96 11.38c1.444-.858 3.056-1.286 4.786-1.286 1.73 0 3.34.428 4.753 1.268 1.445.824 2.592 1.967 3.463 3.429.847 1.437 1.274 3.037 1.274 4.746 0 1.71-.427 3.31-1.279 4.755a9.532 9.532 0 0 1-3.446 3.413c-1.444.837-3.05 1.26-4.765 1.26-1.716 0-3.322-.423-4.767-1.26z"/>
        </g>
    </g>
</svg>
