<svg xmlns="http://www.w3.org/2000/svg" xmlns:xlink="http://www.w3.org/1999/xlink" width="26" height="28" viewBox="0 0 26 28">
    <defs>
        <path id="a" d="M19.53 6.91l-.69 3.092.69 3.092-2.374 2.096-1.261 2.904-3.152.303-.84.495-1.888 1.111-1.887-1.11-.841-.496-3.152-.303-1.26-2.905L.5 13.094l.69-3.092L.5 6.91l2.374-2.096L4.135 1.91l3.152-.304L10.015 0l2.728 1.606 3.152.304 1.26 2.904L19.53 6.91zM10.167 5a.834.834 0 0 0-.833.834v4.168h-2.5a.833.833 0 0 0 0 1.667H11V5.834a.834.834 0 0 0-.834-.833z"/>
    </defs>
    <g fill="none" fill-rule="evenodd" transform="translate(0 1)">
        <circle cx="13" cy="13" r="12" fill="#FFF"/>
        <g fill-rule="nonzero" transform="translate(3 3)">
            <use fill="#CCC" fill-rule="evenodd" xlink:href="#a"/>
            <path stroke="#FFF" stroke-width="3" d="M20.377 10.002l.81 3.63-2.789 2.461-1.48 3.41-3.7.355-.555.327-2.648 1.56-.761-.449-1.887-1.111-.555-.327-3.701-.356-1.48-3.41-2.788-2.46.81-3.63-.81-3.63L1.632 3.91 3.112.5l3.7-.356 3.203-1.886L13.218.145l3.701.356 1.48 3.41 2.788 2.46-.81 3.63zm-10.876 1.5v.167l.167-.167h1.166v-1.166l.167-.167h-.167V5.834a.666.666 0 0 1-1.333 0v4.335H6.833a.667.667 0 1 1 0 1.333h2.668z"/>
        </g>
    </g>
</svg>
