<svg xmlns="http://www.w3.org/2000/svg" width="40" height="40" viewBox="0 0 40 40">
    <defs>
        <path id="a" d="M0 24h24V0H0v24z"/>
    </defs>
    <g fill="none" fill-rule="evenodd">
        <path fill="#000" fill-opacity=".75" d="M18.829 22.046L14 13h2.207l2.84 5.724c.044.102.095.208.153.317.058.11.11.222.153.339.03.044.051.084.066.12.014.036.029.07.043.098.07.14.136.282.197.426.058.139.11.266.153.383.116-.248.244-.514.382-.798.139-.284.28-.579.426-.885L23.504 13h2.054l-4.872 9.155v5.834h-1.857v-5.943z"/>
    </g>
</svg>
