<svg xmlns="http://www.w3.org/2000/svg" xmlns:xlink="http://www.w3.org/1999/xlink" width="12" height="15" viewBox="0 0 12 15">
    <defs>
        <path id="a" d="M10.662 7.667H9.7V6.75C9.7 5.231 8.407 4 6.813 4 5.218 4 3.925 5.231 3.925 6.75v.917h-.962c-.532 0-.963.41-.963.916v5.5c0 .507.43.917.962.917h7.7c.532 0 .963-.41.963-.917v-5.5c0-.506-.43-.916-.963-.916zm-3.85 5.041c-.797 0-1.443-.615-1.443-1.375s.646-1.375 1.444-1.375c.797 0 1.443.616 1.443 1.375 0 .76-.646 1.375-1.444 1.375zm1.5-5.041h-2.94v-.7c0-.774.658-1.4 1.47-1.4.811 0 1.47.626 1.47 1.4v.7z"/>
    </defs>
    <g fill="none" fill-rule="evenodd">
        <path fill="#FFF" d="M6 10h3v3H6z"/>
        <g fill-rule="nonzero">
            <use fill="#CCC" fill-rule="evenodd" xlink:href="#a"/>
            <path stroke="#FFF" stroke-width="2" d="M10.7 6.667c1.056.019 1.925.859 1.925 1.916v5.5c0 1.07-.89 1.917-1.963 1.917h-7.7C1.89 16 1 15.153 1 14.083v-5.5c0-1.057.87-1.897 1.926-1.916C2.972 4.624 4.705 3 6.812 3 8.92 3 10.654 4.624 10.7 6.667zm-3.888 5.041c.256 0 .444-.179.444-.375s-.188-.375-.444-.375c-.255 0-.443.18-.443.375 0 .196.188.375.443.375zm0 0zm-.28-5.041h-1.16v1h1v-.7c0-.116.06-.225.16-.3zm.62 0c.099.075.16.184.16.3v.7h1v-1h-1.16z"/>
        </g>
    </g>
</svg>
