<svg xmlns="http://www.w3.org/2000/svg" width="27" height="21" viewBox="0 0 27 21">
    <g fill="none" fill-rule="evenodd">
        <path fill="#FFF" fill-rule="nonzero" d="M18.617 3.814l.478-1.611C19.483.893 20.645 0 21.961 0h2.315c1.983 0 3.41 1.963 2.897 3.937a4.39 4.39 0 0 1 2.31 2.207c.357.738.514 1.54.517 2.393.003.747-.126 1.513-.36 2.29l-1.566 5.34a3.22 3.22 0 0 1-.124.347c.35.573.583 1.238.659 1.96.263 2.505-1.471 4.764-3.88 5.049l-12.174 1.44a2.886 2.886 0 0 1-.085.01c-2.133.24-4.075-1.153-4.675-3.224a6.96 6.96 0 0 1-2.583.484 6.072 6.072 0 0 1-2.583-.579 5.311 5.311 0 0 1-1.155-.736 4.586 4.586 0 0 1-1.056-1.256 3.23 3.23 0 0 1 .276-3.59l.78-.975c.069-.082.14-.16.213-.237a5.402 5.402 0 0 1 .03-1.939 6.983 6.983 0 0 1 2.16-3.893 6.757 6.757 0 0 1 1.96-1.227 6.527 6.527 0 0 1 2.51-.48c.392 0 .774.033 1.144.1l1.074-3.62c.388-1.31 1.55-2.203 2.866-2.203h2.314c1.388 0 2.504.962 2.872 2.216z"/>
        <path fill="#000" fill-opacity=".2" d="M25.626 18.059a1.401 1.401 0 0 1-1.235 1.543l-12.238 1.389a1.39 1.39 0 0 1-1.537-1.23 1.401 1.401 0 0 1 1.235-1.543l12.238-1.389a1.39 1.39 0 0 1 1.537 1.23zM15.6 8.276c.43-.192.854-.288 1.272-.288a1.7 1.7 0 0 1 .845.203c.24.134.426.331.555.59.13.26.195.58.196.961.002.381-.075.818-.23 1.311l-1.35 4.418a1 1 0 0 1-.956.708h-.417a.856.856 0 0 1-.82-1.106l1.23-4.02c.066-.218.11-.402.128-.552a.933.933 0 0 0-.012-.366.31.31 0 0 0-.148-.198.588.588 0 0 0-.28-.059c-.155 0-.326.048-.513.144a2.57 2.57 0 0 0-.568.409c-.19.176-.378.39-.563.641-.185.252-.352.53-.5.837l-1.103 3.565a1 1 0 0 1-.956.705h-.42a.854.854 0 0 1-.815-1.106l3.037-9.833a1 1 0 0 1 .955-.705h.42a.854.854 0 0 1 .816 1.105l-1.088 3.53c.426-.404.855-.702 1.285-.894zm8.53-1.535c.43-.191.854-.287 1.273-.287a1.7 1.7 0 0 1 .845.202c.24.135.425.332.555.591.13.26.195.58.196.96.001.382-.075.819-.23 1.311l-1.35 4.419a1 1 0 0 1-.956.707h-.418a.856.856 0 0 1-.818-1.106l1.228-4.02c.067-.217.11-.401.129-.552a.934.934 0 0 0-.012-.365.31.31 0 0 0-.148-.199.588.588 0 0 0-.28-.058c-.155 0-.326.048-.513.144a2.57 2.57 0 0 0-.568.408c-.19.176-.378.39-.563.642-.186.251-.352.53-.5.836l-1.103 3.566a1 1 0 0 1-.956.704h-.42a.854.854 0 0 1-.815-1.105l3.037-9.834A1 1 0 0 1 22.699 3h.42a.854.854 0 0 1 .816 1.106l-1.088 3.53c.426-.404.854-.703 1.284-.895zm-14.574 5.31a.472.472 0 0 1-.251.063.592.592 0 0 1-.282-.07 6.77 6.77 0 0 1-.282-.16c-.101-.059-.218-.112-.35-.159a1.439 1.439 0 0 0-.476-.07c-.343 0-.602.069-.775.206a.869.869 0 0 0-.323.533.475.475 0 0 0 .055.358.903.903 0 0 0 .274.264c.12.078.259.15.418.214.16.065.32.138.484.218.164.08.322.173.474.276a1.415 1.415 0 0 1 .607.918c.042.208.036.454-.019.74a3.367 3.367 0 0 1-.452 1.146c-.223.36-.505.675-.845.942a4.206 4.206 0 0 1-2.602.875 3.304 3.304 0 0 1-1.344-.288 2.385 2.385 0 0 1-.518-.315 1.474 1.474 0 0 1-.35-.393l.738-.887c.09-.103.186-.185.29-.245a.702.702 0 0 1 .356-.09.47.47 0 0 1 .303.094l.253.202c.09.073.202.14.334.203.132.062.315.093.55.093.328 0 .586-.077.775-.23a.91.91 0 0 0 .343-.54c.03-.16.015-.293-.047-.397a.814.814 0 0 0-.273-.268 2.343 2.343 0 0 0-.417-.202 9.96 9.96 0 0 1-.484-.199 3.518 3.518 0 0 1-.474-.253 1.42 1.42 0 0 1-.386-.361 1.32 1.32 0 0 1-.222-.537c-.041-.213-.033-.47.025-.77.072-.373.207-.736.407-1.09.2-.352.456-.664.77-.936a3.78 3.78 0 0 1 1.1-.658c.42-.166.89-.249 1.407-.249s.961.094 1.33.28c.37.187.661.415.873.685l-.761.856c-.088.093-.166.16-.233.202z"/>
    </g>
</svg>
