<svg xmlns="http://www.w3.org/2000/svg" width="16" height="16" viewBox="0 0 16 16">
    <g fill="none" fill-rule="evenodd">
        <path fill="#EBF5FC" d="M9.78 13.293A3.893 3.893 0 1 1 3.23 10.66V7.732a3.893 3.893 0 1 1 6.42-1.815h1.776v7.376H9.781z"/>
        <path fill="#CCC" fill-rule="nonzero" d="M11.987 8.002a1.993 1.993 0 1 1-1.72 2.995h-.776a4.466 4.466 0 0 1-2.496-.76v1.037a1.997 1.997 0 1 1-1.996 0V6.727a1.997 1.997 0 1 1 2.017-.012 2.49 2.49 0 0 0 2.475 2.286h.776a1.988 1.988 0 0 1 1.72-.999zm-5.99 5.74a.75.75 0 1 0-.002-1.498.75.75 0 0 0 .002 1.499zm0-7.986a.75.75 0 1 0-.002-1.499.75.75 0 0 0 .002 1.5zm5.99 4.992a.75.75 0 1 0-.002-1.5.75.75 0 0 0 .002 1.5z"/>
    </g>
</svg>
