<svg xmlns="http://www.w3.org/2000/svg" xmlns:xlink="http://www.w3.org/1999/xlink" width="28" height="28" viewBox="0 0 28 28">
    <defs>
        <path id="a" d="M11.09 10.864c.901.516 1.899.774 2.98.774a5.924 5.924 0 0 0 5.14-2.893c.527-.882.79-1.86.79-2.92 0-1.059-.263-2.036-.79-2.92A5.824 5.824 0 0 0 17.05.788C16.148.257 15.15 0 14.069 0c-1.08 0-2.078.258-2.978.787a5.725 5.725 0 0 0-2.162 2.119c-.54.883-.804 1.86-.804 2.92 0 1.059.264 2.037.804 2.92.526.895 1.247 1.588 2.162 2.118z"/>
        <path id="b" d="M3.152 18.198c.9.516 1.898.774 2.98.774a5.924 5.924 0 0 0 5.14-2.893c.526-.882.79-1.86.79-2.92 0-1.059-.264-2.036-.79-2.919A5.824 5.824 0 0 0 9.11 8.121c-.9-.53-1.898-.787-2.979-.787-1.08 0-2.078.258-2.979.787A5.725 5.725 0 0 0 .99 10.24c-.54.883-.804 1.86-.804 2.92 0 1.06.264 2.037.804 2.92.527.896 1.247 1.588 2.162 2.118z"/>
    </defs>
    <g fill="none" fill-rule="evenodd">
        <g transform="translate(4 4)">
            <use fill="#3DCC8E" xlink:href="#a"/>
            <path stroke="#FFF" stroke-width="4" d="M10.096 12.599l-.007-.004c-1.22-.707-2.186-1.649-2.866-2.806-.732-1.195-1.098-2.533-1.098-3.963 0-1.43.366-2.769 1.08-3.933a7.688 7.688 0 0 1 2.872-2.83C11.284-1.647 12.63-2 14.07-2s2.785.354 3.961 1.045a7.83 7.83 0 0 1 2.897 2.836A7.602 7.602 0 0 1 22 5.826a7.61 7.61 0 0 1-1.077 3.952 7.931 7.931 0 0 1-6.853 3.86 7.897 7.897 0 0 1-3.974-1.04z"/>
        </g>
        <path fill="#FFF" d="M16.411 12.621c.5.287 1.055.43 1.656.43a3.291 3.291 0 0 0 2.856-1.607c.292-.49.438-1.033.438-1.621 0-.589-.146-1.132-.439-1.622-.3-.498-.692-.89-1.2-1.178a3.21 3.21 0 0 0-1.655-.437c-.6 0-1.155.143-1.656.437a3.18 3.18 0 0 0-1.2 1.178 3.05 3.05 0 0 0-.447 1.622c0 .588.146 1.131.446 1.622.293.498.693.882 1.201 1.176z"/>
        <g transform="translate(4 4)">
            <use fill="#CCC" xlink:href="#b"/>
            <path stroke="#FFF" stroke-width="4" d="M2.158 19.933l-.008-.004C.93 19.222-.036 18.28-.716 17.123c-.731-1.195-1.098-2.533-1.098-3.963 0-1.43.367-2.769 1.08-3.933a7.688 7.688 0 0 1 2.873-2.83c1.206-.71 2.552-1.063 3.992-1.063s2.786.354 3.961 1.045a7.83 7.83 0 0 1 2.897 2.836 7.602 7.602 0 0 1 1.072 3.945 7.61 7.61 0 0 1-1.076 3.952 7.931 7.931 0 0 1-6.854 3.86 7.897 7.897 0 0 1-3.973-1.039z"/>
        </g>
    </g>
</svg>
