<svg xmlns="http://www.w3.org/2000/svg" width="40" height="41" viewBox="0 0 40 41">
    <g fill="none" fill-rule="evenodd">
        <path fill="#FFF" d="M10.289 21.327c.199.343.452.614.777.813-.036.253-.054.47-.054.669 0 .813.235 1.59.686 2.314.47.74 1.138 1.391 2.006 1.952.83.541 1.789.976 2.854 1.265 1.084.289 2.223.434 3.397.434s2.312-.145 3.378-.434a10.226 10.226 0 0 0 2.89-1.265c.868-.56 1.518-1.212 1.988-1.952.452-.724.686-1.5.686-2.314 0-.199-.017-.398-.054-.615.362-.2.633-.47.85-.831A2.24 2.24 0 0 0 30 20.224a2.21 2.21 0 0 0-.669-1.626c-.434-.452-.975-.67-1.608-.67a2.21 2.21 0 0 0-1.517.579c-1.572-1.012-3.45-1.572-5.655-1.663l1.174-3.705 3.18.759c0 .506.199.957.56 1.319.362.362.795.543 1.319.543.506 0 .939-.181 1.319-.56.361-.362.542-.814.542-1.338 0-.507-.18-.94-.542-1.32-.38-.362-.813-.542-1.32-.542-.378 0-.722.109-1.047.308a1.926 1.926 0 0 0-.687.83l-3.504-.83a.358.358 0 0 0-.272.036c-.09.054-.162.126-.18.216l-1.355 4.266c-2.313.036-4.3.597-5.962 1.663-.452-.38-.94-.56-1.5-.56-.632 0-1.174.217-1.607.669A2.21 2.21 0 0 0 10 20.224c0 .398.09.76.289 1.103z"/>
        <path fill="#000" d="M10.289 21.327c.199.343.452.614.777.813-.036.253-.054.47-.054.669 0 .813.235 1.59.686 2.314.47.74 1.138 1.391 2.006 1.952.83.541 1.789.976 2.854 1.265 1.084.289 2.223.434 3.397.434s2.312-.145 3.378-.434a10.226 10.226 0 0 0 2.89-1.265c.868-.56 1.518-1.212 1.988-1.952.452-.724.686-1.5.686-2.314 0-.199-.017-.398-.054-.615.362-.2.633-.47.85-.831A2.24 2.24 0 0 0 30 20.224a2.21 2.21 0 0 0-.669-1.626c-.434-.452-.975-.67-1.608-.67a2.21 2.21 0 0 0-1.517.579c-1.572-1.012-3.45-1.572-5.655-1.663l1.174-3.705 3.18.759c0 .506.199.957.56 1.319.362.362.795.543 1.319.543.506 0 .939-.181 1.319-.56.361-.362.542-.814.542-1.338 0-.507-.18-.94-.542-1.32-.38-.362-.813-.542-1.32-.542-.378 0-.722.109-1.047.308a1.926 1.926 0 0 0-.687.83l-3.504-.83a.358.358 0 0 0-.272.036c-.09.054-.162.126-.18.216l-1.355 4.266c-2.313.036-4.3.597-5.962 1.663-.452-.38-.94-.56-1.5-.56-.632 0-1.174.217-1.607.669A2.21 2.21 0 0 0 10 20.224c0 .398.09.76.289 1.103zm.922-2.188c.289-.289.65-.434 1.065-.434a1.5 1.5 0 0 1 .832.254c-.886.705-1.5 1.5-1.825 2.385a1.42 1.42 0 0 1-.506-1.12c0-.415.145-.777.434-1.085zm2.908.037c.777-.507 1.68-.886 2.692-1.157a12.156 12.156 0 0 1 6.306 0c1.011.27 1.897.65 2.673 1.157.759.505 1.337 1.048 1.735 1.68.397.616.596 1.266.596 1.953 0 .668-.2 1.32-.596 1.952-.398.614-.976 1.175-1.735 1.663-.776.506-1.662.886-2.673 1.156-1.012.272-2.06.416-3.162.416-1.102 0-2.15-.144-3.144-.416-1.012-.27-1.915-.65-2.692-1.156-.759-.488-1.336-1.049-1.734-1.663-.398-.633-.597-1.284-.597-1.952 0-.687.2-1.337.597-1.953.398-.632.975-1.175 1.734-1.68zm2.656 6.489c.669.668 1.734.993 3.216.993h.018c1.482 0 2.547-.325 3.215-.993a.381.381 0 0 0 .11-.29.368.368 0 0 0-.11-.271.366.366 0 0 0-.27-.109.368.368 0 0 0-.271.109c-.524.524-1.41.777-2.674.777h-.018c-1.264 0-2.15-.253-2.674-.777a.368.368 0 0 0-.271-.109.368.368 0 0 0-.38.38c0 .127.037.217.109.29zm10.009-12.888c.289 0 .542.109.759.325.216.218.325.47.325.76 0 .307-.109.56-.325.777-.217.216-.47.325-.76.325-.306 0-.56-.109-.776-.325a1.051 1.051 0 0 1-.325-.777c0-.29.108-.542.325-.76.216-.216.47-.325.777-.325zm.939 5.928c.416 0 .759.145 1.066.434.29.308.433.67.433 1.085 0 .47-.198.867-.577 1.175-.307-.903-.904-1.7-1.789-2.404.253-.199.542-.29.867-.29z"/>
        <path fill="#FF4500" d="M22.032 22.7c.272.272.597.398.994.398.361 0 .687-.126.957-.398a1.34 1.34 0 0 0 .416-.976c0-.38-.144-.705-.416-.976a1.328 1.328 0 0 0-.957-.416c-.38 0-.705.145-.994.416-.27.27-.415.596-.415.976s.144.705.415.976zM16.017 22.7c.27.272.595.398.993.398.361 0 .686-.126.958-.398.27-.271.415-.596.415-.976s-.145-.705-.415-.976a1.33 1.33 0 0 0-.958-.416c-.38 0-.704.145-.993.416-.272.27-.417.596-.417.976s.145.705.417.976z"/>
    </g>
</svg>
