<svg xmlns="http://www.w3.org/2000/svg" width="28" height="28" viewBox="0 0 28 28">
    <g fill="none" fill-rule="evenodd">
        <rect width="24" height="24" x="2" y="2" fill="#FFF" rx="7"/>
        <path fill="#FF4D61" fill-rule="nonzero" d="M17.168 17.196a2.917 2.917 0 0 1-.014-.052H16.02a3.13 3.13 0 0 1-1.499-.38 2.812 2.812 0 1 1 0-5.529 3.13 3.13 0 0 1 1.499-.379h1.127l.015-.059a4.5 4.5 0 1 0 .007 6.399zm3.498-8.306c.4.128.771.348 1.083.653L23 10.748V9.5A4.5 4.5 0 0 0 18.5 5h-9A4.5 4.5 0 0 0 5 9.5v9A4.5 4.5 0 0 0 9.5 23h9a4.5 4.5 0 0 0 4.5-4.5v-1.248l-1.237 1.191a2.752 2.752 0 0 1-1.097.667 2.251 2.251 0 0 1-2.166 1.64h-9a2.25 2.25 0 0 1-2.25-2.25v-9A2.25 2.25 0 0 1 9.5 7.25h9c1.031 0 1.9.694 2.166 1.64zm-.959 1.94a.709.709 0 0 0-1.207.48v1.568h-3.375a1.125 1.125 0 0 0 0 2.25H18.5v1.568a.709.709 0 0 0 1.207.48L23 14.003l-3.293-3.172z"/>
    </g>
</svg>
