<svg xmlns="http://www.w3.org/2000/svg" width="42" height="42" viewBox="0 0 42 42">
    <g fill="none" fill-rule="evenodd">
        <path d="M9 9h24v24H9z"/>
        <path fill="#FFF" d="M13.995 12A1.995 1.995 0 0 0 12 13.995v14.01c0 1.102.896 1.995 1.997 1.995H21v-6.97h-2.346v-2.717H21V18.31c0-2.325 1.42-3.591 3.494-3.591.993 0 1.605.074 1.853.107v2.43H24.91c-1.128 0-1.346.536-1.346 1.323v1.734h2.69l-.35 2.717h-2.34V30h4.435A1.998 1.998 0 0 0 30 28.005v-14.01A1.995 1.995 0 0 0 28.005 12h-14.01z"/>
    </g>
</svg>
