<svg xmlns="http://www.w3.org/2000/svg" width="32" height="32" viewBox="0 0 32 32">
    <path fill="#FFF" fill-rule="evenodd" d="M23 11.4a5.571 5.571 0 0 1-1.65.47 2.977 2.977 0 0 0 1.263-1.652 5.62 5.62 0 0 1-1.824.725A2.819 2.819 0 0 0 18.693 10c-1.587 0-2.873 1.337-2.873 2.986 0 .234.026.462.075.68-2.387-.124-4.504-1.313-5.92-3.12a3.063 3.063 0 0 0-.39 1.502c0 1.036.508 1.95 1.279 2.485a2.778 2.778 0 0 1-1.301-.373v.037c0 1.447.99 2.654 2.303 2.929a2.775 2.775 0 0 1-1.297.05c.366 1.187 1.427 2.05 2.683 2.075A5.625 5.625 0 0 1 9 20.487a7.907 7.907 0 0 0 4.403 1.342c5.283 0 8.172-4.55 8.172-8.497 0-.13-.003-.258-.008-.386A5.972 5.972 0 0 0 23 11.4"/>
</svg>
