<svg xmlns="http://www.w3.org/2000/svg" xmlns:xlink="http://www.w3.org/1999/xlink" width="40" height="42" viewBox="0 0 40 42">
    <defs>
        <path id="a" d="M0 .271h19.91v20H0z"/>
    </defs>
    <g fill="none" fill-rule="evenodd" opacity=".75">
        <g transform="translate(10.1 9.479)">
            <mask id="b" fill="#fff">
                <use xlink:href="#a"/>
            </mask>
            <path fill="#000" d="M9.976 7.947c-4.405 0-7.99 3.506-7.99 7.815 0 4.308 3.585 7.814 7.99 7.814 2.771 0 4.868-.801 6.231-2.381 1.453-1.685 1.758-3.884 1.758-5.433 0-1.934-.855-3.903-2.346-5.402-1.546-1.556-3.55-2.413-5.643-2.413m0 16.823c-5.078 0-9.21-4.041-9.21-9.008 0-4.968 4.132-9.009 9.21-9.009 2.425 0 4.74.985 6.519 2.774 1.71 1.721 2.691 3.993 2.691 6.235 0 2.506-.707 4.651-2.046 6.203-1.606 1.861-4.016 2.805-7.164 2.805" mask="url(#b)"/>
        </g>
        <path fill="#000" d="M15.997 16.831c-.308-.634-.419-1.37-.321-2.154.208-1.676 1.242-3.105 2.438-4.76.081-.11.163-.224.245-.338l1.025.603c-.506 1.077-.448 1.475-.422 1.566.407-.012.895.075 1.45.259a3.476 3.476 0 0 1 2.065 1.828 3.48 3.48 0 0 1 .076 2.827c.276.095.55.203.822.324 1.454.646 2.788 1.734 3.755 3.063 1.007 1.385 1.142 2.942.352 4.064-.773 1.096-2.26 1.515-3.79 1.066-3.527-1.036-6.636-.6-9.24 1.294l-1.474 1.073 1.948-4.843-4.825 6.162v-1.503c0-2.492 0-5.594 2.802-8.424a9.589 9.589 0 0 1 3.094-2.107zm2.67 10.85a.807.807 0 1 1-1.615 0 .807.807 0 0 1 1.615 0zm4.823 0a.807.807 0 1 1-1.615 0 .807.807 0 0 1 1.615 0zM19.197 17.24a.385.385 0 0 0-.53-.052.354.354 0 0 0-.053.51l1.285 1.52-.625.49a.273.273 0 0 0-.041.394l.132.155a.284.284 0 0 0 .391.038l.632-.497.522.62-1.278 1.004a.272.272 0 0 0-.04.393l.575.679a.3.3 0 0 0 .413.04l1.27-1 .359.426a.382.382 0 0 0 .377.123.38.38 0 0 0 .153-.072.354.354 0 0 0 .053-.51l-3.595-4.261z"/>
        <path fill="#000" d="M12.549 13.368l-.106 1.638c-.072 1.208.883 2.245 2.13 2.318l.923.055s-.144-.251.53.543c.905 1.068 3.987-1.656 3.005-2.814-.602-.71-.315-.29-.315-.29l.068-1.075a2.123 2.123 0 0 0-.566-1.589 2.288 2.288 0 0 0-1.563-.734l-1.698-.1a2.413 2.413 0 0 0-.14-.005c-1.197 0-2.194.902-2.268 2.053zm2.302-.404l1.7.101a.565.565 0 0 1 .386.182c.1.108.149.247.14.391l-.105 1.637c-.002.025-.012.047-.017.072 0 0-.588-.776.285.254.393.464-.206.904-.613.424-.875-1.031-.279-.246-.279-.246l-1.67-.1a.55.55 0 0 1-.526-.571l.105-1.638a.553.553 0 0 1 .594-.506z"/>
    </g>
</svg>
