<svg xmlns="http://www.w3.org/2000/svg" xmlns:xlink="http://www.w3.org/1999/xlink" width="21" height="21" viewBox="0 0 21 21">
    <defs>
        <path id="a" d="M11.435 11.005c.664.38 1.399.57 2.195.57a4.365 4.365 0 0 0 3.788-2.131c.388-.65.582-1.37.582-2.151 0-.781-.194-1.501-.582-2.152a4.291 4.291 0 0 0-1.593-1.561A4.257 4.257 0 0 0 13.63 3c-.796 0-1.531.19-2.195.58a4.219 4.219 0 0 0-1.593 1.561 4.046 4.046 0 0 0-.592 2.152c0 .78.194 1.5.592 2.151a4.29 4.29 0 0 0 1.593 1.56z"/>
        <path id="b" d="M5.322 16.672c.664.38 1.4.57 2.196.57a4.365 4.365 0 0 0 3.788-2.131c.387-.65.581-1.37.581-2.151 0-.78-.194-1.501-.582-2.152a4.291 4.291 0 0 0-1.592-1.56 4.257 4.257 0 0 0-2.195-.58c-.797 0-1.532.19-2.196.58a4.219 4.219 0 0 0-1.592 1.56 4.046 4.046 0 0 0-.593 2.152c0 .78.195 1.5.593 2.151a4.29 4.29 0 0 0 1.592 1.56z"/>
    </defs>
    <g fill="none" fill-rule="evenodd">
        <g>
            <use fill="#3DCC8E" xlink:href="#a"/>
            <path stroke="#FFF" stroke-width="3" d="M10.69 12.306l-.006-.003c-.903-.523-1.618-1.22-2.121-2.076a5.545 5.545 0 0 1-.813-2.934c0-1.06.271-2.05.799-2.912a5.69 5.69 0 0 1 2.126-2.094A5.755 5.755 0 0 1 13.63 1.5c1.066 0 2.062.262 2.932.774a5.796 5.796 0 0 1 2.144 2.099c.528.884.794 1.87.794 2.92 0 1.05-.266 2.036-.797 2.925a5.87 5.87 0 0 1-5.073 2.857 5.845 5.845 0 0 1-2.94-.769z"/>
        </g>
        <path fill="#FFF" d="M12.408 9.353c.37.21.778.317 1.22.317a2.425 2.425 0 0 0 2.104-1.184c.216-.362.324-.762.324-1.196 0-.433-.108-.834-.324-1.195a2.384 2.384 0 0 0-.885-.867 2.365 2.365 0 0 0-1.219-.322c-.442 0-.85.105-1.22.322-.374.211-.669.5-.885.867a2.248 2.248 0 0 0-.329 1.195c0 .434.108.834.33 1.196.215.366.51.65.884.867z"/>
        <g>
            <use fill="#3DCC8E" xlink:href="#b"/>
            <path stroke="#FFF" stroke-width="3" d="M4.577 17.973l-.006-.003c-.903-.522-1.618-1.22-2.12-2.076a5.545 5.545 0 0 1-.814-2.934c0-1.059.272-2.05.8-2.912a5.69 5.69 0 0 1 2.125-2.094 5.755 5.755 0 0 1 2.956-.787c1.065 0 2.061.262 2.931.774a5.796 5.796 0 0 1 2.145 2.099c.527.884.793 1.87.793 2.92 0 1.05-.266 2.036-.797 2.926a5.87 5.87 0 0 1-5.072 2.857 5.845 5.845 0 0 1-2.941-.77z"/>
        </g>
    </g>
</svg>
