<svg xmlns="http://www.w3.org/2000/svg" width="24" height="16" viewBox="0 0 24 16">
    <g fill="none" fill-rule="evenodd">
        <path d="M0 0h24v16H0z"/>
        <path fill="#000" fill-opacity=".1" fill-rule="nonzero" d="M13.745 5.066a.498.498 0 0 0-.716.6L13.994 8l3.666 1-3.666.694-.965 2.64a.498.498 0 0 0 .716.6L20.991 9l-7.246-3.934z"/>
        <path fill="#33A0FF" fill-rule="nonzero" d="M9.3 7h.787c.435 0 .788.336.788.75v4.5c0 .414-.353.75-.787.75h-6.3C3.352 13 3 12.664 3 12.25v-4.5c0-.414.353-.75.788-.75h.787v-.75C4.575 5.007 5.633 4 6.937 4 8.242 4 9.3 5.007 9.3 6.25V7zm-3.544 3c0 .621.53 1.125 1.181 1.125.653 0 1.182-.504 1.182-1.125s-.53-1.125-1.181-1.125c-.653 0-1.182.504-1.182 1.125zm2.181-3v-.627c0-.513-.437-.93-.976-.93-.539 0-.976.417-.976.93V7h1.952z"/>
    </g>
</svg>
