<svg xmlns="http://www.w3.org/2000/svg" xmlns:xlink="http://www.w3.org/1999/xlink" width="26" height="28" viewBox="0 0 26 28">
    <defs>
        <path id="a" d="M22.53 9.91l-2.374-2.096-1.26-2.904-3.153-.304L13.015 3l-2.728 1.606-3.152.304-1.26 2.904L3.5 9.91l.69 3.092-.69 3.092 2.374 2.095 1.26 2.905 3.153.303.84.495 1.888 1.111 1.887-1.11.84-.496 3.153-.303 1.26-2.904 2.375-2.096-.69-3.092z"/>
    </defs>
    <g fill="none" fill-rule="evenodd" transform="translate(0 1)">
        <use fill="#D8D8D8" xlink:href="#a"/>
        <path stroke="#FFF" stroke-width="3" d="M23.377 13.002l.81 3.63-2.789 2.461-1.48 3.41-3.7.355-.555.327-2.648 1.56-.761-.449-1.887-1.111-.555-.327-3.701-.356-1.48-3.41-2.788-2.46.81-3.63-.81-3.63L4.632 6.91l1.48-3.41 3.7-.356 3.203-1.886 3.203 1.886 3.701.356 1.48 3.41 2.788 2.46-.81 3.63z"/>
    </g>
</svg>
