<svg xmlns="http://www.w3.org/2000/svg" xmlns:xlink="http://www.w3.org/1999/xlink" width="28" height="28" viewBox="0 0 28 28">
    <defs>
        <path id="a" d="M3.152 11.198c.9.516 1.898.774 2.98.774a5.924 5.924 0 0 0 5.14-2.893c.526-.882.79-1.86.79-2.92 0-1.059-.264-2.036-.79-2.919A5.824 5.824 0 0 0 9.11 1.121C8.21.591 7.212.334 6.13.334c-1.08 0-2.078.258-2.979.787A5.725 5.725 0 0 0 .99 3.24C.45 4.123.186 5.1.186 6.16c0 1.06.264 2.037.804 2.92.527.896 1.247 1.588 2.162 2.118z"/>
    </defs>
    <g fill="none" fill-rule="evenodd" transform="translate(4 11)">
        <use fill="#3DCC8E" xlink:href="#a"/>
        <path stroke="#FFF" stroke-width="4" d="M2.158 12.933l-.008-.004C.93 12.222-.036 11.28-.716 10.123-1.447 8.928-1.814 7.59-1.814 6.16c0-1.43.367-2.769 1.08-3.933a7.688 7.688 0 0 1 2.873-2.83c1.206-.71 2.552-1.063 3.992-1.063s2.786.354 3.961 1.045a7.83 7.83 0 0 1 2.897 2.836 7.602 7.602 0 0 1 1.072 3.945 7.61 7.61 0 0 1-1.076 3.952 7.931 7.931 0 0 1-6.854 3.86 7.897 7.897 0 0 1-3.973-1.039z"/>
    </g>
</svg>
