<svg xmlns="http://www.w3.org/2000/svg" width="11" height="11" viewBox="0 0 11 11">
    <g fill="none" fill-rule="evenodd" transform="translate(-547 -3715)">
        <rect width="439" height="21" x="126.5" y="3709.5" stroke="#000" stroke-opacity=".05" rx="4"/>
        <path fill="#33A0FF" d="M552.405 3722.79a.631.631 0 0 1-.488-.426.454.454 0 0 1-.027-.19c0-.097.004-.123.027-.19a.62.62 0 0 1 .402-.402.455.455 0 0 1 .19-.027c.098 0 .124.004.191.027a.62.62 0 0 1 .402.402.454.454 0 0 1 .027.19.618.618 0 0 1-.426.59.704.704 0 0 1-.298.025zm.377-1.79h-.617l-.185-2.234a.472.472 0 0 1 .468-.517h.105c.281 0 .486.235.457.517l-.228 2.234zm.127 2.903a3.42 3.42 0 0 0 2.44-1.505c.304-.458.485-.957.554-1.524a5.19 5.19 0 0 0 0-.733 3.434 3.434 0 0 0-1.272-2.308 3.474 3.474 0 0 0-1.764-.727 5.197 5.197 0 0 0-.734 0c-.662.08-1.27.33-1.764.727a3.433 3.433 0 0 0-1.272 2.308 5.19 5.19 0 0 0 0 .733 3.434 3.434 0 0 0 1.272 2.308 3.46 3.46 0 0 0 1.906.74c.081.009.52-.004.634-.019zm-1.054 1.05a4.5 4.5 0 0 1-3.812-3.81 3.877 3.877 0 0 1-.043-.645c0-.267.01-.418.043-.645a4.508 4.508 0 0 1 3.811-3.81c.228-.033.379-.043.646-.043s.418.01.645.043a4.508 4.508 0 0 1 3.843 4.069c.007.07.012.243.012.386 0 .348-.024.587-.092.92a4.544 4.544 0 0 1-.69 1.618 4.545 4.545 0 0 1-1.475 1.365c-.554.319-1.2.522-1.842.58-.121.012-.505.02-.601.015a5.74 5.74 0 0 1-.445-.044z"/>
    </g>
</svg>
