<svg xmlns="http://www.w3.org/2000/svg" xmlns:xlink="http://www.w3.org/1999/xlink" width="28" height="28" viewBox="0 0 28 28">
    <defs>
        <path id="a" d="M11.09 10.864c.901.516 1.899.774 2.98.774a5.924 5.924 0 0 0 5.14-2.893c.527-.882.79-1.86.79-2.92 0-1.059-.263-2.036-.79-2.92A5.824 5.824 0 0 0 17.05.788C16.148.257 15.15 0 14.069 0c-1.08 0-2.078.258-2.978.787a5.725 5.725 0 0 0-2.162 2.119c-.54.883-.804 1.86-.804 2.92 0 1.059.264 2.037.804 2.92.526.895 1.247 1.588 2.162 2.118z"/>
        <path id="b" d="M2.997 18.201c.91.533 1.918.799 3.01.799 1.092 0 2.1-.266 3.01-.799a6.045 6.045 0 0 0 2.185-2.184c.532-.91.798-1.918.798-3.01 0-1.092-.266-2.1-.798-3.01-.546-.925-1.26-1.653-2.185-2.185C8.107 7.266 7.1 7 6.007 7c-1.092 0-2.1.266-3.01.812A5.842 5.842 0 0 0 .812 9.996c-.546.91-.812 1.919-.812 3.01 0 1.093.266 2.101.812 3.011.532.924 1.26 1.639 2.185 2.184z"/>
    </defs>
    <g fill="none" fill-rule="evenodd">
        <g transform="translate(4 4)">
            <use fill="#3DCC8E" xlink:href="#a"/>
            <path stroke="#FFF" stroke-width="4" d="M10.096 12.599l-.007-.004c-1.22-.707-2.186-1.649-2.866-2.806-.732-1.195-1.098-2.533-1.098-3.963 0-1.43.366-2.769 1.08-3.933a7.688 7.688 0 0 1 2.872-2.83C11.284-1.647 12.63-2 14.07-2s2.785.354 3.961 1.045a7.83 7.83 0 0 1 2.897 2.836A7.602 7.602 0 0 1 22 5.826a7.61 7.61 0 0 1-1.077 3.952 7.931 7.931 0 0 1-6.853 3.86 7.897 7.897 0 0 1-3.974-1.04z"/>
        </g>
        <path fill="#FFF" d="M16.411 12.621c.5.287 1.055.43 1.656.43a3.291 3.291 0 0 0 2.856-1.607c.292-.49.438-1.033.438-1.621 0-.589-.146-1.132-.439-1.622-.3-.498-.692-.89-1.2-1.178a3.21 3.21 0 0 0-1.655-.437c-.6 0-1.155.143-1.656.437a3.18 3.18 0 0 0-1.2 1.178 3.05 3.05 0 0 0-.447 1.622c0 .588.146 1.131.446 1.622.293.498.693.882 1.201 1.176z"/>
        <g transform="translate(4 4)">
            <use fill="#3DCC8E" xlink:href="#b"/>
            <path stroke="#FFF" stroke-width="4" d="M1.987 19.928l-.007-.004c-1.23-.726-2.2-1.692-2.883-2.878C-1.634 15.826-2 14.464-2 13.006c0-1.456.366-2.819 1.08-4.008a7.805 7.805 0 0 1 2.888-2.902C3.188 5.366 4.55 5 6.008 5c1.457 0 2.82.365 4.007 1.078 1.216.7 2.183 1.671 2.914 2.909A7.866 7.866 0 0 1 14 13.007a7.874 7.874 0 0 1-1.076 4.028 8.053 8.053 0 0 1-2.897 2.893A7.867 7.867 0 0 1 6.007 21a7.867 7.867 0 0 1-4.02-1.072z"/>
        </g>
    </g>
</svg>
