<svg xmlns="http://www.w3.org/2000/svg" xmlns:xlink="http://www.w3.org/1999/xlink" width="26" height="28" viewBox="0 0 26 28">
    <defs>
        <path id="a" d="M22.527 9.909L21.837 13l.69 3.091-2.374 2.096-1.26 2.904-3.152.303-.84.495L13.012 23l-1.886-1.111-.841-.495-3.152-.303-1.26-2.904L3.5 16.09 4.19 13 3.5 9.909l2.374-2.096 1.26-2.904 3.152-.303L13.013 3l2.728 1.606 3.151.303 1.26 2.904 2.375 2.096zm-4.882-.84a1 1 0 0 0-1.408.127l-4.422 5.307-2.252-1.5a1 1 0 1 0-1.109 1.663l3.746 2.497 5.573-6.687a1 1 0 0 0-.128-1.408z"/>
    </defs>
    <g fill="none" fill-rule="nonzero" transform="translate(0 1)">
        <use fill="#33A0FF" fill-rule="evenodd" xlink:href="#a"/>
        <path stroke="#FFF" stroke-width="3" d="M23.374 13l.81 3.63-2.788 2.46-1.48 3.41-3.7.355-.555.327-2.648 1.559-.76-.448-1.888-1.112-.554-.326-3.7-.356-1.48-3.409-2.788-2.46.81-3.63-.81-3.63 2.788-2.46L6.111 3.5l3.7-.356 3.202-1.886 3.203 1.886 3.7.356 1.48 3.409 2.788 2.46-.81 3.63zm-12.108 2.94l-.218.263.503-.073.553.37.426-.512.502-.073-.284-.189 4.642-5.57a.5.5 0 0 1-.769-.64l-4.71 5.652-2.62-1.746a.5.5 0 0 1-.563.827l2.255 1.503.283.189zM8.728 14.25a.502.502 0 0 1-.005-.004l.005.004z"/>
    </g>
</svg>
