<svg xmlns="http://www.w3.org/2000/svg" width="24" height="16" viewBox="0 0 24 16">
    <g fill="none" fill-rule="evenodd">
        <path d="M0 0h24v16H0z"/>
        <path fill="#33A0FF" fill-rule="nonzero" d="M9.3 7h.787c.435 0 .788.336.788.75v4.5c0 .414-.353.75-.787.75h-6.3C3.352 13 3 12.664 3 12.25v-4.5c0-.414.353-.75.788-.75h.787v-.75C4.575 5.007 5.633 4 6.937 4 8.242 4 9.3 5.007 9.3 6.25V7zm-3.544 3c0 .621.53 1.125 1.181 1.125.653 0 1.182-.504 1.182-1.125s-.53-1.125-1.181-1.125c-.653 0-1.182.504-1.182 1.125zm2.181-3v-.627c0-.513-.437-.93-.976-.93-.539 0-.976.417-.976.93V7h1.952zM21.702.153a.74.74 0 0 0-.81-.06L13.39 4.185a.748.748 0 0 0-.021 1.301L15.14 6.53 19.374 3 16 7.125V9l1.438-1.12 1.728 1.017a.748.748 0 0 0 1.109-.48L21.98.916a.74.74 0 0 0-.278-.762z"/>
    </g>
</svg>
