<svg xmlns="http://www.w3.org/2000/svg" xmlns:xlink="http://www.w3.org/1999/xlink" width="32" height="32" viewBox="0 0 32 32">
    <defs>
        <path id="a" d="M0 .217h16v16H0z"/>
    </defs>
    <g fill="none" fill-rule="evenodd" opacity=".75">
        <g transform="translate(8.08 6.783)">
            <mask id="b" fill="#fff">
                <use xlink:href="#a"/>
            </mask>
            <path fill="#000" d="M7.96 6.358c-3.526 0-6.394 2.804-6.394 6.251 0 3.447 2.868 6.252 6.393 6.252 2.218 0 3.896-.641 4.987-1.905 1.162-1.348 1.407-3.108 1.407-4.347 0-1.546-.685-3.121-1.878-4.321-1.237-1.245-2.841-1.93-4.516-1.93m0 13.458c-4.063 0-7.37-3.233-7.37-7.207 0-3.974 3.307-7.207 7.37-7.207 1.941 0 3.793.789 5.217 2.22 1.368 1.376 2.153 3.194 2.153 4.987 0 2.006-.566 3.722-1.637 4.963-1.285 1.489-3.214 2.244-5.733 2.244" mask="url(#b)"/>
        </g>
        <path fill="#000" d="M12.797 12.665c-.246-.507-.334-1.096-.256-1.723.167-1.342.993-2.484 1.95-3.808l.196-.27.82.482c-.405.86-.358 1.18-.337 1.253.325-.01.715.06 1.16.206a2.781 2.781 0 0 1 1.652 1.463 2.784 2.784 0 0 1 .06 2.261c.221.077.44.163.658.26a7.602 7.602 0 0 1 3.004 2.45c.806 1.108.913 2.354.281 3.251-.618.877-1.807 1.212-3.031.853-2.822-.829-5.31-.48-7.392 1.035l-1.18.859 1.559-3.875-3.86 4.93v-1.203c0-1.993 0-4.474 2.241-6.739a7.671 7.671 0 0 1 2.475-1.685zm2.137 8.68a.646.646 0 1 1-1.292 0 .646.646 0 0 1 1.292 0zm3.858 0a.646.646 0 1 1-1.292 0 .646.646 0 0 1 1.292 0zm-3.434-8.353a.308.308 0 0 0-.424-.041.283.283 0 0 0-.043.408l1.028 1.215-.5.393a.218.218 0 0 0-.033.315l.106.124a.227.227 0 0 0 .313.03l.505-.398.418.496-1.022.804a.218.218 0 0 0-.033.314l.46.543a.24.24 0 0 0 .33.032l1.017-.8.287.34a.306.306 0 0 0 .301.1.305.305 0 0 0 .123-.058.283.283 0 0 0 .043-.408l-2.876-3.41z"/>
        <path fill="#000" d="M10.04 9.895l-.085 1.31c-.059.966.706 1.796 1.704 1.854l.738.044s-.115-.201.424.435c.724.854 3.19-1.325 2.404-2.252-.482-.568-.252-.232-.252-.232l.054-.86c.031-.468-.13-.919-.452-1.27a1.83 1.83 0 0 0-1.251-.588l-1.358-.08a1.93 1.93 0 0 0-.112-.004c-.958 0-1.756.722-1.815 1.643zm1.841-.324l1.36.081c.12.007.23.059.308.145.08.087.12.198.112.314l-.084 1.309c0 .02-.01.038-.013.057 0 0-.47-.62.228.204.315.37-.165.723-.49.339-.7-.825-.223-.197-.223-.197l-1.337-.08a.44.44 0 0 1-.42-.457l.084-1.31a.442.442 0 0 1 .475-.405z"/>
    </g>
</svg>
