<svg xmlns="http://www.w3.org/2000/svg" width="32" height="32" viewBox="0 0 32 32">
    <defs>
        <path id="a" d="M0 16h16V0H0v16z"/>
    </defs>
    <g fill="none" fill-rule="evenodd">
        <path fill="#000" fill-opacity=".75" d="M15.26 17.242L11.5 10h1.718l2.212 4.583c.034.082.074.166.12.254.044.087.084.178.118.27a.54.54 0 0 1 .051.097c.012.03.023.056.034.079.055.112.106.225.153.34.046.112.085.214.12.307.09-.198.19-.411.297-.638.108-.228.219-.464.332-.709L18.9 10H20.5l-3.794 7.33V22H15.26v-4.758z"/>
    </g>
</svg>
