<svg xmlns="http://www.w3.org/2000/svg" xmlns:xlink="http://www.w3.org/1999/xlink" width="32" height="32" viewBox="0 0 32 32">
    <defs>
        <path id="a" d="M0 11.536h13.763V.044H.001z"/>
    </defs>
    <g fill="none" fill-rule="evenodd">
        <path fill="#3DCC8E" d="M11.92 11.494a.81.81 0 0 1-.757-.854l.06-.972a.81.81 0 0 1 .856-.758l.972.06c.215.013.412.11.556.272.143.162.214.37.2.586l-.06.97a.588.588 0 0 1-.02.124l-.035.169-.64.473-1.131-.07z"/>
        <path fill="#282828" d="M12.03 8.42a1.3 1.3 0 0 0-1.294 1.217l-.06.971v.004a1.3 1.3 0 0 0 1.215 1.37l.953.059.356.022.286-.212.346-.256.3-.223.07-.337c.013-.052.028-.122.033-.207l.06-.97a1.288 1.288 0 0 0-.323-.94 1.287 1.287 0 0 0-.892-.435l-.97-.06h-.002a1.305 1.305 0 0 0-.077-.003m.726 2.119l.035-.577-.577-.036-.036.577.578.036m-.726-1.142h.02l.97.06a.318.318 0 0 1 .3.34l-.06.97c-.001.015-.007.028-.01.043l-.346.256-.954-.059a.321.321 0 0 1-.3-.339l.06-.97a.32.32 0 0 1 .32-.3"/>
        <g transform="translate(9.153 12.574)">
            <mask id="b" fill="#fff">
                <use xlink:href="#a"/>
            </mask>
            <path fill="#FFF" d="M6.882.044C3.082.044.001 3.025.001 6.702c0 1.368.426 2.639 1.157 3.696h11.725c.617-1.09.88-2.382.88-3.696 0-3.403-3.08-6.658-6.88-6.658" mask="url(#b)"/>
        </g>
        <path fill="#282827" d="M16.036 12.13c-4.064 0-7.37 3.203-7.37 7.141 0 1.354.39 2.622 1.069 3.702h1.177a6.039 6.039 0 0 1-1.27-3.702c0-3.416 2.869-6.195 6.394-6.195 1.674 0 3.278.68 4.515 1.913 1.193 1.189 1.877 2.75 1.877 4.282 0 1.05-.178 2.476-.956 3.702h1.115c.538-1.05.818-2.305.818-3.702 0-1.776-.785-3.578-2.153-4.942-1.424-1.418-3.276-2.2-5.216-2.2"/>
        <path fill="#282827" d="M14.821 21.497a.66.66 0 1 1-1.321 0 .66.66 0 0 1 1.321 0M18.821 21.497a.66.66 0 1 1-1.321 0 .66.66 0 0 1 1.321 0"/>
        <path fill="#FF6F21" d="M8.528 21.235l3.666-3.889-.882 2.767c2.863-2.083 5.868-1.754 7.984-1.132 2.246.66 3.819-1.325 2.28-3.44a7.24 7.24 0 0 0-2.875-2.348c-2.99-1.328-5.995-.554-8.022 1.494-2.148 2.17-2.151 4.576-2.151 6.548"/>
        <path fill="#282827" d="M15.691 13.025c-.426 0-.848.042-1.264.128-1.267.26-2.443.91-3.401 1.878-1.593 1.608-1.923 3.334-1.992 4.955l4.278-4.538L12.18 19c2.128-1.113 4.562-1.277 7.254-.487.856.251 1.632.06 2.026-.497.404-.574.3-1.392-.28-2.188a6.781 6.781 0 0 0-2.678-2.188 6.922 6.922 0 0 0-2.811-.614zm-7.652 9.44v-1.23c0-2.039 0-4.576 2.292-6.891 1.095-1.106 2.443-1.849 3.9-2.148 1.532-.316 3.147-.125 4.668.55a7.774 7.774 0 0 1 3.071 2.507c.824 1.133.935 2.407.288 3.324-.632.897-1.848 1.24-3.1.872-2.885-.847-5.429-.491-7.559 1.059l-1.206.878.683-2.142-3.037 3.22z"/>
        <path fill="#FF6F21" d="M17.792 12.252a2.398 2.398 0 0 1-2.863 1.436c-1.316-.37-2.011-1.428-1.844-2.77.166-1.334 1.067-2.503 2.106-3.945-.853 1.817-.128 1.987.101 1.978.227-.009.558.03 1.029.186a2.38 2.38 0 0 1 1.471 3.115"/>
        <path fill="#282827" d="M14.423 8.92c-.45.707-.767 1.364-.854 2.059-.136 1.1.421 1.937 1.492 2.239.93.262 1.93-.24 2.275-1.141a1.878 1.878 0 0 0-.055-1.49 1.875 1.875 0 0 0-1.114-.986c-.435-.145-.705-.168-.855-.162a.943.943 0 0 1-.889-.519m1.135 5.343c-.253 0-.509-.034-.762-.105-.758-.213-1.364-.635-1.752-1.22-.387-.584-.54-1.303-.444-2.08.17-1.372 1.016-2.54 1.995-3.894l.2-.277.838.494c-.413.88-.366 1.207-.344 1.281.333-.01.732.06 1.186.211.75.25 1.35.781 1.69 1.496.338.716.367 1.517.083 2.258a2.893 2.893 0 0 1-2.69 1.836"/>
        <path fill="#3DCC8E" d="M16.558 16.578a.565.565 0 0 1-.44-.209l-.328-.402a.566.566 0 0 1 .057-.775.558.558 0 0 1-.186-.148l-.075-.092a.566.566 0 0 1 .08-.796l.047-.038-.481-.591a.615.615 0 0 1 .952-.778l2.053 2.527a.615.615 0 0 1-.477 1.003.612.612 0 0 1-.425-.17l-.419.341a.568.568 0 0 1-.358.128"/>
        <path fill="#282828" d="M16.493 12.496a1.011 1.011 0 0 0-1.425-.144 1.016 1.016 0 0 0-.145 1.428l.267.328a.967.967 0 0 0 .086 1.097l.05.061a.965.965 0 0 0 .155.954l.328.402a.963.963 0 0 0 1.36.138l.197-.161a1.014 1.014 0 0 0 1.18-1.576l-2.05-2.524-.003-.003zm-.785.427c.063 0 .124.027.167.08l2.052 2.525a.215.215 0 1 1-.333.272l-.205-.252-.725.592a.167.167 0 0 1-.236-.023l-.328-.403a.165.165 0 0 1 .023-.233l.73-.595-.299-.367-.36.295a.158.158 0 0 1-.224-.023l-.075-.092a.166.166 0 0 1 .024-.233l.356-.291-.733-.9a.215.215 0 0 1 .166-.352z"/>
    </g>
</svg>
