<svg xmlns="http://www.w3.org/2000/svg" width="13" height="13" viewBox="0 0 13 13">
    <g fill="none" fill-rule="evenodd" transform="translate(-532 -3714)">
        <rect width="439" height="21" x="126.5" y="3709.5" stroke="#000" stroke-opacity=".05" rx="4"/>
        <path fill="#000" fill-opacity=".4" d="M532 3720.504c0-.207.04-.402.12-.585a1.515 1.515 0 0 1 .796-.8c.182-.08.375-.119.58-.119.208 0 .402.04.584.119a1.529 1.529 0 0 1 .8.8c.08.183.12.378.12.585 0 .207-.04.401-.12.583a1.51 1.51 0 0 1-.8.794c-.182.08-.376.119-.584.119-.205 0-.398-.04-.58-.119a1.528 1.528 0 0 1-.796-.794 1.436 1.436 0 0 1-.12-.583zm5 0c0-.207.04-.402.12-.585a1.515 1.515 0 0 1 .796-.8c.182-.08.375-.119.58-.119.208 0 .402.04.584.119a1.529 1.529 0 0 1 .8.8c.08.183.12.378.12.585 0 .207-.04.401-.12.583a1.51 1.51 0 0 1-.8.794c-.182.08-.376.119-.584.119-.205 0-.398-.04-.58-.119a1.528 1.528 0 0 1-.796-.794 1.436 1.436 0 0 1-.12-.583zm5 0c0-.207.04-.402.12-.585a1.515 1.515 0 0 1 .796-.8c.182-.08.375-.119.58-.119.208 0 .402.04.584.119a1.529 1.529 0 0 1 .8.8c.08.183.12.378.12.585 0 .207-.04.401-.12.583a1.51 1.51 0 0 1-.8.794c-.182.08-.376.119-.584.119-.205 0-.398-.04-.58-.119a1.528 1.528 0 0 1-.796-.794 1.436 1.436 0 0 1-.12-.583z"/>
    </g>
</svg>
