<svg xmlns="http://www.w3.org/2000/svg" width="16" height="16" viewBox="0 0 16 16">
    <g fill="none" fill-rule="evenodd">
        <path d="M0 0h16v16H0z"/>
        <path fill="#000" fill-rule="nonzero" d="M4.508 6.87L8 12l3.492-5.13-1.115-1.24a2.7 2.7 0 0 1-.58-2.582H6.203a2.7 2.7 0 0 1-.58 2.582L4.508 6.87zm-2.15-.6l1.779-1.978a.7.7 0 0 0 .15-.669L3 1h10l-1.287 2.623a.7.7 0 0 0 .15.67l1.78 1.976a.7.7 0 0 1 .068.847C10.286 12.428 8.383 15.084 8 15.084s-2.286-2.656-5.711-7.968a.7.7 0 0 1 .069-.847z"/>
        <path fill="#000" fill-rule="nonzero" d="M8.5 7.866v5.454h-1V7.866a1 1 0 1 1 1 0zM11 16h3a1 1 0 0 0 0-2h-3a1 1 0 0 0 0 2z"/>
    </g>
</svg>
