<svg xmlns="http://www.w3.org/2000/svg" width="16" height="16" viewBox="0 0 16 16">
    <path fill="#000" fill-rule="evenodd" d="M15.756 7.132c0 .93-.146 1.78-.439 2.55-.293.772-.704 1.372-1.234 1.8-.53.43-1.143.645-1.84.645-.513 0-.958-.137-1.336-.41a1.986 1.986 0 0 1-.76-1.112h-.118c-.318.507-.712.888-1.18 1.141-.469.254-.995.38-1.58.38-1.06 0-1.895-.34-2.503-1.024-.608-.682-.912-1.606-.912-2.77 0-1.34.403-2.428 1.21-3.264.806-.835 1.889-1.253 3.248-1.253.495 0 1.042.044 1.644.131.602.088 1.137.21 1.605.366l-.215 4.537v.234c0 1.04.339 1.56 1.015 1.56.514 0 .922-.33 1.224-.994.303-.664.454-1.51.454-2.537 0-1.112-.228-2.09-.683-2.932a4.725 4.725 0 0 0-1.941-1.946c-.84-.455-1.802-.683-2.888-.683-1.386 0-2.59.286-3.615.859a5.7 5.7 0 0 0-2.346 2.453c-.54 1.064-.81 2.298-.81 3.703 0 1.886.504 3.336 1.512 4.351 1.008 1.015 2.456 1.522 4.342 1.522 1.437 0 2.936-.293 4.497-.878v1.6c-1.366.56-2.852.839-4.458.839-2.407 0-4.283-.649-5.63-1.946C.674 12.756 0 10.946 0 8.624c0-1.697.364-3.208 1.093-4.531.728-1.324 1.738-2.337 3.029-3.04C5.413.352 6.875 0 8.507 0c1.412 0 2.669.293 3.771.878a6.237 6.237 0 0 1 2.566 2.502c.608 1.083.912 2.334.912 3.752zM5.726 8.37c0 1.515.596 2.273 1.786 2.273 1.255 0 1.942-.953 2.059-2.859l.117-2.331a5.039 5.039 0 0 0-1.317-.166c-.833 0-1.482.276-1.947.83-.465.552-.697 1.303-.697 2.253z"/>
</svg>
