<?xml version="1.0" encoding="UTF-8"?>
<svg width="16px" height="16px" viewBox="0 0 16 16" version="1.1" xmlns="http://www.w3.org/2000/svg" xmlns:xlink="http://www.w3.org/1999/xlink">
    <!-- Generator: sketchtool 49.3 (51167) - http://www.bohemiancoding.com/sketch -->
    <title>C6B4E501-F5C6-48A8-940D-1CA778B2E2EF</title>
    <desc>Created with sketchtool.</desc>
    <defs></defs>
    <g id="Colors,-icons" stroke="none" stroke-width="1" fill="none" fill-rule="evenodd">
        <g id="Icons-2" transform="translate(-399.000000, -307.000000)" fill="#000000" fill-rule="nonzero">
            <g id="kb-iconfont-crown-admin-16" transform="translate(399.000000, 307.000000)">
                <path d="M2.99993382,14.999671 L13.0002488,14.999671 C13.5524427,14.999671 14.0000843,14.5520294 14.0000843,13.9998355 L14.0000843,13.9998355 C14.0000843,13.4476416 13.5524427,13 13.0002488,13 L2.99993382,13 C2.44773992,13 2.00009832,13.4476416 2.00009832,13.9998355 L2.00009832,13.9998355 C2.00009832,14.5520294 2.44773992,14.999671 2.99993382,14.999671 Z M15.0000831,4.0072098 C15.5338707,4.0058574 15.9740975,4.42501483 15.9989046,4.95822738 C16.0237117,5.49143993 15.6243038,5.94966034 15.0926964,5.99787414 L14.0000843,12.0072005 L2.00009832,12.0072005 L0.907446258,5.99784748 C0.497938695,5.96017318 0.153367375,5.67538084 0.039269637,5.28028908 C-0.0748281006,4.88519731 0.0648669593,4.46055469 0.39124317,4.21036603 C0.71761938,3.96017737 1.1639722,3.93557605 1.51586691,4.14838093 C1.86776161,4.3611858 2.0532782,4.76790396 1.98329167,5.17314177 C3.30409013,5.67741452 5.14296131,6.38220703 5.14296131,6.38220703 L7.34562541,2.49537157 C6.81749438,2.19777026 6.55653582,1.58140284 6.71041709,0.995050148 C6.86429836,0.408697457 7.39429728,-9.26059049e-05 8.00050592,1.57361018e-08 C8.60671456,9.26373771e-05 9.13658854,0.409044636 9.29029063,0.995444323 C9.44399273,1.58184401 9.18284583,2.19813166 8.65462388,2.49557157 L10.8571746,6.3822337 L14.017171,5.1762351 C13.962125,4.88534133 14.0407258,4.58510974 14.2312526,4.35850701 C14.4217793,4.13190428 14.704058,4.00292434 15.0000831,4.0072098 Z M8,7.5 L6.58578644,8.91421356 L8,10.3284271 L9.41421356,8.91421356 L8,7.5 Z" id="crown"></path>
            </g>
        </g>
    </g>
</svg>