<svg xmlns="http://www.w3.org/2000/svg" width="16" height="16" viewBox="0 0 16 16">
    <path fill="#000" fill-rule="evenodd" d="M15 3.4a5.571 5.571 0 0 1-1.65.47 2.977 2.977 0 0 0 1.263-1.652 5.62 5.62 0 0 1-1.824.725A2.819 2.819 0 0 0 10.693 2C9.106 2 7.82 3.337 7.82 4.986c0 .234.026.462.075.68-2.387-.124-4.504-1.313-5.92-3.12a3.063 3.063 0 0 0-.39 1.502c0 1.036.508 1.95 1.279 2.485a2.778 2.778 0 0 1-1.301-.373v.037c0 1.447.99 2.654 2.303 2.929a2.775 2.775 0 0 1-1.297.05c.366 1.187 1.427 2.05 2.683 2.075A5.625 5.625 0 0 1 1 12.487a7.907 7.907 0 0 0 4.403 1.342c5.283 0 8.172-4.55 8.172-8.497 0-.13-.003-.258-.008-.386A5.972 5.972 0 0 0 15 3.4"/>
</svg>
