<?xml version="1.0" encoding="UTF-8"?>
<svg width="16px" height="16px" viewBox="0 0 16 16" version="1.1" xmlns="http://www.w3.org/2000/svg" xmlns:xlink="http://www.w3.org/1999/xlink">
    <!-- Generator: sketchtool 49.3 (51167) - http://www.bohemiancoding.com/sketch -->
    <title>F940E414-FE0E-4499-9E20-20DB0166D917</title>
    <desc>Created with sketchtool.</desc>
    <defs></defs>
    <g id="Colors,-icons" stroke="none" stroke-width="1" fill="none" fill-rule="evenodd">
        <g id="Icons-2" transform="translate(-399.000000, -187.000000)" fill="#000000" fill-rule="nonzero">
            <g id="kb-iconfont-people-16" transform="translate(399.000000, 187.000000)">
                <g id="Group" transform="translate(0.000000, 1.000000)">
                    <path d="M-1.23302416e-16,10.7943849 L-2.22044605e-16,10.7943849 C-1.60523029e-16,11.2967467 0.240459765,11.7687572 0.646837665,12.064095 L0.993933691,12.3163492 C1.27358137,12.5195849 1.66503571,12.4576408 1.86827144,12.1779931 C1.94600107,12.071039 1.98786738,11.9422184 1.98786738,11.8100023 L1.98786738,10.1317625 C1.99684152,9.34165005 2.26358996,8.57608149 2.74755078,7.95146953 C1.13079173,8.43889461 -1.23302416e-16,9.52869652 -1.23302416e-16,10.7943849 Z M10.9332706,2.98180107 C10.9332706,1.33499781 9.59827279,0 7.95146953,0 C6.30466627,0 4.96966846,1.33499781 4.96966846,2.98180107 C4.97155266,4.62782324 6.30544736,5.96171795 7.95146953,5.96360215 C9.59827279,5.96360215 10.9332706,4.62860433 10.9332706,2.98180107 Z M3.64442354,2.98180107 C3.64446005,2.69332418 3.67339995,2.40557673 3.73080963,2.12287008 C3.49042412,2.03638321 3.23725528,1.99075158 2.98180107,1.98786738 C1.90916139,1.98118198 0.971888636,2.71094162 0.715399284,3.75248556 C0.458909933,4.79402951 0.950134329,5.87556913 1.90321985,6.36773636 C2.85630536,6.85990359 4.02254639,6.63426846 4.72328555,5.82213225 C4.02870003,5.03897812 3.64491975,4.0285958 3.64442354,2.98180107 Z M13.2524492,7.95146953 C13.73641,8.57608149 14.0031585,9.34165005 14.0121326,10.1317625 L14.0121326,11.8100023 C14.0121326,12.155701 14.2923768,12.4359452 14.6380755,12.4359452 C14.7702915,12.4359452 14.8991121,12.3940788 15.0060663,12.3163492 L15.3531623,12.064095 C15.7595402,11.7687572 16,11.2967467 16,10.7943849 C16,9.52859713 14.8692083,8.43880847 13.2524492,7.95146953 Z M15.2403166,4.307046 C15.2388232,3.02681812 14.2013659,1.9893608 12.921138,1.98786738 C12.6656838,1.99075158 12.4125149,2.03638321 12.1721294,2.12287008 C12.4413626,3.44341728 12.0737317,4.81369013 11.1796535,5.82213225 C11.8103586,6.5559891 12.8317044,6.81881294 13.7382988,6.48055076 C14.6448932,6.14228858 15.2444603,5.27468104 15.2403166,4.307046 Z M7.95146953,7.28884707 C5.3938396,7.28884707 3.3131123,8.68680818 3.3131123,10.40524 L3.31313658,11.153023 C3.31313658,11.9133014 3.74420931,12.6078321 4.42551249,12.9452477 C5.47462174,13.4648194 6.58846516,13.7246052 7.76704275,13.7246052 C8.98134707,13.7246052 10.1973427,13.4488307 11.4150297,12.8972815 L11.4150258,12.897273 C12.1303143,12.5732843 12.5898268,11.8606968 12.5898268,11.075454 L12.5898268,10.40524 C12.5898268,8.68680818 10.5092651,7.28884707 7.95146953,7.28884707 Z" id="team"></path>
                </g>
            </g>
        </g>
    </g>
</svg>