<svg xmlns="http://www.w3.org/2000/svg" xmlns:xlink="http://www.w3.org/1999/xlink" width="16" height="16" viewBox="0 0 16 16">
    <defs>
        <path id="a" d="M16 11.268A1.99 1.99 0 0 0 15 11a2 2 0 1 0-4 0 2 2 0 1 0 0 4c0 .364.097.706.268 1H0V0h16v11.268zm0 3.464V16h-1.268A1.99 1.99 0 0 0 15 15a1.99 1.99 0 0 0 1-.268z"/>
    </defs>
    <g fill="none" fill-rule="evenodd">
        <mask id="b" fill="#fff">
            <use xlink:href="#a"/>
        </mask>
        <path fill="#000" fill-rule="nonzero" d="M6.652 6.656a.667.667 0 1 0 0 1.335.667.667 0 0 0 0-1.335zm9.345.667a1.889 1.889 0 0 0-1.128-1.722c.117-.169.205-.356.26-.554a1.755 1.755 0 0 0-.22-1.422 2.062 2.062 0 0 0-1.93-.9 1.749 1.749 0 0 0-.046-.588A1.922 1.922 0 0 0 11.992.95a2.13 2.13 0 0 0-2.19.154 2.002 2.002 0 0 0-3.577 0 2.13 2.13 0 0 0-2.19-.154 1.922 1.922 0 0 0-.967 1.188c-.049.192-.064.39-.047.587a2.062 2.062 0 0 0-1.929.901c-.273.421-.353.939-.22 1.422.055.198.143.385.26.554a1.876 1.876 0 0 0 0 3.444 1.835 1.835 0 0 0-.26.554 1.755 1.755 0 0 0 .22 1.422 2.05 2.05 0 0 0 1.729.908h.2c-.017.201-.002.404.047.6.136.496.466.917.914 1.168.21.103.436.169.668.194V16h2.67v-2.002h1.335V16h2.67v-2.11c.231-.024.457-.09.667-.193.473-.244.824-.675.968-1.188.048-.196.064-.399.046-.6h.2a2.05 2.05 0 0 0 1.73-.908c.272-.42.353-.938.22-1.422a1.835 1.835 0 0 0-.26-.554 1.889 1.889 0 0 0 1.1-1.702zm-4.546.948h-.127v1.722a2.67 2.67 0 0 1-2.67 2.67H7.32a2.67 2.67 0 0 1-2.67-2.67V8.264h-.127c-1.035 0-1.876-.407-1.876-.914 0-.507.841-.908 1.876-.908h.254a3.337 3.337 0 0 1 6.42 0h.254c1.035 0 1.876.407 1.876.908 0 .5-.841.92-1.876.92zM9.322 6.656a.667.667 0 1 0 0 1.335.667.667 0 0 0 0-1.335z" mask="url(#b)"/>
        <path fill="#000" fill-rule="nonzero" d="M14 12v-1a1 1 0 0 0-2 0v1h-1a1 1 0 0 0 0 2h1v1a1 1 0 0 0 2 0v-1h1a1 1 0 0 0 0-2h-1z"/>
    </g>
</svg>
