<svg xmlns="http://www.w3.org/2000/svg" width="24" height="24" viewBox="0 0 24 24">
    <path fill="#000" fill-rule="evenodd" d="M5.116 10.79c1.228.424 2.607 1.223 2.607 2.043v.298c0 1.083-1.986 1.33-3.85 1.33-1.861 0-3.873-.247-3.873-1.33v-.298c0-.796 1.373-1.602 2.543-2.044.084-.032.489-.262.263-.881-.58-.619-1.018-1.62-1.018-2.606C1.788 5.792 2.744 5 3.862 5c1.117 0 2.079.792 2.079 2.302 0 .982-.44 1.98-1.016 2.6h.002c-.22.702.133.868.19.887zm16.277 0C22.62 11.213 24 12.012 24 12.832v.298c0 1.083-1.986 1.33-3.85 1.33-1.861 0-3.873-.247-3.873-1.33v-.298c0-.796 1.373-1.602 2.543-2.044.084-.032.489-.262.263-.881-.58-.619-1.018-1.62-1.018-2.606 0-1.51.956-2.302 2.074-2.302 1.117 0 2.078.792 2.078 2.302 0 .982-.44 1.98-1.016 2.6h.003c-.22.702.133.868.189.887zm-7.41 3.15c1.896.656 4.026 1.89 4.026 3.155v.46c0 1.674-3.066 2.054-5.945 2.054-2.875 0-5.981-.38-5.981-2.054v-.46c0-1.228 2.12-2.472 3.927-3.155.13-.05.755-.405.405-1.36-.895-.956-1.571-2.503-1.571-4.025C8.844 6.222 10.32 5 12.047 5c1.725 0 3.21 1.223 3.21 3.555 0 1.516-.68 3.056-1.57 4.014h.005c-.342 1.084.205 1.341.291 1.37z"/>
</svg>
