<svg xmlns="http://www.w3.org/2000/svg" xmlns:xlink="http://www.w3.org/1999/xlink" width="16" height="16" viewBox="0 0 16 16">
    <defs>
        <path id="a" d="M0 0h16v16H0z"/>
    </defs>
    <g fill="none" fill-rule="evenodd">
        <mask id="b" fill="#fff">
            <use xlink:href="#a"/>
        </mask>
        <g mask="url(#b)">
            <path fill="#000" fill-rule="nonzero" d="M5.764 5.894l-.757-.757.942-.942.758.757L8.12 3.538l.98.98a5.332 5.332 0 1 1-3.771 3.77l-.98-.98 1.414-1.414zm4.34 1.478a1 1 0 1 0 1.413-1.413 1 1 0 0 0-1.413 1.413z"/>
            <path fill="#000" d="M5 5.16V4.7a1 1 0 1 0-2 0V8a1 1 0 1 1-2 0V4.7a3 3 0 1 1 6 0v.428L5 5.16z"/>
        </g>
        <path fill="#000" fill-rule="nonzero" d="M1.786 11.786L2.5 10l.714 1.786L5 12.5l-1.786.714L2.5 15l-.714-1.786L0 12.5z"/>
    </g>
</svg>
