<svg xmlns="http://www.w3.org/2000/svg" width="16" height="16" viewBox="0 0 16 16">
    <g fill="#000" fill-rule="evenodd" transform="translate(3)">
        <path fill-rule="nonzero" d="M1.5 2.423v11.154c0 .509.396.923.882.923h6.236c.483 0 .882-.416.882-.923V2.423c0-.509-.396-.923-.882-.923H2.382c-.483 0-.882.416-.882.923zM0 1.994C0 .893.9 0 1.992 0h7.016C10.108 0 11 .895 11 1.994v12.012C11 15.107 10.1 16 9.008 16H1.992C.892 16 0 15.105 0 14.006V1.994z"/>
        <circle cx="5.5" cy="4.5" r="2"/>
        <path d="M3 8.75c0-.414.328-.75.76-.75h3.48c.42 0 .76.333.76.75 0 .414-.328.75-.76.75H3.76A.753.753 0 0 1 3 8.75zm0 3c0-.414.328-.75.76-.75h3.48c.42 0 .76.333.76.75 0 .414-.328.75-.76.75H3.76a.753.753 0 0 1-.76-.75z"/>
    </g>
</svg>
