<svg xmlns="http://www.w3.org/2000/svg" width="16" height="16" viewBox="0 0 16 16">
    <g fill="none" fill-rule="evenodd">
        <path d="M0 0h16v16H0z"/>
        <g fill="#000">
            <path fill-rule="nonzero" d="M4 5v9h8V5H4zm10 0v9a2 2 0 0 1-2 2H4a2 2 0 0 1-2-2V5H1a1 1 0 1 1 0-2h14a1 1 0 0 1 0 2h-1zM5 0h6a1 1 0 0 1 0 2H5a1 1 0 1 1 0-2z"/>
            <rect width="1" height="6" x="6" y="6.5" rx=".5"/>
            <rect width="1" height="6" x="9" y="6.5" rx=".5"/>
        </g>
    </g>
</svg>
