<?xml version="1.0" encoding="UTF-8"?>
<svg width="16px" height="16px" viewBox="0 0 16 16" version="1.1" xmlns="http://www.w3.org/2000/svg" xmlns:xlink="http://www.w3.org/1999/xlink">
    <!-- Generator: sketchtool 49.3 (51167) - http://www.bohemiancoding.com/sketch -->
    <title>98212232-2EA2-4EC1-92E7-B6EA065C1704</title>
    <desc>Created with sketchtool.</desc>
    <defs></defs>
    <g id="Colors,-icons" stroke="none" stroke-width="1" fill="none" fill-rule="evenodd">
        <g id="Icons-2" transform="translate(-338.000000, -218.000000)">
            <g id="kb-iconfont-folder-private-me-16" transform="translate(338.000000, 218.000000)">
                <rect id="icon-area" fill="#FFFFFF" opacity="0" x="0" y="0" width="16" height="16"></rect>
                <g id="Group-7" transform="translate(0.000000, 1.000000)" fill="#000000" fill-rule="nonzero">
                    <path d="M7.33324667,2 L5.9999,0 L1.33334667,0 C0.596974887,3.68158279e-05 3.68158279e-05,0.596974887 0,1.33334667 L0,12.5 C3.68158279e-05,13.2363718 0.596974887,13.9999632 1.33334667,14 L14.6666533,14 C15.4030251,13.9999632 15.9999632,13.2363718 16,12.5 L16,3.5 C15.9999632,2.76362822 15.4030251,2.00003682 14.6666533,2 L7.33324667,2 Z M10.0001,6.00006 C10.0001,7.10464055 9.10466055,8.00008 8.00008,8.00008 C6.89549946,8.00008 6.00006,7.10464055 6.00006,6.00006 C6.00132381,4.89600337 6.89602337,4.00130381 8.00008,4.00004 C9.10466055,4.00004 10.0001,4.89547946 10.0001,6.00006 Z M4.71278046,12.00012 C5.04035369,10.4458726 6.41169127,9.33343176 8.00008333,9.33343176 C9.5884754,9.33343176 10.959813,10.4458726 11.2873862,12.00012 L4.71278046,12.00012 Z" id="folder-user"></path>
                </g>
            </g>
        </g>
    </g>
</svg>