<?xml version="1.0" encoding="UTF-8"?>
<svg width="16px" height="16px" viewBox="0 0 16 16" version="1.1" xmlns="http://www.w3.org/2000/svg" xmlns:xlink="http://www.w3.org/1999/xlink">
    <!-- Generator: sketchtool 49.3 (51167) - http://www.bohemiancoding.com/sketch -->
    <title>C74E2C9B-A961-4719-AA9D-6A7C23DABCD4</title>
    <desc>Created with sketchtool.</desc>
    <defs></defs>
    <g id="Colors,-icons" stroke="none" stroke-width="1" fill="none" fill-rule="evenodd">
        <g id="Icons-2" transform="translate(-462.000000, -425.000000)">
            <g id="kb-iconfont-star-16" transform="translate(462.000000, 425.000000)">
                <g id="star">
                    <rect id="Rectangle-3" x="1" y="0" width="15" height="15"></rect>
                    <path d="M15.7310688,6.93128582 C15.9734808,6.67816756 16.0601507,6.31379303 15.9576652,5.97863762 C15.8551797,5.6434822 15.5795461,5.38989469 15.2370281,5.31563932 L10.7973384,4.6480168 C10.7973384,4.6480168 10.7973384,4.6480168 10.7973384,4.6480168 L8.90796663,0.595548088 C8.75554857,0.234601159 8.4018229,0 8.01001434,0 C7.61820578,0 7.2644801,0.234601159 7.11206205,0.595548088 L5.20266163,4.64134057 C5.20266163,4.64134057 5.20266163,4.64134057 5.20266163,4.64134057 L0.762971862,5.30896309 C0.420453866,5.38321846 0.144820335,5.63680598 0.0423347947,5.97196139 C-0.0601507452,6.30711681 0.0265191877,6.67149133 0.268931196,6.9246096 L3.48687175,10.2627222 C3.48687175,10.2627222 3.48687175,10.2627222 3.48687175,10.2627222 L2.77251565,14.7224407 C2.6893754,15.1048128 2.83349201,15.5009189 3.1429073,15.7404662 C3.45232259,15.9800135 3.87190017,16.0203158 4.22125653,15.8440465 L7.98664755,13.7610642 L11.7587148,15.8640752 C12.1080712,16.0403445 12.5276487,16.0000422 12.837064,15.7604949 C13.1464793,15.5209475 13.2905959,15.1248414 13.2074557,14.7424693 L12.4864233,10.2894271 L15.7310688,6.93128582 Z" id="favorite" fill="#000000" fill-rule="nonzero"></path>
                </g>
            </g>
        </g>
    </g>
</svg>