<svg xmlns="http://www.w3.org/2000/svg" width="16" height="16" viewBox="0 0 16 16">
    <path fill="#000" fill-rule="evenodd" d="M1.601 7.736a.576.576 0 0 0 .57-.437v-.032c.015-.065.048-.21.064-.243.049-.242.114-.468.212-.695a5.04 5.04 0 0 1 .666-1.196l.049-.064.048-.065c.033-.048.065-.08.098-.13.081-.08.146-.16.228-.226.146-.145.308-.29.47-.404.326-.242.651-.436.96-.565.309-.13.617-.227.878-.291a.82.82 0 0 1 .195-.032c.065-.017.13-.017.178-.033.065 0 .114-.016.163-.016h.536v.824c0 .275.325.437.537.259l.26-.178A15.696 15.696 0 0 0 9.679 2.58a.443.443 0 0 0 0-.68l-.016-.015A15.65 15.65 0 0 0 7.713.269L7.436.075C7.225-.103 6.9.058 6.9.333v.824h-.098c-.048 0-.113.017-.162.017-.065 0-.13.016-.195.032s-.13.016-.195.032c-.033 0-.065.016-.114.016a.303.303 0 0 0-.114.033 1.36 1.36 0 0 0-.244.064c-.08.017-.162.049-.26.081-.08.033-.178.065-.276.097-.374.13-.78.307-1.186.566a6.374 6.374 0 0 0-1.203.937 6.756 6.756 0 0 0-.553.614l-.244.34c-.032.064-.08.113-.113.178l-.065.097-.05.097a6.383 6.383 0 0 0-.665 1.648c-.065.291-.114.582-.147.89 0 .08-.016.145-.016.225v.065c.016.29.276.55.601.55m10.389 3.987c.163-.13.309-.258.471-.404.082-.08.147-.161.228-.226.032-.049.065-.08.097-.13l.05-.064.048-.065a4.53 4.53 0 0 0 .666-1.196c.082-.226.147-.452.212-.695 0-.032.048-.161.065-.242v-.032a.594.594 0 0 1 .569-.437c.325 0 .585.259.585.582v.065c0 .08-.017.145-.017.226a8.44 8.44 0 0 1-.146.889 6.383 6.383 0 0 1-.666 1.648l-.049.097-.065.097c-.033.065-.081.13-.114.178-.081.113-.162.243-.244.34-.178.226-.357.42-.552.614-.39.371-.797.695-1.203.937a6.538 6.538 0 0 1-1.186.566c-.098.032-.18.064-.277.097-.081.032-.179.048-.26.08-.081.017-.162.033-.244.065-.032.016-.08.016-.113.033-.033 0-.065.016-.114.016-.065.016-.13.032-.195.032-.065.016-.13.016-.195.032-.065 0-.114.017-.163.017h-.097v.824c0 .275-.325.436-.537.258l-.276-.194a18.435 18.435 0 0 1-1.95-1.616c-.228-.194-.228-.517-.017-.695a17.234 17.234 0 0 1 1.967-1.632l.26-.178c.211-.178.536-.016.536.259v.824H9.6c.05 0 .115-.016.163-.016.065-.016.114-.016.18-.033.064-.016.13-.032.194-.032.293-.097.585-.194.894-.323.309-.13.634-.323.959-.566z"/>
</svg>
