<?xml version="1.0" encoding="UTF-8"?>
<svg width="24px" height="24px" viewBox="0 0 24 24" version="1.1" xmlns="http://www.w3.org/2000/svg" xmlns:xlink="http://www.w3.org/1999/xlink">
    <!-- Generator: sketchtool 41.2 (35397) - http://www.bohemiancoding.com/sketch -->
    <title>C6165B78-1BE5-428C-A386-05A05854DEF6</title>
    <desc>Created with sketchtool.</desc>
    <defs></defs>
    <g id="Icons" stroke="none" stroke-width="1" fill="none" fill-rule="evenodd">
        <g id="Style-guide---Desktop---Icons-2" transform="translate(-232.000000, -1028.000000)">
            <g id="kb-iconfont-chat-24" transform="translate(232.000000, 1028.000000)">
                <rect id="icon-area" fill="#D8D8D8" opacity="0" x="0" y="0" width="24" height="24"></rect>
                <g id="kb-iconfont-chat">
                    <rect id="icon-area" fill="#D8D8D8" opacity="0" x="0" y="0" width="24" height="24"></rect>
                    <path d="M4.56254936,17.3938456 C3.517945,15.5661112 3.36202597,14.5117032 3.27018364,13.1982967 C2.90171014,7.93946871 6.78876616,3.38387235 11.952416,3.02279478 C17.115329,2.66176873 21.5993098,6.63200518 21.9670989,11.8916352 C22.3348881,17.1512653 19.5610362,21.9444689 11.5818815,21.9985284 C10.6210471,22.0050382 3.96642231,21.9796422 3.96642231,21.9796422 C3.33357757,22.0238946 2.645327,21.5264134 3.20839016,20.9724965 C3.77145332,20.4185796 5.60715372,19.2215799 4.56254936,17.3938456 Z M11.4361369,16.9936856 L7.51156905,16.9936856 C7.22844385,16.9936856 6.99885305,16.5472725 6.99885305,15.9967678 C6.99885305,15.4462632 7.22844385,14.9998501 7.51156905,14.9998501 L11.4361369,14.9998501 C11.7192621,14.9998501 11.9488529,15.4462632 11.9488529,15.9967678 C11.9488529,16.5472725 11.7192621,16.9936856 11.4361369,16.9936856 Z M13.890196,13.9936856 L8.06751016,13.9936856 C7.47739057,13.9936856 6.99885305,13.5472725 6.99885305,12.9967678 C6.99885305,12.4462632 7.47739057,11.9998501 8.06751016,11.9998501 L13.890196,11.9998501 C14.4803156,11.9998501 14.9588531,12.4462632 14.9588531,12.9967678 C14.9588531,13.5472725 14.4803156,13.9936856 13.890196,13.9936856 Z M7.99377726,10.9936856 C7.44437347,10.9936856 6.99885305,10.5472725 6.99885305,9.99676783 C6.99885305,9.44626321 7.44437347,8.99985011 7.99377726,8.99985011 L17.2412712,8.99985011 C17.790675,8.99985011 18.2361954,9.44626321 18.2361954,9.99676783 C18.2361954,10.5472725 17.790675,10.9936856 17.2412712,10.9936856 L7.99377726,10.9936856 Z" id="Combined-Shape" fill="#000000"></path>
                </g>
            </g>
        </g>
    </g>
</svg>