<?xml version="1.0" encoding="UTF-8"?>
<svg width="16px" height="16px" viewBox="0 0 16 16" version="1.1" xmlns="http://www.w3.org/2000/svg" xmlns:xlink="http://www.w3.org/1999/xlink">
    <!-- Generator: sketchtool 49.3 (51167) - http://www.bohemiancoding.com/sketch -->
    <title>A2BE2001-0A52-4475-B03A-3D161AEAB253</title>
    <desc>Created with sketchtool.</desc>
    <defs></defs>
    <g id="Colors,-icons" stroke="none" stroke-width="1" fill="none" fill-rule="evenodd">
        <g id="Icons-2" transform="translate(-491.000000, -336.000000)">
            <g id="kb-iconfont-lock-16" transform="translate(491.000000, 336.000000)">
                <g id="icon">
                    <rect id="icon-area" fill="#D8D8D8" opacity="0" x="0" y="0" width="16" height="16"></rect>
                    <path d="M12.2,5.33333333 L13.6,5.33333333 C14.3731826,5.33337015 14.9999613,5.93030225 15,6.66666667 L15,14.6666667 C14.9999613,15.4030311 14.3731826,15.9999632 13.6,16 L2.4,16 C1.62681736,15.9999632 1.00003866,15.4030311 1,14.6666667 L1,6.66666667 C1.00003866,5.93030225 1.62681736,5.33337015 2.4,5.33333333 L3.8,5.33333333 L3.8,4 C3.8,1.790861 5.68040405,0 8,0 C10.3195959,0 12.2,1.790861 12.2,4 L12.2,5.33333333 Z M5.9,10.6666667 C5.9,11.7712362 6.84020203,12.6666667 8,12.6666667 C9.15978677,12.6666409 10.0999729,11.7712255 10.1,10.6666667 C10.1,9.56209717 9.15979797,8.66666667 8,8.66666667 C6.84020203,8.66666667 5.9,9.56209717 5.9,10.6666667 Z M9.77689549,5.33333333 L9.77689549,4.21906307 C9.77689549,3.30657348 9.00019057,2.56685451 8.0420765,2.56685451 C7.08396243,2.56685451 6.30725751,3.30657348 6.30725751,4.21906307 L6.30725751,5.33333333 L9.77689549,5.33333333 Z" id="padlock" fill="#000000" fill-rule="nonzero"></path>
                </g>
            </g>
        </g>
    </g>
</svg>