<?xml version="1.0" encoding="UTF-8" standalone="no"?>
<svg width="24px" height="24px" viewBox="0 0 24 24" version="1.1" xmlns="http://www.w3.org/2000/svg" xmlns:xlink="http://www.w3.org/1999/xlink">
    <!-- Generator: sketchtool 3.8.2 (29753) - http://www.bohemiancoding.com/sketch -->
    <title>152F1F3C-695C-429C-82A0-112FFB20DEA1</title>
    <desc>Created with sketchtool.</desc>
    <defs></defs>
    <g id="Icons" stroke="none" stroke-width="1" fill="none" fill-rule="evenodd">
        <g id="Style-guide---Desktop---Icons-2" transform="translate(-195.000000, -1326.000000)">
            <g id="kb-iconfont-search" transform="translate(195.000000, 1326.000000)">
                <rect id="icon-area" fill="#D8D8D8" opacity="0" x="0" y="0" width="24" height="24"></rect>
                <path d="M12.6317422,19.3949129 C12.4421904,19.3983891 12.2525267,19.4 12.0636695,19.4 C9.18868589,19.4 6.08283476,19.0256384 6.08283476,17.3757972 L6.08283476,16.9219252 C6.08283476,15.7118759 8.20327599,14.485262 10.0099949,13.8119082 C10.1403103,13.7630424 10.7645373,13.4135278 10.4154207,12.470998 C9.52010538,11.5292965 8.84359132,10.0045185 8.84359132,8.50375926 C8.84359132,6.20458289 10.3204995,5.00033129 12.0467768,5.00033129 C13.7722497,5.00033129 15.2563976,6.20541113 15.2563976,8.50375926 C15.2563976,9.99872084 14.5766659,11.516873 13.6869815,12.4610592 L13.691808,12.4610592 C13.3499311,13.5294805 13.8969342,13.78292 13.9830067,13.8119082 C13.984654,13.8124701 13.9863014,13.8130326 13.987949,13.8135954 C13.0092542,14.8545021 12.4096545,16.2559571 12.4096545,17.7974562 C12.4096545,18.3514407 12.4870954,18.8873378 12.6317422,19.3949129 Z M16.4199678,12.2664643 C16.8012444,11.6421401 17.8765494,11.0577738 18.8195594,10.7065292 C18.9040231,10.6750564 19.3086445,10.4481204 19.0826035,9.83771223 C18.5026194,9.22813233 18.0650169,8.24087793 18.0650169,7.26935996 C18.0650169,5.78019602 19.0206634,5 20.138802,5 C21.2561362,5 22.2174136,5.78019602 22.2174136,7.26935996 C22.2174136,8.23756499 21.7773979,9.22067823 21.2006315,9.8319146 L21.2038491,9.8319146 C20.9834391,10.5234896 21.3365778,10.6874799 21.3928869,10.7065292 C22.6204261,11.1247872 24,11.9132655 24,12.7207933 L24,13.0148162 C24,13.5646513 23.4731883,13.8958969 22.7075886,14.0878671 C21.6405998,12.8004681 20.0294049,11.9804307 18.2266801,11.9804307 C17.5959632,11.9804307 16.9886911,12.0808099 16.4199678,12.2664643 Z M5.11608732,10.7065292 C5.05977818,10.6874799 4.70663945,10.5234896 4.9270495,9.8319146 L4.92463625,9.8319146 C5.50059828,9.22067823 5.94061397,8.23756499 5.94061397,7.26935996 C5.94061397,5.78019602 4.97933656,5 3.86200239,5 C2.74386381,5 1.78821731,5.78019602 1.78821731,7.26935996 C1.78821731,8.24087793 2.22581975,9.22813233 2.80580386,9.83771223 C3.03184483,10.4481204 2.62722346,10.6750564 2.54275975,10.7065292 C1.37313853,11.1421801 0,11.9364561 0,12.7207933 L0,13.0148162 C0,14.0824092 2.01184503,14.3259099 3.87326422,14.3259099 C5.73709666,14.3259099 7.72320037,14.0824092 7.72320037,13.0148162 L7.72320037,12.7207933 C7.72320037,11.9132655 6.34362651,11.1247872 5.11608732,10.7065292 Z M23.9016055,22.6658134 L21.2261958,20.0028691 C21.3016358,19.9014304 21.3544541,19.8301902 21.3913041,19.7801295 L21.395808,19.7740493 C21.4259021,19.7348317 21.4549726,19.6954115 21.4832243,19.6551805 L21.4857833,19.6517351 L21.4856809,19.6517351 C22.5337553,18.1604538 22.3017029,16.0513185 20.9155301,14.6791087 C20.1409643,13.9121873 19.1111102,13.4899143 18.0158473,13.4899143 C16.9205845,13.4899143 15.8909351,13.9121873 15.116267,14.6790074 C14.3417012,15.4458275 13.9150605,16.4653831 13.9150605,17.549896 C13.9150605,18.6343075 14.3415988,19.6539645 15.116267,20.4206833 C15.8886832,21.1854766 16.9159783,21.6066349 18.0087844,21.6066349 C18.6638949,21.6066349 19.3166511,21.4496632 19.9006207,21.1507179 C19.9662341,21.1141351 20.1608224,21.0022586 20.3170253,20.8772083 L23.0341983,23.5054951 C23.0504737,23.5216078 23.1381971,23.602171 23.2657389,23.602171 C23.321628,23.602171 23.4051546,23.5858557 23.4859175,23.5081299 L23.6216482,23.378418 C23.7253399,23.279614 23.8343544,23.1756419 23.9124558,23.0984228 C24.0642572,22.9480381 23.9906596,22.7589425 23.9016055,22.6658134 Z M17.9969066,14.811777 C19.5200443,14.811777 20.7591047,16.0385403 20.7591047,17.5464466 C20.7591047,19.0541659 19.5200443,20.2810227 17.9969066,20.2810227 C16.4737689,20.2810227 15.2346141,19.0541659 15.2346141,17.5464466 C15.2346141,16.0385403 16.4737689,14.811777 17.9969066,14.811777 Z" id="Combined-Shape" fill="#000000"></path>
            </g>
        </g>
    </g>
</svg>