<svg xmlns="http://www.w3.org/2000/svg" width="16" height="16" viewBox="0 0 16 16">
    <g fill="none" fill-rule="evenodd">
        <path d="M0 0h16v16H0z"/>
        <path fill="#000" fill-rule="nonzero" d="M12.87 5h-.012C10.85 5 9.323 6.558 9.323 8.703c0 .503.086 1.01.243 1.491C8.605 10.817 8 11.634 8 12.795v.221c0 .367.06.694.17.983H1c-.555.001-1-.443-.999-.99L.017 2.378C.017 1.625.58.98 1.417.98h3.517c.262 0 .523.136.697.365l1.14 1.45C6.965 3.058 7.669 4 7.935 4h3.591c.539 0 1.142.421 1.323.94l.02.06zm.916 6.284c.908.314 1.929.905 1.929 1.511v.221c0 .802-1.47.984-2.85.984-1.377 0-2.865-.182-2.865-.984v-.22c0-.589 1.016-1.185 1.882-1.512.062-.024.361-.194.194-.652a2.957 2.957 0 0 1-.753-1.929c0-1.118.708-1.703 1.535-1.703s1.538.586 1.538 1.703c0 .727-.326 1.465-.752 1.924h.002c-.164.52.098.642.14.657z"/>
    </g>
</svg>
