<?xml version="1.0" encoding="UTF-8"?>
<svg width="16px" height="16px" viewBox="0 0 16 16" version="1.1" xmlns="http://www.w3.org/2000/svg" xmlns:xlink="http://www.w3.org/1999/xlink">
    <!-- Generator: sketchtool 49.3 (51167) - http://www.bohemiancoding.com/sketch -->
    <title>9E01569D-9391-4F19-A72C-D2A4580A9ADA</title>
    <desc>Created with sketchtool.</desc>
    <defs></defs>
    <g id="Colors,-icons" stroke="none" stroke-width="1" fill="none" fill-rule="evenodd">
        <g id="Icons-2" transform="translate(-370.000000, -277.000000)" fill="#000000">
            <g id="kb-iconfont-emoji-16" transform="translate(369.000000, 276.000000)">
                <g id="Group-15" transform="translate(0.500000, 0.500000)">
                    <path d="M8.5,0.5 C12.918278,0.5 16.5,4.081722 16.5,8.5 C16.5,12.918278 12.918278,16.5 8.5,16.5 C4.081722,16.5 0.5,12.918278 0.5,8.5 C0.5,4.081722 4.081722,0.5 8.5,0.5 Z M8.5,14.5 C11.8136887,14.4999521 14.4999521,11.8136887 14.5,8.5 C14.5,5.1862915 11.8137085,2.5 8.5,2.5 C5.1862915,2.5 2.5,5.1862915 2.5,8.5 C2.5,11.8137085 5.1862915,14.5 8.5,14.5 Z M6.5,6.5 C7.05228475,6.5 7.5,6.94771525 7.5,7.5 C7.5,8.05228475 7.05228475,8.5 6.5,8.5 C5.94771525,8.5 5.5,8.05228475 5.5,7.5 C5.50002577,6.94772593 5.94772593,6.50002577 6.5,6.5 Z M10.4999939,8.49747421 C9.94840667,8.49747421 9.50125684,8.05032438 9.50125684,7.49873711 C9.50125684,6.94714983 9.94840667,6.5 10.4999939,6.5 C11.0515812,6.5 11.498731,6.94714983 11.498731,7.49873711 C11.4987053,8.05031372 11.0515706,8.49744847 10.4999939,8.49747421 Z M12.2964881,11.2178127 C10.1710391,13.374164 6.82559246,13.374164 4.70014346,11.2178127 C4.43777838,10.9447352 4.43270481,10.4976306 4.68879698,10.2179114 C4.94488915,9.93819227 5.36567301,9.93123313 5.62983492,10.2023481 C7.23770854,11.8237665 9.75892304,11.8237665 11.3667967,10.2023481 C11.537337,10.0248445 11.784191,9.95778122 12.0139906,10.0265237 C12.2437902,10.0952662 12.4214527,10.2893198 12.4797804,10.5352872 C12.5381081,10.7812546 12.4681964,11.0415848 12.2964881,11.2178127 Z" id="Combined-Shape"></path>
                </g>
            </g>
        </g>
    </g>
</svg>