<?xml version="1.0" encoding="UTF-8"?>
<svg width="24px" height="24px" viewBox="0 0 24 24" version="1.1" xmlns="http://www.w3.org/2000/svg" xmlns:xlink="http://www.w3.org/1999/xlink">
    <!-- Generator: sketchtool 49.3 (51167) - http://www.bohemiancoding.com/sketch -->
    <title>C6BD67F9-44CE-40C0-952D-9BE614C961B0</title>
    <desc>Created with sketchtool.</desc>
    <defs></defs>
    <g id="Colors,-icons" stroke="none" stroke-width="1" fill="none" fill-rule="evenodd">
        <g id="Icons-2" transform="translate(-94.000000, -340.000000)">
            <g id="kb-iconfont-nav-teams-24" transform="translate(94.000000, 340.000000)">
                <rect id="icon-area" fill="#D8D8D8" opacity="0" x="0" y="0" width="24" height="24"></rect>
                <g id="Group" transform="translate(0.000000, 2.000000)" fill="#000000" fill-rule="nonzero">
                    <path d="M3.70909807e-17,15.6498167 L0,15.830367 C7.83910315e-17,16.4704784 0.306394767,17.071916 0.824203067,17.4482365 L1.49090054,17.9327631 C1.91037205,18.2376167 2.49755357,18.1447005 2.80240716,17.725229 C2.9190016,17.5647977 2.98180107,17.3715668 2.98180107,17.1732427 L2.98180107,14.655883 C2.99526229,13.4707143 3.39538494,12.3223615 4.12132617,11.3854436 C1.6961876,12.1165812 3.70909807e-17,13.7512841 3.70909807e-17,15.6498167 Z M16.252822,4.33408585 C16.252822,1.94043633 14.3123856,0 11.9187361,0 C9.52508658,0 7.58465024,1.94043633 7.58465024,4.33408585 C7.58738895,6.72660005 9.5262219,8.665433 11.9187361,8.66817171 C14.3123856,8.66817171 16.252822,6.72773537 16.252822,4.33408585 Z M5.82503611,5.18542568 C5.82508728,4.78111409 5.86564768,4.37782486 5.94610957,3.9816005 C5.60919995,3.86038579 5.25437397,3.79643129 4.89634497,3.79238897 C3.39299876,3.78301912 2.07937456,4.80580561 1.71989477,6.26556995 C1.36041497,7.72533428 2.04888505,9.24115409 3.38467145,9.93094559 C4.72045785,10.6207371 6.35498998,10.3045007 7.33710315,9.16626023 C6.36361455,8.06863926 5.82573157,6.65254918 5.82503611,5.18542568 Z M19.8786738,11.3854436 C20.6046151,12.3223615 21.0047377,13.4707143 21.0181989,14.655883 L21.0181989,17.1732427 C21.0181989,17.6917908 21.4385652,18.112157 21.9571132,18.112157 C22.1554373,18.112157 22.3486682,18.0493575 22.5090995,17.9327631 L23.1757969,17.4482365 C23.6936052,17.071916 24,16.4704784 24,15.830367 L24,15.6498167 C24,13.751135 22.3038124,12.116452 19.8786738,11.3854436 Z M22.4858518,7.04279663 C22.4837587,5.2484785 21.0296984,3.79441824 19.2353803,3.79232512 C18.8773455,3.79636751 18.5225138,3.86032304 18.1855987,3.98153971 C18.5629455,5.83236785 18.0476883,7.75288955 16.7945827,9.16628323 C17.6785546,10.1948288 19.1100336,10.5631925 20.3806814,10.0890973 C21.6513293,9.61500202 22.4916595,8.39899667 22.4858518,7.04279663 Z M11.9272043,10.2934539 C8.0907594,10.2934539 4.96966846,12.3903956 4.96966846,14.9680433 L4.96964454,16.6880392 C4.96964454,17.4033314 5.35164342,18.0641691 5.97148083,18.4211627 C7.73776355,19.4384483 9.63079131,19.9470911 11.6505641,19.9470911 C13.6940365,19.9470911 15.7407019,19.4264417 17.7905605,18.3851429 L17.7905516,18.3851253 C18.4618532,18.0441137 18.8847401,17.3549713 18.8847401,16.6020206 L18.8847401,14.9680433 C18.8847401,12.3903956 15.7638977,10.2934539 11.9272043,10.2934539 Z" id="team"></path>
                </g>
            </g>
        </g>
    </g>
</svg>