<svg xmlns="http://www.w3.org/2000/svg" width="16" height="16" viewBox="0 0 16 16">
    <g fill="none" fill-rule="evenodd">
        <path d="M0 0h16v16H0z"/>
        <path fill="#000" d="M12.006 4c0-.648-.504-.74-1.111-.74H9.784c-.608 0-.97-.538-.97-1.186C8.814 1.426 8.108 1 7.5 1c-.608 0-1.389.426-1.389 1.074 0 .648-.281 1.185-.889 1.185h-1.11C3.502 3.26 3 3.352 3 4h9.006zM13 12.5h1v2.433c-.017.3-.118.55-.322.75-.203.2-.457.3-.761.317H2.083A1.083 1.083 0 0 1 1 14.933V3c0-.583.49-1 1.083-1H5C5 .817 6.298 0 7.5 0s2.466.817 2.466 2h2.95C13.51 2 14 2.417 14 3v4.5h-1.083V5H2v10h11v-2.5zM3 11h2.67v-1H3v1zm0-2h2.5V8H3v1zm8 0V8a.5.5 0 0 0-.8-.4l-2.667 2a.5.5 0 0 0 0 .8l2.667 2a.5.5 0 0 0 .8-.4v-1h3.778a1 1 0 0 0 0-2H11zM3 7h5V6H3v1zm0 6h4v-1H3v1z"/>
    </g>
</svg>
