<?xml version="1.0" encoding="UTF-8"?>
<svg width="16px" height="16px" viewBox="0 0 16 16" version="1.1" xmlns="http://www.w3.org/2000/svg" xmlns:xlink="http://www.w3.org/1999/xlink">
    <!-- Generator: sketchtool 49.3 (51167) - http://www.bohemiancoding.com/sketch -->
    <title>F67807EC-C9FB-4997-853C-5EBBC716888A</title>
    <desc>Created with sketchtool.</desc>
    <defs></defs>
    <g id="Colors,-icons" stroke="none" stroke-width="1" fill="none" fill-rule="evenodd">
        <g id="Icons-2" transform="translate(-370.000000, -368.000000)" fill="#000000" fill-rule="nonzero">
            <g id="kb-iconfont-refresh-16" transform="translate(370.000000, 368.000000)">
                <path d="M12.8742211,9.02671294 L12.8378313,9.02671294 C12.4187286,9.03176525 12.0436418,9.28797211 11.8864973,9.67653126 C11.3473524,10.9147676 10.2345622,11.8093302 8.90939682,12.0697974 C7.5842314,12.3302645 6.21564538,11.9234273 5.24795338,10.9813664 L6.28766268,9.94165713 C6.45930428,9.79610203 6.51779706,9.55663135 6.43258606,9.34833779 C6.34737506,9.14004422 6.13781226,9.01023264 5.91336733,9.02671294 L1.75453011,9.02671294 L1.75453011,13.1855502 C1.7213779,13.4204452 1.85144604,13.6479898 2.07067394,13.7386203 C2.28990184,13.8292508 2.54267711,13.7599768 2.68506994,13.5702426 L3.77676471,12.4785478 C5.23899413,13.911817 7.31482983,14.5302522 9.32303609,14.1308989 C11.3312423,13.7315456 13.0125353,12.3659652 13.8151581,10.482306 C13.9546245,10.162811 13.9246904,9.79468362 13.7354385,9.5019182 C13.5461866,9.20915279 13.2228066,9.03071718 12.8742211,9.02671294 Z M13.3005019,2.4297574 L12.2088072,3.52145217 C10.7465778,2.08818298 8.67074206,1.4697478 6.6625358,1.86910109 C4.65432955,2.26845438 2.97303656,3.63403478 2.17041383,5.51769403 C2.04218278,5.83445332 2.07779473,6.19400063 2.26567258,6.47945039 C2.45355042,6.76490016 2.76970254,6.93980103 3.11135076,6.94729433 L3.14774058,6.94729433 C3.56684328,6.94224201 3.94193012,6.68603516 4.0990746,6.29747601 C4.63821954,5.05923967 5.75100966,4.16467702 7.07617507,3.9042099 C8.40134049,3.64374277 9.76992651,4.05057996 10.7376185,4.99264083 L9.69790921,6.03235014 C9.50817506,6.17474297 9.43890098,6.42751824 9.52953151,6.64674614 C9.62016204,6.86597404 9.84770657,6.99604217 10.0826016,6.96288997 L14.2310418,6.96288997 L14.2310418,2.83004548 C14.2741298,2.59192243 14.1472141,2.35556053 13.9249189,2.25993632 C13.7026236,2.16431211 13.4437462,2.23471833 13.3005019,2.4297574 Z" id="sync"></path>
            </g>
        </g>
    </g>
</svg>