<svg xmlns="http://www.w3.org/2000/svg" width="24" height="24" viewBox="0 0 24 24">
    <g fill="#000" fill-rule="evenodd">
        <path d="M6.654 9.786a12.088 12.088 0 0 0-.947-.036c-1.846 0-3.312.38-4.397 1.138a2 2 0 0 0 .064 3.321c.742.477 1.678.787 2.808.928a9.87 9.87 0 0 1 4.109-2.581 5.496 5.496 0 0 1-1.637-2.77zm-.133-1.75a2.626 2.626 0 1 1 1.441-3.268 5.478 5.478 0 0 0-1.44 3.268zM17.343 9.8c.354-.033.726-.05 1.114-.05 1.847 0 3.313.38 4.398 1.138a2 2 0 0 1-.064 3.321c-.775.498-1.76.813-2.956.945a9.872 9.872 0 0 0-4.126-2.598A5.496 5.496 0 0 0 17.343 9.8zm.144-1.657a2.626 2.626 0 1 0-1.654-3.586 5.482 5.482 0 0 1 1.654 3.586zM12 14c2.715 0 4.895.997 6.542 2.99a2 2 0 0 1 .152 2.336C17.578 21.109 15.346 22 12 22s-5.578-.891-6.694-2.674a2 2 0 0 1 .152-2.335C7.105 14.997 9.285 14 12 14zm3.5-5.5a3.501 3.501 0 0 1-7 0 3.501 3.501 0 0 1 7 0z"/>
    </g>
</svg>
