<svg xmlns="http://www.w3.org/2000/svg" width="16" height="16" viewBox="0 0 16 16">
    <g fill="#000" fill-rule="evenodd">
        <path d="M13.732 13A2 2 0 0 1 12 14H4a2 2 0 0 1-2-2V4a2 2 0 0 1 2-2h8a2 2 0 0 1 1.732 1h2.136A3.997 3.997 0 0 0 12 0H4a4 4 0 0 0-4 4v8a4 4 0 0 0 4 4h8a4.002 4.002 0 0 0 3.874-3h-2.142z"/>
        <path fill-rule="nonzero" d="M8.29 3.508a4.49 4.49 0 1 0 0 8.98c.345 0 .794-.082 1.35-.244a.494.494 0 0 0 .308-.684.643.643 0 0 0-.754-.348c-.37.102-.672.153-.904.153a3.367 3.367 0 1 1 0-6.735c.235 0 .54.052.915.157a.644.644 0 0 0 .756-.346.494.494 0 0 0-.307-.684c-.56-.166-1.016-.25-1.364-.25z"/>
        <path d="M12.171 12.167c-.14.14-.309.21-.498.21-.2 0-.37-.07-.509-.21l-.418-.429a.655.655 0 0 1-.21-.498c0-.2.07-.369.21-.498l1.635-1.635H9.257a.594.594 0 0 1-.469-.21.747.747 0 0 1-.18-.498v-.717c0-.19.06-.36.18-.499.12-.14.28-.21.469-.21h3.124L10.746 5.34a.686.686 0 0 1-.21-.498c0-.2.07-.37.21-.509l.418-.408c.14-.14.31-.22.509-.22.19 0 .359.08.498.22l3.63 3.608c.13.15.199.319.199.508a.7.7 0 0 1-.2.499l-3.629 3.628z"/>
    </g>
</svg>
