<svg xmlns="http://www.w3.org/2000/svg" xmlns:xlink="http://www.w3.org/1999/xlink" width="16" height="16" viewBox="0 0 16 16">
    <defs>
        <path id="a" d="M0 13.515V16h16V0H0v1.485a2 2 0 0 1 2.342.358l4.243 4.243a2 2 0 0 1 0 2.828l-4.243 4.243A2 2 0 0 1 0 13.515z"/>
        <path id="c" d="M7.738 3.44a.741.741 0 0 0-.727.164L5.13 5.378a.69.69 0 0 0-.062.967.749.749 0 0 0 1.057.039l1.583-1.491L9 5.537 7.676 7.468a1.887 1.887 0 0 0 .158 2.214l1.907 2.319-1.34 2.773A.838.838 0 0 0 9 15.979a.894.894 0 0 0 1-.47l1.564-3.274a.798.798 0 0 0-.095-.857L10.26 9.211l1.12-1.867.564 1.103c.086.217.28.378.517.428l.07.012 2.651.328a.73.73 0 0 0 .55-.143.678.678 0 0 0 .267-.484c.018-.376-.272-.7-.664-.743l-2.187-.273-.606-1.428a1.815 1.815 0 0 0-.68-.809A15.304 15.304 0 0 0 7.96 3.508l-.222-.068zm5.06 1.634c.876.188 1.746-.335 1.946-1.17.2-.837-.347-1.672-1.224-1.864-.878-.192-1.752.33-1.953 1.168-.201.838.346 1.672 1.224 1.864l.007.002zM3.111 9.992l2.245.49 1.027-1.327a.144.144 0 0 1 .194-.027.133.133 0 0 1 .053.076c.089.356.258.689.496.976l.343.415a.236.236 0 0 1-.02.325L6.346 11.97a.902.902 0 0 1-.86.267l-2.802-.613c-.475-.104-.771-.555-.663-1.008a.813.813 0 0 1 .024-.079c.158-.414.616-.65 1.065-.546z"/>
    </defs>
    <g fill="none" fill-rule="evenodd">
        <path d="M0 0h16v16H0z"/>
        <g>
            <mask id="b" fill="#fff">
                <use xlink:href="#a"/>
            </mask>
            <g mask="url(#b)">
                <use fill="#000" xlink:href="#c"/>
                <path stroke="#FFF" stroke-width="2" d="M8.035 2.485l.218.067A16.302 16.302 0 0 1 12.409 4.5c.47.307.837.743 1.054 1.254l.38.899 1.598.199a1.73 1.73 0 0 1 1.555 1.815 1.676 1.676 0 0 1-.651 1.197c-.37.286-.843.41-1.286.345l-2.692-.335-.114-.02a1.8 1.8 0 0 1-.645-.278l.702 1.258a1.79 1.79 0 0 1 .156 1.833l-1.566 3.28a1.891 1.891 0 0 1-2.097 1.014 1.93 1.93 0 0 1-.842-.402c-.651-.557-.84-1.477-.46-2.22l1.061-2.196-1.497-1.82a2.887 2.887 0 0 1-.39-3.096 1.756 1.756 0 0 1-2.368-.23 1.688 1.688 0 0 1 .136-2.345l1.881-1.774a1.741 1.741 0 0 1 1.711-.392zm4.553 3.567l-.009-.002.017.003c-.006 0-.006 0-.02-.004-1.415-.31-2.316-1.683-1.981-3.075.33-1.375 1.738-2.218 3.139-1.911 1.415.31 2.316 1.683 1.982 3.074-.328 1.372-1.73 2.215-3.128 1.915zm-5.832 4.146a.763.763 0 0 1 .005-.005l-.005.005zM5.702 11.26zm-.049-.01c-.012.013.02.004.05.01l-.05-.01zm.704-.433l.002.003.182-.236a.756.756 0 0 1 .215-.387l-.507.484c.035.046.07.091.108.136zM3.329 9.017l1.623.354.642-.831a1.144 1.144 0 0 1 1.564-.226c.218.156.375.384.441.646.053.21.154.409.299.583l.344.417a1.235 1.235 0 0 1-.103 1.683l-1.052 1c-.455.501-1.15.718-1.813.572l-2.803-.613c-1.013-.221-1.663-1.21-1.42-2.219.014-.06.03-.118.06-.2.337-.887 1.292-1.377 2.218-1.166z"/>
            </g>
        </g>
        <path fill="#000" d="M2.876 10.83a.553.553 0 0 1-.403.17.558.558 0 0 1-.41-.17l-.338-.345a.528.528 0 0 1-.17-.402c0-.161.057-.298.17-.402l1.32-1.32H.523a.48.48 0 0 1-.378-.17A.603.603 0 0 1 0 7.79v-.58c0-.153.048-.29.145-.402a.478.478 0 0 1 .378-.169h2.522l-1.32-1.32a.554.554 0 0 1-.17-.402c0-.16.057-.298.17-.41l.338-.33A.567.567 0 0 1 2.473 4c.153 0 .29.065.403.177L5.805 7.09c.105.12.161.257.161.41 0 .16-.056.29-.161.402l-2.93 2.929z"/>
    </g>
</svg>
