<svg xmlns="http://www.w3.org/2000/svg" width="24" height="24" viewBox="0 0 24 24">
    <g fill="none" fill-rule="evenodd">
        <path d="M0 0h24v24H0z"/>
        <g fill="#000">
            <path d="M20.265 17.911c0 1.262-1.04 2.29-2.319 2.29-1.278 0-2.318-1.028-2.318-2.29s1.04-2.289 2.318-2.289c1.279 0 2.319 1.027 2.319 2.29zm.906 2.272c.073-.098.021-.07.057-.118l.089-.12c1.015-1.442.791-3.475-.549-4.798A3.964 3.964 0 0 0 17.965 14a3.964 3.964 0 0 0-2.804 1.146A3.864 3.864 0 0 0 14 17.915c0 1.045.412 2.028 1.161 2.767a3.954 3.954 0 0 0 2.797 1.144c.633 0 1.264-.151 1.829-.44.063-.035.057.001.208-.12l1.547 1.61c.016.016.1.094.224.094a.303.303 0 0 0 .213-.091l.131-.125c.1-.095.503-.436.578-.51.147-.146.076-.328-.01-.418l-1.507-1.643z"/>
            <path fill-rule="nonzero" d="M14.019 22.815a11.062 11.062 0 0 1-5.884-.513c-.847-.26-1.552-.617-2.116-1.069A10.99 10.99 0 0 1 1 12C1 5.925 5.925 1 12 1s11 4.925 11 11c0 .665-.059 1.315-.172 1.947a6.33 6.33 0 0 0-1.812-1.349 9.036 9.036 0 1 0-15.565 5.627c.056-.07.117-.139.183-.203 1.728-1.681 3.974-2.522 6.74-2.522h.127a6.12 6.12 0 0 0-.606 2.661c0 1.85.822 3.514 2.124 4.654zm1.648-12.648a3.668 3.668 0 0 1-7.334 0 3.668 3.668 0 0 1 7.334 0z"/>
        </g>
    </g>
</svg>
