<?xml version="1.0" encoding="UTF-8"?>
<svg width="16px" height="16px" viewBox="0 0 16 16" version="1.1" xmlns="http://www.w3.org/2000/svg" xmlns:xlink="http://www.w3.org/1999/xlink">
    <!-- Generator: sketchtool 49.3 (51167) - http://www.bohemiancoding.com/sketch -->
    <title>45F7F4AE-2F8E-4475-A85D-FED864D7700D</title>
    <desc>Created with sketchtool.</desc>
    <defs></defs>
    <g id="Colors,-icons" stroke="none" stroke-width="1" fill="none" fill-rule="evenodd">
        <g id="Icons-2" transform="translate(-369.000000, -218.000000)" fill="#000000">
            <g id="kb-iconfont-chat-16" transform="translate(369.000000, 218.000000)">
                <path d="M7,-8.8817842e-15 C10.8662669,-8.8817842e-15 14,3.13357653 14,6.99965019 C14,10.8657239 10.8662669,14 7,14 C5.6027986,14 2.83918041,13.9944031 1.53853073,13.9944031 C0.471564218,13.9944031 0.0293853073,13.7929139 0.0293853073,13.1100895 C0.0293853073,12.34541 1.69735132,11.7325471 0.903948026,10.4431563 C0.291754123,9.44830343 -5.68434189e-14,8.25126181 -5.68434189e-14,6.99965019 C-5.68434189e-14,3.13357653 3.13373313,-8.8817842e-15 7,-8.8817842e-15 Z M7.27301133,9.04347826 C7.27301133,8.46316329 6.80618685,8 6.23032968,8 L5.53675133,8 C4.96547925,8 4.49406969,8.46718113 4.49406969,9.04347826 C4.49406969,9.62379323 4.96089416,10.0869565 5.53675133,10.0869565 L6.23032968,10.0869565 C6.80160176,10.0869565 7.27301133,9.61977539 7.27301133,9.04347826 Z M8.7043234,7 C9.06485591,7 9.35721756,6.55220667 9.35721756,6 C9.35721756,5.44779333 9.06485591,5 8.7043234,5 L5.14696385,5 C4.78643133,5 4.49406969,5.44779333 4.49406969,6 C4.49406969,6.55220667 4.78643133,7 5.14696385,7 L8.7043234,7 Z M7.28505429,15.4956422 C11.7619507,15.3429195 15.3589103,11.7188987 15.4765807,7.22714887 C15.8132014,7.99596512 16,8.84552975 16,9.73881756 C16,10.8582714 15.7394091,11.9289174 15.1926057,12.8187236 C14.4839485,13.9719676 15.9737534,14.5201183 15.9737534,15.2040552 C15.9737534,15.8147801 15.5788052,15.9949941 14.625805,15.9949941 C13.4640821,15.9949941 10.9956553,16 9.74769377,16 C8.87325357,16 8.04076628,15.8202512 7.28505429,15.4956422 Z" id="Combined-Shape"></path>
            </g>
        </g>
    </g>
</svg>