<?xml version="1.0" encoding="UTF-8"?>
<svg width="24px" height="24px" viewBox="0 0 24 24" version="1.1" xmlns="http://www.w3.org/2000/svg" xmlns:xlink="http://www.w3.org/1999/xlink">
    <!-- Generator: sketchtool 49.3 (51167) - http://www.bohemiancoding.com/sketch -->
    <title>CB9BF99D-9E07-4CDA-822F-CAFA165811F2</title>
    <desc>Created with sketchtool.</desc>
    <defs></defs>
    <g id="Colors,-icons" stroke="none" stroke-width="1" fill="none" fill-rule="evenodd">
        <g id="Icons-2" transform="translate(-94.000000, -528.000000)">
            <g id="kb-iconfont-nav-more-24" transform="translate(94.000000, 528.000000)">
                <g id="icon-nav-more-24">
                    <rect id="icon-area" opacity="0" x="0" y="0" width="24" height="24"></rect>
                    <path d="M6,7.25 L18,7.25 C18.8284271,7.25 19.5,6.57842712 19.5,5.75 C19.5,4.92157288 18.8284271,4.25 18,4.25 L6,4.25 C5.17157288,4.25 4.5,4.92157288 4.5,5.75 C4.5,6.57842712 5.17157288,7.25 6,7.25 Z M18,16.75 L6,16.75 C5.17157288,16.75 4.5,17.4215729 4.5,18.25 C4.5,19.0784271 5.17157288,19.75 6,19.75 L18,19.75 C18.8284271,19.75 19.5,19.0784271 19.5,18.25 C19.5,17.4215729 18.8284271,16.75 18,16.75 Z M18,10.5 L6,10.5 C5.17157288,10.5 4.5,11.1715729 4.5,12 C4.5,12.8284271 5.17157288,13.5 6,13.5 L18,13.5 C18.8284271,13.5 19.5,12.8284271 19.5,12 C19.5,11.1715729 18.8284271,10.5 18,10.5 Z" id="menu" fill="#000000" fill-rule="nonzero"></path>
                </g>
            </g>
        </g>
    </g>
</svg>