<?xml version="1.0" encoding="UTF-8"?>
<svg width="16px" height="16px" viewBox="0 0 16 16" version="1.1" xmlns="http://www.w3.org/2000/svg" xmlns:xlink="http://www.w3.org/1999/xlink">
    <!-- Generator: sketchtool 49.3 (51167) - http://www.bohemiancoding.com/sketch -->
    <title>11CEE8D4-17EB-4CC3-BE89-A0E8A90741CE</title>
    <desc>Created with sketchtool.</desc>
    <defs></defs>
    <g id="Colors,-icons" stroke="none" stroke-width="1" fill="none" fill-rule="evenodd">
        <g id="Icons-2" transform="translate(-519.000000, -336.000000)">
            <g id="Coin" transform="translate(519.000000, 336.000000)">
                <rect id="icon-area" x="0" y="0" width="16" height="16"></rect>
                <path d="M2.88764385,9 L8.72411967,9 C9.00026205,9 9.22411967,9.22385763 9.22411967,9.5 L9.22411967,11 L2.38764385,11 L2.38764385,9.5 C2.38764385,9.22385763 2.61150148,9 2.88764385,9 Z M4.51218312,11.5 L10.3486589,11.5 C10.6248013,11.5 10.8486589,11.7238576 10.8486589,12 L10.8486589,13.5 L4.01218312,13.5 L4.01218312,12 C4.01218312,11.7238576 4.23604074,11.5 4.51218312,11.5 Z M3.14488795,14 L8.98136377,14 C9.25750615,14 9.48136377,14.2238576 9.48136377,14.5 L9.48136377,16 L2.64488795,16 L2.64488795,14.5 C2.64488795,14.2238576 2.86874558,14 3.14488795,14 Z" id="Combined-Shape" fill="#000000"></path>
                <path d="M6.63253157,3.07172313 C7.82988115,4.26907272 8.36894138,5.67091834 7.83686629,6.20299342 C7.30479121,6.73506851 5.90294559,6.19600828 4.705596,4.9986587 C3.50824642,3.80130911 2.96918619,2.39946349 3.50126127,1.8673884 C4.03333636,1.33531332 5.43518198,1.87437354 6.63253157,3.07172313 Z M3.3808278,6.11178201 C4.38981944,7.12077365 5.53755043,7.65333046 6.19463546,7.480388 C6.16163669,7.603471 6.1141859,7.71402893 6.0303642,7.79785063 C5.49780739,8.33040745 4.0964435,7.79086549 2.89909391,6.5935159 C1.70174432,5.39616632 1.16220237,3.99480243 1.69475918,3.46224561 C1.77858088,3.37842391 1.88889794,3.33073226 2.01222182,3.29797435 C1.83903848,3.95481851 2.37183617,5.10279038 3.3808278,6.11178201 Z" id="Combined-Shape" fill="#000000" transform="translate(4.765710, 4.832723) rotate(-9.000000) translate(-4.765710, -4.832723) "></path>
                <path d="M13.5543026,3.0050489 L12.3951209,3.0050489 L12.3951209,0.895120949 C12.3951209,0.400759299 11.9943616,8.8817842e-16 11.5,8.8817842e-16 C11.0056384,8.8817842e-16 10.6048791,0.400759299 10.6048791,0.895120949 L10.6048791,3.0050489 L9.44569742,3.0050489 C9.26468424,3.00580786 9.1019506,3.11552797 9.03337432,3.28305003 C8.96479804,3.45057209 9.00388301,3.64290801 9.13240509,3.77037731 L11.5,6.13797222 L13.8675949,3.77037731 C13.996117,3.64290801 14.035202,3.45057209 13.9666257,3.28305003 C13.8980494,3.11552797 13.7353158,3.00580786 13.5543026,3.0050489 Z" id="send-up-path" fill="#000000" transform="translate(11.500000, 3.068986) rotate(180.000000) translate(-11.500000, -3.068986) "></path>
            </g>
        </g>
    </g>
</svg>