<svg xmlns="http://www.w3.org/2000/svg" width="16" height="16" viewBox="0 0 16 16">
    <g fill="#000" fill-rule="evenodd">
        <path d="M2.268 13A2 2 0 0 0 4 14h8a2 2 0 0 0 2-2V4a2 2 0 0 0-2-2H4a2 2 0 0 0-1.732 1H.132A3.997 3.997 0 0 1 4 0h8a4 4 0 0 1 4 4v8a4 4 0 0 1-4 4H4a4.002 4.002 0 0 1-3.874-3h2.142z"/>
        <path fill-rule="nonzero" d="M7.71 3.508a4.49 4.49 0 1 1 0 8.98c-.345 0-.794-.082-1.35-.244a.494.494 0 0 1-.308-.684.643.643 0 0 1 .754-.348c.37.102.672.153.904.153a3.367 3.367 0 1 0 0-6.735c-.235 0-.54.052-.915.157a.644.644 0 0 1-.756-.346.494.494 0 0 1 .307-.684c.56-.166 1.016-.25 1.364-.25zm-4.147 8.659c-.14.14-.31.21-.499.21-.2 0-.369-.07-.508-.21l-.42-.429a.655.655 0 0 1-.208-.498c0-.2.07-.369.209-.498l1.635-1.635H.648a.594.594 0 0 1-.469-.21A.747.747 0 0 1 0 8.4v-.717c0-.19.06-.36.18-.499.12-.14.279-.21.468-.21h3.124L2.137 5.34a.686.686 0 0 1-.21-.498c0-.2.07-.37.21-.509l.419-.408c.14-.14.309-.22.508-.22.19 0 .36.08.499.22l3.629 3.608c.13.15.2.319.2.508a.7.7 0 0 1-.2.499l-3.63 3.628z"/>
    </g>
</svg>
