<svg xmlns="http://www.w3.org/2000/svg" width="24" height="24" viewBox="0 0 24 24">
    <path fill="#000" fill-rule="evenodd" d="M12 15.938A3.921 3.921 0 0 1 8.062 12 3.921 3.921 0 0 1 12 8.062 3.921 3.921 0 0 1 15.938 12 3.921 3.921 0 0 1 12 15.938M19.56 12c0-.474-.05-.936-.14-1.385L21 8.988l-1.8-2.976-2.24.511a7.613 7.613 0 0 0-2.494-1.389L13.8 3h-3.6l-.666 2.134a7.613 7.613 0 0 0-2.495 1.39L4.8 6.011 3 8.988l1.58 1.627c-.09.449-.14.911-.14 1.385s.05.936.14 1.385L3 15.012l1.8 2.976 2.24-.511a7.613 7.613 0 0 0 2.494 1.389L10.2 21h3.6l.666-2.134a7.613 7.613 0 0 0 2.495-1.39l2.239.512 1.8-2.976-1.58-1.627c.09-.449.14-.911.14-1.385"/>
</svg>
