<svg xmlns="http://www.w3.org/2000/svg" width="24" height="24" viewBox="0 0 24 24">
    <path fill="#000" fill-rule="evenodd" d="M12.93 22.033h-1.861a.3.3 0 0 1-.29-.22l-.335-1.204c-.133-.496-.53-.894-1.027-1.06-.298-.099-.629-.231-.894-.364a1.582 1.582 0 0 0-1.49 0l-1.095.59a.3.3 0 0 1-.354-.052l-1.307-1.307a.3.3 0 0 1-.052-.354l.59-1.095c.231-.43.264-.993.033-1.49-.133-.298-.265-.596-.365-.894-.165-.497-.562-.894-1.06-1.027L2.22 13.22A.3.3 0 0 1 2 12.931V11.07a.3.3 0 0 1 .22-.29l1.204-.335c.497-.133.894-.53 1.06-1.027.099-.298.231-.629.364-.894a1.584 1.584 0 0 0-.033-1.49l-.59-1.095a.3.3 0 0 1 .052-.354l1.307-1.307a.3.3 0 0 1 .354-.052l1.095.59c.43.231.993.264 1.49.033.298-.133.596-.265.894-.365.497-.165.894-.562 1.027-1.06l.336-1.204A.3.3 0 0 1 11.069 2h1.862a.3.3 0 0 1 .29.22l.335 1.204c.133.497.53.894 1.027 1.06.298.099.629.231.894.364.497.198 1.06.198 1.49-.033l1.095-.59a.3.3 0 0 1 .354.052l1.307 1.307a.3.3 0 0 1 .052.354l-.59 1.095c-.231.43-.264.993-.033 1.49.133.298.265.596.365.894.165.497.562.894 1.06 1.027l1.204.336a.3.3 0 0 1 .219.289v1.864a.3.3 0 0 1-.218.288l-1.173.335c-.496.133-.894.53-1.06 1.027-.099.298-.231.629-.364.894a1.582 1.582 0 0 0 0 1.49l.59 1.095a.3.3 0 0 1-.052.354l-1.307 1.307a.3.3 0 0 1-.354.052l-1.095-.59a1.679 1.679 0 0 0-1.49-.033c-.298.133-.596.265-.894.365-.497.165-.894.562-1.027 1.06l-.337 1.235a.3.3 0 0 1-.29.221zm-.996-5.508a4.591 4.591 0 1 0 0-9.182 4.591 4.591 0 0 0 0 9.182z"/>
</svg>
