<svg xmlns="http://www.w3.org/2000/svg" width="16" height="16" viewBox="0 0 16 16">
    <g fill="#000" fill-rule="evenodd">
        <path d="M6.022 1.99c0 .553-.313 1.024-.8 1.024H1.995v.195c-.002 1.718.002 3.064 0 4.781 0 .466-.226.997-.95.997-.634 0-1.022-.57-1.028-.997-.032-2.054-.014-3.6 0-5.654.005-.803.605-1.316 1.408-1.324 1.265-.013 2.53-.019 3.795 0 .191.003.801.332.801.979zM7 14.997c0-.552.313-1.023.8-1.023h5.226v-.195c.002-1.718-.002-1.064 0-2.78.001-.467.227-.998.95-.998.634 0 1.022.57 1.029.997.032 2.055.013 1.6 0 3.654-.006.803-.605 1.316-1.408 1.325-1.266.013-4.53-.004-5.796-.001-.427 0-.801-.332-.801-.979z"/>
        <path fill-rule="nonzero" d="M15.5 0C9.152.007 4.007 5.152 4 11.5a.5.5 0 0 0 1 0c.001-.306.018-.613.051-.917.022-.222.047-.443.08-.662l.017-.042a9.212 9.212 0 0 1 1.965-4.196.5.5 0 0 1 .774.634A8.292 8.292 0 0 0 6.257 9.5H8a7.355 7.355 0 0 0 4.81-1.694L12.5 6l1.696.291C15.376 4.591 16.006 2.57 16 .5V0h-.5z"/>
    </g>
</svg>
