<svg xmlns="http://www.w3.org/2000/svg" width="16" height="16" viewBox="0 0 16 16">
    <g fill="none" fill-rule="evenodd">
        <path d="M0 0h16v16H0z"/>
        <g fill="#000" transform="translate(2)">
            <path d="M10.2 11H3V1h7.2a.8.8 0 0 1 .8.8v8.4a.8.8 0 0 1-.8.8zm.8 2H6a.5.5 0 0 0-.5-.5h-2a.5.5 0 0 0-.5.5H1c-.017 0-.017-.333 0-1h10v1zM0 2v9.994a2 2 0 0 0 2.006 2L3 13.991v1.63a.2.2 0 0 0 .313.165l1.187-.812 1.187.812A.2.2 0 0 0 6 15.621v-1.63l3.997.006a2 2 0 0 0 2.003-2V2a2 2 0 0 0-2-2H2a2 2 0 0 0-2 2z"/>
            <circle cx="4.5" cy="2.5" r="1"/>
            <circle cx="4.5" cy="9.5" r="1"/>
            <path d="M8.761 7.097h.105c1.22 0 1.59-.573 1.59-.73 0-.155-.417-.746-1.59-.746-.276 0-.52.031-.734.093a1.22 1.22 0 0 1-.529.807c.445.089.833.28 1.158.576zm.756-2.589a.71.71 0 0 1-.712.708.71.71 0 0 1-.712-.708.71.71 0 0 1 .712-.708.71.71 0 0 1 .712.708zM7 6.798c.815 0 1.888.598 1.888.911 0 .313-.826.891-1.888.891-1.062 0-1.888-.607-1.888-.89 0-.285 1.073-.913 1.888-.913zm.852-1.307a.88.88 0 0 1-.87.89.88.88 0 0 1-.87-.89c0-.49.39-.889.87-.889s.87.399.87.89zM5.237 7.098H5.23c-1.219 0-1.584-.598-1.59-.73-.007-.132.418-.747 1.59-.747.219 0 .418.02.597.058.054.36.259.666.543.848a2.384 2.384 0 0 0-1.133.57zm.644-2.59a.71.71 0 0 1-.712.708.71.71 0 0 1-.712-.708.71.71 0 0 1 .712-.708.71.71 0 0 1 .712.708z"/>
        </g>
    </g>
</svg>
