<svg xmlns="http://www.w3.org/2000/svg" xmlns:xlink="http://www.w3.org/1999/xlink" width="16" height="16" viewBox="0 0 16 16">
    <defs>
        <path id="a" d="M16 11.268A1.99 1.99 0 0 0 15 11a2 2 0 1 0-4 0 2 2 0 1 0 0 4c0 .364.097.706.268 1H0V0h16v11.268zm0 3.464V16h-1.268A1.99 1.99 0 0 0 15 15a1.99 1.99 0 0 0 1-.268z"/>
    </defs>
    <g fill="none" fill-rule="evenodd">
        <mask id="b" fill="#fff">
            <use xlink:href="#a"/>
        </mask>
        <path fill="#000" d="M8 0a8 8 0 1 1 0 16A8 8 0 0 1 8 0zm0 14A6 6 0 1 0 8 2a6 6 0 0 0 0 12z" mask="url(#b)"/>
        <path fill="#000" fill-rule="nonzero" d="M7.898 5.604a.364.364 0 0 0-.185-.606l-1.665-.251-.708-1.522a.366.366 0 0 0-.674 0l-.716 1.52-1.665.25a.363.363 0 0 0-.185.607l1.207 1.254-.268 1.675a.382.382 0 0 0 .543.421l1.412-.782 1.415.79a.38.38 0 0 0 .543-.421l-.27-1.673 1.216-1.262z" mask="url(#b)"/>
        <path fill="#000" d="M8 13c2.21 0 4-1.343 4-3 0 .02-8 .034-8 0 0 1.657 1.79 3 4 3z" mask="url(#b)"/>
        <path fill="#000" fill-rule="nonzero" d="M13.9 5.6a.363.363 0 0 0-.184-.607l-1.665-.25-.709-1.52a.366.366 0 0 0-.673 0l-.716 1.518-1.665.25a.363.363 0 0 0-.185.606l1.206 1.252-.268 1.672a.38.38 0 0 0 .544.42l1.412-.78 1.414.788a.38.38 0 0 0 .543-.42l-.27-1.67 1.217-1.26z" mask="url(#b)"/>
        <path fill="#000" fill-rule="nonzero" d="M14 12v-1a1 1 0 0 0-2 0v1h-1a1 1 0 0 0 0 2h1v1a1 1 0 0 0 2 0v-1h1a1 1 0 0 0 0-2h-1z"/>
    </g>
</svg>
