<svg xmlns="http://www.w3.org/2000/svg" width="16" height="16" viewBox="0 0 16 16">
    <g fill="none" fill-rule="evenodd">
        <path d="M0 0h16v16H0z"/>
        <path fill="#000" d="M2.5 2h11A1.5 1.5 0 0 1 15 3.5v7a1.5 1.5 0 0 1-1.5 1.5h-11A1.5 1.5 0 0 1 1 10.5v-7A1.5 1.5 0 0 1 2.5 2zm1 1.5a1 1 0 0 0-1 1v5a1 1 0 0 0 1 1h9a1 1 0 0 0 1-1v-5a1 1 0 0 0-1-1h-9zM9 4h3a1 1 0 0 1 0 2H9a1 1 0 1 1 0-2zm-9 9c0-.552.445-1 1-1h14c.552 0 1 .444 1 1 0 .552-.445 1-1 1H1c-.552 0-1-.444-1-1z"/>
    </g>
</svg>
