<svg xmlns="http://www.w3.org/2000/svg" width="16" height="16" viewBox="0 0 16 16">
    <path fill="#000" fill-rule="nonzero" d="M14.667 5.333a.667.667 0 1 0 1.333 0A5.34 5.34 0 0 0 10.667 0a.667.667 0 1 0 0 1.333 4.004 4.004 0 0 1 4 4zM1.333 10.667a.667.667 0 1 0-1.333 0A5.34 5.34 0 0 0 5.333 16a.667.667 0 1 0 0-1.333 4.004 4.004 0 0 1-4-4zM7.057.457a1.334 1.334 0 0 0-1.885 0L.458 5.173c-.521.52-.521 1.364 0 1.885l8.485 8.485c.52.521 1.365.521 1.885 0l4.714-4.714c.521-.52.521-1.364 0-1.885L7.057.458zm2.748 12.877L2.62 6.355l3.873-3.823 7.185 6.98-3.873 3.822z"/>
</svg>
