<svg xmlns="http://www.w3.org/2000/svg" width="17" height="16" viewBox="0 0 17 16">
    <path fill="#000" fill-rule="evenodd" d="M8.285 15.496c4.477-.153 8.074-3.777 8.192-8.269.336.769.523 1.619.523 2.512 0 1.12-.26 2.19-.807 3.08-.71 1.153.78 1.701.78 2.385 0 .61-.394.791-1.347.791-1.162 0-3.63.005-4.878.005-.875 0-1.707-.18-2.463-.504zM7.99 0c3.861 0 6.99 3.134 6.99 7s-3.129 7-6.99 7c-1.395 0-4.155-.006-5.454-.006-1.065 0-1.507-.201-1.507-.884 0-.765 1.666-1.377.874-2.667C1.29 9.448 1 8.251 1 7c0-3.866 3.13-7 6.99-7zm.283 9.043A1.04 1.04 0 0 0 7.23 8h-.693c-.572 0-1.043.467-1.043 1.043 0 .58.467 1.044 1.043 1.044h.693c.572 0 1.043-.467 1.043-1.044zM9.704 7c.36 0 .653-.448.653-1s-.292-1-.653-1H6.147c-.36 0-.653.448-.653 1s.292 1 .653 1h3.557z"/>
</svg>
