<svg xmlns="http://www.w3.org/2000/svg" width="16" height="16" viewBox="0 0 16 16">
    <path fill="#000" fill-rule="evenodd" d="M15.85.007c.437 1.088-2.844 3.066-3.337 3.455.568.257 1.686-.223 2.282-.415a.09.09 0 0 1 .115.072c.088.526-1.274 1.962-2.237 2.368-.817.343-1.646.5-2.22 1.202.32.04 1.41.066 2.22-.296.075.778-1.11 1.506-1.674 1.757-1.769.787-3.752.801-5.106 2.688-.491.685-1.547 2.378-2.49 3.702-.429.602-.81 1.271-1.182 1.448a.13.13 0 0 1-.178-.08c-.141-.461.235-2.134 2.034-5.337C6.213 6.766 9.05 3.163 13.014.935 13.274.788 15.03-.09 15.85.007zM6.022 1.991c0 .552-.313 1.023-.8 1.023H1.995v.195c-.002 1.718.002 3.064 0 4.781 0 .466-.226.997-.95.997-.634 0-1.022-.57-1.028-.997-.032-2.054-.014-3.6 0-5.654.005-.803.605-1.316 1.408-1.324 1.265-.013 2.53-.019 3.795 0 .191.003.801.332.801.979zM7 14.996c0-.552.313-1.023.8-1.023h5.226v-.195c.002-1.718-.002-1.064 0-2.78.001-.467.227-.998.95-.998.634 0 1.022.57 1.029.997.032 2.055.013 1.6 0 3.654-.006.803-.605 1.316-1.408 1.325-1.266.013-4.53-.004-5.796-.001-.427 0-.801-.332-.801-.979z"/>
</svg>
