<svg xmlns="http://www.w3.org/2000/svg" width="16" height="16" viewBox="0 0 16 16">
    <path fill="#000" fill-rule="nonzero" d="M7.307 5.427l-1.48 2.906a1.02 1.02 0 0 1-1.511.36L2.383 7.28A1.25 1.25 0 0 0 .243 6.01 1.123 1.123 0 0 0 0 6.75c0 .588.406 1.08.952 1.214L2.447 13.5c2.009 1.5 9.055 1.445 11.192 0l1.266-5.51A1.25 1.25 0 0 0 16 6.73a1.107 1.107 0 0 0-.084-.459 1.23 1.23 0 0 0-.118-.203 1.249 1.249 0 0 0-2.158 1.257l-1.87 1.368a1.02 1.02 0 0 1-1.512-.36l-1.5-2.949a1.313 1.313 0 1 0-1.45.043z"/>
</svg>
