<svg xmlns="http://www.w3.org/2000/svg" xmlns:xlink="http://www.w3.org/1999/xlink" width="16" height="16" viewBox="0 0 16 16">
    <defs>
        <path id="a" d="M16 11.268A1.99 1.99 0 0 0 15 11a2 2 0 1 0-4 0 2 2 0 1 0 0 4c0 .364.097.706.268 1H0V0h16v11.268zm0 3.464V16h-1.268A1.99 1.99 0 0 0 15 15a1.99 1.99 0 0 0 1-.268z"/>
    </defs>
    <g fill="none" fill-rule="evenodd">
        <mask id="b" fill="#fff">
            <use xlink:href="#a"/>
        </mask>
        <path fill="#000" fill-rule="nonzero" d="M1.534 3.244a.668.668 0 0 0 .912-.243 3.344 3.344 0 0 1 2.887-1.668.667.667 0 1 0 0-1.333 4.683 4.683 0 0 0-4.042 2.333.668.668 0 0 0 .243.911zm12.838 4.714a1 1 0 0 0-1.414 0l-1.833 1.834-.53-.53 3-3a1 1 0 1 0-1.415-1.415l-3 3-.53-.53 3.998-3.999a1 1 0 0 0-1.414-1.414L7.236 5.902l-.53-.53 2.666-2.666a1 1 0 0 0-1.414-1.414L2 7.25V5.667a1 1 0 1 0-2 0V8.2c0 1.428.611 2.787 1.678 3.736l2.309 2.053a4.337 4.337 0 0 0 5.943-.175l4.442-4.443a1 1 0 0 0 0-1.414zm.629 4.799a.664.664 0 0 0-.911.242 3.347 3.347 0 0 1-2.888 1.668.667.667 0 0 0 0 1.333 4.683 4.683 0 0 0 4.041-2.333.666.666 0 0 0-.242-.91z" mask="url(#b)"/>
        <path fill="#000" fill-rule="nonzero" d="M14 12v-1a1 1 0 0 0-2 0v1h-1a1 1 0 0 0 0 2h1v1a1 1 0 0 0 2 0v-1h1a1 1 0 0 0 0-2h-1z"/>
    </g>
</svg>
