<?xml version="1.0" encoding="UTF-8"?>
<svg width="16px" height="16px" viewBox="0 0 16 16" version="1.1" xmlns="http://www.w3.org/2000/svg" xmlns:xlink="http://www.w3.org/1999/xlink">
    <!-- Generator: sketchtool 49.3 (51167) - http://www.bohemiancoding.com/sketch -->
    <title>7490F69D-2208-4D45-9E46-DCCF092BC878</title>
    <desc>Created with sketchtool.</desc>
    <defs></defs>
    <g id="Colors,-icons" stroke="none" stroke-width="1" fill="none" fill-rule="evenodd">
        <g id="Icons-2" transform="translate(-307.000000, -187.000000)">
            <g id="kb-iconfont-identity-devices-16" transform="translate(307.000000, 187.000000)">
                <rect id="icon-area" fill="#D8D8D8" opacity="0" x="0" y="0" width="16" height="16"></rect>
                <path d="M12.6666667,0 L3.33333333,0 C2.59695367,0 2,0.596953667 2,1.33333333 L2,14.6666667 C2.00003682,15.4030311 2.59696892,15.9999632 3.33333333,16 L12.6666667,16 C13.4030311,15.9999632 13.9999632,15.4030311 14,14.6666667 L14,1.33333333 C14,0.596953667 13.4030463,0 12.6666667,0 Z M8,14.5 C7.44771525,14.5 7,14.0522847 7,13.5 C7,12.9477153 7.44771525,12.5 8,12.5 C8.55228475,12.5 9,12.9477153 9,13.5 C8.99997423,14.0522741 8.55227407,14.4999742 8,14.5 Z M12,11 L4,11 L4,2 L12,2 L12,11 Z" id="iphone" fill="#000000" fill-rule="nonzero"></path>
            </g>
        </g>
    </g>
</svg>