<svg xmlns="http://www.w3.org/2000/svg" width="24" height="24" viewBox="0 0 24 24">
    <g fill="none" fill-rule="evenodd">
        <path d="M0 0h24v24H0z"/>
        <path fill="#000" d="M12 2c5.522 0 9.999 4.477 9.999 10 0 5.522-4.477 10-10 10-1.995 0-5.943-.008-7.801-.008-1.524 0-2.156-.288-2.156-1.263 0-1.093 2.383-1.968 1.25-3.81C2.416 15.498 2 13.788 2 11.999 2 6.478 6.477 2 12 2zm0 14c0-.556-.448-1-1-1H8c-.556 0-1 .448-1 1 0 .556.448 1 1 1h3c.556 0 1-.448 1-1zm1.06-2c.52 0 .94-.448.94-1s-.42-1-.94-1H7.94c-.52 0-.94.448-.94 1s.42 1 .94 1h5.12zm-5.175-3h8.23c.489 0 .885-.448.885-1s-.396-1-.885-1h-8.23C7.396 9 7 9.448 7 10s.396 1 .885 1z"/>
    </g>
</svg>
