<?xml version="1.0" encoding="UTF-8"?>
<svg width="16px" height="16px" viewBox="0 0 16 16" version="1.1" xmlns="http://www.w3.org/2000/svg" xmlns:xlink="http://www.w3.org/1999/xlink">
    <!-- Generator: sketchtool 40.3 (33839) - http://www.bohemiancoding.com/sketch -->
    <title>DE3DA1AE-6882-4A62-9344-35FC2FF15F36</title>
    <desc>Created with sketchtool.</desc>
    <defs>
        <circle id="path-1" cx="8" cy="8" r="8"></circle>
        <mask id="mask-2" maskContentUnits="userSpaceOnUse" maskUnits="objectBoundingBox" x="0" y="0" width="16" height="16" fill="white">
            <use xlink:href="#path-1"></use>
        </mask>
    </defs>
    <g id="Icons" stroke="none" stroke-width="1" fill="none" fill-rule="evenodd">
        <g id="Style-guide---Desktop---Icons-2" transform="translate(-431.000000, -1116.000000)">
            <g id="kb-iconfont-emoji-16" transform="translate(439.000000, 1124.000000) rotate(-270.000000) translate(-439.000000, -1124.000000) translate(431.000000, 1116.000000)">
                <g id="kb-iconfont-emoji">
                    <rect id="icon-area" x="0" y="0" width="16" height="16"></rect>
                    <g id="Smiley-icon">
                        <use id="Oval-2" stroke="#000000" mask="url(#mask-2)" stroke-width="3" xlink:href="#path-1"></use>
                        <path d="M11.2,8 C11.2,9.19116555 10.5430705,10.2566718 9.53785022,10.8077261 C9.53785022,10.8077261 10.4814542,12.1413946 10.8902427,11.8326366 C12.0502839,10.9564574 12.8,9.5657815 12.8,8 C12.8,6.37282057 11.9903349,4.93474856 10.7519067,4.06668605 C10.3963592,3.81746899 9.57627291,5.21372484 9.57627291,5.21372484 C10.5606046,5.77110673 11.2,6.82480715 11.2,8 Z" id="Oval-2" fill="#000000"></path>
                        <ellipse id="Oval-3" fill="#000000" transform="translate(6.400000, 9.600000) rotate(-270.000000) translate(-6.400000, -9.600000) " cx="6.4" cy="9.6" rx="0.8" ry="1.6"></ellipse>
                        <ellipse id="Oval-3-Copy" fill="#000000" transform="translate(6.400000, 6.400000) rotate(-270.000000) translate(-6.400000, -6.400000) " cx="6.4" cy="6.4" rx="0.8" ry="1.6"></ellipse>
                    </g>
                </g>
            </g>
        </g>
    </g>
</svg>