<svg xmlns="http://www.w3.org/2000/svg" width="24" height="24" viewBox="0 0 24 24">
    <path fill="#000" fill-rule="nonzero" d="M1 17.943v.089a2 2 0 0 0 .824 1.617l.552.401a.867.867 0 0 0 1.376-.7v-2.324a5.021 5.021 0 0 1 1.052-3.018C2.565 14.683 1 16.19 1 17.943zM16.136 7.128a4.128 4.128 0 1 0-8.256 0 4.128 4.128 0 0 0 8.256 0zm-10.09 0c0-.4.04-.798.119-1.19a3.169 3.169 0 0 0-1.037-.186 3.21 3.21 0 1 0 2.41 5.308 5.93 5.93 0 0 1-1.493-3.932zm13.3 6.88a5.021 5.021 0 0 1 1.052 3.018v2.323a.867.867 0 0 0 1.376.701l.552-.4a2 2 0 0 0 .824-1.618v-.089c0-1.752-1.565-3.26-3.804-3.935zm2.752-5.045a3.214 3.214 0 0 0-3.21-3.211 3.169 3.169 0 0 0-1.037.187 5.933 5.933 0 0 1-1.374 5.121 3.197 3.197 0 0 0 5.621-2.097zm-10.09 4.127c-3.54 0-6.421 1.936-6.421 4.315v1.498a2 2 0 0 0 1.018 1.742A10.321 10.321 0 0 0 11.752 22c1.854 0 3.711-.464 5.57-1.393a2 2 0 0 0 1.107-1.79v-1.412c0-2.38-2.88-4.315-6.421-4.315z"/>
</svg>
