<svg xmlns="http://www.w3.org/2000/svg" width="16" height="16" viewBox="0 0 16 16">
    <g fill="none" fill-rule="evenodd">
        <g fill="#000">
            <path d="M10.001 6.455c-.309.44-.525.963-.621 1.545H8v2h1.507c.018.065.038.13.059.194-.725.47-1.248 1.05-1.46 1.806H8v2H6v-2H4v2H1c-.555 0-1-.444-1-.99V2.377C0 1.625.581 1 1.418 1h3.516c.262 0 .523.117.697.346l1.14 1.45C6.965 3.058 7.669 4 7.935 4h5.067H12v1.1a3.39 3.39 0 0 0-1.597.88h-.402v.475zM6 10v2h2v-2H6zM13.786 11.284c-.042-.015-.304-.138-.14-.657h-.002a2.965 2.965 0 0 0 .752-1.924c0-1.117-.711-1.703-1.538-1.703-.827 0-1.535.585-1.535 1.703 0 .73.324 1.47.753 1.929.167.458-.132.628-.194.652-.866.327-1.882.923-1.882 1.511v.221c0 .802 1.488.984 2.866.984 1.38 0 2.849-.182 2.849-.984v-.22c0-.607-1.02-1.198-1.93-1.512z"/>
        </g>
    </g>
</svg>
