<?xml version="1.0" encoding="UTF-8"?>
<svg width="16px" height="16px" viewBox="0 0 16 16" version="1.1" xmlns="http://www.w3.org/2000/svg" xmlns:xlink="http://www.w3.org/1999/xlink">
    <!-- Generator: sketchtool 41.2 (35397) - http://www.bohemiancoding.com/sketch -->
    <title>285D4B08-8680-4377-B09D-795C9C219FD6</title>
    <desc>Created with sketchtool.</desc>
    <defs></defs>
    <g id="Icons" stroke="none" stroke-width="1" fill="none" fill-rule="evenodd">
        <g id="Style-guide---Desktop---Icons-2" transform="translate(-401.000000, -1394.000000)">
            <g id="kb-iconfont-lock-16" transform="translate(401.000000, 1394.000000)">
                <g id="icon">
                    <rect id="icon-area" fill="#D8D8D8" opacity="0" x="0" y="0" width="16" height="16"></rect>
                    <path d="M12,6.97170652 L14,6.97170652 L14,15.416151 C14,15.7228176 13.7511111,15.9717065 13.4444444,16 L3.55555556,16 C3.24888889,15.9717065 3,15.7228176 3,15.416151 L3,8.46548499 C3,7.52687628 3.55555558,6.97170652 4.51263893,6.97170652 L5,6.97170652 L5,5.25043124 L5,3.50086248 C5,1.56738952 6.57093664,0 8.5,0 C10.4329966,0 12,1.56810375 12,3.50086248 L12,5.25043124 L12,6.97170652 L12,6.97170652 Z M10,6.97170652 L7,6.97170652 L7,3.50086248 C7,2.6735539 7.67391068,2 8.5,2 C9.32800711,2 10,2.67225321 10,3.50086248 L10,6.97170652 Z M6.71428571,13.9717065 L5.28571429,13.9717065 C5.128,13.9717065 5,13.7482065 5,13.4717065 C5,13.1952065 5.128,12.9717065 5.28571429,12.9717065 L6.71428571,12.9717065 C6.872,12.9717065 7,13.1952065 7,13.4717065 C7,13.7482065 6.872,13.9717065 6.71428571,13.9717065 Z M6.71428571,11.9717065 L5.28571429,11.9717065 C5.128,11.9717065 5,11.7482065 5,11.4717065 C5,11.1952065 5.128,10.9717065 5.28571429,10.9717065 L6.71428571,10.9717065 C6.872,10.9717065 7,11.1952065 7,11.4717065 C7,11.7482065 6.872,11.9717065 6.71428571,11.9717065 Z M6.71428571,9.97170652 L5.28571429,9.97170652 C5.128,9.97170652 5,9.74820652 5,9.47170652 C5,9.19520652 5.128,8.97170652 5.28571429,8.97170652 L6.71428571,8.97170652 C6.872,8.97170652 7,9.19520652 7,9.47170652 C7,9.74820652 6.872,9.97170652 6.71428571,9.97170652 Z" id="lock" fill="#000000"></path>
                </g>
            </g>
        </g>
    </g>
</svg>