<svg xmlns="http://www.w3.org/2000/svg" width="16" height="16" viewBox="0 0 16 16">
    <path fill="#000" fill-rule="nonzero" d="M8.333 4a2 2 0 1 0 0-4 2 2 0 0 0 0 4zm5.858 2.152a1 1 0 0 0-1.372-.343l-.997.599-.667-.667a4.245 4.245 0 0 0-2.822-1.074h-.666c-1.243.08-2.47.322-3.65.718l-.325.108L2.168 7.78a1 1 0 1 0 1.664 1.109L4.97 7.181c.33-.098.791-.224 1.27-.326L4.333 12l.02-.007L4.35 12H2a1 1 0 1 0 0 2h3.65l.976-2.197 3.04.936V15a1 1 0 1 0 2 0v-3.739l-3.02-.929 1.066-3.198c.008.007.021.013.029.02l1.77 1.772 2.337-1.402a1 1 0 0 0 .343-1.372z"/>
</svg>
