<?xml version="1.0" encoding="UTF-8"?>
<svg width="16px" height="16px" viewBox="0 0 16 16" version="1.1" xmlns="http://www.w3.org/2000/svg" xmlns:xlink="http://www.w3.org/1999/xlink">
    <!-- Generator: sketchtool 49.3 (51167) - http://www.bohemiancoding.com/sketch -->
    <title>C039BBD5-2A2E-4B78-8B83-9A03E8E588D3</title>
    <desc>Created with sketchtool.</desc>
    <defs>
        <rect id="path-1" x="0" y="0" width="16" height="16"></rect>
    </defs>
    <g id="Colors,-icons" stroke="none" stroke-width="1" fill="none" fill-rule="evenodd">
        <g id="Icons-2" transform="translate(-371.000000, -482.000000)">
            <g id="kb-iconfont-bomb-16" transform="translate(371.000000, 482.000000)">
                <mask id="mask-2" fill="white">
                    <use xlink:href="#path-1"></use>
                </mask>
                <g id="icon-area"></g>
                <g id="Message-box-bomb" mask="url(#mask-2)">
                    <g transform="translate(1.000000, 1.000000)">
                        <path d="M13.3984642,4.89438239 L14.1556586,4.13703461 L13.2131248,3.19450078 L12.4559303,3.95184857 L11.0419696,2.53772122 L10.0620027,3.51768152 C7.73089397,2.89319458 5.27096979,3.91225908 4.06439531,6.00229013 C2.85782082,8.09232117 3.20544704,10.7321839 4.91195216,12.4386106 C6.61845728,14.1450373 9.25833602,14.4925422 11.3483116,13.2858716 C13.4382872,12.0792011 14.4572386,9.61923009 13.8326445,7.28815009 L14.8124649,6.30818979 L13.3984642,4.89438239 Z M9.05892662,6.3723047 C8.77301187,6.65822056 8.34301847,6.7437522 7.96945197,6.58901631 C7.59588548,6.43428042 7.35231354,6.06974964 7.35231354,5.66540433 C7.35231354,5.26105903 7.59588548,4.89652824 7.96945197,4.74179235 C8.34301847,4.58705646 8.77301187,4.67258811 9.05892662,4.95850397 C9.24646376,5.14595208 9.35182851,5.40023972 9.35182851,5.66539434 C9.35182851,5.93054895 9.24646376,6.18483659 9.05892662,6.37228471 L9.05892662,6.3723047 Z" id="bomb" fill="#000000" fill-rule="nonzero" transform="translate(9.081235, 8.269052) scale(-1, 1) translate(-9.081235, -8.269052) "></path>
                        <g id="Group-8" stroke-width="1" fill="none" fill-rule="evenodd" transform="translate(0.000000, 0.099976)">
                            <path d="M4,4.05958993 L4,3.60003662 C4,3.04775187 3.55228475,2.60003662 3,2.60003662 C2.44771525,2.60003662 2,3.04775187 2,3.60003662 L2,6.90002441 C2,7.45230916 1.55228475,7.90002441 1,7.90002441 L1,7.90002441 C0.44771525,7.90002441 5.11724585e-16,7.45230916 4.4408921e-16,6.90002441 L0,3.60003662 C-2.22044605e-16,1.94318237 1.34314575,0.600036621 3,0.600036621 C4.65685425,0.600036621 6,1.94318237 6,3.60003662 L6,4.02759129 L4,4.05958993 Z" id="Path" fill="#000000"></path>
                        </g>
                    </g>
                </g>
                <polygon id="bomb" fill="#000000" fill-rule="nonzero" points="1.785645 11.785645 2.5 10 3.214355 11.785645 5 12.5 3.214355 13.214355 2.5 15 1.785645 13.214355 0 12.5"></polygon>
            </g>
        </g>
    </g>
</svg>