<svg xmlns="http://www.w3.org/2000/svg" xmlns:xlink="http://www.w3.org/1999/xlink" width="16" height="16" viewBox="0 0 16 16">
    <defs>
        <path id="a" d="M2.237 3H2.23C1.011 3 .646 2.456.64 2.336c-.007-.12.418-.68 1.59-.68.219 0 .418.018.597.054.054.327.259.605.543.77A2.48 2.48 0 0 0 2.237 3zM2.881.644c0 .356-.32.644-.712.644-.394 0-.712-.288-.712-.644 0-.355.318-.644.712-.644.393 0 .712.289.712.644z"/>
        <path id="b" d="M5.761 2.999L5.866 3c1.22 0 1.59-.522 1.59-.664 0-.142-.417-.68-1.59-.68-.276 0-.52.029-.734.085-.061.31-.258.574-.529.735.445.08.833.255 1.158.523zM6.517.644c0 .356-.319.644-.712.644-.393 0-.712-.288-.712-.644 0-.355.319-.644.712-.644.393 0 .712.289.712.644z"/>
    </defs>
    <g fill="none" fill-rule="evenodd">
        <path d="M0 0h16v16H0z"/>
        <g transform="translate(2)">
            <path fill="#000" d="M10.2 11H3V1h7.2a.8.8 0 0 1 .8.8v8.4a.8.8 0 0 1-.8.8zm.8 2H6a.5.5 0 0 0-.5-.5h-2a.5.5 0 0 0-.5.5H1c-.017 0-.017-.333 0-1h10v1zM0 2v9.994a2 2 0 0 0 2.006 2L3 13.991v1.63a.2.2 0 0 0 .313.165l1.187-.812 1.187.812A.2.2 0 0 0 6 15.621v-1.63l3.997.006a2 2 0 0 0 2.003-2V2a2 2 0 0 0-2-2H2a2 2 0 0 0-2 2z"/>
            <circle cx="4.5" cy="2.5" r="1" fill="#000"/>
            <circle cx="4.5" cy="9.5" r="1" fill="#000"/>
            <g transform="translate(3 4)">
                <use fill="#000" xlink:href="#a"/>
                <path stroke="#FFF" stroke-width=".3" d="M2.237 3.15H2.23c-1.031 0-1.72-.426-1.74-.806-.02-.373.736-.838 1.74-.838.228 0 .437.019.626.056l.119.123a.957.957 0 0 0 .47.666l.347.202-.394.075a2.33 2.33 0 0 0-1.066.488l-.095.034zM3.031.644c0 .442-.39.794-.862.794-.473 0-.862-.352-.862-.794 0-.442.389-.794.862-.794.472 0 .862.352.862.794z"/>
            </g>
            <g transform="translate(3 4)">
                <use fill="#000" xlink:href="#b"/>
                <path stroke="#FFF" stroke-width=".3" d="M5.758 3.149l-.092-.034a2.337 2.337 0 0 0-1.09-.492l-.395-.071.345-.205a.959.959 0 0 0 .459-.635l.109-.116c.226-.06.484-.09.772-.09 1.01 0 1.74.443 1.74.83 0 .394-.695.814-1.74.814l-.108-.001zM6.667.644c0 .442-.39.794-.862.794-.473 0-.862-.352-.862-.794 0-.442.39-.794.862-.794.473 0 .862.352.862.794z"/>
            </g>
            <path fill="#000" d="M7 6.727c.815 0 1.888.544 1.888.829 0 .285-.826.81-1.888.81-1.062 0-1.888-.552-1.888-.81s1.073-.83 1.888-.83zm.852-1.188c0 .446-.39.808-.87.808s-.87-.362-.87-.808c0-.447.39-.809.87-.809s.87.362.87.809z"/>
        </g>
    </g>
</svg>
