<svg xmlns="http://www.w3.org/2000/svg" width="24" height="24" viewBox="0 0 24 24">
    <g fill="#000" fill-rule="evenodd">
        <path d="M6.654 9.786a12.088 12.088 0 0 0-.947-.036c-1.846 0-3.312.38-4.397 1.138a2 2 0 0 0 .064 3.321c.742.477 1.678.787 2.808.928a9.87 9.87 0 0 1 4.109-2.581 5.496 5.496 0 0 1-1.637-2.77zm-.133-1.75a2.626 2.626 0 1 1 1.441-3.268 5.478 5.478 0 0 0-1.44 3.268zM17.343 9.8c.354-.033.726-.05 1.114-.05 1.847 0 3.313.38 4.398 1.138a2 2 0 0 1-.064 3.321c-.775.498-1.76.813-2.956.945a9.872 9.872 0 0 0-4.126-2.598A5.496 5.496 0 0 0 17.343 9.8zm.144-1.657a2.626 2.626 0 1 0-1.654-3.586 5.482 5.482 0 0 1 1.654 3.586zM11.859 14c2.594 0 4.71.774 6.347 2.323a2 2 0 0 1 .003 2.903C16.964 20.41 14.847 21 11.859 21c-2.989 0-5.106-.591-6.35-1.774a2 2 0 0 1 .002-2.903C7.15 14.774 9.265 14 11.86 14zM15.5 8.5a3.501 3.501 0 0 1-7 0 3.501 3.501 0 0 1 7 0z"/>
    </g>
</svg>
