<svg xmlns="http://www.w3.org/2000/svg" width="16" height="16" viewBox="0 0 16 16">
    <path fill="#000" fill-rule="evenodd" d="M8 9.28l1.88 1.88a.503.503 0 0 0 .71.01l.58-.58a.496.496 0 0 0-.01-.71L9.28 8l1.88-1.88a.503.503 0 0 0 .01-.71l-.58-.58a.496.496 0 0 0-.71.01L8 6.72 6.12 4.84a.503.503 0 0 0-.71-.01l-.58.58a.496.496 0 0 0 .01.71L6.72 8 4.84 9.88a.503.503 0 0 0-.01.71l.58.58a.496.496 0 0 0 .71-.01L8 9.28zM0 8c0-4.418 3.59-8 8-8 4.418 0 8 3.59 8 8 0 4.418-3.59 8-8 8-4.418 0-8-3.59-8-8z"/>
</svg>
