<svg xmlns="http://www.w3.org/2000/svg" width="16" height="16" viewBox="0 0 16 16">
    <g fill="#000" fill-rule="evenodd">
        <path d="M13.004 10.402v2.628c0 .55-.445.996-.998.996H2.974a.995.995 0 0 1-.998-.996V3.99c0-.553.445-.995.998-.995h3.04a2 2 0 0 0 1.465-.64l.333-.358A.593.593 0 0 0 7.377 1H2.974C1.334 1.019 0 2.354 0 3.99v9.04A2.975 2.975 0 0 0 2.974 16h9.051A2.976 2.976 0 0 0 15 13.03V8.939a.577.577 0 0 0-.998-.394l-.459.49a2 2 0 0 0-.54 1.367z"/>
        <path d="M6.854 6.613L13 .364a1.223 1.223 0 0 1 1.702-.038l.91.846.03.028c.476.472.478 1.24.003 1.715L9.402 9.149 6.854 6.613zm1.353 2.962l-1.432.402a.606.606 0 0 1-.752-.748l.404-1.425 1.78 1.771z"/>
    </g>
</svg>
