<svg xmlns="http://www.w3.org/2000/svg" width="16" height="16" viewBox="0 0 16 16">
    <path fill="#000" fill-rule="evenodd" d="M4.384 8.625h.11l3.514-.859-1.71 6.797c-.016.09 0 .18.047.256a.396.396 0 0 0 .217.166c.063 0 .109.015.124.015.171 0 .296-.076.358-.211l4.697-9.735c.063-.136.047-.257-.062-.362a.41.41 0 0 0-.295-.136c-.032 0-.063.015-.11.015l-3.437.83L9.33 1.511c.016-.06.032-.105.032-.15a.325.325 0 0 0-.11-.257.454.454 0 0 0-.28-.105H6.127a.39.39 0 0 0-.233.075c-.078.06-.124.12-.14.196L4.012 8.218c-.03.121 0 .241.11.316.077.06.154.091.263.091z"/>
</svg>
