<svg xmlns="http://www.w3.org/2000/svg" width="16" height="16" viewBox="0 0 16 16">
    <path fill="#000" fill-rule="evenodd" d="M13.96 1.133C12.51-.305 10.484-.383 9.142.948l-.946.94a.929.929 0 1 0 1.31 1.318l.946-.938c.695-.69 1.605-.404 2.199.185.316.313.49.73.49 1.173 0 .443-.174.86-.49 1.174l-2.98 2.957c-1.363 1.352-2.003.717-2.276.446a.93.93 0 0 0-1.31 1.32c.626.62 1.34.928 2.09.928.916 0 1.884-.462 2.805-1.376l2.98-2.956A3.49 3.49 0 0 0 15 3.626a3.49 3.49 0 0 0-1.04-2.493M5.493 11.901l-.759.754a1.698 1.698 0 0 1-2.385 0 1.642 1.642 0 0 1-.49-1.174c0-.442.174-.86.49-1.173l2.793-2.772c.58-.574 1.669-1.42 2.462-.632a.93.93 0 1 0 1.31-1.319c-1.35-1.339-3.344-1.092-5.08.632L1.038 8.989A3.488 3.488 0 0 0 0 11.481c0 .942.369 1.827 1.04 2.493A3.541 3.541 0 0 0 3.54 15c.907 0 1.813-.342 2.503-1.027l.76-.754a.93.93 0 1 0-1.31-1.318"/>
</svg>
