<?xml version="1.0" encoding="UTF-8"?>
<svg width="16px" height="16px" viewBox="0 0 16 16" version="1.1" xmlns="http://www.w3.org/2000/svg" xmlns:xlink="http://www.w3.org/1999/xlink">
    <!-- Generator: sketchtool 49.3 (51167) - http://www.bohemiancoding.com/sketch -->
    <title>913A7465-CC9D-4DAC-AE07-2F8728666B62</title>
    <desc>Created with sketchtool.</desc>
    <defs></defs>
    <g id="Colors,-icons" stroke="none" stroke-width="1" fill="none" fill-rule="evenodd">
        <g id="Icons-2" transform="translate(-519.000000, -187.000000)">
            <g id="kb-iconfont-notifications-desktop-16" transform="translate(519.000000, 186.000000)">
                <rect id="Rectangle-17" x="0" y="1" width="16" height="16"></rect>
                <path d="M0,15 L0,15.66764 C6.62682117e-05,16.4034859 0.596594098,16.9999779 1.33244,17 L14.66756,17 C15.4034059,16.9999779 15.9999337,16.4034859 16,15.66764 L16,15 L0,15 Z M14.9806799,7.33333333 C14.9806799,6.59695367 14.3837262,6 13.6473465,6 L2.31770217,6 C1.58133775,6.00003682 0.98440565,6.59696892 0.984368834,7.33333333 L0.984368834,16 L14.9806799,16 L14.9806799,7.33333333 Z M13,14 L3,14 L3,8 L13,8 L13,14 Z" id="laptop" fill="#000000" fill-rule="nonzero"></path>
                <path d="M10.8284271,3.47140452 C9.26533061,1.91172185 6.73466939,1.91172185 5.17157288,3.47140452 C4.91122335,3.73175405 4.48911336,3.73175405 4.22876383,3.47140452 C3.96841431,3.21105499 3.96841431,2.78894501 4.22876383,2.52859548 C6.31295471,0.449168966 9.68704529,0.449168966 11.7712362,2.52859548 C12.0315857,2.78894501 12.0315857,3.21105499 11.7712362,3.47140452 C11.5108866,3.73175405 11.0887767,3.73175405 10.8284271,3.47140452 Z" id="shake-path" fill="#000000"></path>
            </g>
        </g>
    </g>
</svg>