<svg xmlns="http://www.w3.org/2000/svg" width="16" height="16" viewBox="0 0 16 16">
    <path fill="#000" fill-rule="nonzero" d="M10.816 10.84a2.593 2.593 0 0 1-.012-.045h-1.01c-.482 0-.936-.123-1.332-.338a2.5 2.5 0 1 1 0-4.915c.397-.214.85-.336 1.333-.336h1.001l.014-.053a4 4 0 1 0 .006 5.688zm3.11-7.382c.354.114.685.31.962.58L16 5.109V4a4 4 0 0 0-4-4H4a4 4 0 0 0-4 4v8a4 4 0 0 0 4 4h8a4 4 0 0 0 4-4v-1.11l-1.1 1.06c-.279.277-.614.477-.974.593A2 2 0 0 1 12 14H4a2 2 0 0 1-2-2V4a2 2 0 0 1 2-2h8a2 2 0 0 1 1.926 1.458zm-.853 1.725A.63.63 0 0 0 12 5.609v1.394H9a1 1 0 1 0 0 2h3v1.393a.63.63 0 0 0 1.073.427L16 8.003l-2.927-2.82z"/>
</svg>
