<svg xmlns="http://www.w3.org/2000/svg" width="16" height="16" viewBox="0 0 16 16">
    <path fill="#000" fill-rule="evenodd" d="M2.25 9.048l4.538 4.539a.857.857 0 0 0 .624.262c.25 0 .461-.087.636-.262l.524-.536a.82.82 0 0 0 .261-.624.818.818 0 0 0-.261-.623L6.527 9.759h4.9a.743.743 0 0 0 .586-.262.935.935 0 0 0 .225-.624v-.897a.934.934 0 0 0-.225-.624.74.74 0 0 0-.586-.262h-4.9l2.045-2.045a.858.858 0 0 0 .261-.623.866.866 0 0 0-.261-.636l-.524-.512A.878.878 0 0 0 7.412 3c-.237 0-.45.1-.624.274L2.25 7.788A.95.95 0 0 0 2 8.424c0 .25.087.45.25.624"/>
</svg>
