<?xml version="1.0" encoding="UTF-8"?>
<svg width="16px" height="16px" viewBox="0 0 16 16" version="1.1" xmlns="http://www.w3.org/2000/svg" xmlns:xlink="http://www.w3.org/1999/xlink">
    <!-- Generator: sketchtool 49.2 (51160) - http://www.bohemiancoding.com/sketch -->
    <title>C039BBD5-2A2E-4B78-8B83-9A03E8E588D3</title>
    <desc>Created with sketchtool.</desc>
    <defs>
        <rect id="path-1" x="0" y="0" width="16" height="16"></rect>
    </defs>
    <g id="Colors,-icons" stroke="none" stroke-width="1" fill="none" fill-rule="evenodd">
        <g id="Icons-2" transform="translate(-371.000000, -482.000000)">
            <g id="kb-iconfont-bomb-16" transform="translate(371.000000, 482.000000)">
                <mask id="mask-2" fill="white">
                    <use xlink:href="#path-1"></use>
                </mask>
                <g id="icon-area"></g>
                <g id="Message-box-bomb" mask="url(#mask-2)">
                    <g transform="translate(-455.000000, 1.000000)">
                        <path d="M469.398464,4.89438239 L470.155659,4.13703461 L469.213125,3.19450078 L468.45593,3.95184857 L467.04197,2.53772122 L466.062003,3.51768152 C463.730894,2.89319458 461.27097,3.91225908 460.064395,6.00229013 C458.857821,8.09232117 459.205447,10.7321839 460.911952,12.4386106 C462.618457,14.1450373 465.258336,14.4925422 467.348312,13.2858716 C469.438287,12.0792011 470.457239,9.61923009 469.832645,7.28815009 L470.812465,6.30818979 L469.398464,4.89438239 Z M465.058927,6.3723047 C464.773012,6.65822056 464.343018,6.7437522 463.969452,6.58901631 C463.595885,6.43428042 463.352314,6.06974964 463.352314,5.66540433 C463.352314,5.26105903 463.595885,4.89652824 463.969452,4.74179235 C464.343018,4.58705646 464.773012,4.67258811 465.058927,4.95850397 C465.246464,5.14595208 465.351829,5.40023972 465.351829,5.66539434 C465.351829,5.93054895 465.246464,6.18483659 465.058927,6.37228471 L465.058927,6.3723047 Z" id="bomb" fill="#000000" fill-rule="nonzero" transform="translate(465.081235, 8.269052) scale(-1, 1) translate(-465.081235, -8.269052) "></path>
                        <g id="Group-8" stroke-width="1" fill="none" fill-rule="evenodd" transform="translate(456.000000, 0.099976)">
                            <path d="M4,4.05958993 L4,3.60003662 C4,3.04775187 3.55228475,2.60003662 3,2.60003662 C2.44771525,2.60003662 2,3.04775187 2,3.60003662 L2,6.90002441 C2,7.45230916 1.55228475,7.90002441 1,7.90002441 L1,7.90002441 C0.44771525,7.90002441 5.11724585e-16,7.45230916 4.4408921e-16,6.90002441 L0,3.60003662 C-2.22044605e-16,1.94318237 1.34314575,0.600036621 3,0.600036621 C4.65685425,0.600036621 6,1.94318237 6,3.60003662 L6,4.02759129 L4,4.05958993 Z" id="Path" fill="#000000"></path>
                        </g>
                    </g>
                </g>
                <polygon id="bomb" fill="#000000" fill-rule="nonzero" points="1.785645 11.785645 2.5 10 3.214355 11.785645 5 12.5 3.214355 13.214355 2.5 15 1.785645 13.214355 0 12.5"></polygon>
            </g>
        </g>
    </g>
</svg>