<svg xmlns="http://www.w3.org/2000/svg" width="16" height="16" viewBox="0 0 16 16">
    <path fill="#000" fill-rule="evenodd" d="M6.476 2.092c2.416 0 4.382 1.94 4.382 4.326 0 2.386-1.966 4.327-4.382 4.327-2.417 0-4.382-1.941-4.382-4.327 0-2.385 1.965-4.326 4.382-4.326m9.368 12.426l-4.245-4.213.262-.352.007-.01a5.51 5.51 0 0 0 .14-.188l.003-.006c1.663-2.36 1.295-5.696-.905-7.867A6.505 6.505 0 0 0 6.506 0a6.506 6.506 0 0 0-4.6 1.881A6.341 6.341 0 0 0 0 6.424a6.34 6.34 0 0 0 1.906 4.542 6.489 6.489 0 0 0 4.589 1.877c1.04 0 2.075-.249 3.001-.722.104-.058.413-.235.66-.433l4.312 4.159a.55.55 0 0 0 .367.153.498.498 0 0 0 .35-.149l.215-.205c.164-.156.337-.32.461-.443.24-.238.124-.537-.017-.685"/>
</svg>
