<svg xmlns="http://www.w3.org/2000/svg" width="16" height="16" viewBox="0 0 16 16">
    <path fill="#000" fill-rule="evenodd" d="M8.568 15H7.406a.3.3 0 0 1-.29-.22l-.216-.775a1.095 1.095 0 0 0-.717-.74 5.034 5.034 0 0 1-.625-.255 1.105 1.105 0 0 0-1.041 0l-.706.38a.3.3 0 0 1-.354-.052l-.818-.818a.3.3 0 0 1-.052-.354l.38-.706c.162-.3.185-.694.023-1.041-.093-.209-.185-.417-.255-.625a1.095 1.095 0 0 0-.74-.717l-.776-.217A.3.3 0 0 1 1 8.571V7.407a.3.3 0 0 1 .22-.289l.775-.216c.347-.093.625-.37.74-.717.07-.209.162-.44.255-.625a1.107 1.107 0 0 0-.023-1.041l-.38-.706a.3.3 0 0 1 .052-.355l.818-.818a.3.3 0 0 1 .354-.052l.706.38c.3.162.694.185 1.041.024.208-.093.417-.186.625-.255.347-.116.625-.393.717-.74l.217-.776a.3.3 0 0 1 .289-.22H8.57a.3.3 0 0 1 .289.22l.216.776c.093.347.37.624.717.74.209.07.44.162.625.255.347.138.74.138 1.041-.024l.706-.38a.3.3 0 0 1 .354.052l.819.818a.3.3 0 0 1 .052.355l-.38.706c-.162.3-.186.694-.024 1.04.093.209.185.417.255.626.116.347.393.624.74.717l.776.216a.3.3 0 0 1 .22.29v1.165a.3.3 0 0 1-.218.288l-.755.216c-.347.092-.624.37-.74.717-.07.208-.162.44-.255.625-.185.347-.161.74 0 1.04l.38.707a.3.3 0 0 1-.051.354l-.819.818a.3.3 0 0 1-.354.052l-.706-.38a1.173 1.173 0 0 0-1.04-.023 7.082 7.082 0 0 1-.626.255 1.095 1.095 0 0 0-.717.74l-.217.797a.3.3 0 0 1-.29.221zm-.627-3.849a3.208 3.208 0 1 0 0-6.416 3.208 3.208 0 0 0 0 6.416z"/>
</svg>
