<?xml version="1.0" encoding="UTF-8"?>
<svg width="16px" height="16px" viewBox="0 0 16 16" version="1.1" xmlns="http://www.w3.org/2000/svg" xmlns:xlink="http://www.w3.org/1999/xlink">
    <!-- Generator: sketchtool 49.3 (51167) - http://www.bohemiancoding.com/sketch -->
    <title>D6232EF7-BCC5-45E3-847E-0AAEAE64D383</title>
    <desc>Created with sketchtool.</desc>
    <defs></defs>
    <g id="Colors,-icons" stroke="none" stroke-width="1" fill="none" fill-rule="evenodd">
        <g id="Icons-2" transform="translate(-370.000000, -396.000000)" fill="#000000" fill-rule="nonzero">
            <g id="kb-iconfont-mention-16" transform="translate(370.000000, 396.000000)">
                <path d="M7.99964415,0 C3.61774063,0.00039501303 0.0515078602,3.52571326 0.00055199439,7.90732051 C-0.0504038714,12.2889278 3.43288016,15.8962283 7.8135894,15.9985281 L7.8135894,14.1372363 C4.4484355,14.0351899 1.79313334,11.2422117 1.86118091,7.87619869 C1.92922847,4.51018566 4.69524109,1.82680522 8.06176978,1.86084694 C11.4282985,1.89488866 14.1394833,4.63365352 14.1394509,8.00035431 L14.1394509,8.37246381 C14.1394509,9.09175022 13.5563541,9.67484707 12.8370677,9.67484707 C12.1177813,9.67484707 11.5346844,9.09175022 11.5346844,8.37246381 L11.5346844,8.00035431 C11.551939,6.30986614 10.3816302,4.83882603 8.73053007,4.47562337 C7.07942989,4.11242071 5.39983888,4.95655084 4.70609433,6.49822735 C4.01234978,8.03990387 4.49449531,9.85680159 5.86135398,10.8516611 C7.22821264,11.8465205 9.10534866,11.746811 10.3591235,10.6127491 L10.4895777,10.4950136 L10.6146065,10.618554 C11.5206219,11.51755 12.8785222,11.7831915 14.0565181,11.2918837 C15.234514,10.8005759 16.0012544,9.64880866 15.9999985,8.37246381 L15.9999985,8.00035431 C15.9950767,3.58392089 12.4160776,0.00492173574 7.99964415,0 Z M8,10 C6.8954305,10 6,9.1045695 6,8 C6,6.8954305 6.8954305,6 8,6 C9.1045695,6 10,6.8954305 10,8 C9.99879486,9.10406993 9.10406993,9.99879486 8,10 Z" id="at_symbol"></path>
            </g>
        </g>
    </g>
</svg>