<?xml version="1.0" encoding="UTF-8" standalone="no"?>
<svg width="16px" height="16px" viewBox="0 0 16 16" version="1.1" xmlns="http://www.w3.org/2000/svg" xmlns:xlink="http://www.w3.org/1999/xlink">
    <!-- Generator: sketchtool 39.1 (31720) - http://www.bohemiancoding.com/sketch -->
    <title>D5225B32-B458-488B-8732-B3346ADB3684</title>
    <desc>Created with sketchtool.</desc>
    <defs></defs>
    <g id="Icons" stroke="none" stroke-width="1" fill="none" fill-rule="evenodd">
        <g id="Style-guide---Desktop---Icons-2" transform="translate(-415.000000, -1726.000000)">
            <g id="kb-iconfont-open-browser" transform="translate(415.000000, 1726.000000)">
                <g>
                    <rect id="icon-area" fill="#D8D8D8" opacity="0" x="0" y="0" width="16" height="16"></rect>
                    <path d="M1.99930771,15.000739 C1.4474053,15.0009865 1.00106451,14.5553983 1.00229012,14.009449 C1.00229012,14.009449 1.02672462,4.40147493 1,2.34710205 C1.0450297,1.544119 1.64489411,1.03103425 2.44787716,1.02276307 C3.7130975,1.00974612 4.97858903,1.00459357 6.24367377,1.02371222 C6.43458903,1.02655968 7.04452317,1.35543513 7.0445232,2.00198054 C7.04452322,2.55386042 6.73141285,3.0251739 6.24367376,3.0251739 L3.01821717,3.0251739 C3.01821717,3.41256373 3.01835276,2.97394951 3.01821717,3.22059357 C3.01695613,4.55151199 3.01903428,9.86393113 3.0189602,12.9864316 L13,13 C13,13 13,11.7360965 13,10.0082672 C13,9.54186633 13.274886,9.01113724 13.9985798,9.01113581 C14.6327352,9.01113456 15.0202636,9.58047055 15.0269076,10.0082672 C15.0589076,12.0627756 15.0400602,11.6079793 15.0269076,13.6623522 C15.0217551,14.4653352 14.4218907,14.97842 13.6189076,14.9866912 C12.65521,14.996606 1.99930771,15.000739 1.99930771,15.000739 Z M9.8877957,1.00000091 C9.71422773,0.999726615 9.56549462,1.06144318 9.44794302,1.17829321 C9.32404475,1.30145204 9.26195764,1.4492975 9.26223358,1.62182959 L9.26830432,2.14518605 C9.26223358,2.31140934 9.32404475,2.4589805 9.44794302,2.58213933 C9.5718413,2.70529817 9.72057442,2.76701473 9.88751975,2.76070593 L11.9190099,2.76070593 L7.92548643,6.92087841 C7.80793484,7.03772844 7.75247035,7.17953939 7.76461183,7.33972816 C7.77702925,7.49964264 7.8451871,7.64145359 7.96273869,7.75830362 L8.4086621,8.2015657 C8.52648964,8.31869003 8.66887607,8.3861668 8.82975067,8.39851012 C8.99117715,8.41085343 9.13356359,8.35544567 9.25111518,8.23859564 L13.2446387,4.07842315 L13.2446387,6.09778915 C13.2446387,6.27004694 13.3067258,6.4178924 13.4242774,6.53474243 C13.5481757,6.65790126 13.6969088,6.71961783 13.8702008,6.71961783 L14.3842821,6.71330902 C14.5575741,6.71330902 14.7126539,6.65790126 14.8365522,6.53474243 C14.9541038,6.4178924 15.0098442,6.26373813 15.0098442,6.09148035 L15.0222616,1.62182959 C15.0098442,1.4492975 14.948033,1.30172634 14.8302055,1.18460201 C14.7063072,1.06144318 14.5639208,1.00603542 14.3966995,1.00000091 L9.8877957,1.00000091 Z" id="Combined-Shape" fill="#000000"></path>
                </g>
            </g>
        </g>
    </g>
</svg>