<svg xmlns="http://www.w3.org/2000/svg" width="16" height="16" viewBox="0 0 16 16">
    <path fill="#000" fill-rule="evenodd" d="M4.48 14.068A6.947 6.947 0 0 0 8.008 15c1.258 0 2.434-.31 3.512-.932a7.056 7.056 0 0 0 2.548-2.548A6.89 6.89 0 0 0 15 8.008c0-1.274-.31-2.45-.932-3.512a7.058 7.058 0 0 0-2.548-2.55A6.793 6.793 0 0 0 8.008 1c-1.274 0-2.45.31-3.528.947a7.066 7.066 0 0 0-2.55 2.549C1.31 5.557 1 6.734 1 8.008s.31 2.434.93 3.512a7.064 7.064 0 0 0 2.55 2.548zm.718-11.174c.033-.016.114-.016.212-.016.05.016.082.033.131.05.05.032.082.065.13.097l.099.099c.016-.033 0-.099-.033-.164 0-.049.066-.082.196-.114.131-.016.229-.016.278.016-.05-.065-.098-.13-.196-.229l-.032.033c-.05-.033-.18-.016-.393.065 0 .016-.033.033-.081.05-.05.032-.099.049-.131.065-.033.016-.066.016-.098.016.294-.163.572-.294.85-.376.016 0 .048.033.097.066a.284.284 0 0 0 .098.098c-.016-.017-.032-.017-.032.016-.033.065-.033.13 0 .18.032.048.065.065.114.065.05.016.114.016.196 0 .065-.017.115-.017.147-.017h.082c.196.017.277 0 .228-.048a.414.414 0 0 1 .066.147.299.299 0 0 0 .081.163c.033-.032.033-.065.017-.13-.017-.066-.017-.099 0-.132.016 0 .032-.016.049-.032.033-.016.065-.016.114-.032a.27.27 0 0 1 .082-.033c.032-.033 0-.066-.082-.131-.017-.016-.033-.016-.081-.033-.033-.016-.066-.016-.099-.033l-.098-.048a.09.09 0 0 1-.049-.082.262.262 0 0 0 .05-.098.216.216 0 0 1 .179-.033.35.35 0 0 1 .196.05c.163.081.18.163.065.244.066 0 .131.017.23.066.081.048.114.081.097.13.05-.082.098-.13.147-.13.033 0 .05.048.082.13.032.065.049.115.049.115.049.065.098.081.147.049a.748.748 0 0 0 .147-.163c.049-.066.082-.099.098-.099-.065-.016-.082-.048-.032-.065a.288.288 0 0 1 .244-.049c.033.016.05.033.082.082.05.114.05.163-.032.163.065.05.081.098.065.18 0 .065-.05.098-.13.098a.261.261 0 0 1-.132-.049.444.444 0 0 0-.13-.05.264.264 0 0 0-.131.05.461.461 0 0 0-.098.163c-.032.066-.082.114-.098.147-.098.098-.245.131-.458.098.017 0 .017.016-.016.066-.017.033-.049.065-.081.114-.033.049-.066.066-.066.082a.899.899 0 0 0-.114.212v.114c-.017.066-.017.13-.033.163.066-.016.131.017.163.115.033.082.033.13 0 .13.213-.032.376-.015.54.033.212.082.342.163.36.246.048-.066.13-.066.276-.017.05.033.099.13.148.278a.5.5 0 0 0 .114.228c.065.082.115.099.196.066l.016-.017c.033-.016.05-.033.066-.033l.05-.048c.015 0 .031-.016.031-.033 0-.016 0-.033-.016-.033a.297.297 0 0 1-.098-.147c-.016-.065-.016-.13.017-.18a.437.437 0 0 1 .147-.097c.081-.05.13-.098.147-.147.016-.082 0-.147-.099-.197-.081-.064-.13-.097-.13-.147 0-.032.032-.064.065-.114.05-.033.065-.081.05-.114 0-.016 0-.049-.033-.114-.017-.066-.033-.099-.033-.131 0-.016.016-.05.049-.098.032-.017.13-.017.294.016.163.017.261.05.31.082.016.016.05.032.115.05.065.032.114.048.163.08.05.033.065.05.082.082h-.05a.354.354 0 0 1 .082.131c0 .049-.016.082-.081.098.049 0 .098 0 .147.032.098.033.098.066.016.099.016 0 .049-.016.082-.016s.049-.017.065-.033c.016 0 .033-.017.049-.033.016-.017.033-.017.049-.017 0-.016.017-.016.033-.016s.032 0 .065.016c0 0 .016-.016.033-.048a.33.33 0 0 1 .065-.082c.033-.033.05-.049.065-.049.017 0 .033 0 .05.016.016.016.032.033.032.05a.13.13 0 0 1 .033.065c.016.016.016.032.033.048 0 .033.032.066.081.099.05.032.065.065.082.098.016.016.016.065.033.13.016.082.048.131.081.147.033.033.066.05.131.066.016.016.049.016.082 0 .048-.016.081-.016.114-.016.016.016.033.032.033.081.032-.033.065-.065.065-.081 0 .081.016.147.049.195.033.05.081.066.163.066l-.016.196c-.017.032-.066.048-.147.065a.363.363 0 0 0-.131.049c-.016 0-.065.05-.13.114-.066.066-.099.098-.082.115-.114-.115-.262-.148-.474-.098-.229.033-.392.065-.473.098a.513.513 0 0 0-.197.147s-.016.016-.032.065l-.05.098c-.016.033-.032.049-.032.049a.507.507 0 0 0 .114-.097l.082-.083c.163-.097.294-.147.392-.114.147.05.164.098.065.147 0 .017-.032.017-.081.017h-.114c.048.016.097.033.13.049.05.032.05.065.033.098.098.049.114.114.05.18-.066.081-.165.114-.279.097.016 0 .016.017 0 .033l-.147.098c-.017.016-.049.033-.131.049-.065.033-.098.049-.13.081a.233.233 0 0 0-.033.115v.115c-.017.016-.033.016-.082.016-.016.032-.065.065-.163.081-.098.017-.163.05-.18.098.033.05.033.099-.016.147-.066.066-.131.05-.196-.016-.033 0-.05.032-.065.082-.017.049-.033.081-.066.097.049.083.033.115-.016.147 0 0 .016.017.032.017.033.016.05.033.082.049l.033.033c-.017.048-.05.081-.098.081.033.098 0 .197-.131.311-.033.033-.065.049-.114.082-.05.016-.099.048-.147.065-.033.016-.066.016-.066.033a.465.465 0 0 0-.147.163c-.016.05-.032.114 0 .164.017.064.066.097.164.114v.228l.016.082c0 .033.017.081.017.114v.131c0 .049-.017.082-.05.082-.016 0-.049 0-.097-.016-.05-.033-.099-.164-.164-.409a.67.67 0 0 0-.114-.212c-.033.033-.066.049-.082.065h-.049c0-.016-.016-.016-.05-.05-.015-.015-.048-.032-.065-.048a.698.698 0 0 0-.147-.049c-.081 0-.13-.016-.147-.032-.147.097-.228.081-.261-.083-.016.017-.016.066 0 .115.017.05.017.082.017.082-.033.081-.099.097-.197.033-.033-.05-.114-.05-.244-.017-.131.017-.213.033-.262.017 0 0 .016 0 .033.016l.032.032c0 .016-.016.033-.016.05-.016.016-.033.016-.049.016H7.16c-.017 0-.033.016-.05.016-.016.017-.049.05-.081.098-.033.049-.066.066-.082.082.033.098.049.18.049.228 0 .05-.016.131-.033.23-.016.097-.016.18-.016.228 0 .098.033.212.082.343.065.13.13.212.212.261.033.033.114.05.213.05.097 0 .18 0 .211-.017.05-.016.066-.033.099-.066.016-.016.032-.065.032-.097.017-.05.033-.082.033-.099.049-.114.115-.18.229-.18a.238.238 0 0 1 .164.017.089.089 0 0 1 .048.082c-.016.049-.016.081-.032.114-.033.049-.05.082-.082.131-.017.049-.033.098-.049.114 0 .05-.016.115-.032.212 0 .083-.017.131-.017.148.017.016.05.016.13.016 0-.016.017-.033.017-.065.017-.016.017-.033.017-.05a.172.172 0 0 0 .147.082c.064.017.114-.016.147-.065.016.017.048.065.114.13.049.082.081.131.097.18 0 .033.017.065.033.13.017.05.017.083.017.115 0 .017-.033.033-.098.033-.016 0-.033 0-.033.017-.016.016-.016.048 0 .065 0 .032 0 .065.017.082.016.032.016.048.032.081s.032.049.032.049c.099.196.246.261.441.164 0 .18-.048.277-.13.294-.049.016-.098-.017-.163-.099-.065-.065-.082-.13-.065-.18 0 .033-.017.066-.066.082-.033-.032-.081-.081-.163-.13-.082-.066-.13-.098-.164-.147-.016-.017-.032-.033-.048-.066-.017-.032-.05-.081-.083-.13-.032-.065-.048-.115-.064-.147-.017-.033-.017-.065-.017-.065-.114.048-.278.016-.49-.099a1.07 1.07 0 0 1-.196-.195c-.082-.099-.18-.147-.262-.131-.032 0-.081.016-.13.016-.049.016-.098.033-.131.033s-.082-.017-.147-.033c-.049-.016-.114-.065-.196-.115-.081-.048-.13-.081-.164-.097-.016 0-.064-.033-.114-.066-.065-.016-.114-.049-.147-.065a.483.483 0 0 1-.114-.082.285.285 0 0 1-.082-.13.976.976 0 0 1-.048-.213c-.017-.114-.033-.196-.066-.245-.033-.049-.098-.114-.164-.18a.248.248 0 0 0-.18-.081c.05 0 .05-.05 0-.131-.048-.082-.081-.147-.13-.18 0-.016-.049-.049-.098-.114-.065-.066-.114-.13-.163-.18-.033-.049-.082-.097-.114-.163-.017-.065-.033-.114-.017-.164.017 0 0-.016-.016-.032-.017 0-.033-.016-.066-.032-.032 0-.048-.017-.081-.033-.017 0-.033-.017-.05-.017a.323.323 0 0 1 .033.147c.017.05.033.098.066.131 0 .033.048.114.147.261.163.262.228.457.212.572-.033.016-.049 0-.065-.016-.016-.033-.016-.066-.033-.099 0-.048 0-.081-.016-.097a.286.286 0 0 0-.147-.114c-.066-.05-.114-.083-.131-.131h.017c.016-.016.016-.016.032-.016a.393.393 0 0 0-.098-.213c-.081-.081-.098-.147-.098-.18-.049-.032-.082-.114-.114-.212-.05-.114-.066-.18-.099-.213a.28.28 0 0 0-.097-.097 1.563 1.563 0 0 1-.131-.083c-.049-.032-.082-.064-.114-.064 0-.017-.033-.033-.066-.083-.196-.244-.261-.375-.18-.391-.081.016-.147-.05-.195-.18-.05-.147-.066-.245-.05-.31l-.016-.017v-.212c0-.114.017-.229.033-.327.017-.097.033-.147.081-.147-.048 0-.081-.033-.097-.114-.017-.082-.017-.13 0-.163 0-.017.033-.017.081.033l.082.081c.081-.05.098-.098.081-.164 0-.016-.064-.081-.179-.196-.262-.163-.409-.245-.409-.245.033-.065.033-.114-.032-.163-.05.033-.082.033-.098.016-.017-.016-.017-.049-.017-.097-.016-.05-.032-.066-.049-.083-.032 0-.065-.032-.114-.064a5.79 5.79 0 0 1 2.14-2.027zM9.053 13.4c.05-.082.082-.131.082-.18-.098-.016-.13-.098-.114-.228.016-.099.098-.213.261-.376.115-.098.163-.245.115-.442a2.703 2.703 0 0 1-.05-.343c-.016-.147-.016-.26-.032-.31 0 .016.032.033.082.05.065.015.097.032.114.048 0-.016.016-.049.033-.098.032-.05.048-.082.065-.098.016-.033.033-.049.082-.081.032-.017.065-.033.065-.05.016 0 .049-.016.082-.049.048-.032.081-.065.114-.081.016-.017.065-.033.098-.049.049 0 .082.016.098.049.032.033.032.098-.016.163-.033.082-.033.13 0 .164.016-.017.016-.066.016-.115.016-.065.032-.114.065-.147a.335.335 0 0 1 .098-.065c.033 0 .066 0 .098.016.017.017.05.05.082.065.049.033.082.05.115.05a1.2 1.2 0 0 1 .326.212c-.016-.016-.016-.016 0-.033 0 0 .016-.016.033-.016.016-.017.032-.033.049-.033.016-.016.033-.016.049-.033h.032c.033 0 .066 0 .082-.016.017 0 .05 0 .082.016.032.033.065.033.065.05a.231.231 0 0 0 .065.049c.033.032.05.048.066.048.016.017.049.033.098.066s.098.065.114.081c.033.017.05.05.082.082a.247.247 0 0 1 .016.114c.033 0 .114.033.212.066a.233.233 0 0 0 .115.032c.065.017.098.033.114.05-.882.93-1.944 1.502-3.185 1.715a.461.461 0 0 1-.033-.147c0-.033.016-.098.065-.196z"/>
</svg>
