<?xml version="1.0" encoding="UTF-8"?>
<svg width="16px" height="16px" viewBox="0 0 16 16" version="1.1" xmlns="http://www.w3.org/2000/svg" xmlns:xlink="http://www.w3.org/1999/xlink">
    <!-- Generator: sketchtool 49.3 (51167) - http://www.bohemiancoding.com/sketch -->
    <title>CC2D8B44-3637-42BE-AAF7-BD62841994EC</title>
    <desc>Created with sketchtool.</desc>
    <defs></defs>
    <g id="Colors,-icons" stroke="none" stroke-width="1" fill="none" fill-rule="evenodd">
        <g id="Icons-2" transform="translate(-431.000000, -187.000000)">
            <g id="kb-iconfont-close-16" transform="translate(431.000000, 187.000000)">
                <rect id="icon-area" fill="#D8D8D8" opacity="0" x="0" y="0" width="16" height="16"></rect>
                <g id="Group-30" transform="translate(3.000000, 3.000000)" fill="#000000" fill-rule="nonzero">
                    <path d="M6.76764808,5.00019044 L9.63391681,2.13391545 C10.1220297,1.64580244 10.1220297,0.854414982 9.63391671,0.366302024 C9.14580375,-0.121810934 8.35441629,-0.121810981 7.86630328,0.366301919 L5.00002829,3.2325769 L2.13375331,0.366301919 C1.64564031,-0.12181108 0.854252776,-0.12181108 0.366139777,0.366301919 C-0.121973222,0.854414918 -0.121973222,1.64580245 0.366139777,2.13391545 L3.23238976,5.00019044 L0.366114777,7.86646542 C0.0503609685,8.18221915 -0.0729549537,8.64244029 0.0426189307,9.07376797 C0.158192815,9.50509565 0.495098081,9.84200091 0.926425758,9.9575748 C1.35775343,10.0731487 1.81797458,9.94983276 2.13372831,9.63407895 L5.00000329,6.76780397 L7.86627828,9.63407895 C8.35439129,10.1221919 9.14577875,10.1221918 9.6338917,9.63407885 C10.1220047,9.14596589 10.1220047,8.35457843 9.63389181,7.86646542 L6.76764808,5.00019044 Z" id="cancel"></path>
                </g>
            </g>
        </g>
    </g>
</svg>