<svg xmlns="http://www.w3.org/2000/svg" xmlns:xlink="http://www.w3.org/1999/xlink" width="16" height="16" viewBox="0 0 16 16">
    <defs>
        <path id="a" d="M4.603 2.476c.329-.196.549-.542.549-.94 0-.617-.529-1.109-1.17-1.109-.64 0-1.17.492-1.17 1.109 0 .402.225.75.558.945a2.441 2.441 0 0 0-1.492.884l-.106.132.058.159c.25.688.996 1.008 2.17 1.008s1.92-.32 2.17-1.008l.058-.159-.106-.132a2.445 2.445 0 0 0-1.519-.89zM0 0h8v5H0V0z"/>
        <path id="c" d="M2.23 1.656c.781 0 1.312.227 1.59.68-.247.443-.778.664-1.59.664S.887 2.779.64 2.336c.278-.453.809-.68 1.59-.68zM2.88.644c0 .356-.318.644-.711.644-.394 0-.712-.288-.712-.644 0-.355.318-.644.712-.644.393 0 .712.289.712.644z"/>
        <path id="d" d="M5.866 1.656c.782 0 1.312.227 1.59.68C7.21 2.779 6.68 3 5.867 3c-.812 0-1.342-.221-1.59-.664.279-.453.809-.68 1.59-.68zm.65-1.012c0 .356-.318.644-.711.644-.393 0-.712-.288-.712-.644 0-.355.319-.644.712-.644.393 0 .712.289.712.644z"/>
    </defs>
    <g fill="none" fill-rule="evenodd">
        <path d="M0 0h16v16H0z"/>
        <g transform="translate(2)">
            <path fill="#000" d="M10.2 11H3V1h7.2a.8.8 0 0 1 .8.8v8.4a.8.8 0 0 1-.8.8zm.8 2H6a.5.5 0 0 0-.5-.5h-2a.5.5 0 0 0-.5.5H1c-.017 0-.017-.333 0-1h10v1zM0 2v9.994a2 2 0 0 0 2.006 2L3 13.991v1.63a.2.2 0 0 0 .313.165l1.187-.812 1.187.812A.2.2 0 0 0 6 15.621v-1.63l3.997.006a2 2 0 0 0 2.003-2V2a2 2 0 0 0-2-2H2a2 2 0 0 0-2 2z"/>
            <circle cx="4.5" cy="2.5" r="1" fill="#000"/>
            <circle cx="4.5" cy="9.5" r="1" fill="#000"/>
            <g transform="translate(3 4)">
                <mask id="b" fill="#fff">
                    <use xlink:href="#a"/>
                </mask>
                <g mask="url(#b)">
                    <use fill="#000" xlink:href="#c"/>
                    <path stroke="#FFF" stroke-width=".3" d="M2.23 1.506c.829 0 1.408.248 1.718.751l.003.152c-.279.498-.86.741-1.721.741-.861 0-1.442-.243-1.721-.74l.003-.153c.31-.503.89-.75 1.718-.75zm.8-.862c0 .442-.389.794-.861.794-.473 0-.862-.352-.862-.794 0-.442.389-.794.862-.794.472 0 .862.352.862.794z"/>
                </g>
                <g mask="url(#b)">
                    <use fill="#000" xlink:href="#d"/>
                    <path stroke="#FFF" stroke-width=".3" d="M5.866 1.506c.83 0 1.409.248 1.718.751l.004.152c-.28.498-.86.741-1.722.741-.861 0-1.442-.243-1.72-.74l.002-.153c.31-.503.89-.75 1.718-.75zm.8-.862c0 .442-.388.794-.861.794s-.862-.352-.862-.794c0-.442.39-.794.862-.794.473 0 .862.352.862.794z"/>
                </g>
                <path fill="#000" d="M4 2.727c.815 0 1.444.276 1.888.829-.196.54-.826.81-1.888.81-1.062 0-1.692-.27-1.888-.81.444-.553 1.073-.83 1.888-.83zm.852-1.188c0 .446-.39.808-.87.808s-.87-.362-.87-.808c0-.447.39-.809.87-.809s.87.362.87.809z"/>
            </g>
        </g>
    </g>
</svg>
