<svg xmlns="http://www.w3.org/2000/svg" width="24" height="24" viewBox="0 0 24 24">
    <path fill="#000" fill-rule="evenodd" d="M4.563 17.394c-1.045-1.828-1.201-2.882-1.293-4.196C2.902 7.94 6.79 3.384 11.952 3.023c5.163-.361 9.647 3.609 10.015 8.869.368 5.26-2.406 10.052-10.385 10.107-.961.006-7.616-.02-7.616-.02-.632.045-1.32-.453-.758-1.007.563-.553 2.4-1.75 1.355-3.578zm6.873-.4c.283 0 .513-.447.513-.997s-.23-.997-.513-.997H7.512c-.284 0-.513.446-.513.997 0 .55.23.997.513.997h3.924zm2.454-3c.59 0 1.069-.447 1.069-.997S14.48 12 13.89 12H8.068c-.59 0-1.07.446-1.07.997 0 .55.48.997 1.07.997h5.822zm-5.896-3h9.247a.996.996 0 0 0 0-1.994H7.994a.996.996 0 0 0 0 1.994z"/>
</svg>
