<svg xmlns="http://www.w3.org/2000/svg" width="16" height="16" viewBox="0 0 16 16">
    <g fill="none" fill-rule="evenodd">
        <path fill="#000" fill-rule="nonzero" d="M8.272 2.167l.93 1.328A6.236 6.236 0 1 1 4.092 7.07l-.93-1.327 5.109-3.577z"/>
        <path fill="#000" d="M3 4a3 3 0 0 1-3 3V5a1 1 0 0 0 1-1V3a3 3 0 1 1 6 0v2.428L5 5.46V3a1 1 0 1 0-2 0v1z"/>
        <path fill="#000" fill-rule="nonzero" d="M.857 10.357L1.5 8.75l.643 1.607L3.75 11l-1.607.643L1.5 13.25l-.643-1.607L-.75 11z"/>
        <path fill="#FFF" fill-rule="nonzero" d="M10.222 7.25a1.17 1.17 0 1 1 .894-2.161 1.17 1.17 0 0 1-.894 2.16z"/>
    </g>
</svg>
