<svg xmlns="http://www.w3.org/2000/svg" width="16" height="16" viewBox="0 0 16 16">
    <path fill="#000" fill-rule="evenodd" d="M15.084 12.04a.934.934 0 0 1-.824 1.029l-8.158.925a.926.926 0 0 1-1.025-.82.934.934 0 0 1 .824-1.028l8.158-.926a.926.926 0 0 1 1.025.82zM8.4 5.517a2.07 2.07 0 0 1 .848-.192c.216 0 .404.045.564.134a.9.9 0 0 1 .37.395c.086.172.13.386.13.64a2.93 2.93 0 0 1-.152.874l-.829 2.71a1 1 0 0 1-.956.707h-.031a.57.57 0 0 1-.546-.737l.819-2.68c.045-.145.073-.268.086-.368a.622.622 0 0 0-.008-.244.206.206 0 0 0-.1-.132.392.392 0 0 0-.186-.04.762.762 0 0 0-.342.097 1.714 1.714 0 0 0-.378.272c-.127.118-.252.26-.376.428a3.55 3.55 0 0 0-.333.557l-.663 2.143a1 1 0 0 1-.955.704h-.034a.57.57 0 0 1-.544-.737l1.952-6.32a1 1 0 0 1 .955-.706h.034a.57.57 0 0 1 .544.737l-.725 2.354c.284-.27.57-.469.856-.596zm5.688-1.024a2.07 2.07 0 0 1 .848-.191c.215 0 .403.044.564.134a.9.9 0 0 1 .37.394c.085.173.129.387.13.64a2.93 2.93 0 0 1-.153.875l-.828 2.71a1 1 0 0 1-.957.707h-.031a.57.57 0 0 1-.546-.737l.82-2.68c.044-.145.072-.268.085-.368a.622.622 0 0 0-.008-.244.206.206 0 0 0-.099-.132.392.392 0 0 0-.187-.04.762.762 0 0 0-.342.097 1.714 1.714 0 0 0-.378.272c-.127.117-.252.26-.376.428a3.55 3.55 0 0 0-.333.557l-.663 2.143a1 1 0 0 1-.955.704h-.034a.57.57 0 0 1-.544-.737l1.952-6.321A1 1 0 0 1 13.38 2h.033a.57.57 0 0 1 .544.737l-.724 2.354c.284-.27.569-.469.856-.597zM4.37 8.034a.315.315 0 0 1-.167.042.395.395 0 0 1-.188-.046 4.513 4.513 0 0 1-.188-.107 1.305 1.305 0 0 0-.234-.106.96.96 0 0 0-.317-.047c-.229 0-.4.046-.516.138a.58.58 0 0 0-.215.355.316.316 0 0 0 .036.239.602.602 0 0 0 .183.176c.08.052.172.1.278.142.106.044.214.092.323.146.11.053.214.115.316.184a.943.943 0 0 1 .405.612c.028.138.024.302-.013.492-.052.27-.152.525-.301.765-.15.24-.337.45-.564.628a2.804 2.804 0 0 1-1.734.583 2.203 2.203 0 0 1-.896-.192 1.59 1.59 0 0 1-.346-.21.983.983 0 0 1-.233-.262l.492-.59a.754.754 0 0 1 .193-.164.468.468 0 0 1 .238-.06c.083 0 .15.02.202.062l.168.135c.06.049.135.094.223.135.088.042.21.062.366.062.22 0 .392-.05.517-.153a.607.607 0 0 0 .229-.36.368.368 0 0 0-.031-.265.543.543 0 0 0-.183-.178 1.562 1.562 0 0 0-.277-.135 6.64 6.64 0 0 1-.323-.133 2.345 2.345 0 0 1-.316-.168.88.88 0 0 1-.405-.599 1.373 1.373 0 0 1 .016-.513 2.38 2.38 0 0 1 .272-.726c.133-.236.304-.444.513-.625a2.52 2.52 0 0 1 .734-.439c.28-.11.592-.166.937-.166.345 0 .641.063.887.187.247.125.44.277.582.457l-.508.57a.802.802 0 0 1-.155.135z"/>
</svg>
