<svg xmlns="http://www.w3.org/2000/svg" width="16" height="16" viewBox="0 0 16 16">
    <g fill="none" fill-rule="evenodd">
        <path d="M0 0h16v16H0z"/>
        <path fill="#000" d="M7.832 12.073a1.123 1.123 0 0 1-.868-.756.808.808 0 0 1-.048-.338c0-.173.007-.219.048-.339.121-.352.363-.593.715-.714a.808.808 0 0 1 .338-.048c.173 0 .219.006.34.048.351.12.592.362.713.714.042.12.048.166.048.339a.808.808 0 0 1-.048.338c-.12.35-.365.596-.709.712-.15.05-.384.07-.53.044zm.76-3.98c-.05.5-.498.906-.999.906h.815c-.5 0-.948-.409-.998-.905l-.32-3.19A.805.805 0 0 1 7.908 4h.187c.5 0 .865.41.816.906L8.59 8.094zm.134 5.96c1.803-.234 3.355-1.191 4.339-2.676.54-.814.862-1.703.985-2.71a9.23 9.23 0 0 0 0-1.303c-.201-1.657-.987-3.083-2.262-4.105-.879-.704-1.958-1.149-3.136-1.292a9.236 9.236 0 0 0-1.304 0c-1.178.143-2.257.588-3.136 1.292-1.275 1.022-2.06 2.448-2.262 4.105a9.23 9.23 0 0 0 0 1.303c.201 1.656.988 3.084 2.262 4.105a6.149 6.149 0 0 0 3.136 1.288l.252.026c.144.016.925-.006 1.126-.032zM6.853 15.92A8.01 8.01 0 0 1 .077 9.145 6.897 6.897 0 0 1 0 7.998c0-.475.018-.742.077-1.146A8.013 8.013 0 0 1 6.853.078C7.257.017 7.525 0 8 0a6.9 6.9 0 0 1 1.147.077 8.013 8.013 0 0 1 6.832 7.235c.011.124.021.433.021.686 0 .619-.043 1.045-.164 1.637a8.081 8.081 0 0 1-1.225 2.876 8.08 8.08 0 0 1-2.623 2.428 8.164 8.164 0 0 1-3.276 1.032c-.215.02-.897.036-1.068.026a10.201 10.201 0 0 1-.79-.078z"/>
    </g>
</svg>
