<svg xmlns="http://www.w3.org/2000/svg" width="24" height="24" viewBox="0 0 24 24">
    <g fill="none" fill-rule="evenodd">
        <path d="M0 0h24v24H0z"/>
        <path fill="#000" d="M20.98 9.318A8.962 8.962 0 0 1 23 15c0 1.609-.376 3.148-1.163 4.427-1.02 1.658 1.124 2.446 1.124 3.429 0 .878-.568 1.137-1.94 1.137-1.672 0-5.225.007-7.021.007a8.977 8.977 0 0 1-6.71-3.002l2.71.003C16.075 21 21 16.076 21 10c0-.23-.007-.457-.02-.682zM10 1a9 9 0 0 1 9 9 9 9 0 0 1-9 9c-1.796 0-5.35-.006-7.022-.006-1.372 0-1.94-.26-1.94-1.137 0-.984 2.144-1.772 1.124-3.43C1.375 13.149 1 11.61 1 10a9 9 0 0 1 9-9zm0 11.5c0-.834-.672-1.5-1.5-1.5h-1c-.821 0-1.5.672-1.5 1.5 0 .834.672 1.5 1.5 1.5h1c.821 0 1.5-.672 1.5-1.5zm2.06-2.5c.52 0 .94-.672.94-1.5S12.58 7 12.06 7H6.94C6.42 7 6 7.672 6 8.5s.42 1.5.94 1.5h5.12z"/>
    </g>
</svg>
