<svg xmlns="http://www.w3.org/2000/svg" width="16" height="16" viewBox="0 0 16 16">
    <path fill="#000" fill-rule="evenodd" d="M11.367 7.105c0 2.302-1.897 4.176-4.23 4.176-2.332 0-4.23-1.874-4.23-4.176 0-2.303 1.898-4.176 4.23-4.176 2.333 0 4.23 1.873 4.23 4.176zm.804 3.545c.114-.152.033-.108.089-.184.052-.068.096-.127.138-.188 1.586-2.25 1.235-5.423-.856-7.488A6.187 6.187 0 0 0 7.166 1a6.188 6.188 0 0 0-4.375 1.79A6.031 6.031 0 0 0 .978 7.11a6.03 6.03 0 0 0 1.813 4.32 6.172 6.172 0 0 0 4.364 1.785 6.3 6.3 0 0 0 2.855-.686c.1-.055.09.001.326-.187l2.414 2.513a.523.523 0 0 0 .35.145c.084 0 .21-.025.332-.142l.205-.195c.156-.148.784-.68.902-.797.23-.226.118-.511-.016-.651L12.17 10.65z"/>
</svg>
