<?xml version="1.0" encoding="UTF-8"?>
<svg width="16px" height="16px" viewBox="0 0 16 16" version="1.1" xmlns="http://www.w3.org/2000/svg" xmlns:xlink="http://www.w3.org/1999/xlink">
    <!-- Generator: sketchtool 49.3 (51167) - http://www.bohemiancoding.com/sketch -->
    <title>6ECACBCE-A2A5-42FE-ADE8-BBF8E8E3C041</title>
    <desc>Created with sketchtool.</desc>
    <defs></defs>
    <g id="Colors,-icons" stroke="none" stroke-width="1" fill="none" fill-rule="evenodd">
        <g id="Icons-2" transform="translate(-462.000000, -397.000000)">
            <g id="kb-iconfont-search-16" transform="translate(462.000000, 397.000000)">
                <g id="icon">
                    <rect id="icon-area" fill="#D8D8D8" opacity="0" x="0" y="0" width="16" height="16"></rect>
                    <path d="M11.4422255,9.8334658 C11.9598813,9.02183515 12.2340955,8.07885408 12.2323936,7.11619682 C12.2323936,4.29059934 9.94179431,2 7.11619682,2 C4.29059934,2 2,4.29059934 2,7.11619682 C2,9.94179431 4.29059934,12.2323936 7.11619682,12.2323936 C8.07885408,12.2340955 9.02183515,11.9598813 9.8334658,11.4422255 L12.1235379,13.8354687 C12.5746276,14.221772 13.2470481,14.1957993 13.6669958,13.7758516 C14.0869436,13.3559038 14.1129163,12.6834834 13.7266129,12.2323936 L11.4422255,9.8334658 Z M7.18510452,10.2961672 C5.46691203,10.2961672 4.07404181,8.90329701 4.07404181,7.18510452 C4.07404181,5.46691203 5.46691203,4.07404181 7.18510452,4.07404181 C8.90329701,4.07404181 10.2961672,5.46691203 10.2961672,7.18510452 C10.2961672,8.90329701 8.90329701,10.2961672 7.18510452,10.2961672 Z" id="search" fill="#000000" fill-rule="nonzero"></path>
                </g>
            </g>
        </g>
    </g>
</svg>