<?xml version="1.0" encoding="UTF-8"?>
<svg width="16px" height="16px" viewBox="0 0 16 16" version="1.1" xmlns="http://www.w3.org/2000/svg" xmlns:xlink="http://www.w3.org/1999/xlink">
    <!-- Generator: sketchtool 49.3 (51167) - http://www.bohemiancoding.com/sketch -->
    <title>CA3C09D3-8792-4933-B1F1-505E0AAFFD24</title>
    <desc>Created with sketchtool.</desc>
    <defs></defs>
    <g id="Colors,-icons" stroke="none" stroke-width="1" fill="none" fill-rule="evenodd">
        <g id="Icons-2" transform="translate(-399.000000, -249.000000)">
            <g id="kb-iconfont-team-leave-16" transform="translate(399.000000, 249.000000)">
                <g id="Group-17" transform="translate(8.000000, 8.000000) scale(-1, 1) translate(-8.000000, -8.000000) ">
                    <rect id="Mask" x="-1.36424205e-12" y="0" width="16" height="16"></rect>
                    <path d="M5.18401742,10.8408175 C5.18815137,10.8254805 5.19215066,10.810081 5.19601413,10.7946205 L6.20549318,10.7946205 C6.68781151,10.7946205 7.14159068,10.6724298 7.53756352,10.4573155 C7.6874288,10.4853434 7.84200278,10.5 8,10.5 C9.38071187,10.5 10.5,9.38071187 10.5,8 C10.5,6.61928813 9.38071187,5.5 8,5.5 C7.8418934,5.5 7.68721479,5.51467695 7.53725229,5.54274272 C7.1413529,5.32773351 6.68768515,5.20560682 6.20549318,5.20560682 L5.20370969,5.20560682 C5.19939466,5.18802904 5.19488871,5.17051688 5.19019374,5.15307305 C5.91253215,4.4400947 6.90487126,4 8,4 C10.209139,4 12,5.790861 12,8 C12,10.209139 10.209139,12 8,12 C6.90174665,12 5.90687032,11.5573904 5.18401742,10.8408175 Z M2.07439971,3.45768371 C1.71974498,3.57167527 1.38912439,3.76709763 1.11206429,4.03791958 L4.4408921e-16,5.10945305 L0,4 C0,1.790861 1.790861,0 4,0 L12,0 C14.209139,0 16,1.790861 16,4 L16,12 C16,14.209139 14.209139,16 12,16 L4,16 C1.790861,16 0,14.209139 0,12 L0,10.8906124 L1.09917355,11.9496144 C1.3788622,12.227048 1.71427163,12.4268047 2.07446995,12.5425661 C2.31094352,13.3834995 3.08347606,14 4,14 L12,14 C13.1045695,14 14,13.1045695 14,12 L14,4 C14,2.8954305 13.1045695,2 12,2 L4,2 C3.08338529,2 2.31079051,2.61662259 2.07439971,3.45768371 Z M2.92666667,5.18274109 C3.10458425,5.00625797 3.37018257,4.9520053 3.60305891,5.04457726 C3.83593525,5.13714923 3.99180175,5.3589407 4,5.60940776 L4,7.00274109 L7,7.00274109 C7.55228475,7.00274109 8,7.45045634 8,8.00274109 C8,8.55502584 7.55228475,9.00274109 7,9.00274109 L4,9.00274109 L4,10.3960744 C3.99180175,10.6465415 3.83593525,10.868333 3.60305891,10.9609049 C3.37018257,11.0534769 3.10458425,10.9992242 2.92666667,10.8227411 L0,8.00274109 L2.92666667,5.18274109 Z" id="Combined-Shape" fill="#000000" fill-rule="nonzero"></path>
                </g>
            </g>
        </g>
    </g>
</svg>