<svg xmlns="http://www.w3.org/2000/svg" width="16" height="16" viewBox="0 0 16 16">
    <g fill="none" fill-rule="evenodd">
        <path d="M0 0h16v16H0z"/>
        <path fill="#000" d="M6.592 5.858C6.984 5.616 7.46 5.5 8 5.5a2.794 2.794 0 0 1 1.403.367A3.5 3.5 0 0 1 16 7.5a3.5 3.5 0 1 1-7-.025.796.796 0 0 1-.348-.192A1.202 1.202 0 0 0 8 7.1c-.326 0-.53.068-.652.183A.796.796 0 0 1 7 7.475V7.5a3.5 3.5 0 1 1-.408-1.642zM3.5 9.5a2 2 0 1 0 0-4 2 2 0 0 0 0 4zm9 0a2 2 0 1 0 0-4 2 2 0 0 0 0 4z"/>
    </g>
</svg>
