<svg xmlns="http://www.w3.org/2000/svg" width="16" height="16" viewBox="0 0 16 16">
    <g fill="#000" fill-rule="evenodd">
        <path d="M13.004 8.402v4.628c0 .55-.445.996-.998.996H2.974a.995.995 0 0 1-.998-.996V3.99c0-.553.445-.995.998-.995h4.04a2 2 0 0 0 1.465-.64l.333-.358A.593.593 0 0 0 8.377 1H2.974C1.334 1.019 0 2.354 0 3.99v9.04A2.975 2.975 0 0 0 2.974 16h9.051A2.976 2.976 0 0 0 15 13.03V6.939a.577.577 0 0 0-.998-.394l-.459.49a2 2 0 0 0-.54 1.367z"/>
        <path d="M9.715 8.008L7.98 6.273l.051-.115a1.28 1.28 0 0 1 .276-.412L13.672.41a1.335 1.335 0 0 1 1.923 0c.54.526.54 1.396 0 1.94l-5.382 5.338a1.56 1.56 0 0 1-.407.28l-.091.04zm-.977.437l-1.13.507c-.391.177-.727-.162-.567-.575l.503-1.126 1.194 1.194z"/>
    </g>
</svg>
