<svg xmlns="http://www.w3.org/2000/svg" width="24" height="24" viewBox="0 0 24 24">
    <path fill="#000" fill-rule="evenodd" d="M13.988 13.814a5.797 5.797 0 0 0-1.578 3.983c0 .554.077 1.09.222 1.598-.19.003-.38.005-.568.005-2.875 0-5.981-.374-5.981-2.024v-.454c0-1.21 2.12-2.437 3.927-3.11.13-.049.755-.398.405-1.341-.895-.942-1.571-2.466-1.571-3.967C8.844 6.204 10.32 5 12.047 5c1.725 0 3.21 1.205 3.21 3.504 0 1.495-.68 3.013-1.57 3.957h.005c-.342 1.068.205 1.322.291 1.35l.005.003zm8.72.274a5.805 5.805 0 0 0-4.481-2.108c-.631 0-1.238.1-1.807.286.381-.624 1.457-1.208 2.4-1.56.084-.03.489-.258.263-.868-.58-.61-1.018-1.597-1.018-2.569 0-1.489.956-2.269 2.074-2.269 1.117 0 2.078.78 2.078 2.27 0 .968-.44 1.95-1.016 2.562h.003c-.22.691.133.855.189.875C22.62 11.125 24 11.913 24 12.72v.294c0 .55-.527.88-1.292 1.073zM5.116 10.707c1.228.418 2.607 1.206 2.607 2.014v.294c0 1.067-1.986 1.31-3.85 1.31-1.861 0-3.873-.243-3.873-1.31v-.294c0-.785 1.373-1.579 2.543-2.014.084-.032.489-.259.263-.87-.58-.609-1.018-1.596-1.018-2.568C1.788 5.78 2.744 5 3.862 5c1.117 0 2.079.78 2.079 2.27 0 .968-.44 1.95-1.016 2.562h.002c-.22.691.133.855.19.875zm18.786 11.959c.089.093.162.282.01.432-.078.078-.187.182-.29.28l-.136.13a.313.313 0 0 1-.22.094.346.346 0 0 1-.232-.097l-2.717-2.628c-.156.125-.35.237-.416.274a4.165 4.165 0 0 1-1.892.456 4.084 4.084 0 0 1-2.893-1.186 4.013 4.013 0 0 1-1.2-2.871c0-1.085.426-2.104 1.2-2.871a4.095 4.095 0 0 1 2.9-1.19c1.095 0 2.125.423 2.9 1.19 1.386 1.372 1.618 3.481.57 4.973l-.003.003c-.028.04-.057.08-.087.119l-.005.006-.165.223 2.676 2.663zm-5.905-7.854c-1.523 0-2.762 1.227-2.762 2.734 0 1.508 1.239 2.735 2.762 2.735s2.762-1.227 2.762-2.735c0-1.507-1.239-2.734-2.762-2.734z"/>
</svg>
