<svg xmlns="http://www.w3.org/2000/svg" width="16" height="16" viewBox="0 0 16 16">
    <path fill="#000" fill-rule="evenodd" d="M12 6.972h2v8.444a.6.6 0 0 1-.556.584H3.556A.6.6 0 0 1 3 15.416v-6.95c0-.94.556-1.494 1.513-1.494H5V3.5a3.5 3.5 0 0 1 7 0v3.472zm-2 0V3.5a1.5 1.5 0 0 0-3 0v3.47h3zm-3.286 7c.158 0 .286-.224.286-.5 0-.277-.128-.5-.286-.5H5.286c-.158 0-.286.223-.286.5 0 .276.128.5.286.5h1.428zm0-2c.158 0 .286-.224.286-.5 0-.277-.128-.5-.286-.5H5.286c-.158 0-.286.223-.286.5 0 .276.128.5.286.5h1.428zm0-2c.158 0 .286-.224.286-.5 0-.277-.128-.5-.286-.5H5.286c-.158 0-.286.223-.286.5 0 .276.128.5.286.5h1.428z"/>
</svg>
