<svg xmlns="http://www.w3.org/2000/svg" width="24" height="24" viewBox="0 0 24 24">
    <path fill="#000" fill-rule="evenodd" d="M13.123 17.306a.408.408 0 0 1-.562.094l-4.869-3.348a.392.392 0 0 1-.102-.55l6.324-8.87a.408.408 0 0 1 .561-.093l4.87 3.348a.392.392 0 0 1 .101.55l-6.323 8.869zm-5.227 2.168a1.506 1.506 0 0 1-.38-2.09 1.493 1.493 0 0 1 2.088-.358c.68.479.85 1.415.38 2.09a1.493 1.493 0 0 1-2.088.358zM21.384 6.748L14.916 2.26c-.65-.45-1.54-.3-1.99.336L3.254 16.284a1.407 1.407 0 0 0 .362 1.968l6.468 4.488c.65.45 1.54.3 1.99-.336l9.672-13.688a1.407 1.407 0 0 0-.362-1.968z"/>
</svg>
