<?xml version="1.0" encoding="UTF-8"?>
<svg width="16px" height="16px" viewBox="0 0 16 16" version="1.1" xmlns="http://www.w3.org/2000/svg" xmlns:xlink="http://www.w3.org/1999/xlink">
    <!-- Generator: sketchtool 41.2 (35397) - http://www.bohemiancoding.com/sketch -->
    <title>D3C75973-8F0D-4069-946C-6AA928678A1B</title>
    <desc>Created with sketchtool.</desc>
    <defs></defs>
    <g id="Icons" stroke="none" stroke-width="1" fill="none" fill-rule="evenodd">
        <g id="Style-guide---Desktop---Icons-2" transform="translate(-401.000000, -1175.000000)">
            <g id="kb-iconfont-import-16" transform="translate(401.000000, 1175.000000)">
                <g id="kb-iconfont-import">
                    <rect id="icon-area" fill="#D8D8D8" opacity="0" x="0" y="0" width="16" height="16"></rect>
                    <path d="M0,8 C0,3.581722 3.59071231,0 8,0 C12.418278,0 16,3.59071231 16,8 C16,12.418278 12.4092877,16 8,16 C3.581722,16 0,12.4092877 0,8 Z M7.52320433,11.8127922 L4.16943093,8.25882617 C4.04012388,8.12223555 3.9756756,7.9560648 3.9756756,7.77075396 C3.9756756,7.57543808 4.04012388,7.40926733 4.16943093,7.27267671 L4.56556206,6.86246985 C4.68542765,6.72587924 4.84182761,6.65758393 5.02614147,6.65758393 C5.21045533,6.65758393 5.36726579,6.72587924 5.48672087,6.86246985 L6.99776615,8.4637121 L6.99776615,4.62655974 C6.99776615,4.4412489 7.06262492,4.28508319 7.19152148,4.16763266 C7.32041803,4.05061713 7.47722849,3.99189187 7.65210088,3.99189187 L8.31546659,3.99189187 C8.49074948,3.99189187 8.64714944,4.05061713 8.77604599,4.16763266 C8.90535305,4.28508319 8.96980132,4.4412489 8.96980132,4.62655974 L8.96980132,8.4637121 L10.4808466,6.86246985 C10.6097431,6.72587924 10.7665536,6.65758393 10.941426,6.65758393 C11.1257399,6.65758393 11.2825503,6.72587924 11.4114469,6.86246985 L11.7891056,7.27267671 C11.9180021,7.40926733 11.9918919,7.57543808 11.9918919,7.77075396 C11.9918919,7.9560648 11.9180021,8.12223555 11.7891056,8.25882617 L8.45380461,11.8127922 C8.31546659,11.9398128 8.15906663,12.0081081 7.98378373,12.0081081 C7.79946987,12.0081081 7.65210088,11.9398128 7.52320433,11.8127922 Z" id="Combined-Shape" fill="#000000"></path>
                </g>
            </g>
        </g>
    </g>
</svg>