<svg xmlns="http://www.w3.org/2000/svg" width="16" height="16" viewBox="0 0 16 16">
    <g fill="none" fill-rule="evenodd">
        <path d="M0 0h16v16H0z"/>
        <path fill="#000" fill-rule="nonzero" d="M12.87 5l-.021-.06c-.18-.519-.784-.94-1.323-.94H7.935c-.266 0-.97-.942-1.164-1.204l-1.14-1.45A.893.893 0 0 0 4.934.98H1.418C.58.98.017 1.625.017 2.378L0 13.009c0 .547.444.991 1 .99h7.168c-.11-.29-.169-.616-.169-.983v-.22c0-1.162.605-1.979 1.566-2.602a4.828 4.828 0 0 1-.243-1.49C9.323 6.557 10.85 5 12.858 5h.011z"/>
        <path fill="#000" d="M13 10.938c1.378 0 2.442.516 3.192 1.548C15.86 13.496 14.796 14 13 14c-1.796 0-2.86-.505-3.192-1.514.75-1.032 1.814-1.549 3.192-1.549zm1.567-2.407c0 .846-.675 1.531-1.506 1.531s-1.506-.685-1.506-1.53c0-.846.675-1.532 1.506-1.532s1.506.686 1.506 1.531z"/>
    </g>
</svg>
