<svg xmlns="http://www.w3.org/2000/svg" width="24" height="24" viewBox="0 0 24 24">
    <g fill="none" fill-rule="evenodd">
        <path d="M0 0h24v24H0z"/>
        <g fill="#000">
            <path d="M20.265 17.911c0 1.262-1.04 2.29-2.319 2.29-1.278 0-2.318-1.028-2.318-2.29s1.04-2.289 2.318-2.289c1.279 0 2.319 1.027 2.319 2.29zm.906 2.272c.073-.098.021-.07.057-.118l.089-.12c1.015-1.442.791-3.475-.549-4.798A3.964 3.964 0 0 0 17.965 14a3.964 3.964 0 0 0-2.804 1.146A3.864 3.864 0 0 0 14 17.915c0 1.045.412 2.028 1.161 2.767a3.954 3.954 0 0 0 2.797 1.144c.633 0 1.264-.151 1.829-.44.063-.035.057.001.208-.12l1.547 1.61c.016.016.1.094.224.094a.303.303 0 0 0 .213-.091l.131-.125c.1-.095.503-.436.578-.51.147-.146.076-.328-.01-.418l-1.507-1.643z"/>
            <path fill-rule="nonzero" d="M12 23c-1.36 0-2.663-.247-3.865-.698-.847-.26-1.552-.617-2.116-1.069A10.99 10.99 0 0 1 1 12C1 5.925 5.925 1 12 1s11 4.925 11 11c0 .219-.014.488-.042.808a.65.65 0 0 1-1.036.465l-.485-.361a1 1 0 0 1-.402-.819V12a9.036 9.036 0 1 0-15.584 6.226c.056-.071.117-.14.183-.204 1.728-1.681 3.974-2.522 6.74-2.522a.09.09 0 0 1 .085.12c-.376 1.082-.564 1.93-.564 2.541 0 1.082.545 2.408 1.633 3.978a.5.5 0 0 1-.356.782C12.69 22.974 12.3 23 12 23zm3.667-12.833a3.668 3.668 0 0 1-7.334 0 3.668 3.668 0 0 1 7.334 0z"/>
        </g>
    </g>
</svg>
