<?xml version="1.0" encoding="UTF-8"?>
<svg width="16px" height="16px" viewBox="0 0 16 16" version="1.1" xmlns="http://www.w3.org/2000/svg" xmlns:xlink="http://www.w3.org/1999/xlink">
    <!-- Generator: sketchtool 40.3 (33839) - http://www.bohemiancoding.com/sketch -->
    <title>A7A9346E-9A2A-43AF-A5BD-8186B854B17D</title>
    <desc>Created with sketchtool.</desc>
    <defs></defs>
    <g id="Icons" stroke="none" stroke-width="1" fill="none" fill-rule="evenodd">
        <g id="Style-guide---Desktop---Icons-2" transform="translate(-401.000000, -1331.000000)">
            <g id="kb-iconfont-tweet-16" transform="translate(401.000000, 1331.000000)">
                <rect id="icon-area" fill="#D8D8D8" opacity="0" x="0" y="0" width="16" height="16"></rect>
                <path d="M15.8496998,0.00731634144 C15.0288997,-0.088638374 13.2748055,0.788343095 13.0141132,0.934703571 C9.04951642,3.16266443 6.21301102,6.76575743 4.07667314,10.5708673 C2.2780801,13.7742583 1.90187461,15.4465744 2.04337828,15.9071833 C2.06634965,15.9820044 2.15022799,16.0215151 2.22084856,15.9879113 C2.5935099,15.8110974 2.97404713,15.1417771 3.40288989,14.5399271 C4.34602892,13.2159883 5.40153079,11.5230636 5.89324948,10.8378603 C7.24685417,8.95145095 9.2300058,8.93688054 10.999458,8.15034065 C11.5637662,7.89949324 12.7476453,7.17084122 12.6730868,6.3927023 C11.8629192,6.75512496 10.7730259,6.72847817 10.4530018,6.68922993 C11.0267611,5.98722471 11.8562247,5.83036303 12.6730868,5.48658 C13.6357843,5.08123367 14.9979212,3.64466951 14.9101049,3.11855939 C14.9010476,3.06434694 14.8469664,3.03034931 14.7945917,3.04728249 C14.1985173,3.23866686 13.0811896,3.71883423 12.5125497,3.46181736 C13.0057123,3.07340423 16.2868122,1.09458434 15.8496998,0.00731634144 Z M6.0222616,1.99083621 C6.02226158,1.3442908 5.41232743,1.01541535 5.22141217,1.01256789 C3.95632743,0.993449247 2.6908359,0.998601789 1.42561556,1.01161874 C0.622632511,1.01988993 0.0227681038,1.53297467 0.0176155614,2.33595772 C0.00446301903,4.3903306 -0.0143844379,5.93553428 0.0176155621,7.99004275 C0.0242596299,8.41783936 0.411787994,8.98717535 1.04594336,8.9871741 C1.76963723,8.98717267 1.99527762,8.45594106 1.99595559,7.99004275 C1.99826067,6.27275462 1.99432845,4.92673738 1.99595557,3.20944925 C1.99609116,2.96280518 1.99595557,3.4014194 1.99595557,3.01402957 L5.22141216,3.01402957 C5.70915125,3.01402957 6.02226162,2.54271609 6.0222616,1.99083621 Z M7,14.9963294 C7.00000002,15.6428748 7.37397621,15.9755468 7.80084943,15.9745977 C9.06607716,15.9717845 12.3314257,15.9885638 13.596646,15.9755468 C14.3996291,15.9672757 14.9994935,15.4541909 15.004646,14.6512079 C15.0177986,12.596835 15.036646,13.0516313 15.004646,10.9971228 C14.998002,10.5693262 14.6104736,9.99999023 13.9763182,9.99999148 C13.2526244,9.99999291 13.026984,10.5312245 13.026306,10.9971228 C13.0240009,12.714411 13.0279331,12.0604282 13.026306,13.7777163 C13.0261704,14.0243604 13.026306,13.5857462 13.026306,13.973136 C11.7103738,13.973136 8.28858852,13.973136 7.80084944,13.973136 C7.31311035,13.973136 6.99999998,14.4444495 7,14.9963294 Z" id="Combined-Shape" fill="#000000"></path>
            </g>
        </g>
    </g>
</svg>