<?xml version="1.0" encoding="UTF-8"?>
<svg width="16px" height="16px" viewBox="0 0 16 16" version="1.1" xmlns="http://www.w3.org/2000/svg" xmlns:xlink="http://www.w3.org/1999/xlink">
    <!-- Generator: sketchtool 40.3 (33839) - http://www.bohemiancoding.com/sketch -->
    <title>BB301147-34C6-42BD-B0C2-EDFFDCAE1B23</title>
    <desc>Created with sketchtool.</desc>
    <defs>
        <path d="M8,0 C3.5900277,0 0,3.5900277 0,8 C0,12.4099723 3.5900277,16 8,16 C12.4099723,16 16,12.4099723 16,8 C16,3.5900277 12.4099723,0 8,0 L8,0 Z" id="path-1"></path>
        <mask id="mask-2" maskContentUnits="userSpaceOnUse" maskUnits="objectBoundingBox" x="0" y="0" width="16" height="16" fill="white">
            <use xlink:href="#path-1"></use>
        </mask>
    </defs>
    <g id="Icons" stroke="none" stroke-width="1" fill="none" fill-rule="evenodd">
        <g id="Style-guide---Desktop---Icons-2" transform="translate(-431.000000, -1087.000000)">
            <g id="kb-iconfont-info-16" transform="translate(431.000000, 1087.000000)">
                <g id="kb-iconfont-info">
                    <rect id="icon-area" x="0" y="0" width="16" height="16"></rect>
                    <use id="Page-1" stroke="#000000" mask="url(#mask-2)" stroke-width="3" xlink:href="#path-1"></use>
                    <path d="M8.02879212,7 C8.68443545,7 9.14552213,7.5162555 9.05604068,8.17227785 L8.69383808,10.8277221 C8.60552847,11.4751533 8.00142766,12 7.34679212,12 L8.03808663,12 C7.38244331,12 6.92135663,11.4837445 7.01083808,10.8277221 L7.37304068,8.17227785 C7.46135029,7.52484667 8.0654511,7 8.72008663,7 L8.02879212,7 Z M9.53493938,5.001 C9.53493938,5.13666734 9.50560634,5.26408274 9.44693938,5.38325 C9.38827242,5.50241726 9.31127319,5.60691622 9.21593938,5.69675 C9.12060557,5.78658378 9.01152333,5.85808307 8.88868938,5.91125 C8.76585543,5.96441693 8.64027335,5.991 8.51193938,5.991 C8.3836054,5.991 8.2607733,5.96441693 8.14343938,5.91125 C8.02610546,5.85808307 7.92252316,5.78658378 7.83268938,5.69675 C7.7428556,5.60691622 7.67043965,5.50241726 7.61543938,5.38325 C7.5604391,5.26408274 7.53293938,5.13666734 7.53293938,5.001 C7.53293938,4.86533265 7.5604391,4.73700061 7.61543938,4.616 C7.67043965,4.49499939 7.74468891,4.38866712 7.83818938,4.297 C7.93168985,4.20533287 8.03710546,4.13291693 8.15443938,4.07975 C8.2717733,4.02658307 8.3946054,4 8.52293938,4 C8.65494004,4 8.78143877,4.02566641 8.90243938,4.077 C9.02343998,4.12833359 9.13068891,4.19983288 9.22418938,4.2915 C9.31768985,4.38316712 9.39285576,4.48949939 9.44968938,4.6105 C9.506523,4.7315006 9.53493938,4.86166597 9.53493938,5.001 L9.53493938,5.001 Z" id="i" fill="#000000"></path>
                </g>
            </g>
        </g>
    </g>
</svg>