<svg xmlns="http://www.w3.org/2000/svg" width="16" height="16" viewBox="0 0 16 16">
    <path fill="#000" fill-rule="evenodd" d="M1 8.504c0-.207.04-.402.12-.585a1.515 1.515 0 0 1 .796-.8c.182-.08.375-.119.58-.119.208 0 .402.04.584.119a1.529 1.529 0 0 1 .8.8c.08.183.12.378.12.585 0 .207-.04.401-.12.583a1.51 1.51 0 0 1-.8.794c-.182.08-.376.119-.584.119-.205 0-.398-.04-.58-.119a1.528 1.528 0 0 1-.796-.794A1.436 1.436 0 0 1 1 8.504zm5 0c0-.207.04-.402.12-.585a1.515 1.515 0 0 1 .796-.8c.182-.08.375-.119.58-.119.208 0 .402.04.584.119a1.529 1.529 0 0 1 .8.8c.08.183.12.378.12.585 0 .207-.04.401-.12.583a1.51 1.51 0 0 1-.8.794c-.182.08-.376.119-.584.119-.205 0-.398-.04-.58-.119a1.528 1.528 0 0 1-.796-.794A1.436 1.436 0 0 1 6 8.504zm5 0c0-.207.04-.402.12-.585a1.515 1.515 0 0 1 .796-.8c.182-.08.375-.119.58-.119.208 0 .402.04.584.119a1.529 1.529 0 0 1 .8.8c.08.183.12.378.12.585 0 .207-.04.401-.12.583a1.51 1.51 0 0 1-.8.794c-.182.08-.376.119-.584.119-.205 0-.398-.04-.58-.119a1.528 1.528 0 0 1-.796-.794 1.436 1.436 0 0 1-.12-.583z"/>
</svg>
