<svg xmlns="http://www.w3.org/2000/svg" width="17" height="16" viewBox="0 0 17 16">
    <g fill="#000" fill-rule="evenodd">
        <path d="M9 0a8 8 0 1 1 0 16A8 8 0 0 1 9 0zm0 14A6 6 0 1 0 9 2a6 6 0 0 0 0 12z"/>
        <path d="M7 6a1 1 0 1 1 0 2 1 1 0 0 1 0-2zm4 1.997A.999.999 0 1 1 11 6a.999.999 0 0 1 0 1.997zM12.796 10.718c-2.125 2.156-5.47 2.156-7.596 0a.74.74 0 0 1-.011-1 .64.64 0 0 1 .94-.016c1.609 1.622 4.13 1.622 5.738 0a.64.64 0 0 1 .647-.175.69.69 0 0 1 .466.508.738.738 0 0 1-.184.683z"/>
    </g>
</svg>
