<svg xmlns="http://www.w3.org/2000/svg" width="24" height="24" viewBox="0 0 24 24">
    <path fill="#000" fill-rule="nonzero" d="M1 17.443v.089a2 2 0 0 0 .824 1.617l.552.401a.867.867 0 0 0 1.376-.7v-2.324a5.021 5.021 0 0 1 1.052-3.018C2.565 14.183 1 15.69 1 17.443zM16 7a4 4 0 1 0-8 0 4 4 0 0 0 8 0zm-9.624.786c0-.373.038-.746.112-1.111a2.96 2.96 0 0 0-.97-.175 3 3 0 1 0 2.254 4.96 5.54 5.54 0 0 1-1.396-3.674zm12.97 5.722a5.021 5.021 0 0 1 1.052 3.018v2.323a.867.867 0 0 0 1.376.701l.552-.4a2 2 0 0 0 .824-1.618v-.089c0-1.752-1.565-3.26-3.804-3.935zM21.753 9.5a3.003 3.003 0 0 0-3-3 2.96 2.96 0 0 0-.97.175A5.544 5.544 0 0 1 16.5 11.46a2.987 2.987 0 0 0 5.253-1.96zm-9.745 3c-3.54 0-6.421 1.935-6.421 4.314v1.498a2 2 0 0 0 1.018 1.743 10.321 10.321 0 0 0 5.147 1.355c1.854 0 3.711-.465 5.57-1.393a2 2 0 0 0 1.107-1.79v-1.413c0-2.379-2.88-4.314-6.421-4.314z"/>
</svg>
