<svg xmlns="http://www.w3.org/2000/svg" width="16" height="16" viewBox="0 0 16 16">
    <path fill="#000" fill-rule="evenodd" d="M8.797 15h-1.62l-.277-.995a1.095 1.095 0 0 0-.717-.74 5.034 5.034 0 0 1-.625-.255 1.105 1.105 0 0 0-1.041 0l-.902.486-1.134-1.134.486-.902c.162-.3.185-.694.023-1.041-.093-.209-.185-.417-.255-.625a1.095 1.095 0 0 0-.74-.717L1 8.799V7.18l.995-.277c.347-.093.625-.37.74-.717.07-.209.162-.44.255-.625a1.107 1.107 0 0 0-.023-1.041l-.486-.903 1.134-1.134.902.486c.3.162.694.185 1.041.024.208-.093.417-.186.625-.255.347-.116.625-.393.717-.74l.278-.995h1.62l.277.995c.093.347.37.624.717.74.209.07.44.162.625.255.347.138.74.138 1.041-.024l.903-.486 1.133 1.134-.486.903c-.161.3-.185.694-.023 1.04.093.209.185.417.255.626.116.347.393.624.74.717l.995.277V8.8l-.972.278c-.347.092-.624.37-.74.717-.07.208-.162.44-.255.625-.185.347-.161.74 0 1.04l.486.903-1.133 1.134-.903-.486a1.173 1.173 0 0 0-1.04-.023 7.082 7.082 0 0 1-.626.255 1.095 1.095 0 0 0-.717.74L8.797 15zm-.856-3.849a3.208 3.208 0 1 0 0-6.416 3.208 3.208 0 0 0 0 6.416z"/>
</svg>
