<svg xmlns="http://www.w3.org/2000/svg" width="16" height="16" viewBox="0 0 16 16">
    <g fill="none" fill-rule="evenodd">
        <path d="M0 0h16v16H0z"/>
        <path fill="#000" fill-rule="nonzero" d="M8 1.5C4.418 1.5 1.5 4.418 1.5 8s2.918 6.5 6.5 6.5 6.5-2.918 6.5-6.5S11.582 1.5 8 1.5zM8 0c4.41 0 8 3.59 8 8s-3.59 8-8 8-8-3.59-8-8 3.59-8 8-8z"/>
        <path fill="#000" d="M8.029 7c.655 0 1.117.516 1.027 1.172l-.362 2.656C8.606 11.475 8 12 7.347 12h.691c-.656 0-1.117-.516-1.027-1.172l.362-2.656C7.461 7.525 8.065 7 8.72 7H8.03zm1.506-1.999c0 .136-.03.263-.088.382a1.086 1.086 0 0 1-.558.528.94.94 0 0 1-.377.08.883.883 0 0 1-.369-.08 1.046 1.046 0 0 1-.528-.528.92.92 0 0 1 0-.767 1.093 1.093 0 0 1 .539-.536.883.883 0 0 1 .369-.08c.132 0 .258.026.38.077.12.051.228.123.321.215.094.091.169.197.226.319a.907.907 0 0 1 .085.39z"/>
    </g>
</svg>
