<?xml version="1.0" encoding="UTF-8" standalone="no"?>
<svg width="16px" height="16px" viewBox="0 0 16 16" version="1.1" xmlns="http://www.w3.org/2000/svg" xmlns:xlink="http://www.w3.org/1999/xlink">
    <!-- Generator: sketchtool 3.8.3 (29802) - http://www.bohemiancoding.com/sketch -->
    <title>A680C934-4D65-440F-BF2C-77F959012B54</title>
    <desc>Created with sketchtool.</desc>
    <defs></defs>
    <g id="Icons" stroke="none" stroke-width="1" fill="none" fill-rule="evenodd">
        <g id="Style-guide---Desktop---Icons-2" transform="translate(-377.000000, -1450.000000)">
            <g id="kb-iconfont-folder-public-has-files" transform="translate(377.000000, 1450.000000)">
                <g>
                    <rect id="icon-area" fill="#FFFFFF" opacity="0" x="0" y="0" width="16" height="16"></rect>
                    <path d="M15.9990237,9.62390165 L15.9997779,13.0035474 C15.9998983,13.5432173 15.5518945,13.9988611 14.9991283,13.9989016 L1.00087166,13.9999267 C0.444630861,13.9999674 0.000641244199,13.5563469 0.00143225899,13.0090731 L0.0167988322,2.37751021 C0.0167988322,1.62468156 0.58115436,0.980720129 1.41753606,0.980720129 L4.93398692,0.980720129 C5.1961316,0.980720129 5.45674864,1.11723005 5.6309007,1.34574887 L6.77070617,2.79602639 C6.96510205,3.05762443 7.66937256,4 7.93484783,4 L12.9964484,4 L11,4 L15.9990237,9.62390165 Z" id="Combined-Shape" fill="#000000"></path>
                    <path d="M7,0 L16,0 L16,1 L7,1 L7,0 Z M9,2 L16,2 L16,3 L9,3 L9,2 Z M14,4 L16,4 L16,5 L14,5 L14,4 Z" id="Combined-Shape" fill="#000000"></path>
                </g>
            </g>
        </g>
    </g>
</svg>