<svg xmlns="http://www.w3.org/2000/svg" width="16" height="16" viewBox="0 0 16 16">
    <g fill="#000" fill-rule="evenodd" transform="translate(3)">
        <path fill-rule="nonzero" d="M1 1.994v12.012c0 .548.445.994.992.994h7.016a.998.998 0 0 0 .992-.994V1.994A.994.994 0 0 0 9.008 1H1.992A.998.998 0 0 0 1 1.994zm-1 0C0 .893.9 0 1.992 0h7.016C10.108 0 11 .895 11 1.994v12.012C11 15.107 10.1 16 9.008 16H1.992C.892 16 0 15.105 0 14.006V1.994z"/>
        <circle cx="5.5" cy="4.5" r="2"/>
        <path d="M3 8.5c0-.276.215-.5.498-.5h4.004c.275 0 .498.232.498.5 0 .276-.215.5-.498.5H3.498A.504.504 0 0 1 3 8.5zm0 2c0-.276.215-.5.498-.5h4.004c.275 0 .498.232.498.5 0 .276-.215.5-.498.5H3.498A.504.504 0 0 1 3 10.5zm0 2c0-.276.215-.5.498-.5h4.004c.275 0 .498.232.498.5 0 .276-.215.5-.498.5H3.498A.504.504 0 0 1 3 12.5z"/>
    </g>
</svg>
