<svg xmlns="http://www.w3.org/2000/svg" xmlns:xlink="http://www.w3.org/1999/xlink" width="16" height="16" viewBox="0 0 16 16">
    <defs>
        <path id="a" d="M1 0h16v16H1z"/>
    </defs>
    <g fill="none" fill-rule="evenodd" transform="translate(-1)">
        <mask id="b" fill="#fff">
            <use xlink:href="#a"/>
        </mask>
        <g fill="#000" mask="url(#b)">
            <path fill-rule="nonzero" d="M9.272 2.167l.93 1.328A6.236 6.236 0 1 1 5.092 7.07l-.93-1.327 5.109-3.577zm2.715 5.29a1.17 1.17 0 1 0-.506-2.283 1.17 1.17 0 0 0 .506 2.283z"/>
            <path d="M4 4a3 3 0 0 1-3 3V5a1 1 0 0 0 1-1V3a3 3 0 1 1 6 0v2.428L6 5.46V3a1 1 0 1 0-2 0v1z"/>
        </g>
        <path fill="#000" fill-rule="nonzero" d="M1.857 10.357L2.5 8.75l.643 1.607L4.75 11l-1.607.643L2.5 13.25l-.643-1.607L.25 11z"/>
    </g>
</svg>
