<?xml version="1.0" encoding="UTF-8"?>
<svg width="16px" height="16px" viewBox="0 0 16 16" version="1.1" xmlns="http://www.w3.org/2000/svg" xmlns:xlink="http://www.w3.org/1999/xlink">
    <!-- Generator: sketchtool 49.3 (51167) - http://www.bohemiancoding.com/sketch -->
    <title>BE76B968-41FA-489E-8950-D20CEC0D2444</title>
    <desc>Created with sketchtool.</desc>
    <defs></defs>
    <g id="Colors,-icons" stroke="none" stroke-width="1" fill="none" fill-rule="evenodd">
        <g id="Icons-2" transform="translate(-277.000000, -339.000000)">
            <g id="kb-iconfont-identity-website-16" transform="translate(277.000000, 339.000000)">
                <rect id="icon-area" fill="#D8D8D8" opacity="0" x="0" y="0" width="16" height="16"></rect>
                <path d="M8.00005,1.001 C4.13405675,1.001 1.00005,4.13500675 1.00005,8.001 C1.00005,11.8669932 4.13405675,15.001 8.00005,15.001 C11.8660432,15.001 15.00005,11.8669932 15.00005,8.001 C15.00005,4.13500675 11.8660432,1.001 8.00005,1.001 Z M12.6960525,5.66766667 L10.7147725,5.66766667 C10.5718967,4.77603112 10.2915139,3.911969 9.88363333,3.10632583 C11.1072345,3.58028717 12.1100644,4.49358955 12.6960525,5.66766667 Z M8.00005,2.751 C8.37588583,2.751 9.15290333,3.7612925 9.53201167,5.66766667 L6.46808833,5.66766667 C6.84719667,3.76128083 7.62421417,2.751 8.00005,2.751 Z M2.8852025,9.16766667 C2.70499919,8.40032671 2.70499919,7.60167329 2.8852025,6.83433333 L5.133795,6.83433333 C5.10218417,7.21315583 5.08338333,7.6019475 5.08338333,8.001 C5.08338333,8.4000525 5.10218417,8.78883833 5.133795,9.16766667 L2.8852025,9.16766667 Z M3.30403583,10.3343333 L5.28531583,10.3343333 C5.42819415,11.2259675 5.70857475,12.090029 6.11644917,12.8956742 C4.89285636,12.4217062 3.89003413,11.5084051 3.30403583,10.3343333 Z M5.28531583,5.66766667 L3.30403583,5.66766667 C3.89002346,4.49359132 4.89285079,3.58028937 6.11644917,3.10632583 C5.70857713,3.91197102 5.42820039,4.77603271 5.2853275,5.66766667 L5.28531583,5.66766667 Z M8.00003833,13.251 C7.6242025,13.251 6.847185,12.2407017 6.46807667,10.3343333 L9.532,10.3343333 C9.15290333,12.2406667 8.37588583,13.251 8.00005,13.251 L8.00003833,13.251 Z M9.69834333,9.16766667 L6.30173333,9.16766667 C6.26897917,8.80166 6.25003833,8.41341667 6.25003833,8.001 C6.25003833,7.58858333 6.26897917,7.20034 6.30173333,6.83433333 L9.69834333,6.83433333 C9.7310975,7.20034 9.75003833,7.58858333 9.75003833,8.001 C9.75003833,8.41341667 9.73110917,8.80164833 9.698355,9.16766667 L9.69834333,9.16766667 Z M9.88362167,12.8956742 C10.2915007,12.0900304 10.5718834,11.2259685 10.7147608,10.3343333 L12.6960408,10.3343333 C12.1100514,11.5084025 11.1072269,12.4216996 9.88362167,12.8956742 Z M10.8662875,9.16766667 C10.8979042,8.78883833 10.916705,8.40004667 10.916705,8.001 C10.916705,7.60195333 10.8979042,7.21315583 10.8662875,6.83433333 L13.1148858,6.83433333 C13.2950891,7.60167329 13.2950891,8.40032671 13.1148858,9.16766667 L10.8662875,9.16766667 Z" id="world" fill="#000000" fill-rule="nonzero"></path>
            </g>
        </g>
    </g>
</svg>