<svg xmlns="http://www.w3.org/2000/svg" width="16" height="16" viewBox="0 0 16 16">
    <path fill="#000" fill-rule="nonzero" d="M0 11.794c0 .503.24.975.647 1.27l.347.252a.626.626 0 0 0 .994-.506v-1.678c.009-.79.276-1.556.76-2.18C1.13 9.438 0 10.528 0 11.793zm10.933-7.812a2.982 2.982 0 1 0-5.963 0 2.982 2.982 0 0 0 5.963 0zm-7.289 0c0-.289.03-.576.087-.86a2.289 2.289 0 0 0-.75-.134 2.32 2.32 0 1 0 1.742 3.834 4.284 4.284 0 0 1-1.079-2.84zm9.608 4.97c.484.624.751 1.39.76 2.18v1.678a.626.626 0 0 0 .994.506l.347-.252a1.57 1.57 0 0 0 .647-1.27c0-1.265-1.13-2.355-2.748-2.843zm1.988-3.645a2.322 2.322 0 0 0-2.319-2.32 2.289 2.289 0 0 0-.749.136 4.286 4.286 0 0 1-.992 3.7 2.31 2.31 0 0 0 4.06-1.516zM7.951 8.289c-2.557 0-4.638 1.398-4.638 3.116v.748a2 2 0 0 0 1.113 1.792 7.43 7.43 0 0 0 3.341.78c1.214 0 2.43-.276 3.648-.828a2 2 0 0 0 1.175-1.822v-.67c0-1.718-2.08-3.116-4.639-3.116z"/>
</svg>
