<svg xmlns="http://www.w3.org/2000/svg" width="16" height="16" viewBox="0 0 16 16">
    <g fill="none" fill-rule="nonzero">
        <path fill="#000" d="M1.959 3.112c.059-.921.856-1.643 1.815-1.643.023 0 .513.028 1.47.085.485.028.93.237 1.25.587.323.351-.767 3.482-1.189 3.949-.287.317-.989.23-.989.23l-.738-.043c-.998-.06-1.762-.889-1.704-1.855l.085-1.31z"/>
        <path fill="#FFF" d="M3.8 2.788h-.026a.442.442 0 0 0-.449.405l-.084 1.31a.44.44 0 0 0 .42.458l.805.045c-.13-1.03.19-1.745.369-2.145L3.8 2.788z"/>
        <path fill="#000" d="M.843 14.433L0 15.509v-1.203c0-1.993 0-4.474 2.242-6.738a7.671 7.671 0 0 1 2.475-1.686c-.246-.507-.335-1.096-.257-1.723.167-1.341.994-2.484 1.95-3.808l.197-.27.82.482c-.405.861-.359 1.18-.338 1.253.326-.01.716.06 1.16.207A2.781 2.781 0 0 1 9.9 3.485a2.784 2.784 0 0 1 .061 2.262l.056.02a7.348 7.348 0 0 1 2.902 1.855c1.339 1.376 2.106 3.194 2.106 4.987 0 1.253-.216 2.41-.634 3.391H1.447a7.134 7.134 0 0 1-.604-1.567z"/>
        <path fill="#FFF" d="M13.977 11.597a2.228 2.228 0 0 1-.072.11c-.618.878-1.808 1.212-3.032.853-2.822-.829-5.309-.48-7.392 1.035l-1.179.859 1.558-3.875-2.238 2.858A6.24 6.24 0 0 0 2.562 16H13.34c.589-1.148.731-2.434.731-3.39 0-.338-.032-.677-.094-1.013z"/>
        <path fill="#000" d="M6.853 14.563a.646.646 0 1 1-1.292 0 .646.646 0 0 1 1.292 0zM10.892 14.563a.646.646 0 1 1-1.292 0 .646.646 0 0 1 1.292 0z"/>
        <path fill="#FFF" d="M7.52 6.492c-.214.11-.332.11-.71.084l1.028 1.215-.5.393a.218.218 0 0 0-.032.315l.105.124a.227.227 0 0 0 .313.03l.506-.397.417.495-1.022.804a.218.218 0 0 0-.033.314l.46.543a.24.24 0 0 0 .33.032l1.018-.8.286.34a.306.306 0 0 0 .302.1.305.305 0 0 0 .122-.058.283.283 0 0 0 .043-.408L7.52 6.492z"/>
    </g>
</svg>
