<?xml version="1.0" encoding="UTF-8" standalone="no"?>
<svg width="16px" height="16px" viewBox="0 0 16 16" version="1.1" xmlns="http://www.w3.org/2000/svg" xmlns:xlink="http://www.w3.org/1999/xlink">
    <!-- Generator: sketchtool 39.1 (31720) - http://www.bohemiancoding.com/sketch -->
    <title>DFB578D0-EE20-43EE-80CC-FFF83F5E7536</title>
    <desc>Created with sketchtool.</desc>
    <defs></defs>
    <g id="Icons" stroke="none" stroke-width="1" fill="none" fill-rule="evenodd">
        <g id="Style-guide---Desktop---Icons-2" transform="translate(-377.000000, -1538.000000)" fill="#000000">
            <g id="kb-iconfont-folder-hidden" transform="translate(377.000000, 1538.000000)">
                <g transform="translate(0.000000, 3.000000)" id="Combined-Shape">
                    <path d="M3.15532559,8.95235181 L3.0608601,9.0468173 C3.06865916,9.0530013 3.0764636,9.05917549 3.0842734,9.0653398 C2.87925314,9.44632739 2.93427738,9.94123048 3.24138816,10.2662889 L3.11050064,10.1277523 C3.48990468,10.5293288 4.11362853,10.5374857 4.4961939,10.153433 L4.5785184,10.0707884 C5.17199882,10.4004428 5.79037463,10.6602533 6.43180705,10.8260553 C7.40201794,11.0768696 8.37846865,11.0875715 9.35379939,10.8754788 C10.2408128,10.682455 11.0958271,10.2812301 11.8962831,9.78388239 C13.1488855,9.00536596 14.2928512,7.9324493 15.2896213,6.72935831 C15.4740958,6.50656368 15.6576103,6.27948828 15.8252852,6.03762477 C15.9145626,5.92885429 15.9728008,5.78797803 15.9924802,5.63737276 C15.9924802,5.63659443 15.9926402,5.63562153 15.9928002,5.63484321 C15.9937602,5.62803289 15.9944002,5.62141716 15.9950401,5.61460684 C15.9956801,5.60896401 15.9964801,5.6031266 15.9969601,5.59728918 C15.9972801,5.59320299 15.9974401,5.58931138 15.9977601,5.58522519 C15.9982401,5.57744197 15.99888,5.56965876 15.9992,5.56148638 C15.99968,5.54942239 16,5.5373584 16,5.52509983 C16,5.51284126 15.99936,5.50097185 15.99888,5.48890786 C15.99856,5.48073549 15.9979201,5.47295227 15.9974401,5.46497447 C15.9971201,5.46088828 15.9969601,5.45680209 15.9966401,5.45291048 C15.9961601,5.44707307 15.9953601,5.44123565 15.9947202,5.43559282 C15.9940802,5.4287825 15.9934402,5.42197219 15.9924802,5.41535645 C15.9923202,5.41457813 15.9921602,5.41360523 15.9921602,5.4128269 C15.9724808,5.26241621 15.9142426,5.12134537 15.8249653,5.01276948 C15.3145806,4.27706075 14.7073988,3.6222975 14.0899773,3.02435174 C13.6579432,2.60570643 13.2057427,2.20928613 12.7345118,1.84996007 C12.980052,1.46226014 12.9363534,0.931120034 12.6127282,0.588582025 L12.7436157,0.727118652 C12.3642117,0.325542109 11.7404878,0.317385266 11.3579224,0.701437965 L7.3005929,4.77454158 C7.20415458,4.84688976 7.11852057,4.93285431 7.0465421,5.02958007 L3.25313786,8.8377323 C3.21717961,8.87383035 3.18457937,8.91217429 3.15532559,8.95235181 Z M10.9787415,3.64568254 C11.2978489,4.21300032 11.4812366,4.87655934 11.4812366,5.58568081 C11.4812366,7.67626342 9.88732677,9.37084126 7.92093718,9.37084126 C7.1808616,9.37084126 6.49354734,9.13080627 5.92411046,8.71996496 L7.67074185,6.96654303 C7.79035,7.00457093 7.91776866,7.02508989 8.04998779,7.02508989 C8.74044155,7.02508989 9.29998779,6.46554365 9.29998779,5.77508989 C9.29998779,5.64118378 9.27892992,5.51218945 9.23994356,5.39124058 L10.9787415,3.64568254 Z M4.42752245,4.85172788 L1.57627389,7.70297637 C1.07328711,7.19357913 0.587611508,6.64299045 0.167514975,6.03743019 C-0.0558383249,5.7155941 -0.0558383249,5.33441098 0.167514975,5.01257489 C0.335189944,4.77071138 0.518704439,4.5434414 0.703178905,4.32084135 C1.699949,3.11775036 2.84391468,2.04463912 4.0965171,1.26631727 C4.8968131,0.76896961 5.75182745,0.367744699 6.63900083,0.174720881 C7.47595424,-0.00728067369 8.31361455,-0.0252219451 9.14753331,0.131717135 L7.44523736,1.83401305 C5.93167152,2.04886831 4.71898814,3.27471127 4.42752245,4.85172788 Z"></path>
                </g>
            </g>
        </g>
    </g>
</svg>