<svg xmlns="http://www.w3.org/2000/svg" width="16" height="16" viewBox="0 0 16 16">
    <g fill="#000" fill-rule="evenodd" transform="translate(3)">
        <path fill-rule="nonzero" d="M1 1.994v12.012c0 .548.445.994.992.994h7.016a.998.998 0 0 0 .992-.994V1.994A.994.994 0 0 0 9.008 1H1.992A.998.998 0 0 0 1 1.994zm-1 0C0 .893.9 0 1.992 0h7.016C10.108 0 11 .895 11 1.994v12.012C11 15.107 10.1 16 9.008 16H1.992C.892 16 0 15.105 0 14.006V1.994z"/>
        <circle cx="5.5" cy="4.5" r="2"/>
        <path d="M3 9c0-.552.444-1 1-1h3c.552 0 1 .444 1 1 0 .552-.444 1-1 1H4c-.552 0-1-.444-1-1zm0 3c0-.552.444-1 1-1h3c.552 0 1 .444 1 1 0 .552-.444 1-1 1H4c-.552 0-1-.444-1-1z"/>
    </g>
</svg>
