<?xml version="1.0" encoding="UTF-8"?>
<svg width="16px" height="16px" viewBox="0 0 16 16" version="1.1" xmlns="http://www.w3.org/2000/svg" xmlns:xlink="http://www.w3.org/1999/xlink">
    <!-- Generator: sketchtool 40.3 (33839) - http://www.bohemiancoding.com/sketch -->
    <title>E8EFFC48-9142-4464-A944-BE84A4C6C95D</title>
    <desc>Created with sketchtool.</desc>
    <defs></defs>
    <g id="Icons" stroke="none" stroke-width="1" fill="none" fill-rule="evenodd">
        <g id="Style-guide---Desktop---Icons-2" transform="translate(-431.000000, -1057.000000)">
            <g id="kb-iconfont-new-16" transform="translate(431.000000, 1057.000000)">
                <g id="kb-iconfont-new">
                    <rect id="icon-area" x="0" y="0" width="16" height="16"></rect>
                    <path d="M9,6 L9,2.4912653 C9,1.66254437 8.32842712,1 7.5,1 C6.66579723,1 6,1.66766222 6,2.4912653 L6,6 L2.4912653,6 C1.66254437,6 1,6.67157288 1,7.5 C1,8.33420277 1.66766222,9 2.4912653,9 L6,9 L6,12.5087347 C6,13.3374556 6.67157288,14 7.5,14 C8.33420277,14 9,13.3323378 9,12.5087347 L9,9 L12.5087347,9 C13.3374556,9 14,8.32842712 14,7.5 C14,6.66579723 13.3323378,6 12.5087347,6 L9,6 Z" id="Combined-Shape" fill="#000000"></path>
                </g>
            </g>
        </g>
    </g>
</svg>