<?xml version="1.0" encoding="UTF-8"?>
<svg width="16px" height="16px" viewBox="0 0 16 16" version="1.1" xmlns="http://www.w3.org/2000/svg" xmlns:xlink="http://www.w3.org/1999/xlink">
    <!-- Generator: sketchtool 49.3 (51167) - http://www.bohemiancoding.com/sketch -->
    <title>709CCA32-5E56-4B05-A981-8C609F5D1DBE</title>
    <desc>Created with sketchtool.</desc>
    <defs></defs>
    <g id="Colors,-icons" stroke="none" stroke-width="1" fill="none" fill-rule="evenodd">
        <g id="Icons-2" transform="translate(-491.000000, -218.000000)">
            <g id="kb-iconfont-ellipsis-16" transform="translate(491.000000, 218.000000)">
                <g id="kb-iconfont-ellipsis">
                    <rect id="icon-area" fill="#D8D8D8" opacity="0" x="0" y="0" width="16" height="16"></rect>
                    <path d="M8,7 C7.17157288,7 6.5,7.67157288 6.5,8.5 C6.5,9.32842712 7.17157288,10 8,10 C8.82842712,10 9.5,9.32842712 9.5,8.5 C9.5,7.67157288 8.82842712,7 8,7 Z M3.5,7 C2.67157288,7 2,7.67157288 2,8.5 C2,9.32842712 2.67157288,10 3.5,10 C4.32842712,10 5,9.32842712 5,8.5 C5,7.67157288 4.32842712,7 3.5,7 Z M12.5,7 C11.6715729,7 11,7.67157288 11,8.5 C11,9.32842712 11.6715729,10 12.5,10 C13.3284271,10 14,9.32842712 14,8.5 C14,7.67157288 13.3284271,7 12.5,7 Z" id="ellipsis" fill="#000000" fill-rule="nonzero"></path>
                </g>
            </g>
        </g>
    </g>
</svg>