<svg xmlns="http://www.w3.org/2000/svg" width="16" height="16" viewBox="0 0 16 16">
    <path fill="#000" fill-rule="nonzero" d="M4.96 11.04a1 1 0 0 0 1.415 0l4.667-4.667a1 1 0 1 0-1.414-1.415L4.96 9.626a1 1 0 0 0 0 1.414zm2.334 2.052a3.101 3.101 0 1 1-4.386-4.386l2.193-2.193L3.687 5.1 1.494 7.292a5.101 5.101 0 0 0 7.214 7.214l2.193-2.193L9.487 10.9l-2.193 2.193zm7.214-11.6a5.106 5.106 0 0 0-7.214 0L5.101 3.685l1.415 1.414 2.192-2.193a3.101 3.101 0 1 1 4.386 4.386l-2.193 2.193 1.414 1.414 2.193-2.193a5.107 5.107 0 0 0 0-7.214z"/>
</svg>
