<svg xmlns="http://www.w3.org/2000/svg" width="16" height="16" viewBox="0 0 16 16">
    <g fill="none" fill-rule="evenodd">
        <path d="M0 0h16v16H0z"/>
        <path fill="#000" fill-rule="nonzero" d="M0 14v.668C0 15.403.597 16 1.332 16h13.336c.735 0 1.332-.597 1.332-1.332V14H0zm14.98-7.667c0-.736-.596-1.333-1.333-1.333H2.317C1.582 5 .985 5.597.985 6.333V15h13.997V6.333zM13 13H3V7h10v6z"/>
        <path fill="#000" d="M10.828 2.471a4.004 4.004 0 0 0-5.656 0 .667.667 0 0 1-.943-.942 5.34 5.34 0 0 1 7.542 0 .667.667 0 0 1-.943.942z"/>
    </g>
</svg>
