<?xml version="1.0" encoding="UTF-8" standalone="no"?>
<svg width="16px" height="16px" viewBox="0 0 16 16" version="1.1" xmlns="http://www.w3.org/2000/svg" xmlns:xlink="http://www.w3.org/1999/xlink">
    <!-- Generator: sketchtool 3.8.3 (29802) - http://www.bohemiancoding.com/sketch -->
    <title>7A49441C-A63E-4B4D-B857-942BDB34235A</title>
    <desc>Created with sketchtool.</desc>
    <defs></defs>
    <g id="Icons" stroke="none" stroke-width="1" fill="none" fill-rule="evenodd">
        <g id="Style-guide---Desktop---Icons-2" transform="translate(-377.000000, -1420.000000)">
            <g id="kb-iconfont-folder-private-has-files" transform="translate(377.000000, 1420.000000)">
                <g>
                    <rect id="icon-area" fill="#FFFFFF" opacity="0" x="0" y="0" width="16" height="16"></rect>
                    <path d="M10,13.9992677 L12,13.9991212 L12,12 L14,12 L14,13.9989748 L14.0059397,13.9989743 C15.1072288,13.9988937 15.999802,13.111499 15.9995538,11.9994476 L15.9995496,11.9807201 L14.0014312,11.9807201 L14.0014312,9.98072013 L15.9991033,9.98072013 L15.9986613,8 L14.0014312,8 L14.0014312,9.98072013 L12.0014312,9.98072013 L12.0014312,7.98072013 L14,7.98072013 L14,4 L14.0023433,4 L7.93484783,4 C7.66937256,4 6.96510205,3.05762443 6.77070617,2.79602639 L5.6309007,1.34574887 C5.45674864,1.11723005 5.1961316,0.980720129 4.93398692,0.980720129 L1.41753606,0.980720129 C0.58115436,0.980720129 0.0167988322,1.62468156 0.0167988322,2.37751021 L0.00143225899,13.0090731 C0.000641244199,13.5563469 0.444630861,13.9999674 1.00087166,13.9999267 L4,13.9997071 L4,12 L6,12 L6,13.9995606 L8,13.9994142 L8,12 L10,12 L10,13.9992677 Z M12.0014312,6 L14,6 L14,4 L12,4 L12,5.98072013 L10.0014312,5.98072013 L10.0014312,7.98072013 L12.0014312,7.98072013 L12.0014312,6 Z M8,8 L10,8 L10,10 L8,10 L8,8 Z M6,10 L8,10 L8,12 L6,12 L6,10 Z M10,10 L12,10 L12,12 L10,12 L10,10 Z" id="Combined-Shape" fill="#000000"></path>
                    <path d="M14,4 L16,4 L16,5 L14,5 L14,4 Z M9,2 L16,2 L16,3 L9,3 L9,2 Z M7,0 L16,0 L16,1 L7,1 L7,0 Z" id="Combined-Shape" fill="#000000"></path>
                </g>
            </g>
        </g>
    </g>
</svg>