<svg xmlns="http://www.w3.org/2000/svg" width="16" height="16" viewBox="0 0 16 16">
    <path fill="#000" fill-rule="evenodd" d="M2 15a.993.993 0 0 1-.998-.99S1.027 4.4 1 2.346c.045-.803.645-1.316 1.448-1.324 1.265-.013 2.53-.018 3.796 0 .19.004.8.332.8.979 0 .552-.313 1.023-.8 1.023H3.018v.196c-.001 1.33.001 6.643.001 9.765L13 13v-2.992c0-.466.275-.997.999-.997.634 0 1.021.57 1.028.997.032 2.055.013 1.6 0 3.654-.005.803-.605 1.316-1.408 1.325-.964.01-11.62.014-11.62.014zM9.887 1h4.509c.167.006.31.061.433.185.118.117.18.264.192.437l-.012 4.47a.607.607 0 0 1-.173.443.619.619 0 0 1-.453.178l-.514.007a.61.61 0 0 1-.446-.185.598.598 0 0 1-.18-.437v-2.02l-3.993 4.16a.522.522 0 0 1-.421.16.658.658 0 0 1-.421-.196l-.446-.444a.651.651 0 0 1-.198-.418.517.517 0 0 1 .16-.42l3.994-4.16H9.888a.577.577 0 0 1-.44-.178.57.57 0 0 1-.18-.437l-.006-.523c0-.173.062-.32.186-.444A.604.604 0 0 1 9.888 1z"/>
</svg>
