<svg xmlns="http://www.w3.org/2000/svg" width="16" height="16" viewBox="0 0 16 16">
    <path fill="#000" fill-rule="evenodd" d="M0 8c0-4.418 3.59-8 8-8 4.418 0 8 3.59 8 8 0 4.418-3.59 8-8 8-4.418 0-8-3.59-8-8zm7.523 3.813a.628.628 0 0 0 .46.195.681.681 0 0 0 .47-.195l3.336-3.554a.702.702 0 0 0 0-.986l-.378-.41a.622.622 0 0 0-.47-.205.617.617 0 0 0-.46.204L8.97 8.464V4.627a.596.596 0 0 0-.194-.46.667.667 0 0 0-.46-.175h-.664a.668.668 0 0 0-.46.176.597.597 0 0 0-.194.459v3.837L5.487 6.862a.589.589 0 0 0-.46-.204.59.59 0 0 0-.461.204l-.397.41a.698.698 0 0 0-.193.499c0 .185.064.351.193.488l3.354 3.554z"/>
</svg>
