<svg xmlns="http://www.w3.org/2000/svg" width="24" height="24" viewBox="0 0 24 24">
    <g fill="#000" fill-rule="evenodd">
        <path d="M7.495 19.802C8.861 20.6 10.373 21 12.011 21c1.617 0 3.13-.4 4.515-1.198a9.413 9.413 0 0 0 3.277-3.276A8.915 8.915 0 0 0 21 12.01c0-1.638-.399-3.15-1.197-4.516a9.085 9.085 0 0 0-3.277-3.277C15.14 3.4 13.628 3 12.011 3c-1.638 0-3.15.399-4.516 1.217a8.763 8.763 0 0 0-3.277 3.277C3.4 8.86 3 10.372 3 12.01c0 1.617.4 3.13 1.218 4.516a9.068 9.068 0 0 0 3.277 3.276zm.89-14.026a7.172 7.172 0 0 1 3.628-.972c1.303 0 2.488.332 3.603.972a7.228 7.228 0 0 1 2.608 2.608 7.168 7.168 0 0 1 .972 3.628c0 1.303-.332 2.49-.972 3.604a7.236 7.236 0 0 1-2.608 2.608c-1.115.64-2.3.971-3.603.971a7.17 7.17 0 0 1-3.629-.971 7.245 7.245 0 0 1-2.608-2.608 7.086 7.086 0 0 1-.971-3.604c0-1.305.331-2.513.971-3.628a7.236 7.236 0 0 1 2.608-2.608z"/>
        <path d="M12 7h1v5h-1V7zm-4 5h5v1H8v-1z"/>
    </g>
</svg>
