<svg xmlns="http://www.w3.org/2000/svg" width="16" height="16" viewBox="0 0 16 16">
    <path fill="#000" fill-rule="nonzero" d="M13.6 5.333h-1.4V4c0-2.21-1.88-4-4.2-4-2.32 0-4.2 1.79-4.2 4v1.333H2.4c-.773 0-1.4.597-1.4 1.334v8C1 15.403 1.627 16 2.4 16h11.2c.773 0 1.4-.597 1.4-1.333v-8c0-.737-.627-1.334-1.4-1.334zM8 12.667c-1.16 0-2.1-.896-2.1-2 0-1.105.94-2 2.1-2 1.16 0 2.1.895 2.1 2 0 1.104-.94 2-2.1 2zm2.18-7.334H5.904V4.315c0-1.125.957-2.036 2.138-2.036s2.138.911 2.138 2.036v1.018z"/>
</svg>
