<svg xmlns="http://www.w3.org/2000/svg" width="16" height="16" viewBox="0 0 16 16">
    <g fill="none" fill-rule="evenodd">
        <g fill="#000">
            <path d="M10.001 6.455c-.309.44-.525.963-.621 1.545H8v2h1.507c.018.065.038.13.059.194-.725.47-1.248 1.05-1.46 1.806H8v2H6v-2H4v2H1c-.555 0-1-.444-1-.99V2.377C0 1.625.581 1 1.418 1h3.516c.262 0 .523.117.697.346l1.14 1.45C6.965 3.058 7.669 4 7.935 4h5.067H12v1.1a3.39 3.39 0 0 0-1.597.88h-.402v.475zM6 10v2h2v-2H6zM13 10.938c1.378 0 2.442.516 3.192 1.548C15.86 13.496 14.796 14 13 14c-1.796 0-2.86-.505-3.192-1.514.75-1.032 1.814-1.549 3.192-1.549zm1.567-2.407c0 .846-.675 1.531-1.506 1.531s-1.506-.685-1.506-1.53c0-.846.675-1.532 1.506-1.532s1.506.686 1.506 1.531z"/>
        </g>
    </g>
</svg>
