<svg xmlns="http://www.w3.org/2000/svg" width="24" height="24" viewBox="0 0 24 24">
    <path fill="#000" fill-rule="evenodd" d="M15.892 21.165l-2.14-.927a1.092 1.092 0 0 0-1.095.133l-1.85 1.408a1.093 1.093 0 0 1-1.636-.376l-1.058-2.088a1.093 1.093 0 0 0-.925-.597l-2.316-.106a1.09 1.09 0 0 1-1.015-1.33l.527-2.287a1.086 1.086 0 0 0-.324-1.042l-1.702-1.566a1.083 1.083 0 0 1 .078-1.662L4.31 9.306c.31-.234.47-.614.422-.997l-.288-2.295a1.085 1.085 0 0 1 1.133-1.216l2.345.113c.386.019.752-.167.963-.489l1.276-1.944a1.092 1.092 0 0 1 1.653-.2l1.711 1.584c.284.262.685.356 1.055.245l2.249-.668a1.092 1.092 0 0 1 1.395.912l.28 2.295c.047.384.295.714.652.868l2.166.93c.623.268.853 1.032.48 1.596l-1.27 1.924c-.215.325-.239.74-.061 1.089l1.069 2.094a1.083 1.083 0 0 1-.661 1.532l-2.222.654a1.085 1.085 0 0 0-.753.8l-.518 2.278a1.089 1.089 0 0 1-1.495.754"/>
</svg>
