<svg xmlns="http://www.w3.org/2000/svg" width="24" height="24" viewBox="0 0 24 24">
    <path fill="#000" fill-rule="evenodd" d="M7.29 20.998l2.71.003C16.075 21 21 16.076 21 10c0-.23-.007-.457-.02-.682A8.962 8.962 0 0 1 23 15c0 1.609-.376 3.148-1.163 4.427-1.02 1.658 1.124 2.446 1.124 3.429 0 .878-.568 1.137-1.94 1.137-1.672 0-5.225.007-7.021.007a8.977 8.977 0 0 1-6.71-3.002zM10 1a9 9 0 0 1 9 9 9 9 0 0 1-9 9c-1.796 0-5.35-.006-7.022-.006-1.372 0-1.94-.26-1.94-1.137 0-.984 2.144-1.772 1.124-3.43C1.375 13.149 1 11.61 1 10a9 9 0 0 1 9-9zm0 11.5c0-.834-.672-1.5-1.5-1.5h-1c-.821 0-1.5.672-1.5 1.5 0 .834.672 1.5 1.5 1.5h1c.821 0 1.5-.672 1.5-1.5zM7.5 7a1.5 1.5 0 0 0 0 3h4a1.5 1.5 0 0 0 0-3h-4z"/>
</svg>
