<?xml version="1.0" encoding="UTF-8"?>
<svg width="16px" height="16px" viewBox="0 0 16 16" version="1.1" xmlns="http://www.w3.org/2000/svg" xmlns:xlink="http://www.w3.org/1999/xlink">
    <!-- Generator: sketchtool 40.3 (33839) - http://www.bohemiancoding.com/sketch -->
    <title>5D9EC3EA-A3DE-4818-982C-512A27D655C1</title>
    <desc>Created with sketchtool.</desc>
    <defs></defs>
    <g id="Icons" stroke="none" stroke-width="1" fill="none" fill-rule="evenodd">
        <g id="Style-guide---Desktop---Icons-2" transform="translate(-371.000000, -1145.000000)" fill="#000000">
            <g id="kb-iconfont-folder-visible-16" transform="translate(371.000000, 1145.000000)">
                <g id="kb-iconfont-folder-visible" transform="translate(0.000000, 3.000000)">
                    <path d="M6.77627244,10.8799046 C6.66137149,10.8569306 6.54654563,10.8306271 6.43180705,10.8009655 C4.75313741,10.367051 3.23238303,9.28926985 1.90250292,8.00075803 C1.28508145,7.4026177 0.677899663,6.74804902 0.167514975,6.0123403 C-0.0558383249,5.69050421 -0.0558383249,5.30932109 0.167514975,4.98748501 C0.335189944,4.74562149 0.518704439,4.51835151 0.703178905,4.29575147 C1.699949,3.09266047 2.84391468,2.01954923 4.0965171,1.24122738 C4.8968131,0.743879723 5.75182745,0.342654811 6.63900083,0.149630993 C7.61433157,-0.0624617096 8.59062228,-0.0517597842 9.56083318,0.19885985 C11.2395028,0.632774279 12.7602572,1.71075004 14.0899773,2.99926185 C14.7073988,3.59720761 15.3145806,4.25197086 15.8249653,4.98767959 C15.9142426,5.09625549 15.9724808,5.23732632 15.9921602,5.38773702 C15.9921602,5.38851534 15.9923202,5.38948824 15.9924802,5.39026656 C15.9934402,5.3968823 15.9940802,5.40369261 15.9947202,5.41050293 C15.9953601,5.41614576 15.9961601,5.42198318 15.9966401,5.42782059 C15.9969601,5.4317122 15.9971201,5.43579839 15.9974401,5.43988458 C15.9979201,5.44786238 15.99856,5.4556456 15.99888,5.46381798 C15.99936,5.47588197 16,5.48775137 16,5.50000994 C16,5.51226851 15.99968,5.5243325 15.9992,5.53639649 C15.99888,5.54456887 15.9982401,5.55235209 15.9977601,5.56013531 C15.9974401,5.5642215 15.9972801,5.5681131 15.9969601,5.57219929 C15.9964801,5.57803671 15.9956801,5.58387412 15.9950401,5.58951696 C15.9944002,5.59632727 15.9937602,5.60294301 15.9928002,5.60975332 C15.9926402,5.61053164 15.9924802,5.61150455 15.9924802,5.61228287 C15.9871445,5.65311661 15.9789743,5.69323515 15.9681194,5.7321925 C15.2141088,5.66108113 14.4327921,5.87366726 13.7978912,6.38815112 L11.6809882,8.1675905 C11.419089,7.94671499 11.1304187,7.77838873 10.8278028,7.66152186 C11.2389912,7.05095879 11.4806376,6.30517849 11.4806376,5.50001053 C11.4806376,3.43220397 9.88686187,1.75608787 7.92063769,1.75608787 C5.95441352,1.75608787 4.36063775,3.43239855 4.36063775,5.50001053 C4.36063775,7.25425449 5.50770104,8.7265932 7.05611356,9.13278628 C6.78449944,9.68199675 6.69358879,10.2922569 6.77627244,10.8799046 Z M8,4.25 C8.69045376,4.25 9.25,4.8097425 9.25,5.5 C9.25,6.19045376 8.69045376,6.75 8,6.75 C7.30954624,6.75 6.75,6.19045376 6.75,5.5 C6.75,4.8097425 7.30954624,4.25 8,4.25 Z M10.8691222,12.7357578 C11.2652735,13.1209974 11.9027816,13.1256044 12.2978734,12.7413434 L15.6966442,9.43574438 C16.0895704,9.05358959 16.089259,8.43122773 15.6890608,8.03890799 L15.9603107,8.30481795 C15.5631963,7.9155213 14.9169275,7.89820155 14.5016572,8.28008527 L11.5864176,10.9609477 L10.5128257,10.0305526 C10.0964941,9.66975183 9.44003949,9.6898292 9.03970304,10.0821489 L9.31104664,9.81623897 C8.91379505,10.2055356 8.91223993,10.8327764 9.30905435,11.2186609 L10.8691222,12.7357578 Z" id="Combined-Shape"></path>
                </g>
            </g>
        </g>
    </g>
</svg>