<svg xmlns="http://www.w3.org/2000/svg" width="16" height="16" viewBox="0 0 16 16">
    <path fill="#000" fill-rule="nonzero" d="M7.307 5.427a1.312 1.312 0 1 1 1.45-.043l1.501 2.948a1.02 1.02 0 0 0 1.512.361l1.87-1.368a1.25 1.25 0 0 1 2.158-1.257c.053.075.092.146.118.203A1.107 1.107 0 0 1 16 6.75a1.25 1.25 0 0 1-1.095 1.24l-1.266 5.51c-2.137 1.445-9.183 1.5-11.192 0L.952 7.964A1.25 1.25 0 0 1 0 6.71c0-.264.09-.507.243-.7a1.25 1.25 0 0 1 2.14 1.269l1.933 1.415a1.02 1.02 0 0 0 1.512-.36l1.479-2.906zM8 9.5l-1.414 1.414L8 12.328l1.414-1.414L8 9.5z"/>
</svg>
