<svg xmlns="http://www.w3.org/2000/svg" width="16" height="16" viewBox="0 0 16 16">
    <g fill="none" fill-rule="evenodd">
        <path d="M0 0h16v16H0z"/>
        <g fill="#000" transform="translate(2)">
            <path d="M10.2 11H3V1h7.2a.8.8 0 0 1 .8.8v8.4a.8.8 0 0 1-.8.8zm.8 2H6a.5.5 0 0 0-.5-.5h-2a.5.5 0 0 0-.5.5H1c-.017 0-.017-.333 0-1h10v1zM0 2v9.994a2 2 0 0 0 2.006 2L3 13.991v1.63a.2.2 0 0 0 .313.165l1.187-.812 1.187.812A.2.2 0 0 0 6 15.621v-1.63l3.997.006a2 2 0 0 0 2.003-2V2a2 2 0 0 0-2-2H2a2 2 0 0 0-2 2z"/>
            <circle cx="4.5" cy="2.5" r="1"/>
            <circle cx="4.5" cy="4.5" r="1"/>
            <circle cx="4.5" cy="9.5" r="1"/>
            <circle cx="4.5" cy="7.5" r="1"/>
        </g>
    </g>
</svg>
