<?xml version="1.0" encoding="UTF-8" standalone="no"?>
<svg width="16px" height="16px" viewBox="0 0 16 16" version="1.1" xmlns="http://www.w3.org/2000/svg" xmlns:xlink="http://www.w3.org/1999/xlink">
    <!-- Generator: sketchtool 3.8.2 (29753) - http://www.bohemiancoding.com/sketch -->
    <title>E0EBCEBF-71B0-4EE5-8516-F4B93655456C</title>
    <desc>Created with sketchtool.</desc>
    <defs>
        <rect id="path-1" x="0" y="0" width="16" height="16"></rect>
        <mask id="mask-2" maskContentUnits="userSpaceOnUse" maskUnits="objectBoundingBox" x="0" y="0" width="16" height="16" fill="white">
            <use xlink:href="#path-1"></use>
        </mask>
    </defs>
    <g id="Icons" stroke="none" stroke-width="1" fill="none" fill-rule="evenodd">
        <g id="Style-guide---Desktop---Icons-2" transform="translate(-340.000000, -1473.000000)">
            <g id="kb-iconfont-identity-coinbase" transform="translate(340.000000, 1473.000000)">
                <use id="icon-area" stroke="#979797" mask="url(#mask-2)" stroke-width="2" fill="#D8D8D8" opacity="0" xlink:href="#path-1"></use>
                <path d="M1,3.50291944 C1,2.1205952 2.12201312,1 3.50291944,1 L12.4970806,1 C13.8794048,1 15,2.12201312 15,3.50291944 L15,12.4970806 C15,13.8794048 13.8779869,15 12.4970806,15 L3.50291944,15 C2.1205952,15 1,13.8779869 1,12.4970806 L1,3.50291944 Z M8.45839549,12.4907313 C6.53854741,12.4907313 4.66632303,11.1123593 4.66632303,7.98746416 C4.66632303,4.86227636 6.53854741,3.5 8.45839549,3.5 C9.40239627,3.5 10.1383721,3.74026399 10.666323,4.09290481 L10.0904563,5.35889998 C9.73839159,5.10254035 9.21044068,4.94216926 8.68248976,4.94216926 C7.53046405,4.94216926 6.47427005,5.85581626 6.47427005,7.97136852 C6.47427005,10.0866281 7.56231056,11.0163708 8.68248976,11.0163708 C9.21044068,11.0163708 9.73839159,10.8559997 10.0904563,10.5996401 L10.666323,11.8975339 C10.1225949,12.2662703 9.40239627,12.4907313 8.45839549,12.4907313 Z" id="Combined-Shape" fill="#000000"></path>
            </g>
        </g>
    </g>
</svg>