<svg xmlns="http://www.w3.org/2000/svg" width="17" height="16" viewBox="0 0 17 16">
    <path fill="#000" fill-rule="evenodd" d="M8.295 15.496a8.5 8.5 0 0 0 8.202-8.269 6.24 6.24 0 0 1 .524 2.512c0 1.12-.26 2.19-.808 3.08-.71 1.153.782 1.701.782 2.385 0 .61-.396.791-1.35.791-1.163 0-3.635.005-4.884.005a6.24 6.24 0 0 1-2.466-.504zM8 0a7 7 0 1 1 0 14c-1.397 0-4.161-.006-5.462-.006-1.066 0-1.509-.201-1.509-.884 0-.765 1.668-1.377.875-2.667C1.292 9.448 1 8.251 1 7a7 7 0 0 1 7-7zm.283 9.043C8.283 8.463 7.815 8 7.239 8h-.695C5.972 8 5.5 8.467 5.5 9.043c0 .58.467 1.044 1.044 1.044h.695c.572 0 1.044-.467 1.044-1.044zM9.716 7c.36 0 .654-.448.654-1s-.293-1-.654-1H6.154c-.361 0-.654.448-.654 1s.293 1 .654 1h3.562z"/>
</svg>
