<svg xmlns="http://www.w3.org/2000/svg" width="16" height="16" viewBox="0 0 16 16">
    <path fill="#000" fill-rule="evenodd" d="M1 3.006C1 1.898 1.897 1 3.006 1h9.988C14.102 1 15 1.897 15 3.006v9.988A2.005 2.005 0 0 1 12.994 15H3.006A2.005 2.005 0 0 1 1 12.994V3.006zm5.102 1.562l.523.855c.101.192.253.457.422.767.185.31.354.59.506.855.135.28.287.545.405.796h.033c.169-.31.354-.664.557-1.047.219-.383.404-.708.573-.973.152-.265.372-.619.641-1.061.253-.428.456-.767.59-.745h1.417L9.027 8.622V12h-2.03V8.622L4.23 4.015h1.416c.084-.08.236.17.455.553z"/>
</svg>
