<svg xmlns="http://www.w3.org/2000/svg" width="16" height="16" viewBox="0 0 16 16">
    <path fill="#000" fill-rule="evenodd" d="M11 10.695v-8.39c0-.168-.162-.305-.36-.305H5.36c-.198 0-.36.137-.36.305v8.39c0 .168.162.305.36.305h5.28c.198 0 .36-.137.36-.305zM12 2.5v11a1.5 1.5 0 0 1-1.5 1.5H5.507a1.5 1.5 0 0 1-1.5-1.507l.053-11A1.5 1.5 0 0 1 5.56 1h4.94A1.5 1.5 0 0 1 12 2.5zM8 14a1 1 0 1 1 0-2 1 1 0 0 1 0 2zM7 6h2a1 1 0 1 1 0 2H7a1 1 0 1 1 0-2zM2 4h1v3H2V4zM0 4h1v3H0V4zm15 0h1v3h-1V4zm-2 0h1v3h-1V4z"/>
</svg>
