<svg xmlns="http://www.w3.org/2000/svg" width="16" height="16" viewBox="0 0 16 16">
    <g fill="none" fill-rule="evenodd">
        <path fill="#000" d="M10.5 10.712V2.788a.295.295 0 0 0-.3-.288H5.8c-.165 0-.3.13-.3.288v7.924c0 .159.135.288.3.288h4.4c.165 0 .3-.13.3-.288zM12 2.5v11a1.5 1.5 0 0 1-1.5 1.5H5.507a1.5 1.5 0 0 1-1.5-1.507l.053-11A1.5 1.5 0 0 1 5.56 1h4.94A1.5 1.5 0 0 1 12 2.5zM8 14a1 1 0 1 1 0-2 1 1 0 0 1 0 2zM7 6h2a1 1 0 1 1 0 2H7a1 1 0 1 1 0-2zM2 4h1v3H2V4zM0 4h1v3H0V4zm15 0h1v3h-1V4zm-2 0h1v3h-1V4z"/>
    </g>
</svg>
