<?xml version="1.0" encoding="UTF-8"?>
<svg width="16px" height="16px" viewBox="0 0 16 16" version="1.1" xmlns="http://www.w3.org/2000/svg" xmlns:xlink="http://www.w3.org/1999/xlink">
    <!-- Generator: sketchtool 41.2 (35397) - http://www.bohemiancoding.com/sketch -->
    <title>23EA61F8-970F-468F-B81A-7DDCAA734BED</title>
    <desc>Created with sketchtool.</desc>
    <defs></defs>
    <g id="Icons" stroke="none" stroke-width="1" fill="none" fill-rule="evenodd">
        <g id="Style-guide---Desktop---Icons-2" transform="translate(-401.000000, -1486.000000)">
            <g id="kb-iconfont-exclamation-16" transform="translate(401.000000, 1486.000000)">
                <rect id="icon-area" x="0" y="0" width="16" height="16"></rect>
                <path d="M7.83183283,12.0725682 C7.42626873,11.9996855 7.10212607,11.7174666 6.9642504,11.3172372 C6.92290716,11.1971976 6.91642904,11.1514027 6.91642904,10.9786329 C6.91642904,10.8058631 6.92290716,10.7600682 6.9642504,10.6400286 C7.085472,10.2881375 7.32671967,10.0469464 7.67869325,9.92575321 C7.79876102,9.88441966 7.84456666,9.87794305 8.01737695,9.87794305 C8.19018724,9.87794305 8.23599288,9.88441966 8.35606065,9.92575321 C8.70803423,10.0469464 8.9492819,10.2881375 9.0704896,10.6400286 C9.11184674,10.7600682 9.11831096,10.8058631 9.11831096,10.9786329 C9.11831096,11.1514027 9.11184674,11.1971976 9.0704896,11.3172372 C8.94975455,11.6677246 8.7050315,11.9131825 8.36130153,12.0285384 C8.21020548,12.0792533 7.97693731,12.0986414 7.83181893,12.0725682 L7.83183283,12.0725682 Z M8.59117937,8.09377394 C8.54120248,8.59384695 8.09394993,8.99923622 7.59297337,8.99923622 L8.40840306,8.99923622 C7.90708599,8.99923622 7.45973912,8.59006523 7.41007118,8.09377394 L7.09091426,4.9046985 C7.04086786,4.40462549 7.40504466,3.99923622 7.90670868,3.99923622 L8.09397267,3.99923622 C8.59456989,3.99923622 8.9594919,4.40840721 8.90989296,4.9046985 L8.59117937,8.09377394 Z M8.72625918,14.0536983 C10.5291941,13.8189004 12.0805665,12.8618078 13.0647274,11.3771495 C13.6046362,10.5626812 13.927486,9.67444081 14.0497919,8.66698074 C14.0804866,8.41418453 14.0804866,7.61681119 14.0497919,7.36401498 C13.8486502,5.70730966 13.0626561,4.28078801 11.788175,3.25937404 C10.9089709,2.55474406 9.82966767,2.11006791 8.65163561,1.96710998 C8.39878014,1.93642253 7.60121986,1.93642253 7.34836439,1.96710998 C6.17033233,2.11006791 5.09102915,2.55474406 4.21182501,3.25937404 C2.93733003,4.28078801 2.15133585,5.70730966 1.95020809,7.36401498 C1.91951345,7.61681119 1.91951345,8.41418453 1.95020809,8.66698074 C2.15132195,10.3234776 2.9379417,11.7511528 4.21182501,12.7716773 C5.09183544,13.4766825 6.24423302,13.9499892 7.34836439,14.0599386 C7.45350189,14.070404 7.56688301,14.0820786 7.60033016,14.0858589 C7.7442113,14.1021756 8.52540944,14.0798549 8.72625918,14.0536983 L8.72625918,14.0536983 Z M6.85312133,15.91917 C5.17421608,15.6728921 3.64523915,14.9204658 2.42466832,13.7398607 C1.16121117,12.517797 0.333984969,10.8985198 0.0771675572,9.14473485 C0.0179886181,8.74055834 0,8.47341909 0,7.99812498 C0,7.52283087 0.0179747165,7.25569162 0.0771675572,6.85151512 C0.322752509,5.17446269 1.07606412,3.64437089 2.2569182,2.42410003 C3.47928233,1.16093901 5.09892524,0.33390669 6.85312133,0.0771494709 C7.25740649,0.017984402 7.52459447,0 8,0 C8.47540553,0 8.74259351,0.0179705037 9.14687867,0.0771494709 C10.9010748,0.33390669 12.5207177,1.16093901 13.7430818,2.42410003 C14.1126826,2.80603925 14.3770068,3.13402526 14.6633511,3.56604006 C15.414091,4.69872383 15.8480142,5.93454689 15.9785916,7.31189635 C15.9903662,7.43611937 16,7.74491183 16,7.99812498 C16,8.6165577 15.9573222,9.04290199 15.8361701,9.63492793 C15.6317477,10.6338683 15.2005213,11.6458871 14.6105113,12.5113204 C13.9384821,13.4970852 13.0212155,14.3463548 11.9880099,14.9394231 C11.0020001,15.5054037 9.85375907,15.8671903 8.71245493,15.9714832 C8.49749511,15.9911215 7.8146088,16.0072157 7.64377254,15.996653 C7.35892958,15.9790578 7.06482819,15.9502327 6.85312133,15.91917 Z" id="Fill-1" fill="#000000"></path>
            </g>
        </g>
    </g>
</svg>