<svg xmlns="http://www.w3.org/2000/svg" width="16" height="16" viewBox="0 0 16 16">
    <path fill="#000" fill-rule="nonzero" d="M8.002 0a7.998 7.998 0 0 1 0 15.995c-.614 0-1.415-.145-2.403-.434a.88.88 0 0 1-.55-1.217l.052-.113a1 1 0 0 1 1.18-.539c.71.203 1.284.304 1.721.304a5.998 5.998 0 0 0 0-11.997c-.442 0-1.022.104-1.742.311a1 1 0 0 1-1.181-.535l-.053-.113A.88.88 0 0 1 5.572.444C6.572.148 7.382 0 8.002 0zm-3.79 12.167c-.14.14-.31.21-.499.21-.2 0-.37-.07-.509-.21l-.418-.429a.655.655 0 0 1-.21-.498c0-.2.07-.369.21-.498L4.42 9.107H.648a.594.594 0 0 1-.469-.21A.747.747 0 0 1 0 8.4v-.717c0-.19.06-.36.18-.499.12-.14.279-.21.468-.21h3.773L2.786 5.34a.686.686 0 0 1-.21-.498c0-.2.07-.37.21-.509l.418-.408c.14-.14.31-.22.509-.22.19 0 .359.08.498.22l3.63 3.608c.13.15.199.319.199.508a.7.7 0 0 1-.2.499l-3.629 3.628z"/>
</svg>
