<svg xmlns="http://www.w3.org/2000/svg" width="16" height="16" viewBox="0 0 16 16">
    <path fill="#000" fill-rule="evenodd" d="M8.661 11.475a.286.286 0 0 1-.399.068l-3.455-2.42a.286.286 0 0 1-.072-.397l4.487-6.409a.286.286 0 0 1 .399-.068l3.455 2.42c.13.09.162.27.072.397l-4.487 6.41zm6.22-7.858L9.996.197a1.078 1.078 0 0 0-1.502.257l-7.303 10.43a1.078 1.078 0 0 0 .273 1.499l4.883 3.42c.49.342 1.163.228 1.503-.257l7.303-10.43a1.078 1.078 0 0 0-.274-1.499zm-9.964 9.435a1.037 1.037 0 0 1-.263-1.443 1.037 1.037 0 0 1 1.446-.247c.472.33.59.977.263 1.443a1.037 1.037 0 0 1-1.446.247z"/>
</svg>
