<svg xmlns="http://www.w3.org/2000/svg" width="16" height="16" viewBox="0 0 16 16">
    <g fill="none" fill-rule="evenodd">
        <path d="M0 0h16v16H0z"/>
        <path fill="#000" fill-rule="nonzero" d="M5.727 0C6.43 0 7 .57 7 1.273v4.454C7 6.43 6.43 7 5.727 7H1.273C.57 7 0 6.43 0 5.727V1.273C0 .57.57 0 1.273 0h4.454zM4.5 2h-2a.5.5 0 0 0-.5.5v2a.5.5 0 0 0 .5.5h2a.5.5 0 0 0 .5-.5v-2a.5.5 0 0 0-.5-.5zM3 3h1v1H3V3zm2.727 6C6.43 9 7 9.57 7 10.273v4.454C7 15.43 6.43 16 5.727 16H1.273C.57 16 0 15.43 0 14.727v-4.454C0 9.57.57 9 1.273 9h4.454zM4.5 11h-2a.5.5 0 0 0-.5.5v2a.5.5 0 0 0 .5.5h2a.5.5 0 0 0 .5-.5v-2a.5.5 0 0 0-.5-.5zM3 12h1v1H3v-1zM14.727 0C15.43 0 16 .57 16 1.273v4.454C16 6.43 15.43 7 14.727 7h-4.454C9.57 7 9 6.43 9 5.727V1.273C9 .57 9.57 0 10.273 0h4.454zM13.5 2h-2a.5.5 0 0 0-.5.5v2a.5.5 0 0 0 .5.5h2a.5.5 0 0 0 .5-.5v-2a.5.5 0 0 0-.5-.5zM12 3h1v1h-1V3zM9 15h2v-2H9v2zm2-2h2v-2h-2v2zm-2-2h2V9H9v2zm4 0h2V9h-2v2zm0 4h2v-2h-2v2z"/>
    </g>
</svg>
