<svg xmlns="http://www.w3.org/2000/svg" width="16" height="16" viewBox="0 0 16 16">
    <g fill="none" fill-rule="evenodd">
        <path d="M0 0h16v16H0z"/>
        <path fill="#000" d="M2.22 14.83a3.935 3.935 0 0 1-1.205-2.829c0-1.105.46-2.105 1.206-2.83l5.265-5.265a2.502 2.502 0 0 1 1.706-.663c1.365 0 2.472 1.075 2.472 2.4 0 .644-.261 1.229-.686 1.66l-5.264 5.264a.834.834 0 0 1-.614.265.813.813 0 0 1-.824-.8c0-.237.107-.45.275-.597L9.817 6.17c.13-.14.21-.329.21-.534 0-.442-.369-.8-.823-.8a.835.835 0 0 0-.55.203l-5.272 5.264a2.361 2.361 0 0 0-.722 1.697c0 1.327 1.107 2.403 2.473 2.403.684 0 1.303-.27 1.751-.705l5.265-5.265a3.93 3.93 0 0 0 1.17-2.794c0-2.21-1.845-4.001-4.12-4.001a4.17 4.17 0 0 0-2.876 1.137L1.438 7.538a.834.834 0 0 1-.614.266.813.813 0 0 1-.824-.8c0-.238.106-.451.275-.598l4.879-4.765A5.836 5.836 0 0 1 9.232 0C12.418 0 15 2.508 15 5.602a5.508 5.508 0 0 1-1.69 3.961L8.047 14.83A4.169 4.169 0 0 1 5.134 16a4.174 4.174 0 0 1-2.913-1.172l-.001.003z"/>
    </g>
</svg>
