<svg xmlns="http://www.w3.org/2000/svg" width="16" height="16" viewBox="0 0 16 16">
    <g fill="#000" fill-rule="evenodd">
        <path d="M4.436 6.524a8.058 8.058 0 0 0-.631-.024c-1.231 0-2.208.253-2.932.759a1.333 1.333 0 0 0 .043 2.214c.495.318 1.119.524 1.872.618a6.58 6.58 0 0 1 2.74-1.72 3.664 3.664 0 0 1-1.092-1.847zm-.089-1.167a1.75 1.75 0 1 1 .96-2.179 3.652 3.652 0 0 0-.96 2.179zM11.562 6.534c.236-.023.484-.034.743-.034 1.231 0 2.208.253 2.932.759a1.333 1.333 0 0 1-.043 2.214c-.516.332-1.173.542-1.97.63a6.581 6.581 0 0 0-2.751-1.732 3.664 3.664 0 0 0 1.089-1.837zm.096-1.105a1.75 1.75 0 1 0-1.103-2.39 3.654 3.654 0 0 1 1.103 2.39zM7.906 9.333c1.73 0 3.14.517 4.231 1.55a1.333 1.333 0 0 1 .002 1.935C11.31 13.606 9.9 14 7.906 14c-1.993 0-3.404-.394-4.234-1.182a1.333 1.333 0 0 1 .002-1.936C4.766 9.85 6.176 9.333 7.906 9.333zm2.427-3.666a2.334 2.334 0 1 1-4.668-.002 2.334 2.334 0 0 1 4.668.002z"/>
    </g>
</svg>
