<svg xmlns="http://www.w3.org/2000/svg" width="16" height="16" viewBox="0 0 16 16">
    <g fill="none" fill-rule="evenodd">
        <path d="M0 0h16v16H0z"/>
        <path fill="#000" d="M4.371 7.909a.32.32 0 0 1-.167.04.402.402 0 0 1-.188-.045 4.54 4.54 0 0 1-.188-.104 1.318 1.318 0 0 0-.234-.104.978.978 0 0 0-.317-.046c-.229 0-.4.045-.516.134a.565.565 0 0 0-.215.348.304.304 0 0 0 .036.234.596.596 0 0 0 .183.173c.08.05.172.097.278.14.106.041.214.089.323.141.11.053.214.113.316.18.1.068.187.151.257.25.07.098.12.214.148.35.028.135.024.296-.013.482a2.171 2.171 0 0 1-.301.75c-.15.234-.337.44-.564.613a2.782 2.782 0 0 1-.78.417 2.858 2.858 0 0 1-.954.155 2.236 2.236 0 0 1-.896-.188 1.596 1.596 0 0 1-.346-.206.97.97 0 0 1-.233-.256l.492-.58a.75.75 0 0 1 .193-.159.476.476 0 0 1 .238-.058c.083 0 .15.02.202.06l.168.133c.06.047.135.09.223.132.088.04.21.06.366.06.22 0 .392-.05.517-.15a.593.593 0 0 0 .229-.352.353.353 0 0 0-.031-.26.537.537 0 0 0-.183-.174 1.576 1.576 0 0 0-.277-.132 6.721 6.721 0 0 1-.323-.13 2.362 2.362 0 0 1-.316-.165.852.852 0 0 1-.405-.586 1.317 1.317 0 0 1 .016-.503 2.33 2.33 0 0 1 .785-1.323 2.531 2.531 0 0 1 1.671-.591c.345 0 .641.06.887.182.247.122.44.271.582.447l-.508.559a.798.798 0 0 1-.155.132zm4.03-2.465c.286-.125.569-.188.847-.188.216 0 .404.044.564.132.16.088.284.217.37.386.086.17.13.378.13.627.002.25-.05.534-.152.856l-.748 2.396c-.164.525-.751.95-1.3.95h.464c-.555 0-.871-.424-.707-.95l.748-2.396a2.18 2.18 0 0 0 .086-.36.597.597 0 0 0-.008-.24.202.202 0 0 0-.1-.129.399.399 0 0 0-.186-.038.774.774 0 0 0-.342.094 1.714 1.714 0 0 0-.378.267 2.975 2.975 0 0 0-.376.419 3.461 3.461 0 0 0-.333.545l-.578 1.829c-.167.53-.757.96-1.306.96h.464c-.554 0-.868-.431-.7-.964l1.79-5.676c.168-.531.758-.962 1.307-.962h-.464c.554 0 .871.42.702.957l-.65 2.07c.283-.265.569-.46.855-.585zm5.687-1.002c.286-.125.569-.188.848-.188.215 0 .403.044.564.133.16.088.283.216.37.385.085.17.129.379.13.628 0 .248-.05.534-.153.855L15.1 8.651c-.164.525-.751.95-1.3.95h.464c-.554 0-.871-.424-.707-.95l.748-2.396a2.18 2.18 0 0 0 .086-.36.597.597 0 0 0-.008-.24.202.202 0 0 0-.099-.129.399.399 0 0 0-.187-.038.774.774 0 0 0-.342.094 1.714 1.714 0 0 0-.378.267 2.975 2.975 0 0 0-.376.419 3.461 3.461 0 0 0-.333.546l-.578 1.828c-.167.53-.757.96-1.306.96h.464c-.554 0-.868-.431-.7-.963l1.79-5.676c.168-.532.758-.963 1.307-.963h-.464c.554 0 .871.42.702.958l-.65 2.068c.284-.264.569-.458.856-.584zm.1 7.979a.996.996 0 0 0 .886-1.1l.02.169a.997.997 0 0 0-1.107-.88l-8.014.891a.996.996 0 0 0-.886 1.1l-.02-.169c.062.547.554.94 1.107.88l8.014-.891z"/>
    </g>
</svg>
