<svg xmlns="http://www.w3.org/2000/svg" width="16" height="16" viewBox="0 0 16 16">
    <path fill="#000" fill-rule="nonzero" d="M10.545 1.455s-.793.717-1.774 1.8A31.66 31.66 0 0 0 5.818 0S0 5.412 0 9.337C0 13.26 2.392 16 5.818 16h4.727C13.757 16 16 13.51 16 9.943c0-3.568-5.455-8.488-5.455-8.488zm-.363 12.363H6.545a2.808 2.808 0 0 1-2.909-2.961c0-1.744 2.478-4.553 2.584-4.672l.325-.367.326.367c.808.92 1.508 1.93 2.089 3.008.3-.456.627-.894.977-1.312l.245-.285.244.285c.08.093 1.938 2.277 1.938 3.634a2.148 2.148 0 0 1-2.182 2.303z"/>
</svg>
