<svg xmlns="http://www.w3.org/2000/svg" width="24" height="24" viewBox="0 0 24 24">
    <path fill="#000" fill-rule="evenodd" d="M13.07 3.42l-1.224-1.132a1.095 1.095 0 0 0-1.655.205L8.908 4.439c-.212.322-.58.509-.965.491l-2.347-.106a1.092 1.092 0 0 0-1.137 1.22l.28 2.29c.047.384-.115.764-.425.999l-1.881 1.423a1.082 1.082 0 0 0-.084 1.661l1.7 1.56c.286.263.409.66.32 1.04l-.534 2.287c-.155.66.33 1.297 1.01 1.326l2.319.098c.394.017.747.244.924.594l1.052 2.083a1.091 1.091 0 0 0 1.636.37l1.856-1.413c.315-.24.734-.291 1.097-.135l2.138.92a1.096 1.096 0 0 0 1.5-.758l.525-2.279c.088-.383.377-.689.755-.801l2.226-.66c.654-.194.974-.93.667-1.533l-1.063-2.09a1.08 1.08 0 0 1 .064-1.087l1.277-1.927a1.08 1.08 0 0 0-.476-1.592l-2.165-.924a1.08 1.08 0 0 1-.65-.865l-.273-2.292a1.085 1.085 0 0 0-1.301-.93l-4.316 5.823 3.752-.416c.05.003.085-.007.118-.005a.5.5 0 0 1 .304.126c.108.09.113.186.034.288l-5.894 7.3c-.078.101-.219.152-.402.14-.016 0-.064-.016-.131-.02a.407.407 0 0 1-.218-.144.218.218 0 0 1-.028-.204l2.437-5.202-3.838.435-.116-.008a.514.514 0 0 1-.275-.088c-.11-.067-.132-.163-.088-.255l4.779-7.76z"/>
</svg>
