<svg xmlns="http://www.w3.org/2000/svg" width="24" height="24" viewBox="0 0 24 24">
    <g fill="none" fill-rule="evenodd">
        <path d="M0 0h24v24H0z"/>
        <path fill="#000" d="M4.5 9H0V7h12v2H4.5zM16 4h4v2h-4V4zM0 9h2v3H0V9zm4 3v2H0v-2h4zm10-7.005c0-.55.444-.995 1-.995h1v10h-2V4.995zM10 11h2v3h-2v-3zm-4 0h2v8H6v-8zm15-3c1.615 0 2.923 1.308 3 3 0 1.692-1.385 3-3 3-1.692 0-3-1.385-3-3 0-1.692 1.385-3 3-3zm0 4.543c.872 0 1.543-.738 1.543-1.543 0-.805-.671-1.543-1.543-1.543-.805 0-1.543.671-1.543 1.543 0 .805.671 1.543 1.543 1.543z"/>
    </g>
</svg>
