<svg xmlns="http://www.w3.org/2000/svg" xmlns:xlink="http://www.w3.org/1999/xlink" width="16" height="16" viewBox="0 0 16 16">
    <defs>
        <path id="a" d="M1 0h16v16H1z"/>
    </defs>
    <g fill="none" fill-rule="evenodd" transform="translate(-1)">
        <mask id="b" fill="#fff">
            <use xlink:href="#a"/>
        </mask>
        <g fill="#000" mask="url(#b)">
            <path fill-rule="nonzero" d="M9.469 2.613L10.37 3.9A6.047 6.047 0 1 1 5.416 7.37L4.515 6.08l4.954-3.468zm2.634 5.13a1.134 1.134 0 1 0-.491-2.214 1.134 1.134 0 0 0 .49 2.214z"/>
            <path d="M6 6.16V3.7a1 1 0 1 0-2 0V5a1 1 0 1 1-2 0V3.7a3 3 0 1 1 6 0v2.428L6 6.16z"/>
            <path fill-rule="nonzero" d="M2 5V4h2v1a3 3 0 0 1-3 3V6a1 1 0 0 0 1-1z"/>
        </g>
        <path fill="#000" fill-rule="nonzero" d="M1.857 10.357L2.5 8.75l.643 1.607L4.75 11l-1.607.643L2.5 13.25l-.643-1.607L.25 11z"/>
    </g>
</svg>
