<?xml version="1.0" encoding="UTF-8"?>
<svg width="16px" height="16px" viewBox="0 0 16 16" version="1.1" xmlns="http://www.w3.org/2000/svg" xmlns:xlink="http://www.w3.org/1999/xlink">
    <!-- Generator: sketchtool 40.3 (33839) - http://www.bohemiancoding.com/sketch -->
    <title>9859EE6E-E71F-4FC3-AB64-7848A698A584</title>
    <desc>Created with sketchtool.</desc>
    <defs>
        <rect id="path-1" x="0" y="0" width="11" height="16" rx="1"></rect>
        <mask id="mask-2" maskContentUnits="userSpaceOnUse" maskUnits="objectBoundingBox" x="0" y="0" width="11" height="16" fill="white">
            <use xlink:href="#path-1"></use>
        </mask>
    </defs>
    <g id="Icons" stroke="none" stroke-width="1" fill="none" fill-rule="evenodd">
        <g id="Style-guide---Desktop---Icons-2" transform="translate(-401.000000, -1516.000000)">
            <g id="kb-iconfont-usercard-16" transform="translate(401.000000, 1516.000000)">
                <path d="M13.6241463,5 C13.5146341,5 13.4214634,5.04823843 13.344878,5.14502253 L13.114878,5.44151987 C13.0382927,5.5312372 13,5.64829988 13,5.78625563 C13,5.92421139 13.0382927,6.04158132 13.114878,6.1309914 L14.0126829,7.291739 L14.0126829,8.48148148 L13.114878,9.8690086 C13.0382927,9.96548546 13,10.0828554 13,10.2137444 C13,10.3517001 13.0382927,10.4690701 13.114878,10.5655469 L13.344878,10.8482179 C13.4214634,10.9446948 13.5146341,11 13.6241463,11 C13.7280488,11 13.8212195,10.9446948 13.8978049,10.8482179 L15.8904878,8.35180254 C15.9617073,8.24825891 16,8.13119623 16,8 C16,7.86204424 15.9617073,7.75174109 15.8904878,7.65526424 L13.8978049,5.14502253 C13.8212195,5.04823843 13.7280488,5 13.6241463,5 Z" id="Fill-264" fill="#000000"></path>
                <g id="Group-3">
                    <use id="Rectangle-2" stroke="#000000" mask="url(#mask-2)" stroke-width="2" xlink:href="#path-1"></use>
                    <circle id="Oval" fill="#000000" cx="5.5" cy="4.5" r="2"></circle>
                    <path d="M3,8.5 C3,8.22385763 3.21484375,8 3.49769878,8 L7.50230122,8 C7.77717266,8 8,8.23193359 8,8.5 C8,8.77614237 7.78515625,9 7.50230122,9 L3.49769878,9 C3.22282734,9 3,8.76806641 3,8.5 Z M3,10.5 C3,10.2238576 3.21484375,10 3.49769878,10 L7.50230122,10 C7.77717266,10 8,10.2319336 8,10.5 C8,10.7761424 7.78515625,11 7.50230122,11 L3.49769878,11 C3.22282734,11 3,10.7680664 3,10.5 Z M3,12.5 C3,12.2238576 3.21484375,12 3.49769878,12 L7.50230122,12 C7.77717266,12 8,12.2319336 8,12.5 C8,12.7761424 7.78515625,13 7.50230122,13 L3.49769878,13 C3.22282734,13 3,12.7680664 3,12.5 Z" id="Combined-Shape" fill="#000000"></path>
                </g>
            </g>
        </g>
    </g>
</svg>