<?xml version="1.0" encoding="UTF-8"?>
<!DOCTYPE svg PUBLIC "-//W3C//DTD SVG 1.1//EN" "http://www.w3.org/Graphics/SVG/1.1/DTD/svg11.dtd">
<svg xmlns="http://www.w3.org/2000/svg" xmlns:xlink="http://www.w3.org/1999/xlink" width="24" height="24" viewBox="0 0 24 24">
  <title>kb-nav-people</title>
  <line id="Capline-S" x1="0" y1="2" x2="24" y2="2" stroke="none"/>
  <line id="Baseline-S" x1="0" y1="22" x2="24" y2="22" stroke="none"/>
  <line id="Capline-M" x1="0" y1="2" x2="24" y2="2" stroke="none"/>
  <line id="Baseline-M" x1="0" y1="22" x2="24" y2="22" stroke="none"/>
  <line id="Capline-L" x1="0" y1="2" x2="24" y2="2" stroke="none"/>
  <line id="Baseline-L" x1="0" y1="22" x2="24" y2="22" stroke="none"/>
  <g id="Ultralight-S">
    <path fill="black" fill-rule="evenodd" d="M12 3c-4.97 0-9 4.03-9 9s4.03 9 9 9 9-4.03 9-9-4.03-9-9-9zm4.167 12c.339 0 .644.316.772.599.127.283.052.476-.191.689-2.657 2.283-6.839 2.283-9.496 0-.243-.213-.318-.406-.19-.69.127-.282.432-.598.771-.598h8.334zM8.5 9c.828 0 1.5.672 1.5 1.5S9.328 12 8.5 12 7 11.328 7 10.5 7.672 9 8.5 9zm7 3c-.828 0-1.5-.672-1.5-1.5S14.672 9 15.5 9s1.5.672 1.5 1.5-.672 1.5-1.5 1.5z"/>
  </g>
  <g id="Thin-S">
    <path fill="black" fill-rule="evenodd" d="M12 3c-4.97 0-9 4.03-9 9s4.03 9 9 9 9-4.03 9-9-4.03-9-9-9zm4.167 12c.339 0 .644.316.772.599.127.283.052.476-.191.689-2.657 2.283-6.839 2.283-9.496 0-.243-.213-.318-.406-.19-.69.127-.282.432-.598.771-.598h8.334zM8.5 9c.828 0 1.5.672 1.5 1.5S9.328 12 8.5 12 7 11.328 7 10.5 7.672 9 8.5 9zm7 3c-.828 0-1.5-.672-1.5-1.5S14.672 9 15.5 9s1.5.672 1.5 1.5-.672 1.5-1.5 1.5z"/>
  </g>
  <g id="Light-S">
    <path fill="black" fill-rule="evenodd" d="M12 3c-4.97 0-9 4.03-9 9s4.03 9 9 9 9-4.03 9-9-4.03-9-9-9zm4.167 12c.339 0 .644.316.772.599.127.283.052.476-.191.689-2.657 2.283-6.839 2.283-9.496 0-.243-.213-.318-.406-.19-.69.127-.282.432-.598.771-.598h8.334zM8.5 9c.828 0 1.5.672 1.5 1.5S9.328 12 8.5 12 7 11.328 7 10.5 7.672 9 8.5 9zm7 3c-.828 0-1.5-.672-1.5-1.5S14.672 9 15.5 9s1.5.672 1.5 1.5-.672 1.5-1.5 1.5z"/>
  </g>
  <g id="Regular-S">
    <path fill="black" fill-rule="evenodd" d="M12 3c-4.97 0-9 4.03-9 9s4.03 9 9 9 9-4.03 9-9-4.03-9-9-9zm4.167 12c.339 0 .644.316.772.599.127.283.052.476-.191.689-2.657 2.283-6.839 2.283-9.496 0-.243-.213-.318-.406-.19-.69.127-.282.432-.598.771-.598h8.334zM8.5 9c.828 0 1.5.672 1.5 1.5S9.328 12 8.5 12 7 11.328 7 10.5 7.672 9 8.5 9zm7 3c-.828 0-1.5-.672-1.5-1.5S14.672 9 15.5 9s1.5.672 1.5 1.5-.672 1.5-1.5 1.5z"/>
  </g>
  <g id="Medium-S">
    <path fill="black" fill-rule="evenodd" d="M12 3c-4.97 0-9 4.03-9 9s4.03 9 9 9 9-4.03 9-9-4.03-9-9-9zm4.167 12c.339 0 .644.316.772.599.127.283.052.476-.191.689-2.657 2.283-6.839 2.283-9.496 0-.243-.213-.318-.406-.19-.69.127-.282.432-.598.771-.598h8.334zM8.5 9c.828 0 1.5.672 1.5 1.5S9.328 12 8.5 12 7 11.328 7 10.5 7.672 9 8.5 9zm7 3c-.828 0-1.5-.672-1.5-1.5S14.672 9 15.5 9s1.5.672 1.5 1.5-.672 1.5-1.5 1.5z"/>
  </g>
  <g id="Semibold-S">
    <path fill="black" fill-rule="evenodd" d="M12 3c-4.97 0-9 4.03-9 9s4.03 9 9 9 9-4.03 9-9-4.03-9-9-9zm4.167 12c.339 0 .644.316.772.599.127.283.052.476-.191.689-2.657 2.283-6.839 2.283-9.496 0-.243-.213-.318-.406-.19-.69.127-.282.432-.598.771-.598h8.334zM8.5 9c.828 0 1.5.672 1.5 1.5S9.328 12 8.5 12 7 11.328 7 10.5 7.672 9 8.5 9zm7 3c-.828 0-1.5-.672-1.5-1.5S14.672 9 15.5 9s1.5.672 1.5 1.5-.672 1.5-1.5 1.5z"/>
  </g>
  <g id="Bold-S">
    <path fill="black" fill-rule="evenodd" d="M12 3c-4.97 0-9 4.03-9 9s4.03 9 9 9 9-4.03 9-9-4.03-9-9-9zm4.167 12c.339 0 .644.316.772.599.127.283.052.476-.191.689-2.657 2.283-6.839 2.283-9.496 0-.243-.213-.318-.406-.19-.69.127-.282.432-.598.771-.598h8.334zM8.5 9c.828 0 1.5.672 1.5 1.5S9.328 12 8.5 12 7 11.328 7 10.5 7.672 9 8.5 9zm7 3c-.828 0-1.5-.672-1.5-1.5S14.672 9 15.5 9s1.5.672 1.5 1.5-.672 1.5-1.5 1.5z"/>
  </g>
  <g id="Heavy-S">
    <path fill="black" fill-rule="evenodd" d="M12 3c-4.97 0-9 4.03-9 9s4.03 9 9 9 9-4.03 9-9-4.03-9-9-9zm4.167 12c.339 0 .644.316.772.599.127.283.052.476-.191.689-2.657 2.283-6.839 2.283-9.496 0-.243-.213-.318-.406-.19-.69.127-.282.432-.598.771-.598h8.334zM8.5 9c.828 0 1.5.672 1.5 1.5S9.328 12 8.5 12 7 11.328 7 10.5 7.672 9 8.5 9zm7 3c-.828 0-1.5-.672-1.5-1.5S14.672 9 15.5 9s1.5.672 1.5 1.5-.672 1.5-1.5 1.5z"/>
  </g>
  <g id="Black-S">
    <path fill="black" fill-rule="evenodd" d="M12 3c-4.97 0-9 4.03-9 9s4.03 9 9 9 9-4.03 9-9-4.03-9-9-9zm4.167 12c.339 0 .644.316.772.599.127.283.052.476-.191.689-2.657 2.283-6.839 2.283-9.496 0-.243-.213-.318-.406-.19-.69.127-.282.432-.598.771-.598h8.334zM8.5 9c.828 0 1.5.672 1.5 1.5S9.328 12 8.5 12 7 11.328 7 10.5 7.672 9 8.5 9zm7 3c-.828 0-1.5-.672-1.5-1.5S14.672 9 15.5 9s1.5.672 1.5 1.5-.672 1.5-1.5 1.5z"/>
  </g>
  <g id="Ultralight-M">
    <path fill="black" fill-rule="evenodd" d="M12 3c-4.97 0-9 4.03-9 9s4.03 9 9 9 9-4.03 9-9-4.03-9-9-9zm4.167 12c.339 0 .644.316.772.599.127.283.052.476-.191.689-2.657 2.283-6.839 2.283-9.496 0-.243-.213-.318-.406-.19-.69.127-.282.432-.598.771-.598h8.334zM8.5 9c.828 0 1.5.672 1.5 1.5S9.328 12 8.5 12 7 11.328 7 10.5 7.672 9 8.5 9zm7 3c-.828 0-1.5-.672-1.5-1.5S14.672 9 15.5 9s1.5.672 1.5 1.5-.672 1.5-1.5 1.5z"/>
  </g>
  <g id="Thin-M">
    <path fill="black" fill-rule="evenodd" d="M12 3c-4.97 0-9 4.03-9 9s4.03 9 9 9 9-4.03 9-9-4.03-9-9-9zm4.167 12c.339 0 .644.316.772.599.127.283.052.476-.191.689-2.657 2.283-6.839 2.283-9.496 0-.243-.213-.318-.406-.19-.69.127-.282.432-.598.771-.598h8.334zM8.5 9c.828 0 1.5.672 1.5 1.5S9.328 12 8.5 12 7 11.328 7 10.5 7.672 9 8.5 9zm7 3c-.828 0-1.5-.672-1.5-1.5S14.672 9 15.5 9s1.5.672 1.5 1.5-.672 1.5-1.5 1.5z"/>
  </g>
  <g id="Light-M">
    <path fill="black" fill-rule="evenodd" d="M12 3c-4.97 0-9 4.03-9 9s4.03 9 9 9 9-4.03 9-9-4.03-9-9-9zm4.167 12c.339 0 .644.316.772.599.127.283.052.476-.191.689-2.657 2.283-6.839 2.283-9.496 0-.243-.213-.318-.406-.19-.69.127-.282.432-.598.771-.598h8.334zM8.5 9c.828 0 1.5.672 1.5 1.5S9.328 12 8.5 12 7 11.328 7 10.5 7.672 9 8.5 9zm7 3c-.828 0-1.5-.672-1.5-1.5S14.672 9 15.5 9s1.5.672 1.5 1.5-.672 1.5-1.5 1.5z"/>
  </g>
  <g id="Regular-M">
    <path fill="black" fill-rule="evenodd" d="M12 3c-4.97 0-9 4.03-9 9s4.03 9 9 9 9-4.03 9-9-4.03-9-9-9zm4.167 12c.339 0 .644.316.772.599.127.283.052.476-.191.689-2.657 2.283-6.839 2.283-9.496 0-.243-.213-.318-.406-.19-.69.127-.282.432-.598.771-.598h8.334zM8.5 9c.828 0 1.5.672 1.5 1.5S9.328 12 8.5 12 7 11.328 7 10.5 7.672 9 8.5 9zm7 3c-.828 0-1.5-.672-1.5-1.5S14.672 9 15.5 9s1.5.672 1.5 1.5-.672 1.5-1.5 1.5z"/>
  </g>
  <g id="Medium-M">
    <path fill="black" fill-rule="evenodd" d="M12 3c-4.97 0-9 4.03-9 9s4.03 9 9 9 9-4.03 9-9-4.03-9-9-9zm4.167 12c.339 0 .644.316.772.599.127.283.052.476-.191.689-2.657 2.283-6.839 2.283-9.496 0-.243-.213-.318-.406-.19-.69.127-.282.432-.598.771-.598h8.334zM8.5 9c.828 0 1.5.672 1.5 1.5S9.328 12 8.5 12 7 11.328 7 10.5 7.672 9 8.5 9zm7 3c-.828 0-1.5-.672-1.5-1.5S14.672 9 15.5 9s1.5.672 1.5 1.5-.672 1.5-1.5 1.5z"/>
  </g>
  <g id="Semibold-M">
    <path fill="black" fill-rule="evenodd" d="M12 3c-4.97 0-9 4.03-9 9s4.03 9 9 9 9-4.03 9-9-4.03-9-9-9zm4.167 12c.339 0 .644.316.772.599.127.283.052.476-.191.689-2.657 2.283-6.839 2.283-9.496 0-.243-.213-.318-.406-.19-.69.127-.282.432-.598.771-.598h8.334zM8.5 9c.828 0 1.5.672 1.5 1.5S9.328 12 8.5 12 7 11.328 7 10.5 7.672 9 8.5 9zm7 3c-.828 0-1.5-.672-1.5-1.5S14.672 9 15.5 9s1.5.672 1.5 1.5-.672 1.5-1.5 1.5z"/>
  </g>
  <g id="Bold-M">
    <path fill="black" fill-rule="evenodd" d="M12 3c-4.97 0-9 4.03-9 9s4.03 9 9 9 9-4.03 9-9-4.03-9-9-9zm4.167 12c.339 0 .644.316.772.599.127.283.052.476-.191.689-2.657 2.283-6.839 2.283-9.496 0-.243-.213-.318-.406-.19-.69.127-.282.432-.598.771-.598h8.334zM8.5 9c.828 0 1.5.672 1.5 1.5S9.328 12 8.5 12 7 11.328 7 10.5 7.672 9 8.5 9zm7 3c-.828 0-1.5-.672-1.5-1.5S14.672 9 15.5 9s1.5.672 1.5 1.5-.672 1.5-1.5 1.5z"/>
  </g>
  <g id="Heavy-M">
    <path fill="black" fill-rule="evenodd" d="M12 3c-4.97 0-9 4.03-9 9s4.03 9 9 9 9-4.03 9-9-4.03-9-9-9zm4.167 12c.339 0 .644.316.772.599.127.283.052.476-.191.689-2.657 2.283-6.839 2.283-9.496 0-.243-.213-.318-.406-.19-.69.127-.282.432-.598.771-.598h8.334zM8.5 9c.828 0 1.5.672 1.5 1.5S9.328 12 8.5 12 7 11.328 7 10.5 7.672 9 8.5 9zm7 3c-.828 0-1.5-.672-1.5-1.5S14.672 9 15.5 9s1.5.672 1.5 1.5-.672 1.5-1.5 1.5z"/>
  </g>
  <g id="Black-M">
    <path fill="black" fill-rule="evenodd" d="M12 3c-4.97 0-9 4.03-9 9s4.03 9 9 9 9-4.03 9-9-4.03-9-9-9zm4.167 12c.339 0 .644.316.772.599.127.283.052.476-.191.689-2.657 2.283-6.839 2.283-9.496 0-.243-.213-.318-.406-.19-.69.127-.282.432-.598.771-.598h8.334zM8.5 9c.828 0 1.5.672 1.5 1.5S9.328 12 8.5 12 7 11.328 7 10.5 7.672 9 8.5 9zm7 3c-.828 0-1.5-.672-1.5-1.5S14.672 9 15.5 9s1.5.672 1.5 1.5-.672 1.5-1.5 1.5z"/>
  </g>
  <g id="Ultralight-L">
    <path fill="black" fill-rule="evenodd" d="M12 3c-4.97 0-9 4.03-9 9s4.03 9 9 9 9-4.03 9-9-4.03-9-9-9zm4.167 12c.339 0 .644.316.772.599.127.283.052.476-.191.689-2.657 2.283-6.839 2.283-9.496 0-.243-.213-.318-.406-.19-.69.127-.282.432-.598.771-.598h8.334zM8.5 9c.828 0 1.5.672 1.5 1.5S9.328 12 8.5 12 7 11.328 7 10.5 7.672 9 8.5 9zm7 3c-.828 0-1.5-.672-1.5-1.5S14.672 9 15.5 9s1.5.672 1.5 1.5-.672 1.5-1.5 1.5z"/>
  </g>
  <g id="Thin-L">
    <path fill="black" fill-rule="evenodd" d="M12 3c-4.97 0-9 4.03-9 9s4.03 9 9 9 9-4.03 9-9-4.03-9-9-9zm4.167 12c.339 0 .644.316.772.599.127.283.052.476-.191.689-2.657 2.283-6.839 2.283-9.496 0-.243-.213-.318-.406-.19-.69.127-.282.432-.598.771-.598h8.334zM8.5 9c.828 0 1.5.672 1.5 1.5S9.328 12 8.5 12 7 11.328 7 10.5 7.672 9 8.5 9zm7 3c-.828 0-1.5-.672-1.5-1.5S14.672 9 15.5 9s1.5.672 1.5 1.5-.672 1.5-1.5 1.5z"/>
  </g>
  <g id="Light-L">
    <path fill="black" fill-rule="evenodd" d="M12 3c-4.97 0-9 4.03-9 9s4.03 9 9 9 9-4.03 9-9-4.03-9-9-9zm4.167 12c.339 0 .644.316.772.599.127.283.052.476-.191.689-2.657 2.283-6.839 2.283-9.496 0-.243-.213-.318-.406-.19-.69.127-.282.432-.598.771-.598h8.334zM8.5 9c.828 0 1.5.672 1.5 1.5S9.328 12 8.5 12 7 11.328 7 10.5 7.672 9 8.5 9zm7 3c-.828 0-1.5-.672-1.5-1.5S14.672 9 15.5 9s1.5.672 1.5 1.5-.672 1.5-1.5 1.5z"/>
  </g>
  <g id="Regular-L">
    <path fill="black" fill-rule="evenodd" d="M12 3c-4.97 0-9 4.03-9 9s4.03 9 9 9 9-4.03 9-9-4.03-9-9-9zm4.167 12c.339 0 .644.316.772.599.127.283.052.476-.191.689-2.657 2.283-6.839 2.283-9.496 0-.243-.213-.318-.406-.19-.69.127-.282.432-.598.771-.598h8.334zM8.5 9c.828 0 1.5.672 1.5 1.5S9.328 12 8.5 12 7 11.328 7 10.5 7.672 9 8.5 9zm7 3c-.828 0-1.5-.672-1.5-1.5S14.672 9 15.5 9s1.5.672 1.5 1.5-.672 1.5-1.5 1.5z"/>
  </g>
  <g id="Medium-L">
    <path fill="black" fill-rule="evenodd" d="M12 3c-4.97 0-9 4.03-9 9s4.03 9 9 9 9-4.03 9-9-4.03-9-9-9zm4.167 12c.339 0 .644.316.772.599.127.283.052.476-.191.689-2.657 2.283-6.839 2.283-9.496 0-.243-.213-.318-.406-.19-.69.127-.282.432-.598.771-.598h8.334zM8.5 9c.828 0 1.5.672 1.5 1.5S9.328 12 8.5 12 7 11.328 7 10.5 7.672 9 8.5 9zm7 3c-.828 0-1.5-.672-1.5-1.5S14.672 9 15.5 9s1.5.672 1.5 1.5-.672 1.5-1.5 1.5z"/>
  </g>
  <g id="Semibold-L">
    <path fill="black" fill-rule="evenodd" d="M12 3c-4.97 0-9 4.03-9 9s4.03 9 9 9 9-4.03 9-9-4.03-9-9-9zm4.167 12c.339 0 .644.316.772.599.127.283.052.476-.191.689-2.657 2.283-6.839 2.283-9.496 0-.243-.213-.318-.406-.19-.69.127-.282.432-.598.771-.598h8.334zM8.5 9c.828 0 1.5.672 1.5 1.5S9.328 12 8.5 12 7 11.328 7 10.5 7.672 9 8.5 9zm7 3c-.828 0-1.5-.672-1.5-1.5S14.672 9 15.5 9s1.5.672 1.5 1.5-.672 1.5-1.5 1.5z"/>
  </g>
  <g id="Bold-L">
    <path fill="black" fill-rule="evenodd" d="M12 3c-4.97 0-9 4.03-9 9s4.03 9 9 9 9-4.03 9-9-4.03-9-9-9zm4.167 12c.339 0 .644.316.772.599.127.283.052.476-.191.689-2.657 2.283-6.839 2.283-9.496 0-.243-.213-.318-.406-.19-.69.127-.282.432-.598.771-.598h8.334zM8.5 9c.828 0 1.5.672 1.5 1.5S9.328 12 8.5 12 7 11.328 7 10.5 7.672 9 8.5 9zm7 3c-.828 0-1.5-.672-1.5-1.5S14.672 9 15.5 9s1.5.672 1.5 1.5-.672 1.5-1.5 1.5z"/>
  </g>
  <g id="Heavy-L">
    <path fill="black" fill-rule="evenodd" d="M12 3c-4.97 0-9 4.03-9 9s4.03 9 9 9 9-4.03 9-9-4.03-9-9-9zm4.167 12c.339 0 .644.316.772.599.127.283.052.476-.191.689-2.657 2.283-6.839 2.283-9.496 0-.243-.213-.318-.406-.19-.69.127-.282.432-.598.771-.598h8.334zM8.5 9c.828 0 1.5.672 1.5 1.5S9.328 12 8.5 12 7 11.328 7 10.5 7.672 9 8.5 9zm7 3c-.828 0-1.5-.672-1.5-1.5S14.672 9 15.5 9s1.5.672 1.5 1.5-.672 1.5-1.5 1.5z"/>
  </g>
  <g id="Black-L">
    <path fill="black" fill-rule="evenodd" d="M12 3c-4.97 0-9 4.03-9 9s4.03 9 9 9 9-4.03 9-9-4.03-9-9-9zm4.167 12c.339 0 .644.316.772.599.127.283.052.476-.191.689-2.657 2.283-6.839 2.283-9.496 0-.243-.213-.318-.406-.19-.69.127-.282.432-.598.771-.598h8.334zM8.5 9c.828 0 1.5.672 1.5 1.5S9.328 12 8.5 12 7 11.328 7 10.5 7.672 9 8.5 9zm7 3c-.828 0-1.5-.672-1.5-1.5S14.672 9 15.5 9s1.5.672 1.5 1.5-.672 1.5-1.5 1.5z"/>
  </g>
</svg>