<?xml version="1.0" encoding="UTF-8" standalone="no"?>
<svg width="20px" height="22px" viewBox="0 0 20 22" version="1.1" xmlns="http://www.w3.org/2000/svg" xmlns:xlink="http://www.w3.org/1999/xlink" xmlns:sketch="http://www.bohemiancoding.com/sketch/ns">
    <!-- Generator: Sketch 3.4.4 (17249) - http://www.bohemiancoding.com/sketch -->
    <title>folder-public-empty</title>
    <desc>Created with Sketch.</desc>
    <defs></defs>
    <g id="Page-1" stroke="none" stroke-width="1" fill="none" fill-rule="evenodd" sketch:type="MSPage">
        <g id="Public-empty" sketch:type="MSArtboardGroup" fill="#90D05C">
            <g id="fa-folder-private-empty" sketch:type="MSLayerGroup" transform="translate(-0.564103, 5.000000)">
                <path d="M8.73319058,13 L2.71641409,13 C2.13095466,13 1.61455336,12.8017798 1.20097193,12.3876545 C0.770509623,11.9912141 0.564102564,11.4945584 0.564102564,10.9323206 L0.564102564,2.06694252 C0.564102564,1.50470468 0.770509623,1.02499717 1.20097193,0.611608661 C1.61455336,0.21443147 2.13095466,0 2.71641409,0 L5.79947567,0 C6.3849351,0 6.88445553,0.21443147 7.31568515,0.611608661 C7.72849926,1.02499717 7.95255451,1.50470468 7.95255451,2.06694252 L7.95255451,2.3646412 L14.4110237,2.3646412 C14.9964832,2.3646412 15.4960036,2.56359823 15.9264659,2.97698674 C16.3400473,3.39037524 16.5641026,3.87008276 16.5641026,4.4323206 L16.5641026,5.67455141 C16.0303873,5.52467028 15.4680552,5.44457899 14.887269,5.44457899 C11.42644,5.44457899 8.62088369,8.2884702 8.62088369,11.7965878 C8.62088369,12.2080342 8.65947568,12.6103437 8.73319058,13 L8.73319058,13 Z" id="Fill-240" sketch:type="MSShapeGroup"></path>
                <path d="M12.3010021,15.9011229 C12.9939217,16.3002183 13.750004,16.5 14.5692492,16.5 C15.3777333,16.5 16.1338156,16.3002183 16.827203,15.9011229 C17.5098293,15.5020274 18.0558368,14.95602 18.4652255,14.2631004 C18.8643209,13.569713 19.0641026,12.8243918 19.0641026,12.0051466 C19.0641026,11.1859014 18.8643209,10.4298191 18.4652255,9.74719276 C18.0558368,9.05427324 17.5098293,8.50779788 16.827203,8.10870243 C16.1338156,7.69931379 15.3777333,7.5 14.5692492,7.5 C13.750004,7.5 12.9939217,7.69931379 12.3010021,8.10870243 C11.6183758,8.50779788 11.0723683,9.05427324 10.6625118,9.74719276 C10.2634164,10.4298191 10.0641026,11.1859014 10.0641026,12.0051466 C10.0641026,12.8243918 10.2634164,13.569713 10.6625118,14.2631004 C11.0723683,14.95602 11.6183758,15.5020274 12.3010021,15.9011229 L12.3010021,15.9011229 Z M12.7627925,8.71787274 C12.7838468,8.70757954 12.8362485,8.70757954 12.8994114,8.70757954 C12.9307588,8.71787274 12.9518131,8.72863381 12.9836285,8.73892701 C13.0149759,8.75998129 13.0360302,8.78103556 13.0673777,8.80208983 C13.0987251,8.83343731 13.1197794,8.85449158 13.1305405,8.86525265 C13.1408337,8.84419838 13.1305405,8.80208983 13.1094862,8.75998129 C13.1094862,8.72863381 13.1515948,8.70757954 13.235344,8.68652527 C13.3195611,8.67623206 13.382256,8.67623206 13.4140714,8.69681847 C13.382256,8.65517779 13.3509086,8.61306925 13.2877457,8.54990643 L13.2671593,8.5709607 C13.235344,8.54990643 13.1515948,8.5606675 13.0149759,8.61306925 C13.0149759,8.62336245 12.9939217,8.63412352 12.9625742,8.64441672 C12.9307588,8.66547099 12.8994114,8.67623206 12.8783571,8.68652527 C12.8573028,8.69681847 12.8362485,8.69681847 12.8156621,8.69681847 C13.0042149,8.59201497 13.1829422,8.50779788 13.3616696,8.45539613 C13.3719628,8.45539613 13.3930171,8.47645041 13.4243646,8.49750468 C13.4454188,8.52885215 13.4664731,8.54990643 13.4875274,8.5606675 C13.4772342,8.54990643 13.4664731,8.54990643 13.4664731,8.5709607 C13.4454188,8.61306925 13.4454188,8.65517779 13.4664731,8.68652527 C13.4875274,8.71787274 13.5085817,8.72863381 13.5399291,8.72863381 C13.5717445,8.73892701 13.6133852,8.73892701 13.6662548,8.72863381 C13.7078955,8.71787274 13.7397108,8.71787274 13.7607651,8.71787274 L13.8131668,8.71787274 C13.9390246,8.72863381 13.9914263,8.71787274 13.9600789,8.68652527 C13.9708399,8.69681847 13.9914263,8.73892701 14.0021874,8.78103556 C14.0124806,8.83343731 14.0335349,8.86525265 14.0545892,8.88583905 C14.0756434,8.86525265 14.0756434,8.84419838 14.0653502,8.80208983 C14.0545892,8.75998129 14.0545892,8.73892701 14.0653502,8.71787274 C14.0756434,8.71787274 14.0859366,8.70757954 14.0966977,8.69681847 C14.117752,8.68652527 14.1388062,8.68652527 14.1701537,8.67623206 C14.191208,8.66547099 14.2122623,8.65517779 14.2225555,8.65517779 C14.2436097,8.63412352 14.2225555,8.61306925 14.1701537,8.5709607 C14.1593926,8.5606675 14.1490994,8.5606675 14.117752,8.54990643 C14.0966977,8.53961323 14.0756434,8.53961323 14.0545892,8.52885215 C14.0335349,8.51855895 14.0124806,8.50779788 13.9914263,8.49750468 C13.9708399,8.48721148 13.9600789,8.46615721 13.9600789,8.44510293 C13.9708399,8.43434186 13.9811331,8.41328759 13.9914263,8.38194011 C14.0232417,8.36088584 14.0545892,8.35059264 14.1069909,8.36088584 C14.1593926,8.36088584 14.2015012,8.37164691 14.2333165,8.39270119 C14.33812,8.44510293 14.3484132,8.49750468 14.2749572,8.54990643 C14.3170658,8.54990643 14.3591743,8.5606675 14.4223371,8.59201497 C14.4747389,8.62336245 14.4957931,8.64441672 14.4850321,8.67623206 C14.5168474,8.62336245 14.5481949,8.59201497 14.5795424,8.59201497 C14.6005966,8.59201497 14.6113577,8.62336245 14.632412,8.67623206 C14.6529984,8.71787274 14.6637595,8.74968808 14.6637595,8.74968808 C14.6951069,8.79132876 14.7269223,8.80208983 14.7582698,8.78103556 C14.7896172,8.75998129 14.8214326,8.71787274 14.85278,8.67623206 C14.8841275,8.63412352 14.9051818,8.61306925 14.9159429,8.61306925 C14.8738343,8.60230817 14.8630732,8.58172177 14.8948886,8.5709607 C14.9575835,8.52885215 15.0104532,8.52885215 15.0520938,8.53961323 C15.0731481,8.54990643 15.0839092,8.5606675 15.1049634,8.59201497 C15.1363109,8.66547099 15.1363109,8.69681847 15.0839092,8.69681847 C15.1260177,8.72863381 15.1363109,8.75998129 15.1260177,8.81238303 C15.1260177,8.85449158 15.0942024,8.87554585 15.0418006,8.87554585 C15.0207464,8.87554585 14.9893989,8.86525265 14.9575835,8.84419838 C14.9159429,8.8231441 14.8841275,8.81238303 14.8738343,8.81238303 C14.85278,8.81238303 14.8214326,8.8231441 14.7896172,8.84419838 C14.768563,8.86525265 14.7475087,8.89660012 14.7269223,8.94900187 C14.705868,8.99111042 14.6740527,9.02245789 14.6637595,9.04351216 C14.6005966,9.10667498 14.5060863,9.12772926 14.3694675,9.10667498 C14.3802286,9.10667498 14.3802286,9.11696818 14.3591743,9.14878353 C14.3484132,9.1698378 14.3278268,9.1904242 14.3067726,9.22223955 C14.2857183,9.25358702 14.264664,9.2643481 14.264664,9.2746413 C14.2333165,9.31674984 14.2122623,9.35885839 14.191208,9.41126014 L14.191208,9.48471616 C14.1804469,9.5268247 14.1804469,9.56846538 14.1701537,9.58951965 C14.2122623,9.57922645 14.2543708,9.60028072 14.2749572,9.66297567 C14.2960115,9.71584529 14.2960115,9.74719276 14.2749572,9.74719276 C14.4115761,9.72613849 14.5168474,9.73689956 14.6216509,9.76824704 C14.7582698,9.82064878 14.842019,9.87305053 14.85278,9.92592015 C14.8841275,9.8838116 14.9369971,9.8838116 15.0310396,9.91515908 C15.0628549,9.93621335 15.0942024,9.99937617 15.1260177,10.0938865 C15.1363109,10.1565814 15.1676584,10.19869 15.1994737,10.2407985 C15.2411144,10.2932002 15.2729298,10.3039613 15.3253315,10.282907 L15.3356247,10.272146 C15.356679,10.2618528 15.3674401,10.2510917 15.3777333,10.2510917 C15.3884943,10.2407985 15.3987875,10.2305053 15.4095486,10.2197442 C15.4198418,10.2197442 15.430135,10.209451 15.430135,10.19869 C15.430135,10.1883968 15.430135,10.1776357 15.4198418,10.1776357 C15.3884943,10.1565814 15.3674401,10.1149407 15.356679,10.0831254 C15.3463858,10.0410168 15.3463858,9.99937617 15.3674401,9.96756082 C15.3777333,9.95726762 15.4095486,9.92592015 15.4619503,9.90486588 C15.5143521,9.87305053 15.5456996,9.84170306 15.5564606,9.81035558 C15.5667538,9.75748596 15.5564606,9.71584529 15.4932978,9.68402994 C15.4408961,9.64238927 15.4095486,9.621335 15.4095486,9.58951965 C15.4095486,9.56846538 15.430135,9.54787898 15.4511893,9.51606363 C15.4830046,9.49500936 15.4932978,9.46366188 15.4830046,9.44260761 C15.4830046,9.43231441 15.4830046,9.41126014 15.4619503,9.36915159 C15.4511893,9.32704304 15.4408961,9.30598877 15.4408961,9.2849345 C15.4408961,9.2746413 15.4511893,9.25358702 15.4722435,9.22223955 C15.4932978,9.21147848 15.5564606,9.21147848 15.6612641,9.23253275 C15.7665355,9.24329382 15.8292304,9.2643481 15.8610458,9.2849345 C15.871339,9.29569557 15.8923933,9.30598877 15.9345018,9.31674984 C15.9766104,9.33780412 16.0079578,9.34809732 16.0393053,9.36915159 C16.0711207,9.39020586 16.0814139,9.40049906 16.0921749,9.42155334 L16.0603596,9.42155334 C16.0814139,9.44260761 16.1024681,9.47442296 16.1127613,9.50577043 C16.1127613,9.5371179 16.1024681,9.55817218 16.0603596,9.56846538 C16.0921749,9.56846538 16.1235224,9.56846538 16.1548699,9.58951965 C16.2180327,9.61057392 16.2180327,9.6316282 16.1656309,9.65268247 C16.1759241,9.65268247 16.1969784,9.64238927 16.2180327,9.64238927 C16.239087,9.64238927 16.2493802,9.6316282 16.2601412,9.621335 C16.2704344,9.621335 16.2811955,9.61057392 16.2914887,9.60028072 C16.3017819,9.58951965 16.312543,9.58951965 16.3228362,9.58951965 C16.3228362,9.57922645 16.3335973,9.57922645 16.3438905,9.57922645 C16.3546515,9.57922645 16.3649447,9.57922645 16.385999,9.58951965 C16.385999,9.58951965 16.3962922,9.57922645 16.4070533,9.55817218 C16.4173465,9.5371179 16.4384008,9.51606363 16.4491618,9.50577043 C16.4702161,9.48471616 16.4805093,9.47442296 16.4908025,9.47442296 C16.5015636,9.47442296 16.5118568,9.47442296 16.5226178,9.48471616 C16.532911,9.49500936 16.5436721,9.50577043 16.5436721,9.51606363 C16.5539653,9.5268247 16.5647264,9.54787898 16.5647264,9.55817218 C16.5750196,9.56846538 16.5750196,9.57922645 16.5857807,9.58951965 C16.5857807,9.61057392 16.6063671,9.6316282 16.6381824,9.65268247 C16.6695299,9.67373674 16.6798231,9.69479102 16.6905842,9.71584529 C16.7008774,9.72613849 16.7008774,9.75748596 16.7116384,9.79959451 C16.7219316,9.85199626 16.7429859,9.8838116 16.7640402,9.8941048 C16.7850945,9.91515908 16.8061487,9.92592015 16.8482573,9.93621335 C16.8585505,9.94650655 16.8796047,9.94650655 16.900659,9.93621335 C16.9320065,9.92592015 16.9530608,9.92592015 16.974115,9.92592015 C16.9844082,9.93621335 16.9951693,9.94650655 16.9951693,9.9783219 C17.0162236,9.95726762 17.0372779,9.93621335 17.0372779,9.92592015 C17.0372779,9.9783219 17.0475711,10.0204304 17.0686253,10.0517779 C17.0896796,10.0831254 17.1210271,10.0938865 17.1734288,10.0938865 L17.1631356,10.2197442 C17.1523746,10.2407985 17.1210271,10.2510917 17.0686253,10.2618528 C17.0265168,10.272146 16.9951693,10.282907 16.9844082,10.2932002 C16.974115,10.2932002 16.9427676,10.3250156 16.900659,10.3666563 C16.8585505,10.4087648 16.8374962,10.4298191 16.8482573,10.4401123 C16.7748013,10.3666563 16.6798231,10.345602 16.5436721,10.3774173 C16.3962922,10.3984716 16.2914887,10.4195259 16.239087,10.4401123 C16.1759241,10.4719276 16.1338156,10.5032751 16.1127613,10.5346226 C16.1127613,10.5346226 16.1024681,10.5453837 16.0921749,10.5767311 C16.0814139,10.5977854 16.0711207,10.6188397 16.0603596,10.6398939 C16.0500664,10.6609482 16.0393053,10.6712414 16.0393053,10.6712414 C16.0603596,10.6609482 16.0814139,10.6398939 16.1127613,10.6085465 C16.1445767,10.5767311 16.1656309,10.5556769 16.1656309,10.5556769 C16.2704344,10.4929819 16.3546515,10.4611666 16.4173465,10.4822208 C16.5118568,10.5140362 16.5226178,10.5453837 16.459455,10.5767311 C16.459455,10.5874922 16.4384008,10.5874922 16.4070533,10.5874922 L16.3335973,10.5874922 C16.3649447,10.5977854 16.3962922,10.6085465 16.4173465,10.6188397 C16.4491618,10.6398939 16.4491618,10.6609482 16.4384008,10.6820025 C16.5015636,10.71335 16.5118568,10.7554585 16.4702161,10.7975671 C16.4281076,10.8499688 16.3649447,10.8710231 16.2914887,10.860262 C16.3017819,10.860262 16.3017819,10.8710231 16.2914887,10.8813163 L16.1969784,10.9444791 C16.1862173,10.9547723 16.1656309,10.9655334 16.1127613,10.9758266 C16.0711207,10.9968808 16.0500664,11.007174 16.0290121,11.0282283 C16.018251,11.0492826 16.0079578,11.0703369 16.0079578,11.1021522 L16.0079578,11.1756082 C15.9971968,11.1859014 15.9869036,11.1859014 15.9555561,11.1859014 C15.944795,11.2069557 15.9134475,11.22801 15.8502847,11.2383032 C15.7875898,11.2490643 15.7454812,11.2701185 15.7347202,11.301466 C15.7557744,11.3328135 15.7557744,11.3646288 15.724427,11.3959763 C15.6823184,11.4380848 15.6402099,11.4273238 15.5985692,11.3856831 C15.5775149,11.3856831 15.5667538,11.4062695 15.5564606,11.4380848 C15.5456996,11.4694323 15.5354064,11.4904866 15.5143521,11.5007798 C15.5456996,11.5536494 15.5354064,11.5747037 15.5040589,11.5952901 C15.5040589,11.5952901 15.5143521,11.6060512 15.5246453,11.6060512 C15.5456996,11.6163444 15.5564606,11.6271054 15.5775149,11.6373986 C15.5878081,11.6481597 15.5985692,11.6584529 15.5985692,11.6584529 C15.5878081,11.6898004 15.5667538,11.7108546 15.5354064,11.7108546 C15.5564606,11.7740175 15.5354064,11.8371803 15.4511893,11.9106363 C15.430135,11.9316906 15.4095486,11.9419838 15.3777333,11.9630381 C15.3463858,11.9737991 15.3145704,11.9943855 15.283223,12.0051466 C15.2621687,12.0154398 15.2411144,12.0154398 15.2411144,12.0262009 C15.1994737,12.0575483 15.1676584,12.0888958 15.1466041,12.1310044 C15.1363109,12.1628197 15.1260177,12.2044604 15.1466041,12.2362757 C15.1573652,12.2779164 15.1887127,12.2989707 15.2518755,12.3097318 L15.2518755,12.3518403 L15.2518755,12.4566438 L15.2621687,12.5090455 C15.2621687,12.5300998 15.2729298,12.5614473 15.2729298,12.5825016 L15.2729298,12.6667187 C15.2729298,12.6980661 15.2621687,12.7191204 15.2411144,12.7191204 C15.2308212,12.7191204 15.2097669,12.7191204 15.1784195,12.7088272 C15.1466041,12.6877729 15.1152567,12.6035558 15.0731481,12.4463506 C15.0628549,12.4145352 15.0418006,12.3621335 14.9996921,12.3097318 C14.9786378,12.330786 14.9575835,12.3410792 14.9472903,12.3518403 L14.9159429,12.3518403 C14.9159429,12.3410792 14.9051818,12.3410792 14.8841275,12.320025 C14.8738343,12.3097318 14.85278,12.2989707 14.842019,12.2886775 C14.8214326,12.2779164 14.7896172,12.2676232 14.7475087,12.25733 C14.6951069,12.25733 14.6637595,12.2465689 14.6529984,12.2362757 C14.5584881,12.2989707 14.5060863,12.2886775 14.4850321,12.1834061 C14.4747389,12.1941672 14.4747389,12.2255147 14.4850321,12.25733 C14.4957931,12.2886775 14.4957931,12.3097318 14.4957931,12.3097318 C14.4747389,12.3621335 14.4326303,12.3724267 14.3694675,12.330786 C14.3484132,12.2989707 14.2960115,12.2989707 14.2122623,12.320025 C14.1280452,12.330786 14.0756434,12.3410792 14.044296,12.330786 C14.044296,12.330786 14.0545892,12.330786 14.0653502,12.3410792 C14.0756434,12.3518403 14.0859366,12.3621335 14.0859366,12.3621335 C14.0859366,12.3724267 14.0756434,12.3831878 14.0756434,12.393481 C14.0653502,12.404242 14.0545892,12.404242 14.044296,12.404242 L14.0232417,12.404242 C14.0124806,12.404242 14.0021874,12.4145352 13.9914263,12.4145352 C13.9811331,12.4252963 13.9600789,12.4463506 13.9390246,12.4776981 C13.9179703,12.5090455 13.896916,12.5198066 13.8866228,12.5300998 C13.9076771,12.5932626 13.9179703,12.6456644 13.9179703,12.6770119 C13.9179703,12.7088272 13.9076771,12.7612289 13.896916,12.8243918 C13.8866228,12.8870867 13.8866228,12.9399563 13.8866228,12.9713038 C13.8866228,13.0344666 13.9076771,13.1079226 13.9390246,13.1916719 C13.9811331,13.275889 14.0232417,13.3282907 14.0756434,13.3596382 C14.0966977,13.3806925 14.1490994,13.3914535 14.2122623,13.3914535 C14.2749572,13.3914535 14.3278268,13.3914535 14.3484132,13.3806925 C14.3802286,13.3703993 14.3905218,13.3596382 14.4115761,13.3385839 C14.4223371,13.3282907 14.4326303,13.2969432 14.4326303,13.275889 C14.4433914,13.2440736 14.4536846,13.2234872 14.4536846,13.2127261 C14.4850321,13.1392701 14.5271406,13.0971616 14.6005966,13.0971616 C14.6529984,13.0868684 14.6848137,13.0971616 14.705868,13.1079226 C14.7269223,13.1182158 14.7372155,13.1392701 14.7372155,13.1603244 C14.7269223,13.1916719 14.7269223,13.2127261 14.7161612,13.2337804 C14.6951069,13.2651279 14.6848137,13.2861822 14.6637595,13.3179975 C14.6529984,13.349345 14.6427052,13.3806925 14.632412,13.3914535 C14.632412,13.422801 14.6216509,13.4649095 14.6113577,13.5276045 C14.6113577,13.5804741 14.6005966,13.6118216 14.6005966,13.6225827 C14.6113577,13.6328759 14.632412,13.6328759 14.6848137,13.6328759 C14.6848137,13.6225827 14.6951069,13.6118216 14.6951069,13.5907673 C14.705868,13.5804741 14.705868,13.569713 14.705868,13.5594198 C14.7269223,13.5907673 14.7582698,13.6118216 14.8003783,13.6118216 C14.842019,13.6225827 14.8738343,13.6015284 14.8948886,13.569713 C14.9051818,13.5804741 14.9262361,13.6118216 14.9683446,13.6539301 C14.9996921,13.7063319 15.0207464,13.7376794 15.0310396,13.7694947 C15.0310396,13.790549 15.0418006,13.8111354 15.0520938,13.8532439 C15.0628549,13.8850593 15.0628549,13.9061135 15.0628549,13.9266999 C15.0628549,13.937461 15.0418006,13.9477542 14.9996921,13.9477542 C14.9893989,13.9477542 14.9786378,13.9477542 14.9786378,13.9585153 C14.9683446,13.9688085 14.9683446,13.9898628 14.9786378,14.0006238 C14.9786378,14.0212102 14.9786378,14.0422645 14.9893989,14.0530256 C14.9996921,14.0740799 14.9996921,14.0843731 15.0104532,14.1054273 C15.0207464,14.1264816 15.0310396,14.1367748 15.0310396,14.1367748 C15.0942024,14.2631004 15.1887127,14.3047411 15.3145704,14.2420462 C15.3145704,14.3576107 15.283223,14.4203057 15.2308212,14.4310667 C15.1994737,14.44136 15.1676584,14.4203057 15.1260177,14.3679039 C15.0839092,14.3257954 15.0731481,14.2841547 15.0839092,14.2523394 C15.0839092,14.2733936 15.0731481,14.2944479 15.0418006,14.3047411 C15.0207464,14.2841547 14.9893989,14.2523394 14.9369971,14.2209919 C14.8841275,14.1788833 14.85278,14.1578291 14.8317258,14.1264816 C14.8214326,14.1157205 14.8106715,14.1054273 14.8003783,14.0843731 C14.7896172,14.0633188 14.768563,14.0319713 14.7475087,14.0006238 C14.7269223,13.9585153 14.7161612,13.9266999 14.705868,13.9061135 C14.6951069,13.8850593 14.6951069,13.864005 14.6951069,13.864005 C14.6216509,13.8953525 14.5168474,13.8742982 14.3802286,13.8008422 C14.3484132,13.7797879 14.3067726,13.7376794 14.2543708,13.6749844 C14.2015012,13.6118216 14.1388062,13.5804741 14.0859366,13.5907673 C14.0653502,13.5907673 14.0335349,13.6015284 14.0021874,13.6015284 C13.9708399,13.6118216 13.9390246,13.6225827 13.9179703,13.6225827 C13.896916,13.6225827 13.8655686,13.6118216 13.82346,13.6015284 C13.7921125,13.5907673 13.750004,13.5594198 13.6976023,13.5276045 C13.6452005,13.496257 13.6133852,13.4752027 13.5923309,13.4649095 C13.5820377,13.4649095 13.5506902,13.4438553 13.5188749,13.422801 C13.4772342,13.4125078 13.4454188,13.3914535 13.4243646,13.3806925 C13.4033103,13.3703993 13.3719628,13.349345 13.3509086,13.3282907 C13.3195611,13.2969432 13.3088,13.275889 13.2985068,13.2440736 C13.2877457,13.2234872 13.2774525,13.1706176 13.2671593,13.1079226 C13.2563983,13.0344666 13.2461051,12.981597 13.2250508,12.9502495 C13.2039965,12.9189021 13.161888,12.8767935 13.1197794,12.834685 C13.0781387,12.7925764 13.0360302,12.7822832 13.0042149,12.7822832 C13.0360302,12.7822832 13.0360302,12.7504679 13.0042149,12.6980661 C12.9728674,12.6456644 12.9518131,12.6035558 12.9204656,12.5825016 C12.9204656,12.5722084 12.8891182,12.5511541 12.8573028,12.5090455 C12.8156621,12.466937 12.7838468,12.4252963 12.7524993,12.393481 C12.731445,12.3621335 12.7000976,12.330786 12.6790433,12.2886775 C12.6682822,12.2465689 12.657989,12.2152215 12.6682822,12.1834061 C12.6790433,12.1834061 12.6682822,12.1731129 12.657989,12.1628197 C12.647228,12.1628197 12.6369348,12.1520586 12.6158805,12.1417654 C12.5948262,12.1417654 12.584533,12.1310044 12.5634787,12.1207112 C12.5527177,12.1207112 12.5424245,12.1099501 12.5316634,12.1099501 C12.5424245,12.1310044 12.5527177,12.1628197 12.5527177,12.2044604 C12.5634787,12.2362757 12.5737719,12.2676232 12.5948262,12.2886775 C12.5948262,12.3097318 12.6261737,12.3621335 12.6893365,12.4566438 C12.7946079,12.6246101 12.8362485,12.7504679 12.8259553,12.8243918 C12.8049011,12.834685 12.7946079,12.8243918 12.7838468,12.8136307 C12.7735536,12.7925764 12.7735536,12.7715221 12.7627925,12.7504679 C12.7627925,12.7191204 12.7627925,12.6980661 12.7524993,12.6877729 C12.7417382,12.6667187 12.7103908,12.6353712 12.657989,12.6143169 C12.6158805,12.5825016 12.584533,12.5614473 12.5737719,12.5300998 L12.584533,12.5300998 C12.5948262,12.5198066 12.5948262,12.5198066 12.6055873,12.5198066 C12.6055873,12.4879913 12.584533,12.4355895 12.5424245,12.3831878 C12.4900227,12.330786 12.4792616,12.2886775 12.4792616,12.2676232 C12.4479142,12.2465689 12.4268599,12.1941672 12.4058056,12.1310044 C12.3744581,12.0575483 12.3636971,12.0154398 12.3426428,11.9943855 C12.3323496,11.9737991 12.3112953,11.9527449 12.2799479,11.9316906 C12.2588936,11.9209295 12.2270782,11.8998752 12.1957308,11.878821 C12.1643833,11.8582346 12.143329,11.8371803 12.1222747,11.8371803 C12.1222747,11.8264192 12.1012205,11.816126 12.0801662,11.7843107 C11.9543084,11.6271054 11.9121999,11.5428883 11.9646016,11.5325951 C11.9121999,11.5428883 11.8700913,11.5007798 11.8387439,11.4170306 C11.8073964,11.3225203 11.7966353,11.2593575 11.8073964,11.2172489 L11.7966353,11.2069557 L11.7966353,11.0703369 C11.7966353,10.9968808 11.8073964,10.9234248 11.8176896,10.860262 C11.8284507,10.7975671 11.8387439,10.7657517 11.8700913,10.7657517 C11.8387439,10.7657517 11.8176896,10.7446974 11.8073964,10.6922957 C11.7966353,10.6398939 11.7966353,10.6085465 11.8073964,10.5874922 C11.8073964,10.5767311 11.8284507,10.5767311 11.8597981,10.6085465 C11.8911456,10.6398939 11.9019067,10.6501871 11.9121999,10.6609482 C11.9646016,10.6291329 11.9753627,10.5977854 11.9646016,10.5556769 C11.9646016,10.5453837 11.922961,10.5032751 11.8495049,10.4298191 C11.6810707,10.3250156 11.5865605,10.272146 11.5865605,10.272146 C11.6076147,10.2305053 11.6076147,10.19869 11.5655062,10.1673425 C11.5341587,10.1883968 11.5131044,10.1883968 11.5028112,10.1776357 C11.4920502,10.1673425 11.4920502,10.1462882 11.4920502,10.1149407 C11.481757,10.0831254 11.4709959,10.0728322 11.4607027,10.0620711 C11.4396484,10.0620711 11.4185941,10.0410168 11.3872467,10.0204304 C11.7339404,9.46366188 12.1957308,9.03321896 12.7627925,8.71787274 L12.7627925,8.71787274 Z M15.2411144,15.47068 C15.2729298,15.4182782 15.293984,15.3864629 15.293984,15.3551154 C15.2308212,15.3448222 15.2097669,15.2919526 15.220528,15.2082034 C15.2308212,15.1450405 15.283223,15.0715845 15.3884943,14.966781 C15.4619503,14.9036182 15.4932978,14.8091079 15.4619503,14.6827823 C15.4511893,14.6411416 15.4408961,14.5676856 15.430135,14.4624142 C15.4198418,14.3679039 15.4198418,14.2944479 15.4095486,14.2631004 C15.4095486,14.2733936 15.430135,14.2841547 15.4619503,14.2944479 C15.5040589,14.3047411 15.5246453,14.3155022 15.5354064,14.3257954 C15.5354064,14.3155022 15.5456996,14.2944479 15.5564606,14.2631004 C15.5775149,14.2312851 15.5878081,14.2102308 15.5985692,14.1999376 C15.6088624,14.1788833 15.6196235,14.1685901 15.6509709,14.1475359 C15.6720252,14.1367748 15.6930795,14.1264816 15.6930795,14.1157205 C15.7033727,14.1157205 15.724427,14.1054273 15.7454812,14.0843731 C15.7768287,14.0633188 15.797883,14.0422645 15.8189372,14.0319713 C15.8292304,14.0212102 15.8610458,14.010917 15.8821001,14.0006238 C15.9134475,14.0006238 15.9345018,14.010917 15.944795,14.0319713 C15.9658493,14.0530256 15.9658493,14.0951341 15.9345018,14.1367748 C15.9134475,14.1896444 15.9134475,14.2209919 15.9345018,14.2420462 C15.944795,14.2312851 15.944795,14.1999376 15.944795,14.1685901 C15.9555561,14.1264816 15.9658493,14.0951341 15.9869036,14.0740799 C16.0079578,14.0530256 16.0290121,14.0422645 16.0500664,14.0319713 C16.0711207,14.0319713 16.0921749,14.0319713 16.1127613,14.0422645 C16.1235224,14.0530256 16.1445767,14.0740799 16.1656309,14.0843731 C16.1969784,14.1054273 16.2180327,14.1157205 16.239087,14.1157205 C16.2914887,14.1367748 16.3649447,14.1788833 16.4491618,14.2523394 C16.4384008,14.2420462 16.4384008,14.2420462 16.4491618,14.2312851 C16.4491618,14.2312851 16.459455,14.2209919 16.4702161,14.2209919 C16.4805093,14.2102308 16.4908025,14.1999376 16.5015636,14.1999376 C16.5118568,14.1896444 16.5226178,14.1896444 16.532911,14.1788833 L16.5539653,14.1788833 C16.5750196,14.1788833 16.5960739,14.1788833 16.6063671,14.1685901 C16.6171281,14.1685901 16.6381824,14.1685901 16.6592367,14.1788833 C16.6798231,14.1999376 16.7008774,14.1999376 16.7008774,14.2102308 C16.7116384,14.2209919 16.7219316,14.2312851 16.7429859,14.2420462 C16.7640402,14.2631004 16.7748013,14.2733936 16.7850945,14.2733936 C16.7953877,14.2841547 16.8164419,14.2944479 16.8482573,14.3155022 C16.8796047,14.3365565 16.9109522,14.3576107 16.9217133,14.3679039 C16.9427676,14.378665 16.9530608,14.3992514 16.974115,14.4203057 C16.9844082,14.44136 16.9844082,14.4624142 16.9844082,14.4937617 C17.0054625,14.4937617 17.0578643,14.514816 17.1210271,14.5358702 C17.1420814,14.5466313 17.1631356,14.5569245 17.1944831,14.5569245 C17.2365916,14.5676856 17.2576459,14.5779788 17.2679391,14.588272 C16.7008774,15.1871491 16.018251,15.5544292 15.220528,15.691048 C15.2097669,15.6597006 15.1994737,15.6283531 15.1994737,15.5965377 C15.1994737,15.5754835 15.2097669,15.5338428 15.2411144,15.47068 L15.2411144,15.47068 Z" id="Fill-227" sketch:type="MSShapeGroup"></path>
            </g>
        </g>
    </g>
</svg>