<?xml version="1.0" encoding="UTF-8"?>
<!DOCTYPE svg PUBLIC "-//W3C//DTD SVG 1.1//EN" "http://www.w3.org/Graphics/SVG/1.1/DTD/svg11.dtd">
<svg xmlns="http://www.w3.org/2000/svg" xmlns:xlink="http://www.w3.org/1999/xlink" width="24" height="24" viewBox="0 0 24 24">
  <title>kb-nav-files</title>
  <line id="Capline-S" x1="0" y1="2" x2="24" y2="2" stroke="none"/>
  <line id="Baseline-S" x1="0" y1="22" x2="24" y2="22" stroke="none"/>
  <line id="Capline-M" x1="0" y1="2" x2="24" y2="2" stroke="none"/>
  <line id="Baseline-M" x1="0" y1="22" x2="24" y2="22" stroke="none"/>
  <line id="Capline-L" x1="0" y1="2" x2="24" y2="2" stroke="none"/>
  <line id="Baseline-L" x1="0" y1="22" x2="24" y2="22" stroke="none"/>
  <g id="Ultralight-S">
    <path fill="black" fill-rule="evenodd" d="M11.004 3v5.678c0 1.34.37 2.35 2.048 2.35H19v7.487C19 19.37 18.263 20 17.353 20H6.647C5.737 20 5 19.369 5 18.515V4.545C5 3.692 5.737 3 6.647 3h4.357zm2.641 2.11l3.244 3.223c.071.07.111.166.111.266 0 .207-.17.401-.378.401h-2.866C13.338 9 13 8.638 13 8.223V5.376c0-.1.04-.195.11-.266.148-.146.387-.146.535 0z"/>
  </g>
  <g id="Thin-S">
    <path fill="black" fill-rule="evenodd" d="M11.004 3v5.678c0 1.34.37 2.35 2.048 2.35H19v7.487C19 19.37 18.263 20 17.353 20H6.647C5.737 20 5 19.369 5 18.515V4.545C5 3.692 5.737 3 6.647 3h4.357zm2.641 2.11l3.244 3.223c.071.07.111.166.111.266 0 .207-.17.401-.378.401h-2.866C13.338 9 13 8.638 13 8.223V5.376c0-.1.04-.195.11-.266.148-.146.387-.146.535 0z"/>
  </g>
  <g id="Light-S">
    <path fill="black" fill-rule="evenodd" d="M11.004 3v5.678c0 1.34.37 2.35 2.048 2.35H19v7.487C19 19.37 18.263 20 17.353 20H6.647C5.737 20 5 19.369 5 18.515V4.545C5 3.692 5.737 3 6.647 3h4.357zm2.641 2.11l3.244 3.223c.071.07.111.166.111.266 0 .207-.17.401-.378.401h-2.866C13.338 9 13 8.638 13 8.223V5.376c0-.1.04-.195.11-.266.148-.146.387-.146.535 0z"/>
  </g>
  <g id="Regular-S">
    <path fill="black" fill-rule="evenodd" d="M11.004 3v5.678c0 1.34.37 2.35 2.048 2.35H19v7.487C19 19.37 18.263 20 17.353 20H6.647C5.737 20 5 19.369 5 18.515V4.545C5 3.692 5.737 3 6.647 3h4.357zm2.641 2.11l3.244 3.223c.071.07.111.166.111.266 0 .207-.17.401-.378.401h-2.866C13.338 9 13 8.638 13 8.223V5.376c0-.1.04-.195.11-.266.148-.146.387-.146.535 0z"/>
  </g>
  <g id="Medium-S">
    <path fill="black" fill-rule="evenodd" d="M11.004 3v5.678c0 1.34.37 2.35 2.048 2.35H19v7.487C19 19.37 18.263 20 17.353 20H6.647C5.737 20 5 19.369 5 18.515V4.545C5 3.692 5.737 3 6.647 3h4.357zm2.641 2.11l3.244 3.223c.071.07.111.166.111.266 0 .207-.17.401-.378.401h-2.866C13.338 9 13 8.638 13 8.223V5.376c0-.1.04-.195.11-.266.148-.146.387-.146.535 0z"/>
  </g>
  <g id="Semibold-S">
    <path fill="black" fill-rule="evenodd" d="M11.004 3v5.678c0 1.34.37 2.35 2.048 2.35H19v7.487C19 19.37 18.263 20 17.353 20H6.647C5.737 20 5 19.369 5 18.515V4.545C5 3.692 5.737 3 6.647 3h4.357zm2.641 2.11l3.244 3.223c.071.07.111.166.111.266 0 .207-.17.401-.378.401h-2.866C13.338 9 13 8.638 13 8.223V5.376c0-.1.04-.195.11-.266.148-.146.387-.146.535 0z"/>
  </g>
  <g id="Bold-S">
    <path fill="black" fill-rule="evenodd" d="M11.004 3v5.678c0 1.34.37 2.35 2.048 2.35H19v7.487C19 19.37 18.263 20 17.353 20H6.647C5.737 20 5 19.369 5 18.515V4.545C5 3.692 5.737 3 6.647 3h4.357zm2.641 2.11l3.244 3.223c.071.07.111.166.111.266 0 .207-.17.401-.378.401h-2.866C13.338 9 13 8.638 13 8.223V5.376c0-.1.04-.195.11-.266.148-.146.387-.146.535 0z"/>
  </g>
  <g id="Heavy-S">
    <path fill="black" fill-rule="evenodd" d="M11.004 3v5.678c0 1.34.37 2.35 2.048 2.35H19v7.487C19 19.37 18.263 20 17.353 20H6.647C5.737 20 5 19.369 5 18.515V4.545C5 3.692 5.737 3 6.647 3h4.357zm2.641 2.11l3.244 3.223c.071.07.111.166.111.266 0 .207-.17.401-.378.401h-2.866C13.338 9 13 8.638 13 8.223V5.376c0-.1.04-.195.11-.266.148-.146.387-.146.535 0z"/>
  </g>
  <g id="Black-S">
    <path fill="black" fill-rule="evenodd" d="M11.004 3v5.678c0 1.34.37 2.35 2.048 2.35H19v7.487C19 19.37 18.263 20 17.353 20H6.647C5.737 20 5 19.369 5 18.515V4.545C5 3.692 5.737 3 6.647 3h4.357zm2.641 2.11l3.244 3.223c.071.07.111.166.111.266 0 .207-.17.401-.378.401h-2.866C13.338 9 13 8.638 13 8.223V5.376c0-.1.04-.195.11-.266.148-.146.387-.146.535 0z"/>
  </g>
  <g id="Ultralight-M">
    <path fill="black" fill-rule="evenodd" d="M11.004 3v5.678c0 1.34.37 2.35 2.048 2.35H19v7.487C19 19.37 18.263 20 17.353 20H6.647C5.737 20 5 19.369 5 18.515V4.545C5 3.692 5.737 3 6.647 3h4.357zm2.641 2.11l3.244 3.223c.071.07.111.166.111.266 0 .207-.17.401-.378.401h-2.866C13.338 9 13 8.638 13 8.223V5.376c0-.1.04-.195.11-.266.148-.146.387-.146.535 0z"/>
  </g>
  <g id="Thin-M">
    <path fill="black" fill-rule="evenodd" d="M11.004 3v5.678c0 1.34.37 2.35 2.048 2.35H19v7.487C19 19.37 18.263 20 17.353 20H6.647C5.737 20 5 19.369 5 18.515V4.545C5 3.692 5.737 3 6.647 3h4.357zm2.641 2.11l3.244 3.223c.071.07.111.166.111.266 0 .207-.17.401-.378.401h-2.866C13.338 9 13 8.638 13 8.223V5.376c0-.1.04-.195.11-.266.148-.146.387-.146.535 0z"/>
  </g>
  <g id="Light-M">
    <path fill="black" fill-rule="evenodd" d="M11.004 3v5.678c0 1.34.37 2.35 2.048 2.35H19v7.487C19 19.37 18.263 20 17.353 20H6.647C5.737 20 5 19.369 5 18.515V4.545C5 3.692 5.737 3 6.647 3h4.357zm2.641 2.11l3.244 3.223c.071.07.111.166.111.266 0 .207-.17.401-.378.401h-2.866C13.338 9 13 8.638 13 8.223V5.376c0-.1.04-.195.11-.266.148-.146.387-.146.535 0z"/>
  </g>
  <g id="Regular-M">
    <path fill="black" fill-rule="evenodd" d="M11.004 3v5.678c0 1.34.37 2.35 2.048 2.35H19v7.487C19 19.37 18.263 20 17.353 20H6.647C5.737 20 5 19.369 5 18.515V4.545C5 3.692 5.737 3 6.647 3h4.357zm2.641 2.11l3.244 3.223c.071.07.111.166.111.266 0 .207-.17.401-.378.401h-2.866C13.338 9 13 8.638 13 8.223V5.376c0-.1.04-.195.11-.266.148-.146.387-.146.535 0z"/>
  </g>
  <g id="Medium-M">
    <path fill="black" fill-rule="evenodd" d="M11.004 3v5.678c0 1.34.37 2.35 2.048 2.35H19v7.487C19 19.37 18.263 20 17.353 20H6.647C5.737 20 5 19.369 5 18.515V4.545C5 3.692 5.737 3 6.647 3h4.357zm2.641 2.11l3.244 3.223c.071.07.111.166.111.266 0 .207-.17.401-.378.401h-2.866C13.338 9 13 8.638 13 8.223V5.376c0-.1.04-.195.11-.266.148-.146.387-.146.535 0z"/>
  </g>
  <g id="Semibold-M">
    <path fill="black" fill-rule="evenodd" d="M11.004 3v5.678c0 1.34.37 2.35 2.048 2.35H19v7.487C19 19.37 18.263 20 17.353 20H6.647C5.737 20 5 19.369 5 18.515V4.545C5 3.692 5.737 3 6.647 3h4.357zm2.641 2.11l3.244 3.223c.071.07.111.166.111.266 0 .207-.17.401-.378.401h-2.866C13.338 9 13 8.638 13 8.223V5.376c0-.1.04-.195.11-.266.148-.146.387-.146.535 0z"/>
  </g>
  <g id="Bold-M">
    <path fill="black" fill-rule="evenodd" d="M11.004 3v5.678c0 1.34.37 2.35 2.048 2.35H19v7.487C19 19.37 18.263 20 17.353 20H6.647C5.737 20 5 19.369 5 18.515V4.545C5 3.692 5.737 3 6.647 3h4.357zm2.641 2.11l3.244 3.223c.071.07.111.166.111.266 0 .207-.17.401-.378.401h-2.866C13.338 9 13 8.638 13 8.223V5.376c0-.1.04-.195.11-.266.148-.146.387-.146.535 0z"/>
  </g>
  <g id="Heavy-M">
    <path fill="black" fill-rule="evenodd" d="M11.004 3v5.678c0 1.34.37 2.35 2.048 2.35H19v7.487C19 19.37 18.263 20 17.353 20H6.647C5.737 20 5 19.369 5 18.515V4.545C5 3.692 5.737 3 6.647 3h4.357zm2.641 2.11l3.244 3.223c.071.07.111.166.111.266 0 .207-.17.401-.378.401h-2.866C13.338 9 13 8.638 13 8.223V5.376c0-.1.04-.195.11-.266.148-.146.387-.146.535 0z"/>
  </g>
  <g id="Black-M">
    <path fill="black" fill-rule="evenodd" d="M11.004 3v5.678c0 1.34.37 2.35 2.048 2.35H19v7.487C19 19.37 18.263 20 17.353 20H6.647C5.737 20 5 19.369 5 18.515V4.545C5 3.692 5.737 3 6.647 3h4.357zm2.641 2.11l3.244 3.223c.071.07.111.166.111.266 0 .207-.17.401-.378.401h-2.866C13.338 9 13 8.638 13 8.223V5.376c0-.1.04-.195.11-.266.148-.146.387-.146.535 0z"/>
  </g>
  <g id="Ultralight-L">
    <path fill="black" fill-rule="evenodd" d="M11.004 3v5.678c0 1.34.37 2.35 2.048 2.35H19v7.487C19 19.37 18.263 20 17.353 20H6.647C5.737 20 5 19.369 5 18.515V4.545C5 3.692 5.737 3 6.647 3h4.357zm2.641 2.11l3.244 3.223c.071.07.111.166.111.266 0 .207-.17.401-.378.401h-2.866C13.338 9 13 8.638 13 8.223V5.376c0-.1.04-.195.11-.266.148-.146.387-.146.535 0z"/>
  </g>
  <g id="Thin-L">
    <path fill="black" fill-rule="evenodd" d="M11.004 3v5.678c0 1.34.37 2.35 2.048 2.35H19v7.487C19 19.37 18.263 20 17.353 20H6.647C5.737 20 5 19.369 5 18.515V4.545C5 3.692 5.737 3 6.647 3h4.357zm2.641 2.11l3.244 3.223c.071.07.111.166.111.266 0 .207-.17.401-.378.401h-2.866C13.338 9 13 8.638 13 8.223V5.376c0-.1.04-.195.11-.266.148-.146.387-.146.535 0z"/>
  </g>
  <g id="Light-L">
    <path fill="black" fill-rule="evenodd" d="M11.004 3v5.678c0 1.34.37 2.35 2.048 2.35H19v7.487C19 19.37 18.263 20 17.353 20H6.647C5.737 20 5 19.369 5 18.515V4.545C5 3.692 5.737 3 6.647 3h4.357zm2.641 2.11l3.244 3.223c.071.07.111.166.111.266 0 .207-.17.401-.378.401h-2.866C13.338 9 13 8.638 13 8.223V5.376c0-.1.04-.195.11-.266.148-.146.387-.146.535 0z"/>
  </g>
  <g id="Regular-L">
    <path fill="black" fill-rule="evenodd" d="M11.004 3v5.678c0 1.34.37 2.35 2.048 2.35H19v7.487C19 19.37 18.263 20 17.353 20H6.647C5.737 20 5 19.369 5 18.515V4.545C5 3.692 5.737 3 6.647 3h4.357zm2.641 2.11l3.244 3.223c.071.07.111.166.111.266 0 .207-.17.401-.378.401h-2.866C13.338 9 13 8.638 13 8.223V5.376c0-.1.04-.195.11-.266.148-.146.387-.146.535 0z"/>
  </g>
  <g id="Medium-L">
    <path fill="black" fill-rule="evenodd" d="M11.004 3v5.678c0 1.34.37 2.35 2.048 2.35H19v7.487C19 19.37 18.263 20 17.353 20H6.647C5.737 20 5 19.369 5 18.515V4.545C5 3.692 5.737 3 6.647 3h4.357zm2.641 2.11l3.244 3.223c.071.07.111.166.111.266 0 .207-.17.401-.378.401h-2.866C13.338 9 13 8.638 13 8.223V5.376c0-.1.04-.195.11-.266.148-.146.387-.146.535 0z"/>
  </g>
  <g id="Semibold-L">
    <path fill="black" fill-rule="evenodd" d="M11.004 3v5.678c0 1.34.37 2.35 2.048 2.35H19v7.487C19 19.37 18.263 20 17.353 20H6.647C5.737 20 5 19.369 5 18.515V4.545C5 3.692 5.737 3 6.647 3h4.357zm2.641 2.11l3.244 3.223c.071.07.111.166.111.266 0 .207-.17.401-.378.401h-2.866C13.338 9 13 8.638 13 8.223V5.376c0-.1.04-.195.11-.266.148-.146.387-.146.535 0z"/>
  </g>
  <g id="Bold-L">
    <path fill="black" fill-rule="evenodd" d="M11.004 3v5.678c0 1.34.37 2.35 2.048 2.35H19v7.487C19 19.37 18.263 20 17.353 20H6.647C5.737 20 5 19.369 5 18.515V4.545C5 3.692 5.737 3 6.647 3h4.357zm2.641 2.11l3.244 3.223c.071.07.111.166.111.266 0 .207-.17.401-.378.401h-2.866C13.338 9 13 8.638 13 8.223V5.376c0-.1.04-.195.11-.266.148-.146.387-.146.535 0z"/>
  </g>
  <g id="Heavy-L">
    <path fill="black" fill-rule="evenodd" d="M11.004 3v5.678c0 1.34.37 2.35 2.048 2.35H19v7.487C19 19.37 18.263 20 17.353 20H6.647C5.737 20 5 19.369 5 18.515V4.545C5 3.692 5.737 3 6.647 3h4.357zm2.641 2.11l3.244 3.223c.071.07.111.166.111.266 0 .207-.17.401-.378.401h-2.866C13.338 9 13 8.638 13 8.223V5.376c0-.1.04-.195.11-.266.148-.146.387-.146.535 0z"/>
  </g>
  <g id="Black-L">
    <path fill="black" fill-rule="evenodd" d="M11.004 3v5.678c0 1.34.37 2.35 2.048 2.35H19v7.487C19 19.37 18.263 20 17.353 20H6.647C5.737 20 5 19.369 5 18.515V4.545C5 3.692 5.737 3 6.647 3h4.357zm2.641 2.11l3.244 3.223c.071.07.111.166.111.266 0 .207-.17.401-.378.401h-2.866C13.338 9 13 8.638 13 8.223V5.376c0-.1.04-.195.11-.266.148-.146.387-.146.535 0z"/>
  </g>
</svg>